<?xml version="1.0" standalone="no"?>
<!DOCTYPE svg PUBLIC "-//W3C//DTD SVG 20010904//EN"
 "http://www.w3.org/TR/2001/REC-SVG-20010904/DTD/svg10.dtd">
<svg version="1.0" xmlns="http://www.w3.org/2000/svg"
 width="1334pt" height="1000pt" viewBox="0 0 1334 1000"
 preserveAspectRatio="xMidYMid meet">
<metadata>
Created by potrace 1.9, written by Peter Selinger 2001-2010
</metadata>
<g transform="translate(0,1000) scale(0.100000,-0.100000)"
fill="#000000" stroke="none">
<path d="M251 6082 c-19 -10 -43 -34 -53 -53 -17 -32 -18 -115 -18 -2014 0
-1904 1 -1982 18 -2015 25 -46 81 -74 130 -65 33 6 150 119 1040 1008 711 711
1005 1011 1013 1035 24 74 64 31 -999 1096 -583 584 -1010 1004 -1029 1012
-43 18 -61 18 -102 -4z m1007 -1245 l822 -822 -825 -825 -825 -825 0 1648 c0
906 1 1647 3 1647 1 0 372 -370 825 -823z"/>
<path d="M7995 6094 c-684 -55 -1279 -418 -1631 -994 -67 -111 -139 -262 -179
-375 -15 -44 -31 -83 -34 -87 -3 -3 -52 -11 -109 -17 -362 -39 -663 -175 -905
-411 -76 -74 -97 -101 -97 -122 0 -22 -13 -38 -57 -73 -179 -142 -413 -235
-649 -257 -347 -33 -685 77 -942 305 -37 33 -82 66 -101 74 -97 41 -194 -51
-161 -152 30 -90 296 -282 514 -371 433 -177 942 -139 1338 99 169 102 313
224 324 276 9 42 17 53 94 118 161 135 404 239 614 261 l78 8 -6 -45 c-41
-286 -27 -546 44 -831 70 -279 187 -517 372 -759 l80 -104 -250 -251 c-259
-261 -283 -292 -267 -353 16 -67 79 -110 143 -98 31 5 77 46 298 266 231 230
262 258 274 244 21 -26 206 -157 302 -214 316 -189 673 -285 1058 -285 557 0
1074 211 1461 595 398 396 613 914 613 1479 0 475 -143 896 -434 1276 l-78
102 254 253 c262 262 282 288 269 349 -8 39 -56 87 -95 95 -66 15 -93 -5 -357
-268 l-253 -251 -27 26 c-46 42 -174 133 -274 194 -233 142 -488 233 -775 278
-102 16 -357 27 -449 20z m418 -265 c215 -32 478 -126 660 -235 71 -43 236
-163 254 -185 10 -13 -56 -83 -396 -423 l-408 -408 -74 16 c-269 57 -541 40
-809 -51 -149 -50 -306 -134 -425 -228 -22 -17 -45 -34 -51 -38 -7 -4 -34 10
-60 31 -195 152 -400 243 -671 298 l-22 4 19 55 c140 406 514 814 922 1005
210 98 418 154 648 174 73 6 334 -3 413 -15z m1190 -716 c152 -203 250 -407
312 -653 39 -155 49 -245 49 -440 0 -195 -10 -285 -49 -440 -84 -332 -244
-610 -494 -859 -240 -238 -514 -393 -841 -476 -155 -39 -245 -49 -440 -49
-102 0 -221 6 -265 13 -316 50 -613 178 -864 373 -34 27 -61 51 -61 56 0 4
199 206 443 450 l443 443 65 -10 c431 -70 904 67 1231 356 37 32 78 66 93 76
39 27 59 77 51 123 -14 75 -224 258 -430 375 l-58 32 363 363 c200 200 367
364 371 364 4 0 40 -44 81 -97z m-1340 -741 l47 -7 -278 -278 -279 -279 -79
32 c-43 17 -108 47 -143 66 -85 47 -211 141 -211 158 0 19 130 116 220 165 82
44 206 92 300 116 114 30 312 42 423 27z m-1778 -32 c104 -28 221 -75 307
-124 78 -44 208 -142 207 -154 -6 -40 7 -62 79 -130 125 -119 349 -270 450
-303 l35 -11 -399 -399 c-219 -219 -401 -396 -406 -393 -15 10 -154 198 -191
261 -111 184 -202 440 -238 668 -17 106 -17 417 0 528 l13 88 37 -7 c20 -3 68
-14 106 -24z m2236 -107 c48 -25 121 -72 163 -105 88 -68 89 -62 -13 -137
-129 -96 -323 -182 -484 -215 -43 -9 -136 -19 -205 -22 l-127 -6 270 271 c219
220 274 270 290 265 11 -3 59 -26 106 -51z"/>
<path d="M12011 6082 c-19 -10 -43 -34 -53 -53 -17 -32 -18 -83 -18 -1006 l0
-973 -485 -970 c-269 -538 -487 -986 -490 -1007 -8 -49 19 -100 66 -125 32
-17 84 -18 1034 -18 950 0 1002 1 1034 18 37 20 71 72 71 109 0 13 -220 464
-490 1003 l-490 980 0 978 c0 927 -1 979 -18 1011 -19 36 -72 71 -107 71 -11
0 -36 -8 -54 -18z m56 -3900 c-424 -1 -772 0 -774 2 -2 2 170 352 383 777
l387 774 387 -775 388 -775 -771 -3z"/>
</g>
</svg>
