<?xml version="1.0" standalone="no"?>
<!DOCTYPE svg PUBLIC "-//W3C//DTD SVG 20010904//EN"
 "http://www.w3.org/TR/2001/REC-SVG-20010904/DTD/svg10.dtd">
<svg version="1.0" xmlns="http://www.w3.org/2000/svg"
 width="1530pt" height="1000pt" viewBox="0 0 1530 1000"
 preserveAspectRatio="xMidYMid meet">
<metadata>
Created by potrace 1.9, written by Peter Selinger 2001-2010
</metadata>
<g transform="translate(0,1000) scale(0.100000,-0.100000)"
fill="#000000" stroke="none">
<path d="M3191 6082 c-19 -10 -43 -34 -53 -53 -17 -32 -18 -88 -18 -1167 l0
-1133 -72 74 c-40 41 -101 94 -134 119 -125 91 -333 178 -486 203 l-38 6 0
442 c0 494 1 491 -71 529 -32 17 -84 18 -1034 18 -950 0 -1002 -1 -1034 -18
-19 -10 -43 -34 -53 -53 -17 -32 -18 -84 -18 -1034 0 -950 1 -1002 18 -1034
38 -72 35 -71 529 -71 l442 0 6 -37 c17 -99 70 -256 122 -353 158 -300 445
-502 798 -564 364 -64 780 97 1017 394 125 155 201 338 239 569 18 110 19 192
19 1596 0 1415 -1 1482 -18 1514 -19 36 -72 71 -107 71 -11 0 -36 -8 -54 -18z
m-1051 -1581 l0 -369 -66 -11 c-251 -44 -496 -185 -658 -380 -112 -134 -206
-339 -237 -515 l-11 -66 -369 0 -369 0 0 855 0 855 855 0 855 0 0 -369z m0
-981 l0 -360 -360 0 c-308 0 -360 2 -360 14 0 30 53 183 87 251 70 140 221
293 358 363 71 36 225 91 258 92 16 0 17 -24 17 -360z m352 334 c173 -54 316
-151 429 -290 68 -83 117 -178 155 -299 26 -80 29 -104 29 -225 0 -121 -3
-145 -29 -225 -93 -295 -290 -493 -586 -591 -77 -25 -98 -28 -230 -28 -132 0
-153 3 -230 28 -295 97 -497 300 -584 587 -14 47 -26 88 -26 92 0 4 195 7 433
7 483 0 481 0 519 71 17 31 18 66 18 466 0 266 4 433 9 433 6 0 47 -12 93 -26z"/>
<path d="M4171 6082 c-36 -19 -71 -72 -71 -107 0 -35 35 -88 71 -107 32 -17
112 -18 1901 -18 l1868 0 -427 -855 -428 -855 -460 0 c-427 0 -463 -1 -494
-18 -36 -19 -71 -72 -71 -107 0 -35 35 -88 71 -107 31 -17 65 -18 431 -18
l398 0 -445 -890 c-246 -492 -447 -906 -450 -927 -8 -49 19 -100 66 -125 32
-17 84 -18 1034 -18 950 0 1002 1 1034 18 36 19 71 72 71 107 0 35 -35 88 -71
107 -32 17 -81 18 -921 18 -489 0 -888 2 -888 5 0 3 191 388 425 855 l425 850
1277 0 1278 0 -387 -387 c-405 -408 -418 -423 -403 -493 8 -39 56 -87 95 -95
16 -4 45 -2 63 4 22 8 186 165 544 523 544 546 538 538 514 611 -8 22 -165
186 -523 544 -445 444 -518 513 -550 518 -64 12 -127 -31 -143 -98 -17 -64 1
-86 403 -489 l387 -388 -1213 0 c-666 0 -1212 2 -1212 5 0 3 203 410 450 905
248 495 450 911 450 923 0 37 -34 89 -71 109 -32 17 -115 18 -2014 18 -1899 0
-1982 -1 -2014 -18z"/>
<path d="M13971 5102 c-35 -19 -71 -72 -71 -105 0 -55 41 -103 413 -474 l382
-383 -1815 0 c-1739 0 -1817 -1 -1849 -18 -36 -19 -71 -72 -71 -107 0 -35 35
-88 71 -107 32 -17 110 -18 1849 -18 l1815 0 -387 -387 c-402 -404 -420 -426
-403 -490 16 -67 79 -110 143 -98 32 5 105 74 550 518 358 358 515 522 523
544 24 73 30 65 -509 607 -290 290 -521 514 -539 522 -43 18 -61 18 -102 -4z"/>
<path d="M12005 3141 c-26 -12 -209 -188 -532 -512 -545 -548 -533 -533 -500
-621 24 -62 994 -1030 1050 -1048 64 -20 123 6 152 67 37 76 42 70 -393 506
l-397 397 1820 0 c1744 0 1822 1 1854 18 36 19 71 72 71 107 0 35 -35 88 -71
107 -32 17 -110 18 -1854 18 l-1820 0 397 398 c435 435 430 429 393 505 -32
67 -102 91 -170 58z"/>
</g>
</svg>
