<?xml version="1.0" standalone="no"?>
<!DOCTYPE svg PUBLIC "-//W3C//DTD SVG 20010904//EN"
 "http://www.w3.org/TR/2001/REC-SVG-20010904/DTD/svg10.dtd">
<svg version="1.0" xmlns="http://www.w3.org/2000/svg"
 width="452pt" height="1000pt" viewBox="0 0 452 1000"
 preserveAspectRatio="xMidYMid meet">
<metadata>
Created by potrace 1.9, written by Peter Selinger 2001-2010
</metadata>
<g transform="translate(0,1000) scale(0.100000,-0.100000)"
fill="#000000" stroke="none">
<path d="M2212 6084 c-18 -9 -41 -29 -51 -43 -41 -58 -1971 -3933 -1976 -3968
-16 -104 101 -175 190 -117 20 13 244 452 957 1878 l930 1861 928 -1854 c695
-1390 934 -1860 956 -1878 78 -62 184 -20 201 81 4 27 -135 312 -990 2022
-764 1529 -1001 1995 -1022 2008 -39 25 -85 29 -123 10z"/>
</g>
</svg>
