<?xml version="1.0" standalone="no"?>
<!DOCTYPE svg PUBLIC "-//W3C//DTD SVG 20010904//EN"
 "http://www.w3.org/TR/2001/REC-SVG-20010904/DTD/svg10.dtd">
<svg version="1.0" xmlns="http://www.w3.org/2000/svg"
 width="1432pt" height="1000pt" viewBox="0 0 1432 1000"
 preserveAspectRatio="xMidYMid meet">
<metadata>
Created by potrace 1.9, written by Peter Selinger 2001-2010
</metadata>
<g transform="translate(0,1000) scale(0.100000,-0.100000)"
fill="#000000" stroke="none">
<path d="M251 6082 c-36 -19 -71 -73 -71 -107 1 -58 50 -112 624 -685 322
-322 586 -589 586 -594 0 -5 -9 -19 -19 -30 -33 -36 -128 -228 -155 -312 -33
-109 -56 -242 -56 -334 0 -161 52 -359 137 -520 157 -299 445 -502 798 -564
161 -28 319 -15 499 40 82 26 245 106 303 150 17 13 35 24 40 24 4 0 276 -268
603 -595 624 -624 639 -637 706 -621 68 17 111 80 99 144 -5 32 -85 115 -616
647 l-609 610 35 49 c120 168 205 433 205 636 0 157 -52 357 -132 512 -159
305 -447 510 -803 572 -161 28 -319 15 -499 -40 -87 -28 -271 -120 -320 -160
l-29 -26 -601 601 c-334 333 -614 605 -629 611 -39 14 -57 13 -96 -8z m2239
-1247 c176 -56 318 -152 431 -291 68 -83 117 -178 155 -299 26 -80 29 -104 29
-225 0 -121 -3 -145 -29 -225 -27 -86 -89 -219 -121 -260 -15 -19 -41 6 -607
573 -567 566 -592 592 -573 607 35 27 168 91 236 114 106 35 147 40 274 37 97
-3 137 -9 205 -31z m242 -1518 c-53 -36 -158 -85 -242 -113 -77 -25 -98 -28
-230 -28 -132 0 -153 3 -230 28 -179 59 -319 154 -431 292 -68 82 -117 177
-155 299 -26 82 -29 103 -28 230 0 126 3 149 28 225 29 88 72 182 109 237 l22
33 592 -592 592 -592 -27 -19z"/>
<path d="M12005 6081 c-57 -27 -1988 -1962 -2010 -2013 -13 -33 -15 -161 -15
-1035 0 -948 1 -1000 18 -1032 10 -19 34 -43 53 -53 32 -17 115 -18 2014 -18
1899 0 1982 1 2014 18 19 10 43 34 53 53 17 32 18 84 18 1032 0 834 -2 1003
-14 1030 -18 42 -1991 2013 -2029 2027 -39 14 -56 13 -102 -9z m977 -1208
l918 -918 0 -887 0 -888 -1835 0 -1835 0 0 892 0 893 912 912 c502 502 915
913 918 913 3 0 418 -413 922 -917z"/>
<path d="M6131 3142 c-35 -19 -71 -72 -71 -105 0 -55 41 -103 413 -474 l382
-383 -835 0 c-790 0 -837 -1 -869 -18 -36 -19 -71 -72 -71 -107 0 -35 35 -88
71 -107 32 -17 115 -18 2014 -18 1899 0 1982 1 2014 18 36 19 71 72 71 107 0
35 -35 88 -71 107 -32 17 -79 18 -874 18 l-840 0 397 398 c342 342 398 402
403 434 12 64 -31 127 -98 143 -65 17 -82 2 -555 -469 l-452 -451 -453 452
c-248 249 -465 457 -480 463 -39 14 -57 13 -96 -8z"/>
</g>
</svg>
