<?xml version="1.0" standalone="no"?>
<!DOCTYPE svg PUBLIC "-//W3C//DTD SVG 20010904//EN"
 "http://www.w3.org/TR/2001/REC-SVG-20010904/DTD/svg10.dtd">
<svg version="1.0" xmlns="http://www.w3.org/2000/svg"
 width="1236pt" height="1000pt" viewBox="0 0 1236 1000"
 preserveAspectRatio="xMidYMid meet">
<metadata>
Created by potrace 1.9, written by Peter Selinger 2001-2010
</metadata>
<g transform="translate(0,1000) scale(0.100000,-0.100000)"
fill="#000000" stroke="none">
<path d="M5055 6094 c-684 -55 -1279 -418 -1631 -994 -143 -235 -234 -491
-279 -780 -21 -137 -25 -328 -7 -362 40 -74 167 -77 212 -5 7 12 18 90 26 178
15 182 18 201 50 329 82 329 238 604 484 850 246 246 519 401 850 485 155 39
245 49 440 49 195 0 285 -10 440 -49 331 -84 604 -239 850 -485 246 -246 402
-521 484 -850 32 -128 35 -147 50 -329 8 -88 19 -166 26 -178 45 -72 172 -69
212 5 18 34 14 225 -7 362 -71 458 -269 853 -585 1170 -378 377 -876 590
-1416 604 -82 2 -171 2 -199 0z"/>
<path d="M10045 6081 c-28 -13 -345 -325 -1021 -1002 -792 -794 -984 -991
-994 -1022 -20 -64 6 -123 67 -152 80 -38 24 -87 996 883 l887 887 0 -1748 0
-1747 -438 0 c-404 0 -440 -1 -471 -18 -36 -19 -71 -72 -71 -107 0 -35 35 -88
71 -107 32 -17 84 -18 1034 -18 950 0 1002 1 1034 18 36 19 71 72 71 107 0 35
-35 88 -71 107 -31 17 -67 18 -471 18 l-438 0 0 1742 0 1743 878 -877 c920
-919 911 -910 979 -893 67 16 110 79 98 143 -5 33 -128 159 -1003 1036 -583
583 -1010 1004 -1029 1012 -42 18 -60 17 -108 -5z"/>
<path d="M1232 4124 c-18 -9 -41 -29 -51 -43 -41 -57 -991 -1973 -996 -2008
-16 -104 101 -175 190 -117 20 13 134 232 467 898 l440 881 438 -874 c321
-643 445 -881 466 -898 78 -62 184 -20 201 81 4 27 -69 179 -500 1042 -384
769 -512 1015 -532 1028 -39 25 -85 29 -123 10z"/>
<path d="M4171 4122 c-36 -19 -71 -72 -71 -107 0 -35 35 -88 71 -107 31 -17
65 -18 431 -18 l398 0 -445 -890 c-246 -492 -447 -906 -450 -927 -8 -49 19
-100 66 -125 32 -17 84 -18 1034 -18 950 0 1002 1 1034 18 37 20 71 72 71 109
0 12 -202 428 -450 923 -247 495 -450 902 -450 905 0 3 179 5 398 5 366 0 400
1 431 18 36 19 71 72 71 107 0 35 -35 88 -71 107 -32 17 -84 18 -1034 18 -950
0 -1002 -1 -1034 -18z m1036 -1940 c-424 -1 -772 0 -774 2 -2 2 170 352 383
777 l387 774 387 -775 388 -775 -771 -3z"/>
</g>
</svg>
