<?xml version="1.0" standalone="no"?>
<!DOCTYPE svg PUBLIC "-//W3C//DTD SVG 20010904//EN"
 "http://www.w3.org/TR/2001/REC-SVG-20010904/DTD/svg10.dtd">
<svg version="1.0" xmlns="http://www.w3.org/2000/svg"
 width="1334pt" height="1000pt" viewBox="0 0 1334 1000"
 preserveAspectRatio="xMidYMid meet">
<metadata>
Created by potrace 1.9, written by Peter Selinger 2001-2010
</metadata>
<g transform="translate(0,1000) scale(0.100000,-0.100000)"
fill="#000000" stroke="none">
<path d="M4172 6085 c-18 -8 -85 -59 -150 -114 -446 -377 -752 -915 -857
-1501 -159 -897 169 -1816 857 -2401 141 -120 181 -139 242 -119 71 23 103
119 62 182 -10 15 -68 70 -129 122 -349 294 -605 686 -732 1119 -122 419 -122
875 0 1294 127 433 383 825 732 1119 61 52 119 107 129 122 39 59 12 151 -53
178 -40 17 -59 17 -101 -1z"/>
<path d="M6990 6084 c-122 -22 -238 -62 -349 -121 -308 -161 -509 -452 -568
-819 -16 -100 -16 -107 6 -249 102 -668 339 -1249 727 -1787 213 -295 496
-587 784 -809 106 -82 381 -267 494 -332 62 -36 87 -25 399 182 557 368 1004
871 1327 1494 198 382 327 779 399 1232 20 125 19 131 -5 283 -77 488 -428
840 -920 926 -359 63 -766 -92 -1007 -382 -35 -42 -79 -105 -98 -139 -19 -35
-36 -63 -39 -63 -3 1 -24 33 -47 73 -209 364 -689 586 -1103 511z m400 -269
c353 -114 585 -399 619 -764 5 -54 15 -107 22 -119 43 -69 175 -69 218 0 7 12
17 65 22 119 17 179 89 357 197 484 115 137 243 222 422 281 77 25 98 28 230
28 132 0 153 -3 230 -28 183 -61 317 -152 431 -292 66 -80 115 -175 155 -294
25 -76 28 -100 28 -220 0 -110 -5 -159 -27 -265 -113 -532 -328 -1027 -628
-1446 -257 -359 -581 -679 -944 -931 -139 -96 -215 -139 -236 -133 -27 9 -256
165 -359 244 -403 311 -780 745 -1005 1156 -227 415 -372 837 -440 1280 -20
130 -15 201 22 318 88 280 289 485 564 576 106 35 147 40 274 37 97 -3 136 -9
205 -31z"/>
<path d="M4635 5113 c-256 -40 -449 -208 -510 -443 -21 -81 -24 -188 -7 -222
29 -54 115 -75 172 -41 38 22 48 43 64 139 17 99 43 152 107 216 74 74 144
103 249 103 106 0 175 -29 250 -105 76 -75 105 -144 105 -250 0 -105 -29 -175
-103 -249 -64 -64 -117 -90 -216 -107 -96 -17 -117 -26 -140 -65 -15 -26 -17
-61 -16 -306 0 -228 3 -282 16 -309 44 -92 167 -94 216 -3 16 29 18 59 18 240
l0 207 48 12 c134 34 286 156 354 286 51 97 71 181 71 294 0 59 -6 120 -17
160 -55 202 -217 367 -415 422 -68 19 -194 30 -246 21z"/>
<path d="M11031 5102 c-19 -10 -43 -34 -53 -53 -17 -32 -18 -77 -18 -789 0
-712 1 -757 18 -789 19 -36 72 -71 107 -71 35 0 88 35 107 71 17 32 18 77 18
789 0 712 -1 757 -18 789 -19 36 -72 71 -107 71 -11 0 -36 -8 -54 -18z"/>
<path d="M12011 5102 c-19 -10 -43 -34 -53 -53 -17 -32 -18 -77 -18 -789 0
-712 1 -757 18 -789 19 -36 72 -71 107 -71 35 0 88 35 107 71 17 32 18 77 18
789 0 712 -1 757 -18 789 -19 36 -72 71 -107 71 -11 0 -36 -8 -54 -18z"/>
<path d="M1232 4124 c-18 -9 -41 -29 -51 -43 -41 -57 -991 -1973 -996 -2008
-16 -104 101 -175 190 -117 20 13 134 232 467 898 l440 881 438 -874 c321
-643 445 -881 466 -898 78 -62 184 -20 201 81 4 27 -69 179 -500 1042 -384
769 -512 1015 -532 1028 -39 25 -85 29 -123 10z"/>
<path d="M4673 3173 c-33 -6 -79 -57 -86 -92 -26 -127 122 -210 212 -120 43
42 49 93 18 156 -20 42 -87 68 -144 56z"/>
<path d="M11043 3173 c-33 -6 -79 -57 -86 -92 -26 -127 122 -210 212 -120 43
42 49 93 18 156 -20 42 -87 68 -144 56z"/>
<path d="M12023 3173 c-33 -6 -79 -57 -86 -92 -26 -127 122 -210 212 -120 43
42 49 93 18 156 -20 42 -87 68 -144 56z"/>
</g>
</svg>
