<?xml version="1.0" standalone="no"?>
<!DOCTYPE svg PUBLIC "-//W3C//DTD SVG 20010904//EN"
 "http://www.w3.org/TR/2001/REC-SVG-20010904/DTD/svg10.dtd">
<svg version="1.0" xmlns="http://www.w3.org/2000/svg"
 width="1432pt" height="1000pt" viewBox="0 0 1432 1000"
 preserveAspectRatio="xMidYMid meet">
<metadata>
Created by potrace 1.9, written by Peter Selinger 2001-2010
</metadata>
<g transform="translate(0,1000) scale(0.100000,-0.100000)"
fill="#000000" stroke="none">
<path d="M3070 6084 c-122 -22 -238 -62 -349 -121 -308 -161 -509 -452 -568
-819 -16 -100 -16 -107 6 -249 102 -668 339 -1249 727 -1787 213 -295 500
-591 784 -809 109 -84 285 -204 378 -259 39 -23 72 -46 72 -50 0 -19 73 -42
113 -36 42 7 67 21 307 178 525 342 962 812 1282 1383 236 419 387 861 467
1360 20 125 19 131 -5 283 -77 488 -428 840 -920 926 -359 63 -766 -92 -1007
-382 -35 -42 -79 -105 -98 -139 -19 -35 -36 -63 -39 -63 -3 1 -24 33 -47 73
-209 364 -689 586 -1103 511z m400 -269 c353 -114 585 -399 619 -764 5 -54 15
-107 22 -119 43 -69 175 -69 218 0 7 12 17 65 22 119 17 179 89 357 197 484
115 137 243 222 422 281 77 25 98 28 230 28 132 0 153 -3 230 -28 183 -61 317
-152 431 -292 66 -80 115 -175 155 -294 25 -76 28 -100 28 -220 0 -110 -5
-159 -27 -265 -86 -404 -225 -774 -424 -1130 -233 -414 -580 -812 -991 -1134
-100 -78 -359 -251 -375 -251 -25 0 -221 130 -377 249 -399 305 -780 745
-1005 1156 -227 415 -372 837 -440 1280 -20 130 -15 201 22 318 88 280 289
485 564 576 106 35 147 40 274 37 97 -3 136 -9 205 -31z"/>
<path d="M8975 6094 c-684 -55 -1279 -418 -1631 -994 -143 -235 -234 -491
-279 -780 -21 -137 -25 -328 -7 -362 40 -74 167 -77 212 -5 7 12 18 90 26 178
15 182 18 201 50 329 82 329 238 604 484 850 204 203 406 333 670 430 89 32
232 72 238 65 2 -1 -25 -34 -61 -72 -155 -166 -343 -462 -445 -701 -154 -358
-228 -787 -203 -1164 48 -709 367 -1352 893 -1798 70 -60 143 -113 163 -120
81 -27 158 29 158 114 0 57 -18 81 -146 190 -349 294 -605 686 -732 1119 -122
419 -122 875 0 1294 124 422 377 816 708 1099 l98 84 67 -5 c256 -22 450 -73
670 -175 181 -85 342 -200 502 -360 246 -246 402 -521 484 -850 32 -128 35
-147 50 -329 8 -88 19 -166 26 -178 45 -72 172 -69 212 5 18 34 14 225 -7 362
-71 458 -269 853 -585 1170 -378 377 -876 590 -1416 604 -82 2 -171 2 -199 0z"/>
<path d="M9535 5113 c-256 -40 -449 -208 -510 -443 -21 -81 -24 -188 -7 -222
29 -54 115 -75 172 -41 38 22 48 43 64 139 17 99 43 152 107 216 74 74 144
103 249 103 106 0 175 -29 250 -105 76 -75 105 -144 105 -250 0 -105 -29 -175
-103 -249 -64 -64 -117 -90 -216 -107 -96 -17 -117 -26 -140 -65 -15 -26 -17
-61 -16 -306 0 -228 3 -282 16 -309 44 -92 167 -94 216 -3 16 29 18 59 18 240
l0 207 48 12 c134 34 286 156 354 286 51 97 71 181 71 294 0 59 -6 120 -17
160 -55 202 -217 367 -415 422 -68 19 -194 30 -246 21z"/>
<path d="M12011 5102 c-19 -10 -43 -34 -53 -53 -17 -32 -18 -77 -18 -789 0
-712 1 -757 18 -789 19 -36 72 -71 107 -71 35 0 88 35 107 71 17 32 18 77 18
789 0 712 -1 757 -18 789 -19 36 -72 71 -107 71 -11 0 -36 -8 -54 -18z"/>
<path d="M12991 5102 c-19 -10 -43 -34 -53 -53 -17 -32 -18 -77 -18 -789 0
-712 1 -757 18 -789 19 -36 72 -71 107 -71 35 0 88 35 107 71 17 32 18 77 18
789 0 712 -1 757 -18 789 -19 36 -72 71 -107 71 -11 0 -36 -8 -54 -18z"/>
<path d="M1232 4124 c-18 -9 -41 -29 -51 -43 -41 -57 -991 -1973 -996 -2008
-16 -104 101 -175 190 -117 20 13 134 232 467 898 l440 881 438 -874 c321
-643 445 -881 466 -898 78 -62 184 -20 201 81 4 27 -69 179 -500 1042 -384
769 -512 1015 -532 1028 -39 25 -85 29 -123 10z"/>
<path d="M9573 3173 c-33 -6 -79 -57 -86 -92 -26 -127 122 -210 212 -120 43
42 49 93 18 156 -20 42 -87 68 -144 56z"/>
<path d="M12023 3173 c-33 -6 -79 -57 -86 -92 -26 -127 122 -210 212 -120 43
42 49 93 18 156 -20 42 -87 68 -144 56z"/>
<path d="M13003 3173 c-33 -6 -79 -57 -86 -92 -26 -127 122 -210 212 -120 43
42 49 93 18 156 -20 42 -87 68 -144 56z"/>
</g>
</svg>
