<?xml version="1.0" standalone="no"?>
<!DOCTYPE svg PUBLIC "-//W3C//DTD SVG 20010904//EN"
 "http://www.w3.org/TR/2001/REC-SVG-20010904/DTD/svg10.dtd">
<svg version="1.0" xmlns="http://www.w3.org/2000/svg"
 width="1236pt" height="1000pt" viewBox="0 0 1236 1000"
 preserveAspectRatio="xMidYMid meet">
<metadata>
Created by potrace 1.9, written by Peter Selinger 2001-2010
</metadata>
<g transform="translate(0,1000) scale(0.100000,-0.100000)"
fill="#000000" stroke="none">
<path d="M2212 8044 c-18 -9 -41 -29 -51 -43 -40 -56 -501 -992 -506 -1028
-11 -74 61 -150 132 -139 68 10 76 22 280 430 l195 391 193 -385 c200 -398
216 -423 282 -436 39 -7 95 18 118 53 41 62 45 53 -233 609 -194 389 -267 525
-287 538 -39 25 -85 29 -123 10z"/>
<path d="M2115 6094 c-684 -55 -1279 -418 -1631 -994 -143 -235 -234 -491
-279 -780 -21 -137 -25 -328 -7 -362 40 -74 167 -77 212 -5 7 12 18 90 26 178
15 182 18 201 50 329 82 329 238 604 484 850 246 246 519 401 850 485 155 39
245 49 440 49 195 0 285 -10 440 -49 331 -84 604 -239 850 -485 246 -246 402
-521 484 -850 32 -128 35 -147 50 -329 8 -88 19 -166 26 -178 45 -72 172 -69
212 5 18 34 14 225 -7 362 -71 458 -269 853 -585 1170 -378 377 -876 590
-1416 604 -82 2 -171 2 -199 0z"/>
<path d="M5151 6082 c-36 -19 -71 -73 -71 -107 1 -60 52 -114 969 -1030 l931
-930 -939 -940 c-757 -758 -941 -947 -951 -978 -20 -64 6 -123 67 -152 80 -38
13 -98 1111 998 711 711 1005 1011 1013 1035 24 74 64 31 -999 1096 -583 584
-1010 1004 -1029 1012 -43 18 -61 18 -102 -4z"/>
<path d="M7111 6082 c-36 -19 -71 -73 -71 -107 1 -60 52 -114 969 -1030 l931
-930 -939 -940 c-757 -758 -941 -947 -951 -978 -20 -64 6 -123 67 -152 80 -38
13 -98 1111 998 711 711 1005 1011 1013 1035 24 74 64 31 -999 1096 -583 584
-1010 1004 -1029 1012 -43 18 -61 18 -102 -4z"/>
<path d="M11032 6083 c-18 -9 -41 -28 -51 -42 -41 -58 -1971 -3933 -1976
-3968 -16 -104 101 -175 190 -117 20 13 230 424 895 1753 l869 1736 0 -1632 1
-1633 -438 0 c-404 0 -440 -1 -471 -18 -36 -19 -71 -72 -71 -107 0 -35 35 -88
71 -107 32 -17 84 -18 1034 -18 950 0 1002 1 1034 18 36 19 71 72 71 107 0 35
-35 88 -71 107 -31 17 -67 18 -471 18 l-438 0 0 1908 c0 1828 -1 1909 -18
1941 -19 36 -73 71 -107 71 -11 0 -35 -8 -53 -17z"/>
<path d="M2097 5104 c-456 -71 -810 -401 -907 -846 -28 -127 -35 -269 -20
-370 77 -504 428 -865 925 -952 364 -64 780 97 1017 394 190 237 282 571 233
849 -62 355 -254 632 -550 796 -221 122 -460 166 -698 129z m393 -269 c176
-56 318 -152 431 -291 68 -83 117 -178 155 -299 26 -80 29 -104 29 -225 0
-121 -3 -145 -29 -225 -93 -295 -290 -493 -586 -591 -77 -25 -98 -28 -230 -28
-132 0 -153 3 -230 28 -294 97 -494 298 -584 586 -123 394 93 845 482 1010
130 55 215 70 367 65 85 -2 129 -9 195 -30z"/>
</g>
</svg>
