<?xml version="1.0" standalone="no"?>
<!DOCTYPE svg PUBLIC "-//W3C//DTD SVG 20010904//EN"
 "http://www.w3.org/TR/2001/REC-SVG-20010904/DTD/svg10.dtd">
<svg version="1.0" xmlns="http://www.w3.org/2000/svg"
 width="942pt" height="1000pt" viewBox="0 0 942 1000"
 preserveAspectRatio="xMidYMid meet">
<metadata>
Created by potrace 1.9, written by Peter Selinger 2001-2010
</metadata>
<g transform="translate(0,1000) scale(0.100000,-0.100000)"
fill="#000000" stroke="none">
<path d="M7105 8041 c-28 -13 -346 -325 -1022 -1002 -1072 -1074 -1021 -1018
-993 -1105 10 -32 189 -216 976 -1004 l964 -965 -10 -110 c-38 -433 -217 -811
-530 -1125 -246 -246 -521 -402 -850 -484 -128 -32 -147 -35 -329 -50 -88 -8
-166 -19 -178 -26 -73 -46 -70 -172 5 -212 34 -18 225 -14 362 7 458 71 853
269 1170 585 348 349 556 800 600 1303 l9 100 979 981 c1045 1046 1007 1004
983 1078 -14 41 -1991 2022 -2034 2038 -39 14 -56 13 -102 -9z m948 -1179
l887 -887 -890 -890 -890 -890 -890 890 -890 890 887 887 c489 489 890 888
893 888 3 0 404 -399 893 -888z"/>
<path d="M2211 6082 c-19 -10 -43 -34 -53 -53 -17 -32 -18 -113 -18 -1941 l0
-1908 -928 0 c-879 0 -929 -1 -961 -18 -36 -19 -71 -72 -71 -107 0 -35 35 -88
71 -107 32 -17 115 -18 2014 -18 1899 0 1982 1 2014 18 36 19 71 72 71 107 0
35 -35 88 -71 107 -32 17 -82 18 -961 18 l-928 0 0 855 0 855 928 0 c879 0
929 1 961 18 19 10 43 34 53 53 17 32 18 84 18 1034 0 950 -1 1002 -18 1034
-10 19 -34 43 -53 53 -32 17 -84 18 -1034 18 -950 0 -1002 -1 -1034 -18z
m1889 -1087 l0 -855 -855 0 -855 0 0 855 0 855 855 0 855 0 0 -855z"/>
</g>
</svg>
