<?xml version="1.0" standalone="no"?>
<!DOCTYPE svg PUBLIC "-//W3C//DTD SVG 20010904//EN"
 "http://www.w3.org/TR/2001/REC-SVG-20010904/DTD/svg10.dtd">
<svg version="1.0" xmlns="http://www.w3.org/2000/svg"
 width="158pt" height="1000pt" viewBox="0 0 158 1000"
 preserveAspectRatio="xMidYMid meet">
<metadata>
Created by potrace 1.9, written by Peter Selinger 2001-2010
</metadata>
<g transform="translate(0,1000) scale(0.100000,-0.100000)"
fill="#000000" stroke="none">
<path d="M261 4152 c-84 -13 -128 -114 -82 -187 10 -16 46 -61 81 -100 409
-461 412 -1172 5 -1635 -75 -85 -95 -118 -95 -158 0 -95 99 -154 184 -110 37
19 135 134 208 243 343 516 341 1168 -7 1690 -55 83 -172 222 -200 238 -27 15
-68 23 -94 19z"/>
</g>
</svg>
