<?xml version="1.0" standalone="no"?>
<!DOCTYPE svg PUBLIC "-//W3C//DTD SVG 20010904//EN"
 "http://www.w3.org/TR/2001/REC-SVG-20010904/DTD/svg10.dtd">
<svg version="1.0" xmlns="http://www.w3.org/2000/svg"
 width="452pt" height="1000pt" viewBox="0 0 452 1000"
 preserveAspectRatio="xMidYMid meet">
<metadata>
Created by potrace 1.9, written by Peter Selinger 2001-2010
</metadata>
<g transform="translate(0,1000) scale(0.100000,-0.100000)"
fill="#000000" stroke="none">
<path d="M3191 5102 c-35 -19 -71 -72 -71 -105 0 -55 41 -103 413 -474 l382
-383 -1815 0 c-1739 0 -1817 -1 -1849 -18 -36 -19 -71 -72 -71 -107 0 -35 35
-88 71 -107 32 -17 110 -18 1849 -18 l1815 0 -387 -387 c-326 -327 -388 -394
-398 -429 -24 -82 -23 -84 398 -506 l387 -388 -1815 0 c-1739 0 -1817 -1
-1849 -18 -36 -19 -71 -72 -71 -107 0 -35 35 -88 71 -107 32 -17 110 -18 1849
-18 l1815 0 -387 -388 c-402 -403 -420 -425 -403 -489 16 -67 79 -110 143 -98
32 5 105 74 550 518 358 358 515 522 523 544 23 72 27 68 -462 558 l-459 460
455 455 c315 315 458 465 466 488 24 72 30 64 -509 606 -290 290 -521 514
-539 522 -43 18 -61 18 -102 -4z"/>
</g>
</svg>
