<?xml version="1.0" standalone="no"?>
<!DOCTYPE svg PUBLIC "-//W3C//DTD SVG 20010904//EN"
 "http://www.w3.org/TR/2001/REC-SVG-20010904/DTD/svg10.dtd">
<svg version="1.0" xmlns="http://www.w3.org/2000/svg"
 width="1432pt" height="1000pt" viewBox="0 0 1432 1000"
 preserveAspectRatio="xMidYMid meet">
<metadata>
Created by potrace 1.9, written by Peter Selinger 2001-2010
</metadata>
<g transform="translate(0,1000) scale(0.100000,-0.100000)"
fill="#000000" stroke="none">
<path d="M2115 6094 c-684 -55 -1279 -418 -1631 -994 -143 -235 -234 -491
-279 -780 -21 -137 -25 -328 -7 -362 40 -74 167 -77 212 -5 7 12 18 90 26 178
15 182 18 201 50 329 82 329 238 604 484 850 204 203 406 333 670 430 149 54
359 100 459 100 l41 0 0 -1830 0 -1830 -438 0 c-404 0 -440 -1 -471 -18 -36
-19 -71 -72 -71 -107 0 -35 35 -88 71 -107 32 -17 84 -18 1034 -18 950 0 1002
1 1034 18 36 19 71 72 71 107 0 35 -35 88 -71 107 -31 17 -67 18 -471 18
l-438 0 0 1830 0 1830 36 0 c95 0 309 -47 454 -100 264 -97 466 -227 670 -430
246 -246 402 -521 484 -850 32 -128 35 -147 50 -329 8 -94 19 -166 27 -179 8
-13 32 -31 55 -42 39 -19 65 -20 874 -20 l835 0 -387 -387 c-405 -408 -418
-423 -403 -493 8 -39 56 -87 95 -95 16 -4 45 -2 63 4 22 8 186 165 544 523
544 546 538 538 514 611 -8 22 -165 186 -523 544 -445 444 -518 513 -550 518
-64 12 -127 -31 -143 -98 -17 -64 1 -86 403 -489 l387 -388 -773 0 -772 0 0
41 c0 110 -63 401 -120 559 -207 565 -665 1023 -1230 1230 -108 39 -286 84
-416 104 -102 16 -357 27 -449 20z"/>
<path d="M10065 6092 c-99 -35 -118 -168 -32 -222 12 -7 90 -18 178 -26 182
-15 201 -18 329 -50 165 -41 358 -119 493 -200 242 -146 495 -399 641 -641
133 -221 246 -579 246 -777 0 -39 -3 -46 -22 -50 -179 -35 -281 -73 -405 -147
-181 -110 -291 -224 -394 -411 -108 -195 -160 -459 -129 -660 77 -505 427
-865 925 -952 291 -51 619 41 870 243 191 154 332 405 380 682 62 352 -102
779 -385 1004 -158 125 -307 192 -532 240 -26 5 -28 9 -28 51 0 198 113 556
246 777 146 242 399 495 641 641 135 81 328 159 493 200 128 32 147 35 329 50
88 8 166 19 178 26 72 45 69 172 -5 212 -34 18 -225 14 -362 -7 -629 -97
-1150 -442 -1476 -975 -63 -105 -145 -272 -165 -337 -6 -24 -15 -43 -19 -43
-4 0 -13 19 -19 43 -7 23 -34 87 -60 142 -207 436 -555 786 -986 991 -242 115
-526 185 -800 198 -60 3 -119 2 -130 -2z m2225 -2237 c83 -27 188 -75 242
-112 l27 -19 -252 -252 -252 -252 -250 250 -250 251 25 19 c39 31 179 96 245
115 149 44 329 43 465 0z m-664 -1064 c-285 -285 -251 -271 -319 -136 -142
283 -125 588 47 852 l21 33 250 -250 250 -250 -249 -249z m1131 732 c30 -39
93 -173 119 -258 26 -80 29 -104 29 -225 0 -121 -3 -145 -29 -225 -27 -86 -89
-219 -121 -260 -15 -19 -26 -9 -268 233 l-252 252 250 250 c137 137 252 250
254 250 2 0 10 -8 18 -17z m-225 -1186 c-53 -36 -158 -85 -242 -113 -77 -25
-98 -28 -230 -28 -132 0 -153 3 -230 28 -47 15 -119 46 -160 67 -134 70 -149
34 135 319 l250 250 252 -252 252 -252 -27 -19z"/>
<path d="M7111 4122 c-36 -19 -71 -73 -71 -107 1 -57 49 -111 479 -540 l441
-440 -449 -450 c-468 -470 -483 -487 -466 -552 16 -67 79 -110 143 -98 32 5
98 68 494 463 l458 457 452 -452 c473 -470 490 -485 555 -468 67 16 110 79 98
143 -5 32 -68 99 -466 497 l-459 460 455 455 c315 315 458 465 466 488 6 17 8
46 4 62 -8 39 -56 87 -95 95 -70 15 -82 6 -558 -469 l-452 -451 -453 452
c-248 249 -465 457 -480 463 -39 14 -57 13 -96 -8z"/>
</g>
</svg>
