<?xml version="1.0" standalone="no"?>
<!DOCTYPE svg PUBLIC "-//W3C//DTD SVG 20010904//EN"
 "http://www.w3.org/TR/2001/REC-SVG-20010904/DTD/svg10.dtd">
<svg version="1.0" xmlns="http://www.w3.org/2000/svg"
 width="452pt" height="1000pt" viewBox="0 0 452 1000"
 preserveAspectRatio="xMidYMid meet">
<metadata>
Created by potrace 1.9, written by Peter Selinger 2001-2010
</metadata>
<g transform="translate(0,1000) scale(0.100000,-0.100000)"
fill="#000000" stroke="none">
<path d="M251 6082 c-36 -19 -71 -73 -71 -107 1 -60 52 -114 999 -1060 l961
-960 0 -887 0 -888 -928 0 c-879 0 -929 -1 -961 -18 -36 -19 -71 -72 -71 -107
0 -35 35 -88 71 -107 32 -17 115 -18 2014 -18 1899 0 1982 1 2014 18 36 19 71
72 71 107 0 35 -35 88 -71 107 -32 17 -82 18 -961 18 l-928 0 0 893 0 892 970
970 c687 686 973 980 981 1003 6 17 8 46 4 62 -8 39 -56 87 -95 95 -73 16 -53
35 -1048 -959 l-942 -941 -943 942 c-531 531 -954 947 -970 953 -39 14 -57 13
-96 -8z"/>
</g>
</svg>
