<?xml version="1.0" standalone="no"?>
<!DOCTYPE svg PUBLIC "-//W3C//DTD SVG 20010904//EN"
 "http://www.w3.org/TR/2001/REC-SVG-20010904/DTD/svg10.dtd">
<svg version="1.0" xmlns="http://www.w3.org/2000/svg"
 width="452pt" height="1000pt" viewBox="0 0 452 1000"
 preserveAspectRatio="xMidYMid meet">
<metadata>
Created by potrace 1.9, written by Peter Selinger 2001-2010
</metadata>
<g transform="translate(0,1000) scale(0.100000,-0.100000)"
fill="#000000" stroke="none">
<path d="M251 6082 c-19 -10 -43 -34 -53 -53 -17 -32 -18 -115 -18 -2014 0
-1899 1 -1982 18 -2014 10 -19 34 -43 53 -53 32 -17 115 -18 2014 -18 1899 0
1982 1 2014 18 19 10 43 34 53 53 17 32 18 115 18 2014 0 1899 -1 1982 -18
2014 -10 19 -34 43 -53 53 -32 17 -115 18 -2014 18 -1899 0 -1982 -1 -2014
-18z m2836 -1059 l-827 -828 -827 828 -828 827 1655 0 1655 0 -828 -827z
m1013 -1010 l0 -1658 -830 830 -830 830 827 827 c456 456 829 828 830 828 2 0
3 -746 3 -1657z m-2842 824 l822 -822 -825 -825 -825 -825 0 1648 c0 906 1
1647 3 1647 1 0 372 -370 825 -823z m1832 -1832 l825 -825 -1655 0 -1655 0
825 825 c454 454 827 825 830 825 3 0 376 -371 830 -825z"/>
</g>
</svg>
