<?xml version="1.0" standalone="no"?>
<!DOCTYPE svg PUBLIC "-//W3C//DTD SVG 20010904//EN"
 "http://www.w3.org/TR/2001/REC-SVG-20010904/DTD/svg10.dtd">
<svg version="1.0" xmlns="http://www.w3.org/2000/svg"
 width="1579pt" height="1000pt" viewBox="0 0 1579 1000"
 preserveAspectRatio="xMidYMid meet">
<metadata>
Created by potrace 1.9, written by Peter Selinger 2001-2010
</metadata>
<g transform="translate(0,1000) scale(0.100000,-0.100000)"
fill="#000000" stroke="none">
<path d="M2212 8044 c-18 -9 -41 -29 -51 -43 -41 -58 -1971 -3933 -1976 -3968
-8 -49 19 -100 66 -125 31 -17 65 -18 431 -18 l398 0 -445 -890 c-246 -492
-447 -906 -450 -927 -8 -49 19 -100 66 -125 32 -17 115 -18 2014 -18 1899 0
1982 1 2014 18 37 20 71 72 71 109 0 12 -202 428 -450 923 -247 495 -450 902
-450 905 0 3 179 5 398 5 366 0 400 1 431 18 37 20 71 72 71 109 0 13 -447
918 -994 2011 -764 1527 -1000 1993 -1021 2006 -39 25 -85 29 -123 10z m932
-2151 l876 -1753 -350 0 -350 0 -479 958 c-377 753 -485 963 -508 978 -15 10
-46 19 -68 19 -85 0 -63 38 -583 -1001 l-477 -954 -347 0 c-192 0 -348 2 -348
5 0 10 1751 3507 1754 3504 2 -2 398 -793 880 -1756z m-877 -3711 c-963 -1
-1752 0 -1754 2 -2 2 390 793 873 1757 l877 1754 877 -1755 878 -1755 -1751
-3z"/>
<path d="M5570 3039 c-201 -528 -366 -964 -368 -970 -2 -5 51 -9 131 -9 l134
0 103 295 103 295 412 0 412 0 108 -295 108 -295 142 0 143 0 -234 588 c-129
323 -302 759 -386 970 l-151 382 -146 0 -146 0 -365 -961z m568 576 c34 -99
110 -308 171 -465 l109 -285 -330 -3 c-182 -1 -333 0 -335 2 -2 2 48 140 113
307 64 167 137 377 162 466 26 89 47 161 48 160 1 -1 29 -83 62 -182z"/>
<path d="M7200 3030 l0 -970 605 0 605 0 0 115 0 115 -475 0 -475 0 0 855 0
855 -130 0 -130 0 0 -970z"/>
<path d="M8700 3030 l0 -970 605 0 605 0 0 115 0 115 -475 0 -475 0 0 855 0
855 -130 0 -130 0 0 -970z"/>
<path d="M10370 3039 c-201 -528 -366 -964 -368 -970 -2 -5 51 -9 131 -9 l134
0 103 295 103 295 412 0 412 0 108 -295 108 -295 142 0 143 0 -234 588 c-129
323 -302 759 -386 970 l-151 382 -146 0 -146 0 -365 -961z m568 576 c34 -99
110 -308 171 -465 l109 -285 -330 -3 c-182 -1 -333 0 -335 2 -2 2 48 140 113
307 64 167 137 377 162 466 26 89 47 161 48 160 1 -1 29 -83 62 -182z"/>
<path d="M12020 3030 l0 -970 130 0 130 0 0 455 0 455 495 0 495 0 0 -455 0
-455 130 0 130 0 0 970 0 970 -130 0 -130 0 0 -400 0 -400 -495 0 -495 0 0
400 0 400 -130 0 -130 0 0 -970z"/>
</g>
</svg>
