<?xml version="1.0" standalone="no"?>
<!DOCTYPE svg PUBLIC "-//W3C//DTD SVG 20010904//EN"
 "http://www.w3.org/TR/2001/REC-SVG-20010904/DTD/svg10.dtd">
<svg version="1.0" xmlns="http://www.w3.org/2000/svg"
 width="1628pt" height="1000pt" viewBox="0 0 1628 1000"
 preserveAspectRatio="xMidYMid meet">
<metadata>
Created by potrace 1.9, written by Peter Selinger 2001-2010
</metadata>
<g transform="translate(0,1000) scale(0.100000,-0.100000)"
fill="#000000" stroke="none">
<path d="M251 4122 c-36 -19 -71 -72 -71 -107 0 -35 35 -88 71 -107 31 -17 65
-18 431 -18 l398 0 -445 -890 c-246 -492 -447 -906 -450 -927 -16 -104 101
-175 190 -117 20 13 134 232 467 898 l440 881 439 -877 c478 -955 459 -923
544 -923 22 0 53 9 68 19 23 15 124 209 469 900 l440 881 438 -874 c321 -643
445 -881 466 -898 78 -62 184 -20 201 81 4 27 -61 164 -446 934 -248 496 -451
904 -451 907 0 3 179 5 398 5 366 0 400 1 431 18 36 19 71 72 71 107 0 35 -35
88 -71 107 -32 17 -115 18 -2014 18 -1899 0 -1982 -1 -2014 -18z m2403 -1004
c-212 -425 -388 -775 -390 -777 -3 -3 -774 1534 -774 1544 0 3 349 5 775 5
l775 0 -386 -772z"/>
<path d="M6010 4124 c-270 -49 -508 -184 -674 -383 -76 -91 -164 -253 -200
-368 -53 -171 -69 -347 -35 -401 43 -68 165 -68 208 0 7 12 17 65 22 119 34
365 263 647 619 765 77 25 98 28 230 28 132 0 153 -3 230 -28 122 -41 225 -96
305 -164 188 -159 292 -361 315 -614 23 -248 62 -397 147 -558 157 -299 445
-502 798 -564 364 -64 780 97 1017 394 153 190 228 402 258 728 35 378 258
658 620 778 77 25 98 28 230 28 132 0 153 -3 230 -28 183 -61 317 -152 431
-292 104 -127 171 -298 188 -473 5 -54 15 -107 22 -119 43 -68 165 -68 208 0
51 83 -5 375 -111 580 -160 308 -444 509 -804 572 -223 39 -459 -2 -683 -121
-192 -100 -344 -252 -444 -444 -86 -162 -123 -304 -147 -553 -35 -381 -259
-663 -620 -782 -77 -25 -98 -28 -230 -28 -132 0 -153 3 -230 28 -179 59 -319
154 -431 292 -106 130 -172 299 -189 490 -27 284 -81 461 -195 639 -222 347
-685 552 -1085 479z"/>
<path d="M12011 4122 c-47 -25 -74 -76 -66 -125 3 -21 224 -474 500 -1027 538
-1076 515 -1035 600 -1035 22 0 53 9 68 19 23 15 124 209 469 900 l440 881
439 -877 c478 -955 459 -923 544 -923 22 0 53 9 68 20 23 14 136 232 533 1027
277 555 504 1018 504 1031 0 37 -34 89 -71 109 -32 17 -115 18 -2014 18 -1899
0 -1982 -1 -2014 -18z m1423 -1004 c-212 -425 -388 -775 -390 -777 -3 -3 -774
1534 -774 1544 0 3 349 5 775 5 l775 0 -386 -772z m1960 0 c-212 -425 -388
-775 -390 -777 -3 -3 -774 1534 -774 1544 0 3 349 5 775 5 l775 0 -386 -772z"/>
<path d="M1160 1684 c-14 -2 -59 -9 -100 -15 -220 -31 -402 -100 -597 -225
-150 -97 -271 -203 -305 -268 -49 -95 25 -201 128 -182 26 5 58 28 113 79 118
111 206 173 326 232 208 101 330 129 555 129 217 0 340 -27 537 -119 100 -47
153 -81 253 -161 55 -44 67 -60 78 -99 14 -53 63 -104 187 -194 173 -126 333
-202 531 -252 414 -104 849 -30 1208 208 100 67 215 165 240 205 9 14 16 47
16 72 0 39 -5 51 -35 81 -30 30 -42 35 -81 35 -48 0 -104 -30 -154 -85 -106
-114 -365 -245 -575 -291 -98 -21 -377 -24 -475 -5 -104 20 -218 59 -325 111
-111 54 -265 161 -265 185 0 66 -131 195 -323 319 -189 121 -341 180 -572 222
-80 15 -318 27 -365 18z"/>
</g>
</svg>
