<?xml version="1.0" standalone="no"?>
<!DOCTYPE svg PUBLIC "-//W3C//DTD SVG 20010904//EN"
 "http://www.w3.org/TR/2001/REC-SVG-20010904/DTD/svg10.dtd">
<svg version="1.0" xmlns="http://www.w3.org/2000/svg"
 width="697pt" height="1000pt" viewBox="0 0 697 1000"
 preserveAspectRatio="xMidYMid meet">
<metadata>
Created by potrace 1.9, written by Peter Selinger 2001-2010
</metadata>
<g transform="translate(0,1000) scale(0.100000,-0.100000)"
fill="#000000" stroke="none">
<path d="M4855 4024 c-411 -47 -685 -275 -781 -650 -123 -487 41 -1026 373
-1223 204 -121 536 -153 773 -75 237 79 419 276 499 542 l19 60 -125 31 c-69
18 -127 30 -128 29 -1 -2 -12 -34 -25 -73 -68 -211 -201 -341 -400 -391 -98
-25 -262 -15 -360 21 -264 98 -394 316 -407 686 -10 264 44 479 151 608 118
141 274 211 472 211 177 0 282 -40 382 -144 56 -58 132 -186 132 -223 0 -24
24 -24 144 2 l124 28 -18 51 c-62 180 -180 327 -333 415 -125 71 -336 112
-492 95z"/>
<path d="M670 3039 c-201 -528 -366 -964 -368 -970 -2 -5 51 -9 131 -9 l134 0
103 295 103 295 412 0 412 0 108 -295 108 -295 142 0 143 0 -234 588 c-129
323 -302 759 -386 970 l-151 382 -146 0 -146 0 -365 -961z m568 576 c34 -99
110 -308 171 -465 l109 -285 -330 -3 c-182 -1 -333 0 -335 2 -2 2 48 140 113
307 64 167 137 377 162 466 26 89 47 161 48 160 1 -1 29 -83 62 -182z"/>
<path d="M2300 3031 l0 -971 383 0 c531 0 640 12 795 85 95 45 165 116 216
218 132 269 47 570 -197 692 -38 19 -76 35 -83 35 -26 0 -13 15 42 50 153 95
233 268 204 440 -25 150 -121 280 -254 345 -128 63 -161 67 -658 72 l-448 5 0
-971z m869 728 c150 -24 230 -111 239 -260 6 -101 -14 -161 -71 -217 -83 -81
-108 -86 -464 -90 l-313 -4 0 291 0 291 273 0 c149 0 301 -5 336 -11z m52
-813 c178 -38 279 -156 279 -326 0 -139 -74 -252 -195 -301 -59 -23 -69 -24
-402 -27 l-343 -3 0 335 0 336 298 0 c217 0 315 -4 363 -14z"/>
</g>
</svg>
