<?xml version="1.0" standalone="no"?>
<!DOCTYPE svg PUBLIC "-//W3C//DTD SVG 20010904//EN"
 "http://www.w3.org/TR/2001/REC-SVG-20010904/DTD/svg10.dtd">
<svg version="1.0" xmlns="http://www.w3.org/2000/svg"
 width="795pt" height="1000pt" viewBox="0 0 795 1000"
 preserveAspectRatio="xMidYMid meet">
<metadata>
Created by potrace 1.9, written by Peter Selinger 2001-2010
</metadata>
<g transform="translate(0,1000) scale(0.100000,-0.100000)"
fill="#000000" stroke="none">
<path d="M6565 6075 c-30 -31 -35 -42 -35 -83 0 -41 6 -54 43 -99 144 -176
180 -225 220 -302 54 -102 100 -230 124 -343 24 -115 24 -370 -1 -488 -44
-211 -175 -473 -291 -580 -55 -50 -85 -106 -85 -154 0 -39 5 -51 35 -81 30
-30 42 -35 81 -35 59 0 85 17 159 100 295 336 428 810 350 1253 -52 290 -173
538 -374 762 -63 70 -88 85 -143 85 -41 0 -52 -5 -83 -35z"/>
<path d="M5620 6083 c-39 -25 -138 -142 -203 -239 -343 -518 -339 -1167 9
-1690 73 -111 169 -215 217 -237 71 -33 146 -1 168 72 17 56 0 95 -82 186
-152 171 -247 360 -296 587 -24 115 -24 370 1 488 44 211 175 473 291 580 55
50 85 106 85 154 0 39 -5 51 -35 81 -31 30 -42 35 -83 35 -26 0 -58 -8 -72
-17z"/>
<path d="M251 4122 c-19 -10 -43 -34 -53 -53 -17 -32 -18 -84 -18 -1034 0
-950 1 -1002 18 -1034 19 -36 72 -71 107 -71 35 0 88 35 107 71 17 32 18 82
18 961 l0 928 1835 0 1835 0 0 -928 c0 -879 1 -929 18 -961 19 -36 72 -71 107
-71 35 0 88 35 107 71 17 32 18 84 18 1034 0 950 -1 1002 -18 1034 -10 19 -34
43 -53 53 -32 17 -115 18 -2014 18 -1899 0 -1982 -1 -2014 -18z"/>
</g>
</svg>
