<?xml version="1.0" standalone="no"?>
<!DOCTYPE svg PUBLIC "-//W3C//DTD SVG 20010904//EN"
 "http://www.w3.org/TR/2001/REC-SVG-20010904/DTD/svg10.dtd">
<svg version="1.0" xmlns="http://www.w3.org/2000/svg"
 width="452pt" height="1000pt" viewBox="0 0 452 1000"
 preserveAspectRatio="xMidYMid meet">
<metadata>
Created by potrace 1.9, written by Peter Selinger 2001-2010
</metadata>
<g transform="translate(0,1000) scale(0.100000,-0.100000)"
fill="#000000" stroke="none">
<path d="M1225 5101 c-26 -12 -209 -188 -532 -512 -545 -548 -533 -533 -500
-621 24 -62 994 -1030 1050 -1048 64 -20 123 6 152 67 37 76 42 70 -393 506
l-397 397 1655 0 1655 0 -387 -387 c-405 -408 -418 -423 -403 -493 8 -39 56
-87 95 -95 16 -4 45 -2 63 4 22 8 186 165 544 523 544 546 538 538 514 611 -8
22 -165 186 -523 544 -445 444 -518 513 -550 518 -64 12 -127 -31 -143 -98
-17 -64 1 -86 403 -489 l387 -388 -1655 0 -1655 0 397 398 c435 435 430 429
393 505 -32 67 -102 91 -170 58z"/>
</g>
</svg>
