<?xml version="1.0" standalone="no"?>
<!DOCTYPE svg PUBLIC "-//W3C//DTD SVG 20010904//EN"
 "http://www.w3.org/TR/2001/REC-SVG-20010904/DTD/svg10.dtd">
<svg version="1.0" xmlns="http://www.w3.org/2000/svg"
 width="942pt" height="1000pt" viewBox="0 0 942 1000"
 preserveAspectRatio="xMidYMid meet">
<metadata>
Created by potrace 1.9, written by Peter Selinger 2001-2010
</metadata>
<g transform="translate(0,1000) scale(0.100000,-0.100000)"
fill="#000000" stroke="none">
<path d="M1721 8042 c-47 -25 -74 -76 -66 -125 3 -21 118 -263 255 -537 272
-544 273 -545 355 -545 78 1 77 -2 357 559 278 556 274 547 233 609 -23 35
-79 60 -118 53 -66 -13 -82 -38 -282 -436 l-193 -385 -195 391 c-143 286 -202
395 -222 408 -41 27 -85 30 -124 8z"/>
<path d="M2115 6094 c-684 -55 -1279 -418 -1631 -994 -199 -327 -298 -686
-298 -1080 0 -204 15 -323 64 -520 184 -731 759 -1306 1490 -1490 197 -49 316
-64 520 -64 557 0 1074 211 1461 595 324 322 531 737 593 1184 38 278 38 313
0 590 -114 830 -724 1511 -1534 1715 -63 15 -161 36 -216 44 -102 16 -357 27
-449 20z m25 -1177 c0 -874 1 -924 18 -956 10 -19 34 -43 53 -53 32 -17 82
-18 951 -18 l918 0 0 -36 c0 -143 -76 -420 -170 -622 -142 -302 -420 -607
-717 -786 -184 -110 -440 -201 -668 -237 -103 -16 -427 -16 -530 0 -228 36
-484 127 -668 237 -240 145 -495 400 -640 641 -111 184 -202 440 -238 668 -16
103 -16 427 0 530 36 228 127 484 237 668 146 242 399 495 641 641 218 130
561 241 761 245 l52 1 0 -923z m393 912 c215 -32 478 -126 660 -235 297 -179
575 -484 717 -786 96 -205 170 -479 170 -627 l0 -41 -845 0 -845 0 0 850 0
850 36 0 c19 0 68 -5 107 -11z"/>
<path d="M5151 6082 c-19 -10 -43 -34 -53 -53 -17 -32 -18 -115 -18 -2014 0
-1899 1 -1982 18 -2014 10 -19 34 -43 53 -53 32 -17 115 -18 2014 -18 1899 0
1982 1 2014 18 19 10 43 34 53 53 17 32 18 115 18 2014 0 1899 -1 1982 -18
2014 -10 19 -34 43 -53 53 -32 17 -115 18 -2014 18 -1899 0 -1982 -1 -2014
-18z m2836 -1059 l-827 -828 -827 828 -828 827 1655 0 1655 0 -828 -827z
m1013 -1010 l0 -1658 -830 830 -830 830 827 827 c456 456 829 828 830 828 2 0
3 -746 3 -1657z m-2842 824 l822 -822 -825 -825 -825 -825 0 1648 c0 906 1
1647 3 1647 1 0 372 -370 825 -823z m1832 -1832 l825 -825 -1655 0 -1655 0
825 825 c454 454 827 825 830 825 3 0 376 -371 830 -825z"/>
</g>
</svg>
