<?xml version="1.0" standalone="no"?>
<!DOCTYPE svg PUBLIC "-//W3C//DTD SVG 20010904//EN"
 "http://www.w3.org/TR/2001/REC-SVG-20010904/DTD/svg10.dtd">
<svg version="1.0" xmlns="http://www.w3.org/2000/svg"
 width="844pt" height="1000pt" viewBox="0 0 844 1000"
 preserveAspectRatio="xMidYMid meet">
<metadata>
Created by potrace 1.9, written by Peter Selinger 2001-2010
</metadata>
<g transform="translate(0,1000) scale(0.100000,-0.100000)"
fill="#000000" stroke="none">
<path d="M6132 8044 c-18 -9 -41 -29 -51 -43 -41 -58 -1971 -3933 -1976 -3968
-8 -49 19 -100 66 -125 31 -17 65 -18 431 -18 l398 0 -445 -890 c-246 -492
-447 -906 -450 -927 -8 -49 19 -100 66 -125 32 -17 115 -18 2014 -18 1899 0
1982 1 2014 18 37 20 71 72 71 109 0 12 -202 428 -450 923 -247 495 -450 902
-450 905 0 3 179 5 398 5 366 0 400 1 431 18 37 20 71 72 71 109 0 13 -447
918 -994 2011 -764 1527 -1000 1993 -1021 2006 -39 25 -85 29 -123 10z m932
-2151 l876 -1753 -350 0 -350 0 -479 958 c-377 753 -485 963 -508 978 -15 10
-46 19 -68 19 -85 0 -63 38 -583 -1001 l-477 -954 -347 0 c-192 0 -348 2 -348
5 0 10 1751 3507 1754 3504 2 -2 398 -793 880 -1756z m-877 -3711 c-963 -1
-1752 0 -1754 2 -2 2 390 793 873 1757 l877 1754 877 -1755 878 -1755 -1751
-3z"/>
<path d="M265 6092 c-99 -35 -118 -168 -32 -222 12 -7 90 -18 178 -26 182 -15
201 -18 329 -50 329 -82 604 -238 850 -484 241 -241 399 -516 481 -833 62
-244 69 -380 69 -1414 l0 -883 -438 0 c-404 0 -440 -1 -471 -18 -36 -19 -71
-72 -71 -107 0 -35 35 -88 71 -107 32 -17 84 -18 1034 -18 950 0 1002 1 1034
18 36 19 71 72 71 107 0 35 -35 88 -71 107 -31 17 -67 18 -472 18 l-438 0 4
1028 c3 872 6 1039 20 1107 78 409 238 716 517 995 246 246 521 402 850 484
128 32 147 35 329 50 88 8 166 19 178 26 72 45 69 172 -5 212 -60 31 -354 5
-582 -52 -526 -133 -990 -478 -1261 -940 l-44 -75 -5 500 c-5 461 -6 502 -23
527 -19 27 -72 58 -102 58 -30 0 -83 -31 -102 -58 -17 -25 -18 -66 -23 -535
l-5 -507 -49 82 c-281 474 -736 815 -1266 948 -194 48 -497 82 -555 62z"/>
</g>
</svg>
