<?xml version="1.0" standalone="no"?>
<!DOCTYPE svg PUBLIC "-//W3C//DTD SVG 20010904//EN"
 "http://www.w3.org/TR/2001/REC-SVG-20010904/DTD/svg10.dtd">
<svg version="1.0" xmlns="http://www.w3.org/2000/svg"
 width="403pt" height="1000pt" viewBox="0 0 403 1000"
 preserveAspectRatio="xMidYMid meet">
<metadata>
Created by potrace 1.9, written by Peter Selinger 2001-2010
</metadata>
<g transform="translate(0,1000) scale(0.100000,-0.100000)"
fill="#000000" stroke="none">
<path d="M1721 6082 c-19 -10 -43 -34 -53 -53 -17 -32 -18 -84 -18 -1032 0
-874 2 -1002 15 -1035 11 -26 274 -295 888 -909 l872 -873 -835 0 c-790 0
-837 -1 -869 -18 -36 -19 -71 -72 -71 -107 0 -35 35 -88 71 -107 32 -17 84
-18 1034 -18 953 0 1002 1 1035 18 46 25 74 81 65 130 -6 33 -116 147 -981
1012 l-974 975 0 965 c0 916 -1 967 -18 999 -19 36 -72 71 -107 71 -11 0 -36
-8 -54 -18z"/>
<path d="M251 3142 c-36 -19 -71 -73 -71 -107 1 -57 49 -111 479 -540 l441
-440 -449 -450 c-468 -470 -483 -487 -466 -552 16 -67 79 -110 143 -98 32 5
105 74 550 518 358 358 515 522 523 544 24 73 30 65 -509 607 -290 290 -521
514 -539 522 -43 18 -61 18 -102 -4z"/>
</g>
</svg>
