<?xml version="1.0" standalone="no"?>
<!DOCTYPE svg PUBLIC "-//W3C//DTD SVG 20010904//EN"
 "http://www.w3.org/TR/2001/REC-SVG-20010904/DTD/svg10.dtd">
<svg version="1.0" xmlns="http://www.w3.org/2000/svg"
 width="452pt" height="1000pt" viewBox="0 0 452 1000"
 preserveAspectRatio="xMidYMid meet">
<metadata>
Created by potrace 1.9, written by Peter Selinger 2001-2010
</metadata>
<g transform="translate(0,1000) scale(0.100000,-0.100000)"
fill="#000000" stroke="none">
<path d="M1721 4612 c-36 -19 -71 -73 -71 -107 1 -57 49 -111 531 -591 516
-513 530 -526 596 -509 67 16 110 79 98 143 -5 32 -74 104 -513 546 -290 290
-521 514 -539 522 -43 18 -61 18 -102 -4z"/>
<path d="M251 2162 c-36 -19 -71 -72 -71 -107 0 -35 35 -88 71 -107 32 -17
115 -18 2014 -18 1899 0 1982 1 2014 18 36 19 71 72 71 107 0 35 -35 88 -71
107 -32 17 -115 18 -2014 18 -1899 0 -1982 -1 -2014 -18z"/>
</g>
</svg>
