<?xml version="1.0" standalone="no"?>
<!DOCTYPE svg PUBLIC "-//W3C//DTD SVG 20010904//EN"
 "http://www.w3.org/TR/2001/REC-SVG-20010904/DTD/svg10.dtd">
<svg version="1.0" xmlns="http://www.w3.org/2000/svg"
 width="452pt" height="1000pt" viewBox="0 0 452 1000"
 preserveAspectRatio="xMidYMid meet">
<metadata>
Created by potrace 1.9, written by Peter Selinger 2001-2010
</metadata>
<g transform="translate(0,1000) scale(0.100000,-0.100000)"
fill="#000000" stroke="none">
<path d="M4075 6094 c-876 -68 -1599 -651 -1851 -1492 -2 -8 -19 9 -39 39
-164 243 -430 409 -741 463 -223 39 -459 -2 -683 -121 -303 -158 -502 -442
-567 -804 -28 -162 -6 -429 56 -679 184 -730 759 -1306 1490 -1490 197 -49
316 -64 520 -64 557 0 1074 211 1461 595 378 376 589 860 615 1409 10 212 -30
393 -128 582 -160 308 -444 509 -804 572 -218 38 -458 -3 -672 -114 l-93 -49
22 37 c133 219 395 477 626 616 135 81 328 159 493 200 128 32 147 35 329 50
88 8 166 19 178 26 70 44 69 166 -1 210 -22 14 -124 20 -211 14z m-2565 -1259
c353 -114 585 -399 619 -764 5 -54 15 -107 22 -119 43 -69 175 -69 218 0 7 12
17 65 22 119 17 179 89 357 197 484 115 137 243 222 422 281 77 25 98 28 230
28 132 0 153 -3 230 -28 183 -61 317 -152 431 -292 65 -80 115 -174 155 -294
27 -80 28 -94 28 -250 -1 -178 -12 -271 -49 -420 -84 -332 -244 -610 -494
-859 -240 -238 -514 -393 -841 -476 -155 -39 -245 -49 -440 -49 -195 0 -285
10 -440 49 -327 83 -601 238 -841 476 -207 206 -342 416 -439 679 -73 202
-103 371 -104 600 0 156 1 170 28 250 97 289 292 488 567 579 106 35 147 40
274 37 97 -3 136 -9 205 -31z"/>
</g>
</svg>
