<?xml version="1.0" standalone="no"?>
<!DOCTYPE svg PUBLIC "-//W3C//DTD SVG 20010904//EN"
 "http://www.w3.org/TR/2001/REC-SVG-20010904/DTD/svg10.dtd">
<svg version="1.0" xmlns="http://www.w3.org/2000/svg"
 width="1236pt" height="1000pt" viewBox="0 0 1236 1000"
 preserveAspectRatio="xMidYMid meet">
<metadata>
Created by potrace 1.9, written by Peter Selinger 2001-2010
</metadata>
<g transform="translate(0,1000) scale(0.100000,-0.100000)"
fill="#000000" stroke="none">
<path d="M4075 6094 c-876 -68 -1599 -651 -1851 -1492 -2 -8 -19 9 -39 39
-164 243 -430 409 -741 463 -223 39 -459 -2 -683 -121 -303 -158 -502 -442
-567 -804 -28 -162 -6 -429 56 -679 184 -730 759 -1306 1490 -1490 197 -49
316 -64 520 -64 562 0 1078 212 1470 604 372 372 580 854 606 1400 10 212 -30
393 -128 582 -160 308 -444 509 -804 572 -218 38 -458 -3 -672 -114 l-93 -49
22 37 c133 219 395 477 626 616 135 81 328 159 493 200 128 32 147 35 329 50
88 8 166 19 178 26 70 44 69 166 -1 210 -22 14 -124 20 -211 14z m-2565 -1259
c353 -114 585 -399 619 -764 5 -54 15 -107 22 -119 43 -69 175 -69 218 0 7 12
17 65 22 119 17 179 89 357 197 484 115 137 243 222 422 281 77 25 98 28 230
28 132 0 153 -3 230 -28 183 -61 317 -152 431 -292 65 -80 115 -174 155 -294
27 -80 28 -94 28 -250 -1 -178 -12 -271 -49 -420 -84 -331 -239 -604 -485
-850 -246 -246 -519 -401 -850 -485 -155 -39 -245 -49 -440 -49 -195 0 -285
10 -440 49 -327 83 -601 238 -841 476 -207 206 -342 416 -439 679 -73 202
-103 371 -104 600 0 156 1 170 28 250 97 289 292 488 567 579 106 35 147 40
274 37 97 -3 136 -9 205 -31z"/>
<path d="M2213 3649 c-40 -12 -129 -117 -178 -211 -162 -307 -127 -651 92
-920 54 -66 89 -88 142 -88 40 0 76 29 132 105 205 280 231 604 74 903 -53
101 -137 199 -183 212 -20 5 -39 10 -42 9 -3 0 -19 -5 -37 -10z m89 -439 c17
-51 22 -87 22 -165 0 -99 -7 -134 -47 -228 -20 -48 -21 -48 -33 -25 -38 68
-58 154 -58 253 0 100 7 133 47 228 20 48 21 48 33 25 7 -12 23 -52 36 -88z"/>
<path d="M12005 6081 c-27 -13 -341 -320 -954 -934 l-914 -915 -71 57 c-144
116 -292 199 -456 254 -331 112 -656 112 -990 1 -192 -65 -389 -185 -538 -329
-70 -67 -95 -99 -101 -125 -21 -96 61 -174 154 -149 22 6 66 39 118 87 45 43
107 96 137 119 117 88 309 172 476 209 110 24 388 24 498 0 105 -23 254 -78
346 -127 72 -39 205 -134 231 -165 11 -13 -124 -152 -943 -972 -1009 -1010
-989 -989 -973 -1062 8 -39 56 -87 95 -95 16 -4 45 -2 62 4 23 8 310 287 978
956 520 520 948 945 953 945 4 0 38 -22 75 -49 161 -116 326 -193 518 -242
414 -104 849 -30 1208 208 100 67 215 165 240 205 9 14 16 47 16 72 0 39 -5
51 -35 81 -30 30 -42 35 -81 35 -48 0 -104 -30 -154 -85 -106 -114 -365 -245
-575 -291 -99 -21 -377 -24 -475 -5 -165 32 -370 119 -497 211 l-62 45 944
945 c1033 1034 978 973 940 1053 -32 67 -102 91 -170 58z"/>
<path d="M5151 4122 c-36 -19 -71 -72 -71 -107 0 -35 35 -88 71 -107 31 -17
67 -18 471 -18 l438 0 0 -855 0 -855 -438 0 c-404 0 -440 -1 -471 -18 -36 -19
-71 -72 -71 -107 0 -35 35 -88 71 -107 32 -17 84 -18 1034 -18 950 0 1002 1
1034 18 36 19 71 72 71 107 0 35 -35 88 -71 107 -31 17 -67 18 -471 18 l-438
0 0 855 0 855 438 0 c404 0 440 1 471 18 36 19 71 72 71 107 0 35 -35 88 -71
107 -32 17 -84 18 -1034 18 -950 0 -1002 -1 -1034 -18z"/>
</g>
</svg>
