<?xml version="1.0" standalone="no"?>
<!DOCTYPE svg PUBLIC "-//W3C//DTD SVG 20010904//EN"
 "http://www.w3.org/TR/2001/REC-SVG-20010904/DTD/svg10.dtd">
<svg version="1.0" xmlns="http://www.w3.org/2000/svg"
 width="256pt" height="1000pt" viewBox="0 0 256 1000"
 preserveAspectRatio="xMidYMid meet">
<metadata>
Created by potrace 1.9, written by Peter Selinger 2001-2010
</metadata>
<g transform="translate(0,1000) scale(0.100000,-0.100000)"
fill="#000000" stroke="none">
<path d="M251 6082 c-35 -19 -71 -72 -71 -105 0 -58 45 -106 965 -1027 l935
-935 -825 -825 -825 -825 0 345 c0 315 -2 348 -18 379 -19 36 -72 71 -107 71
-35 0 -88 -35 -107 -71 -17 -31 -18 -69 -18 -544 0 -475 1 -513 18 -544 10
-19 34 -43 53 -53 31 -17 69 -18 544 -18 475 0 513 1 544 18 36 19 71 72 71
107 0 35 -35 88 -71 107 -31 16 -64 18 -384 18 l-350 0 887 888 c945 946 913
911 889 984 -14 41 -1991 2022 -2034 2038 -39 14 -57 13 -96 -8z"/>
</g>
</svg>
