<?xml version="1.0" standalone="no"?>
<!DOCTYPE svg PUBLIC "-//W3C//DTD SVG 20010904//EN"
 "http://www.w3.org/TR/2001/REC-SVG-20010904/DTD/svg10.dtd">
<svg version="1.0" xmlns="http://www.w3.org/2000/svg"
 width="648pt" height="1000pt" viewBox="0 0 648 1000"
 preserveAspectRatio="xMidYMid meet">
<metadata>
Created by potrace 1.9, written by Peter Selinger 2001-2010
</metadata>
<g transform="translate(0,1000) scale(0.100000,-0.100000)"
fill="#000000" stroke="none">
<path d="M5585 6075 c-30 -31 -35 -42 -35 -83 0 -41 6 -54 43 -99 144 -176
180 -225 220 -302 54 -102 100 -230 124 -343 24 -115 24 -370 -1 -488 -44
-210 -150 -425 -279 -566 -28 -31 -67 -78 -86 -104 -20 -27 -58 -77 -86 -112
-115 -144 -226 -365 -270 -538 -114 -441 -41 -868 211 -1246 73 -111 169 -215
217 -237 71 -33 146 -1 168 72 17 56 0 95 -82 186 -152 171 -247 360 -296 587
-24 115 -24 370 1 488 44 210 150 425 279 566 28 31 67 78 86 104 20 27 59 77
86 112 76 96 169 258 214 371 76 196 105 354 105 567 -1 387 -131 723 -393
1015 -63 70 -88 85 -143 85 -41 0 -52 -5 -83 -35z"/>
<path d="M4165 6081 c-26 -12 -203 -183 -510 -490 l-470 -471 -960 0 c-911 0
-962 -1 -994 -18 -19 -10 -43 -34 -53 -53 -17 -32 -18 -83 -18 -994 l0 -960
-471 -470 c-497 -496 -518 -520 -505 -591 8 -41 56 -90 96 -99 16 -4 45 -2 62
4 23 8 180 158 513 491 l480 480 965 0 c916 0 967 1 999 18 19 10 43 34 53 53
17 32 18 83 18 999 l0 965 484 485 c531 531 518 516 481 593 -32 67 -102 91
-170 58z m-1235 -1214 c0 -1 -342 -344 -760 -762 l-760 -760 0 763 0 762 760
0 c418 0 760 -1 760 -3z m190 -942 l0 -765 -767 0 -768 0 765 765 c421 421
766 765 767 765 2 0 3 -344 3 -765z"/>
</g>
</svg>
