<?xml version="1.0" standalone="no"?>
<!DOCTYPE svg PUBLIC "-//W3C//DTD SVG 20010904//EN"
 "http://www.w3.org/TR/2001/REC-SVG-20010904/DTD/svg10.dtd">
<svg version="1.0" xmlns="http://www.w3.org/2000/svg"
 width="844pt" height="1000pt" viewBox="0 0 844 1000"
 preserveAspectRatio="xMidYMid meet">
<metadata>
Created by potrace 1.9, written by Peter Selinger 2001-2010
</metadata>
<g transform="translate(0,1000) scale(0.100000,-0.100000)"
fill="#000000" stroke="none">
<path d="M1721 8042 c-47 -25 -74 -76 -66 -125 3 -21 118 -263 255 -537 272
-544 273 -545 355 -545 78 1 77 -2 357 559 278 556 274 547 233 609 -23 35
-79 60 -118 53 -66 -13 -82 -38 -282 -436 l-193 -385 -195 391 c-143 286 -202
395 -222 408 -41 27 -85 30 -124 8z"/>
<path d="M3185 5101 c-26 -12 -209 -188 -532 -512 -545 -548 -533 -533 -500
-621 24 -62 994 -1030 1050 -1048 64 -20 123 6 152 67 37 76 42 70 -393 506
l-397 397 1820 0 c1744 0 1822 1 1854 18 36 19 71 72 71 107 0 35 -35 88 -71
107 -32 17 -110 18 -1854 18 l-1820 0 397 398 c435 435 430 429 393 505 -32
67 -102 91 -170 58z"/>
<path d="M5037 2659 c-333 -38 -638 -178 -867 -396 l-88 -83 -1898 0 c-1820 0
-1901 -1 -1933 -18 -36 -19 -71 -72 -71 -107 0 -35 35 -88 71 -107 32 -17 115
-18 2012 -18 1786 0 1982 2 2012 16 42 19 64 52 73 107 7 37 16 49 89 107 96
77 205 137 335 184 157 57 232 69 423 69 191 0 266 -12 424 -69 120 -44 226
-100 316 -169 91 -69 120 -101 135 -149 29 -90 294 -283 514 -372 461 -188
991 -134 1410 143 100 67 215 165 240 205 9 14 16 47 16 72 0 39 -5 51 -35 81
-30 30 -42 35 -81 35 -48 0 -104 -30 -154 -85 -106 -114 -365 -245 -575 -291
-98 -21 -377 -24 -475 -5 -173 34 -372 120 -505 219 -67 49 -83 66 -93 99 -25
83 -249 269 -457 379 -234 124 -567 185 -838 153z"/>
</g>
</svg>
