<?xml version="1.0" standalone="no"?>
<!DOCTYPE svg PUBLIC "-//W3C//DTD SVG 20010904//EN"
 "http://www.w3.org/TR/2001/REC-SVG-20010904/DTD/svg10.dtd">
<svg version="1.0" xmlns="http://www.w3.org/2000/svg"
 width="942pt" height="1000pt" viewBox="0 0 942 1000"
 preserveAspectRatio="xMidYMid meet">
<metadata>
Created by potrace 1.9, written by Peter Selinger 2001-2010
</metadata>
<g transform="translate(0,1000) scale(0.100000,-0.100000)"
fill="#000000" stroke="none">
<path d="M1232 8044 c-18 -9 -41 -29 -51 -43 -40 -56 -501 -992 -506 -1028
-11 -74 61 -150 132 -139 68 10 76 22 280 430 l195 391 193 -385 c200 -398
216 -423 282 -436 39 -7 95 18 118 53 41 62 45 53 -233 609 -194 389 -267 525
-287 538 -39 25 -85 29 -123 10z"/>
<path d="M5151 6082 c-35 -19 -71 -72 -71 -105 0 -56 42 -103 475 -537 l445
-445 -890 -890 -890 -890 -457 457 c-397 395 -463 458 -495 463 -64 12 -127
-31 -144 -99 -16 -65 5 -90 471 -556 l445 -445 -449 -450 c-468 -470 -483
-487 -466 -552 16 -67 79 -110 143 -98 32 5 98 68 494 463 l458 457 452 -452
c473 -470 490 -485 555 -468 67 16 110 79 98 143 -5 32 -68 99 -466 497 l-459
460 890 890 890 890 890 -890 890 -890 -449 -450 c-468 -470 -483 -487 -466
-552 16 -67 79 -110 143 -98 32 5 98 68 494 463 l458 457 452 -452 c473 -470
490 -485 555 -468 67 16 110 79 98 143 -5 32 -68 99 -466 497 l-459 460 455
455 c315 315 458 465 466 488 6 17 8 46 4 62 -8 39 -56 87 -95 95 -70 15 -82
6 -558 -469 l-452 -451 -890 890 -890 890 459 460 c398 398 461 465 466 497
12 64 -31 127 -98 143 -65 17 -82 2 -555 -469 l-452 -451 -453 452 c-248 249
-465 457 -480 463 -39 14 -57 13 -96 -8z"/>
<path d="M1232 4124 c-18 -9 -41 -29 -51 -43 -41 -57 -991 -1973 -996 -2008
-16 -104 101 -175 190 -117 20 13 134 232 467 898 l440 881 438 -874 c321
-643 445 -881 466 -898 78 -62 184 -20 201 81 4 27 -69 179 -500 1042 -384
769 -512 1015 -532 1028 -39 25 -85 29 -123 10z"/>
</g>
</svg>
