<?xml version="1.0" standalone="no"?>
<!DOCTYPE svg PUBLIC "-//W3C//DTD SVG 20010904//EN"
 "http://www.w3.org/TR/2001/REC-SVG-20010904/DTD/svg10.dtd">
<svg version="1.0" xmlns="http://www.w3.org/2000/svg"
 width="1236pt" height="1000pt" viewBox="0 0 1236 1000"
 preserveAspectRatio="xMidYMid meet">
<metadata>
Created by potrace 1.9, written by Peter Selinger 2001-2010
</metadata>
<g transform="translate(0,1000) scale(0.100000,-0.100000)"
fill="#000000" stroke="none">
<path d="M1231 6082 c-19 -10 -43 -34 -53 -53 -17 -32 -18 -113 -18 -1941 l0
-1908 -438 0 c-404 0 -440 -1 -471 -18 -36 -19 -71 -72 -71 -107 0 -35 35 -88
71 -107 32 -17 84 -18 1034 -18 950 0 1002 1 1034 18 36 19 71 72 71 107 0 35
-35 88 -71 107 -31 17 -67 18 -471 18 l-438 0 0 1908 c0 1828 -1 1909 -18
1941 -19 36 -72 71 -107 71 -11 0 -36 -8 -54 -18z"/>
<path d="M6131 6083 c-19 -9 -46 -36 -60 -59 -14 -23 -453 -897 -976 -1943
l-950 -1901 -460 0 c-427 0 -463 -1 -494 -18 -36 -19 -71 -72 -71 -107 0 -35
35 -88 71 -107 32 -17 84 -18 1034 -18 950 0 1002 1 1034 18 36 19 71 72 71
107 0 35 -35 88 -71 107 -31 17 -65 18 -431 18 -219 0 -398 2 -398 5 0 3 394
794 876 1757 l877 1753 877 -1755 878 -1755 -407 -5 c-370 -5 -408 -7 -433
-23 -28 -19 -58 -73 -58 -104 0 -33 36 -86 71 -105 32 -17 84 -18 1034 -18
950 0 1002 1 1034 18 36 19 71 72 71 107 0 35 -35 88 -71 107 -31 17 -67 18
-496 18 l-463 0 -969 1938 c-743 1487 -976 1943 -996 1956 -39 26 -85 29 -124
9z"/>
<path d="M10910 6084 c-270 -49 -508 -184 -674 -383 -76 -91 -164 -253 -200
-368 -53 -171 -69 -347 -35 -401 43 -68 165 -68 208 0 7 12 17 65 22 119 34
365 263 647 619 765 77 25 98 28 230 28 132 0 153 -3 230 -28 183 -61 317
-152 431 -292 66 -80 115 -175 155 -294 25 -76 28 -100 28 -220 0 -110 -5
-159 -27 -265 -113 -532 -328 -1027 -628 -1446 -306 -428 -714 -805 -1150
-1063 -128 -76 -144 -93 -144 -161 0 -62 25 -97 82 -116 47 -15 72 -7 198 68
656 392 1159 928 1515 1616 198 382 327 779 399 1232 20 125 19 131 -5 283
-57 358 -262 649 -572 810 -218 113 -466 155 -682 116z"/>
</g>
</svg>
