<?xml version="1.0" standalone="no"?>
<!DOCTYPE svg PUBLIC "-//W3C//DTD SVG 20010904//EN"
 "http://www.w3.org/TR/2001/REC-SVG-20010904/DTD/svg10.dtd">
<svg version="1.0" xmlns="http://www.w3.org/2000/svg"
 width="844pt" height="1000pt" viewBox="0 0 844 1000"
 preserveAspectRatio="xMidYMid meet">
<metadata>
Created by potrace 1.9, written by Peter Selinger 2001-2010
</metadata>
<g transform="translate(0,1000) scale(0.100000,-0.100000)"
fill="#000000" stroke="none">
<path d="M2205 6081 c-28 -13 -345 -325 -1021 -1002 -792 -794 -984 -991 -994
-1022 -20 -64 6 -123 67 -152 80 -38 18 -93 1056 943 l947 947 855 -855 854
-854 -56 -31 c-125 -66 -240 -218 -278 -365 -21 -81 -24 -188 -7 -222 29 -54
115 -75 172 -41 38 22 48 43 64 139 17 99 43 152 107 216 74 74 144 103 249
103 71 0 94 -5 142 -27 111 -51 206 -178 211 -280 2 -41 -16 -70 -472 -753
-261 -390 -479 -726 -485 -746 -12 -47 16 -104 64 -131 32 -17 68 -18 545 -18
475 0 513 1 544 18 35 19 71 72 71 105 0 31 -30 85 -58 104 -25 16 -62 18
-420 23 l-392 5 426 638 c234 351 430 651 435 665 11 27 8 46 -28 202 -32 142
-150 298 -276 365 l-56 31 794 794 795 795 0 -1748 0 -1747 -438 0 c-404 0
-440 -1 -471 -18 -36 -19 -71 -72 -71 -107 0 -35 35 -88 71 -107 32 -17 84
-18 1034 -18 950 0 1002 1 1034 18 36 19 71 72 71 107 0 35 -35 88 -71 107
-31 17 -67 18 -471 18 l-438 0 0 1742 0 1743 878 -877 c925 -924 909 -909 982
-893 39 8 87 56 95 95 4 16 2 45 -4 62 -8 24 -302 324 -1013 1035 -808 806
-1009 1002 -1035 1008 -77 16 -52 39 -1051 -959 l-942 -941 -943 942 c-531
531 -954 947 -970 953 -39 14 -56 13 -102 -9z"/>
<path d="M2212 4124 c-18 -9 -41 -29 -51 -43 -41 -57 -991 -1973 -996 -2008
-8 -49 19 -100 66 -125 32 -17 84 -18 1034 -18 950 0 1002 1 1034 18 37 20 71
72 71 109 0 13 -227 476 -504 1031 -383 767 -511 1013 -531 1026 -39 25 -85
29 -123 10z m55 -1942 c-424 -1 -772 0 -774 2 -2 2 170 352 383 777 l387 774
387 -775 388 -775 -771 -3z"/>
</g>
</svg>
