<?xml version="1.0" standalone="no"?>
<!DOCTYPE svg PUBLIC "-//W3C//DTD SVG 20010904//EN"
 "http://www.w3.org/TR/2001/REC-SVG-20010904/DTD/svg10.dtd">
<svg version="1.0" xmlns="http://www.w3.org/2000/svg"
 width="175pt" height="1000pt" viewBox="0 0 175 1000"
 preserveAspectRatio="xMidYMid meet">
<g transform="translate(0,1000) scale(0.100000,-0.100000)"
fill="#000000" stroke="none">
<path d="M180 3031 l0 -971 383 0 c531 0 640 12 795 85 95 45 165 116 216 218 132 269 47 570 -197 692 -38 19 -76 35 -83 35 -26 0 -13 15 42 50 153 95 233 268 204 440 -25 150 -121 280 -254 345 -128 63 -161 67 -658 72 l-448 5 0 -971z m869 728 c150 -24 230 -111 239 -260 6 -101 -14 -161 -71 -217 -83 -81 -108 -86 -464 -90 l-313 -4 0 291 0 291 273 0 c149 0 301 -5 336 -11z m52 -813 c178 -38 279 -156 279 -326 0 -139 -74 -252 -195 -301 -59 -23 -69 -24 -402 -27 l-343 -3 0 335 0 336 298 0 c217 0 315 -4 363 -14z"/>
</g>
</svg>

