<?xml version="1.0" standalone="no"?>
<!DOCTYPE svg PUBLIC "-//W3C//DTD SVG 20010904//EN"
 "http://www.w3.org/TR/2001/REC-SVG-20010904/DTD/svg10.dtd">
<svg version="1.0" xmlns="http://www.w3.org/2000/svg"
 width="746pt" height="1000pt" viewBox="0 0 746 1000"
 preserveAspectRatio="xMidYMid meet">
<metadata>
Created by potrace 1.9, written by Peter Selinger 2001-2010
</metadata>
<g transform="translate(0,1000) scale(0.100000,-0.100000)"
fill="#000000" stroke="none">
<path d="M251 6082 c-19 -10 -43 -34 -53 -53 -17 -32 -18 -84 -18 -1034 0
-950 1 -1002 18 -1034 38 -71 40 -71 484 -71 l398 0 -445 -890 c-246 -492
-447 -906 -450 -927 -16 -104 101 -175 190 -117 20 13 134 232 467 898 l440
881 438 -874 c321 -643 445 -881 466 -898 63 -50 148 -33 186 37 17 33 18 111
18 2015 0 1899 -1 1982 -18 2014 -19 36 -72 71 -107 71 -35 0 -88 -35 -107
-71 -17 -32 -18 -82 -18 -961 l0 -928 -855 0 -855 0 0 928 c0 879 -1 929 -18
961 -19 36 -72 71 -107 71 -11 0 -36 -8 -54 -18z m1888 -2844 l0 -653 -324
645 c-178 355 -324 648 -324 653 -1 4 145 7 324 7 l325 0 -1 -652z"/>
<path d="M3205 6092 c-99 -35 -118 -168 -32 -222 12 -7 90 -18 178 -26 182
-15 201 -18 329 -50 165 -41 358 -119 493 -200 242 -146 495 -399 641 -641
133 -221 246 -579 246 -777 0 -39 -3 -46 -22 -50 -163 -34 -245 -62 -367 -127
-293 -157 -494 -444 -555 -795 -39 -221 3 -461 121 -684 157 -299 445 -502
798 -564 364 -64 780 97 1017 394 125 155 201 338 239 568 18 108 18 123 4
221 -56 388 -248 683 -553 852 -125 69 -207 99 -374 134 -26 5 -28 9 -28 51 0
198 113 556 246 777 146 242 399 495 641 641 135 81 328 159 493 200 128 32
147 35 329 50 88 8 166 19 178 26 72 45 69 172 -5 212 -34 18 -225 14 -362 -7
-629 -97 -1150 -442 -1476 -975 -63 -105 -145 -272 -165 -337 -6 -24 -15 -43
-19 -43 -4 0 -13 19 -19 43 -7 23 -34 87 -60 142 -207 436 -555 786 -986 991
-242 115 -526 185 -800 198 -60 3 -119 2 -130 -2z m2225 -2237 c292 -93 496
-299 584 -586 14 -47 26 -90 26 -97 0 -9 -194 -12 -840 -12 -727 0 -840 2
-840 14 0 8 12 52 26 98 89 281 290 486 565 577 106 35 147 40 274 37 97 -3
137 -9 205 -31z m610 -952 c0 -4 -12 -45 -26 -92 -87 -287 -289 -490 -584
-587 -77 -25 -98 -28 -230 -28 -132 0 -153 3 -230 28 -295 97 -497 300 -584
587 -14 47 -26 88 -26 92 0 4 378 7 840 7 462 0 840 -3 840 -7z"/>
</g>
</svg>
