<?xml version="1.0" standalone="no"?>
<!DOCTYPE svg PUBLIC "-//W3C//DTD SVG 20010904//EN"
 "http://www.w3.org/TR/2001/REC-SVG-20010904/DTD/svg10.dtd">
<svg version="1.0" xmlns="http://www.w3.org/2000/svg"
 width="648pt" height="1000pt" viewBox="0 0 648 1000"
 preserveAspectRatio="xMidYMid meet">
<metadata>
Created by potrace 1.9, written by Peter Selinger 2001-2010
</metadata>
<g transform="translate(0,1000) scale(0.100000,-0.100000)"
fill="#000000" stroke="none">
<path d="M2225 6092 c-99 -35 -118 -168 -32 -222 12 -7 90 -18 178 -26 182
-15 201 -18 329 -50 165 -41 358 -119 493 -200 242 -146 495 -399 641 -641
133 -221 246 -579 246 -777 0 -39 -3 -46 -22 -50 -163 -34 -245 -62 -367 -127
-293 -157 -494 -444 -555 -795 -39 -221 3 -461 121 -684 157 -299 445 -502
798 -564 364 -64 780 97 1017 394 125 155 201 338 239 568 18 108 18 123 4
221 -56 388 -248 683 -553 852 -125 69 -207 99 -374 134 -26 5 -28 9 -28 51 0
198 113 556 246 777 146 242 399 495 641 641 135 81 328 159 493 200 128 32
147 35 329 50 88 8 166 19 178 26 72 45 69 172 -5 212 -34 18 -225 14 -362 -7
-629 -97 -1150 -442 -1476 -975 -63 -105 -145 -272 -165 -337 -6 -24 -15 -43
-19 -43 -4 0 -13 19 -19 43 -7 23 -34 87 -60 142 -207 436 -555 786 -986 991
-242 115 -526 185 -800 198 -60 3 -119 2 -130 -2z m2225 -2237 c292 -93 496
-299 584 -586 14 -47 26 -90 26 -97 0 -9 -194 -12 -840 -12 -727 0 -840 2
-840 14 0 8 12 52 26 98 89 281 290 486 565 577 106 35 147 40 274 37 97 -3
137 -9 205 -31z m610 -952 c0 -4 -12 -45 -26 -92 -87 -287 -289 -490 -584
-587 -77 -25 -98 -28 -230 -28 -132 0 -153 3 -230 28 -295 97 -497 300 -584
587 -14 47 -26 88 -26 92 0 4 378 7 840 7 462 0 840 -3 840 -7z"/>
<path d="M1232 4124 c-18 -9 -41 -29 -51 -43 -41 -57 -991 -1973 -996 -2008
-16 -104 101 -175 190 -117 20 13 134 232 467 898 l440 881 438 -874 c321
-643 445 -881 466 -898 78 -62 184 -20 201 81 4 27 -69 179 -500 1042 -384
769 -512 1015 -532 1028 -39 25 -85 29 -123 10z"/>
</g>
</svg>
