<?xml version="1.0" standalone="no"?>
<!DOCTYPE svg PUBLIC "-//W3C//DTD SVG 20010904//EN"
 "http://www.w3.org/TR/2001/REC-SVG-20010904/DTD/svg10.dtd">
<svg version="1.0" xmlns="http://www.w3.org/2000/svg"
 width="844pt" height="1000pt" viewBox="0 0 844 1000"
 preserveAspectRatio="xMidYMid meet">
<metadata>
Created by potrace 1.9, written by Peter Selinger 2001-2010
</metadata>
<g transform="translate(0,1000) scale(0.100000,-0.100000)"
fill="#000000" stroke="none">
<path d="M6035 6094 c-684 -55 -1279 -418 -1631 -994 -199 -327 -298 -686
-298 -1080 0 -204 15 -323 64 -520 184 -731 759 -1306 1490 -1490 197 -49 316
-64 520 -64 557 0 1074 211 1461 595 398 396 613 914 613 1479 0 204 -15 323
-64 520 -165 656 -654 1197 -1290 1430 -108 39 -286 84 -416 104 -102 16 -357
27 -449 20z m418 -265 c215 -32 478 -126 660 -235 240 -145 495 -400 640 -641
111 -184 202 -440 238 -668 7 -44 13 -163 13 -265 0 -195 -10 -285 -49 -440
-84 -332 -244 -610 -494 -859 -240 -238 -514 -393 -841 -476 -155 -39 -245
-49 -440 -49 -195 0 -285 10 -440 49 -327 83 -601 238 -841 476 -207 206 -342
416 -439 679 -76 209 -104 374 -104 620 0 195 10 285 49 440 84 331 239 604
485 850 318 317 699 495 1150 534 73 6 334 -3 413 -15z"/>
<path d="M6010 5104 c-194 -35 -394 -125 -531 -240 -290 -242 -446 -650 -384
-1003 49 -279 185 -523 384 -685 145 -119 339 -206 536 -240 114 -20 216 -20
330 0 489 85 833 432 920 925 61 347 -93 758 -373 994 -241 203 -592 302 -882
249z m400 -269 c176 -56 318 -152 431 -291 68 -83 117 -178 155 -299 26 -80
29 -104 29 -225 0 -121 -3 -145 -29 -225 -93 -295 -290 -493 -586 -591 -77
-25 -98 -28 -230 -28 -132 0 -153 3 -230 28 -179 59 -319 154 -431 292 -68 82
-117 177 -155 299 -26 82 -29 103 -28 230 0 126 3 149 28 225 95 288 291 488
567 579 106 35 147 40 274 37 97 -3 137 -9 205 -31z"/>
<path d="M1710 4140 c-809 -4 -978 -7 -995 -19 -36 -25 -138 -147 -198 -237
-134 -202 -223 -448 -244 -670 -5 -53 -9 -63 -33 -77 -28 -17 -60 -71 -60
-102 0 -31 32 -85 59 -101 25 -15 29 -25 40 -106 42 -296 172 -573 374 -797
100 -112 -21 -101 1122 -101 945 0 1002 1 1034 18 18 10 43 34 55 53 11 20 44
64 71 98 72 89 168 250 210 350 84 200 118 372 119 596 0 390 -124 714 -393
1020 -61 70 -87 85 -141 83 -25 -2 -484 -5 -1020 -8z m1051 -338 c111 -139
195 -323 236 -514 24 -115 24 -370 -1 -488 -44 -209 -150 -425 -278 -565 l-50
-55 -903 0 -903 0 -50 55 c-96 105 -176 242 -230 397 -30 85 -62 217 -62 258
l0 20 1128 0 c1073 0 1129 1 1161 18 36 19 71 72 71 107 0 35 -35 88 -71 107
-32 17 -88 18 -1161 18 l-1128 0 0 30 c0 54 31 182 67 280 57 155 138 293 226
388 l31 32 925 -2 926 -3 66 -83z"/>
</g>
</svg>
