<?xml version="1.0" standalone="no"?>
<!DOCTYPE svg PUBLIC "-//W3C//DTD SVG 20010904//EN"
 "http://www.w3.org/TR/2001/REC-SVG-20010904/DTD/svg10.dtd">
<svg version="1.0" xmlns="http://www.w3.org/2000/svg"
 width="893pt" height="1000pt" viewBox="0 0 893 1000"
 preserveAspectRatio="xMidYMid meet">
<metadata>
Created by potrace 1.9, written by Peter Selinger 2001-2010
</metadata>
<g transform="translate(0,1000) scale(0.100000,-0.100000)"
fill="#000000" stroke="none">
<path d="M1231 6082 c-19 -10 -43 -34 -53 -53 -17 -32 -18 -113 -18 -1941 l0
-1908 -438 0 c-404 0 -440 -1 -471 -18 -36 -19 -71 -72 -71 -107 0 -35 35 -88
71 -107 32 -17 84 -18 1034 -18 950 0 1002 1 1034 18 36 19 71 72 71 107 0 35
-35 88 -71 107 -31 17 -67 18 -471 18 l-438 0 0 1908 c0 1828 -1 1909 -18
1941 -19 36 -72 71 -107 71 -11 0 -36 -8 -54 -18z"/>
<path d="M5630 4140 c-1645 -4 -1958 -7 -1975 -19 -36 -25 -138 -147 -198
-237 -342 -517 -339 -1167 8 -1689 66 -100 176 -224 218 -247 30 -17 145 -18
2012 -18 1890 0 1982 1 2014 18 18 10 43 34 55 53 11 20 44 64 71 98 72 89
168 250 210 350 84 200 118 372 119 596 0 390 -124 714 -393 1020 -61 70 -87
85 -141 82 -25 -1 -925 -4 -2000 -7z m2031 -338 c111 -139 195 -323 236 -514
24 -115 24 -370 -1 -488 -44 -209 -150 -425 -278 -565 l-50 -55 -1883 0 -1883
0 -50 55 c-131 143 -233 351 -279 567 -24 115 -24 370 1 488 43 208 156 436
279 568 l31 32 1905 -2 1906 -3 66 -83z"/>
</g>
</svg>
