<?xml version="1.0" standalone="no"?>
<!DOCTYPE svg PUBLIC "-//W3C//DTD SVG 20010904//EN"
 "http://www.w3.org/TR/2001/REC-SVG-20010904/DTD/svg10.dtd">
<svg version="1.0" xmlns="http://www.w3.org/2000/svg"
 width="942pt" height="1000pt" viewBox="0 0 942 1000"
 preserveAspectRatio="xMidYMid meet">
<metadata>
Created by potrace 1.9, written by Peter Selinger 2001-2010
</metadata>
<g transform="translate(0,1000) scale(0.100000,-0.100000)"
fill="#000000" stroke="none">
<path d="M6125 6100 c-905 -5 -962 -6 -987 -23 -62 -43 -58 110 -58 -2064 0
-1897 1 -1980 18 -2012 10 -19 34 -43 53 -53 32 -17 115 -18 2014 -18 1899 0
1982 1 2014 18 19 10 43 34 53 53 17 32 18 115 18 2014 0 1904 -1 1982 -18
2015 -40 74 33 69 -1117 72 -566 2 -1462 1 -1990 -2z m1046 -338 c111 -139
195 -323 236 -514 24 -115 24 -370 -1 -488 -44 -210 -150 -425 -279 -566 -28
-31 -67 -78 -86 -104 -20 -27 -58 -77 -86 -112 -154 -193 -259 -436 -306 -708
-19 -108 -17 -364 4 -477 42 -227 99 -370 229 -580 l20 -33 -786 0 -786 0 0
1835 0 1835 887 -2 888 -3 66 -83z m1829 -1747 l0 -1835 -884 0 -884 0 -50 55
c-131 143 -233 351 -279 567 -24 115 -24 370 1 488 44 210 150 425 279 566 28
31 67 78 86 104 20 27 59 77 86 112 76 96 169 258 214 371 76 196 105 354 105
567 -1 305 -78 570 -238 813 l-18 27 791 0 791 0 0 -1835z"/>
<path d="M238 4123 c-46 -29 -53 -56 -51 -182 9 -506 237 -1027 612 -1400 387
-384 904 -595 1461 -595 557 0 1074 211 1461 595 322 320 523 719 594 1179 21
137 25 328 7 362 -40 74 -167 77 -212 5 -7 -12 -18 -90 -26 -178 -15 -182 -18
-201 -50 -329 -41 -166 -119 -358 -201 -493 -145 -241 -400 -496 -640 -641
-184 -110 -440 -201 -668 -237 -103 -16 -427 -16 -530 0 -228 36 -484 127
-668 237 -240 145 -495 400 -640 641 -82 135 -160 327 -201 493 -32 128 -35
147 -50 329 -8 88 -19 166 -26 178 -32 51 -119 69 -172 36z"/>
</g>
</svg>
