<?xml version="1.0" standalone="no"?>
<!DOCTYPE svg PUBLIC "-//W3C//DTD SVG 20010904//EN"
 "http://www.w3.org/TR/2001/REC-SVG-20010904/DTD/svg10.dtd">
<svg version="1.0" xmlns="http://www.w3.org/2000/svg"
 width="452pt" height="1000pt" viewBox="0 0 452 1000"
 preserveAspectRatio="xMidYMid meet">
<metadata>
Created by potrace 1.9, written by Peter Selinger 2001-2010
</metadata>
<g transform="translate(0,1000) scale(0.100000,-0.100000)"
fill="#000000" stroke="none">
<path d="M2115 8054 c-684 -55 -1279 -418 -1631 -994 -199 -327 -298 -686
-298 -1080 0 -204 15 -323 64 -520 184 -731 760 -1306 1490 -1490 120 -30 295
-60 349 -60 30 0 31 -1 31 -46 0 -198 -113 -556 -246 -777 -146 -242 -399
-495 -641 -641 -135 -81 -328 -159 -493 -200 -128 -32 -147 -35 -329 -50 -88
-8 -166 -19 -178 -26 -73 -46 -70 -172 5 -212 60 -31 354 -5 582 52 657 165
1197 653 1430 1290 59 162 120 449 120 564 l0 46 46 0 c68 0 232 27 364 60
524 132 971 463 1256 931 199 326 298 686 298 1079 0 204 -15 323 -64 520
-165 656 -654 1197 -1290 1430 -108 39 -286 84 -416 104 -102 16 -357 27 -449
20z m418 -265 c215 -32 478 -126 660 -235 240 -145 495 -400 640 -641 111
-184 202 -440 238 -668 7 -44 13 -163 13 -265 0 -195 -10 -285 -49 -440 -84
-332 -244 -610 -494 -859 -240 -238 -514 -393 -841 -476 -155 -39 -245 -49
-440 -49 -195 0 -285 10 -440 49 -327 83 -601 238 -841 476 -207 206 -342 416
-439 679 -76 209 -104 374 -104 620 0 195 10 285 49 440 84 331 239 604 485
850 318 317 699 495 1150 534 73 6 334 -3 413 -15z"/>
</g>
</svg>
