<?xml version="1.0" standalone="no"?>
<!DOCTYPE svg PUBLIC "-//W3C//DTD SVG 20010904//EN"
 "http://www.w3.org/TR/2001/REC-SVG-20010904/DTD/svg10.dtd">
<svg version="1.0" xmlns="http://www.w3.org/2000/svg"
 width="452pt" height="1000pt" viewBox="0 0 452 1000"
 preserveAspectRatio="xMidYMid meet">
<metadata>
Created by potrace 1.9, written by Peter Selinger 2001-2010
</metadata>
<g transform="translate(0,1000) scale(0.100000,-0.100000)"
fill="#000000" stroke="none">
<path d="M2115 8054 c-684 -55 -1279 -418 -1631 -994 -199 -327 -298 -686
-298 -1080 0 -204 15 -323 64 -520 133 -528 475 -986 947 -1266 l82 -48 -41
-21 c-80 -40 -78 -22 -78 -600 0 -475 1 -513 18 -544 10 -19 34 -43 53 -53 32
-17 84 -18 1034 -18 950 0 1002 1 1034 18 19 10 43 34 53 53 17 31 18 69 18
542 0 450 -2 513 -16 543 -17 35 -36 51 -87 69 -27 10 -26 11 55 59 473 280
815 737 948 1266 49 197 64 316 64 520 0 204 -15 323 -64 520 -165 656 -654
1197 -1290 1430 -108 39 -286 84 -416 104 -102 16 -357 27 -449 20z m418 -265
c215 -32 478 -126 660 -235 240 -145 495 -400 640 -641 111 -184 202 -440 238
-668 7 -44 13 -163 13 -265 0 -195 -10 -285 -49 -440 -84 -332 -244 -610 -494
-859 -240 -238 -514 -393 -841 -476 -155 -39 -245 -49 -440 -49 -195 0 -285
10 -440 49 -327 83 -601 238 -841 476 -207 206 -342 416 -439 679 -76 209
-104 374 -104 620 0 195 10 285 49 440 84 331 239 604 485 850 318 317 699
495 1150 534 73 6 334 -3 413 -15z m602 -3725 c-13 -25 -15 -96 -15 -466 l0
-438 -855 0 -855 0 0 438 c0 360 -3 442 -14 465 -17 32 -17 32 32 11 267 -113
538 -168 832 -168 297 0 576 57 840 172 25 11 46 18 48 17 1 -1 -4 -15 -13
-31z"/>
</g>
</svg>
