<?xml version="1.0" standalone="no"?>
<!DOCTYPE svg PUBLIC "-//W3C//DTD SVG 20010904//EN"
 "http://www.w3.org/TR/2001/REC-SVG-20010904/DTD/svg10.dtd">
<svg version="1.0" xmlns="http://www.w3.org/2000/svg"
 width="256pt" height="1000pt" viewBox="0 0 256 1000"
 preserveAspectRatio="xMidYMid meet">
<metadata>
Created by potrace 1.9, written by Peter Selinger 2001-2010
</metadata>
<g transform="translate(0,1000) scale(0.100000,-0.100000)"
fill="#000000" stroke="none">
<path d="M2115 8054 c-680 -53 -1280 -418 -1631 -994 -174 -287 -270 -596
-301 -975 -10 -121 -8 -149 13 -180 9 -13 66 -67 127 -119 349 -294 605 -686
732 -1119 122 -419 122 -875 0 -1294 -127 -433 -383 -825 -732 -1119 -61 -52
-119 -107 -129 -122 -24 -37 -22 -102 5 -140 32 -45 75 -55 200 -47 537 34
1007 241 1371 605 392 392 604 908 604 1470 0 204 -15 323 -64 520 -165 657
-653 1197 -1290 1430 -151 55 -448 120 -549 120 -30 0 -31 1 -31 46 0 198 113
556 246 777 146 242 399 495 641 641 135 81 328 159 493 200 128 32 147 35
329 50 88 8 166 19 178 26 70 44 69 166 -1 210 -22 14 -124 20 -211 14z
m-1340 -2268 c296 -75 579 -241 815 -476 246 -246 401 -519 485 -850 39 -155
49 -245 49 -440 0 -195 -10 -285 -49 -440 -84 -331 -239 -604 -485 -850 -204
-203 -406 -333 -670 -430 -89 -32 -232 -72 -238 -65 -2 1 25 34 61 72 155 166
343 462 445 701 154 358 228 787 203 1165 -28 410 -145 797 -341 1133 -90 153
-216 331 -294 414 -29 30 -59 64 -67 74 -13 17 -12 18 6 13 11 -3 47 -13 80
-21z"/>
</g>
</svg>
