<?xml version="1.0" standalone="no"?>
<!DOCTYPE svg PUBLIC "-//W3C//DTD SVG 20010904//EN"
 "http://www.w3.org/TR/2001/REC-SVG-20010904/DTD/svg10.dtd">
<svg version="1.0" xmlns="http://www.w3.org/2000/svg"
 width="1334pt" height="1000pt" viewBox="0 0 1334 1000"
 preserveAspectRatio="xMidYMid meet">
<metadata>
Created by potrace 1.9, written by Peter Selinger 2001-2010
</metadata>
<g transform="translate(0,1000) scale(0.100000,-0.100000)"
fill="#000000" stroke="none">
<path d="M251 6082 c-19 -10 -43 -34 -53 -53 -17 -32 -18 -84 -18 -1034 0
-950 1 -1002 18 -1034 38 -71 40 -71 484 -71 l398 0 -445 -890 c-246 -492
-447 -906 -450 -927 -16 -104 101 -175 190 -117 20 13 134 232 467 898 l440
881 438 -874 c321 -643 445 -881 466 -898 63 -50 148 -33 186 37 17 33 18 111
18 2015 0 1899 -1 1982 -18 2014 -19 36 -72 71 -107 71 -35 0 -88 -35 -107
-71 -17 -32 -18 -82 -18 -961 l0 -928 -855 0 -855 0 0 928 c0 879 -1 929 -18
961 -19 36 -72 71 -107 71 -11 0 -36 -8 -54 -18z m1888 -2844 l0 -653 -324
645 c-178 355 -324 648 -324 653 -1 4 145 7 324 7 l325 0 -1 -652z"/>
<path d="M3191 6082 c-47 -25 -74 -76 -66 -125 3 -21 431 -889 990 -2006 839
-1679 989 -1972 1017 -1993 l33 -23 999 -3 c958 -2 1004 -1 1122 18 162 26
286 67 409 135 308 170 493 448 556 833 18 108 18 123 4 221 -77 533 -420 896
-930 985 -360 63 -765 -91 -1009 -383 -152 -182 -256 -467 -256 -701 0 -291
155 -637 367 -819 l48 -40 -597 -1 -598 0 -969 1938 c-743 1487 -976 1943
-996 1956 -41 27 -85 30 -124 8z m4199 -2227 c292 -93 496 -299 584 -586 14
-47 26 -90 26 -97 0 -9 -194 -12 -840 -12 -727 0 -840 2 -840 14 0 8 12 52 26
98 89 281 290 486 565 577 106 35 147 40 274 37 97 -3 137 -9 205 -31z m610
-952 c0 -4 -12 -45 -26 -92 -87 -287 -289 -490 -584 -587 -77 -25 -98 -28
-230 -28 -132 0 -153 3 -230 28 -295 97 -497 300 -584 587 -14 47 -26 88 -26
92 0 4 378 7 840 7 462 0 840 -3 840 -7z"/>
<path d="M10051 5102 c-64 -34 -71 -62 -71 -283 l0 -196 -59 -6 c-313 -33
-631 -182 -859 -402 -70 -67 -95 -99 -101 -125 -21 -96 61 -174 154 -149 22 6
66 39 118 87 104 99 173 150 267 201 132 71 356 141 450 141 l30 0 0 -678 c0
-637 1 -679 18 -711 10 -19 34 -43 53 -53 32 -17 84 -18 1034 -18 950 0 1002
1 1034 18 67 36 71 57 71 333 l0 246 83 12 c299 45 591 183 798 376 68 63 79
83 79 137 0 41 -5 52 -35 83 -30 30 -42 35 -81 35 -48 0 -104 -30 -154 -85
-39 -42 -148 -120 -230 -163 -130 -69 -355 -142 -440 -142 -20 0 -20 2 -20
628 0 588 -1 629 -18 661 -10 19 -34 43 -53 53 -32 17 -84 18 -1034 18 -950 0
-1002 -1 -1034 -18z m1889 -787 l0 -555 -32 0 c-143 1 -425 111 -583 228 -67
49 -83 66 -93 99 -9 31 -35 63 -105 130 -222 212 -501 347 -814 394 l-83 12 0
124 0 123 855 0 855 0 0 -555z m-1593 39 c168 -35 358 -120 488 -219 91 -69
120 -101 135 -149 29 -90 294 -283 514 -372 106 -43 285 -90 384 -99 l72 -8 0
-173 0 -174 -855 0 -855 0 0 605 c0 602 0 605 20 605 12 0 55 -7 97 -16z"/>
</g>
</svg>
