<?xml version="1.0" standalone="no"?>
<!DOCTYPE svg PUBLIC "-//W3C//DTD SVG 20010904//EN"
 "http://www.w3.org/TR/2001/REC-SVG-20010904/DTD/svg10.dtd">
<svg version="1.0" xmlns="http://www.w3.org/2000/svg"
 width="1138pt" height="1000pt" viewBox="0 0 1138 1000"
 preserveAspectRatio="xMidYMid meet">
<metadata>
Created by potrace 1.9, written by Peter Selinger 2001-2010
</metadata>
<g transform="translate(0,1000) scale(0.100000,-0.100000)"
fill="#000000" stroke="none">
<path d="M2211 6082 c-19 -10 -43 -34 -53 -53 -17 -32 -18 -113 -18 -1941 l0
-1908 -928 0 c-879 0 -929 -1 -961 -18 -36 -19 -71 -72 -71 -107 0 -35 35 -88
71 -107 32 -17 115 -18 2014 -18 1899 0 1982 1 2014 18 36 19 71 72 71 107 0
35 -35 88 -71 107 -32 17 -82 18 -961 18 l-928 0 0 855 0 855 928 0 c879 0
929 1 961 18 19 10 43 34 53 53 17 32 18 84 18 1034 0 950 -1 1002 -18 1034
-10 19 -34 43 -53 53 -32 17 -84 18 -1034 18 -950 0 -1002 -1 -1034 -18z
m1889 -1087 l0 -855 -855 0 -855 0 0 855 0 855 855 0 855 0 0 -855z"/>
<path d="M11031 6082 c-19 -10 -43 -34 -53 -53 -17 -32 -18 -115 -18 -2014 0
-1899 1 -1982 18 -2014 19 -36 72 -71 107 -71 35 0 88 35 107 71 17 32 18 115
18 2014 0 1899 -1 1982 -18 2014 -19 36 -72 71 -107 71 -11 0 -36 -8 -54 -18z"/>
<path d="M5151 4122 c-36 -19 -71 -72 -71 -107 0 -35 35 -88 71 -107 31 -17
65 -18 431 -18 l398 0 -339 -677 c-306 -612 -345 -684 -395 -737 -93 -99 -147
-225 -161 -376 -5 -53 -3 -71 13 -99 24 -44 77 -74 119 -67 64 9 81 31 183
236 l99 197 53 23 c42 19 71 24 138 24 105 1 175 -28 249 -102 64 -64 90 -117
107 -216 16 -96 26 -117 64 -139 57 -34 143 -13 172 41 17 34 14 141 -7 222
-65 251 -274 420 -552 446 l-72 7 266 531 265 531 439 -877 c478 -955 459
-923 544 -923 71 1 88 21 195 235 l99 197 53 23 c42 19 71 24 138 24 105 1
175 -28 249 -102 64 -64 90 -117 107 -216 16 -96 26 -117 64 -139 57 -34 143
-13 172 41 17 34 14 141 -7 222 -65 251 -274 420 -552 446 l-72 7 266 531 265
531 438 -874 c321 -643 445 -881 466 -898 41 -32 84 -38 127 -18 49 23 67 55
79 139 13 95 46 165 108 226 75 76 144 105 250 105 105 0 175 -29 249 -103 64
-64 90 -117 107 -216 8 -45 19 -90 25 -102 26 -50 114 -70 169 -37 42 24 55
58 54 132 -6 258 -190 488 -444 557 -86 23 -234 23 -319 0 -127 -34 -250 -115
-321 -210 l-34 -47 -373 743 c-204 409 -372 746 -372 751 -1 4 178 7 397 7
366 0 400 1 431 18 36 19 71 72 71 107 0 35 -35 88 -71 107 -32 17 -115 18
-2014 18 -1899 0 -1982 -1 -2014 -18z m2448 -914 c-198 -396 -350 -689 -364
-699 -12 -10 -40 -41 -61 -69 l-39 -51 -372 743 c-204 409 -372 746 -372 751
-1 4 348 7 774 7 l775 0 -341 -682z"/>
</g>
</svg>
