<?xml version="1.0" standalone="no"?>
<!DOCTYPE svg PUBLIC "-//W3C//DTD SVG 20010904//EN"
 "http://www.w3.org/TR/2001/REC-SVG-20010904/DTD/svg10.dtd">
<svg version="1.0" xmlns="http://www.w3.org/2000/svg"
 width="452pt" height="1000pt" viewBox="0 0 452 1000"
 preserveAspectRatio="xMidYMid meet">
<metadata>
Created by potrace 1.9, written by Peter Selinger 2001-2010
</metadata>
<g transform="translate(0,1000) scale(0.100000,-0.100000)"
fill="#000000" stroke="none">
<path d="M251 5102 c-19 -10 -43 -34 -53 -53 -17 -32 -18 -84 -18 -1034 0
-950 1 -1002 18 -1034 10 -19 34 -43 53 -53 32 -17 115 -18 2014 -18 1899 0
1982 1 2014 18 19 10 43 34 53 53 17 32 18 84 18 1034 0 950 -1 1002 -18 1034
-10 19 -34 43 -53 53 -32 17 -115 18 -2014 18 -1899 0 -1982 -1 -2014 -18z
m3277 -619 c-421 -423 -422 -425 -398 -507 10 -35 72 -102 398 -428 l387 -388
-1655 0 -1655 0 392 393 c229 229 397 404 403 422 27 72 27 71 -398 498 l-397
397 1655 0 1655 0 -387 -387z m572 -470 l0 -678 -340 340 -340 340 337 337
c186 186 339 338 340 338 2 0 3 -305 3 -677z m-3332 334 l332 -332 -335 -335
-335 -335 0 668 c0 367 1 667 3 667 1 0 152 -150 335 -333z"/>
</g>
</svg>
