<?xml version="1.0" standalone="no"?>
<!DOCTYPE svg PUBLIC "-//W3C//DTD SVG 20010904//EN"
 "http://www.w3.org/TR/2001/REC-SVG-20010904/DTD/svg10.dtd">
<svg version="1.0" xmlns="http://www.w3.org/2000/svg"
 width="795pt" height="1000pt" viewBox="0 0 795 1000"
 preserveAspectRatio="xMidYMid meet">
<metadata>
Created by potrace 1.9, written by Peter Selinger 2001-2010
</metadata>
<g transform="translate(0,1000) scale(0.100000,-0.100000)"
fill="#000000" stroke="none">
<path d="M7595 8041 c-26 -12 -208 -188 -531 -512 -535 -538 -529 -530 -504
-613 10 -35 85 -115 503 -535 519 -520 542 -540 613 -527 41 8 90 56 99 96 4
16 2 45 -4 62 -8 23 -151 173 -466 488 l-455 455 459 460 c503 504 493 491
456 568 -32 67 -102 91 -170 58z"/>
<path d="M4181 7083 c-45 -9 -140 -122 -196 -233 -151 -298 -112 -640 102
-902 40 -49 65 -70 94 -80 l39 -13 -82 -49 c-474 -281 -814 -736 -948 -1266
-49 -197 -64 -316 -64 -520 0 -204 15 -323 64 -520 184 -731 759 -1306 1490
-1490 197 -49 316 -64 520 -64 557 0 1074 211 1461 595 398 396 613 914 613
1479 0 204 -15 323 -64 520 -133 528 -475 986 -947 1265 l-82 49 37 13 c20 7
47 24 59 39 46 58 37 112 -34 201 -101 126 -137 221 -137 368 0 145 37 244
142 379 68 86 66 167 -4 213 -33 21 -104 21 -135 0 -71 -49 -169 -204 -215
-339 -85 -250 -28 -562 137 -760 21 -26 39 -49 39 -52 0 -4 -17 1 -37 10 -202
85 -443 145 -661 163 -108 9 -130 24 -180 120 -51 96 -66 157 -66 266 0 145
37 244 142 379 68 86 66 167 -4 213 -33 21 -104 21 -135 0 -71 -49 -169 -204
-215 -339 -64 -189 -48 -437 40 -607 10 -18 16 -34 14 -35 -2 -2 -41 -8 -88
-15 -155 -23 -361 -81 -512 -145 -47 -20 -54 -20 -38 -1 7 9 13 36 12 61 0 37
-8 54 -44 100 -116 149 -152 239 -152 389 0 145 37 244 142 379 29 36 46 69
49 94 12 86 -65 152 -156 135z m1292 -1254 c215 -32 478 -126 660 -235 240
-145 495 -400 640 -641 111 -184 202 -440 238 -668 7 -44 13 -163 13 -265 0
-195 -10 -285 -49 -440 -84 -332 -244 -610 -494 -859 -240 -238 -514 -393
-841 -476 -155 -39 -245 -49 -440 -49 -195 0 -285 10 -440 49 -327 83 -601
238 -841 476 -207 206 -342 416 -439 679 -76 209 -104 374 -104 620 0 195 10
285 49 440 84 331 239 604 485 850 318 317 699 495 1150 534 73 6 334 -3 413
-15z"/>
<path d="M5151 5102 c-19 -10 -43 -34 -53 -53 -17 -32 -18 -82 -18 -961 l0
-928 -438 0 c-404 0 -440 -1 -471 -18 -36 -19 -71 -72 -71 -107 0 -35 35 -88
71 -107 32 -17 84 -18 1034 -18 950 0 1002 1 1034 18 36 19 71 72 71 107 0 35
-35 88 -71 107 -31 17 -67 18 -471 18 l-438 0 0 928 c0 879 -1 929 -18 961
-19 36 -72 71 -107 71 -11 0 -36 -8 -54 -18z"/>
<path d="M1231 6082 c-19 -10 -43 -34 -53 -53 -17 -32 -18 -113 -18 -1941 l0
-1908 -438 0 c-404 0 -440 -1 -471 -18 -36 -19 -71 -72 -71 -107 0 -35 35 -88
71 -107 32 -17 84 -18 1034 -18 950 0 1002 1 1034 18 36 19 71 72 71 107 0 35
-35 88 -71 107 -31 17 -67 18 -471 18 l-438 0 0 1908 c0 1828 -1 1909 -18
1941 -19 36 -72 71 -107 71 -11 0 -36 -8 -54 -18z"/>
</g>
</svg>
