<?xml version="1.0" standalone="no"?>
<!DOCTYPE svg PUBLIC "-//W3C//DTD SVG 20010904//EN"
 "http://www.w3.org/TR/2001/REC-SVG-20010904/DTD/svg10.dtd">
<svg version="1.0" xmlns="http://www.w3.org/2000/svg"
 width="844pt" height="1000pt" viewBox="0 0 844 1000"
 preserveAspectRatio="xMidYMid meet">
<metadata>
Created by potrace 1.9, written by Peter Selinger 2001-2010
</metadata>
<g transform="translate(0,1000) scale(0.100000,-0.100000)"
fill="#000000" stroke="none">
<path d="M4661 8042 c-19 -10 -43 -34 -53 -53 -17 -31 -18 -69 -18 -544 0
-475 1 -513 18 -544 10 -19 34 -43 53 -53 31 -17 69 -18 544 -18 475 0 513 1
544 18 19 10 43 34 53 53 17 31 18 69 18 544 0 475 -1 513 -18 544 -10 19 -34
43 -53 53 -31 17 -69 18 -544 18 -475 0 -513 -1 -544 -18z m909 -597 l0 -365
-365 0 -365 0 0 365 0 365 365 0 365 0 0 -365z"/>
<path d="M5151 6082 c-19 -10 -43 -34 -53 -53 -17 -32 -18 -115 -18 -2014 0
-1899 1 -1982 18 -2014 19 -36 72 -71 107 -71 35 0 88 35 107 71 17 32 18 115
18 2014 0 1899 -1 1982 -18 2014 -19 36 -72 71 -107 71 -11 0 -36 -8 -54 -18z"/>
<path d="M6131 6082 c-36 -19 -71 -72 -71 -107 0 -35 35 -88 71 -107 31 -17
67 -18 471 -18 l438 0 0 -1835 0 -1835 -438 0 c-404 0 -440 -1 -471 -18 -36
-19 -71 -72 -71 -107 0 -35 35 -88 71 -107 32 -17 84 -18 1034 -18 950 0 1002
1 1034 18 36 19 71 72 71 107 0 35 -35 88 -71 107 -31 17 -67 18 -471 18
l-438 0 0 1835 0 1835 438 0 c404 0 440 1 471 18 36 19 71 72 71 107 0 35 -35
88 -71 107 -32 17 -84 18 -1034 18 -950 0 -1002 -1 -1034 -18z"/>
<path d="M2115 4134 c-680 -53 -1280 -418 -1631 -994 -143 -235 -234 -491
-279 -780 -21 -137 -25 -328 -7 -362 40 -74 167 -77 212 -5 7 12 18 90 26 178
15 182 18 201 50 329 82 329 238 604 484 850 246 246 521 402 850 484 128 32
147 35 329 50 88 8 166 19 178 26 70 44 69 166 -1 210 -22 14 -124 20 -211 14z"/>
<path d="M4075 4134 c-680 -53 -1280 -418 -1631 -994 -143 -235 -234 -491
-279 -780 -21 -137 -25 -328 -7 -362 40 -74 167 -77 212 -5 7 12 18 90 26 178
15 182 18 201 50 329 82 329 238 604 484 850 246 246 521 402 850 484 128 32
147 35 329 50 88 8 166 19 178 26 70 44 69 166 -1 210 -22 14 -124 20 -211 14z"/>
</g>
</svg>
