<?xml version="1.0" standalone="no"?>
<!DOCTYPE svg PUBLIC "-//W3C//DTD SVG 20010904//EN"
 "http://www.w3.org/TR/2001/REC-SVG-20010904/DTD/svg10.dtd">
<svg version="1.0" xmlns="http://www.w3.org/2000/svg"
 width="991pt" height="1000pt" viewBox="0 0 991 1000"
 preserveAspectRatio="xMidYMid meet">
<metadata>
Created by potrace 1.9, written by Peter Selinger 2001-2010
</metadata>
<g transform="translate(0,1000) scale(0.100000,-0.100000)"
fill="#000000" stroke="none">
<path d="M5628 6083 c-46 -29 -53 -56 -51 -182 9 -506 237 -1027 612 -1400
387 -384 904 -595 1461 -595 557 0 1074 211 1461 595 322 320 523 719 594
1179 21 137 25 328 7 362 -40 74 -167 77 -212 5 -7 -12 -18 -90 -26 -178 -15
-182 -18 -201 -50 -329 -41 -166 -119 -358 -201 -493 -145 -241 -400 -496
-640 -641 -184 -110 -440 -201 -668 -237 -103 -16 -427 -16 -530 0 -228 36
-484 127 -668 237 -240 145 -495 400 -640 641 -82 135 -160 327 -201 493 -32
128 -35 147 -50 329 -8 88 -19 166 -26 178 -32 51 -119 69 -172 36z"/>
<path d="M1232 4124 c-18 -9 -41 -29 -51 -43 -41 -57 -991 -1973 -996 -2008
-16 -104 101 -175 190 -117 20 13 134 232 467 898 l440 881 438 -874 c321
-643 445 -881 466 -898 78 -62 184 -20 201 81 4 27 -69 179 -500 1042 -384
769 -512 1015 -532 1028 -39 25 -85 29 -123 10z"/>
<path d="M4050 4124 c-194 -35 -394 -125 -531 -240 -290 -242 -446 -650 -384
-1003 49 -279 185 -523 384 -685 145 -119 339 -206 536 -240 364 -64 780 97
1017 394 125 155 201 338 239 568 18 108 18 123 4 221 -57 391 -248 683 -560
856 -221 122 -481 170 -705 129z m400 -269 c292 -93 496 -299 584 -586 14 -47
26 -90 26 -97 0 -9 -194 -12 -840 -12 -727 0 -840 2 -840 14 0 8 12 52 26 98
89 281 290 486 565 577 106 35 147 40 274 37 97 -3 137 -9 205 -31z m610 -952
c0 -4 -12 -45 -26 -92 -87 -287 -289 -490 -584 -587 -77 -25 -98 -28 -230 -28
-132 0 -153 3 -230 28 -295 97 -497 300 -584 587 -14 47 -26 88 -26 92 0 4
378 7 840 7 462 0 840 -3 840 -7z"/>
</g>
</svg>
