<?xml version="1.0" standalone="no"?>
<!DOCTYPE svg PUBLIC "-//W3C//DTD SVG 20010904//EN"
 "http://www.w3.org/TR/2001/REC-SVG-20010904/DTD/svg10.dtd">
<svg version="1.0" xmlns="http://www.w3.org/2000/svg"
 width="942pt" height="1000pt" viewBox="0 0 942 1000"
 preserveAspectRatio="xMidYMid meet">
<metadata>
Created by potrace 1.9, written by Peter Selinger 2001-2010
</metadata>
<g transform="translate(0,1000) scale(0.100000,-0.100000)"
fill="#000000" stroke="none">
<path d="M251 6082 c-36 -19 -71 -72 -71 -107 0 -35 35 -88 71 -107 32 -17
113 -18 1941 -18 l1908 0 0 -1835 0 -1835 -1908 0 c-1828 0 -1909 -1 -1941
-18 -36 -19 -71 -72 -71 -107 0 -35 35 -88 71 -107 32 -17 115 -18 2014 -18
1899 0 1982 1 2014 18 19 10 43 34 53 53 17 32 18 115 18 2014 0 1899 -1 1982
-18 2014 -10 19 -34 43 -53 53 -32 17 -115 18 -2014 18 -1899 0 -1982 -1
-2014 -18z"/>
<path d="M6017 4619 c-334 -38 -638 -178 -869 -398 -49 -46 -94 -93 -99 -103
-18 -34 -13 -98 10 -129 17 -23 24 -52 31 -137 45 -508 254 -958 609 -1311
387 -384 904 -595 1461 -595 557 0 1074 211 1461 595 367 365 575 829 614
1371 9 120 1 162 -41 204 -29 29 -42 34 -80 34 -48 0 -104 -30 -154 -85 -106
-114 -365 -245 -575 -291 -98 -21 -377 -24 -475 -5 -173 34 -372 120 -505 219
-67 49 -83 66 -93 99 -25 83 -249 269 -457 379 -234 124 -567 185 -838 153z
m407 -264 c171 -36 360 -120 491 -220 91 -69 120 -101 135 -149 15 -45 72
-102 185 -185 237 -173 482 -265 774 -292 306 -29 637 48 909 212 l53 31 -6
-38 c-35 -201 -130 -458 -232 -627 -145 -241 -400 -496 -640 -641 -184 -110
-440 -201 -668 -237 -103 -16 -427 -16 -530 0 -228 36 -484 127 -668 237 -297
179 -575 484 -717 786 -108 232 -160 439 -176 699 l-7 116 74 61 c162 134 398
235 610 261 101 13 318 6 413 -14z"/>
</g>
</svg>
