<?xml version="1.0" standalone="no"?>
<!DOCTYPE svg PUBLIC "-//W3C//DTD SVG 20010904//EN"
 "http://www.w3.org/TR/2001/REC-SVG-20010904/DTD/svg10.dtd">
<svg version="1.0" xmlns="http://www.w3.org/2000/svg"
 width="746pt" height="1000pt" viewBox="0 0 746 1000"
 preserveAspectRatio="xMidYMid meet">
<metadata>
Created by potrace 1.9, written by Peter Selinger 2001-2010
</metadata>
<g transform="translate(0,1000) scale(0.100000,-0.100000)"
fill="#000000" stroke="none">
<path d="M7105 6081 c-57 -27 -1989 -1962 -2010 -2013 -8 -21 -15 -45 -15 -55
0 -33 36 -86 71 -105 32 -17 79 -18 869 -18 l835 0 -877 -877 c-924 -926 -909
-910 -893 -983 8 -39 56 -87 95 -95 16 -4 45 -2 62 4 24 8 324 302 1035 1013
889 890 1002 1007 1008 1040 9 49 -19 105 -65 130 -33 17 -78 18 -875 18
l-840 0 887 888 c970 971 921 915 883 995 -32 67 -102 91 -170 58z"/>
<path d="M238 4123 c-46 -29 -53 -56 -51 -182 9 -506 237 -1027 612 -1400 387
-384 904 -595 1461 -595 557 0 1074 211 1461 595 322 320 523 719 594 1179 21
137 25 328 7 362 -40 74 -167 77 -212 5 -7 -12 -18 -90 -26 -178 -15 -182 -18
-201 -50 -329 -41 -166 -119 -358 -201 -493 -145 -241 -400 -496 -640 -641
-184 -110 -440 -201 -668 -237 -103 -16 -427 -16 -530 0 -228 36 -484 127
-668 237 -240 145 -495 400 -640 641 -82 135 -160 327 -201 493 -32 128 -35
147 -50 329 -8 88 -19 166 -26 178 -32 51 -119 69 -172 36z"/>
</g>
</svg>
