<?xml version="1.0" standalone="no"?>
<!DOCTYPE svg PUBLIC "-//W3C//DTD SVG 20010904//EN"
 "http://www.w3.org/TR/2001/REC-SVG-20010904/DTD/svg10.dtd">
<svg version="1.0" xmlns="http://www.w3.org/2000/svg"
 width="844pt" height="1000pt" viewBox="0 0 844 1000"
 preserveAspectRatio="xMidYMid meet">
<metadata>
Created by potrace 1.9, written by Peter Selinger 2001-2010
</metadata>
<g transform="translate(0,1000) scale(0.100000,-0.100000)"
fill="#000000" stroke="none">
<path d="M5037 2659 c-333 -38 -638 -178 -867 -396 l-88 -83 -1898 0 c-1820 0
-1901 -1 -1933 -18 -36 -19 -71 -72 -71 -107 0 -35 35 -88 71 -107 32 -17 115
-18 2012 -18 1786 0 1982 2 2012 16 42 19 64 52 73 107 7 37 16 49 89 107 96
77 205 137 335 184 157 57 232 69 423 69 191 0 266 -12 424 -69 120 -44 226
-100 316 -169 91 -69 120 -101 135 -149 29 -90 294 -283 514 -372 461 -188
991 -134 1410 143 100 67 215 165 240 205 9 14 16 47 16 72 0 39 -5 51 -35 81
-30 30 -42 35 -81 35 -48 0 -104 -30 -154 -85 -106 -114 -365 -245 -575 -291
-98 -21 -377 -24 -475 -5 -173 34 -372 120 -505 219 -67 49 -83 66 -93 99 -25
83 -249 269 -457 379 -234 124 -567 185 -838 153z"/>
</g>
</svg>
