<?xml version="1.0" standalone="no"?>
<!DOCTYPE svg PUBLIC "-//W3C//DTD SVG 20010904//EN"
 "http://www.w3.org/TR/2001/REC-SVG-20010904/DTD/svg10.dtd">
<svg version="1.0" xmlns="http://www.w3.org/2000/svg"
 width="1628pt" height="1000pt" viewBox="0 0 1628 1000"
 preserveAspectRatio="xMidYMid meet">
<metadata>
Created by potrace 1.9, written by Peter Selinger 2001-2010
</metadata>
<g transform="translate(0,1000) scale(0.100000,-0.100000)"
fill="#000000" stroke="none">
<path d="M3070 6084 c-194 -35 -394 -125 -531 -240 -290 -242 -446 -650 -384
-1003 50 -285 189 -528 395 -694 100 -79 275 -169 395 -202 50 -13 138 -31
196 -40 99 -14 112 -14 225 5 66 11 149 28 185 40 61 19 65 19 74 2 5 -9 211
-220 457 -467 l448 -450 -445 -445 c-466 -466 -487 -491 -471 -556 17 -68 80
-111 144 -99 32 5 98 68 494 463 l458 457 452 -452 c473 -470 490 -485 555
-468 67 16 110 79 98 143 -5 32 -68 99 -466 497 l-459 460 464 465 465 465 73
-21 c40 -12 123 -29 184 -38 106 -15 116 -15 232 4 160 26 285 68 407 135 308
170 493 448 556 833 18 108 18 123 4 221 -77 533 -420 896 -930 985 -224 39
-459 -2 -684 -121 -301 -158 -503 -444 -565 -799 -64 -362 97 -779 391 -1014
43 -34 79 -65 81 -69 1 -3 -191 -200 -428 -436 l-430 -430 -433 433 -432 433
30 22 c143 106 254 234 333 385 60 116 98 234 123 390 18 108 18 123 4 221
-57 391 -248 683 -560 856 -221 122 -481 170 -705 129z m50 -604 l0 -360 -360
0 c-308 0 -360 2 -360 14 0 30 53 183 87 251 70 140 221 293 358 363 71 36
225 91 258 92 16 0 17 -24 17 -360z m352 334 c287 -90 495 -298 582 -585 14
-47 26 -90 26 -97 0 -9 -86 -12 -355 -12 l-355 0 0 360 c0 220 4 360 9 360 6
0 47 -12 93 -26z m2588 -334 l0 -360 -360 0 c-308 0 -360 2 -360 14 0 30 53
183 87 251 70 140 221 293 358 363 71 36 225 91 258 92 16 0 17 -24 17 -360z
m352 334 c287 -90 495 -298 582 -585 14 -47 26 -90 26 -97 0 -9 -86 -12 -355
-12 l-355 0 0 360 c0 220 4 360 9 360 6 0 47 -12 93 -26z m-3292 -1299 c0
-303 -2 -355 -14 -355 -33 0 -186 54 -257 91 -144 75 -291 222 -362 364 -29
59 -87 223 -87 248 0 4 162 7 360 7 l360 0 0 -355z m960 348 c0 -25 -58 -189
-87 -248 -71 -142 -218 -289 -362 -364 -66 -34 -224 -91 -252 -91 -5 0 -9 138
-9 355 l0 355 355 0 c195 0 355 -3 355 -7z m1980 -348 c0 -303 -2 -355 -14
-355 -33 0 -186 54 -257 91 -144 75 -291 222 -362 364 -29 59 -87 223 -87 248
0 4 162 7 360 7 l360 0 0 -355z m960 348 c0 -25 -58 -189 -87 -248 -71 -142
-218 -289 -362 -364 -66 -34 -224 -91 -252 -91 -5 0 -9 138 -9 355 l0 355 355
0 c195 0 355 -3 355 -7z"/>
<path d="M1232 4124 c-18 -9 -41 -29 -51 -43 -41 -57 -991 -1973 -996 -2008
-16 -104 101 -175 190 -117 20 13 134 232 467 898 l440 881 438 -874 c321
-643 445 -881 466 -898 78 -62 184 -20 201 81 4 27 -69 179 -500 1042 -384
769 -512 1015 -532 1028 -39 25 -85 29 -123 10z"/>
<path d="M12877 2659 c-333 -38 -638 -178 -867 -396 l-88 -83 -1898 0 c-1820
0 -1901 -1 -1933 -18 -36 -19 -71 -72 -71 -107 0 -35 35 -88 71 -107 32 -17
115 -18 2012 -18 1786 0 1982 2 2012 16 42 19 64 52 73 107 7 37 16 49 89 107
96 77 205 137 335 184 157 57 232 69 423 69 191 0 266 -12 424 -69 120 -44
226 -100 316 -169 91 -69 120 -101 135 -149 29 -90 294 -283 514 -372 461
-188 991 -134 1410 143 100 67 215 165 240 205 9 14 16 47 16 72 0 39 -5 51
-35 81 -30 30 -42 35 -81 35 -48 0 -104 -30 -154 -85 -106 -114 -365 -245
-575 -291 -98 -21 -377 -24 -475 -5 -173 34 -372 120 -505 219 -67 49 -83 66
-93 99 -25 83 -249 269 -457 379 -234 124 -567 185 -838 153z"/>
</g>
</svg>
