<?xml version="1.0" standalone="no"?>
<!DOCTYPE svg PUBLIC "-//W3C//DTD SVG 20010904//EN"
 "http://www.w3.org/TR/2001/REC-SVG-20010904/DTD/svg10.dtd">
<svg version="1.0" xmlns="http://www.w3.org/2000/svg"
 width="844pt" height="1000pt" viewBox="0 0 844 1000"
 preserveAspectRatio="xMidYMid meet">
<metadata>
Created by potrace 1.9, written by Peter Selinger 2001-2010
</metadata>
<g transform="translate(0,1000) scale(0.100000,-0.100000)"
fill="#000000" stroke="none">
<path d="M1232 6085 c-51 -22 -257 -202 -363 -316 -546 -592 -784 -1407 -644
-2199 105 -588 409 -1120 857 -1501 141 -120 181 -139 242 -119 71 23 103 119
62 182 -10 15 -68 70 -129 122 -349 294 -605 686 -732 1119 -122 419 -122 875
0 1294 127 433 383 825 732 1119 61 52 119 107 129 122 39 59 12 151 -53 178
-40 17 -59 17 -101 -1z"/>
<path d="M2205 6086 c-63 -27 -89 -120 -51 -178 10 -15 68 -70 129 -122 349
-294 605 -686 732 -1119 122 -419 122 -875 0 -1294 -127 -433 -383 -825 -732
-1119 -128 -109 -146 -133 -146 -190 0 -85 77 -141 158 -114 20 7 93 60 163
120 448 380 752 913 857 1500 70 395 48 793 -67 1185 -135 462 -423 905 -790
1216 -150 127 -187 144 -253 115z"/>
<path d="M8085 6081 c-27 -13 -341 -320 -954 -934 l-914 -915 -71 57 c-144
116 -292 199 -456 254 -331 112 -656 112 -990 1 -192 -65 -389 -185 -538 -329
-70 -67 -95 -99 -101 -125 -21 -96 61 -174 154 -149 22 6 66 39 118 87 45 43
107 96 137 119 117 88 309 172 476 209 110 24 388 24 498 0 105 -23 254 -78
346 -127 72 -39 205 -134 231 -165 11 -13 -124 -152 -943 -972 -1009 -1010
-989 -989 -973 -1062 8 -39 56 -87 95 -95 16 -4 45 -2 62 4 23 8 310 287 978
956 520 520 948 945 953 945 4 0 38 -22 75 -49 161 -116 326 -193 518 -242
414 -104 849 -30 1208 208 100 67 215 165 240 205 9 14 16 47 16 72 0 39 -5
51 -35 81 -30 30 -42 35 -81 35 -48 0 -104 -30 -154 -85 -106 -114 -365 -245
-575 -291 -99 -21 -377 -24 -475 -5 -165 32 -370 119 -497 211 l-62 45 944
945 c1033 1034 978 973 940 1053 -32 67 -102 91 -170 58z"/>
<path d="M1600 5104 c-194 -35 -394 -125 -531 -240 -290 -242 -446 -650 -384
-1003 49 -279 185 -523 384 -685 145 -119 339 -206 536 -240 114 -20 216 -20
330 0 489 85 833 432 920 925 61 347 -93 758 -373 994 -241 203 -592 302 -882
249z m400 -269 c176 -56 318 -152 431 -291 68 -83 117 -178 155 -299 26 -80
29 -104 29 -225 0 -121 -3 -145 -29 -225 -93 -295 -290 -493 -586 -591 -77
-25 -98 -28 -230 -28 -132 0 -153 3 -230 28 -179 59 -319 154 -431 292 -68 82
-117 177 -155 299 -26 82 -29 103 -28 230 0 126 3 149 28 225 95 288 291 488
567 579 106 35 147 40 274 37 97 -3 137 -9 205 -31z"/>
</g>
</svg>
