<?xml version="1.0" standalone="no"?>
<!DOCTYPE svg PUBLIC "-//W3C//DTD SVG 20010904//EN"
 "http://www.w3.org/TR/2001/REC-SVG-20010904/DTD/svg10.dtd">
<svg version="1.0" xmlns="http://www.w3.org/2000/svg"
 width="550pt" height="1000pt" viewBox="0 0 550 1000"
 preserveAspectRatio="xMidYMid meet">
<metadata>
Created by potrace 1.9, written by Peter Selinger 2001-2010
</metadata>
<g transform="translate(0,1000) scale(0.100000,-0.100000)"
fill="#000000" stroke="none">
<path d="M715 6093 c-256 -40 -447 -206 -511 -443 -23 -86 -23 -234 0 -320 55
-202 215 -365 415 -422 38 -11 103 -20 153 -21 l86 -2 -15 -35 c-112 -266
-167 -537 -167 -830 0 -204 15 -323 64 -520 184 -731 759 -1306 1490 -1490
197 -49 316 -64 520 -64 557 0 1074 211 1461 595 398 396 613 914 613 1479 0
293 -55 564 -167 830 l-15 35 86 2 c270 6 498 184 568 443 23 86 23 234 0 320
-55 202 -214 364 -415 423 -88 26 -242 27 -331 3 -198 -54 -373 -223 -420
-406 -6 -25 -13 -51 -15 -58 -3 -8 -38 13 -98 57 -387 287 -798 425 -1267 425
-469 0 -880 -138 -1267 -425 -60 -44 -95 -65 -98 -57 -2 7 -9 33 -15 58 -46
179 -219 349 -409 402 -68 19 -194 30 -246 21z m220 -277 c71 -32 149 -111
183 -184 22 -48 27 -71 27 -142 0 -106 -29 -175 -105 -250 -75 -76 -144 -105
-250 -105 -106 0 -175 29 -250 105 -76 75 -105 144 -105 250 0 71 5 94 27 142
45 98 146 183 245 208 61 15 167 4 228 -24z m2088 13 c215 -32 478 -126 660
-235 240 -145 495 -400 640 -641 111 -184 202 -440 238 -668 7 -44 13 -163 13
-265 0 -195 -10 -285 -49 -440 -84 -332 -244 -610 -494 -859 -240 -238 -514
-393 -841 -476 -155 -39 -245 -49 -440 -49 -195 0 -285 10 -440 49 -327 83
-601 238 -841 476 -207 206 -342 416 -439 679 -76 209 -104 374 -104 620 0
195 10 285 49 440 84 331 239 604 485 850 318 317 699 495 1150 534 73 6 334
-3 413 -15z m1832 -13 c71 -32 149 -111 183 -184 22 -48 27 -71 27 -142 0
-106 -29 -175 -105 -250 -75 -76 -144 -105 -250 -105 -106 0 -175 29 -250 105
-76 75 -105 144 -105 250 0 71 5 94 27 142 45 98 146 183 245 208 61 15 167 4
228 -24z"/>
<path d="M1733 4143 c-33 -6 -79 -57 -86 -92 -26 -127 122 -210 212 -120 43
42 49 93 18 156 -20 42 -87 68 -144 56z"/>
<path d="M3693 4143 c-33 -6 -79 -57 -86 -92 -26 -127 122 -210 212 -120 43
42 49 93 18 156 -20 42 -87 68 -144 56z"/>
<path d="M2713 3163 c-33 -6 -79 -57 -86 -92 -26 -127 122 -210 212 -120 43
42 49 93 18 156 -20 42 -87 68 -144 56z"/>
</g>
</svg>
