<?xml version="1.0" standalone="no"?>
<!DOCTYPE svg PUBLIC "-//W3C//DTD SVG 20010904//EN"
 "http://www.w3.org/TR/2001/REC-SVG-20010904/DTD/svg10.dtd">
<svg version="1.0" xmlns="http://www.w3.org/2000/svg"
 width="746pt" height="1000pt" viewBox="0 0 746 1000"
 preserveAspectRatio="xMidYMid meet">
<metadata>
Created by potrace 1.9, written by Peter Selinger 2001-2010
</metadata>
<g transform="translate(0,1000) scale(0.100000,-0.100000)"
fill="#000000" stroke="none">
<path d="M251 6082 c-36 -19 -71 -73 -71 -107 1 -60 52 -114 999 -1060 l961
-960 0 -887 0 -888 -928 0 c-879 0 -929 -1 -961 -18 -36 -19 -71 -72 -71 -107
0 -35 35 -88 71 -107 32 -17 115 -18 2014 -18 1899 0 1982 1 2014 18 36 19 71
72 71 107 0 35 -35 88 -71 107 -32 17 -82 18 -961 18 l-928 0 0 893 0 892 970
970 c687 686 973 980 981 1003 6 17 8 46 4 62 -8 39 -56 87 -95 95 -73 16 -53
35 -1048 -959 l-942 -941 -943 942 c-531 531 -954 947 -970 953 -39 14 -57 13
-96 -8z"/>
<path d="M6125 6081 c-27 -13 -201 -180 -531 -512 -513 -516 -526 -530 -509
-596 16 -67 79 -110 143 -98 32 5 92 61 435 403 l397 397 0 -282 0 -281 -66
-11 c-176 -31 -381 -125 -515 -237 -290 -242 -446 -650 -384 -1003 49 -279
185 -523 384 -685 138 -113 340 -206 514 -236 l67 -12 0 -447 c0 -499 -1 -495
71 -533 42 -23 66 -23 108 0 72 38 71 34 71 534 l0 447 38 6 c20 4 78 18 127
31 417 115 712 448 790 895 61 345 -93 757 -368 990 -150 127 -357 222 -549
254 l-38 6 0 277 0 277 388 -387 c403 -402 425 -420 489 -403 67 16 110 79 98
143 -5 32 -74 104 -513 546 -290 290 -521 514 -539 522 -42 18 -60 17 -108 -5z
m-65 -2061 c0 -727 -2 -840 -14 -840 -33 0 -186 54 -257 91 -144 75 -291 222
-362 364 -19 39 -48 111 -63 160 -26 82 -29 103 -28 230 0 126 3 149 28 225
16 47 44 117 63 155 70 140 221 293 358 363 71 36 225 91 258 92 16 0 17 -47
17 -840z m352 814 c173 -54 316 -151 429 -290 68 -83 117 -178 155 -299 26
-80 29 -104 29 -225 0 -121 -3 -145 -29 -225 -93 -295 -295 -498 -584 -589
-46 -14 -87 -26 -93 -26 -5 0 -9 317 -9 840 0 523 4 840 9 840 6 0 47 -12 93
-26z"/>
</g>
</svg>
