<?xml version="1.0" standalone="no"?>
<!DOCTYPE svg PUBLIC "-//W3C//DTD SVG 20010904//EN"
 "http://www.w3.org/TR/2001/REC-SVG-20010904/DTD/svg10.dtd">
<svg version="1.0" xmlns="http://www.w3.org/2000/svg"
 width="942pt" height="1000pt" viewBox="0 0 942 1000"
 preserveAspectRatio="xMidYMid meet">
<metadata>
Created by potrace 1.9, written by Peter Selinger 2001-2010
</metadata>
<g transform="translate(0,1000) scale(0.100000,-0.100000)"
fill="#000000" stroke="none">
<path d="M2211 6082 c-19 -10 -43 -34 -53 -53 -17 -32 -18 -113 -18 -1941 l0
-1908 -928 0 c-879 0 -929 -1 -961 -18 -36 -19 -71 -72 -71 -107 0 -35 35 -88
71 -107 32 -17 115 -18 2014 -18 1899 0 1982 1 2014 18 36 19 71 72 71 107 0
35 -35 88 -71 107 -32 17 -82 18 -961 18 l-928 0 0 855 0 855 928 0 c879 0
929 1 961 18 19 10 43 34 53 53 17 32 18 84 18 1034 0 950 -1 1002 -18 1034
-10 19 -34 43 -53 53 -32 17 -84 18 -1034 18 -950 0 -1002 -1 -1034 -18z
m1889 -1087 l0 -855 -855 0 -855 0 0 855 0 855 855 0 855 0 0 -855z"/>
<path d="M5151 6082 c-19 -10 -43 -34 -53 -53 -17 -32 -18 -84 -18 -1034 0
-950 1 -1002 18 -1034 10 -19 34 -43 53 -53 32 -17 82 -18 961 -18 l928 0 0
-928 c0 -879 1 -929 18 -961 19 -36 72 -71 107 -71 35 0 88 35 107 71 17 32
18 115 18 2014 0 1899 -1 1982 -18 2014 -19 36 -72 71 -107 71 -35 0 -88 -35
-107 -71 -17 -32 -18 -73 -18 -676 l0 -643 -82 83 c-167 166 -369 268 -614
311 -160 28 -319 15 -498 -40 -169 -53 -381 -189 -480 -307 l-36 -42 0 640 c0
601 -1 642 -18 674 -19 36 -72 71 -107 71 -11 0 -36 -8 -54 -18z m1259 -1247
c292 -94 493 -294 584 -583 14 -46 26 -90 26 -98 0 -12 -113 -14 -840 -14
-727 0 -840 2 -840 14 0 8 12 52 26 98 89 281 290 486 565 577 106 35 147 40
274 37 97 -3 136 -9 205 -31z"/>
<path d="M8091 5102 c-19 -10 -43 -34 -53 -53 -17 -32 -18 -77 -18 -789 0
-712 1 -757 18 -789 19 -36 72 -71 107 -71 35 0 88 35 107 71 17 32 18 77 18
789 0 712 -1 757 -18 789 -19 36 -72 71 -107 71 -11 0 -36 -8 -54 -18z"/>
<path d="M8103 3173 c-33 -6 -79 -57 -86 -92 -26 -127 122 -210 212 -120 43
42 49 93 18 156 -20 42 -87 68 -144 56z"/>
</g>
</svg>
