<?xml version="1.0" standalone="no"?>
<!DOCTYPE svg PUBLIC "-//W3C//DTD SVG 20010904//EN"
 "http://www.w3.org/TR/2001/REC-SVG-20010904/DTD/svg10.dtd">
<svg version="1.0" xmlns="http://www.w3.org/2000/svg"
 width="1089pt" height="1000pt" viewBox="0 0 1089 1000"
 preserveAspectRatio="xMidYMid meet">
<metadata>
Created by potrace 1.9, written by Peter Selinger 2001-2010
</metadata>
<g transform="translate(0,1000) scale(0.100000,-0.100000)"
fill="#000000" stroke="none">
<path d="M251 8042 c-19 -10 -43 -34 -53 -53 -17 -31 -18 -69 -18 -544 0 -475
1 -513 18 -544 10 -19 34 -43 53 -53 31 -17 69 -18 544 -18 475 0 513 1 544
18 19 10 43 34 53 53 17 31 18 69 18 544 0 475 -1 513 -18 544 -10 19 -34 43
-53 53 -31 17 -69 18 -544 18 -475 0 -513 -1 -544 -18z m909 -597 l0 -365
-365 0 -365 0 0 365 0 365 365 0 365 0 0 -365z"/>
<path d="M741 6082 c-19 -10 -43 -34 -53 -53 -17 -32 -18 -115 -18 -2014 0
-1899 1 -1982 18 -2014 19 -36 72 -71 107 -71 35 0 88 35 107 71 17 32 18 115
18 2014 0 1899 -1 1982 -18 2014 -19 36 -72 71 -107 71 -11 0 -36 -8 -54 -18z"/>
<path d="M4172 6085 c-51 -22 -257 -202 -363 -316 -262 -285 -471 -652 -577
-1014 -85 -290 -121 -608 -103 -888 48 -709 364 -1345 894 -1799 71 -61 141
-116 155 -124 23 -12 331 -14 2005 -14 1822 0 1982 1 2014 17 19 9 37 22 40
29 2 6 51 51 108 99 354 296 650 753 783 1210 142 486 142 984 0 1470 -106
362 -315 729 -577 1014 -96 103 -306 289 -358 316 -42 22 -3971 22 -4021 0z
m4015 -319 c331 -283 584 -677 708 -1099 122 -419 122 -875 0 -1294 -124 -425
-378 -818 -714 -1104 l-104 -89 -1897 0 -1897 0 -104 89 c-336 286 -590 679
-714 1104 -122 419 -122 875 0 1294 124 422 377 816 708 1099 l98 84 1909 0
1909 0 98 -84z"/>
<path d="M1721 5102 c-36 -19 -71 -73 -71 -107 1 -57 49 -111 479 -540 l441
-440 -449 -450 c-468 -470 -483 -487 -466 -552 16 -67 79 -110 143 -98 32 5
105 74 550 518 358 358 515 522 523 544 24 73 30 65 -509 607 -290 290 -521
514 -539 522 -43 18 -61 18 -102 -4z"/>
<path d="M10535 5101 c-26 -12 -208 -188 -531 -512 -535 -538 -529 -530 -504
-613 10 -35 85 -115 503 -535 519 -520 542 -540 613 -527 41 8 90 56 99 96 4
16 2 45 -4 62 -8 23 -151 173 -466 488 l-455 455 459 460 c503 504 493 491
456 568 -32 67 -102 91 -170 58z"/>
</g>
</svg>
