<?xml version="1.0" standalone="no"?>
<!DOCTYPE svg PUBLIC "-//W3C//DTD SVG 20010904//EN"
 "http://www.w3.org/TR/2001/REC-SVG-20010904/DTD/svg10.dtd">
<svg version="1.0" xmlns="http://www.w3.org/2000/svg"
 width="452pt" height="1000pt" viewBox="0 0 452 1000"
 preserveAspectRatio="xMidYMid meet">
<metadata>
Created by potrace 1.9, written by Peter Selinger 2001-2010
</metadata>
<g transform="translate(0,1000) scale(0.100000,-0.100000)"
fill="#000000" stroke="none">
<path d="M1110 5104 c-194 -35 -394 -125 -531 -240 -290 -242 -446 -650 -384
-1003 49 -279 185 -523 384 -685 188 -154 467 -256 701 -256 168 0 374 56 535
145 292 161 477 426 550 788 5 25 9 27 51 27 198 0 556 -113 777 -246 242
-146 495 -399 641 -641 81 -135 159 -328 200 -493 32 -128 35 -147 50 -329 8
-88 19 -166 26 -178 45 -72 172 -69 212 5 31 60 5 354 -52 582 -165 657 -653
1197 -1290 1430 -161 58 -449 120 -563 120 l-45 0 -7 53 c-23 167 -120 386
-233 527 -237 297 -660 460 -1022 394z m400 -269 c176 -56 318 -152 431 -291
68 -83 117 -178 155 -299 26 -80 29 -104 29 -225 0 -121 -3 -145 -29 -225 -93
-295 -290 -493 -586 -591 -77 -25 -98 -28 -230 -28 -132 0 -153 3 -230 28
-179 59 -319 154 -431 292 -68 82 -117 177 -155 299 -26 82 -29 103 -28 230 0
126 3 149 28 225 95 288 291 488 567 579 106 35 147 40 274 37 97 -3 137 -9
205 -31z"/>
</g>
</svg>
