<?xml version="1.0" standalone="no"?>
<!DOCTYPE svg PUBLIC "-//W3C//DTD SVG 20010904//EN"
 "http://www.w3.org/TR/2001/REC-SVG-20010904/DTD/svg10.dtd">
<svg version="1.0" xmlns="http://www.w3.org/2000/svg"
 width="1236pt" height="1000pt" viewBox="0 0 1236 1000"
 preserveAspectRatio="xMidYMid meet">
<metadata>
Created by potrace 1.9, written by Peter Selinger 2001-2010
</metadata>
<g transform="translate(0,1000) scale(0.100000,-0.100000)"
fill="#000000" stroke="none">
<path d="M6132 4124 c-18 -9 -41 -29 -51 -43 -41 -57 -991 -1973 -996 -2008
-16 -104 101 -175 190 -117 20 13 134 232 467 898 l440 881 438 -874 c321
-643 445 -881 466 -898 78 -62 184 -20 201 81 4 27 -69 179 -500 1042 -384
769 -512 1015 -532 1028 -39 25 -85 29 -123 10z"/>
<path d="M8555 4133 c-256 -40 -449 -208 -510 -443 -21 -81 -24 -188 -7 -222
29 -54 115 -75 172 -41 38 22 48 43 64 139 17 99 43 152 107 216 74 74 144
103 249 103 71 0 94 -5 142 -27 111 -51 206 -178 211 -280 2 -41 -16 -70 -472
-753 -261 -390 -479 -726 -485 -746 -12 -47 16 -104 64 -131 32 -17 68 -18
545 -18 475 0 513 1 544 18 35 19 71 72 71 105 0 31 -30 85 -58 104 -25 16
-62 18 -420 23 l-392 5 426 638 c234 351 430 651 435 665 11 27 8 46 -28 202
-45 198 -218 372 -420 424 -66 17 -189 27 -238 19z"/>
<path d="M10918 4125 c-159 -25 -271 -65 -405 -147 -180 -108 -291 -223 -394
-410 -108 -195 -160 -459 -129 -660 77 -505 427 -865 925 -952 291 -51 619 41
870 243 191 154 332 405 380 682 49 279 -41 608 -235 853 -158 199 -409 342
-685 390 -107 19 -208 19 -327 1z m392 -270 c83 -27 188 -75 242 -112 l27 -19
-252 -252 -252 -252 -250 250 -250 251 25 19 c39 31 179 96 245 115 149 44
329 43 465 0z m-664 -1064 c-285 -285 -251 -271 -319 -136 -142 283 -125 588
47 852 l21 33 250 -250 250 -250 -249 -249z m1131 732 c30 -39 93 -173 119
-258 26 -80 29 -104 29 -225 0 -121 -3 -145 -29 -225 -27 -86 -89 -219 -121
-260 -15 -19 -26 -9 -268 233 l-252 252 250 250 c137 137 252 250 254 250 2 0
10 -8 18 -17z m-225 -1186 c-53 -36 -158 -85 -242 -113 -77 -25 -98 -28 -230
-28 -132 0 -153 3 -230 28 -47 15 -119 46 -160 67 -134 70 -149 34 135 319
l250 250 252 -252 252 -252 -27 -19z"/>
<path d="M1231 3142 c-35 -19 -71 -72 -71 -105 0 -55 41 -103 413 -474 l382
-383 -835 0 c-790 0 -837 -1 -869 -18 -36 -19 -71 -72 -71 -107 0 -35 35 -88
71 -107 32 -17 115 -18 2014 -18 1899 0 1982 1 2014 18 36 19 71 72 71 107 0
35 -35 88 -71 107 -32 17 -79 18 -874 18 l-840 0 397 398 c342 342 398 402
403 434 12 64 -31 127 -98 143 -65 17 -82 2 -555 -469 l-452 -451 -453 452
c-248 249 -465 457 -480 463 -39 14 -57 13 -96 -8z"/>
</g>
</svg>
