<?xml version="1.0" standalone="no"?>
<!DOCTYPE svg PUBLIC "-//W3C//DTD SVG 20010904//EN"
 "http://www.w3.org/TR/2001/REC-SVG-20010904/DTD/svg10.dtd">
<svg version="1.0" xmlns="http://www.w3.org/2000/svg"
 width="1432pt" height="1000pt" viewBox="0 0 1432 1000"
 preserveAspectRatio="xMidYMid meet">
<metadata>
Created by potrace 1.9, written by Peter Selinger 2001-2010
</metadata>
<g transform="translate(0,1000) scale(0.100000,-0.100000)"
fill="#000000" stroke="none">
<path d="M1231 6082 c-19 -10 -43 -34 -53 -53 -17 -32 -18 -113 -18 -1941 l0
-1908 -438 0 c-404 0 -440 -1 -471 -18 -36 -19 -71 -72 -71 -107 0 -35 35 -88
71 -107 32 -17 84 -18 1034 -18 950 0 1002 1 1034 18 36 19 71 72 71 107 0 35
-35 88 -71 107 -31 17 -67 18 -471 18 l-438 0 0 1908 c0 1828 -1 1909 -18
1941 -19 36 -72 71 -107 71 -11 0 -36 -8 -54 -18z"/>
<path d="M5055 6094 c-684 -55 -1279 -418 -1631 -994 -143 -235 -234 -491
-279 -780 -21 -137 -25 -328 -7 -362 40 -74 167 -77 212 -5 7 12 18 90 26 178
15 182 18 201 50 329 82 329 238 604 484 850 241 241 514 398 835 481 81 21
237 50 243 44 2 -1 -416 -840 -927 -1864 -527 -1052 -933 -1877 -936 -1898 -8
-49 19 -100 66 -125 32 -17 115 -18 2014 -18 1899 0 1982 1 2014 18 37 20 71
72 71 109 0 13 -423 869 -940 1904 -649 1296 -935 1879 -923 1876 10 -3 41 -8
68 -12 180 -24 463 -126 638 -231 242 -146 495 -399 641 -641 81 -135 159
-328 200 -493 32 -128 35 -147 50 -329 8 -88 19 -166 26 -178 45 -72 172 -69
212 5 18 34 14 225 -7 362 -71 458 -269 853 -585 1170 -378 377 -876 590
-1416 604 -82 2 -171 2 -199 0z m152 -3912 c-963 -1 -1752 0 -1754 2 -2 2 390
793 873 1757 l877 1754 877 -1755 878 -1755 -1751 -3z"/>
<path d="M11915 6094 c-684 -55 -1279 -418 -1631 -994 -167 -275 -264 -576
-294 -915 l-10 -109 -969 -971 c-782 -783 -971 -977 -981 -1008 -20 -64 6
-123 67 -152 80 -38 23 -88 1004 892 493 492 899 891 901 887 3 -5 9 -31 12
-59 11 -78 62 -272 96 -365 102 -278 276 -548 493 -762 95 -94 268 -233 335
-267 21 -11 22 -18 22 -124 0 -129 14 -168 71 -199 32 -17 84 -18 1034 -18
950 0 1002 1 1034 18 58 31 71 69 71 204 0 65 4 118 9 118 24 0 242 172 338
267 401 398 617 915 617 1483 0 204 -15 323 -64 520 -165 656 -654 1197 -1290
1430 -108 39 -286 84 -416 104 -102 16 -357 27 -449 20z m418 -265 c215 -32
478 -126 660 -235 240 -145 495 -400 640 -641 111 -184 202 -440 238 -668 7
-44 13 -163 13 -265 0 -195 -10 -285 -49 -440 -84 -334 -244 -611 -498 -862
-59 -59 -121 -117 -137 -128 l-30 -21 0 733 c0 691 -1 735 -18 767 -38 71 -35
71 -524 71 l-438 0 0 850 0 850 36 0 c19 0 68 -5 107 -11z m-1338 -739 c-401
-401 -730 -728 -732 -727 -5 6 48 198 77 277 97 264 227 466 430 670 206 205
416 339 684 435 69 25 235 72 261 74 5 1 -318 -327 -720 -729z m945 -185 l0
-765 -438 0 c-489 0 -486 0 -524 -71 -17 -32 -18 -76 -18 -772 l0 -739 -42 34
c-135 107 -338 339 -431 495 -77 128 -159 324 -198 476 -29 114 -38 168 -49
292 l-10 110 853 853 c468 468 853 852 854 852 2 0 3 -344 3 -765z m980 -1759
l0 -743 -79 -36 c-167 -77 -345 -131 -516 -158 -103 -16 -427 -16 -530 0 -169
27 -354 83 -512 156 l-73 34 0 745 0 746 855 0 855 0 0 -744z"/>
</g>
</svg>
