<?xml version="1.0" standalone="no"?>
<!DOCTYPE svg PUBLIC "-//W3C//DTD SVG 20010904//EN"
 "http://www.w3.org/TR/2001/REC-SVG-20010904/DTD/svg10.dtd">
<svg version="1.0" xmlns="http://www.w3.org/2000/svg"
 width="1236pt" height="1000pt" viewBox="0 0 1236 1000"
 preserveAspectRatio="xMidYMid meet">
<metadata>
Created by potrace 1.9, written by Peter Selinger 2001-2010
</metadata>
<g transform="translate(0,1000) scale(0.100000,-0.100000)"
fill="#000000" stroke="none">
<path d="M4075 6094 c-684 -55 -1279 -418 -1631 -994 -108 -179 -182 -356
-234 -560 -23 -92 -60 -292 -60 -324 0 -3 -410 199 -910 449 -501 250 -920
455 -933 455 -65 0 -133 -75 -123 -138 11 -76 -10 -64 999 -569 524 -261 955
-481 959 -487 4 -6 8 -33 8 -60 0 -70 27 -233 60 -366 184 -730 759 -1306
1490 -1490 197 -49 316 -64 520 -64 557 0 1074 211 1461 595 314 312 523 721
589 1149 6 41 13 87 16 102 l5 27 899 -449 c498 -249 916 -452 937 -455 104
-16 175 101 117 190 -13 20 -250 143 -978 507 -529 264 -963 482 -965 484 -2
2 -7 45 -12 96 -56 668 -420 1256 -989 1604 -234 142 -489 233 -776 278 -102
16 -357 27 -449 20z m418 -265 c215 -32 478 -126 660 -235 240 -145 495 -400
640 -641 78 -128 158 -323 198 -478 21 -81 50 -237 44 -243 -1 -2 -404 197
-894 442 -490 246 -902 446 -914 446 -37 0 -89 -34 -109 -71 -17 -32 -18 -81
-18 -921 0 -489 -2 -888 -5 -888 -3 0 -387 191 -854 425 l-850 424 5 58 c20
244 73 444 174 661 168 359 503 694 862 862 210 98 418 154 648 174 73 6 334
-3 413 -15z m1550 -1941 c-17 -230 -73 -441 -173 -656 -142 -302 -420 -607
-717 -786 -184 -110 -440 -201 -668 -237 -103 -16 -427 -16 -530 0 -228 36
-484 127 -668 237 -240 145 -495 400 -640 641 -78 128 -158 323 -198 478 -22
82 -49 235 -43 235 2 0 400 -198 884 -440 486 -243 896 -442 917 -445 49 -8
100 19 125 66 17 32 18 81 18 921 l0 888 849 -424 848 -425 -4 -53z"/>
<path d="M9930 6084 c-194 -35 -394 -125 -531 -240 -290 -242 -446 -650 -384
-1003 49 -279 185 -523 384 -685 138 -113 340 -206 514 -236 l67 -12 0 -937
c0 -888 1 -938 18 -970 19 -36 72 -71 107 -71 34 0 87 35 105 68 12 22 19 69
24 149 12 204 44 361 106 533 97 264 227 466 430 670 246 246 521 402 850 484
128 32 147 35 329 50 88 8 166 19 178 26 72 45 69 172 -5 212 -60 31 -354 5
-582 -52 -526 -133 -990 -478 -1261 -940 l-44 -75 -3 424 c-1 233 -1 425 1
427 1 2 38 10 81 19 458 95 788 441 871 916 61 347 -93 758 -373 994 -241 203
-592 302 -882 249z m400 -269 c176 -56 318 -152 431 -291 68 -83 117 -178 155
-299 26 -80 29 -104 29 -225 0 -121 -3 -145 -29 -225 -93 -295 -290 -493 -586
-591 -77 -25 -98 -28 -230 -28 -132 0 -153 3 -230 28 -179 59 -319 154 -431
292 -68 82 -117 177 -155 299 -26 82 -29 103 -28 230 0 126 3 149 28 225 95
288 291 488 567 579 106 35 147 40 274 37 97 -3 137 -9 205 -31z"/>
</g>
</svg>
