<?xml version="1.0" standalone="no"?>
<!DOCTYPE svg PUBLIC "-//W3C//DTD SVG 20010904//EN"
 "http://www.w3.org/TR/2001/REC-SVG-20010904/DTD/svg10.dtd">
<svg version="1.0" xmlns="http://www.w3.org/2000/svg"
 width="942pt" height="1000pt" viewBox="0 0 942 1000"
 preserveAspectRatio="xMidYMid meet">
<metadata>
Created by potrace 1.9, written by Peter Selinger 2001-2010
</metadata>
<g transform="translate(0,1000) scale(0.100000,-0.100000)"
fill="#000000" stroke="none">
<path d="M2115 6094 c-172 -14 -419 -67 -575 -124 -631 -231 -1120 -769 -1286
-1415 -70 -271 -67 -205 -71 -1420 -4 -1057 -3 -1101 15 -1134 10 -19 34 -43
53 -53 32 -17 115 -18 2014 -18 1899 0 1982 1 2014 18 19 10 43 34 53 53 17
32 18 84 18 1014 0 975 -2 1051 -36 1300 -85 616 -439 1154 -974 1481 -234
142 -489 233 -776 278 -102 16 -357 27 -449 20z m418 -265 c215 -32 478 -126
660 -235 242 -146 495 -399 641 -641 77 -128 158 -324 197 -476 62 -244 69
-380 69 -1414 l0 -883 -1836 0 -1835 0 4 1028 c3 872 6 1039 20 1107 78 409
238 716 517 995 318 317 699 495 1150 534 73 6 334 -3 413 -15z"/>
<path d="M7015 6094 c-684 -55 -1279 -418 -1631 -994 -199 -327 -298 -686
-298 -1080 0 -204 15 -323 64 -520 204 -811 885 -1420 1715 -1534 277 -38 312
-38 590 0 615 85 1155 440 1481 975 199 326 298 686 298 1079 0 204 -15 323
-64 520 -165 656 -654 1197 -1290 1430 -108 39 -286 84 -416 104 -102 16 -357
27 -449 20z m25 -2074 l0 -1820 -41 0 c-193 0 -553 115 -772 246 -240 145
-495 400 -640 641 -111 184 -202 440 -238 668 -7 44 -13 163 -13 265 0 102 6
221 13 265 36 228 127 484 237 668 146 242 399 495 641 641 218 130 561 241
761 245 l52 1 0 -1820z m393 1809 c215 -32 478 -126 660 -235 240 -145 495
-400 640 -641 111 -184 202 -440 238 -668 7 -44 13 -163 13 -265 0 -195 -10
-285 -49 -440 -84 -332 -244 -610 -494 -859 -197 -196 -401 -325 -661 -421
-145 -53 -359 -100 -454 -100 l-36 0 0 1820 0 1820 36 0 c19 0 68 -5 107 -11z"/>
</g>
</svg>
