<?xml version="1.0" standalone="no"?>
<!DOCTYPE svg PUBLIC "-//W3C//DTD SVG 20010904//EN"
 "http://www.w3.org/TR/2001/REC-SVG-20010904/DTD/svg10.dtd">
<svg version="1.0" xmlns="http://www.w3.org/2000/svg"
 width="452pt" height="1000pt" viewBox="0 0 452 1000"
 preserveAspectRatio="xMidYMid meet">
<metadata>
Created by potrace 1.9, written by Peter Selinger 2001-2010
</metadata>
<g transform="translate(0,1000) scale(0.100000,-0.100000)"
fill="#000000" stroke="none">
<path d="M265 6092 c-99 -35 -118 -168 -32 -222 12 -7 90 -18 178 -26 182 -15
201 -18 329 -50 329 -82 604 -238 850 -484 328 -328 502 -714 535 -1186 l7
-90 -167 -334 -167 -333 -26 34 c-79 105 -205 191 -332 225 -86 23 -234 23
-320 0 -254 -69 -438 -299 -444 -557 -1 -74 12 -108 54 -132 55 -33 143 -13
169 37 6 12 17 57 25 102 17 99 43 152 107 216 74 74 144 103 249 103 105 0
175 -29 249 -103 64 -64 90 -117 107 -216 8 -45 19 -91 26 -103 16 -32 92 -67
128 -59 66 13 75 27 277 430 l195 391 193 -385 c200 -398 216 -423 282 -436
39 -7 95 18 118 53 10 14 21 57 27 97 13 95 46 165 108 226 75 76 144 105 250
105 105 0 175 -29 249 -103 64 -64 90 -117 107 -216 8 -45 19 -90 25 -102 26
-50 114 -70 169 -37 42 24 55 58 54 132 -6 258 -190 488 -444 557 -86 23 -234
23 -319 0 -127 -34 -250 -115 -321 -210 l-34 -47 -169 337 -169 337 7 86 c18
252 71 456 175 679 85 181 200 342 360 502 246 246 521 402 850 484 128 32
147 35 329 50 88 8 166 19 178 26 72 45 69 172 -5 212 -34 18 -225 14 -362 -7
-629 -97 -1150 -442 -1476 -975 -63 -105 -145 -272 -165 -337 -6 -24 -15 -43
-19 -43 -4 0 -13 19 -19 43 -7 23 -34 87 -60 142 -207 436 -555 786 -986 991
-242 115 -526 185 -800 198 -60 3 -119 2 -130 -2z"/>
</g>
</svg>
