<?xml version="1.0" standalone="no"?>
<!DOCTYPE svg PUBLIC "-//W3C//DTD SVG 20010904//EN"
 "http://www.w3.org/TR/2001/REC-SVG-20010904/DTD/svg10.dtd">
<svg version="1.0" xmlns="http://www.w3.org/2000/svg"
 width="942pt" height="1000pt" viewBox="0 0 942 1000"
 preserveAspectRatio="xMidYMid meet">
<metadata>
Created by potrace 1.9, written by Peter Selinger 2001-2010
</metadata>
<g transform="translate(0,1000) scale(0.100000,-0.100000)"
fill="#000000" stroke="none">
<path d="M8103 8063 c-33 -6 -79 -57 -86 -92 -26 -127 122 -210 212 -120 43
42 49 93 18 156 -20 42 -87 68 -144 56z"/>
<path d="M6621 8042 c-47 -25 -74 -76 -66 -125 3 -21 118 -263 255 -537 272
-544 273 -545 355 -545 78 1 77 -2 357 559 278 556 274 547 233 609 -23 35
-79 60 -118 53 -66 -13 -82 -38 -282 -436 l-193 -385 -195 391 c-143 286 -202
395 -222 408 -41 27 -85 30 -124 8z"/>
<path d="M265 6092 c-99 -35 -118 -168 -32 -222 12 -7 90 -18 178 -26 182 -15
201 -18 329 -50 329 -82 604 -238 850 -484 328 -328 502 -714 535 -1186 l7
-90 -236 -472 c-130 -259 -238 -488 -241 -509 -11 -74 61 -150 132 -139 68 10
76 22 280 430 l195 391 193 -385 c200 -398 216 -423 282 -436 39 -7 95 18 118
53 41 62 44 55 -220 582 l-247 494 7 86 c18 252 71 456 175 679 85 181 200
342 360 502 246 246 521 402 850 484 128 32 147 35 329 50 88 8 166 19 178 26
72 45 69 172 -5 212 -34 18 -225 14 -362 -7 -629 -97 -1150 -442 -1476 -975
-63 -105 -145 -272 -165 -337 -6 -24 -15 -43 -19 -43 -4 0 -13 19 -19 43 -7
23 -34 87 -60 142 -207 436 -555 786 -986 991 -242 115 -526 185 -800 198 -60
3 -119 2 -130 -2z"/>
<path d="M7105 6081 c-28 -13 -345 -325 -1021 -1002 -792 -794 -984 -991 -994
-1022 -20 -64 6 -123 67 -152 80 -38 18 -93 1055 943 l948 947 942 -941 c761
-760 950 -944 981 -954 64 -20 123 6 152 67 38 80 98 14 -993 1107 -583 583
-1010 1004 -1029 1012 -42 18 -60 17 -108 -5z"/>
</g>
</svg>
