<?xml version="1.0" standalone="no"?>
<!DOCTYPE svg PUBLIC "-//W3C//DTD SVG 20010904//EN"
 "http://www.w3.org/TR/2001/REC-SVG-20010904/DTD/svg10.dtd">
<svg version="1.0" xmlns="http://www.w3.org/2000/svg"
 width="1530pt" height="1000pt" viewBox="0 0 1530 1000"
 preserveAspectRatio="xMidYMid meet">
<metadata>
Created by potrace 1.9, written by Peter Selinger 2001-2010
</metadata>
<g transform="translate(0,1000) scale(0.100000,-0.100000)"
fill="#000000" stroke="none">
<path d="M1110 6084 c-360 -65 -649 -275 -803 -585 -92 -185 -144 -413 -119
-522 7 -28 21 -99 31 -157 131 -727 392 -1308 845 -1880 123 -156 432 -465
591 -592 121 -96 316 -232 433 -303 35 -20 66 -43 69 -50 9 -25 73 -48 113
-41 58 9 373 207 555 350 483 378 854 835 1139 1405 173 344 298 743 365 1166
20 125 19 131 -5 283 -77 488 -428 840 -920 926 -359 63 -766 -92 -1007 -382
-35 -42 -79 -105 -98 -139 -19 -35 -36 -63 -39 -63 -3 1 -24 33 -47 73 -209
364 -689 586 -1103 511z m400 -269 c353 -114 585 -399 619 -764 5 -54 15 -107
22 -119 43 -69 175 -69 218 0 7 12 17 65 22 119 17 179 89 357 197 484 115
137 243 222 422 281 77 25 98 28 230 28 132 0 153 -3 230 -28 183 -61 317
-152 431 -292 66 -80 115 -175 155 -294 25 -76 28 -100 28 -220 0 -110 -5
-159 -27 -265 -86 -404 -225 -774 -424 -1130 -298 -531 -795 -1042 -1326
-1364 l-37 -23 -48 28 c-87 50 -266 176 -387 272 -163 130 -468 437 -599 602
-415 523 -672 1109 -781 1785 -28 175 -26 209 19 342 91 266 291 464 557 552
106 35 147 40 274 37 97 -3 136 -9 205 -31z"/>
<path d="M5151 6082 c-19 -10 -43 -34 -53 -53 -17 -32 -18 -83 -18 -1006 l0
-973 -485 -970 c-269 -538 -487 -986 -490 -1007 -16 -104 101 -175 190 -117
20 13 134 232 467 898 l440 881 439 -877 c368 -736 444 -880 471 -900 l33 -23
1010 -3 c964 -2 1012 -1 1044 16 37 20 71 72 71 109 0 13 -220 464 -490 1003
l-490 980 0 978 c0 927 -1 979 -18 1011 -19 36 -72 71 -107 71 -35 0 -88 -35
-107 -71 -17 -32 -18 -84 -19 -1009 l0 -975 -428 -855 -428 -855 -427 853
-426 852 0 978 c0 927 -1 979 -18 1011 -19 36 -72 71 -107 71 -11 0 -36 -8
-54 -18z m2016 -3900 c-424 -1 -772 0 -774 2 -2 2 170 352 383 777 l387 774
387 -775 388 -775 -771 -3z"/>
<path d="M11031 6082 c-19 -10 -43 -34 -53 -53 -17 -32 -18 -115 -18 -2014 0
-1899 1 -1982 18 -2014 10 -19 34 -43 53 -53 32 -17 115 -18 2014 -18 1899 0
1982 1 2014 18 19 10 43 34 53 53 17 32 18 115 18 2014 0 1899 -1 1982 -18
2014 -10 19 -34 43 -53 53 -32 17 -115 18 -2014 18 -1899 0 -1982 -1 -2014
-18z m2836 -1059 l-827 -828 -827 828 -828 827 1655 0 1655 0 -828 -827z
m1013 -1010 l0 -1658 -830 830 -830 830 827 827 c456 456 829 828 830 828 2 0
3 -746 3 -1657z m-2842 824 l822 -822 -825 -825 -825 -825 0 1648 c0 906 1
1647 3 1647 1 0 372 -370 825 -823z m1832 -1832 l825 -825 -1655 0 -1655 0
825 825 c454 454 827 825 830 825 3 0 376 -371 830 -825z"/>
<path d="M9535 4133 c-256 -40 -449 -208 -510 -443 -21 -81 -24 -188 -7 -222
29 -54 115 -75 172 -41 38 22 48 43 64 139 17 99 43 152 107 216 74 74 144
103 249 103 71 0 94 -5 142 -27 111 -51 206 -178 211 -280 2 -41 -16 -70 -472
-753 -261 -390 -479 -726 -485 -746 -12 -47 16 -104 64 -131 32 -17 68 -18
545 -18 475 0 513 1 544 18 35 19 71 72 71 105 0 31 -30 85 -58 104 -25 16
-62 18 -420 23 l-392 5 426 638 c234 351 430 651 435 665 11 27 8 46 -28 202
-45 198 -218 372 -420 424 -66 17 -189 27 -238 19z"/>
</g>
</svg>
