<?xml version="1.0" standalone="no"?>
<!DOCTYPE svg PUBLIC "-//W3C//DTD SVG 20010904//EN"
 "http://www.w3.org/TR/2001/REC-SVG-20010904/DTD/svg10.dtd">
<svg version="1.0" xmlns="http://www.w3.org/2000/svg"
 width="746pt" height="1000pt" viewBox="0 0 746 1000"
 preserveAspectRatio="xMidYMid meet">
<metadata>
Created by potrace 1.9, written by Peter Selinger 2001-2010
</metadata>
<g transform="translate(0,1000) scale(0.100000,-0.100000)"
fill="#000000" stroke="none">
<path d="M5145 6087 c-63 -29 -89 -121 -51 -179 10 -15 68 -70 129 -122 349
-294 605 -686 732 -1119 122 -419 122 -875 0 -1294 -124 -425 -378 -818 -714
-1104 l-104 -89 -956 0 c-907 0 -958 -1 -990 -18 -36 -19 -71 -72 -71 -107 0
-35 35 -88 71 -107 32 -17 115 -18 2014 -18 1899 0 1982 1 2014 18 35 19 71
72 71 105 0 31 -30 85 -58 104 -25 17 -66 18 -540 23 l-512 5 82 49 c474 281
814 736 948 1266 49 197 64 316 64 520 0 562 -212 1078 -604 1470 -367 366
-850 578 -1380 605 -87 4 -122 2 -145 -8z m530 -301 c296 -75 579 -241 815
-476 246 -246 401 -519 485 -850 39 -155 49 -245 49 -440 0 -195 -10 -285 -49
-440 -84 -331 -239 -604 -485 -850 -204 -203 -406 -333 -670 -430 -89 -32
-232 -72 -238 -65 -2 1 25 34 61 72 155 166 343 462 445 701 154 358 228 787
203 1165 -28 410 -145 797 -341 1133 -90 153 -216 331 -294 414 -29 30 -59 64
-67 74 -13 17 -12 18 6 13 11 -3 47 -13 80 -21z"/>
<path d="M1110 5104 c-194 -35 -394 -125 -531 -240 -290 -242 -446 -650 -384
-1003 49 -279 185 -523 384 -685 145 -119 339 -206 536 -240 114 -20 216 -20
330 0 489 85 833 432 920 925 61 347 -93 758 -373 994 -241 203 -592 302 -882
249z m400 -269 c176 -56 318 -152 431 -291 68 -83 117 -178 155 -299 26 -80
29 -104 29 -225 0 -121 -3 -145 -29 -225 -93 -295 -290 -493 -586 -591 -77
-25 -98 -28 -230 -28 -132 0 -153 3 -230 28 -179 59 -319 154 -431 292 -68 82
-117 177 -155 299 -26 82 -29 103 -28 230 0 126 3 149 28 225 95 288 291 488
567 579 106 35 147 40 274 37 97 -3 137 -9 205 -31z"/>
<path d="M1243 4143 c-33 -6 -79 -57 -86 -92 -26 -127 122 -210 212 -120 43
42 49 93 18 156 -20 42 -87 68 -144 56z"/>
<path d="M251 2162 c-36 -19 -71 -72 -71 -107 0 -35 35 -88 71 -107 32 -17 84
-18 1034 -18 950 0 1002 1 1034 18 36 19 71 72 71 107 0 35 -35 88 -71 107
-32 17 -84 18 -1034 18 -950 0 -1002 -1 -1034 -18z"/>
</g>
</svg>
