<?xml version="1.0" standalone="no"?>
<!DOCTYPE svg PUBLIC "-//W3C//DTD SVG 20010904//EN"
 "http://www.w3.org/TR/2001/REC-SVG-20010904/DTD/svg10.dtd">
<svg version="1.0" xmlns="http://www.w3.org/2000/svg"
 width="1236pt" height="1000pt" viewBox="0 0 1236 1000"
 preserveAspectRatio="xMidYMid meet">
<metadata>
Created by potrace 1.9, written by Peter Selinger 2001-2010
</metadata>
<g transform="translate(0,1000) scale(0.100000,-0.100000)"
fill="#000000" stroke="none">
<path d="M10045 6087 c-63 -29 -89 -121 -51 -179 10 -15 68 -70 129 -122 349
-294 605 -686 732 -1119 122 -419 122 -875 0 -1294 -124 -425 -378 -818 -714
-1104 l-104 -89 -956 0 c-907 0 -958 -1 -990 -18 -36 -19 -71 -72 -71 -107 0
-35 35 -88 71 -107 32 -17 115 -18 2014 -18 1899 0 1982 1 2014 18 35 19 71
72 71 105 0 31 -30 85 -58 104 -25 17 -66 18 -540 23 l-512 5 82 49 c474 281
814 736 948 1266 49 197 64 316 64 520 0 562 -212 1078 -604 1470 -367 366
-850 578 -1380 605 -87 4 -122 2 -145 -8z m530 -301 c296 -75 579 -241 815
-476 246 -246 401 -519 485 -850 39 -155 49 -245 49 -440 0 -195 -10 -285 -49
-440 -84 -331 -239 -604 -485 -850 -204 -203 -406 -333 -670 -430 -89 -32
-232 -72 -238 -65 -2 1 25 34 61 72 155 166 343 462 445 701 154 358 228 787
203 1165 -28 410 -145 797 -341 1133 -90 153 -216 331 -294 414 -29 30 -59 64
-67 74 -13 17 -12 18 6 13 11 -3 47 -13 80 -21z"/>
<path d="M1695 5113 c-144 -22 -261 -80 -355 -173 -99 -100 -155 -219 -175
-377 l-7 -53 -71 40 c-98 53 -181 73 -297 73 -171 0 -313 -57 -430 -173 -116
-117 -173 -259 -173 -430 0 -168 57 -311 168 -425 117 -118 258 -177 430 -178
121 -1 201 19 302 73 l71 40 7 -53 c34 -265 193 -459 434 -530 91 -27 251 -27
342 0 202 59 360 221 415 423 23 86 23 234 0 319 -10 36 -32 92 -49 125 -18
34 -34 65 -36 70 -9 20 285 -13 429 -49 331 -84 604 -239 850 -485 246 -246
402 -521 484 -850 32 -128 35 -147 50 -329 8 -88 19 -166 26 -178 45 -72 172
-69 212 5 18 34 14 225 -7 362 -71 458 -269 853 -585 1170 -363 362 -831 570
-1367 605 l-101 7 38 72 c21 39 46 100 56 136 23 86 23 234 0 320 -55 202
-217 367 -415 422 -68 19 -194 30 -246 21z m220 -277 c71 -32 149 -111 183
-184 22 -48 27 -71 27 -142 0 -106 -29 -175 -105 -250 -75 -76 -144 -105 -250
-105 -106 0 -175 29 -250 105 -76 75 -105 144 -105 250 0 71 5 94 27 142 45
98 146 183 245 208 61 15 167 4 228 -24z m-980 -490 c71 -32 149 -111 183
-184 22 -48 27 -71 27 -142 0 -106 -29 -175 -105 -250 -75 -76 -144 -105 -250
-105 -106 0 -175 29 -250 105 -76 75 -105 144 -105 250 0 71 5 94 27 142 45
98 146 183 245 208 61 15 167 4 228 -24z m980 -490 c71 -32 149 -111 183 -184
22 -48 27 -71 27 -142 0 -106 -29 -175 -105 -250 -75 -76 -144 -105 -250 -105
-106 0 -175 29 -250 105 -76 75 -105 144 -105 250 0 71 5 94 27 142 45 98 146
183 245 208 61 15 167 4 228 -24z"/>
<path d="M6010 5104 c-194 -35 -394 -125 -531 -240 -290 -242 -446 -650 -384
-1003 49 -279 185 -523 384 -685 145 -119 339 -206 536 -240 114 -20 216 -20
330 0 489 85 833 432 920 925 61 347 -93 758 -373 994 -241 203 -592 302 -882
249z m400 -269 c176 -56 318 -152 431 -291 68 -83 117 -178 155 -299 26 -80
29 -104 29 -225 0 -121 -3 -145 -29 -225 -93 -295 -290 -493 -586 -591 -77
-25 -98 -28 -230 -28 -132 0 -153 3 -230 28 -179 59 -319 154 -431 292 -68 82
-117 177 -155 299 -26 82 -29 103 -28 230 0 126 3 149 28 225 95 288 291 488
567 579 106 35 147 40 274 37 97 -3 137 -9 205 -31z"/>
<path d="M6143 4143 c-33 -6 -79 -57 -86 -92 -26 -127 122 -210 212 -120 43
42 49 93 18 156 -20 42 -87 68 -144 56z"/>
<path d="M5151 2162 c-36 -19 -71 -72 -71 -107 0 -35 35 -88 71 -107 32 -17
84 -18 1034 -18 950 0 1002 1 1034 18 36 19 71 72 71 107 0 35 -35 88 -71 107
-32 17 -84 18 -1034 18 -950 0 -1002 -1 -1034 -18z"/>
</g>
</svg>
