<?xml version="1.0" standalone="no"?>
<!DOCTYPE svg PUBLIC "-//W3C//DTD SVG 20010904//EN"
 "http://www.w3.org/TR/2001/REC-SVG-20010904/DTD/svg10.dtd">
<svg version="1.0" xmlns="http://www.w3.org/2000/svg"
 width="1432pt" height="1000pt" viewBox="0 0 1432 1000"
 preserveAspectRatio="xMidYMid meet">
<metadata>
Created by potrace 1.9, written by Peter Selinger 2001-2010
</metadata>
<g transform="translate(0,1000) scale(0.100000,-0.100000)"
fill="#000000" stroke="none">
<path d="M1231 6082 c-71 -38 -71 -35 -71 -524 l0 -438 -438 0 c-489 0 -486 0
-524 -71 -23 -42 -23 -66 0 -108 38 -71 35 -71 524 -71 l438 0 0 -855 0 -855
-438 0 c-489 0 -486 0 -524 -71 -23 -42 -23 -66 0 -108 38 -71 35 -71 524 -71
l438 0 0 -438 c0 -489 0 -486 71 -524 42 -23 66 -23 108 0 71 38 71 35 71 524
l0 438 855 0 855 0 0 -438 c0 -489 0 -486 71 -524 42 -23 66 -23 108 0 71 38
71 35 71 524 l0 438 438 0 c489 0 486 0 524 71 23 42 23 66 0 108 -38 71 -35
71 -524 71 l-438 0 0 855 0 855 438 0 c489 0 486 0 524 71 23 42 23 66 0 108
-38 71 -35 71 -524 71 l-438 0 0 438 c0 404 -1 440 -18 471 -19 36 -72 71
-107 71 -35 0 -88 -35 -107 -71 -17 -31 -18 -67 -18 -471 l0 -438 -855 0 -855
0 0 438 c0 404 -1 440 -18 471 -19 36 -72 71 -107 71 -11 0 -36 -8 -54 -18z
m1889 -2067 l0 -855 -855 0 -855 0 0 855 0 855 855 0 855 0 0 -855z"/>
<path d="M7105 6081 c-28 -13 -345 -325 -1021 -1002 -792 -794 -984 -991 -994
-1022 -20 -64 6 -123 67 -152 80 -38 18 -93 1055 943 l948 947 942 -941 c761
-760 950 -944 981 -954 64 -20 123 6 152 67 38 80 98 14 -993 1107 -583 583
-1010 1004 -1029 1012 -42 18 -60 17 -108 -5z"/>
<path d="M10051 6082 c-19 -10 -43 -34 -53 -53 -17 -32 -18 -115 -18 -2014 0
-1899 1 -1982 18 -2014 19 -36 72 -71 107 -71 35 0 88 35 107 71 17 32 18 82
18 961 l0 928 1835 0 1835 0 0 -928 c0 -879 1 -929 18 -961 19 -36 72 -71 107
-71 35 0 88 35 107 71 17 32 18 115 18 2014 0 1899 -1 1982 -18 2014 -19 36
-73 71 -107 71 -60 -1 -114 -52 -1060 -999 l-960 -961 -887 0 -888 0 0 928 c0
879 -1 929 -18 961 -19 36 -72 71 -107 71 -11 0 -36 -8 -54 -18z m3849 -1177
l0 -765 -767 0 -768 0 765 765 c421 421 766 765 767 765 2 0 3 -344 3 -765z"/>
</g>
</svg>
