<?xml version="1.0" standalone="no"?>
<!DOCTYPE svg PUBLIC "-//W3C//DTD SVG 20010904//EN"
 "http://www.w3.org/TR/2001/REC-SVG-20010904/DTD/svg10.dtd">
<svg version="1.0" xmlns="http://www.w3.org/2000/svg"
 width="1432pt" height="1000pt" viewBox="0 0 1432 1000"
 preserveAspectRatio="xMidYMid meet">
<metadata>
Created by potrace 1.9, written by Peter Selinger 2001-2010
</metadata>
<g transform="translate(0,1000) scale(0.100000,-0.100000)"
fill="#000000" stroke="none">
<path d="M2212 8044 c-18 -9 -41 -29 -51 -43 -40 -56 -501 -992 -506 -1028
-11 -74 61 -150 132 -139 68 10 76 22 280 430 l195 391 193 -385 c200 -398
216 -423 282 -436 39 -7 95 18 118 53 41 62 45 53 -233 609 -194 389 -267 525
-287 538 -39 25 -85 29 -123 10z"/>
<path d="M2205 6081 c-27 -13 -201 -180 -531 -512 -513 -516 -526 -530 -509
-596 16 -67 79 -110 143 -98 32 5 92 61 435 403 l397 397 0 -1738 0 -1737 -41
0 c-193 0 -553 115 -772 246 -240 145 -495 400 -640 641 -82 135 -160 327
-201 493 -32 128 -35 147 -50 329 -8 88 -19 166 -26 178 -45 72 -172 69 -212
-5 -31 -60 -5 -354 52 -582 204 -811 885 -1420 1715 -1534 277 -38 312 -38
590 0 615 85 1155 440 1481 975 143 234 234 490 279 779 21 137 25 328 7 362
-40 74 -167 77 -212 5 -7 -12 -18 -90 -26 -178 -15 -182 -18 -201 -50 -329
-82 -330 -242 -610 -493 -859 -197 -196 -401 -325 -661 -421 -145 -53 -359
-100 -454 -100 l-36 0 0 1732 0 1733 388 -387 c403 -402 425 -420 489 -403 67
16 110 79 98 143 -5 32 -74 104 -513 546 -290 290 -521 514 -539 522 -42 18
-60 17 -108 -5z"/>
<path d="M5151 6082 c-36 -19 -71 -72 -71 -107 0 -35 35 -88 71 -107 28 -15
58 -18 184 -18 l150 0 -42 -36 c-73 -61 -170 -187 -226 -295 -65 -122 -101
-233 -124 -375 -16 -100 -16 -107 6 -249 115 -747 399 -1390 872 -1976 194
-240 537 -560 764 -712 l40 -27 -795 0 c-751 0 -797 -1 -829 -18 -36 -19 -71
-72 -71 -107 0 -35 35 -88 71 -107 32 -17 115 -18 2014 -18 1899 0 1982 1
2014 18 36 19 71 72 71 107 0 35 -35 88 -71 107 -32 17 -78 18 -829 19 -751 0
-794 1 -770 17 80 55 238 180 344 272 553 485 996 1189 1196 1905 64 226 132
588 123 655 -42 339 -134 550 -324 742 l-77 78 151 0 c128 0 158 3 186 18 36
19 71 72 71 107 0 35 -35 88 -71 107 -32 17 -115 18 -2014 18 -1899 0 -1982
-1 -2014 -18z m1259 -267 c353 -114 585 -399 619 -764 5 -54 15 -107 22 -119
43 -69 175 -69 218 0 7 12 17 65 22 119 17 179 89 357 197 484 115 137 243
222 422 281 77 25 98 28 230 28 132 0 153 -3 230 -28 183 -61 317 -152 431
-292 66 -80 115 -175 155 -294 25 -76 28 -100 28 -220 0 -110 -5 -159 -27
-265 -113 -532 -328 -1027 -628 -1446 -257 -359 -581 -679 -944 -931 -139 -96
-215 -139 -236 -133 -27 9 -256 165 -359 244 -403 311 -780 745 -1005 1156
-227 415 -372 837 -440 1280 -20 130 -15 201 22 318 88 280 289 485 564 576
106 35 147 40 274 37 97 -3 136 -9 205 -31z m993 -1 c-60 -50 -164 -179 -204
-251 -19 -35 -36 -63 -39 -63 -3 0 -20 27 -38 60 -41 75 -139 197 -200 250
l-47 40 285 0 285 0 -42 -36z"/>
<path d="M12005 6081 c-28 -13 -345 -325 -1021 -1002 -792 -794 -984 -991
-994 -1022 -20 -64 6 -123 67 -152 80 -38 18 -93 1055 943 l948 947 942 -941
c761 -760 950 -944 981 -954 64 -20 123 6 152 67 38 80 98 14 -993 1107 -583
583 -1010 1004 -1029 1012 -42 18 -60 17 -108 -5z"/>
</g>
</svg>
