<?xml version="1.0" standalone="no"?>
<!DOCTYPE svg PUBLIC "-//W3C//DTD SVG 20010904//EN"
 "http://www.w3.org/TR/2001/REC-SVG-20010904/DTD/svg10.dtd">
<svg version="1.0" xmlns="http://www.w3.org/2000/svg"
 width="452pt" height="1000pt" viewBox="0 0 452 1000"
 preserveAspectRatio="xMidYMid meet">
<metadata>
Created by potrace 1.9, written by Peter Selinger 2001-2010
</metadata>
<g transform="translate(0,1000) scale(0.100000,-0.100000)"
fill="#000000" stroke="none">
<path d="M1231 8042 c-47 -25 -74 -76 -66 -125 3 -21 118 -263 255 -537 272
-544 273 -545 355 -545 78 1 77 -2 357 559 278 556 274 547 233 609 -23 35
-79 60 -118 53 -66 -13 -82 -38 -282 -436 l-193 -385 -195 391 c-143 286 -202
395 -222 408 -41 27 -85 30 -124 8z"/>
<path d="M4170 6085 c-22 -10 -305 -286 -758 -738 l-723 -722 -22 30 c-179
243 -429 396 -732 449 -360 63 -765 -91 -1009 -383 -194 -232 -291 -578 -241
-860 49 -281 188 -526 386 -686 41 -32 78 -63 84 -67 5 -5 -188 -206 -472
-491 -502 -503 -515 -518 -498 -584 16 -67 79 -110 143 -98 32 5 106 75 559
527 l521 521 61 -17 c168 -47 315 -57 466 -30 489 85 833 432 920 925 26 145
16 289 -31 457 l-18 63 767 767 c838 839 800 796 762 875 -30 64 -100 90 -165
62z m-2170 -1250 c117 -37 224 -95 307 -165 71 -59 193 -201 193 -223 0 -7
-259 -271 -574 -586 -572 -572 -575 -575 -601 -561 -49 26 -160 127 -216 196
-68 82 -117 177 -155 299 -26 82 -29 103 -28 230 0 126 3 149 28 225 95 288
291 488 567 579 106 35 147 40 274 37 97 -3 137 -9 205 -31z m616 -850 c-10
-239 -119 -456 -310 -616 -171 -144 -410 -218 -631 -194 l-68 7 499 499 499
499 8 -42 c5 -24 6 -92 3 -153z"/>
<path d="M1733 4143 c-33 -6 -79 -57 -86 -92 -26 -127 122 -210 212 -120 43
42 49 93 18 156 -20 42 -87 68 -144 56z"/>
</g>
</svg>
