<?xml version="1.0" standalone="no"?>
<!DOCTYPE svg PUBLIC "-//W3C//DTD SVG 20010904//EN"
 "http://www.w3.org/TR/2001/REC-SVG-20010904/DTD/svg10.dtd">
<svg version="1.0" xmlns="http://www.w3.org/2000/svg"
 width="452pt" height="1000pt" viewBox="0 0 452 1000"
 preserveAspectRatio="xMidYMid meet">
<metadata>
Created by potrace 1.9, written by Peter Selinger 2001-2010
</metadata>
<g transform="translate(0,1000) scale(0.100000,-0.100000)"
fill="#000000" stroke="none">
<path d="M251 6082 c-36 -19 -71 -73 -71 -107 1 -58 50 -112 624 -685 322
-322 586 -589 586 -594 0 -5 -9 -19 -19 -30 -33 -36 -128 -228 -155 -312 -33
-109 -56 -242 -56 -334 0 -161 52 -359 137 -520 157 -299 445 -502 798 -564
161 -28 319 -15 499 40 82 26 245 106 303 150 17 13 35 24 40 24 4 0 226 -218
493 -485 l485 -485 -1815 0 c-1739 0 -1817 -1 -1849 -18 -36 -19 -71 -72 -71
-107 0 -35 35 -88 71 -107 32 -17 115 -18 2014 -18 1904 0 1982 1 2015 18 46
25 74 81 65 130 -6 33 -79 110 -616 647 l-609 610 35 49 c120 168 205 433 205
636 0 157 -52 357 -132 512 -159 305 -447 510 -803 572 -161 28 -319 15 -499
-40 -87 -28 -271 -120 -320 -160 l-29 -26 -484 484 -483 483 1827 5 c1742 5
1829 6 1855 23 28 19 58 73 58 104 0 33 -36 86 -71 105 -32 17 -115 18 -2014
18 -1899 0 -1982 -1 -2014 -18z m2239 -1247 c176 -56 318 -152 431 -291 68
-83 117 -178 155 -299 26 -80 29 -104 29 -225 0 -121 -3 -145 -29 -225 -27
-86 -89 -219 -121 -260 -15 -19 -41 6 -607 573 -567 566 -592 592 -573 607 35
27 168 91 236 114 106 35 147 40 274 37 97 -3 137 -9 205 -31z m242 -1518
c-53 -36 -158 -85 -242 -113 -77 -25 -98 -28 -230 -28 -132 0 -153 3 -230 28
-179 59 -319 154 -431 292 -68 82 -117 177 -155 299 -26 82 -29 103 -28 230 0
126 3 149 28 225 29 88 72 182 109 237 l22 33 592 -592 592 -592 -27 -19z"/>
</g>
</svg>
