<?xml version="1.0" standalone="no"?>
<!DOCTYPE svg PUBLIC "-//W3C//DTD SVG 20010904//EN"
 "http://www.w3.org/TR/2001/REC-SVG-20010904/DTD/svg10.dtd">
<svg version="1.0" xmlns="http://www.w3.org/2000/svg"
 width="2118pt" height="1000pt" viewBox="0 0 2118 1000"
 preserveAspectRatio="xMidYMid meet">
<metadata>
Created by potrace 1.9, written by Peter Selinger 2001-2010
</metadata>
<g transform="translate(0,1000) scale(0.100000,-0.100000)"
fill="#000000" stroke="none">
<path d="M13972 8044 c-18 -9 -41 -29 -51 -43 -41 -58 -1971 -3933 -1976
-3968 -8 -49 19 -100 66 -125 31 -17 65 -18 431 -18 l398 0 -445 -890 c-246
-492 -447 -906 -450 -927 -8 -49 19 -100 66 -125 32 -17 115 -18 2014 -18
1899 0 1982 1 2014 18 37 20 71 72 71 109 0 12 -202 428 -450 923 -247 495
-450 902 -450 905 0 3 179 5 398 5 366 0 400 1 431 18 37 20 71 72 71 109 0
13 -447 918 -994 2011 -764 1527 -1000 1993 -1021 2006 -39 25 -85 29 -123 10z
m932 -2151 l876 -1753 -350 0 -350 0 -479 958 c-377 753 -485 963 -508 978
-15 10 -46 19 -68 19 -85 0 -63 38 -583 -1001 l-477 -954 -347 0 c-192 0 -348
2 -348 5 0 10 1751 3507 1754 3504 2 -2 398 -793 880 -1756z m-877 -3711
c-963 -1 -1752 0 -1754 2 -2 2 390 793 873 1757 l877 1754 877 -1755 878
-1755 -1751 -3z"/>
<path d="M3191 7062 c-19 -10 -43 -34 -53 -53 -17 -32 -18 -79 -18 -874 l0
-840 -397 397 c-436 435 -430 430 -506 393 -61 -29 -87 -88 -67 -152 17 -53
973 -1015 1039 -1045 88 -40 61 -62 629 505 358 358 515 522 523 544 6 18 8
47 4 63 -8 39 -56 87 -95 95 -70 15 -85 2 -492 -403 l-388 -387 0 835 c0 790
-1 837 -18 869 -19 36 -72 71 -107 71 -11 0 -36 -8 -54 -18z"/>
<path d="M9065 6081 c-27 -13 -201 -180 -531 -512 -513 -516 -526 -530 -509
-596 16 -67 79 -110 143 -98 32 5 92 61 435 403 l397 397 0 -1738 0 -1737 -41
0 c-193 0 -553 115 -772 246 -240 145 -495 400 -640 641 -82 135 -160 327
-201 493 -32 128 -35 147 -50 329 -8 88 -19 166 -26 178 -45 72 -172 69 -212
-5 -31 -60 -5 -354 52 -582 204 -811 885 -1420 1715 -1534 277 -38 312 -38
590 0 615 85 1155 440 1481 975 143 234 234 490 279 779 21 137 25 328 7 362
-40 74 -167 77 -212 5 -7 -12 -18 -90 -26 -178 -15 -182 -18 -201 -50 -329
-82 -330 -242 -610 -493 -859 -197 -196 -401 -325 -661 -421 -145 -53 -359
-100 -454 -100 l-36 0 0 1732 0 1733 388 -387 c403 -402 425 -420 489 -403 67
16 110 79 98 143 -5 32 -74 104 -513 546 -290 290 -521 514 -539 522 -42 18
-60 17 -108 -5z"/>
<path d="M18775 6094 c-684 -55 -1279 -418 -1631 -994 -199 -327 -298 -686
-298 -1080 0 -204 15 -323 64 -520 184 -731 759 -1306 1490 -1490 197 -49 316
-64 520 -64 557 0 1074 211 1461 595 398 396 613 914 613 1479 0 204 -15 323
-64 520 -165 656 -654 1197 -1290 1430 -108 39 -286 84 -416 104 -102 16 -357
27 -449 20z m418 -265 c215 -32 478 -126 660 -235 240 -145 495 -400 640 -641
111 -184 202 -440 238 -668 7 -44 13 -163 13 -265 0 -195 -10 -285 -49 -440
-84 -332 -244 -610 -494 -859 -240 -238 -514 -393 -841 -476 -155 -39 -245
-49 -440 -49 -195 0 -285 10 -440 49 -327 83 -601 238 -841 476 -207 206 -342
416 -439 679 -76 209 -104 374 -104 620 0 195 10 285 49 440 84 331 239 604
485 850 318 317 699 495 1150 534 73 6 334 -3 413 -15z"/>
<path d="M18865 5591 c-27 -13 -201 -180 -531 -512 -513 -516 -526 -530 -509
-596 16 -67 79 -110 143 -98 32 5 98 68 494 463 l458 457 452 -452 c473 -470
490 -485 555 -468 67 16 110 79 98 143 -5 32 -74 104 -513 546 -290 290 -521
514 -539 522 -42 18 -60 17 -108 -5z"/>
<path d="M1231 5102 c-35 -19 -71 -72 -71 -105 0 -55 41 -103 413 -474 l382
-383 -835 0 c-790 0 -837 -1 -869 -18 -36 -19 -71 -72 -71 -107 0 -35 35 -88
71 -107 32 -17 79 -18 869 -18 l835 0 -387 -387 c-402 -404 -420 -426 -403
-490 16 -67 79 -110 143 -98 32 5 105 74 550 518 358 358 515 522 523 544 24
73 30 65 -509 607 -290 290 -521 514 -539 522 -43 18 -61 18 -102 -4z"/>
<path d="M5145 5101 c-26 -12 -209 -188 -532 -512 -545 -548 -533 -533 -500
-621 24 -62 994 -1030 1050 -1048 64 -20 123 6 152 67 37 76 42 70 -393 506
l-397 397 840 0 c795 0 842 1 874 18 36 19 71 72 71 107 0 35 -35 88 -71 107
-32 17 -79 18 -874 18 l-840 0 397 398 c435 435 430 429 393 505 -32 67 -102
91 -170 58z"/>
<path d="M3185 3141 c-27 -13 -201 -180 -531 -512 -513 -516 -526 -530 -509
-596 16 -67 79 -110 143 -98 32 5 92 61 435 403 l397 397 0 -840 c0 -795 1
-842 18 -874 19 -36 72 -71 107 -71 35 0 88 35 107 71 17 32 18 79 18 869 l0
835 388 -387 c403 -402 425 -420 489 -403 67 16 110 79 98 143 -5 32 -74 104
-513 546 -290 290 -521 514 -539 522 -42 18 -60 17 -108 -5z"/>
</g>
</svg>
