<?xml version="1.0" standalone="no"?>
<!DOCTYPE svg PUBLIC "-//W3C//DTD SVG 20010904//EN"
 "http://www.w3.org/TR/2001/REC-SVG-20010904/DTD/svg10.dtd">
<svg version="1.0" xmlns="http://www.w3.org/2000/svg"
 width="550pt" height="1000pt" viewBox="0 0 550 1000"
 preserveAspectRatio="xMidYMid meet">
<metadata>
Created by potrace 1.9, written by Peter Selinger 2001-2010
</metadata>
<g transform="translate(0,1000) scale(0.100000,-0.100000)"
fill="#000000" stroke="none">
<path d="M695 3149 c-242 -41 -429 -208 -491 -439 -23 -86 -23 -234 0 -320 42
-155 149 -292 287 -368 67 -38 107 -50 259 -82 40 -8 580 -10 2030 -8 2218 4
2040 -2 2208 79 148 72 263 214 308 379 23 86 23 234 0 320 -55 204 -213 363
-421 426 -57 18 -161 19 -2095 20 -1119 1 -2057 -2 -2085 -7z m4157 -271 c74
-34 152 -112 186 -186 22 -48 27 -71 27 -142 0 -105 -29 -175 -103 -249 -63
-63 -117 -90 -211 -107 -112 -20 -3890 -20 -4002 0 -94 17 -148 44 -211 107
-74 74 -103 144 -103 249 0 71 5 94 27 142 46 98 147 184 245 207 22 5 903 8
2063 8 l2025 -2 57 -27z"/>
</g>
</svg>
