<?xml version="1.0" standalone="no"?>
<!DOCTYPE svg PUBLIC "-//W3C//DTD SVG 20010904//EN"
 "http://www.w3.org/TR/2001/REC-SVG-20010904/DTD/svg10.dtd">
<svg version="1.0" xmlns="http://www.w3.org/2000/svg"
 width="452pt" height="1000pt" viewBox="0 0 452 1000"
 preserveAspectRatio="xMidYMid meet">
<metadata>
Created by potrace 1.9, written by Peter Selinger 2001-2010
</metadata>
<g transform="translate(0,1000) scale(0.100000,-0.100000)"
fill="#000000" stroke="none">
<path d="M251 4122 c-19 -10 -43 -34 -53 -53 -17 -32 -18 -84 -18 -1034 0
-950 1 -1002 18 -1034 19 -36 72 -71 107 -71 35 0 88 35 107 71 17 32 18 82
18 961 l0 928 762 0 763 0 -387 -387 c-402 -404 -420 -426 -403 -490 16 -67
79 -110 143 -98 32 5 98 68 494 463 l458 457 452 -452 c473 -470 490 -485 555
-468 67 16 110 79 98 143 -5 32 -61 92 -403 435 l-397 397 768 0 767 0 0 -928
c0 -879 1 -929 18 -961 19 -36 72 -71 107 -71 35 0 88 35 107 71 17 32 18 84
18 1034 0 950 -1 1002 -18 1034 -10 19 -34 43 -53 53 -32 17 -115 18 -2014 18
-1899 0 -1982 -1 -2014 -18z"/>
</g>
</svg>
