<?xml version="1.0" standalone="no"?>
<!DOCTYPE svg PUBLIC "-//W3C//DTD SVG 20010904//EN"
 "http://www.w3.org/TR/2001/REC-SVG-20010904/DTD/svg10.dtd">
<svg version="1.0" xmlns="http://www.w3.org/2000/svg"
 width="305pt" height="1000pt" viewBox="0 0 305 1000"
 preserveAspectRatio="xMidYMid meet">
<metadata>
Created by potrace 1.9, written by Peter Selinger 2001-2010
</metadata>
<g transform="translate(0,1000) scale(0.100000,-0.100000)"
fill="#000000" stroke="none">
<path d="M2695 6081 c-57 -27 -1988 -1962 -2010 -2013 -8 -21 -15 -45 -15 -55
0 -33 36 -86 71 -105 32 -17 82 -18 961 -18 l928 0 0 -928 c0 -879 1 -929 18
-961 19 -36 72 -71 107 -71 35 0 88 35 107 71 17 32 18 115 18 2014 0 1899 -1
1982 -18 2014 -19 36 -73 71 -107 71 -11 0 -38 -9 -60 -19z m-65 -1176 l0
-765 -767 0 -768 0 765 765 c421 421 766 765 767 765 2 0 3 -344 3 -765z"/>
<path d="M1225 3631 c-27 -13 -201 -180 -531 -512 -513 -516 -526 -530 -509
-596 16 -67 79 -110 143 -98 32 5 98 68 494 463 l458 457 452 -452 c473 -470
490 -485 555 -468 67 16 110 79 98 143 -5 32 -74 104 -513 546 -290 290 -521
514 -539 522 -42 18 -60 17 -108 -5z"/>
</g>
</svg>
