<?xml version="1.0" standalone="no"?>
<!DOCTYPE svg PUBLIC "-//W3C//DTD SVG 20010904//EN"
 "http://www.w3.org/TR/2001/REC-SVG-20010904/DTD/svg10.dtd">
<svg version="1.0" xmlns="http://www.w3.org/2000/svg"
 width="1138pt" height="1000pt" viewBox="0 0 1138 1000"
 preserveAspectRatio="xMidYMid meet">
<metadata>
Created by potrace 1.9, written by Peter Selinger 2001-2010
</metadata>
<g transform="translate(0,1000) scale(0.100000,-0.100000)"
fill="#000000" stroke="none">
<path d="M2211 6082 c-71 -38 -71 -35 -71 -524 l0 -438 -438 0 c-489 0 -486 0
-524 -71 -17 -32 -18 -79 -18 -874 l0 -840 -398 397 c-342 342 -402 398 -434
403 -64 12 -127 -31 -143 -98 -18 -68 -31 -53 999 -1086 967 -969 1021 -1020
1081 -1021 34 0 88 35 107 71 17 31 18 67 18 471 l0 438 438 0 c489 0 486 0
524 71 17 32 18 84 18 1034 0 950 -1 1002 -18 1034 -38 71 -35 71 -524 71
l-438 0 0 438 c0 404 -1 440 -18 471 -19 36 -72 71 -107 71 -11 0 -36 -8 -54
-18z m-71 -2067 l0 -855 -365 0 -365 0 0 855 0 855 365 0 365 0 0 -855z m980
0 l0 -855 -365 0 -365 0 0 855 0 855 365 0 365 0 0 -855z m-980 -1380 c0 -151
-1 -275 -3 -275 -1 0 -126 124 -277 275 l-275 275 278 0 277 0 0 -275z"/>
<path d="M4171 6082 c-19 -10 -43 -34 -53 -53 -17 -32 -18 -115 -18 -2014 0
-1899 1 -1982 18 -2014 10 -19 34 -43 53 -53 32 -17 115 -18 2014 -18 1899 0
1982 1 2014 18 19 10 43 34 53 53 17 32 18 115 18 2014 0 1899 -1 1982 -18
2014 -19 36 -72 71 -107 71 -35 0 -88 -35 -107 -71 -17 -32 -18 -113 -18
-1941 l0 -1908 -1835 0 -1835 0 0 1908 c0 1828 -1 1909 -18 1941 -19 36 -72
71 -107 71 -11 0 -36 -8 -54 -18z"/>
<path d="M10051 6082 c-19 -10 -43 -34 -53 -53 -17 -32 -18 -82 -18 -965 l0
-932 -66 -11 c-176 -31 -381 -125 -515 -237 -290 -242 -446 -650 -384 -1003
49 -279 185 -523 384 -685 188 -154 467 -256 701 -256 239 0 523 106 712 265
280 236 434 647 373 994 -78 447 -373 780 -790 895 -49 13 -107 27 -127 31
l-38 6 0 932 c0 884 -1 934 -18 966 -19 36 -72 71 -107 71 -11 0 -36 -8 -54
-18z m279 -2227 c176 -56 318 -152 431 -291 68 -83 117 -178 155 -299 26 -80
29 -104 29 -225 0 -121 -3 -145 -29 -225 -93 -295 -290 -493 -586 -591 -77
-25 -98 -28 -230 -28 -132 0 -153 3 -230 28 -179 59 -319 154 -431 292 -68 82
-117 177 -155 299 -26 82 -29 103 -28 230 0 126 3 149 28 225 95 288 291 488
567 579 106 35 147 40 274 37 97 -3 137 -9 205 -31z"/>
</g>
</svg>
