<?xml version="1.0" standalone="no"?>
<!DOCTYPE svg PUBLIC "-//W3C//DTD SVG 20010904//EN"
 "http://www.w3.org/TR/2001/REC-SVG-20010904/DTD/svg10.dtd">
<svg version="1.0" xmlns="http://www.w3.org/2000/svg"
 width="599pt" height="1000pt" viewBox="0 0 599 1000"
 preserveAspectRatio="xMidYMid meet">
<metadata>
Created by potrace 1.9, written by Peter Selinger 2001-2010
</metadata>
<g transform="translate(0,1000) scale(0.100000,-0.100000)"
fill="#000000" stroke="none">
<path d="M2211 6082 c-19 -10 -43 -34 -53 -53 -17 -32 -18 -82 -18 -965 l0
-931 -92 -6 c-136 -9 -363 -52 -523 -99 -358 -105 -726 -313 -1009 -572 -128
-118 -311 -333 -327 -385 -15 -51 2 -103 44 -133 l32 -23 938 -3 937 -2 0
-438 c0 -489 0 -486 71 -524 42 -23 66 -23 108 0 71 38 71 35 71 524 l0 438
928 0 c882 0 929 1 962 18 44 24 74 81 66 126 -8 43 -218 289 -347 407 -281
255 -649 463 -1004 567 -156 46 -384 89 -517 99 l-88 6 0 931 c0 883 -1 933
-18 965 -19 36 -72 71 -107 71 -11 0 -36 -8 -54 -18z m-71 -2562 l0 -360 -782
0 -783 1 95 90 c269 255 603 446 957 547 118 34 178 46 363 75 14 3 53 5 88 6
l62 1 0 -360z m533 331 c243 -44 533 -151 744 -274 140 -82 314 -213 433 -326
l95 -90 -777 -1 -778 0 0 361 0 362 88 -6 c48 -4 136 -15 195 -26z"/>
<path d="M5635 4121 c-26 -12 -208 -188 -531 -512 -535 -538 -529 -530 -504
-613 10 -35 85 -115 503 -535 519 -520 542 -540 613 -527 41 8 90 56 99 96 4
16 2 45 -4 62 -8 23 -151 173 -466 488 l-455 455 459 460 c503 504 493 491
456 568 -32 67 -102 91 -170 58z"/>
</g>
</svg>
