<?xml version="1.0" standalone="no"?>
<!DOCTYPE svg PUBLIC "-//W3C//DTD SVG 20010904//EN"
 "http://www.w3.org/TR/2001/REC-SVG-20010904/DTD/svg10.dtd">
<svg version="1.0" xmlns="http://www.w3.org/2000/svg"
 width="844pt" height="1000pt" viewBox="0 0 844 1000"
 preserveAspectRatio="xMidYMid meet">
<metadata>
Created by potrace 1.9, written by Peter Selinger 2001-2010
</metadata>
<g transform="translate(0,1000) scale(0.100000,-0.100000)"
fill="#000000" stroke="none">
<path d="M3191 6082 c-19 -10 -43 -34 -53 -53 -17 -32 -18 -88 -18 -1167 l0
-1133 -72 74 c-40 41 -101 94 -134 119 -125 91 -333 178 -486 203 l-38 6 0
442 c0 494 1 491 -71 529 -32 17 -84 18 -1034 18 -950 0 -1002 -1 -1034 -18
-19 -10 -43 -34 -53 -53 -17 -32 -18 -84 -18 -1034 0 -950 1 -1002 18 -1034
38 -72 35 -71 529 -71 l442 0 6 -37 c17 -99 70 -256 122 -353 158 -300 445
-502 798 -564 364 -64 780 97 1017 394 125 155 201 338 239 569 18 110 19 192
19 1596 0 1415 -1 1482 -18 1514 -19 36 -72 71 -107 71 -11 0 -36 -8 -54 -18z
m-1051 -1581 l0 -369 -66 -11 c-251 -44 -496 -185 -658 -380 -112 -134 -206
-339 -237 -515 l-11 -66 -369 0 -369 0 0 855 0 855 855 0 855 0 0 -369z m0
-981 l0 -360 -360 0 c-308 0 -360 2 -360 14 0 30 53 183 87 251 70 140 221
293 358 363 71 36 225 91 258 92 16 0 17 -24 17 -360z m352 334 c173 -54 316
-151 429 -290 68 -83 117 -178 155 -299 26 -80 29 -104 29 -225 0 -121 -3
-145 -29 -225 -93 -295 -290 -493 -586 -591 -77 -25 -98 -28 -230 -28 -132 0
-153 3 -230 28 -295 97 -497 300 -584 587 -14 47 -26 88 -26 92 0 4 195 7 433
7 483 0 481 0 519 71 17 31 18 66 18 466 0 266 4 433 9 433 6 0 47 -12 93 -26z"/>
<path d="M6131 6082 c-19 -10 -43 -34 -53 -53 -17 -32 -18 -82 -18 -965 l0
-931 -92 -6 c-136 -9 -363 -52 -523 -99 -358 -105 -726 -313 -1009 -572 -128
-118 -311 -333 -327 -385 -15 -51 2 -103 44 -133 l32 -23 938 -3 937 -2 0
-438 c0 -404 1 -440 18 -471 19 -36 72 -71 107 -71 35 0 88 35 107 71 17 31
18 67 18 471 l0 438 928 0 c882 0 929 1 962 18 44 24 74 81 66 126 -8 43 -218
289 -347 407 -281 255 -649 463 -1004 567 -156 46 -384 89 -517 99 l-88 6 0
931 c0 883 -1 933 -18 965 -19 36 -72 71 -107 71 -11 0 -36 -8 -54 -18z m-71
-2562 l0 -360 -782 0 -783 1 95 90 c269 255 603 446 957 547 118 34 178 46
363 75 14 3 53 5 88 6 l62 1 0 -360z m533 331 c243 -44 533 -151 744 -274 140
-82 314 -213 433 -326 l95 -90 -777 -1 -778 0 0 361 0 362 88 -6 c48 -4 136
-15 195 -26z"/>
</g>
</svg>
