<?xml version="1.0" standalone="no"?>
<!DOCTYPE svg PUBLIC "-//W3C//DTD SVG 20010904//EN"
 "http://www.w3.org/TR/2001/REC-SVG-20010904/DTD/svg10.dtd">
<svg version="1.0" xmlns="http://www.w3.org/2000/svg"
 width="648pt" height="1000pt" viewBox="0 0 648 1000"
 preserveAspectRatio="xMidYMid meet">
<metadata>
Created by potrace 1.9, written by Peter Selinger 2001-2010
</metadata>
<g transform="translate(0,1000) scale(0.100000,-0.100000)"
fill="#000000" stroke="none">
<path d="M2205 8041 c-57 -27 -1988 -1962 -2010 -2013 -13 -33 -15 -260 -15
-2015 0 -1897 1 -1980 18 -2012 10 -19 34 -43 53 -53 32 -17 115 -18 2011 -18
1350 0 1986 3 2005 10 38 14 2011 1985 2029 2027 12 27 14 336 14 2010 0 1897
-1 1980 -18 2012 -10 19 -34 43 -53 53 -32 17 -115 18 -2014 18 -1916 0 -1981
-1 -2020 -19z m2815 -1086 l-855 -855 -1780 0 -1780 0 855 855 855 855 1780 0
1780 0 -855 -855z m185 -3735 l-855 -855 0 1780 0 1780 853 853 852 852 3
-1777 2 -1778 -855 -855z m-1105 795 l0 -1835 -1835 0 -1835 0 0 1835 0 1835
1835 0 1835 0 0 -1835z"/>
</g>
</svg>
