<?xml version="1.0" standalone="no"?>
<!DOCTYPE svg PUBLIC "-//W3C//DTD SVG 20010904//EN"
 "http://www.w3.org/TR/2001/REC-SVG-20010904/DTD/svg10.dtd">
<svg version="1.0" xmlns="http://www.w3.org/2000/svg"
 width="452pt" height="1000pt" viewBox="0 0 452 1000"
 preserveAspectRatio="xMidYMid meet">
<metadata>
Created by potrace 1.9, written by Peter Selinger 2001-2010
</metadata>
<g transform="translate(0,1000) scale(0.100000,-0.100000)"
fill="#000000" stroke="none">
<path d="M2115 6094 c-684 -55 -1279 -418 -1631 -994 -143 -235 -234 -491
-279 -780 -21 -137 -25 -328 -7 -362 40 -74 167 -77 212 -5 7 12 18 90 26 178
15 182 18 201 50 329 82 329 238 604 484 850 160 160 321 275 502 360 412 193
844 229 1289 109 l81 -22 -826 -826 c-812 -813 -856 -860 -856 -918 0 -33 36
-86 71 -105 32 -17 79 -18 869 -18 l835 0 -877 -877 c-924 -926 -909 -910
-893 -983 8 -39 56 -87 95 -95 16 -4 45 -2 62 4 24 8 324 302 1035 1013 1096
1098 1036 1031 998 1111 -36 77 30 71 -918 77 l-847 5 753 753 752 752 80 -46
c252 -147 508 -400 659 -651 81 -135 159 -328 200 -493 32 -128 35 -147 50
-329 8 -88 19 -166 26 -178 45 -72 172 -69 212 5 31 60 5 354 -52 582 -130
516 -465 973 -913 1245 l-78 47 40 43 c49 53 60 99 36 148 -29 61 -88 87 -152
66 -22 -7 -66 -39 -104 -76 l-66 -64 -69 26 c-90 34 -274 79 -400 99 -102 16
-357 27 -449 20z"/>
</g>
</svg>
