<?xml version="1.0" standalone="no"?>
<!DOCTYPE svg PUBLIC "-//W3C//DTD SVG 20010904//EN"
 "http://www.w3.org/TR/2001/REC-SVG-20010904/DTD/svg10.dtd">
<svg version="1.0" xmlns="http://www.w3.org/2000/svg"
 width="452pt" height="1000pt" viewBox="0 0 452 1000"
 preserveAspectRatio="xMidYMid meet">
<metadata>
Created by potrace 1.9, written by Peter Selinger 2001-2010
</metadata>
<g transform="translate(0,1000) scale(0.100000,-0.100000)"
fill="#000000" stroke="none">
<path d="M251 4122 c-36 -19 -71 -72 -71 -107 0 -35 35 -88 71 -107 32 -17 83
-18 994 -18 l960 0 965 -965 c1014 -1015 1007 -1008 1076 -991 42 11 71 34 89
73 38 80 98 14 -993 1107 -583 583 -1010 1004 -1029 1012 -27 12 -197 14
-1030 14 -948 0 -1000 -1 -1032 -18z"/>
</g>
</svg>
