<?xml version="1.0" standalone="no"?>
<!DOCTYPE svg PUBLIC "-//W3C//DTD SVG 20010904//EN"
 "http://www.w3.org/TR/2001/REC-SVG-20010904/DTD/svg10.dtd">
<svg version="1.0" xmlns="http://www.w3.org/2000/svg"
 width="648pt" height="1000pt" viewBox="0 0 648 1000"
 preserveAspectRatio="xMidYMid meet">
<metadata>
Created by potrace 1.9, written by Peter Selinger 2001-2010
</metadata>
<g transform="translate(0,1000) scale(0.100000,-0.100000)"
fill="#000000" stroke="none">
<path d="M1231 6082 c-19 -10 -43 -34 -53 -53 -17 -32 -18 -113 -18 -1941 l0
-1908 -438 0 c-404 0 -440 -1 -471 -18 -36 -19 -71 -72 -71 -107 0 -35 35 -88
71 -107 32 -17 84 -18 1034 -18 950 0 1002 1 1034 18 36 19 71 72 71 107 0 35
-35 88 -71 107 -31 17 -67 18 -471 18 l-438 0 0 1908 c0 1828 -1 1909 -18
1941 -19 36 -72 71 -107 71 -11 0 -36 -8 -54 -18z"/>
<path d="M4165 6081 c-56 -27 -1008 -982 -1030 -1033 -13 -33 -15 -161 -15
-1035 0 -948 1 -1000 18 -1032 10 -19 34 -43 53 -53 32 -17 84 -18 1031 -18
669 0 1006 3 1025 10 37 14 1031 1006 1049 1047 12 27 14 197 14 1030 0 948
-1 1000 -18 1032 -10 19 -34 43 -53 53 -32 17 -84 18 -1034 18 -957 0 -1002
-1 -1040 -19z m1345 -596 l-365 -365 -800 0 -800 0 365 365 365 365 800 0 800
0 -365 -365z m185 -1775 l-365 -365 0 800 0 800 363 363 362 362 3 -797 2
-798 -365 -365z m-615 305 l0 -855 -855 0 -855 0 0 855 0 855 855 0 855 0 0
-855z"/>
</g>
</svg>
