<?xml version="1.0" standalone="no"?>
<!DOCTYPE svg PUBLIC "-//W3C//DTD SVG 20010904//EN"
 "http://www.w3.org/TR/2001/REC-SVG-20010904/DTD/svg10.dtd">
<svg version="1.0" xmlns="http://www.w3.org/2000/svg"
 width="844pt" height="1000pt" viewBox="0 0 844 1000"
 preserveAspectRatio="xMidYMid meet">
<metadata>
Created by potrace 1.9, written by Peter Selinger 2001-2010
</metadata>
<g transform="translate(0,1000) scale(0.100000,-0.100000)"
fill="#000000" stroke="none">
<path d="M4075 4134 c-172 -14 -419 -67 -575 -124 -565 -207 -1023 -665 -1230
-1230 -57 -158 -120 -449 -120 -559 l0 -41 -933 0 c-884 0 -934 -1 -966 -18
-36 -19 -71 -72 -71 -107 0 -35 35 -88 71 -107 32 -17 84 -18 1034 -18 950 0
1002 1 1034 18 53 29 67 66 75 199 12 204 44 361 106 533 97 264 227 466 430
670 246 246 519 401 850 485 155 39 245 49 440 49 195 0 285 -10 440 -49 331
-84 604 -239 850 -485 246 -246 402 -521 484 -850 32 -128 35 -147 50 -329 8
-94 19 -166 27 -179 8 -13 32 -31 55 -42 39 -20 65 -20 1040 -20 949 0 1001 1
1033 18 36 19 71 72 71 107 0 35 -35 88 -71 107 -32 17 -82 18 -971 18 l-938
0 0 41 c0 110 -63 401 -120 559 -207 565 -665 1023 -1230 1230 -108 39 -286
84 -416 104 -102 16 -357 27 -449 20z"/>
</g>
</svg>
