<?xml version="1.0" standalone="no"?>
<!DOCTYPE svg PUBLIC "-//W3C//DTD SVG 20010904//EN"
 "http://www.w3.org/TR/2001/REC-SVG-20010904/DTD/svg10.dtd">
<svg version="1.0" xmlns="http://www.w3.org/2000/svg"
 width="207pt" height="1000pt" viewBox="0 0 207 1000"
 preserveAspectRatio="xMidYMid meet">
<metadata>
Created by potrace 1.9, written by Peter Selinger 2001-2010
</metadata>
<g transform="translate(0,1000) scale(0.100000,-0.100000)"
fill="#000000" stroke="none">
<path d="M742 8044 c-18 -9 -41 -29 -51 -43 -40 -56 -501 -992 -506 -1028 -11
-74 61 -150 132 -139 68 10 76 22 280 430 l195 391 193 -385 c200 -398 216
-423 282 -436 39 -7 95 18 118 53 41 62 45 53 -233 609 -194 389 -267 525
-287 538 -39 25 -85 29 -123 10z"/>
<path d="M735 6086 c-63 -27 -89 -120 -51 -178 10 -15 68 -70 129 -122 349
-294 605 -686 732 -1119 122 -419 122 -875 0 -1294 -127 -433 -383 -825 -732
-1119 -128 -109 -146 -133 -146 -190 0 -85 77 -141 158 -114 20 7 93 60 163
120 448 380 752 913 857 1500 70 395 48 793 -67 1185 -135 462 -423 905 -790
1216 -150 127 -187 144 -253 115z"/>
<path d="M751 5132 c-84 -13 -128 -114 -82 -187 10 -16 46 -61 81 -100 409
-461 412 -1172 5 -1635 -75 -85 -95 -118 -95 -158 0 -95 99 -154 184 -110 37
19 135 134 208 243 343 516 341 1168 -7 1690 -55 83 -172 222 -200 238 -27 15
-68 23 -94 19z"/>
<path d="M251 4627 c-49 -17 -76 -58 -76 -116 0 -41 6 -55 45 -104 105 -134
144 -236 144 -382 0 -146 -39 -248 -144 -382 -39 -49 -45 -63 -45 -104 0 -59
27 -99 80 -117 63 -21 106 -2 170 75 180 218 239 522 151 781 -56 163 -172
332 -243 351 -45 13 -39 13 -82 -2z"/>
</g>
</svg>
