<?xml version="1.0" standalone="no"?>
<!DOCTYPE svg PUBLIC "-//W3C//DTD SVG 20010904//EN"
 "http://www.w3.org/TR/2001/REC-SVG-20010904/DTD/svg10.dtd">
<svg version="1.0" xmlns="http://www.w3.org/2000/svg"
 width="1530pt" height="1000pt" viewBox="0 0 1530 1000"
 preserveAspectRatio="xMidYMid meet">
<metadata>
Created by potrace 1.9, written by Peter Selinger 2001-2010
</metadata>
<g transform="translate(0,1000) scale(0.100000,-0.100000)"
fill="#000000" stroke="none">
<path d="M5151 6082 c-19 -10 -43 -34 -53 -53 -17 -32 -18 -115 -18 -2014 0
-1899 1 -1982 18 -2014 10 -19 34 -43 53 -53 32 -17 84 -18 1034 -18 950 0
1002 1 1034 18 72 38 71 34 71 534 l0 447 38 6 c20 4 78 17 127 31 415 113
712 449 789 890 71 403 -132 857 -482 1082 -119 75 -298 144 -434 167 l-38 6
0 442 c0 409 -1 445 -18 476 -49 91 -172 89 -216 -4 -15 -30 -16 -217 -16
-1939 l0 -1906 -855 0 -855 0 0 1908 c0 1828 -1 1909 -18 1941 -19 36 -72 71
-107 71 -11 0 -36 -8 -54 -18z m2241 -1248 c177 -56 315 -149 429 -290 66 -80
115 -174 155 -294 25 -77 28 -98 28 -230 0 -132 -3 -153 -28 -230 -98 -295
-295 -493 -584 -584 -46 -14 -87 -26 -93 -26 -5 0 -9 317 -9 840 0 523 4 840
9 840 6 0 47 -12 93 -26z"/>
<path d="M14945 6081 c-57 -27 -1989 -1962 -2010 -2013 -13 -33 -15 -154 -15
-963 l0 -925 -1835 0 -1835 0 0 928 c0 879 -1 929 -18 961 -19 36 -72 71 -107
71 -35 0 -88 -35 -107 -71 -17 -32 -18 -84 -18 -1034 0 -950 1 -1002 18 -1034
10 -19 34 -43 53 -53 32 -17 115 -18 2014 -18 1899 0 1982 1 2014 18 19 10 43
34 53 53 17 32 18 83 18 999 l0 965 974 975 c1067 1067 1009 1003 971 1083
-32 67 -102 91 -170 58z"/>
<path d="M251 5102 c-19 -10 -43 -34 -53 -53 -17 -32 -18 -84 -18 -1034 0
-950 1 -1002 18 -1034 10 -19 34 -43 53 -53 32 -17 115 -18 2014 -18 1899 0
1982 1 2014 18 19 10 43 34 53 53 17 32 18 84 18 1034 0 950 -1 1002 -18 1034
-10 19 -34 43 -53 53 -32 17 -115 18 -2014 18 -1899 0 -1982 -1 -2014 -18z
m1889 -1087 l0 -855 -855 0 -855 0 0 855 0 855 855 0 855 0 0 -855z m1960 0
l0 -855 -855 0 -855 0 0 855 0 855 855 0 855 0 0 -855z"/>
</g>
</svg>
