<?xml version="1.0" standalone="no"?>
<!DOCTYPE svg PUBLIC "-//W3C//DTD SVG 20010904//EN"
 "http://www.w3.org/TR/2001/REC-SVG-20010904/DTD/svg10.dtd">
<svg version="1.0" xmlns="http://www.w3.org/2000/svg"
 width="746pt" height="1000pt" viewBox="0 0 746 1000"
 preserveAspectRatio="xMidYMid meet">
<metadata>
Created by potrace 1.9, written by Peter Selinger 2001-2010
</metadata>
<g transform="translate(0,1000) scale(0.100000,-0.100000)"
fill="#000000" stroke="none">
<path d="M2090 5104 c-270 -49 -508 -184 -674 -383 -76 -91 -164 -253 -200
-368 -53 -170 -69 -358 -35 -399 8 -10 -3 -8 -37 7 -239 103 -527 168 -765
172 -128 2 -154 -5 -183 -55 -33 -55 -15 -135 37 -168 12 -7 90 -18 178 -26
182 -15 201 -18 329 -50 329 -82 604 -238 850 -484 203 -204 333 -406 430
-670 54 -149 100 -359 100 -459 l0 -41 -918 0 c-869 0 -919 -1 -951 -18 -36
-19 -71 -72 -71 -107 0 -35 35 -88 71 -107 32 -17 115 -18 2014 -18 1899 0
1982 1 2014 18 36 19 71 72 71 107 0 35 -35 88 -71 107 -32 17 -82 18 -956 18
l-923 0 0 41 c0 100 46 310 100 459 97 264 227 466 430 670 246 246 521 402
850 484 128 32 147 35 329 50 88 8 166 19 178 26 51 32 69 116 36 170 -28 47
-55 55 -182 53 -238 -4 -526 -69 -765 -172 -34 -15 -45 -17 -37 -7 21 26 24
118 7 220 -63 368 -263 652 -574 814 -218 113 -466 155 -682 116z m400 -269
c353 -114 585 -399 619 -764 12 -125 30 -155 104 -170 26 -6 22 -9 -55 -55
-356 -211 -640 -523 -819 -901 -26 -55 -53 -119 -60 -142 -6 -24 -15 -43 -19
-43 -4 0 -13 19 -19 43 -7 23 -34 87 -60 142 -179 378 -463 690 -819 901 -77
46 -81 49 -55 55 74 15 92 45 104 170 34 356 264 647 600 758 106 35 147 40
274 37 97 -3 136 -9 205 -31z"/>
<path d="M5151 4122 c-36 -19 -71 -72 -71 -107 0 -35 35 -88 71 -107 31 -17
67 -18 471 -18 l438 0 0 -855 0 -855 -438 0 c-404 0 -440 -1 -471 -18 -36 -19
-71 -72 -71 -107 0 -35 35 -88 71 -107 32 -17 84 -18 1034 -18 950 0 1002 1
1034 18 36 19 71 72 71 107 0 35 -35 88 -71 107 -31 17 -67 18 -471 18 l-438
0 0 855 0 855 438 0 c404 0 440 1 471 18 36 19 71 72 71 107 0 35 -35 88 -71
107 -32 17 -84 18 -1034 18 -950 0 -1002 -1 -1034 -18z"/>
</g>
</svg>
