<?xml version="1.0" standalone="no"?>
<!DOCTYPE svg PUBLIC "-//W3C//DTD SVG 20010904//EN"
 "http://www.w3.org/TR/2001/REC-SVG-20010904/DTD/svg10.dtd">
<svg version="1.0" xmlns="http://www.w3.org/2000/svg"
 width="942pt" height="1000pt" viewBox="0 0 942 1000"
 preserveAspectRatio="xMidYMid meet">
<metadata>
Created by potrace 1.9, written by Peter Selinger 2001-2010
</metadata>
<g transform="translate(0,1000) scale(0.100000,-0.100000)"
fill="#000000" stroke="none">
<path d="M1110 6084 c-360 -65 -649 -275 -803 -585 -92 -185 -144 -413 -119
-522 7 -28 21 -99 31 -157 98 -547 282 -1038 541 -1448 l34 -54 -302 -604
c-166 -332 -304 -620 -307 -641 -8 -49 19 -100 66 -125 32 -17 115 -18 2014
-18 1899 0 1982 1 2014 18 37 20 71 72 71 109 0 12 -138 298 -306 635 -295
590 -306 614 -292 638 9 14 35 57 58 95 24 39 81 142 126 230 195 377 321 770
393 1220 20 125 19 131 -5 283 -77 488 -428 840 -920 926 -160 28 -319 15
-498 -40 -106 -33 -274 -122 -349 -185 -32 -27 -62 -49 -66 -49 -4 0 -34 54
-66 121 -67 136 -95 164 -160 164 -66 0 -96 -30 -167 -170 l-63 -124 -73 58
c-233 186 -574 276 -852 225z m400 -269 c151 -49 287 -131 380 -230 l24 -26
-494 -989 -494 -988 -20 31 c-37 60 -164 322 -204 422 -125 308 -194 554 -247
880 -28 175 -26 209 19 342 91 266 291 464 557 552 106 35 147 40 274 37 97
-3 136 -9 205 -31z m1960 0 c293 -94 488 -290 586 -585 25 -76 28 -100 28
-220 0 -110 -5 -159 -27 -265 -84 -395 -209 -733 -405 -1094 l-45 -84 -499
998 -499 997 23 25 c86 92 225 178 359 222 106 35 147 40 274 37 97 -3 136 -9
205 -31z m-1181 -269 c-13 -25 -26 -46 -29 -46 -3 0 -15 20 -28 44 l-24 44 28
53 27 54 25 -52 25 -52 -24 -45z m1128 -2265 c-67 -97 -231 -293 -343 -410
-227 -237 -505 -461 -767 -620 l-37 -23 -48 28 c-87 50 -266 176 -387 272
-226 180 -575 549 -722 763 l-31 44 493 985 c456 910 494 983 504 958 25 -66
42 -140 50 -229 5 -53 15 -106 22 -117 43 -69 175 -69 218 0 7 12 17 65 22
119 5 55 21 136 35 182 l26 82 498 -995 498 -995 -31 -44z m-2356 -336 c185
-233 463 -502 707 -684 l102 -76 -677 -3 c-372 -1 -678 0 -680 2 -2 2 96 204
219 449 122 245 223 445 224 444 1 -1 48 -60 105 -132z m2738 -322 l221 -443
-682 0 -683 0 40 27 c241 163 589 491 787 744 51 65 94 117 94 116 1 -1 101
-201 223 -444z"/>
<path d="M7015 6094 c-251 -20 -532 -95 -750 -198 -146 -69 -371 -214 -456
-293 -25 -23 -27 -23 -64 -7 -50 21 -96 12 -134 -27 -39 -38 -48 -84 -27 -134
16 -37 16 -39 -7 -64 -41 -44 -133 -174 -193 -272 -199 -326 -298 -686 -298
-1079 0 -477 143 -896 436 -1279 l79 -103 -16 -41 c-21 -53 -13 -98 26 -136
40 -41 88 -49 139 -23 34 17 41 17 52 5 20 -24 208 -157 300 -212 316 -189
673 -285 1058 -285 385 0 742 96 1058 285 93 56 281 188 301 213 11 13 18 12
58 -6 57 -25 101 -18 142 23 41 41 49 88 23 140 l-20 40 78 102 c291 381 434
801 434 1277 0 474 -143 894 -433 1275 l-76 100 19 38 c24 49 15 96 -25 136
-39 39 -83 47 -138 25 -42 -17 -42 -16 -69 8 -45 42 -174 133 -273 194 -233
142 -488 233 -775 278 -102 16 -357 27 -449 20z m418 -265 c215 -32 478 -126
660 -235 71 -43 236 -163 254 -185 10 -13 -87 -114 -587 -614 l-600 -600 -600
600 c-500 500 -597 601 -587 614 18 22 183 142 254 185 225 135 511 225 793
250 73 6 334 -3 413 -15z m-1050 -1217 l597 -597 -598 -598 -598 -598 -20 23
c-39 43 -140 183 -178 245 -110 184 -201 440 -237 668 -7 44 -13 163 -13 265
0 102 6 221 13 265 50 316 178 613 373 864 27 34 51 61 56 61 4 0 276 -269
605 -598z m2240 501 c152 -203 250 -407 312 -653 39 -155 49 -245 49 -440 0
-102 -6 -221 -13 -265 -36 -228 -127 -484 -237 -668 -38 -62 -139 -202 -178
-245 l-20 -23 -598 598 -598 598 597 597 c329 329 601 598 605 598 4 0 40 -44
81 -97z m-864 -1877 c382 -382 591 -598 586 -606 -10 -17 -179 -140 -252 -184
-184 -110 -440 -201 -668 -237 -103 -16 -427 -16 -530 0 -228 36 -484 127
-668 237 -73 44 -242 167 -252 184 -5 8 204 224 586 606 327 327 596 594 599
594 3 0 272 -267 599 -594z"/>
</g>
</svg>
