<?xml version="1.0" standalone="no"?>
<!DOCTYPE svg PUBLIC "-//W3C//DTD SVG 20010904//EN"
 "http://www.w3.org/TR/2001/REC-SVG-20010904/DTD/svg10.dtd">
<svg version="1.0" xmlns="http://www.w3.org/2000/svg"
 width="746pt" height="1000pt" viewBox="0 0 746 1000"
 preserveAspectRatio="xMidYMid meet">
<metadata>
Created by potrace 1.9, written by Peter Selinger 2001-2010
</metadata>
<g transform="translate(0,1000) scale(0.100000,-0.100000)"
fill="#000000" stroke="none">
<path d="M1231 6082 c-19 -10 -43 -34 -53 -53 -17 -32 -18 -113 -18 -1941 l0
-1908 -438 0 c-404 0 -440 -1 -471 -18 -36 -19 -71 -72 -71 -107 0 -35 35 -88
71 -107 32 -17 84 -18 1034 -18 950 0 1002 1 1034 18 36 19 71 72 71 107 0 35
-35 88 -71 107 -31 17 -67 18 -471 18 l-438 0 0 1908 c0 1828 -1 1909 -18
1941 -19 36 -72 71 -107 71 -11 0 -36 -8 -54 -18z"/>
<path d="M5055 6094 c-251 -20 -532 -95 -750 -198 -146 -69 -371 -214 -456
-293 -25 -23 -27 -23 -64 -7 -50 21 -96 12 -134 -27 -39 -38 -48 -84 -27 -134
16 -37 16 -39 -7 -64 -41 -44 -133 -174 -193 -272 -199 -326 -298 -686 -298
-1079 0 -477 143 -896 436 -1279 l79 -103 -16 -41 c-21 -53 -13 -98 26 -136
40 -41 88 -49 139 -23 34 17 41 17 52 5 20 -24 208 -157 300 -212 316 -189
673 -285 1058 -285 385 0 742 96 1058 285 93 56 281 188 301 213 11 13 18 12
58 -6 57 -25 101 -18 142 23 41 41 49 88 23 140 l-20 40 78 102 c291 381 434
801 434 1277 0 474 -143 894 -433 1275 l-76 100 19 38 c24 49 15 96 -25 136
-39 39 -83 47 -138 25 -42 -17 -42 -16 -69 8 -45 42 -174 133 -273 194 -233
142 -488 233 -775 278 -102 16 -357 27 -449 20z m418 -265 c215 -32 478 -126
660 -235 71 -43 236 -163 254 -185 10 -13 -87 -114 -587 -614 l-600 -600 -600
600 c-500 500 -597 601 -587 614 18 22 183 142 254 185 225 135 511 225 793
250 73 6 334 -3 413 -15z m-1050 -1217 l597 -597 -598 -598 -598 -598 -20 23
c-39 43 -140 183 -178 245 -110 184 -201 440 -237 668 -7 44 -13 163 -13 265
0 102 6 221 13 265 50 316 178 613 373 864 27 34 51 61 56 61 4 0 276 -269
605 -598z m2240 501 c152 -203 250 -407 312 -653 39 -155 49 -245 49 -440 0
-102 -6 -221 -13 -265 -36 -228 -127 -484 -237 -668 -38 -62 -139 -202 -178
-245 l-20 -23 -598 598 -598 598 597 597 c329 329 601 598 605 598 4 0 40 -44
81 -97z m-864 -1877 c382 -382 591 -598 586 -606 -10 -17 -179 -140 -252 -184
-184 -110 -440 -201 -668 -237 -103 -16 -427 -16 -530 0 -228 36 -484 127
-668 237 -73 44 -242 167 -252 184 -5 8 204 224 586 606 327 327 596 594 599
594 3 0 272 -267 599 -594z"/>
</g>
</svg>
