<?xml version="1.0" standalone="no"?>
<!DOCTYPE svg PUBLIC "-//W3C//DTD SVG 20010904//EN"
 "http://www.w3.org/TR/2001/REC-SVG-20010904/DTD/svg10.dtd">
<svg version="1.0" xmlns="http://www.w3.org/2000/svg"
 width="452pt" height="1000pt" viewBox="0 0 452 1000"
 preserveAspectRatio="xMidYMid meet">
<metadata>
Created by potrace 1.9, written by Peter Selinger 2001-2010
</metadata>
<g transform="translate(0,1000) scale(0.100000,-0.100000)"
fill="#000000" stroke="none">
<path d="M1110 5104 c-194 -35 -394 -125 -531 -240 -202 -168 -335 -405 -383
-680 -30 -167 -15 -238 55 -276 31 -17 65 -18 431 -18 l398 0 -445 -890 c-246
-492 -447 -906 -450 -927 -16 -104 101 -175 190 -117 20 13 134 232 467 898
l440 881 439 -877 c478 -955 459 -923 544 -923 22 0 53 9 68 19 23 15 124 209
469 900 l440 881 438 -874 c321 -643 445 -881 466 -898 78 -62 184 -20 201 81
4 27 -61 164 -446 934 -248 496 -451 904 -451 907 0 3 179 5 398 5 444 0 446
0 484 71 23 42 23 66 0 108 -33 62 -66 71 -244 71 l-158 0 83 83 c132 132 222
283 275 463 52 175 65 339 29 384 -52 67 -164 65 -206 -2 -7 -11 -17 -63 -22
-116 -34 -367 -263 -651 -619 -768 -77 -25 -98 -28 -230 -28 -132 0 -153 3
-230 28 -179 59 -319 154 -431 292 -103 126 -171 299 -188 476 -5 53 -15 105
-22 116 -42 67 -154 69 -206 2 -41 -52 -15 -276 54 -467 3 -10 -10 6 -31 36
-235 344 -681 537 -1076 465z m400 -269 c292 -94 493 -294 584 -583 14 -46 26
-90 26 -98 0 -12 -113 -14 -840 -14 -727 0 -840 2 -840 14 0 8 12 52 26 98 89
281 290 486 565 577 106 35 147 40 274 37 97 -3 136 -9 205 -31z m886 -536
c35 -42 85 -95 111 -118 l48 -40 -91 -1 -92 0 -11 65 c-6 35 -21 94 -32 131
-11 36 -23 74 -25 83 -3 9 2 3 12 -14 9 -16 45 -64 80 -106z m258 -1181 c-212
-425 -388 -775 -390 -777 -3 -3 -774 1534 -774 1544 0 3 349 5 775 5 l775 0
-386 -772z"/>
</g>
</svg>
