<?xml version="1.0" standalone="no"?>
<!DOCTYPE svg PUBLIC "-//W3C//DTD SVG 20010904//EN"
 "http://www.w3.org/TR/2001/REC-SVG-20010904/DTD/svg10.dtd">
<svg version="1.0" xmlns="http://www.w3.org/2000/svg"
 width="1334pt" height="1000pt" viewBox="0 0 1334 1000"
 preserveAspectRatio="xMidYMid meet">
<metadata>
Created by potrace 1.9, written by Peter Selinger 2001-2010
</metadata>
<g transform="translate(0,1000) scale(0.100000,-0.100000)"
fill="#000000" stroke="none">
<path d="M6109 6083 c-44 -27 -51 -51 -65 -214 -15 -182 -18 -201 -50 -329
-41 -165 -119 -358 -200 -493 -146 -242 -399 -495 -641 -641 -221 -132 -579
-246 -777 -246 -48 0 -48 0 -61 75 -13 79 -58 202 -107 297 -160 308 -444 509
-804 572 -359 63 -765 -91 -1008 -383 -112 -134 -206 -339 -237 -515 l-11 -66
-932 0 c-883 0 -933 -1 -965 -18 -35 -19 -71 -72 -71 -105 0 -31 30 -85 58
-104 26 -17 122 -18 2112 -24 1837 -5 2095 -7 2165 -21 412 -81 716 -239 995
-518 246 -246 402 -521 484 -850 32 -128 35 -147 50 -329 8 -88 19 -166 26
-178 45 -72 172 -69 212 5 18 34 14 225 -7 362 -97 629 -442 1150 -975 1476
-105 63 -272 145 -337 165 -24 6 -43 15 -43 19 0 4 19 13 43 19 23 7 87 34
142 60 436 207 786 555 991 986 118 250 192 555 197 816 2 127 -6 154 -53 182
-35 21 -97 21 -131 0z m-2639 -1248 c292 -94 493 -294 584 -583 14 -46 26 -90
26 -98 0 -12 -113 -14 -840 -14 -727 0 -840 2 -840 14 0 8 12 52 26 98 89 281
290 486 565 577 106 35 147 40 274 37 97 -3 136 -9 205 -31z"/>
<path d="M9071 6082 c-35 -19 -71 -72 -71 -105 0 -56 42 -103 475 -537 l445
-445 -890 -890 -890 -890 -457 457 c-397 395 -463 458 -495 463 -64 12 -127
-31 -144 -99 -16 -65 5 -90 471 -556 l445 -445 -449 -450 c-468 -470 -483
-487 -466 -552 16 -67 79 -110 143 -98 32 5 98 68 494 463 l458 457 452 -452
c473 -470 490 -485 555 -468 67 16 110 79 98 143 -5 32 -68 99 -466 497 l-459
460 890 890 890 890 890 -890 890 -890 -449 -450 c-468 -470 -483 -487 -466
-552 16 -67 79 -110 143 -98 32 5 98 68 494 463 l458 457 452 -452 c473 -470
490 -485 555 -468 67 16 110 79 98 143 -5 32 -68 99 -466 497 l-459 460 455
455 c315 315 458 465 466 488 6 17 8 46 4 62 -8 39 -56 87 -95 95 -70 15 -82
6 -558 -469 l-452 -451 -890 890 -890 890 459 460 c398 398 461 465 466 497
12 64 -31 127 -98 143 -65 17 -82 2 -555 -469 l-452 -451 -453 452 c-248 249
-465 457 -480 463 -39 14 -57 13 -96 -8z"/>
</g>
</svg>
