<?xml version="1.0" standalone="no"?>
<!DOCTYPE svg PUBLIC "-//W3C//DTD SVG 20010904//EN"
 "http://www.w3.org/TR/2001/REC-SVG-20010904/DTD/svg10.dtd">
<svg version="1.0" xmlns="http://www.w3.org/2000/svg"
 width="452pt" height="1000pt" viewBox="0 0 452 1000"
 preserveAspectRatio="xMidYMid meet">
<metadata>
Created by potrace 1.9, written by Peter Selinger 2001-2010
</metadata>
<g transform="translate(0,1000) scale(0.100000,-0.100000)"
fill="#000000" stroke="none">
<path d="M2215 2189 c-16 -4 -458 -7 -980 -8 -900 -1 -952 -2 -984 -19 -36
-19 -71 -72 -71 -107 0 -35 35 -88 71 -107 32 -17 73 -18 674 -18 l640 0 -42
-36 c-73 -61 -170 -187 -226 -295 -117 -222 -160 -461 -122 -678 50 -285 189
-528 395 -694 99 -79 274 -169 397 -203 88 -24 100 -25 315 -22 220 4 224 4
318 36 400 135 670 455 745 883 56 318 -65 687 -306 931 l-77 78 641 0 c603 0
644 1 676 18 36 19 71 72 71 107 0 35 -35 88 -71 107 -32 17 -83 18 -1004 18
-534 0 -984 4 -1000 8 -17 5 -43 5 -60 1z m-319 -421 c-146 -288 -197 -624
-141 -937 31 -176 85 -335 159 -464 24 -42 42 -77 39 -77 -22 0 -174 92 -229
139 -137 115 -223 246 -280 426 -26 82 -29 103 -28 230 0 126 3 149 28 225 61
182 152 317 292 431 51 42 175 117 211 129 0 0 -22 -46 -51 -102z m491 -105
c50 -96 97 -226 120 -335 21 -100 24 -368 4 -468 -32 -164 -119 -371 -207
-491 l-49 -67 -42 58 c-93 125 -173 311 -210 482 -24 115 -24 370 1 488 34
163 119 359 209 481 l42 57 46 -63 c25 -35 64 -99 86 -142z m263 167 c146 -77
291 -223 363 -365 19 -39 48 -111 63 -160 26 -80 29 -104 29 -225 0 -121 -3
-145 -29 -225 -57 -180 -143 -311 -280 -426 -62 -53 -208 -139 -235 -139 -5 0
5 26 24 58 108 180 177 426 191 677 14 240 -53 539 -166 753 -28 50 -47 92
-44 92 3 0 41 -18 84 -40z"/>
</g>
</svg>
