<?xml version="1.0" standalone="no"?>
<!DOCTYPE svg PUBLIC "-//W3C//DTD SVG 20010904//EN"
 "http://www.w3.org/TR/2001/REC-SVG-20010904/DTD/svg10.dtd">
<svg version="1.0" xmlns="http://www.w3.org/2000/svg"
 width="942pt" height="1000pt" viewBox="0 0 942 1000"
 preserveAspectRatio="xMidYMid meet">
<metadata>
Created by potrace 1.9, written by Peter Selinger 2001-2010
</metadata>
<g transform="translate(0,1000) scale(0.100000,-0.100000)"
fill="#000000" stroke="none">
<path d="M5151 6082 c-35 -19 -71 -72 -71 -105 0 -58 45 -106 965 -1027 l935
-935 -825 -825 -825 -825 0 835 c0 790 -1 837 -18 869 -19 36 -72 71 -107 71
-35 0 -88 -35 -107 -71 -17 -32 -18 -84 -18 -1034 0 -953 1 -1002 18 -1035 25
-46 81 -74 130 -65 33 6 144 113 985 953 l947 947 938 -937 c923 -923 971
-968 1029 -968 33 0 86 36 105 71 17 32 18 84 18 1034 0 950 -1 1002 -18 1034
-19 36 -72 71 -107 71 -35 0 -88 -35 -107 -71 -17 -32 -18 -79 -18 -874 l0
-840 -830 830 -830 830 949 950 c1039 1040 984 978 946 1058 -29 61 -88 87
-152 67 -31 -10 -220 -194 -981 -954 l-942 -941 -943 942 c-531 531 -954 947
-970 953 -39 14 -57 13 -96 -8z"/>
<path d="M2200 5103 c-14 -9 -30 -24 -37 -33 -36 -45 -23 -208 29 -385 54
-185 183 -390 315 -504 l48 -40 -1135 -1 c-1080 0 -1137 -1 -1169 -18 -36 -19
-71 -72 -71 -107 0 -35 35 -88 71 -107 31 -17 65 -18 431 -18 l398 0 -445
-890 c-246 -492 -447 -906 -450 -927 -16 -104 101 -175 190 -117 20 13 134
232 467 898 l440 881 439 -877 c478 -955 459 -923 544 -923 22 0 53 9 68 19
23 15 124 209 469 900 l440 881 438 -874 c321 -643 445 -881 466 -898 78 -62
184 -20 201 81 4 27 -61 164 -446 934 -248 496 -451 904 -451 907 0 3 179 5
398 5 444 0 446 0 484 71 23 42 23 66 0 108 -33 62 -66 71 -244 71 l-158 0 83
83 c132 132 222 283 275 463 52 175 65 339 29 384 -52 67 -164 65 -206 -2 -7
-11 -17 -63 -22 -116 -34 -367 -263 -651 -619 -768 -77 -25 -98 -28 -230 -28
-132 0 -153 3 -230 28 -179 59 -319 154 -431 292 -103 126 -171 299 -188 476
-5 53 -15 105 -22 116 -31 50 -121 68 -169 35z m454 -1985 c-212 -425 -388
-775 -390 -777 -3 -3 -774 1534 -774 1544 0 3 349 5 775 5 l775 0 -386 -772z"/>
</g>
</svg>
