<?xml version="1.0" standalone="no"?>
<!DOCTYPE svg PUBLIC "-//W3C//DTD SVG 20010904//EN"
 "http://www.w3.org/TR/2001/REC-SVG-20010904/DTD/svg10.dtd">
<svg version="1.0" xmlns="http://www.w3.org/2000/svg"
 width="403pt" height="1000pt" viewBox="0 0 403 1000"
 preserveAspectRatio="xMidYMid meet">
<metadata>
Created by potrace 1.9, written by Peter Selinger 2001-2010
</metadata>
<g transform="translate(0,1000) scale(0.100000,-0.100000)"
fill="#000000" stroke="none">
<path d="M1710 4140 c-809 -4 -978 -7 -995 -19 -36 -25 -138 -147 -198 -237
-134 -202 -223 -448 -244 -670 -5 -53 -9 -63 -33 -77 -28 -17 -60 -71 -60
-102 0 -31 32 -85 59 -101 25 -15 29 -25 40 -106 42 -296 172 -573 374 -797
100 -112 -21 -101 1122 -101 945 0 1002 1 1034 18 18 10 43 34 55 53 11 20 44
64 71 98 72 89 168 250 210 350 84 200 118 372 119 596 0 390 -124 714 -393
1020 -61 70 -87 85 -141 83 -25 -2 -484 -5 -1020 -8z m1051 -338 c111 -139
195 -323 236 -514 24 -115 24 -370 -1 -488 -44 -209 -150 -425 -278 -565 l-50
-55 -903 0 -903 0 -50 55 c-96 105 -176 242 -230 397 -30 85 -62 217 -62 258
l0 20 1128 0 c1073 0 1129 1 1161 18 36 19 71 72 71 107 0 35 -35 88 -71 107
-32 17 -88 18 -1161 18 l-1128 0 0 30 c0 54 31 182 67 280 57 155 138 293 226
388 l31 32 925 -2 926 -3 66 -83z"/>
</g>
</svg>
