<?xml version="1.0" standalone="no"?>
<!DOCTYPE svg PUBLIC "-//W3C//DTD SVG 20010904//EN"
 "http://www.w3.org/TR/2001/REC-SVG-20010904/DTD/svg10.dtd">
<svg version="1.0" xmlns="http://www.w3.org/2000/svg"
 width="1334pt" height="1000pt" viewBox="0 0 1334 1000"
 preserveAspectRatio="xMidYMid meet">
<metadata>
Created by potrace 1.9, written by Peter Selinger 2001-2010
</metadata>
<g transform="translate(0,1000) scale(0.100000,-0.100000)"
fill="#000000" stroke="none">
<path d="M2212 8044 c-18 -9 -41 -29 -51 -43 -40 -56 -501 -992 -506 -1028
-11 -74 61 -150 132 -139 68 10 76 22 280 430 l195 391 193 -385 c200 -398
216 -423 282 -436 39 -7 95 18 118 53 41 62 45 53 -233 609 -194 389 -267 525
-287 538 -39 25 -85 29 -123 10z"/>
<path d="M10045 8041 c-27 -13 -201 -180 -531 -512 -513 -516 -526 -530 -509
-596 16 -67 79 -110 143 -98 32 5 92 61 435 403 l397 397 0 -768 0 -767 -925
0 c-789 0 -931 -2 -961 -15 -52 -21 -256 -198 -365 -316 -546 -592 -784 -1407
-644 -2199 105 -588 405 -1114 858 -1502 71 -61 141 -116 155 -124 23 -12 331
-14 2005 -14 1822 0 1982 1 2014 17 19 9 37 22 40 29 2 6 51 51 108 99 354
296 650 753 783 1210 142 486 142 984 0 1470 -106 362 -315 729 -577 1014 -96
103 -306 289 -358 316 -24 13 -167 15 -955 15 l-928 0 0 762 0 763 388 -387
c403 -402 425 -420 489 -403 67 16 110 79 98 143 -5 32 -74 104 -513 546 -290
290 -521 514 -539 522 -42 18 -60 17 -108 -5z m-65 -3119 c0 -879 1 -929 18
-961 19 -36 72 -71 107 -71 35 0 88 35 107 71 17 32 18 82 18 961 l0 928 890
0 889 0 98 -84 c331 -283 584 -677 708 -1099 122 -419 122 -875 0 -1294 -124
-425 -378 -818 -714 -1104 l-104 -89 -1897 0 -1897 0 -104 89 c-336 286 -590
679 -714 1104 -122 419 -122 875 0 1294 124 422 377 816 708 1099 l98 84 894
0 895 0 0 -928z"/>
<path d="M251 6082 c-36 -19 -71 -72 -71 -107 0 -35 35 -88 71 -107 32 -17
112 -18 1901 -18 l1868 0 -427 -855 -428 -855 -460 0 c-515 0 -508 1 -547 -71
-23 -42 -23 -66 0 -108 38 -71 40 -71 484 -71 l398 0 -445 -890 c-246 -492
-447 -906 -450 -927 -8 -49 19 -100 66 -125 32 -17 84 -18 1034 -18 950 0
1002 1 1034 18 36 19 71 72 71 107 0 35 -35 88 -71 107 -32 17 -81 18 -921 18
-489 0 -888 2 -888 5 0 3 191 388 425 855 l425 850 1277 0 1278 0 -387 -387
c-405 -408 -418 -423 -403 -493 8 -39 56 -87 95 -95 16 -4 45 -2 63 4 22 8
186 165 544 523 544 546 538 538 514 611 -8 22 -165 186 -523 544 -445 444
-518 513 -550 518 -64 12 -127 -31 -143 -98 -17 -64 1 -86 403 -489 l387 -388
-1213 0 c-666 0 -1212 2 -1212 5 0 3 203 410 450 905 248 495 450 911 450 923
0 37 -34 89 -71 109 -32 17 -115 18 -2014 18 -1899 0 -1982 -1 -2014 -18z"/>
</g>
</svg>
