<?xml version="1.0" standalone="no"?>
<!DOCTYPE svg PUBLIC "-//W3C//DTD SVG 20010904//EN"
 "http://www.w3.org/TR/2001/REC-SVG-20010904/DTD/svg10.dtd">
<svg version="1.0" xmlns="http://www.w3.org/2000/svg"
 width="452pt" height="1000pt" viewBox="0 0 452 1000"
 preserveAspectRatio="xMidYMid meet">
<metadata>
Created by potrace 1.9, written by Peter Selinger 2001-2010
</metadata>
<g transform="translate(0,1000) scale(0.100000,-0.100000)"
fill="#000000" stroke="none">
<path d="M1232 6090 c-39 -16 -274 -224 -368 -326 -258 -282 -467 -650 -572
-1009 -142 -486 -142 -984 0 -1470 105 -359 314 -727 572 -1009 106 -114 333
-313 377 -328 58 -20 91 -3 231 116 230 197 400 400 558 671 77 131 200 403
215 473 4 17 10 32 15 32 5 0 11 -15 15 -32 15 -70 138 -342 215 -473 158
-271 328 -474 558 -671 140 -119 173 -136 231 -116 17 6 88 60 158 120 530
454 846 1090 894 1800 32 485 -93 1014 -341 1438 -158 270 -328 474 -558 670
-140 119 -173 136 -231 116 -44 -15 -271 -214 -377 -328 -191 -209 -368 -485
-478 -748 -35 -83 -67 -166 -71 -183 -4 -18 -10 -33 -15 -33 -5 0 -11 15 -15
33 -15 69 -138 341 -215 472 -157 268 -327 473 -552 666 -152 130 -181 144
-246 119z m125 -349 c233 -202 452 -507 582 -810 107 -251 163 -484 182 -758
37 -551 -121 -1085 -453 -1533 -82 -111 -305 -348 -360 -385 -27 -17 -29 -17
-55 0 -16 10 -84 75 -152 144 -210 213 -366 444 -480 710 -107 251 -163 484
-182 759 -42 633 174 1246 605 1716 91 98 219 216 236 216 5 0 39 -27 77 -59z
m1960 0 c233 -202 452 -507 582 -810 107 -251 163 -484 182 -758 37 -551 -121
-1085 -453 -1533 -82 -111 -305 -348 -360 -385 -27 -17 -29 -17 -55 0 -16 10
-84 75 -152 144 -210 213 -366 444 -480 710 -107 251 -163 484 -182 759 -42
633 174 1246 605 1716 91 98 219 216 236 216 5 0 39 -27 77 -59z"/>
</g>
</svg>
