<?xml version="1.0" standalone="no"?>
<!DOCTYPE svg PUBLIC "-//W3C//DTD SVG 20010904//EN"
 "http://www.w3.org/TR/2001/REC-SVG-20010904/DTD/svg10.dtd">
<svg version="1.0" xmlns="http://www.w3.org/2000/svg"
 width="202pt" height="1000pt" viewBox="0 0 202 1000"
 preserveAspectRatio="xMidYMid meet">
<g transform="translate(0,1000) scale(0.100000,-0.100000)"
fill="#000000" stroke="none">
<path d="M961 4024 c-411 -47 -685 -275 -781 -650 -123 -487 41 -1026 373 -1223 204 -121 536 -153 773 -75 237 79 419 276 499 542 l19 60 -125 31 c-69 18 -127 30 -128 29 -1 -2 -12 -34 -25 -73 -68 -211 -201 -341 -400 -391 -98 -25 -262 -15 -360 21 -264 98 -394 316 -407 686 -10 264 44 479 151 608 118 141 274 211 472 211 177 0 282 -40 382 -144 56 -58 132 -186 132 -223 0 -24 24 -24 144 2 l124 28 -18 51 c-62 180 -180 327 -333 415 -125 71 -336 112 -492 95z"/>
</g>
</svg>

