<?xml version="1.0" standalone="no"?>
<!DOCTYPE svg PUBLIC "-//W3C//DTD SVG 20010904//EN"
 "http://www.w3.org/TR/2001/REC-SVG-20010904/DTD/svg10.dtd">
<svg version="1.0" xmlns="http://www.w3.org/2000/svg"
 width="746pt" height="1000pt" viewBox="0 0 746 1000"
 preserveAspectRatio="xMidYMid meet">
<metadata>
Created by potrace 1.9, written by Peter Selinger 2001-2010
</metadata>
<g transform="translate(0,1000) scale(0.100000,-0.100000)"
fill="#000000" stroke="none">
<path d="M2115 6094 c-684 -55 -1279 -418 -1631 -994 -199 -327 -298 -686
-298 -1080 0 -204 15 -323 64 -520 204 -811 885 -1420 1715 -1534 277 -38 312
-38 590 0 615 85 1155 440 1481 975 199 326 298 686 298 1079 0 204 -15 323
-64 520 -165 656 -654 1197 -1290 1430 -108 39 -286 84 -416 104 -102 16 -357
27 -449 20z m25 -2074 l0 -1820 -41 0 c-193 0 -553 115 -772 246 -240 145
-495 400 -640 641 -111 184 -202 440 -238 668 -16 103 -16 427 0 530 36 228
127 484 237 668 146 242 399 495 641 641 218 130 561 241 761 245 l52 1 0
-1820z m393 1809 c215 -32 478 -126 660 -235 240 -145 495 -400 640 -641 111
-184 202 -440 238 -668 7 -44 13 -163 13 -265 0 -195 -10 -285 -49 -440 -84
-332 -244 -610 -494 -859 -197 -196 -401 -325 -661 -421 -145 -53 -359 -100
-454 -100 l-36 0 0 1820 0 1820 36 0 c19 0 68 -5 107 -11z"/>
<path d="M5151 6082 c-35 -19 -71 -72 -71 -105 0 -56 42 -103 475 -537 l445
-445 -441 -440 c-500 -499 -507 -508 -461 -594 33 -61 66 -71 237 -71 l150 0
-42 -36 c-73 -61 -170 -187 -226 -295 -117 -222 -160 -461 -122 -678 49 -279
185 -523 384 -685 188 -154 467 -256 701 -256 239 0 523 106 712 265 280 236
434 647 373 994 -43 247 -144 449 -306 613 l-77 78 151 0 c174 0 207 10 240
74 41 79 53 64 -454 571 l-459 460 455 455 c315 315 458 465 466 488 6 17 8
46 4 62 -8 39 -56 87 -95 95 -70 15 -82 6 -558 -469 l-452 -451 -453 452
c-248 249 -465 457 -480 463 -39 14 -57 13 -96 -8z m1369 -1607 l335 -335
-675 0 -675 0 335 335 c184 184 337 335 340 335 3 0 156 -151 340 -335z m-110
-620 c176 -56 318 -152 431 -291 68 -83 117 -178 155 -299 26 -80 29 -104 29
-225 0 -121 -3 -145 -29 -225 -93 -295 -290 -493 -586 -591 -77 -25 -98 -28
-230 -28 -132 0 -153 3 -230 28 -179 59 -319 154 -431 292 -68 82 -117 177
-155 299 -26 82 -29 103 -28 230 0 126 3 149 28 225 95 288 291 488 567 579
106 35 147 40 274 37 97 -3 137 -9 205 -31z"/>
<path d="M6143 3163 c-33 -6 -79 -57 -86 -92 -26 -127 122 -210 212 -120 43
42 49 93 18 156 -20 42 -87 68 -144 56z"/>
</g>
</svg>
