<?xml version="1.0" standalone="no"?>
<!DOCTYPE svg PUBLIC "-//W3C//DTD SVG 20010904//EN"
 "http://www.w3.org/TR/2001/REC-SVG-20010904/DTD/svg10.dtd">
<svg version="1.0" xmlns="http://www.w3.org/2000/svg"
 width="746pt" height="1000pt" viewBox="0 0 746 1000"
 preserveAspectRatio="xMidYMid meet">
<metadata>
Created by potrace 1.9, written by Peter Selinger 2001-2010
</metadata>
<g transform="translate(0,1000) scale(0.100000,-0.100000)"
fill="#000000" stroke="none">
<path d="M6125 6081 c-27 -13 -320 -299 -929 -909 l-890 -891 -26 83 c-125
389 -453 666 -876 740 -359 63 -766 -92 -1007 -382 -35 -42 -79 -105 -98 -139
-19 -35 -36 -63 -39 -63 -3 1 -24 33 -47 73 -151 263 -437 453 -769 511 -223
39 -459 -2 -683 -121 -301 -158 -503 -444 -565 -799 -30 -167 -15 -238 55
-276 31 -17 65 -18 431 -18 l398 0 -445 -890 c-246 -492 -447 -906 -450 -927
-16 -104 101 -175 190 -117 20 13 134 232 467 898 l440 881 439 -877 c478
-955 459 -923 544 -923 22 0 53 9 68 19 23 15 124 209 469 900 l440 881 438
-874 c321 -643 445 -881 466 -898 78 -62 184 -20 201 81 4 27 -61 164 -446
934 -248 496 -451 904 -451 907 0 3 177 5 394 5 250 0 405 4 423 10 16 6 439
422 970 953 l943 942 452 -451 c473 -471 490 -486 555 -469 67 16 110 79 98
143 -5 32 -74 104 -513 546 -290 290 -521 514 -539 522 -42 18 -60 17 -108 -5z
m-4615 -1246 c292 -94 493 -294 584 -583 14 -46 26 -90 26 -98 0 -12 -113 -14
-840 -14 -727 0 -840 2 -840 14 0 8 12 52 26 98 89 281 290 486 565 577 106
35 147 40 274 37 97 -3 136 -9 205 -31z m1960 0 c292 -94 493 -294 584 -583
14 -46 26 -90 26 -98 0 -12 -113 -14 -840 -14 -727 0 -840 2 -840 14 0 8 12
52 26 98 89 281 290 486 565 577 106 35 147 40 274 37 97 -3 136 -9 205 -31z
m-816 -1717 c-212 -425 -388 -775 -390 -777 -3 -3 -774 1534 -774 1544 0 3
349 5 775 5 l775 0 -386 -772z"/>
</g>
</svg>
