<?xml version="1.0" standalone="no"?>
<!DOCTYPE svg PUBLIC "-//W3C//DTD SVG 20010904//EN"
 "http://www.w3.org/TR/2001/REC-SVG-20010904/DTD/svg10.dtd">
<svg version="1.0" xmlns="http://www.w3.org/2000/svg"
 width="452pt" height="1000pt" viewBox="0 0 452 1000"
 preserveAspectRatio="xMidYMid meet">
<metadata>
Created by potrace 1.9, written by Peter Selinger 2001-2010
</metadata>
<g transform="translate(0,1000) scale(0.100000,-0.100000)"
fill="#000000" stroke="none">
<path d="M251 6082 c-19 -10 -43 -34 -53 -53 -17 -32 -18 -115 -18 -2014 0
-1899 1 -1982 18 -2014 10 -19 34 -43 53 -53 32 -17 115 -18 2014 -18 1899 0
1982 1 2014 18 19 10 43 34 53 53 17 32 18 115 18 2014 0 1899 -1 1982 -18
2014 -10 19 -34 43 -53 53 -32 17 -115 18 -2014 18 -1899 0 -1982 -1 -2014
-18z m1009 -236 c0 -2 -33 -23 -72 -46 -280 -164 -544 -428 -708 -707 -23 -40
-44 -73 -46 -73 -2 0 -4 187 -4 415 l0 415 415 0 c228 0 415 -2 415 -4z m1273
-17 c215 -32 478 -126 660 -235 240 -145 495 -400 640 -641 111 -184 202 -440
238 -668 7 -44 13 -163 13 -265 0 -195 -10 -285 -49 -440 -84 -332 -244 -610
-494 -859 -240 -238 -514 -393 -841 -476 -155 -39 -245 -49 -440 -49 -195 0
-285 10 -440 49 -327 83 -601 238 -841 476 -207 206 -342 416 -439 679 -76
209 -104 374 -104 620 0 195 10 285 49 440 84 331 239 604 485 850 318 317
699 495 1150 534 73 6 334 -3 413 -15z m1567 -406 c0 -234 -2 -424 -4 -422 -2
2 -29 46 -60 98 -173 286 -426 537 -703 701 -40 23 -73 44 -73 46 0 2 189 4
420 4 l420 0 0 -427z m-3 -3240 c-2 -2 -196 -2 -431 -1 l-426 3 82 49 c294
174 551 431 724 724 l49 82 3 -426 c1 -235 1 -429 -1 -431z m-3617 765 c162
-276 416 -531 700 -703 52 -32 97 -59 99 -61 2 -2 -188 -4 -422 -4 l-427 0 0
420 c0 231 2 420 4 420 2 0 23 -33 46 -72z"/>
<path d="M2090 5104 c-194 -35 -394 -125 -531 -240 -290 -242 -446 -650 -384
-1003 49 -279 185 -523 384 -685 145 -119 339 -206 536 -240 114 -20 216 -20
330 0 489 85 833 432 920 925 61 347 -93 758 -373 994 -241 203 -592 302 -882
249z m400 -269 c176 -56 318 -152 431 -291 68 -83 117 -178 155 -299 26 -80
29 -104 29 -225 0 -121 -3 -145 -29 -225 -93 -295 -290 -493 -586 -591 -77
-25 -98 -28 -230 -28 -132 0 -153 3 -230 28 -179 59 -319 154 -431 292 -68 82
-117 177 -155 299 -26 82 -29 103 -28 230 0 126 3 149 28 225 95 288 291 488
567 579 106 35 147 40 274 37 97 -3 137 -9 205 -31z"/>
<path d="M2223 4143 c-33 -6 -79 -57 -86 -92 -26 -127 122 -210 212 -120 43
42 49 93 18 156 -20 42 -87 68 -144 56z"/>
</g>
</svg>
