<?xml version="1.0" standalone="no"?>
<!DOCTYPE svg PUBLIC "-//W3C//DTD SVG 20010904//EN"
 "http://www.w3.org/TR/2001/REC-SVG-20010904/DTD/svg10.dtd">
<svg version="1.0" xmlns="http://www.w3.org/2000/svg"
 width="1628pt" height="1000pt" viewBox="0 0 1628 1000"
 preserveAspectRatio="xMidYMid meet">
<metadata>
Created by potrace 1.9, written by Peter Selinger 2001-2010
</metadata>
<g transform="translate(0,1000) scale(0.100000,-0.100000)"
fill="#000000" stroke="none">
<path d="M3191 7062 c-19 -10 -43 -34 -53 -53 -17 -32 -18 -79 -18 -874 l0
-840 -397 397 c-436 435 -430 430 -506 393 -61 -29 -87 -88 -67 -152 17 -53
973 -1015 1039 -1045 88 -40 61 -62 629 505 358 358 515 522 523 544 6 18 8
47 4 63 -8 39 -56 87 -95 95 -70 15 -85 2 -492 -403 l-388 -387 0 835 c0 790
-1 837 -18 869 -19 36 -72 71 -107 71 -11 0 -36 -8 -54 -18z"/>
<path d="M9049 6083 c-44 -27 -51 -51 -65 -214 -15 -182 -18 -201 -50 -329
-82 -329 -238 -604 -484 -850 -246 -246 -521 -402 -850 -484 -128 -32 -147
-35 -329 -50 -88 -8 -166 -19 -178 -26 -73 -46 -70 -172 5 -212 34 -18 225
-14 362 7 629 97 1154 444 1475 975 32 52 59 97 61 99 2 2 4 -631 4 -1407 l0
-1412 -928 0 c-879 0 -929 -1 -961 -18 -36 -19 -71 -72 -71 -107 0 -35 35 -88
71 -107 32 -17 115 -18 2014 -18 1899 0 1982 1 2014 18 36 19 71 72 71 107 0
35 -35 88 -71 107 -32 17 -82 18 -961 18 l-928 0 0 1400 c0 770 2 1400 4 1400
2 0 23 -33 46 -72 118 -202 334 -444 515 -578 298 -221 602 -349 965 -405 137
-21 328 -25 362 -7 74 40 77 167 5 212 -12 7 -90 18 -178 26 -182 15 -201 18
-329 50 -165 41 -358 119 -493 200 -240 145 -495 400 -640 641 -82 135 -160
327 -201 493 -32 128 -35 147 -50 329 -8 88 -19 166 -26 178 -32 51 -127 70
-181 36z"/>
<path d="M12011 6082 c-19 -10 -43 -34 -53 -53 -17 -32 -18 -115 -18 -2014 0
-1899 1 -1982 18 -2014 19 -35 72 -71 105 -71 31 0 85 30 104 58 17 25 18 66
23 532 l5 505 44 -75 c120 -204 334 -445 516 -580 385 -286 797 -424 1265
-424 204 0 323 15 520 64 528 133 988 477 1266 948 l49 82 5 -512 c5 -474 6
-515 23 -540 19 -28 73 -58 104 -58 33 0 86 36 105 71 17 32 18 115 18 2014 0
1899 -1 1982 -18 2014 -19 35 -72 71 -105 71 -31 0 -85 -30 -104 -58 -17 -25
-18 -66 -23 -535 l-5 -507 -49 82 c-278 471 -738 815 -1266 948 -197 49 -316
64 -520 64 -204 0 -323 -15 -520 -64 -526 -133 -990 -478 -1261 -940 l-44 -75
-5 500 c-6 556 -3 535 -75 569 -43 21 -63 20 -104 -2z m1889 -1165 c0 -874 1
-924 18 -956 10 -19 34 -43 53 -53 32 -17 82 -18 951 -18 l918 0 0 -36 c0
-143 -76 -420 -170 -622 -142 -302 -420 -607 -717 -786 -184 -110 -440 -201
-668 -237 -103 -16 -427 -16 -530 0 -228 36 -484 127 -668 237 -240 145 -495
400 -640 641 -111 184 -202 440 -238 668 -16 103 -16 427 0 530 36 228 127
484 237 668 146 242 399 495 641 641 218 130 561 241 761 245 l52 1 0 -923z
m393 912 c215 -32 478 -126 660 -235 297 -179 575 -484 717 -786 96 -205 170
-479 170 -627 l0 -41 -845 0 -845 0 0 850 0 850 36 0 c19 0 68 -5 107 -11z"/>
<path d="M1231 5102 c-35 -19 -71 -72 -71 -105 0 -55 41 -103 413 -474 l382
-383 -835 0 c-790 0 -837 -1 -869 -18 -36 -19 -71 -72 -71 -107 0 -35 35 -88
71 -107 32 -17 79 -18 869 -18 l835 0 -387 -387 c-402 -404 -420 -426 -403
-490 16 -67 79 -110 143 -98 32 5 105 74 550 518 358 358 515 522 523 544 24
73 30 65 -509 607 -290 290 -521 514 -539 522 -43 18 -61 18 -102 -4z"/>
<path d="M5145 5101 c-26 -12 -209 -188 -532 -512 -545 -548 -533 -533 -500
-621 24 -62 994 -1030 1050 -1048 64 -20 123 6 152 67 37 76 42 70 -393 506
l-397 397 840 0 c795 0 842 1 874 18 36 19 71 72 71 107 0 35 -35 88 -71 107
-32 17 -79 18 -874 18 l-840 0 397 398 c435 435 430 429 393 505 -32 67 -102
91 -170 58z"/>
<path d="M3185 3141 c-27 -13 -201 -180 -531 -512 -513 -516 -526 -530 -509
-596 16 -67 79 -110 143 -98 32 5 92 61 435 403 l397 397 0 -840 c0 -795 1
-842 18 -874 19 -36 72 -71 107 -71 35 0 88 35 107 71 17 32 18 79 18 869 l0
835 388 -387 c403 -402 425 -420 489 -403 67 16 110 79 98 143 -5 32 -74 104
-513 546 -290 290 -521 514 -539 522 -42 18 -60 17 -108 -5z"/>
</g>
</svg>
