<?xml version="1.0" standalone="no"?>
<!DOCTYPE svg PUBLIC "-//W3C//DTD SVG 20010904//EN"
 "http://www.w3.org/TR/2001/REC-SVG-20010904/DTD/svg10.dtd">
<svg version="1.0" xmlns="http://www.w3.org/2000/svg"
 width="1138pt" height="1000pt" viewBox="0 0 1138 1000"
 preserveAspectRatio="xMidYMid meet">
<metadata>
Created by potrace 1.9, written by Peter Selinger 2001-2010
</metadata>
<g transform="translate(0,1000) scale(0.100000,-0.100000)"
fill="#000000" stroke="none">
<path d="M2221 6112 c-84 -13 -128 -114 -82 -187 10 -16 46 -61 81 -100 409
-461 412 -1171 5 -1635 -32 -36 -68 -81 -81 -100 -13 -19 -49 -64 -79 -100
-150 -180 -263 -431 -311 -693 -24 -126 -24 -380 -1 -504 43 -227 99 -370 229
-580 l20 -33 -786 0 -786 0 0 1908 c0 1828 -1 1909 -18 1941 -19 36 -72 71
-107 71 -35 0 -88 -35 -107 -71 -17 -32 -18 -115 -18 -2014 0 -1899 1 -1982
18 -2014 10 -19 34 -43 53 -53 32 -17 115 -18 2014 -18 1899 0 1982 1 2014 18
19 10 43 34 53 53 17 32 18 115 18 2014 0 1899 -1 1982 -18 2014 -19 36 -72
71 -107 71 -35 0 -88 -35 -107 -71 -17 -32 -18 -113 -18 -1941 l0 -1908 -884
0 -884 0 -50 55 c-131 143 -233 351 -279 567 -24 115 -24 370 1 488 44 210
150 425 279 566 28 31 67 77 86 104 20 27 63 84 96 127 441 575 412 1377 -69
1922 -36 41 -73 79 -81 84 -27 15 -68 23 -94 19z"/>
<path d="M10051 5102 c-35 -19 -71 -72 -71 -105 0 -55 41 -103 413 -474 l382
-383 -849 0 c-920 0 -881 2 -916 -53 -7 -12 -18 -90 -26 -178 -15 -182 -18
-201 -50 -329 -41 -166 -119 -358 -201 -493 -145 -241 -400 -496 -640 -641
-184 -110 -440 -201 -668 -237 -103 -16 -427 -16 -530 0 -228 36 -484 127
-668 237 -240 145 -495 400 -640 641 -82 135 -160 327 -201 493 -32 128 -35
147 -50 329 -8 88 -19 166 -26 178 -45 72 -172 69 -212 -5 -31 -60 -5 -354 52
-582 184 -731 759 -1306 1490 -1490 197 -49 316 -64 520 -64 204 0 323 15 520
64 656 165 1197 654 1430 1290 56 155 120 448 120 554 l0 36 772 0 773 0 -387
-387 c-402 -404 -420 -426 -403 -490 16 -67 79 -110 143 -98 32 5 105 74 550
518 358 358 515 522 523 544 24 73 30 65 -509 607 -290 290 -521 514 -539 522
-43 18 -61 18 -102 -4z"/>
</g>
</svg>
