<?xml version="1.0" standalone="no"?>
<!DOCTYPE svg PUBLIC "-//W3C//DTD SVG 20010904//EN"
 "http://www.w3.org/TR/2001/REC-SVG-20010904/DTD/svg10.dtd">
<svg version="1.0" xmlns="http://www.w3.org/2000/svg"
 width="354pt" height="1000pt" viewBox="0 0 354 1000"
 preserveAspectRatio="xMidYMid meet">
<metadata>
Created by potrace 1.9, written by Peter Selinger 2001-2010
</metadata>
<g transform="translate(0,1000) scale(0.100000,-0.100000)"
fill="#000000" stroke="none">
<path d="M2212 8044 c-18 -9 -41 -29 -51 -43 -40 -56 -501 -992 -506 -1028
-11 -74 61 -150 132 -139 68 10 76 22 280 430 l195 391 193 -385 c200 -398
216 -423 282 -436 39 -7 95 18 118 53 41 62 45 53 -233 609 -194 389 -267 525
-287 538 -39 25 -85 29 -123 10z"/>
<path d="M263 4143 c-33 -6 -79 -57 -86 -92 -26 -127 122 -210 212 -120 43 42
49 93 18 156 -20 42 -87 68 -144 56z"/>
<path d="M1231 4122 c-47 -25 -74 -76 -66 -125 3 -21 224 -474 500 -1027 538
-1076 515 -1035 600 -1035 22 0 53 9 68 20 23 14 136 232 534 1029 431 863
504 1015 500 1042 -17 101 -123 143 -201 81 -21 -17 -145 -255 -466 -898
l-438 -874 -440 881 c-333 666 -447 885 -467 898 -41 27 -85 30 -124 8z"/>
</g>
</svg>
