<?xml version="1.0" standalone="no"?>
<!DOCTYPE svg PUBLIC "-//W3C//DTD SVG 20010904//EN"
 "http://www.w3.org/TR/2001/REC-SVG-20010904/DTD/svg10.dtd">
<svg version="1.0" xmlns="http://www.w3.org/2000/svg"
 width="942pt" height="1000pt" viewBox="0 0 942 1000"
 preserveAspectRatio="xMidYMid meet">
<metadata>
Created by potrace 1.9, written by Peter Selinger 2001-2010
</metadata>
<g transform="translate(0,1000) scale(0.100000,-0.100000)"
fill="#000000" stroke="none">
<path d="M5165 6092 c-32 -11 -51 -25 -69 -53 -15 -24 -16 -111 -16 -1050 0
-593 4 -1070 10 -1134 24 -262 86 -499 192 -727 l41 -88 -41 -87 c-118 -256
-190 -556 -195 -814 -2 -127 6 -154 53 -182 54 -33 138 -15 170 36 7 12 18 90
26 178 15 182 18 201 50 329 21 86 74 244 93 277 5 9 22 -8 56 -54 70 -95 250
-272 359 -353 386 -286 797 -424 1266 -424 469 0 880 138 1266 424 109 81 289
258 359 353 34 46 51 63 56 54 19 -33 72 -191 93 -277 32 -128 35 -147 50
-329 8 -88 19 -166 26 -178 32 -51 116 -69 170 -36 47 28 55 55 53 182 -5 258
-77 558 -195 814 l-41 87 41 88 c112 241 162 442 201 807 7 64 11 450 11 1080
0 930 -1 982 -18 1014 -38 71 -109 85 -277 55 -489 -85 -833 -432 -920 -925
-62 -352 98 -769 384 -1003 129 -106 341 -206 486 -231 75 -13 75 -13 75 -61
0 -128 -53 -347 -132 -546 l-10 -28 -50 66 c-73 96 -256 275 -362 354 -386
286 -797 424 -1266 424 -469 0 -880 -138 -1266 -424 -106 -79 -289 -258 -362
-354 l-50 -66 -10 28 c-79 199 -132 418 -132 546 0 48 0 48 75 61 79 13 202
58 297 107 308 160 509 444 572 804 20 113 20 215 0 328 -85 490 -430 835
-920 920 -91 16 -164 19 -199 8z m267 -278 c177 -56 315 -149 429 -290 66 -80
115 -174 155 -294 25 -77 28 -98 28 -230 0 -132 -3 -153 -28 -230 -98 -295
-295 -493 -584 -584 -46 -14 -87 -26 -93 -26 -5 0 -9 317 -9 840 0 523 4 840
9 840 6 0 47 -12 93 -26z m3568 -814 c0 -727 -2 -840 -14 -840 -33 0 -186 54
-257 91 -144 75 -291 222 -362 364 -19 39 -48 111 -63 160 -26 80 -29 104 -29
225 0 121 3 145 29 225 92 292 289 493 576 586 47 16 93 28 103 29 16 0 17
-47 17 -840z m-1567 -1131 c215 -32 478 -126 660 -235 117 -71 245 -173 357
-284 105 -105 250 -285 250 -310 0 -24 -159 -219 -259 -319 -240 -238 -514
-393 -841 -476 -155 -39 -245 -49 -440 -49 -195 0 -285 10 -440 49 -327 83
-601 238 -841 476 -100 100 -259 295 -259 319 0 25 145 205 250 310 318 317
699 495 1150 534 73 6 334 -3 413 -15z"/>
<path d="M3681 5102 c-70 -37 -71 -45 -71 -436 l0 -350 -152 151 c-125 124
-160 153 -190 158 -64 12 -127 -31 -143 -98 -15 -59 10 -95 221 -307 l204
-205 -200 -200 c-209 -209 -240 -252 -226 -311 17 -68 80 -111 144 -99 30 5
65 34 190 158 l152 151 0 -350 c0 -391 1 -399 71 -436 42 -23 66 -23 108 0 70
37 71 46 71 431 l0 345 143 -141 c149 -147 187 -171 247 -158 39 8 87 56 95
95 13 60 -8 88 -225 305 l-210 210 214 215 c180 180 216 221 221 252 12 64
-31 127 -98 143 -55 14 -97 -13 -244 -158 l-143 -141 0 345 c0 314 -2 347 -18
378 -19 36 -72 71 -107 71 -11 0 -36 -8 -54 -18z"/>
<path d="M251 4122 c-36 -19 -71 -73 -71 -107 1 -57 49 -111 479 -540 l441
-440 -449 -450 c-468 -470 -483 -487 -466 -552 16 -67 79 -110 143 -98 32 5
98 68 494 463 l458 457 452 -452 c473 -470 490 -485 555 -468 67 16 110 79 98
143 -5 32 -68 99 -466 497 l-459 460 455 455 c315 315 458 465 466 488 6 17 8
46 4 62 -8 39 -56 87 -95 95 -70 15 -82 6 -558 -469 l-452 -451 -453 452
c-248 249 -465 457 -480 463 -39 14 -57 13 -96 -8z"/>
</g>
</svg>
