<?xml version="1.0" standalone="no"?>
<!DOCTYPE svg PUBLIC "-//W3C//DTD SVG 20010904//EN"
 "http://www.w3.org/TR/2001/REC-SVG-20010904/DTD/svg10.dtd">
<svg version="1.0" xmlns="http://www.w3.org/2000/svg"
 width="452pt" height="1000pt" viewBox="0 0 452 1000"
 preserveAspectRatio="xMidYMid meet">
<metadata>
Created by potrace 1.9, written by Peter Selinger 2001-2010
</metadata>
<g transform="translate(0,1000) scale(0.100000,-0.100000)"
fill="#000000" stroke="none">
<path d="M251 5102 c-19 -10 -43 -34 -53 -53 -17 -32 -18 -84 -18 -1034 0
-953 1 -1002 18 -1035 25 -46 81 -74 130 -65 32 6 88 57 435 403 l397 397 0
-350 c0 -392 1 -400 71 -437 32 -17 84 -18 1034 -18 950 0 1002 1 1034 18 70
37 71 46 71 432 l0 345 383 -382 c371 -372 419 -413 474 -413 33 0 86 36 105
71 17 32 18 84 18 1034 0 950 -1 1002 -18 1034 -19 35 -72 71 -105 71 -55 0
-103 -41 -474 -413 l-383 -382 0 345 c0 386 -1 395 -71 432 -32 17 -84 18
-1034 18 -950 0 -1002 -1 -1034 -18 -70 -37 -71 -45 -71 -437 l0 -350 -393
392 c-215 216 -405 397 -420 403 -39 14 -57 13 -96 -8z m2869 -1087 l0 -855
-855 0 -855 0 0 855 0 855 855 0 855 0 0 -855z m980 -2 l0 -678 -340 340 -340
340 337 337 c186 186 339 338 340 338 2 0 3 -305 3 -677z m-3332 334 l332
-332 -335 -335 -335 -335 0 668 c0 367 1 667 3 667 1 0 152 -150 335 -333z"/>
</g>
</svg>
