<?xml version="1.0" standalone="no"?>
<!DOCTYPE svg PUBLIC "-//W3C//DTD SVG 20010904//EN"
 "http://www.w3.org/TR/2001/REC-SVG-20010904/DTD/svg10.dtd">
<svg version="1.0" xmlns="http://www.w3.org/2000/svg"
 width="1285pt" height="1000pt" viewBox="0 0 1285 1000"
 preserveAspectRatio="xMidYMid meet">
<metadata>
Created by potrace 1.9, written by Peter Selinger 2001-2010
</metadata>
<g transform="translate(0,1000) scale(0.100000,-0.100000)"
fill="#000000" stroke="none">
<path d="M2211 6082 c-19 -10 -43 -34 -53 -53 -17 -32 -18 -82 -18 -961 l0
-928 -936 0 c-856 0 -938 -1 -964 -17 -47 -28 -55 -55 -53 -182 9 -506 237
-1027 612 -1400 387 -384 904 -595 1461 -595 204 0 323 15 520 64 592 149
1093 561 1356 1115 112 236 163 438 203 808 13 115 2 152 -54 187 -32 20 -47
20 -964 20 l-931 0 0 928 c0 879 -1 929 -18 961 -19 36 -72 71 -107 71 -11 0
-36 -8 -54 -18z m1869 -2228 c0 -143 -76 -420 -170 -622 -142 -302 -420 -607
-717 -786 -184 -110 -440 -201 -668 -237 -103 -16 -427 -16 -530 0 -228 36
-484 127 -668 237 -297 179 -575 484 -717 786 -94 202 -170 479 -170 622 l0
36 1820 0 1820 0 0 -36z"/>
<path d="M12500 6085 c-22 -10 -465 -445 -1217 -1198 l-1183 -1182 -212 212
c-229 227 -242 236 -315 213 -30 -10 -187 -160 -763 -736 l-725 -723 -94 -11
c-353 -40 -652 -176 -889 -405 -70 -67 -95 -99 -101 -125 -21 -96 61 -174 154
-149 22 6 66 39 118 87 147 139 260 211 427 272 l85 31 -116 -118 c-89 -90
-120 -128 -129 -159 -25 -83 -31 -75 504 -613 362 -364 502 -498 535 -513 86
-39 76 -47 483 359 l366 366 93 -38 c467 -189 993 -136 1413 142 100 67 215
165 240 205 9 14 16 47 16 72 0 39 -5 51 -35 81 -30 30 -42 35 -81 35 -48 0
-104 -30 -154 -85 -74 -80 -243 -180 -400 -238 -153 -57 -233 -70 -420 -70
-180 -1 -243 8 -389 55 l-94 30 546 546 c581 583 572 572 548 645 -7 21 -82
103 -221 242 l-210 210 1194 1195 c1308 1308 1230 1222 1191 1303 -30 64 -100
90 -165 62z m-2487 -2653 l397 -397 -513 -512 -512 -512 -51 38 c-36 28 -53
50 -62 79 -9 30 -36 63 -105 129 -186 177 -425 308 -676 368 l-73 18 593 593
c327 327 596 594 599 594 3 0 184 -179 403 -398z m-1630 -1038 c165 -31 360
-118 492 -219 90 -69 118 -100 139 -155 15 -41 82 -110 171 -174 19 -14 6 -29
-267 -303 l-288 -288 -400 400 -400 400 182 182 182 183 56 -6 c30 -3 90 -12
133 -20z"/>
<path d="M5635 4121 c-61 -29 -529 -504 -545 -554 -20 -64 6 -123 67 -152 68
-33 91 -20 261 148 l152 151 0 -767 0 -767 -193 0 c-167 0 -197 -2 -226 -18
-36 -19 -71 -72 -71 -107 0 -35 35 -88 71 -107 31 -17 69 -18 544 -18 475 0
513 1 544 18 36 19 71 72 71 107 0 35 -35 88 -71 107 -29 16 -59 18 -226 18
l-193 0 0 928 c0 879 -1 929 -18 961 -19 36 -73 71 -107 71 -11 0 -38 -9 -60
-19z"/>
</g>
</svg>
