<?xml version="1.0" standalone="no"?>
<!DOCTYPE svg PUBLIC "-//W3C//DTD SVG 20010904//EN"
 "http://www.w3.org/TR/2001/REC-SVG-20010904/DTD/svg10.dtd">
<svg version="1.0" xmlns="http://www.w3.org/2000/svg"
 width="452pt" height="1000pt" viewBox="0 0 452 1000"
 preserveAspectRatio="xMidYMid meet">
<metadata>
Created by potrace 1.9, written by Peter Selinger 2001-2010
</metadata>
<g transform="translate(0,1000) scale(0.100000,-0.100000)"
fill="#000000" stroke="none">
<path d="M4075 4134 c-169 -13 -419 -67 -575 -124 -565 -207 -1023 -665 -1230
-1230 -57 -158 -120 -449 -120 -559 l0 -41 -933 0 c-884 0 -934 -1 -966 -18
-36 -19 -71 -72 -71 -107 0 -35 35 -88 71 -107 31 -17 67 -18 494 -18 l460 0
460 -921 c253 -507 472 -941 488 -966 l27 -44 88 3 87 3 483 963 482 962 463
0 c429 0 465 1 496 18 36 19 71 72 71 107 0 35 -35 88 -71 107 -32 17 -82 18
-956 18 l-923 0 0 41 c0 100 46 310 100 459 97 264 227 466 430 670 246 246
521 402 850 484 128 32 147 35 329 50 88 8 166 19 178 26 70 44 69 166 -1 210
-22 14 -124 20 -211 14z m-1421 -2976 c-212 -425 -388 -775 -390 -777 -3 -3
-774 1534 -774 1544 0 3 349 5 775 5 l775 0 -386 -772z"/>
</g>
</svg>
