<?xml version="1.0" standalone="no"?>
<!DOCTYPE svg PUBLIC "-//W3C//DTD SVG 20010904//EN"
 "http://www.w3.org/TR/2001/REC-SVG-20010904/DTD/svg10.dtd">
<svg version="1.0" xmlns="http://www.w3.org/2000/svg"
 width="256pt" height="1000pt" viewBox="0 0 256 1000"
 preserveAspectRatio="xMidYMid meet">
<metadata>
Created by potrace 1.9, written by Peter Selinger 2001-2010
</metadata>
<g transform="translate(0,1000) scale(0.100000,-0.100000)"
fill="#000000" stroke="none">
<path d="M1232 8044 c-18 -9 -41 -29 -51 -43 -40 -56 -501 -992 -506 -1028
-11 -74 61 -150 132 -139 68 10 76 22 280 430 l195 391 193 -385 c200 -398
216 -423 282 -436 39 -7 95 18 118 53 41 62 45 53 -233 609 -194 389 -267 525
-287 538 -39 25 -85 29 -123 10z"/>
<path d="M251 6082 c-19 -10 -43 -34 -53 -53 -17 -32 -18 -84 -18 -1034 0
-950 1 -1002 18 -1034 33 -61 67 -71 235 -71 l149 0 -39 -32 c-108 -91 -230
-271 -289 -428 -59 -155 -86 -376 -64 -522 77 -505 427 -865 925 -952 291 -51
619 41 870 243 191 154 332 405 380 682 50 281 -41 608 -237 855 -38 48 -88
102 -111 119 l-42 30 165 5 c184 6 205 12 234 75 14 29 16 141 16 1032 0 948
-1 1000 -18 1032 -10 19 -34 43 -53 53 -32 17 -84 18 -1034 18 -950 0 -1002
-1 -1034 -18z m1889 -1087 l0 -855 -855 0 -855 0 0 855 0 855 855 0 855 0 0
-855z m-630 -1140 c83 -27 188 -75 242 -112 l27 -19 -252 -252 -252 -252 -250
250 -250 251 25 19 c39 31 179 96 245 115 149 44 329 43 465 0z m-664 -1064
c-285 -285 -251 -271 -319 -136 -142 283 -125 588 47 852 l21 33 250 -250 250
-250 -249 -249z m1131 732 c30 -39 93 -173 119 -258 26 -80 29 -104 29 -225 0
-121 -3 -145 -29 -225 -27 -86 -89 -219 -121 -260 -15 -19 -26 -9 -268 233
l-252 252 250 250 c137 137 252 250 254 250 2 0 10 -8 18 -17z m-225 -1186
c-53 -36 -158 -85 -242 -113 -77 -25 -98 -28 -230 -28 -132 0 -153 3 -230 28
-47 15 -119 46 -160 67 -134 70 -149 34 135 319 l250 250 252 -252 252 -252
-27 -19z"/>
</g>
</svg>
