<?xml version="1.0" standalone="no"?>
<!DOCTYPE svg PUBLIC "-//W3C//DTD SVG 20010904//EN"
 "http://www.w3.org/TR/2001/REC-SVG-20010904/DTD/svg10.dtd">
<svg version="1.0" xmlns="http://www.w3.org/2000/svg"
 width="1138pt" height="1000pt" viewBox="0 0 1138 1000"
 preserveAspectRatio="xMidYMid meet">
<metadata>
Created by potrace 1.9, written by Peter Selinger 2001-2010
</metadata>
<g transform="translate(0,1000) scale(0.100000,-0.100000)"
fill="#000000" stroke="none">
<path d="M8092 6090 c-39 -16 -274 -224 -368 -326 -258 -282 -467 -650 -572
-1009 -142 -486 -142 -984 0 -1470 105 -359 314 -727 572 -1009 106 -114 333
-313 377 -328 58 -20 91 -3 231 116 230 197 400 400 558 671 77 131 200 403
215 473 4 17 10 32 15 32 5 0 11 -15 15 -32 15 -70 138 -342 215 -473 158
-271 328 -474 558 -671 140 -119 173 -136 231 -116 17 6 88 60 158 120 692
592 1017 1504 858 2402 -86 481 -310 935 -639 1294 -124 135 -346 323 -391
332 -55 10 -86 -8 -222 -124 -226 -194 -396 -399 -553 -667 -77 -131 -200
-403 -215 -472 -4 -18 -10 -33 -15 -33 -5 0 -11 15 -15 33 -15 69 -138 341
-215 472 -157 268 -327 473 -552 666 -152 130 -181 144 -246 119z m125 -349
c233 -202 452 -507 582 -810 107 -251 163 -484 182 -758 37 -551 -121 -1085
-453 -1533 -82 -111 -305 -348 -360 -385 -27 -17 -29 -17 -55 0 -16 10 -84 75
-152 144 -210 213 -366 444 -480 710 -107 251 -163 484 -182 759 -42 633 174
1246 605 1716 91 98 219 216 236 216 5 0 39 -27 77 -59z m1960 0 c233 -202
452 -507 582 -810 107 -251 163 -484 182 -758 37 -551 -121 -1085 -453 -1533
-82 -111 -305 -348 -360 -385 -27 -17 -29 -17 -55 0 -16 10 -84 75 -152 144
-210 213 -366 444 -480 710 -107 251 -163 484 -182 759 -42 633 174 1246 605
1716 91 98 219 216 236 216 5 0 39 -27 77 -59z"/>
<path d="M251 2162 c-36 -19 -71 -72 -71 -107 0 -35 35 -88 71 -107 28 -15 58
-18 184 -18 l150 0 -42 -36 c-119 -99 -254 -311 -307 -481 -53 -171 -69 -347
-35 -401 43 -68 165 -68 208 0 7 12 17 65 22 119 17 179 89 357 197 484 115
137 243 222 422 281 77 25 98 28 230 28 132 0 153 -3 230 -28 120 -40 214 -89
294 -155 193 -157 302 -366 326 -623 6 -62 17 -150 25 -196 49 -284 188 -529
395 -695 99 -79 274 -169 397 -203 88 -24 100 -25 315 -22 220 4 224 4 318 36
400 135 671 457 745 884 8 46 19 134 25 196 35 378 258 658 620 778 77 25 98
28 230 28 132 0 153 -3 230 -28 179 -59 307 -144 422 -281 108 -127 180 -305
197 -484 5 -54 15 -107 22 -119 43 -68 165 -68 208 0 22 35 24 120 7 222 -43
249 -143 452 -307 618 l-77 78 151 0 c128 0 158 3 186 18 36 19 71 72 71 107
0 35 -35 88 -71 107 -32 17 -146 18 -2994 18 -2848 0 -2962 -1 -2994 -18z
m4212 -268 c-73 -61 -170 -187 -226 -295 -86 -162 -123 -304 -147 -553 -35
-381 -259 -663 -620 -782 -77 -25 -98 -28 -230 -28 -132 0 -153 3 -230 28
-179 59 -319 154 -431 292 -106 130 -172 299 -189 490 -35 372 -129 601 -331
806 l-77 78 1261 0 1262 0 -42 -36z"/>
</g>
</svg>
