<?xml version="1.0" standalone="no"?>
<!DOCTYPE svg PUBLIC "-//W3C//DTD SVG 20010904//EN"
 "http://www.w3.org/TR/2001/REC-SVG-20010904/DTD/svg10.dtd">
<svg version="1.0" xmlns="http://www.w3.org/2000/svg"
 width="746pt" height="1000pt" viewBox="0 0 746 1000"
 preserveAspectRatio="xMidYMid meet">
<metadata>
Created by potrace 1.9, written by Peter Selinger 2001-2010
</metadata>
<g transform="translate(0,1000) scale(0.100000,-0.100000)"
fill="#000000" stroke="none">
<path d="M6010 6084 c-194 -35 -394 -125 -531 -240 -290 -242 -446 -650 -384
-1003 49 -279 185 -523 384 -685 138 -113 340 -206 514 -236 l67 -12 0 -937
c0 -888 1 -938 18 -970 19 -36 72 -71 107 -71 35 0 88 35 107 71 17 32 18 82
18 971 l0 937 38 6 c20 4 78 18 127 31 417 115 712 448 790 895 61 347 -93
758 -373 994 -241 203 -592 302 -882 249z m400 -269 c176 -56 318 -152 431
-291 68 -83 117 -178 155 -299 26 -80 29 -104 29 -225 0 -121 -3 -145 -29
-225 -93 -295 -290 -493 -586 -591 -77 -25 -98 -28 -230 -28 -132 0 -153 3
-230 28 -179 59 -319 154 -431 292 -68 82 -117 177 -155 299 -26 82 -29 103
-28 230 0 126 3 149 28 225 95 288 291 488 567 579 106 35 147 40 274 37 97
-3 137 -9 205 -31z"/>
<path d="M2090 5104 c-270 -49 -508 -184 -674 -383 -76 -91 -164 -253 -200
-368 -53 -170 -69 -358 -35 -399 8 -10 -3 -8 -37 7 -239 103 -527 168 -765
172 -128 2 -154 -5 -183 -55 -33 -55 -15 -135 37 -168 12 -7 90 -18 178 -26
182 -15 201 -18 329 -50 329 -82 604 -238 850 -484 203 -204 333 -406 430
-670 54 -149 100 -359 100 -459 l0 -41 -918 0 c-869 0 -919 -1 -951 -18 -36
-19 -71 -72 -71 -107 0 -35 35 -88 71 -107 32 -17 115 -18 2014 -18 1899 0
1982 1 2014 18 36 19 71 72 71 107 0 35 -35 88 -71 107 -32 17 -82 18 -956 18
l-923 0 0 41 c0 100 46 310 100 459 97 264 227 466 430 670 246 246 521 402
850 484 128 32 147 35 329 50 88 8 166 19 178 26 51 32 69 116 36 170 -28 47
-55 55 -182 53 -238 -4 -526 -69 -765 -172 -34 -15 -45 -17 -37 -7 21 26 24
118 7 220 -63 368 -263 652 -574 814 -218 113 -466 155 -682 116z m400 -269
c353 -114 585 -399 619 -764 12 -125 30 -155 104 -170 26 -6 22 -9 -55 -55
-356 -211 -640 -523 -819 -901 -26 -55 -53 -119 -60 -142 -6 -24 -15 -43 -19
-43 -4 0 -13 19 -19 43 -7 23 -34 87 -60 142 -179 378 -463 690 -819 901 -77
46 -81 49 -55 55 74 15 92 45 104 170 34 356 264 647 600 758 106 35 147 40
274 37 97 -3 136 -9 205 -31z"/>
</g>
</svg>
