<?xml version="1.0" standalone="no"?>
<!DOCTYPE svg PUBLIC "-//W3C//DTD SVG 20010904//EN"
 "http://www.w3.org/TR/2001/REC-SVG-20010904/DTD/svg10.dtd">
<svg version="1.0" xmlns="http://www.w3.org/2000/svg"
 width="1334pt" height="1000pt" viewBox="0 0 1334 1000"
 preserveAspectRatio="xMidYMid meet">
<metadata>
Created by potrace 1.9, written by Peter Selinger 2001-2010
</metadata>
<g transform="translate(0,1000) scale(0.100000,-0.100000)"
fill="#000000" stroke="none">
<path d="M12985 6081 c-57 -27 -3948 -3921 -3970 -3973 -8 -21 -15 -45 -15
-55 0 -33 36 -86 71 -105 32 -17 115 -18 2014 -18 1899 0 1982 1 2014 18 19
10 43 34 53 53 17 32 18 115 18 2014 0 1899 -1 1982 -18 2014 -19 36 -73 71
-107 71 -11 0 -38 -9 -60 -19z m-65 -2156 l0 -1745 -1747 0 -1748 0 1745 1745
c960 960 1746 1745 1747 1745 2 0 3 -785 3 -1745z"/>
<path d="M251 2162 c-36 -19 -71 -72 -71 -107 0 -35 35 -88 71 -107 32 -17 82
-18 966 -18 l933 0 0 -36 c0 -59 29 -230 60 -354 182 -724 757 -1303 1475
-1486 189 -49 244 -54 535 -54 291 0 346 5 535 54 643 164 1185 656 1415 1286
56 155 120 448 120 554 l0 36 938 0 c889 0 939 1 971 18 36 19 71 72 71 107 0
35 -35 88 -71 107 -32 17 -85 18 -1047 18 -1102 0 -1047 3 -1082 -53 -7 -12
-18 -90 -26 -178 -15 -182 -18 -201 -50 -329 -41 -166 -119 -358 -201 -493
-145 -241 -400 -496 -640 -641 -184 -110 -440 -201 -668 -237 -103 -16 -427
-16 -530 0 -228 36 -484 127 -668 237 -240 145 -495 400 -640 641 -82 135
-160 327 -201 493 -32 128 -35 147 -50 329 -8 88 -19 166 -26 178 -35 56 19
53 -1077 53 -957 0 -1010 -1 -1042 -18z"/>
</g>
</svg>
