<?xml version="1.0" standalone="no"?>
<!DOCTYPE svg PUBLIC "-//W3C//DTD SVG 20010904//EN"
 "http://www.w3.org/TR/2001/REC-SVG-20010904/DTD/svg10.dtd">
<svg version="1.0" xmlns="http://www.w3.org/2000/svg"
 width="1628pt" height="1000pt" viewBox="0 0 1628 1000"
 preserveAspectRatio="xMidYMid meet">
<metadata>
Created by potrace 1.9, written by Peter Selinger 2001-2010
</metadata>
<g transform="translate(0,1000) scale(0.100000,-0.100000)"
fill="#000000" stroke="none">
<path d="M3191 6082 c-35 -19 -71 -72 -71 -105 0 -55 41 -103 413 -474 l382
-383 -1815 0 c-1739 0 -1817 -1 -1849 -18 -36 -19 -71 -72 -71 -107 0 -35 35
-88 71 -107 32 -17 110 -18 1849 -18 l1815 0 -387 -387 c-326 -327 -388 -394
-398 -429 -24 -82 -23 -84 398 -506 l387 -388 -1815 0 c-1739 0 -1817 -1
-1849 -18 -36 -19 -71 -72 -71 -107 0 -35 35 -88 71 -107 32 -17 110 -18 1849
-18 l1815 0 -387 -388 c-402 -403 -420 -425 -403 -489 16 -67 79 -110 143 -98
32 5 105 74 550 518 358 358 515 522 523 544 23 72 27 68 -462 558 l-459 460
455 455 c315 315 458 465 466 488 24 72 30 64 -509 606 -290 290 -521 514
-539 522 -43 18 -61 18 -102 -4z"/>
<path d="M9071 6082 c-19 -10 -43 -34 -53 -53 -17 -32 -18 -79 -18 -874 l0
-840 -397 397 c-343 342 -403 398 -435 403 -64 12 -127 -31 -143 -98 -17 -64
1 -86 403 -489 l387 -388 -1815 0 c-1739 0 -1817 -1 -1849 -18 -36 -19 -71
-72 -71 -107 0 -35 35 -88 71 -107 32 -17 110 -18 1849 -18 l1815 0 -387 -387
c-402 -404 -420 -426 -403 -490 16 -67 79 -110 143 -98 32 5 92 61 435 403
l397 397 0 -840 c0 -795 1 -842 18 -874 19 -36 72 -71 107 -71 35 0 88 35 107
71 17 32 18 115 18 2014 0 1899 -1 1982 -18 2014 -19 36 -72 71 -107 71 -11 0
-36 -8 -54 -18z"/>
<path d="M12011 6082 c-35 -19 -71 -72 -71 -105 0 -56 42 -103 475 -537 l445
-445 -890 -890 -890 -890 -457 457 c-397 395 -463 458 -495 463 -64 12 -127
-31 -144 -99 -16 -65 5 -90 471 -556 l445 -445 -449 -450 c-468 -470 -483
-487 -466 -552 16 -67 79 -110 143 -98 32 5 98 68 494 463 l458 457 452 -452
c473 -470 490 -485 555 -468 67 16 110 79 98 143 -5 32 -68 99 -466 497 l-459
460 890 890 890 890 890 -890 890 -890 -449 -450 c-468 -470 -483 -487 -466
-552 16 -67 79 -110 143 -98 32 5 98 68 494 463 l458 457 452 -452 c473 -470
490 -485 555 -468 67 16 110 79 98 143 -5 32 -68 99 -466 497 l-459 460 455
455 c315 315 458 465 466 488 6 17 8 46 4 62 -8 39 -56 87 -95 95 -70 15 -82
6 -558 -469 l-452 -451 -890 890 -890 890 459 460 c398 398 461 465 466 497
12 64 -31 127 -98 143 -65 17 -82 2 -555 -469 l-452 -451 -453 452 c-248 249
-465 457 -480 463 -39 14 -57 13 -96 -8z"/>
</g>
</svg>
