<?xml version="1.0" standalone="no"?>
<!DOCTYPE svg PUBLIC "-//W3C//DTD SVG 20010904//EN"
 "http://www.w3.org/TR/2001/REC-SVG-20010904/DTD/svg10.dtd">
<svg version="1.0" xmlns="http://www.w3.org/2000/svg"
 width="1530pt" height="1000pt" viewBox="0 0 1530 1000"
 preserveAspectRatio="xMidYMid meet">
<metadata>
Created by potrace 1.9, written by Peter Selinger 2001-2010
</metadata>
<g transform="translate(0,1000) scale(0.100000,-0.100000)"
fill="#000000" stroke="none">
<path d="M4050 6084 c-122 -22 -238 -62 -349 -121 -308 -161 -509 -452 -568
-819 -16 -100 -16 -107 6 -249 102 -668 339 -1249 727 -1787 213 -295 500
-591 784 -809 109 -84 285 -204 378 -259 39 -23 72 -46 72 -50 0 -19 73 -42
113 -36 42 7 67 21 307 178 525 342 962 812 1282 1383 236 419 387 861 467
1360 20 125 19 131 -5 283 -77 488 -428 840 -920 926 -359 63 -766 -92 -1007
-382 -35 -42 -79 -105 -98 -139 -19 -35 -36 -63 -39 -63 -3 1 -24 33 -47 73
-209 364 -689 586 -1103 511z m400 -269 c353 -114 585 -399 619 -764 5 -54 15
-107 22 -119 43 -69 175 -69 218 0 7 12 17 65 22 119 17 179 89 357 197 484
115 137 243 222 422 281 77 25 98 28 230 28 132 0 153 -3 230 -28 183 -61 317
-152 431 -292 66 -80 115 -175 155 -294 25 -76 28 -100 28 -220 0 -110 -5
-159 -27 -265 -86 -404 -225 -774 -424 -1130 -233 -414 -580 -812 -991 -1134
-100 -78 -359 -251 -375 -251 -25 0 -221 130 -377 249 -399 305 -780 745
-1005 1156 -227 415 -372 837 -440 1280 -20 130 -15 201 22 318 88 280 289
485 564 576 106 35 147 40 274 37 97 -3 136 -9 205 -31z"/>
<path d="M9065 6081 c-27 -13 -201 -180 -531 -512 -513 -516 -526 -530 -509
-596 16 -67 79 -110 143 -98 32 5 92 61 435 403 l397 397 0 -1820 c0 -1744 1
-1822 18 -1854 19 -36 72 -71 107 -71 35 0 88 35 107 71 17 32 18 110 18 1849
l0 1815 388 -387 c403 -402 425 -420 489 -403 67 16 110 79 98 143 -5 32 -74
104 -513 546 -290 290 -521 514 -539 522 -42 18 -60 17 -108 -5z"/>
<path d="M11031 6082 c-36 -19 -71 -73 -71 -107 1 -60 52 -114 969 -1030 l931
-930 -939 -940 c-757 -758 -941 -947 -951 -978 -20 -64 6 -123 67 -152 80 -38
13 -98 1111 998 711 711 1005 1011 1013 1035 24 74 64 31 -999 1096 -583 584
-1010 1004 -1029 1012 -43 18 -61 18 -102 -4z"/>
<path d="M12991 6082 c-36 -19 -71 -73 -71 -107 1 -60 52 -114 969 -1030 l931
-930 -939 -940 c-757 -758 -941 -947 -951 -978 -20 -64 6 -123 67 -152 80 -38
13 -98 1111 998 711 711 1005 1011 1013 1035 24 74 64 31 -999 1096 -583 584
-1010 1004 -1029 1012 -43 18 -61 18 -102 -4z"/>
<path d="M1110 5104 c-194 -35 -394 -125 -531 -240 -290 -242 -446 -650 -384
-1003 50 -285 189 -528 395 -694 100 -79 275 -169 395 -202 50 -13 138 -31
196 -40 99 -14 112 -14 227 5 160 26 285 68 407 135 296 164 488 441 550 796
61 347 -93 758 -373 994 -241 203 -592 302 -882 249z m50 -1084 c0 -727 -2
-840 -14 -840 -33 0 -186 54 -257 91 -144 75 -291 222 -362 364 -19 39 -48
111 -63 160 -26 82 -29 103 -28 230 0 126 3 149 28 225 16 47 44 117 63 155
70 140 221 293 358 363 71 36 225 91 258 92 16 0 17 -47 17 -840z m352 814
c173 -54 316 -151 429 -290 68 -83 117 -178 155 -299 26 -80 29 -104 29 -225
0 -121 -3 -145 -29 -225 -93 -295 -295 -498 -584 -589 -46 -14 -87 -26 -93
-26 -5 0 -9 317 -9 840 0 523 4 840 9 840 6 0 47 -12 93 -26z"/>
<path d="M251 2162 c-36 -19 -71 -72 -71 -107 0 -35 35 -88 71 -107 32 -17 84
-18 1034 -18 950 0 1002 1 1034 18 36 19 71 72 71 107 0 35 -35 88 -71 107
-32 17 -84 18 -1034 18 -950 0 -1002 -1 -1034 -18z"/>
</g>
</svg>
