<?xml version="1.0" standalone="no"?>
<!DOCTYPE svg PUBLIC "-//W3C//DTD SVG 20010904//EN"
 "http://www.w3.org/TR/2001/REC-SVG-20010904/DTD/svg10.dtd">
<svg version="1.0" xmlns="http://www.w3.org/2000/svg"
 width="452pt" height="1000pt" viewBox="0 0 452 1000"
 preserveAspectRatio="xMidYMid meet">
<metadata>
Created by potrace 1.9, written by Peter Selinger 2001-2010
</metadata>
<g transform="translate(0,1000) scale(0.100000,-0.100000)"
fill="#000000" stroke="none">
<path d="M1231 6082 c-19 -10 -43 -34 -53 -53 -17 -32 -18 -101 -18 -1549 0
-1645 -2 -1578 56 -1769 52 -173 184 -380 311 -490 l48 -40 -645 -1 c-606 0
-647 -1 -679 -18 -36 -19 -71 -72 -71 -107 0 -35 35 -88 71 -107 32 -17 82
-18 951 -18 l918 0 0 -36 c0 -95 -47 -309 -100 -454 -97 -264 -227 -466 -430
-670 -246 -246 -521 -402 -850 -484 -128 -32 -147 -35 -329 -50 -88 -8 -166
-19 -178 -26 -47 -30 -70 -110 -44 -158 27 -51 32 -52 214 -52 181 0 260 10
432 54 644 164 1184 655 1415 1286 56 155 120 448 120 554 l0 36 938 0 c889 0
939 1 971 18 36 19 71 72 71 107 0 35 -35 88 -71 107 -32 17 -73 18 -681 18
l-648 0 83 82 c176 176 272 376 318 657 18 110 19 192 19 1596 0 1415 -1 1482
-18 1514 -19 36 -72 71 -107 71 -35 0 -88 -35 -107 -71 -17 -32 -18 -99 -18
-1484 0 -853 -4 -1491 -10 -1549 -36 -372 -268 -660 -618 -770 -46 -14 -87
-26 -93 -26 -5 0 -9 708 -9 1898 0 1818 -1 1899 -18 1931 -19 36 -72 71 -107
71 -35 0 -88 -35 -107 -71 -17 -32 -18 -113 -18 -1931 0 -1650 -2 -1898 -14
-1898 -8 0 -52 12 -98 26 -286 90 -485 289 -584 584 l-29 85 -5 1560 c-5 1484
-6 1561 -23 1587 -19 28 -73 58 -104 58 -10 0 -34 -8 -52 -18z"/>
</g>
</svg>
