<?xml version="1.0" standalone="no"?>
<!DOCTYPE svg PUBLIC "-//W3C//DTD SVG 20010904//EN"
 "http://www.w3.org/TR/2001/REC-SVG-20010904/DTD/svg10.dtd">
<svg version="1.0" xmlns="http://www.w3.org/2000/svg"
 width="452pt" height="1000pt" viewBox="0 0 452 1000"
 preserveAspectRatio="xMidYMid meet">
<metadata>
Created by potrace 1.9, written by Peter Selinger 2001-2010
</metadata>
<g transform="translate(0,1000) scale(0.100000,-0.100000)"
fill="#000000" stroke="none">
<path d="M1231 6082 c-19 -10 -43 -34 -53 -53 -17 -32 -18 -101 -18 -1549 0
-1645 -2 -1578 56 -1769 52 -173 184 -380 311 -490 l48 -40 -645 -1 c-606 0
-647 -1 -679 -18 -36 -19 -71 -72 -71 -107 0 -35 35 -88 71 -107 32 -17 73
-18 674 -18 l640 0 -42 -36 c-73 -61 -170 -187 -226 -295 -117 -222 -160 -461
-122 -678 50 -285 189 -528 395 -694 99 -79 274 -169 397 -203 88 -24 100 -25
315 -22 220 4 224 4 318 36 400 135 670 455 745 883 56 318 -65 687 -306 931
l-77 78 641 0 c603 0 644 1 676 18 36 19 71 72 71 107 0 35 -35 88 -71 107
-32 17 -73 18 -681 18 l-648 0 83 82 c176 176 272 376 318 657 18 110 19 192
19 1596 0 1415 -1 1482 -18 1514 -19 36 -72 71 -107 71 -35 0 -88 -35 -107
-71 -17 -32 -18 -99 -18 -1484 0 -853 -4 -1491 -10 -1549 -36 -372 -268 -660
-618 -770 -46 -14 -87 -26 -93 -26 -5 0 -9 708 -9 1898 0 1818 -1 1899 -18
1931 -19 36 -72 71 -107 71 -35 0 -88 -35 -107 -71 -17 -32 -18 -113 -18
-1931 0 -1650 -2 -1898 -14 -1898 -8 0 -52 12 -98 26 -286 90 -485 289 -584
584 l-29 85 -5 1560 c-5 1484 -6 1561 -23 1587 -19 28 -73 58 -104 58 -10 0
-34 -8 -52 -18z m1259 -4187 c176 -56 318 -152 431 -291 68 -83 117 -178 155
-299 26 -80 29 -104 29 -225 0 -121 -3 -145 -29 -225 -93 -295 -290 -493 -586
-591 -77 -25 -98 -28 -230 -28 -132 0 -153 3 -230 28 -179 59 -319 154 -431
292 -68 82 -117 177 -155 299 -26 82 -29 103 -28 230 0 126 3 149 28 225 95
288 291 488 567 579 106 35 147 40 274 37 97 -3 137 -9 205 -31z"/>
</g>
</svg>
