<?xml version="1.0" standalone="no"?>
<!DOCTYPE svg PUBLIC "-//W3C//DTD SVG 20010904//EN"
 "http://www.w3.org/TR/2001/REC-SVG-20010904/DTD/svg10.dtd">
<svg version="1.0" xmlns="http://www.w3.org/2000/svg"
 width="1922pt" height="1000pt" viewBox="0 0 1922 1000"
 preserveAspectRatio="xMidYMid meet">
<metadata>
Created by potrace 1.9, written by Peter Selinger 2001-2010
</metadata>
<g transform="translate(0,1000) scale(0.100000,-0.100000)"
fill="#000000" stroke="none">
<path d="M2115 6094 c-684 -55 -1279 -418 -1631 -994 -178 -294 -280 -628
-299 -990 -7 -132 5 -169 66 -202 32 -17 110 -18 1849 -18 l1815 0 -387 -387
c-402 -404 -420 -426 -403 -490 16 -67 79 -110 143 -98 32 5 92 61 435 403
l397 397 0 -840 c0 -795 1 -842 18 -874 19 -36 72 -71 107 -71 35 0 88 35 107
71 17 32 18 115 18 2014 0 1899 -1 1982 -18 2014 -19 35 -72 71 -105 71 -31 0
-85 -30 -104 -58 -17 -25 -18 -66 -23 -535 l-5 -507 -49 82 c-242 408 -624
726 -1066 888 -108 39 -286 84 -416 104 -102 16 -357 27 -449 20z m418 -265
c215 -32 478 -126 660 -235 242 -146 495 -399 641 -641 77 -130 158 -326 197
-478 11 -44 22 -89 26 -100 3 -11 -165 150 -373 357 -326 324 -384 378 -416
383 -64 12 -127 -31 -143 -98 -17 -64 1 -86 403 -489 l387 -388 -1738 0 -1737
0 0 41 c0 148 74 422 170 627 168 359 503 694 862 862 210 98 418 154 648 174
73 6 334 -3 413 -15z"/>
<path d="M12011 6082 c-19 -10 -43 -34 -53 -53 -17 -32 -18 -115 -18 -2014 0
-1899 1 -1982 18 -2014 10 -19 34 -43 53 -53 32 -17 84 -18 1034 -18 950 0
1002 1 1034 18 36 19 71 72 71 107 0 35 -35 88 -71 107 -32 17 -82 18 -961 18
l-928 0 0 1908 c0 1828 -1 1909 -18 1941 -19 36 -72 71 -107 71 -11 0 -36 -8
-54 -18z"/>
<path d="M15810 6084 c-122 -22 -238 -62 -349 -121 -308 -161 -509 -452 -568
-819 -16 -100 -16 -107 6 -249 85 -558 284 -1107 548 -1517 l43 -67 -300 -600
c-165 -330 -302 -617 -305 -638 -8 -49 19 -100 66 -125 32 -17 115 -18 2014
-18 1899 0 1982 1 2014 18 36 19 71 72 71 107 1 11 -137 297 -306 635 l-307
616 72 118 c264 438 435 915 520 1451 20 125 19 131 -5 283 -77 488 -428 840
-920 926 -160 28 -319 15 -498 -40 -106 -33 -274 -122 -349 -185 -32 -27 -62
-49 -66 -49 -4 0 -34 54 -66 121 -67 136 -95 164 -160 164 -66 0 -96 -30 -167
-170 l-63 -124 -73 58 c-233 186 -574 276 -852 225z m400 -269 c151 -49 287
-131 380 -230 l24 -26 -494 -989 c-272 -545 -497 -990 -500 -990 -7 0 -42 64
-121 222 -173 345 -295 728 -354 1113 -20 130 -15 201 22 318 88 280 289 485
564 576 106 35 147 40 274 37 97 -3 136 -9 205 -31z m1960 0 c293 -94 488
-290 586 -585 25 -76 28 -100 28 -220 0 -110 -5 -159 -27 -265 -83 -390 -211
-736 -405 -1094 l-45 -84 -499 998 -499 997 23 25 c86 92 225 178 359 222 106
35 147 40 274 37 97 -3 136 -9 205 -31z m-1181 -269 c-13 -25 -26 -46 -29 -46
-3 0 -15 20 -28 44 l-24 44 28 53 27 54 25 -52 25 -52 -24 -45z m1128 -2266
c-120 -174 -381 -462 -565 -623 -249 -217 -560 -435 -603 -422 -27 9 -256 165
-359 244 -279 215 -615 562 -783 808 l-28 41 494 988 c457 914 496 987 506
962 25 -66 42 -140 50 -229 5 -53 15 -106 22 -117 43 -69 175 -69 218 0 7 12
17 65 22 119 5 55 21 136 35 182 l26 82 498 -995 498 -995 -31 -45z m-2137
-593 c178 -185 399 -375 555 -480 l40 -27 -683 0 c-375 0 -682 2 -682 5 0 3
99 203 220 445 l220 440 98 -122 c54 -68 158 -185 232 -261z m2519 -64 l221
-443 -682 1 c-646 0 -682 1 -658 17 266 181 583 479 798 749 53 66 98 120 98
120 1 -1 101 -201 223 -444z"/>
<path d="M8950 5104 c-194 -35 -394 -125 -531 -240 -290 -242 -446 -650 -384
-1003 49 -279 185 -523 384 -685 188 -154 467 -256 701 -256 131 0 349 49 453
101 36 19 38 19 75 0 57 -29 189 -68 288 -85 113 -20 215 -20 329 0 489 85
833 432 920 925 61 347 -93 758 -373 994 -189 159 -473 265 -712 265 -131 0
-349 -49 -452 -101 -37 -19 -39 -19 -75 0 -21 10 -75 30 -119 44 -175 55 -349
69 -504 41z m324 -249 c38 -8 71 -16 73 -19 3 -2 -31 -45 -74 -95 -209 -245
-310 -587 -258 -881 38 -215 126 -406 258 -561 43 -50 77 -93 74 -95 -2 -3
-37 -12 -78 -20 -221 -47 -499 28 -685 185 -137 115 -223 246 -280 426 -26 82
-29 103 -28 230 0 126 3 149 28 225 59 179 144 307 281 422 101 86 258 160
396 187 70 14 218 12 293 -4z m1056 -20 c176 -56 318 -152 431 -291 68 -83
117 -178 155 -299 26 -80 29 -104 29 -225 0 -121 -3 -145 -29 -225 -93 -295
-293 -497 -586 -590 -111 -35 -271 -44 -379 -21 -41 8 -76 18 -78 20 -3 3 25
39 61 81 146 167 231 347 271 576 27 155 15 305 -41 487 -45 150 -119 281
-230 407 -36 42 -64 78 -61 81 2 3 33 11 68 19 102 23 283 14 389 -20z m-660
-175 c127 -110 211 -242 266 -415 26 -80 29 -104 29 -225 0 -121 -3 -145 -29
-225 -55 -174 -139 -305 -267 -416 l-59 -51 -59 51 c-128 111 -212 242 -267
416 -26 82 -29 103 -28 230 0 126 3 149 28 225 57 171 139 299 264 409 32 28
59 50 61 51 2 0 29 -23 61 -50z"/>
<path d="M13475 5101 c-26 -12 -208 -188 -531 -512 -535 -538 -529 -530 -504
-613 10 -35 85 -115 503 -535 519 -520 542 -540 613 -527 41 8 90 56 99 96 4
16 2 45 -4 62 -8 23 -151 173 -466 488 l-455 455 459 460 c503 504 493 491
456 568 -32 67 -102 91 -170 58z"/>
<path d="M5151 4122 c-36 -19 -71 -72 -71 -107 0 -35 35 -88 71 -107 32 -17
84 -18 1034 -18 950 0 1002 1 1034 18 36 19 71 72 71 107 0 35 -35 88 -71 107
-32 17 -84 18 -1034 18 -950 0 -1002 -1 -1034 -18z"/>
</g>
</svg>
