<?xml version="1.0" standalone="no"?>
<!DOCTYPE svg PUBLIC "-//W3C//DTD SVG 20010904//EN"
 "http://www.w3.org/TR/2001/REC-SVG-20010904/DTD/svg10.dtd">
<svg version="1.0" xmlns="http://www.w3.org/2000/svg"
 width="256pt" height="1000pt" viewBox="0 0 256 1000"
 preserveAspectRatio="xMidYMid meet">
<metadata>
Created by potrace 1.9, written by Peter Selinger 2001-2010
</metadata>
<g transform="translate(0,1000) scale(0.100000,-0.100000)"
fill="#000000" stroke="none">
<path d="M1231 6082 c-19 -10 -43 -34 -53 -53 -17 -32 -18 -73 -18 -691 l0
-657 -57 -5 c-119 -13 -209 -37 -302 -82 -80 -39 -109 -60 -176 -128 -129
-130 -193 -279 -216 -503 -20 -199 15 -403 102 -582 111 -228 286 -339 582
-366 l67 -7 0 -486 c0 -453 1 -490 18 -521 19 -36 72 -71 107 -71 35 0 88 35
107 71 17 31 18 69 18 541 l0 508 63 31 c161 81 267 208 333 401 l23 68 -37 9
c-119 31 -164 42 -166 39 -2 -2 -15 -38 -30 -81 -31 -86 -93 -177 -149 -220
l-37 -28 0 570 c0 342 4 571 9 571 21 0 102 -109 133 -177 18 -40 38 -72 43
-70 6 2 49 12 98 23 71 15 87 22 87 37 0 31 -64 158 -113 224 -48 64 -160 152
-223 175 l-34 12 0 681 c0 640 -1 682 -18 714 -19 36 -72 71 -107 71 -11 0
-36 -8 -54 -18z m-71 -2237 l0 -645 -55 0 c-68 0 -189 38 -255 80 -104 67
-167 161 -212 316 -20 69 -23 102 -23 249 0 186 12 253 66 373 70 155 247 269
422 271 l57 1 0 -645z"/>
</g>
</svg>
