<?xml version="1.0" standalone="no"?>
<!DOCTYPE svg PUBLIC "-//W3C//DTD SVG 20010904//EN"
 "http://www.w3.org/TR/2001/REC-SVG-20010904/DTD/svg10.dtd">
<svg version="1.0" xmlns="http://www.w3.org/2000/svg"
 width="1334pt" height="1000pt" viewBox="0 0 1334 1000"
 preserveAspectRatio="xMidYMid meet">
<metadata>
Created by potrace 1.9, written by Peter Selinger 2001-2010
</metadata>
<g transform="translate(0,1000) scale(0.100000,-0.100000)"
fill="#000000" stroke="none">
<path d="M6131 6082 c-19 -10 -43 -34 -53 -53 -17 -32 -18 -110 -18 -1854 l0
-1820 -887 887 c-972 970 -916 921 -996 883 -61 -29 -87 -88 -67 -152 10 -31
202 -228 994 -1022 967 -969 1021 -1020 1081 -1021 34 0 88 35 107 71 17 32
18 115 18 2014 0 1899 -1 1982 -18 2014 -19 36 -72 71 -107 71 -11 0 -36 -8
-54 -18z"/>
<path d="M2205 4121 c-57 -27 -1988 -1962 -2010 -2013 -8 -21 -15 -45 -15 -55
0 -33 36 -86 71 -105 32 -17 115 -18 2014 -18 1904 0 1982 1 2015 18 46 25 74
81 65 130 -6 33 -119 150 -1003 1036 -583 583 -1010 1004 -1029 1012 -42 18
-60 17 -108 -5z m885 -1116 l825 -825 -1655 0 -1655 0 825 825 c454 454 827
825 830 825 3 0 376 -371 830 -825z"/>
<path d="M7977 2659 c-338 -39 -643 -180 -875 -404 -99 -96 -117 -129 -101
-190 9 -33 70 -96 116 -120 24 -13 166 -15 999 -15 865 0 973 -2 984 -16 21
-25 168 -127 255 -178 170 -98 383 -164 599 -186 378 -39 790 84 1089 325 l67
55 978 0 c927 0 979 1 1011 18 91 49 89 172 -4 216 -30 15 -214 16 -1941 16
l-1907 0 -87 83 c-145 138 -342 258 -530 321 -221 74 -445 100 -653 75z m407
-264 c148 -31 372 -125 453 -191 l28 -23 -730 0 -730 0 28 23 c70 57 267 145
407 181 144 37 390 42 544 10z m2256 -479 c-51 -28 -217 -85 -295 -102 -99
-21 -377 -24 -475 -5 -79 16 -227 64 -295 96 l-50 23 570 1 c482 0 566 -2 545
-13z"/>
</g>
</svg>
