<?xml version="1.0" standalone="no"?>
<!DOCTYPE svg PUBLIC "-//W3C//DTD SVG 20010904//EN"
 "http://www.w3.org/TR/2001/REC-SVG-20010904/DTD/svg10.dtd">
<svg version="1.0" xmlns="http://www.w3.org/2000/svg"
 width="844pt" height="1000pt" viewBox="0 0 844 1000"
 preserveAspectRatio="xMidYMid meet">
<metadata>
Created by potrace 1.9, written by Peter Selinger 2001-2010
</metadata>
<g transform="translate(0,1000) scale(0.100000,-0.100000)"
fill="#000000" stroke="none">
<path d="M251 4122 c-36 -19 -71 -73 -71 -107 0 -11 9 -38 19 -60 27 -57 1962
-1988 2013 -2010 33 -13 260 -15 2013 -15 1671 0 1981 2 2008 14 19 8 446 429
1029 1012 1091 1093 1031 1027 993 1107 -18 39 -47 62 -89 73 -69 17 -62 24
-1076 -991 l-965 -965 -392 0 -393 0 0 41 c0 100 46 310 100 459 97 264 227
466 430 670 246 246 521 402 850 484 128 32 147 35 329 50 88 8 166 19 178 26
72 45 69 172 -5 212 -60 31 -354 5 -582 -52 -657 -165 -1197 -653 -1430 -1290
-57 -158 -120 -449 -120 -559 l0 -41 -855 0 -855 0 0 41 c0 100 46 310 100
459 97 264 227 466 430 670 246 246 521 402 850 484 128 32 147 35 329 50 88
8 166 19 178 26 72 45 69 172 -5 212 -60 31 -354 5 -582 -52 -657 -165 -1197
-653 -1430 -1290 -57 -158 -120 -449 -120 -559 l0 -41 -408 0 -407 0 -965 966
c-562 563 -978 972 -997 980 -43 18 -61 18 -102 -4z"/>
</g>
</svg>
