<?xml version="1.0" standalone="no"?>
<!DOCTYPE svg PUBLIC "-//W3C//DTD SVG 20010904//EN"
 "http://www.w3.org/TR/2001/REC-SVG-20010904/DTD/svg10.dtd">
<svg version="1.0" xmlns="http://www.w3.org/2000/svg"
 width="550pt" height="1000pt" viewBox="0 0 550 1000"
 preserveAspectRatio="xMidYMid meet">
<metadata>
Created by potrace 1.9, written by Peter Selinger 2001-2010
</metadata>
<g transform="translate(0,1000) scale(0.100000,-0.100000)"
fill="#000000" stroke="none">
<path d="M1110 5104 c-194 -35 -394 -125 -531 -240 -290 -242 -446 -650 -384
-1003 49 -279 185 -523 384 -685 145 -119 339 -206 536 -240 165 -29 325 -15
510 45 103 33 266 119 336 179 26 22 50 40 54 40 4 0 28 -18 54 -40 70 -60
233 -146 336 -179 244 -79 446 -79 690 0 103 33 266 119 336 179 26 22 50 40
54 40 4 0 28 -18 54 -40 70 -60 233 -146 336 -179 185 -60 345 -74 510 -45
489 85 833 432 920 925 61 347 -93 758 -373 994 -189 159 -473 265 -712 265
-92 0 -225 -23 -334 -56 -103 -33 -276 -123 -343 -180 -28 -24 -54 -44 -58
-44 -3 0 -28 18 -54 40 -70 60 -233 146 -336 179 -240 78 -440 79 -679 5 -103
-33 -276 -123 -343 -180 -28 -24 -54 -44 -58 -44 -3 0 -28 18 -54 40 -26 22
-93 65 -147 95 -219 122 -481 170 -704 129z m400 -269 c125 -40 226 -94 309
-165 l25 -21 -56 -107 c-119 -227 -161 -463 -123 -681 23 -131 62 -247 123
-363 l56 -107 -25 -21 c-82 -70 -182 -124 -309 -166 -77 -25 -98 -28 -230 -28
-132 0 -153 3 -230 28 -179 59 -319 154 -431 292 -68 82 -117 177 -155 299
-26 82 -29 103 -28 230 0 126 3 149 28 225 95 288 291 488 567 579 106 35 147
40 274 37 97 -3 136 -9 205 -31z m1470 0 c125 -40 226 -94 309 -165 l25 -21
-56 -107 c-119 -227 -161 -463 -123 -681 23 -131 62 -247 123 -363 l56 -107
-25 -21 c-82 -70 -182 -124 -309 -166 -77 -25 -98 -28 -230 -28 -132 0 -153 3
-230 28 -106 35 -220 93 -287 148 l-51 42 23 36 c104 164 175 405 175 590 0
185 -71 426 -175 590 l-23 36 57 46 c89 72 240 140 372 168 24 5 98 8 164 6
97 -3 136 -9 205 -31z m1470 0 c176 -56 318 -152 431 -291 68 -83 117 -178
155 -299 26 -80 29 -104 29 -225 0 -121 -3 -145 -29 -225 -93 -295 -290 -493
-586 -591 -77 -25 -98 -28 -230 -28 -132 0 -153 3 -230 28 -106 35 -220 93
-287 148 l-51 42 23 36 c104 164 175 405 175 590 0 185 -71 426 -175 590 l-23
36 57 46 c89 72 240 140 372 168 24 5 98 8 164 6 97 -3 137 -9 205 -31z
m-2358 -580 c31 -93 33 -110 33 -235 0 -125 -2 -142 -33 -235 -18 -55 -43
-120 -55 -143 l-23 -44 -31 69 c-63 137 -78 205 -78 353 0 148 15 215 78 353
l31 69 23 -44 c12 -23 37 -88 55 -143z m1470 0 c31 -93 33 -110 33 -235 0
-125 -2 -142 -33 -235 -18 -55 -43 -120 -55 -143 l-23 -44 -31 69 c-63 137
-78 205 -78 353 0 148 15 215 78 353 l31 69 23 -44 c12 -23 37 -88 55 -143z"/>
</g>
</svg>
