<?xml version="1.0" standalone="no"?>
<!DOCTYPE svg PUBLIC "-//W3C//DTD SVG 20010904//EN"
 "http://www.w3.org/TR/2001/REC-SVG-20010904/DTD/svg10.dtd">
<svg version="1.0" xmlns="http://www.w3.org/2000/svg"
 width="942pt" height="1000pt" viewBox="0 0 942 1000"
 preserveAspectRatio="xMidYMid meet">
<metadata>
Created by potrace 1.9, written by Peter Selinger 2001-2010
</metadata>
<g transform="translate(0,1000) scale(0.100000,-0.100000)"
fill="#000000" stroke="none">
<path d="M2205 6081 c-27 -13 -360 -340 -1022 -1002 -1072 -1074 -1021 -1018
-993 -1105 10 -32 192 -220 994 -1023 739 -741 992 -988 1025 -1003 54 -25
100 -18 140 22 35 36 46 78 32 122 -8 23 -287 310 -956 978 l-945 945 949 950
c1039 1040 984 978 946 1058 -32 67 -102 91 -170 58z"/>
<path d="M4165 6081 c-27 -13 -360 -340 -1022 -1002 -1072 -1074 -1021 -1018
-993 -1105 10 -32 192 -220 994 -1023 739 -741 992 -988 1025 -1003 54 -25
100 -18 140 22 35 36 46 78 32 122 -8 23 -287 310 -956 978 l-945 945 949 950
c1039 1040 984 978 946 1058 -32 67 -102 91 -170 58z"/>
<path d="M5151 6082 c-19 -10 -43 -34 -53 -53 -17 -32 -18 -115 -18 -2014 0
-1904 1 -1982 18 -2015 25 -46 81 -74 130 -65 33 6 150 119 1040 1008 711 711
1005 1011 1013 1035 24 74 64 31 -999 1096 -583 584 -1010 1004 -1029 1012
-43 18 -61 18 -102 -4z m1007 -1245 l822 -822 -825 -825 -825 -825 0 1648 c0
906 1 1647 3 1647 1 0 372 -370 825 -823z"/>
<path d="M8092 4124 c-18 -9 -41 -29 -51 -43 -41 -57 -991 -1973 -996 -2008
-16 -104 101 -175 190 -117 20 13 134 232 467 898 l440 881 438 -874 c321
-643 445 -881 466 -898 78 -62 184 -20 201 81 4 27 -69 179 -500 1042 -384
769 -512 1015 -532 1028 -39 25 -85 29 -123 10z"/>
</g>
</svg>
