<?xml version="1.0" standalone="no"?>
<!DOCTYPE svg PUBLIC "-//W3C//DTD SVG 20010904//EN"
 "http://www.w3.org/TR/2001/REC-SVG-20010904/DTD/svg10.dtd">
<svg version="1.0" xmlns="http://www.w3.org/2000/svg"
 width="1628pt" height="1000pt" viewBox="0 0 1628 1000"
 preserveAspectRatio="xMidYMid meet">
<metadata>
Created by potrace 1.9, written by Peter Selinger 2001-2010
</metadata>
<g transform="translate(0,1000) scale(0.100000,-0.100000)"
fill="#000000" stroke="none">
<path d="M13875 6094 c-684 -55 -1279 -418 -1631 -994 -148 -244 -241 -509
-280 -800 -9 -69 -19 -130 -23 -136 -3 -6 -14 -23 -24 -37 -26 -36 -25 -102 2
-138 17 -23 24 -52 31 -137 30 -335 127 -638 294 -911 326 -535 865 -890 1481
-975 277 -38 312 -38 590 0 615 85 1155 440 1481 975 199 326 298 686 298
1079 0 204 -15 323 -64 520 -165 656 -654 1197 -1290 1430 -108 39 -286 84
-416 104 -102 16 -357 27 -449 20z m25 -994 c0 -407 -2 -740 -5 -740 -2 0 -35
20 -72 44 -183 118 -391 187 -649 217 -272 31 -621 -40 -858 -176 -44 -25 -81
-44 -82 -42 -2 1 6 36 16 77 39 150 120 346 196 473 146 242 399 495 641 641
218 130 561 241 761 245 l52 1 0 -740z m393 729 c215 -32 478 -126 660 -235
297 -179 575 -484 717 -786 101 -216 154 -417 174 -659 4 -55 3 -58 -32 -91
-132 -125 -357 -238 -567 -284 -98 -21 -377 -24 -475 -5 -173 34 -372 120
-505 218 -125 93 -115 6 -115 1007 l0 846 36 0 c19 0 68 -5 107 -11z m-1009
-1474 c212 -44 423 -150 574 -288 l42 -40 0 -913 0 -914 -41 0 c-148 0 -422
74 -627 170 -358 168 -694 504 -862 862 -108 232 -160 439 -176 699 l-7 116
74 61 c162 134 398 235 610 261 101 13 318 6 413 -14z m1105 -726 c444 -195
969 -161 1389 92 l53 31 -6 -38 c-26 -146 -86 -334 -155 -482 -168 -358 -504
-694 -862 -862 -202 -94 -479 -170 -622 -170 l-36 0 0 780 0 780 76 -47 c42
-25 115 -63 163 -84z"/>
<path d="M251 4122 c-36 -19 -71 -72 -71 -107 0 -35 35 -88 71 -107 31 -17 65
-18 431 -18 l398 0 -445 -890 c-246 -492 -447 -906 -450 -927 -16 -104 101
-175 190 -117 20 13 134 232 467 898 l440 881 439 -877 c478 -955 459 -923
544 -923 22 0 53 9 68 19 23 15 124 209 469 900 l440 881 438 -874 c321 -643
445 -881 466 -898 78 -62 184 -20 201 81 4 27 -61 164 -446 934 -248 496 -451
904 -451 907 0 3 179 5 398 5 366 0 400 1 431 18 36 19 71 72 71 107 0 35 -35
88 -71 107 -32 17 -115 18 -2014 18 -1899 0 -1982 -1 -2014 -18z m2403 -1004
c-212 -425 -388 -775 -390 -777 -3 -3 -774 1534 -774 1544 0 3 349 5 775 5
l775 0 -386 -772z"/>
<path d="M6010 4124 c-270 -49 -508 -184 -674 -383 -76 -91 -164 -253 -200
-368 -53 -171 -69 -347 -35 -401 43 -68 165 -68 208 0 7 12 17 65 22 119 34
365 263 647 619 765 77 25 98 28 230 28 132 0 153 -3 230 -28 122 -41 225 -96
305 -164 188 -159 292 -361 315 -614 23 -248 62 -397 147 -558 157 -299 445
-502 798 -564 364 -64 780 97 1017 394 153 190 228 402 258 728 35 378 258
658 620 778 77 25 98 28 230 28 132 0 153 -3 230 -28 183 -61 317 -152 431
-292 104 -127 171 -298 188 -473 5 -54 15 -107 22 -119 43 -68 165 -68 208 0
51 83 -5 375 -111 580 -160 308 -444 509 -804 572 -223 39 -459 -2 -683 -121
-192 -100 -344 -252 -444 -444 -86 -162 -123 -304 -147 -553 -35 -381 -259
-663 -620 -782 -77 -25 -98 -28 -230 -28 -132 0 -153 3 -230 28 -179 59 -319
154 -431 292 -106 130 -172 299 -189 490 -27 284 -81 461 -195 639 -222 347
-685 552 -1085 479z"/>
</g>
</svg>
