<?xml version="1.0" standalone="no"?>
<!DOCTYPE svg PUBLIC "-//W3C//DTD SVG 20010904//EN"
 "http://www.w3.org/TR/2001/REC-SVG-20010904/DTD/svg10.dtd">
<svg version="1.0" xmlns="http://www.w3.org/2000/svg"
 width="1138pt" height="1000pt" viewBox="0 0 1138 1000"
 preserveAspectRatio="xMidYMid meet">
<metadata>
Created by potrace 1.9, written by Peter Selinger 2001-2010
</metadata>
<g transform="translate(0,1000) scale(0.100000,-0.100000)"
fill="#000000" stroke="none">
<path d="M3191 6082 c-19 -10 -43 -34 -53 -53 -17 -32 -18 -113 -18 -1941 l0
-1908 -438 0 c-404 0 -440 -1 -471 -18 -36 -19 -71 -72 -71 -107 0 -35 35 -88
71 -107 32 -17 84 -18 1034 -18 950 0 1002 1 1034 18 36 19 71 72 71 107 0 35
-35 88 -71 107 -31 17 -67 18 -471 18 l-438 0 0 1908 c0 1828 -1 1909 -18
1941 -19 36 -72 71 -107 71 -11 0 -36 -8 -54 -18z"/>
<path d="M1225 5101 c-26 -12 -208 -188 -531 -512 -535 -538 -529 -530 -504
-613 10 -35 85 -115 503 -535 519 -520 542 -540 613 -527 41 8 90 56 99 96 4
16 2 45 -4 62 -8 23 -151 173 -466 488 l-455 455 459 460 c503 504 493 491
456 568 -32 67 -102 91 -170 58z"/>
<path d="M5151 5102 c-36 -19 -71 -73 -71 -107 1 -57 49 -111 479 -540 l441
-440 -449 -450 c-468 -470 -483 -487 -466 -552 16 -67 79 -110 143 -98 32 5
105 74 550 518 358 358 515 522 523 544 24 73 30 65 -509 607 -290 290 -521
514 -539 522 -43 18 -61 18 -102 -4z"/>
<path d="M8091 5102 c-71 -38 -71 -35 -71 -524 l0 -438 -438 0 c-404 0 -440
-1 -471 -18 -36 -19 -71 -72 -71 -107 0 -35 35 -88 71 -107 31 -17 67 -18 471
-18 l438 0 0 -438 c0 -489 0 -486 71 -524 42 -23 66 -23 108 0 71 38 71 35 71
524 l0 438 438 0 c489 0 486 0 524 71 23 42 23 66 0 108 -38 71 -35 71 -524
71 l-438 0 0 438 c0 404 -1 440 -18 471 -19 36 -72 71 -107 71 -11 0 -36 -8
-54 -18z"/>
<path d="M10051 5102 c-19 -10 -43 -34 -53 -53 -17 -32 -18 -77 -18 -789 0
-712 1 -757 18 -789 19 -36 72 -71 107 -71 35 0 88 35 107 71 17 32 18 77 18
789 0 712 -1 757 -18 789 -19 36 -72 71 -107 71 -11 0 -36 -8 -54 -18z"/>
<path d="M10063 3173 c-33 -6 -79 -57 -86 -92 -26 -127 122 -210 212 -120 43
42 49 93 18 156 -20 42 -87 68 -144 56z"/>
</g>
</svg>
