<?xml version="1.0" standalone="no"?>
<!DOCTYPE svg PUBLIC "-//W3C//DTD SVG 20010904//EN"
 "http://www.w3.org/TR/2001/REC-SVG-20010904/DTD/svg10.dtd">
<svg version="1.0" xmlns="http://www.w3.org/2000/svg"
 width="256pt" height="1000pt" viewBox="0 0 256 1000"
 preserveAspectRatio="xMidYMid meet">
<metadata>
Created by potrace 1.9, written by Peter Selinger 2001-2010
</metadata>
<g transform="translate(0,1000) scale(0.100000,-0.100000)"
fill="#000000" stroke="none">
<path d="M238 4123 c-46 -29 -53 -56 -51 -182 2 -136 23 -282 63 -441 204
-811 885 -1420 1715 -1534 254 -35 315 -38 353 -18 19 10 43 33 54 52 17 33
18 82 18 1035 0 950 -1 1002 -18 1034 -10 19 -34 43 -53 53 -32 17 -84 18
-1044 18 -924 -1 -1012 -2 -1037 -17z m1902 -1078 l0 -845 -41 0 c-148 0 -422
74 -627 170 -358 168 -694 504 -862 862 -94 202 -170 479 -170 622 l0 36 850
0 850 0 0 -845z"/>
</g>
</svg>
