<?xml version="1.0" standalone="no"?>
<!DOCTYPE svg PUBLIC "-//W3C//DTD SVG 20010904//EN"
 "http://www.w3.org/TR/2001/REC-SVG-20010904/DTD/svg10.dtd">
<svg version="1.0" xmlns="http://www.w3.org/2000/svg"
 width="1040pt" height="1000pt" viewBox="0 0 1040 1000"
 preserveAspectRatio="xMidYMid meet">
<metadata>
Created by potrace 1.9, written by Peter Selinger 2001-2010
</metadata>
<g transform="translate(0,1000) scale(0.100000,-0.100000)"
fill="#000000" stroke="none">
<path d="M2115 6094 c-684 -55 -1279 -418 -1631 -994 -143 -235 -234 -491
-279 -780 -21 -137 -25 -328 -7 -362 40 -74 167 -77 212 -5 7 12 18 90 26 178
15 182 18 201 50 329 82 329 238 604 484 850 241 241 514 398 835 481 81 21
237 50 243 44 2 -1 -416 -840 -927 -1864 -527 -1052 -933 -1877 -936 -1898 -8
-49 19 -100 66 -125 32 -17 115 -18 2014 -18 1899 0 1982 1 2014 18 37 20 71
72 71 109 0 13 -423 869 -940 1904 -649 1296 -935 1879 -923 1876 10 -3 41 -8
68 -12 180 -24 463 -126 638 -231 242 -146 495 -399 641 -641 81 -135 159
-328 200 -493 32 -128 35 -147 50 -329 8 -88 19 -166 26 -178 45 -72 172 -69
212 5 18 34 14 225 -7 362 -71 458 -269 853 -585 1170 -378 377 -876 590
-1416 604 -82 2 -171 2 -199 0z m152 -3912 c-963 -1 -1752 0 -1754 2 -2 2 390
793 873 1757 l877 1754 877 -1755 878 -1755 -1751 -3z"/>
<path d="M9065 6081 c-28 -13 -634 -614 -2001 -1982 -2065 -2067 -1997 -1996
-1979 -2066 16 -67 79 -110 143 -98 33 5 255 224 1905 1873 l1867 1867 0 -768
0 -767 -438 0 c-489 0 -486 0 -524 -71 -17 -32 -18 -84 -18 -1034 0 -950 1
-1002 18 -1034 10 -19 34 -43 53 -53 32 -17 84 -18 1034 -18 950 0 1002 1
1034 18 19 10 43 34 53 53 17 32 18 84 18 1034 0 950 -1 1002 -18 1034 -38 71
-35 71 -524 71 l-438 0 0 928 c0 879 -1 929 -18 961 -19 36 -73 71 -107 71
-11 0 -38 -9 -60 -19z m915 -3046 l0 -855 -855 0 -855 0 0 855 0 855 855 0
855 0 0 -855z"/>
</g>
</svg>
