<?xml version="1.0" standalone="no"?>
<!DOCTYPE svg PUBLIC "-//W3C//DTD SVG 20010904//EN"
 "http://www.w3.org/TR/2001/REC-SVG-20010904/DTD/svg10.dtd">
<svg version="1.0" xmlns="http://www.w3.org/2000/svg"
 width="452pt" height="1000pt" viewBox="0 0 452 1000"
 preserveAspectRatio="xMidYMid meet">
<metadata>
Created by potrace 1.9, written by Peter Selinger 2001-2010
</metadata>
<g transform="translate(0,1000) scale(0.100000,-0.100000)"
fill="#000000" stroke="none">
<path d="M3095 6093 c-159 -10 -418 -66 -575 -123 -565 -207 -1023 -665 -1230
-1230 -58 -161 -120 -449 -120 -562 l0 -45 -70 -12 c-177 -29 -385 -124 -521
-237 -290 -242 -446 -650 -384 -1003 49 -279 185 -523 384 -685 145 -119 339
-206 536 -240 114 -20 216 -20 330 0 330 58 617 248 768 511 23 40 44 72 47
73 3 0 19 -26 35 -57 43 -81 159 -218 243 -287 147 -119 340 -206 537 -240
114 -20 216 -20 330 0 489 85 833 432 920 925 61 347 -93 758 -373 994 -147
124 -345 214 -547 249 -102 18 -115 27 -204 146 -101 135 -180 313 -218 492
-24 115 -24 370 1 488 45 214 152 429 286 574 80 87 90 104 90 158 0 41 -5 52
-35 83 -35 34 -38 35 -108 33 -40 -1 -94 -3 -122 -5z m-185 -341 c-127 -215
-193 -469 -194 -747 0 -323 80 -582 267 -866 l18 -26 -88 -28 c-120 -36 -281
-123 -374 -201 -92 -77 -193 -195 -240 -281 -19 -35 -36 -63 -39 -63 -3 1 -24
33 -47 73 -89 155 -227 287 -400 383 -95 52 -235 105 -318 119 -75 13 -75 13
-75 61 0 105 45 313 100 464 97 264 227 466 430 670 204 203 406 333 670 430
108 39 315 92 328 84 2 -2 -15 -34 -38 -72z m-1400 -1897 c176 -56 318 -152
431 -291 68 -83 117 -178 155 -299 26 -80 29 -104 29 -225 0 -121 -3 -145 -29
-225 -93 -295 -290 -493 -586 -591 -77 -25 -98 -28 -230 -28 -132 0 -153 3
-230 28 -179 59 -319 154 -431 292 -68 82 -117 177 -155 299 -26 82 -29 103
-28 230 0 126 3 149 28 225 95 288 291 488 567 579 106 35 147 40 274 37 97
-3 137 -9 205 -31z m1960 0 c176 -56 318 -152 431 -291 68 -83 117 -178 155
-299 26 -80 29 -104 29 -225 0 -121 -3 -145 -29 -225 -93 -295 -290 -493 -586
-591 -77 -25 -98 -28 -230 -28 -132 0 -153 3 -230 28 -179 59 -319 154 -431
292 -68 82 -117 177 -155 299 -26 82 -29 103 -28 230 0 126 3 149 28 225 95
288 291 488 567 579 106 35 147 40 274 37 97 -3 137 -9 205 -31z"/>
<path d="M1233 3649 c-40 -12 -129 -117 -178 -211 -162 -307 -127 -651 92
-920 54 -66 89 -88 142 -88 40 0 76 29 132 105 205 280 231 604 74 904 -54
103 -136 198 -182 210 -21 6 -40 11 -43 10 -3 0 -19 -5 -37 -10z m89 -439 c17
-51 22 -87 22 -165 0 -99 -7 -134 -47 -228 -20 -48 -21 -48 -33 -25 -38 68
-58 154 -58 253 0 100 7 133 47 228 20 48 21 48 33 25 7 -12 23 -52 36 -88z"/>
<path d="M3193 3649 c-40 -12 -129 -117 -178 -211 -162 -307 -127 -651 92
-920 54 -66 89 -88 142 -88 40 0 76 29 132 105 205 280 231 604 74 903 -53
101 -137 199 -183 212 -20 5 -39 10 -42 9 -3 0 -19 -5 -37 -10z m89 -439 c17
-51 22 -87 22 -165 0 -99 -7 -134 -47 -228 -20 -48 -21 -48 -33 -25 -38 68
-58 154 -58 253 0 100 7 133 47 228 20 48 21 48 33 25 7 -12 23 -52 36 -88z"/>
</g>
</svg>
