<?xml version="1.0" standalone="no"?>
<!DOCTYPE svg PUBLIC "-//W3C//DTD SVG 20010904//EN"
 "http://www.w3.org/TR/2001/REC-SVG-20010904/DTD/svg10.dtd">
<svg version="1.0" xmlns="http://www.w3.org/2000/svg"
 width="1236pt" height="1000pt" viewBox="0 0 1236 1000"
 preserveAspectRatio="xMidYMid meet">
<metadata>
Created by potrace 1.9, written by Peter Selinger 2001-2010
</metadata>
<g transform="translate(0,1000) scale(0.100000,-0.100000)"
fill="#000000" stroke="none">
<path d="M265 6092 c-33 -12 -51 -26 -68 -53 -16 -24 -17 -178 -17 -2019 0
-1982 0 -1993 20 -2025 11 -18 36 -40 54 -49 37 -17 86 -14 341 20 615 84
1154 439 1481 974 199 327 298 686 298 1080 0 562 -212 1078 -604 1470 -316
315 -715 515 -1165 584 -118 18 -312 28 -340 18z m308 -263 c215 -32 478 -126
660 -235 242 -146 495 -399 641 -641 110 -184 201 -440 237 -668 16 -103 16
-427 0 -530 -36 -228 -127 -484 -237 -668 -146 -242 -399 -495 -641 -641 -216
-129 -579 -246 -767 -246 l-36 0 0 1820 0 1820 36 0 c19 0 68 -5 107 -11z"/>
<path d="M3191 6082 c-19 -10 -43 -34 -53 -53 -17 -32 -18 -115 -18 -2014 0
-1899 1 -1982 18 -2014 19 -36 72 -71 107 -71 35 0 88 35 107 71 17 32 18 82
18 961 l0 928 1742 0 1743 0 -387 -387 c-405 -408 -418 -423 -403 -493 8 -39
56 -87 95 -95 16 -4 45 -2 63 4 22 8 186 165 544 523 544 546 538 538 514 611
-8 22 -165 186 -523 544 -445 444 -518 513 -550 518 -64 12 -127 -31 -143 -98
-17 -64 1 -86 403 -489 l387 -388 -1743 0 -1742 0 0 928 c0 879 -1 929 -18
961 -19 36 -72 71 -107 71 -11 0 -36 -8 -54 -18z"/>
<path d="M10051 6082 c-19 -10 -43 -34 -53 -53 -17 -32 -18 -79 -18 -851 0
-450 -2 -818 -5 -818 -2 0 -35 20 -72 44 -254 163 -607 248 -910 218 -288 -29
-490 -101 -728 -258 -121 -80 -274 -227 -284 -274 -21 -96 61 -174 154 -149
22 6 66 39 118 87 150 142 262 212 438 276 158 57 233 69 424 69 191 0 266
-12 424 -69 157 -57 286 -133 399 -237 l42 -40 0 -836 0 -836 -397 397 c-436
435 -430 430 -506 393 -61 -29 -87 -88 -67 -152 17 -53 973 -1015 1039 -1045
88 -40 61 -62 629 505 358 358 515 522 523 544 6 18 8 47 4 63 -8 39 -56 87
-95 95 -70 15 -85 2 -492 -403 l-388 -387 0 697 0 698 76 -47 c546 -331 1281
-263 1764 162 83 74 100 100 100 159 0 39 -5 51 -35 81 -30 30 -42 35 -81 35
-48 0 -104 -30 -154 -85 -106 -114 -365 -245 -575 -291 -98 -21 -377 -24 -475
-5 -173 34 -372 120 -505 218 -125 93 -115 -5 -115 1084 0 876 -1 926 -18 958
-19 36 -72 71 -107 71 -11 0 -36 -8 -54 -18z"/>
</g>
</svg>
