<?xml version="1.0" standalone="no"?>
<!DOCTYPE svg PUBLIC "-//W3C//DTD SVG 20010904//EN"
 "http://www.w3.org/TR/2001/REC-SVG-20010904/DTD/svg10.dtd">
<svg version="1.0" xmlns="http://www.w3.org/2000/svg"
 width="1628pt" height="1000pt" viewBox="0 0 1628 1000"
 preserveAspectRatio="xMidYMid meet">
<metadata>
Created by potrace 1.9, written by Peter Selinger 2001-2010
</metadata>
<g transform="translate(0,1000) scale(0.100000,-0.100000)"
fill="#000000" stroke="none">
<path d="M11025 6081 c-28 -13 -345 -325 -1021 -1002 -792 -794 -984 -991
-994 -1022 -20 -64 6 -123 67 -152 80 -38 18 -93 1055 943 l948 947 942 -941
c761 -760 950 -944 981 -954 64 -20 123 6 152 67 38 80 98 14 -993 1107 -583
583 -1010 1004 -1029 1012 -42 18 -60 17 -108 -5z"/>
<path d="M14951 6082 c-71 -38 -71 -35 -71 -524 l0 -438 -438 0 c-404 0 -440
-1 -471 -18 -36 -19 -71 -72 -71 -107 0 -35 35 -88 71 -107 31 -17 67 -18 471
-18 l438 0 0 -1418 c0 -1354 1 -1419 18 -1451 19 -36 72 -71 107 -71 35 0 88
35 107 71 17 32 18 97 18 1451 l0 1418 438 0 c404 0 440 1 471 18 36 19 71 72
71 107 0 35 -35 88 -71 107 -31 17 -67 18 -471 18 l-438 0 0 438 c0 404 -1
440 -18 471 -19 36 -72 71 -107 71 -11 0 -36 -8 -54 -18z"/>
<path d="M11031 5102 c-70 -37 -71 -45 -71 -436 l0 -350 -152 151 c-125 124
-160 153 -190 158 -64 12 -127 -31 -143 -98 -15 -59 10 -95 221 -307 l204
-205 -200 -200 c-209 -209 -240 -252 -226 -311 17 -68 80 -111 144 -99 30 5
65 34 190 158 l152 151 0 -350 c0 -391 1 -399 71 -436 42 -23 66 -23 108 0 70
37 71 46 71 431 l0 345 143 -141 c149 -147 187 -171 247 -158 39 8 87 56 95
95 13 60 -8 88 -225 305 l-210 210 214 215 c180 180 216 221 221 252 12 64
-31 127 -98 143 -55 14 -97 -13 -244 -158 l-143 -141 0 345 c0 314 -2 347 -18
378 -19 36 -72 71 -107 71 -11 0 -36 -8 -54 -18z"/>
<path d="M251 4122 c-36 -19 -71 -73 -71 -107 0 -11 9 -38 19 -60 27 -57 1962
-1988 2013 -2010 33 -13 260 -15 2013 -15 1671 0 1981 2 2008 14 19 8 446 429
1029 1012 1091 1093 1031 1027 993 1107 -29 61 -88 87 -152 67 -31 -10 -211
-185 -929 -902 -702 -701 -893 -887 -897 -872 -3 11 -9 39 -12 64 -11 77 -63
271 -95 360 -184 503 -569 925 -1055 1156 -280 133 -574 198 -895 198 -204 0
-323 -15 -520 -64 -657 -165 -1197 -653 -1430 -1290 -32 -89 -84 -283 -95
-360 -3 -25 -9 -53 -12 -64 -4 -15 -194 170 -897 872 -502 502 -903 896 -919
902 -39 14 -57 13 -96 -8z m4242 -253 c215 -32 478 -126 660 -235 242 -146
495 -399 641 -641 131 -219 246 -579 246 -772 l0 -41 -1820 0 -1820 0 0 41 c0
148 74 422 170 627 168 359 503 694 862 862 210 98 418 154 648 174 73 6 334
-3 413 -15z"/>
</g>
</svg>
