<?xml version="1.0" standalone="no"?>
<!DOCTYPE svg PUBLIC "-//W3C//DTD SVG 20010904//EN"
 "http://www.w3.org/TR/2001/REC-SVG-20010904/DTD/svg10.dtd">
<svg version="1.0" xmlns="http://www.w3.org/2000/svg"
 width="942pt" height="1000pt" viewBox="0 0 942 1000"
 preserveAspectRatio="xMidYMid meet">
<metadata>
Created by potrace 1.9, written by Peter Selinger 2001-2010
</metadata>
<g transform="translate(0,1000) scale(0.100000,-0.100000)"
fill="#000000" stroke="none">
<path d="M7112 8044 c-18 -9 -41 -29 -51 -43 -41 -58 -1971 -3933 -1976 -3968
-8 -49 19 -100 66 -125 31 -17 65 -18 431 -18 l398 0 -445 -890 c-246 -492
-447 -906 -450 -927 -8 -49 19 -100 66 -125 32 -17 115 -18 2014 -18 1899 0
1982 1 2014 18 37 20 71 72 71 109 0 12 -202 428 -450 923 -247 495 -450 902
-450 905 0 3 179 5 398 5 366 0 400 1 431 18 37 20 71 72 71 109 0 13 -447
918 -994 2011 -764 1527 -1000 1993 -1021 2006 -39 25 -85 29 -123 10z m932
-2151 l876 -1753 -350 0 -350 0 -479 958 c-377 753 -485 963 -508 978 -15 10
-46 19 -68 19 -85 0 -63 38 -583 -1001 l-477 -954 -347 0 c-192 0 -348 2 -348
5 0 10 1751 3507 1754 3504 2 -2 398 -793 880 -1756z m-877 -3711 c-963 -1
-1752 0 -1754 2 -2 2 390 793 873 1757 l877 1754 877 -1755 878 -1755 -1751
-3z"/>
<path d="M2205 6081 c-57 -27 -1988 -1962 -2010 -2013 -13 -33 -15 -161 -15
-1035 0 -948 1 -1000 18 -1032 10 -19 34 -43 53 -53 32 -17 115 -18 2014 -18
1899 0 1982 1 2014 18 19 10 43 34 53 53 17 32 18 84 18 1032 0 834 -2 1003
-14 1030 -18 42 -1991 2013 -2029 2027 -39 14 -56 13 -102 -9z m977 -1208
l918 -918 0 -887 0 -888 -1835 0 -1835 0 0 892 0 893 912 912 c502 502 915
913 918 913 3 0 418 -413 922 -917z"/>
</g>
</svg>
