<?xml version="1.0" standalone="no"?>
<!DOCTYPE svg PUBLIC "-//W3C//DTD SVG 20010904//EN"
 "http://www.w3.org/TR/2001/REC-SVG-20010904/DTD/svg10.dtd">
<svg version="1.0" xmlns="http://www.w3.org/2000/svg"
 width="452pt" height="1000pt" viewBox="0 0 452 1000"
 preserveAspectRatio="xMidYMid meet">
<metadata>
Created by potrace 1.9, written by Peter Selinger 2001-2010
</metadata>
<g transform="translate(0,1000) scale(0.100000,-0.100000)"
fill="#000000" stroke="none">
<path d="M2211 6082 c-19 -10 -43 -34 -53 -53 -17 -32 -18 -83 -18 -1006 l0
-973 -467 -935 -468 -935 -460 0 c-427 0 -463 -1 -494 -18 -36 -19 -71 -72
-71 -107 0 -35 35 -88 71 -107 32 -17 115 -18 2014 -18 1899 0 1982 1 2014 18
36 19 71 72 71 107 0 35 -35 88 -71 107 -31 17 -67 18 -496 18 l-463 0 -465
930 -465 930 0 978 c0 927 -1 979 -18 1011 -19 36 -72 71 -107 71 -11 0 -36
-8 -54 -18z m56 -3900 c-424 -1 -772 0 -774 2 -2 2 170 352 383 777 l387 774
387 -775 388 -775 -771 -3z"/>
</g>
</svg>
