<?xml version="1.0" standalone="no"?>
<!DOCTYPE svg PUBLIC "-//W3C//DTD SVG 20010904//EN"
 "http://www.w3.org/TR/2001/REC-SVG-20010904/DTD/svg10.dtd">
<svg version="1.0" xmlns="http://www.w3.org/2000/svg"
 width="1628pt" height="1000pt" viewBox="0 0 1628 1000"
 preserveAspectRatio="xMidYMid meet">
<metadata>
Created by potrace 1.9, written by Peter Selinger 2001-2010
</metadata>
<g transform="translate(0,1000) scale(0.100000,-0.100000)"
fill="#000000" stroke="none">
<path d="M1231 6082 c-19 -10 -43 -34 -53 -53 -17 -32 -18 -113 -18 -1941 l0
-1908 -438 0 c-404 0 -440 -1 -471 -18 -36 -19 -71 -72 -71 -107 0 -35 35 -88
71 -107 32 -17 84 -18 1034 -18 950 0 1002 1 1034 18 36 19 71 72 71 107 0 35
-35 88 -71 107 -31 17 -67 18 -471 18 l-438 0 0 1908 c0 1828 -1 1909 -18
1941 -19 36 -72 71 -107 71 -11 0 -36 -8 -54 -18z"/>
<path d="M5055 6094 c-684 -55 -1279 -418 -1631 -994 -143 -235 -234 -491
-279 -780 -21 -137 -25 -328 -7 -362 40 -74 167 -77 212 -5 7 12 18 90 26 178
15 182 18 201 50 329 82 329 238 604 484 850 246 246 519 401 850 485 155 39
245 49 440 49 195 0 285 -10 440 -49 331 -84 604 -239 850 -485 246 -246 402
-521 484 -850 32 -128 35 -147 50 -329 8 -88 19 -166 26 -178 45 -72 172 -69
212 5 18 34 14 225 -7 362 -71 458 -269 853 -585 1170 -378 377 -876 590
-1416 604 -82 2 -171 2 -199 0z"/>
<path d="M5145 4121 c-57 -27 -1988 -1962 -2010 -2013 -8 -21 -15 -45 -15 -55
0 -33 36 -86 71 -105 32 -17 115 -18 2014 -18 1904 0 1982 1 2015 18 46 25 74
81 65 130 -6 33 -119 150 -1003 1036 -583 583 -1010 1004 -1029 1012 -42 18
-60 17 -108 -5z m885 -1116 l825 -825 -1655 0 -1655 0 825 825 c454 454 827
825 830 825 3 0 376 -371 830 -825z"/>
<path d="M11915 4134 c-172 -14 -419 -67 -575 -124 -565 -207 -1023 -665
-1230 -1230 -57 -158 -120 -449 -120 -559 l0 -41 -933 0 c-884 0 -934 -1 -966
-18 -36 -19 -71 -72 -71 -107 0 -35 35 -88 71 -107 32 -17 84 -18 1034 -18
950 0 1002 1 1034 18 53 29 67 66 75 199 12 204 44 361 106 533 97 264 227
466 430 670 246 246 519 401 850 485 155 39 245 49 440 49 195 0 285 -10 440
-49 331 -84 604 -239 850 -485 246 -246 402 -521 484 -850 32 -128 35 -147 50
-329 8 -94 19 -166 27 -179 8 -13 32 -31 55 -42 39 -20 65 -20 1040 -20 949 0
1001 1 1033 18 36 19 71 72 71 107 0 35 -35 88 -71 107 -32 17 -82 18 -971 18
l-938 0 0 41 c0 110 -63 401 -120 559 -207 565 -665 1023 -1230 1230 -108 39
-286 84 -416 104 -102 16 -357 27 -449 20z"/>
</g>
</svg>
