<?xml version="1.0" standalone="no"?>
<!DOCTYPE svg PUBLIC "-//W3C//DTD SVG 20010904//EN"
 "http://www.w3.org/TR/2001/REC-SVG-20010904/DTD/svg10.dtd">
<svg version="1.0" xmlns="http://www.w3.org/2000/svg"
 width="1530pt" height="1000pt" viewBox="0 0 1530 1000"
 preserveAspectRatio="xMidYMid meet">
<metadata>
Created by potrace 1.9, written by Peter Selinger 2001-2010
</metadata>
<g transform="translate(0,1000) scale(0.100000,-0.100000)"
fill="#000000" stroke="none">
<path d="M4171 6082 c-19 -10 -43 -34 -53 -53 -17 -32 -18 -113 -18 -1941 l0
-1908 -438 0 c-404 0 -440 -1 -471 -18 -36 -19 -71 -72 -71 -107 0 -35 35 -88
71 -107 32 -17 84 -18 1034 -18 950 0 1002 1 1034 18 36 19 71 72 71 107 0 35
-35 88 -71 107 -31 17 -67 18 -471 18 l-438 0 0 1908 c0 1828 -1 1909 -18
1941 -19 36 -72 71 -107 71 -11 0 -36 -8 -54 -18z"/>
<path d="M8091 6082 c-19 -10 -43 -34 -53 -53 -17 -32 -18 -110 -18 -1854 l0
-1820 -397 397 c-343 342 -403 398 -435 403 -64 12 -127 -31 -143 -98 -16 -64
2 -87 383 -469 l365 -367 -94 24 c-167 43 -358 121 -492 201 -240 145 -495
400 -640 641 -82 135 -160 327 -201 493 -32 128 -35 147 -50 329 -8 88 -19
166 -26 178 -45 72 -172 69 -212 -5 -31 -60 -5 -354 52 -582 204 -811 885
-1420 1715 -1534 277 -38 312 -38 590 0 615 85 1155 440 1481 975 143 234 234
490 279 779 21 137 25 328 7 362 -40 74 -167 77 -212 5 -7 -12 -18 -90 -26
-178 -15 -182 -18 -201 -50 -329 -82 -330 -242 -610 -493 -859 -239 -238 -512
-392 -840 -476 l-94 -24 376 377 c323 325 377 382 382 414 12 64 -31 127 -98
143 -64 17 -86 -1 -489 -403 l-388 -387 0 1815 c0 1739 -1 1817 -18 1849 -19
36 -72 71 -107 71 -11 0 -36 -8 -54 -18z"/>
<path d="M12895 6094 c-172 -14 -419 -67 -575 -124 -631 -231 -1120 -769
-1286 -1415 -70 -271 -67 -205 -71 -1420 -4 -1057 -3 -1101 15 -1134 10 -19
34 -43 53 -53 32 -17 115 -18 2014 -18 1899 0 1982 1 2014 18 19 10 43 34 53
53 17 32 18 84 18 1014 0 975 -2 1051 -36 1300 -85 616 -439 1154 -974 1481
-234 142 -489 233 -776 278 -102 16 -357 27 -449 20z m418 -265 c215 -32 478
-126 660 -235 242 -146 495 -399 641 -641 77 -128 158 -324 197 -476 62 -244
69 -380 69 -1414 l0 -883 -1836 0 -1835 0 4 1028 c3 872 6 1039 20 1107 78
409 238 716 517 995 318 317 699 495 1150 534 73 6 334 -3 413 -15z"/>
<path d="M251 4122 c-36 -19 -71 -73 -71 -107 1 -57 49 -111 479 -540 l441
-440 -449 -450 c-468 -470 -483 -487 -466 -552 16 -67 79 -110 143 -98 32 5
98 68 494 463 l458 457 452 -452 c473 -470 490 -485 555 -468 67 16 110 79 98
143 -5 32 -68 99 -466 497 l-459 460 455 455 c315 315 458 465 466 488 6 17 8
46 4 62 -8 39 -56 87 -95 95 -70 15 -82 6 -558 -469 l-452 -451 -453 452
c-248 249 -465 457 -480 463 -39 14 -57 13 -96 -8z"/>
</g>
</svg>
