<?xml version="1.0" standalone="no"?>
<!DOCTYPE svg PUBLIC "-//W3C//DTD SVG 20010904//EN"
 "http://www.w3.org/TR/2001/REC-SVG-20010904/DTD/svg10.dtd">
<svg version="1.0" xmlns="http://www.w3.org/2000/svg"
 width="746pt" height="1000pt" viewBox="0 0 746 1000"
 preserveAspectRatio="xMidYMid meet">
<metadata>
Created by potrace 1.9, written by Peter Selinger 2001-2010
</metadata>
<g transform="translate(0,1000) scale(0.100000,-0.100000)"
fill="#000000" stroke="none">
<path d="M1110 6084 c-194 -35 -394 -125 -531 -240 -290 -242 -446 -650 -384
-1003 49 -279 185 -523 384 -685 145 -119 339 -206 536 -240 114 -20 216 -20
330 0 489 85 833 432 920 925 61 347 -93 758 -373 994 -241 203 -592 302 -882
249z m400 -269 c176 -56 318 -152 431 -291 68 -83 117 -178 155 -299 26 -80
29 -104 29 -225 0 -121 -3 -145 -29 -225 -93 -295 -290 -493 -586 -591 -77
-25 -98 -28 -230 -28 -132 0 -153 3 -230 28 -179 59 -319 154 -431 292 -68 82
-117 177 -155 299 -26 82 -29 103 -28 230 0 126 3 149 28 225 95 288 291 488
567 579 106 35 147 40 274 37 97 -3 137 -9 205 -31z"/>
<path d="M5055 6094 c-684 -55 -1279 -418 -1631 -994 -148 -244 -241 -509
-280 -800 -9 -69 -19 -130 -23 -136 -3 -6 -14 -23 -24 -37 -26 -36 -25 -102 2
-138 17 -23 24 -52 31 -137 30 -335 127 -638 294 -911 326 -535 865 -890 1481
-975 277 -38 312 -38 590 0 615 85 1155 440 1481 975 199 326 298 686 298
1079 0 204 -15 323 -64 520 -165 656 -654 1197 -1290 1430 -108 39 -286 84
-416 104 -102 16 -357 27 -449 20z m25 -994 c0 -407 -2 -740 -5 -740 -2 0 -35
20 -72 44 -183 118 -391 187 -649 217 -272 31 -621 -40 -858 -176 -44 -25 -81
-44 -82 -42 -2 1 6 36 16 77 39 150 120 346 196 473 146 242 399 495 641 641
218 130 561 241 761 245 l52 1 0 -740z m393 729 c215 -32 478 -126 660 -235
297 -179 575 -484 717 -786 101 -216 154 -417 174 -659 4 -55 3 -58 -32 -91
-132 -125 -357 -238 -567 -284 -98 -21 -377 -24 -475 -5 -173 34 -372 120
-505 218 -125 93 -115 6 -115 1007 l0 846 36 0 c19 0 68 -5 107 -11z m-1009
-1474 c212 -44 423 -150 574 -288 l42 -40 0 -836 0 -836 -397 397 c-343 342
-403 398 -435 403 -64 12 -127 -31 -143 -98 -16 -64 2 -87 383 -469 l365 -367
-94 24 c-167 43 -358 121 -492 201 -297 179 -575 484 -717 786 -108 232 -160
439 -176 699 l-7 116 74 61 c162 134 398 235 610 261 101 13 318 6 413 -14z
m1105 -726 c444 -195 969 -161 1389 92 l53 31 -6 -38 c-35 -201 -130 -458
-232 -627 -145 -241 -400 -496 -640 -641 -134 -80 -325 -158 -492 -201 l-94
-24 376 377 c323 325 377 382 382 414 12 64 -31 127 -98 143 -64 17 -86 -1
-489 -403 l-388 -387 0 697 0 698 76 -47 c42 -25 115 -63 163 -84z"/>
<path d="M251 4122 c-36 -19 -71 -73 -71 -107 1 -57 49 -111 479 -540 l441
-440 -449 -450 c-468 -470 -483 -487 -466 -552 16 -67 79 -110 143 -98 32 5
98 68 494 463 l458 457 452 -452 c473 -470 490 -485 555 -468 67 16 110 79 98
143 -5 32 -68 99 -466 497 l-459 460 455 455 c315 315 458 465 466 488 6 17 8
46 4 62 -8 39 -56 87 -95 95 -70 15 -82 6 -558 -469 l-452 -451 -453 452
c-248 249 -465 457 -480 463 -39 14 -57 13 -96 -8z"/>
</g>
</svg>
