<?xml version="1.0" standalone="no"?>
<!DOCTYPE svg PUBLIC "-//W3C//DTD SVG 20010904//EN"
 "http://www.w3.org/TR/2001/REC-SVG-20010904/DTD/svg10.dtd">
<svg version="1.0" xmlns="http://www.w3.org/2000/svg"
 width="452pt" height="1000pt" viewBox="0 0 452 1000"
 preserveAspectRatio="xMidYMid meet">
<metadata>
Created by potrace 1.9, written by Peter Selinger 2001-2010
</metadata>
<g transform="translate(0,1000) scale(0.100000,-0.100000)"
fill="#000000" stroke="none">
<path d="M1231 6082 c-71 -38 -71 -35 -71 -524 l0 -438 -438 0 c-489 0 -486 0
-524 -71 -23 -42 -23 -66 0 -108 37 -70 46 -71 432 -71 l345 0 -387 -387
c-402 -404 -420 -426 -403 -490 16 -67 79 -110 143 -98 32 5 92 61 435 403
l397 397 0 -768 0 -767 -438 0 c-489 0 -486 0 -524 -71 -23 -42 -23 -66 0
-108 38 -71 35 -71 524 -71 l438 0 0 -438 c0 -489 0 -486 71 -524 42 -23 66
-23 108 0 71 38 71 35 71 524 l0 438 855 0 855 0 0 -438 c0 -489 0 -486 71
-524 42 -23 66 -23 108 0 71 38 71 35 71 524 l0 438 438 0 c489 0 486 0 524
71 23 42 23 66 0 108 -38 71 -35 71 -524 71 l-438 0 0 762 0 763 388 -387
c403 -402 425 -420 489 -403 67 16 110 79 98 143 -5 32 -61 92 -403 435 l-397
397 350 0 c392 0 400 1 437 71 23 42 23 66 0 108 -38 71 -35 71 -524 71 l-438
0 0 438 c0 404 -1 440 -18 471 -19 36 -72 71 -107 71 -35 0 -88 -35 -107 -71
-16 -31 -18 -64 -18 -384 l0 -350 -397 397 c-314 312 -405 397 -430 403 -73
15 -86 4 -495 -403 l-388 -387 0 345 c0 315 -2 348 -18 379 -19 36 -72 71
-107 71 -11 0 -36 -8 -54 -18z m1369 -627 l335 -335 -675 0 -675 0 335 335
c184 184 337 335 340 335 3 0 156 -151 340 -335z m520 -1440 l0 -855 -855 0
-855 0 0 855 0 855 855 0 855 0 0 -855z"/>
</g>
</svg>
