<?xml version="1.0" standalone="no"?>
<!DOCTYPE svg PUBLIC "-//W3C//DTD SVG 20010904//EN"
 "http://www.w3.org/TR/2001/REC-SVG-20010904/DTD/svg10.dtd">
<svg version="1.0" xmlns="http://www.w3.org/2000/svg"
 width="452pt" height="1000pt" viewBox="0 0 452 1000"
 preserveAspectRatio="xMidYMid meet">
<metadata>
Created by potrace 1.9, written by Peter Selinger 2001-2010
</metadata>
<g transform="translate(0,1000) scale(0.100000,-0.100000)"
fill="#000000" stroke="none">
<path d="M1721 8532 c-47 -25 -74 -76 -66 -125 3 -21 118 -263 255 -537 272
-544 273 -545 355 -545 78 1 77 -2 357 559 278 556 274 547 233 609 -23 35
-79 60 -118 53 -66 -13 -82 -38 -282 -436 l-193 -385 -195 391 c-143 286 -202
395 -222 408 -41 27 -85 30 -124 8z"/>
<path d="M1160 6584 c-14 -2 -59 -9 -100 -15 -308 -44 -599 -187 -833 -408
-103 -98 -113 -173 -32 -249 26 -24 58 -47 72 -53 14 -5 413 -9 992 -9 863 0
970 -2 981 -16 48 -56 290 -205 424 -260 503 -205 1094 -119 1517 221 34 28
78 60 98 71 80 48 90 136 23 201 l-37 36 -935 -2 -935 -2 -35 37 c-89 93 -280
229 -418 298 -189 94 -397 144 -627 151 -71 2 -141 2 -155 -1z m365 -269 c146
-30 325 -104 436 -178 l54 -37 -735 0 -735 0 45 31 c140 95 350 174 526 198
96 14 313 6 409 -14z m2255 -479 c-51 -28 -217 -85 -295 -102 -99 -21 -377
-24 -475 -5 -79 16 -227 64 -295 96 l-50 23 570 1 c482 0 566 -2 545 -13z"/>
</g>
</svg>
