<?xml version="1.0" standalone="no"?>
<!DOCTYPE svg PUBLIC "-//W3C//DTD SVG 20010904//EN"
 "http://www.w3.org/TR/2001/REC-SVG-20010904/DTD/svg10.dtd">
<svg version="1.0" xmlns="http://www.w3.org/2000/svg"
 width="942pt" height="1000pt" viewBox="0 0 942 1000"
 preserveAspectRatio="xMidYMid meet">
<metadata>
Created by potrace 1.9, written by Peter Selinger 2001-2010
</metadata>
<g transform="translate(0,1000) scale(0.100000,-0.100000)"
fill="#000000" stroke="none">
<path d="M1695 5113 c-144 -22 -261 -80 -355 -173 -99 -100 -155 -219 -175
-377 l-7 -53 -71 40 c-98 53 -181 73 -297 73 -171 0 -313 -57 -430 -173 -116
-117 -173 -259 -173 -430 0 -168 57 -311 168 -425 117 -118 258 -177 430 -178
121 -1 201 19 302 73 l71 40 7 -53 c34 -265 193 -459 434 -530 91 -27 251 -27
342 0 202 59 360 221 415 423 23 86 23 234 0 319 -10 36 -32 92 -49 125 -18
34 -34 65 -36 70 -9 20 285 -13 429 -49 331 -84 604 -239 850 -485 246 -246
402 -521 484 -850 32 -128 35 -147 50 -329 8 -88 19 -166 26 -178 45 -72 172
-69 212 5 18 34 14 225 -7 362 -71 458 -269 853 -585 1170 -363 362 -831 570
-1367 605 l-101 7 38 72 c21 39 46 100 56 136 23 86 23 234 0 320 -55 202
-217 367 -415 422 -68 19 -194 30 -246 21z m220 -277 c71 -32 149 -111 183
-184 22 -48 27 -71 27 -142 0 -106 -29 -175 -105 -250 -75 -76 -144 -105 -250
-105 -106 0 -175 29 -250 105 -76 75 -105 144 -105 250 0 71 5 94 27 142 45
98 146 183 245 208 61 15 167 4 228 -24z m-980 -490 c71 -32 149 -111 183
-184 22 -48 27 -71 27 -142 0 -106 -29 -175 -105 -250 -75 -76 -144 -105 -250
-105 -106 0 -175 29 -250 105 -76 75 -105 144 -105 250 0 71 5 94 27 142 45
98 146 183 245 208 61 15 167 4 228 -24z m980 -490 c71 -32 149 -111 183 -184
22 -48 27 -71 27 -142 0 -106 -29 -175 -105 -250 -75 -76 -144 -105 -250 -105
-106 0 -175 29 -250 105 -76 75 -105 144 -105 250 0 71 5 94 27 142 45 98 146
183 245 208 61 15 167 4 228 -24z"/>
<path d="M6017 2659 c-338 -39 -643 -180 -875 -404 -99 -96 -117 -129 -101
-190 9 -33 70 -96 116 -120 24 -13 166 -15 999 -15 865 0 973 -2 984 -16 48
-56 290 -205 424 -260 461 -188 991 -134 1410 143 100 67 215 165 240 205 9
14 16 47 16 72 0 39 -5 51 -35 81 -30 30 -42 35 -81 35 -48 0 -104 -30 -154
-85 -106 -114 -365 -245 -575 -291 -98 -21 -377 -24 -475 -5 -173 34 -372 120
-505 219 -67 49 -83 66 -93 99 -25 83 -249 269 -457 379 -234 124 -567 185
-838 153z m407 -264 c148 -31 372 -125 453 -191 l28 -23 -730 0 -730 0 28 23
c70 57 267 145 407 181 144 37 390 42 544 10z"/>
</g>
</svg>
