<?xml version="1.0" standalone="no"?>
<!DOCTYPE svg PUBLIC "-//W3C//DTD SVG 20010904//EN"
 "http://www.w3.org/TR/2001/REC-SVG-20010904/DTD/svg10.dtd">
<svg version="1.0" xmlns="http://www.w3.org/2000/svg"
 width="452pt" height="1000pt" viewBox="0 0 452 1000"
 preserveAspectRatio="xMidYMid meet">
<metadata>
Created by potrace 1.9, written by Peter Selinger 2001-2010
</metadata>
<g transform="translate(0,1000) scale(0.100000,-0.100000)"
fill="#000000" stroke="none">
<path d="M4170 6085 c-22 -10 -260 -241 -630 -611 l-595 -594 -40 29 c-122 89
-310 166 -481 195 -223 39 -459 -2 -683 -121 -301 -158 -503 -444 -565 -799
-28 -160 -17 -307 40 -493 27 -90 118 -274 160 -325 l25 -29 -60 -61 -61 -61
-457 457 c-397 395 -463 458 -495 463 -64 12 -127 -31 -144 -99 -16 -65 5 -90
471 -556 l445 -445 -449 -450 c-468 -470 -483 -487 -466 -552 16 -67 79 -110
143 -98 32 5 98 68 494 463 l458 457 452 -452 c476 -474 488 -483 558 -468 39
8 87 56 95 95 4 16 2 45 -4 62 -8 23 -151 173 -466 488 l-455 455 57 57 c32
32 61 58 66 58 5 0 23 -11 40 -24 58 -44 221 -124 303 -150 180 -55 338 -68
499 -40 489 85 833 432 920 925 44 248 -26 550 -179 778 -20 29 -36 56 -36 59
0 4 272 279 604 612 662 662 639 635 601 713 -30 64 -100 90 -165 62z m-1680
-1250 c80 -26 211 -88 255 -121 19 -14 -10 -44 -573 -606 -566 -567 -592 -592
-607 -573 -32 41 -94 174 -122 260 -25 82 -28 103 -27 230 0 126 3 149 28 225
95 288 291 488 567 579 106 35 147 40 274 37 97 -3 137 -9 205 -31z m523 -430
c19 -39 48 -111 63 -160 26 -80 29 -104 29 -225 0 -121 -3 -145 -29 -225 -93
-295 -290 -493 -586 -591 -77 -25 -98 -28 -230 -28 -132 0 -153 3 -230 28 -90
30 -157 61 -227 105 l-43 26 592 592 c586 586 592 591 608 570 10 -12 33 -54
53 -92z"/>
</g>
</svg>
