<?xml version="1.0" standalone="no"?>
<!DOCTYPE svg PUBLIC "-//W3C//DTD SVG 20010904//EN"
 "http://www.w3.org/TR/2001/REC-SVG-20010904/DTD/svg10.dtd">
<svg version="1.0" xmlns="http://www.w3.org/2000/svg"
 width="550pt" height="1000pt" viewBox="0 0 550 1000"
 preserveAspectRatio="xMidYMid meet">
<metadata>
Created by potrace 1.9, written by Peter Selinger 2001-2010
</metadata>
<g transform="translate(0,1000) scale(0.100000,-0.100000)"
fill="#000000" stroke="none">
<path d="M238 4123 c-46 -29 -53 -56 -51 -182 5 -258 77 -558 195 -813 l41
-88 -41 -87 c-118 -256 -190 -556 -195 -814 -2 -127 6 -154 53 -182 54 -33
138 -15 170 36 7 12 18 90 26 178 15 182 18 201 50 329 21 86 74 244 93 277 5
9 22 -8 56 -54 70 -95 250 -272 359 -353 386 -286 797 -424 1266 -424 469 0
880 138 1266 424 109 81 289 258 359 353 34 46 51 63 56 54 19 -33 72 -191 93
-277 32 -128 35 -147 50 -329 8 -88 19 -166 26 -178 32 -51 116 -69 170 -36
47 28 55 55 53 182 -5 258 -77 558 -195 814 l-41 87 43 93 c24 50 60 141 81
200 20 60 40 111 42 114 3 2 8 -5 12 -17 12 -37 149 -193 223 -254 95 -77 245
-159 358 -196 176 -56 356 -74 412 -39 68 43 68 165 0 208 -12 7 -65 17 -119
22 -243 23 -458 137 -610 325 -103 126 -171 299 -188 476 -5 53 -15 105 -22
116 -43 69 -175 69 -219 -1 -7 -12 -18 -90 -26 -178 -15 -182 -18 -200 -50
-329 -20 -83 -47 -164 -86 -262 l-10 -28 -50 66 c-73 96 -256 275 -362 354
-386 286 -797 424 -1266 424 -469 0 -880 -138 -1266 -424 -106 -79 -289 -258
-362 -354 l-50 -66 -10 28 c-39 98 -66 179 -86 262 -32 129 -35 147 -50 329
-8 88 -19 166 -26 178 -32 51 -119 69 -172 36z m2295 -254 c215 -32 478 -126
660 -235 117 -71 245 -173 357 -284 105 -105 250 -285 250 -310 0 -24 -159
-219 -259 -319 -240 -238 -514 -393 -841 -476 -155 -39 -245 -49 -440 -49
-195 0 -285 10 -440 49 -327 83 -601 238 -841 476 -100 100 -259 295 -259 319
0 25 145 205 250 310 318 317 699 495 1150 534 73 6 334 -3 413 -15z"/>
</g>
</svg>
