<?xml version="1.0" standalone="no"?>
<!DOCTYPE svg PUBLIC "-//W3C//DTD SVG 20010904//EN"
 "http://www.w3.org/TR/2001/REC-SVG-20010904/DTD/svg10.dtd">
<svg version="1.0" xmlns="http://www.w3.org/2000/svg"
 width="1040pt" height="1000pt" viewBox="0 0 1040 1000"
 preserveAspectRatio="xMidYMid meet">
<metadata>
Created by potrace 1.9, written by Peter Selinger 2001-2010
</metadata>
<g transform="translate(0,1000) scale(0.100000,-0.100000)"
fill="#000000" stroke="none">
<path d="M2701 6083 c-19 -9 -46 -36 -60 -59 -14 -23 -123 -236 -241 -473
l-215 -431 -460 0 c-515 0 -508 1 -547 -71 -23 -42 -23 -66 0 -108 38 -71 40
-71 484 -71 l398 0 -427 -855 -428 -855 -460 0 c-515 0 -508 1 -547 -71 -23
-42 -23 -66 0 -108 38 -71 40 -71 484 -71 l398 0 -200 -400 c-110 -219 -202
-416 -205 -437 -11 -74 61 -150 132 -139 69 10 74 18 319 508 l234 468 840 0
840 0 -200 -400 c-110 -219 -202 -416 -205 -437 -11 -74 61 -150 132 -139 69
10 74 18 319 508 l234 468 463 0 c517 0 510 -1 549 71 23 42 23 66 0 108 -38
71 -40 71 -484 71 -219 0 -398 2 -398 5 0 3 191 388 425 855 l425 850 463 0
c429 0 465 1 496 18 36 19 71 72 71 107 0 35 -35 88 -71 107 -31 17 -65 18
-431 18 -219 0 -398 2 -398 5 0 2 92 189 205 415 113 226 205 421 205 433 0
65 -76 133 -138 123 -73 -11 -79 -21 -325 -512 l-232 -464 -837 0 c-461 0
-838 2 -838 5 0 2 92 189 205 415 113 226 205 421 205 433 0 37 -34 89 -71
109 -41 22 -64 22 -108 1z m892 -2068 l-428 -855 -837 0 c-461 0 -838 2 -838
5 0 3 191 388 425 855 l425 850 840 0 840 0 -427 -855z"/>
<path d="M6131 6082 c-19 -10 -43 -34 -53 -53 -17 -32 -18 -115 -18 -2014 0
-1899 1 -1982 18 -2014 10 -19 34 -43 53 -53 32 -17 115 -18 2014 -18 1899 0
1982 1 2014 18 19 10 43 34 53 53 17 32 18 115 18 2014 0 1899 -1 1982 -18
2014 -10 19 -34 43 -53 53 -32 17 -115 18 -2014 18 -1899 0 -1982 -1 -2014
-18z m3849 -2067 l0 -1835 -1835 0 -1835 0 0 1835 0 1835 1835 0 1835 0 0
-1835z"/>
<path d="M7970 5104 c-194 -35 -394 -125 -531 -240 -290 -242 -446 -650 -384
-1003 49 -279 185 -523 384 -685 145 -119 339 -206 536 -240 114 -20 216 -20
330 0 489 85 833 432 920 925 61 347 -93 758 -373 994 -241 203 -592 302 -882
249z m400 -269 c176 -56 318 -152 431 -291 68 -83 117 -178 155 -299 26 -80
29 -104 29 -225 0 -121 -3 -145 -29 -225 -93 -295 -290 -493 -586 -591 -77
-25 -98 -28 -230 -28 -132 0 -153 3 -230 28 -179 59 -319 154 -431 292 -68 82
-117 177 -155 299 -26 82 -29 103 -28 230 0 126 3 149 28 225 95 288 291 488
567 579 106 35 147 40 274 37 97 -3 137 -9 205 -31z"/>
</g>
</svg>
