<?xml version="1.0" standalone="no"?>
<!DOCTYPE svg PUBLIC "-//W3C//DTD SVG 20010904//EN"
 "http://www.w3.org/TR/2001/REC-SVG-20010904/DTD/svg10.dtd">
<svg version="1.0" xmlns="http://www.w3.org/2000/svg"
 width="305pt" height="1000pt" viewBox="0 0 305 1000"
 preserveAspectRatio="xMidYMid meet">
<metadata>
Created by potrace 1.9, written by Peter Selinger 2001-2010
</metadata>
<g transform="translate(0,1000) scale(0.100000,-0.100000)"
fill="#000000" stroke="none">
<path d="M755 6092 c-99 -35 -118 -168 -32 -222 12 -7 90 -18 178 -26 182 -15
201 -18 329 -50 329 -82 604 -238 850 -484 246 -246 401 -519 485 -850 39
-155 49 -245 49 -440 0 -195 -10 -285 -49 -440 -84 -331 -239 -604 -485 -850
-246 -245 -516 -400 -849 -485 l-94 -24 131 132 c105 106 132 139 137 169 12
64 -31 127 -98 143 -55 14 -97 -13 -244 -158 l-143 -141 0 345 c0 385 -1 394
-71 431 -42 23 -66 23 -108 0 -70 -37 -71 -45 -71 -436 l0 -350 -153 151
c-124 124 -159 153 -189 158 -64 12 -127 -31 -144 -99 -14 -59 17 -102 226
-311 l200 -200 -204 -205 c-211 -212 -236 -248 -221 -307 16 -67 79 -110 143
-98 30 5 65 34 189 158 l153 151 0 -350 c0 -391 1 -399 71 -436 42 -23 66 -23
108 0 70 37 71 46 71 431 l0 345 143 -141 c147 -145 189 -172 244 -158 67 16
110 79 98 143 -5 31 -36 66 -172 203 -178 180 -174 171 -83 184 77 11 271 63
360 95 503 184 925 569 1156 1055 133 280 198 574 198 895 0 562 -212 1078
-604 1470 -316 315 -715 515 -1165 584 -118 18 -312 28 -340 18z"/>
</g>
</svg>
