<?xml version="1.0" standalone="no"?>
<!DOCTYPE svg PUBLIC "-//W3C//DTD SVG 20010904//EN"
 "http://www.w3.org/TR/2001/REC-SVG-20010904/DTD/svg10.dtd">
<svg version="1.0" xmlns="http://www.w3.org/2000/svg"
 width="942pt" height="1000pt" viewBox="0 0 942 1000"
 preserveAspectRatio="xMidYMid meet">
<metadata>
Created by potrace 1.9, written by Peter Selinger 2001-2010
</metadata>
<g transform="translate(0,1000) scale(0.100000,-0.100000)"
fill="#000000" stroke="none">
<path d="M2212 8044 c-18 -9 -41 -29 -51 -43 -40 -56 -501 -992 -506 -1028
-11 -74 61 -150 132 -139 68 10 76 22 280 430 l195 391 193 -385 c200 -398
216 -423 282 -436 39 -7 95 18 118 53 41 62 45 53 -233 609 -194 389 -267 525
-287 538 -39 25 -85 29 -123 10z"/>
<path d="M2205 6081 c-27 -13 -201 -180 -531 -512 -513 -516 -526 -530 -509
-596 16 -67 79 -110 143 -98 32 5 92 61 435 403 l397 397 0 -1660 0 -1660
-397 397 c-343 342 -403 398 -435 403 -64 12 -127 -31 -143 -98 -16 -64 2 -87
383 -469 l365 -367 -94 24 c-167 43 -358 121 -492 201 -240 145 -495 400 -640
641 -82 135 -160 327 -201 493 -32 128 -35 147 -50 329 -8 88 -19 166 -26 178
-45 72 -172 69 -212 -5 -31 -60 -5 -354 52 -582 204 -811 885 -1420 1715
-1534 277 -38 312 -38 590 0 615 85 1155 440 1481 975 143 234 234 490 279
779 21 137 25 328 7 362 -40 74 -167 77 -212 5 -7 -12 -18 -90 -26 -178 -15
-182 -18 -201 -50 -329 -82 -330 -242 -610 -493 -859 -239 -238 -512 -392
-840 -476 l-94 -24 376 377 c323 325 377 382 382 414 12 64 -31 127 -98 143
-64 17 -86 -1 -489 -403 l-388 -387 0 1650 0 1650 388 -387 c403 -402 425
-420 489 -403 67 16 110 79 98 143 -5 32 -74 104 -513 546 -290 290 -521 514
-539 522 -42 18 -60 17 -108 -5z"/>
<path d="M5151 6082 c-35 -19 -71 -72 -71 -105 0 -52 40 -101 276 -338 218
-218 243 -247 229 -259 -26 -21 -157 -206 -214 -302 -133 -224 -222 -478 -266
-758 -21 -137 -25 -328 -7 -362 40 -74 167 -77 212 -5 7 12 18 90 26 178 15
182 18 201 50 329 41 165 119 358 200 493 44 73 167 242 184 252 12 8 520
-490 520 -509 0 -5 -9 -19 -19 -30 -33 -36 -128 -228 -155 -312 -33 -109 -56
-242 -56 -334 0 -161 52 -359 137 -520 157 -299 445 -502 798 -564 161 -28
319 -15 499 40 82 26 245 106 303 150 17 13 35 24 40 24 4 0 276 -268 603
-595 624 -624 639 -637 706 -621 68 17 111 80 99 144 -5 32 -85 115 -616 647
l-609 610 35 49 c120 168 205 433 205 636 0 157 -52 357 -132 512 -159 305
-447 510 -803 572 -161 28 -319 15 -499 -40 -87 -28 -271 -120 -320 -160 l-29
-26 -258 258 c-215 215 -256 260 -246 273 18 22 183 142 254 185 184 110 440
201 668 237 44 7 163 13 265 13 195 0 285 -10 440 -49 331 -84 604 -239 850
-485 246 -246 402 -521 484 -850 32 -128 35 -147 50 -329 8 -88 19 -166 26
-178 45 -72 172 -69 212 5 18 34 14 225 -7 362 -71 458 -269 853 -585 1170
-392 392 -908 604 -1470 604 -393 0 -753 -99 -1079 -298 -100 -61 -228 -152
-274 -194 l-28 -26 -252 251 c-139 139 -265 257 -280 263 -39 14 -57 13 -96
-8z m2239 -1247 c176 -56 318 -152 431 -291 68 -83 117 -178 155 -299 26 -80
29 -104 29 -225 0 -121 -3 -145 -29 -225 -27 -86 -89 -219 -121 -260 -15 -19
-41 6 -607 573 -567 566 -592 592 -573 607 35 27 168 91 236 114 106 35 147
40 274 37 97 -3 137 -9 205 -31z m242 -1518 c-53 -36 -158 -85 -242 -113 -77
-25 -98 -28 -230 -28 -132 0 -153 3 -230 28 -179 59 -319 154 -431 292 -68 82
-117 177 -155 299 -26 82 -29 103 -28 230 0 126 3 149 28 225 29 88 72 182
109 237 l22 33 592 -592 592 -592 -27 -19z"/>
</g>
</svg>
