<?xml version="1.0" standalone="no"?>
<!DOCTYPE svg PUBLIC "-//W3C//DTD SVG 20010904//EN"
 "http://www.w3.org/TR/2001/REC-SVG-20010904/DTD/svg10.dtd">
<svg version="1.0" xmlns="http://www.w3.org/2000/svg"
 width="158pt" height="1000pt" viewBox="0 0 158 1000"
 preserveAspectRatio="xMidYMid meet">
<metadata>
Created by potrace 1.9, written by Peter Selinger 2001-2010
</metadata>
<g transform="translate(0,1000) scale(0.100000,-0.100000)"
fill="#000000" stroke="none">
<path d="M154 2271 c-53 -13 -103 -50 -129 -95 -20 -35 -25 -56 -25 -112 0
-60 4 -77 28 -115 16 -24 40 -50 54 -58 24 -12 25 -16 21 -75 -5 -62 -5 -64
31 -99 32 -32 43 -37 82 -37 65 0 96 26 138 116 40 84 71 240 60 302 -21 120
-144 202 -260 173z"/>
</g>
</svg>
