<?xml version="1.0" standalone="no"?>
<!DOCTYPE svg PUBLIC "-//W3C//DTD SVG 20010904//EN"
 "http://www.w3.org/TR/2001/REC-SVG-20010904/DTD/svg10.dtd">
<svg version="1.0" xmlns="http://www.w3.org/2000/svg"
 width="1334pt" height="1000pt" viewBox="0 0 1334 1000"
 preserveAspectRatio="xMidYMid meet">
<metadata>
Created by potrace 1.9, written by Peter Selinger 2001-2010
</metadata>
<g transform="translate(0,1000) scale(0.100000,-0.100000)"
fill="#000000" stroke="none">
<path d="M2115 6094 c-684 -55 -1279 -418 -1631 -994 -143 -235 -234 -491
-279 -780 -21 -137 -25 -328 -7 -362 40 -74 167 -77 212 -5 7 12 18 90 26 178
15 182 18 201 50 329 82 329 238 604 484 850 246 246 519 401 850 485 155 39
245 49 440 49 195 0 285 -10 440 -49 331 -84 604 -239 850 -485 246 -246 402
-521 484 -850 32 -128 35 -147 50 -329 8 -88 19 -166 26 -178 45 -72 172 -69
212 5 18 34 14 225 -7 362 -71 458 -269 853 -585 1170 -378 377 -876 590
-1416 604 -82 2 -171 2 -199 0z"/>
<path d="M9930 6084 c-122 -22 -238 -62 -349 -121 -308 -161 -509 -452 -568
-819 -16 -100 -16 -107 6 -249 102 -668 339 -1249 727 -1787 213 -295 496
-587 784 -809 106 -82 381 -267 494 -332 62 -36 87 -25 399 182 557 368 1004
871 1327 1494 198 382 327 779 399 1232 20 125 19 131 -5 283 -77 488 -428
840 -920 926 -359 63 -766 -92 -1007 -382 -35 -42 -79 -105 -98 -139 -19 -35
-36 -63 -39 -63 -3 1 -24 33 -47 73 -209 364 -689 586 -1103 511z m400 -269
c353 -114 585 -399 619 -764 5 -54 15 -107 22 -119 43 -69 175 -69 218 0 7 12
17 65 22 119 17 179 89 357 197 484 115 137 243 222 422 281 77 25 98 28 230
28 132 0 153 -3 230 -28 183 -61 317 -152 431 -292 66 -80 115 -175 155 -294
25 -76 28 -100 28 -220 0 -110 -5 -159 -27 -265 -113 -532 -328 -1027 -628
-1446 -257 -359 -581 -679 -944 -931 -139 -96 -215 -139 -236 -133 -27 9 -256
165 -359 244 -403 311 -780 745 -1005 1156 -227 415 -372 837 -440 1280 -20
130 -15 201 22 318 88 280 289 485 564 576 106 35 147 40 274 37 97 -3 136 -9
205 -31z"/>
<path d="M5641 5102 c-19 -10 -43 -34 -53 -53 -17 -31 -18 -69 -18 -544 0
-475 1 -513 18 -544 19 -36 72 -71 107 -71 35 0 88 35 107 71 17 31 18 69 18
544 0 475 -1 513 -18 544 -19 36 -72 71 -107 71 -11 0 -36 -8 -54 -18z"/>
<path d="M2205 4121 c-57 -27 -1988 -1962 -2010 -2013 -8 -21 -15 -45 -15 -55
0 -33 36 -86 71 -105 32 -17 115 -18 2014 -18 1904 0 1982 1 2015 18 46 25 74
81 65 130 -6 33 -119 150 -1003 1036 -583 583 -1010 1004 -1029 1012 -42 18
-60 17 -108 -5z m885 -1116 l825 -825 -1655 0 -1655 0 825 825 c454 454 827
825 830 825 3 0 376 -371 830 -825z"/>
<path d="M8092 4124 c-18 -9 -41 -29 -51 -43 -41 -57 -991 -1973 -996 -2008
-16 -104 101 -175 190 -117 20 13 134 232 467 898 l440 881 438 -874 c321
-643 445 -881 466 -898 78 -62 184 -20 201 81 4 27 -69 179 -500 1042 -384
769 -512 1015 -532 1028 -39 25 -85 29 -123 10z"/>
<path d="M5615 3643 c-256 -40 -447 -206 -511 -443 -23 -86 -23 -234 0 -320
55 -202 213 -364 415 -423 91 -27 251 -27 342 0 202 59 360 221 415 423 11 40
17 101 17 160 0 59 -6 120 -17 160 -55 202 -217 367 -415 422 -68 19 -194 30
-246 21z m220 -277 c71 -32 149 -111 183 -184 22 -48 27 -71 27 -142 0 -106
-29 -175 -105 -250 -75 -76 -144 -105 -250 -105 -106 0 -175 29 -250 105 -76
75 -105 144 -105 250 0 71 5 94 27 142 45 98 146 183 245 208 61 15 167 4 228
-24z"/>
</g>
</svg>
