<?xml version="1.0" standalone="no"?>
<!DOCTYPE svg PUBLIC "-//W3C//DTD SVG 20010904//EN"
 "http://www.w3.org/TR/2001/REC-SVG-20010904/DTD/svg10.dtd">
<svg version="1.0" xmlns="http://www.w3.org/2000/svg"
 width="452pt" height="1000pt" viewBox="0 0 452 1000"
 preserveAspectRatio="xMidYMid meet">
<metadata>
Created by potrace 1.9, written by Peter Selinger 2001-2010
</metadata>
<g transform="translate(0,1000) scale(0.100000,-0.100000)"
fill="#000000" stroke="none">
<path d="M2205 6081 c-28 -13 -346 -326 -1027 -1007 -1115 -1118 -1006 -991
-993 -1162 39 -542 247 -1006 614 -1371 387 -384 904 -595 1461 -595 557 0
1074 211 1461 595 324 322 532 737 593 1184 33 245 37 303 22 338 -18 42
-1991 2012 -2029 2027 -39 14 -56 13 -102 -9z m972 -1203 l913 -913 -10 -110
c-20 -222 -71 -411 -170 -623 -142 -302 -420 -607 -717 -786 -184 -110 -440
-201 -668 -237 -103 -16 -427 -16 -530 0 -228 36 -484 127 -668 237 -297 179
-575 484 -717 786 -99 212 -150 401 -170 623 l-10 110 913 913 c501 501 914
912 917 912 3 0 416 -411 917 -912z"/>
</g>
</svg>
