<?xml version="1.0" standalone="no"?>
<!DOCTYPE svg PUBLIC "-//W3C//DTD SVG 20010904//EN"
 "http://www.w3.org/TR/2001/REC-SVG-20010904/DTD/svg10.dtd">
<svg version="1.0" xmlns="http://www.w3.org/2000/svg"
 width="158pt" height="1000pt" viewBox="0 0 158 1000"
 preserveAspectRatio="xMidYMid meet">
<metadata>
Created by potrace 1.9, written by Peter Selinger 2001-2010
</metadata>
<g transform="translate(0,1000) scale(0.100000,-0.100000)"
fill="#000000" stroke="none">
<path d="M742 8044 c-18 -9 -41 -29 -51 -43 -40 -56 -501 -992 -506 -1028 -11
-74 61 -150 132 -139 68 10 76 22 280 430 l195 391 193 -385 c200 -398 216
-423 282 -436 39 -7 95 18 118 53 41 62 45 53 -233 609 -194 389 -267 525
-287 538 -39 25 -85 29 -123 10z"/>
<path d="M251 6082 c-36 -19 -71 -73 -71 -107 1 -51 46 -108 234 -295 l196
-195 -204 -205 c-211 -212 -236 -248 -221 -307 16 -67 79 -110 143 -98 30 5
65 34 190 158 l152 151 0 -1575 c0 -1506 1 -1576 18 -1608 19 -36 72 -71 107
-71 35 0 88 35 107 71 17 32 18 102 18 1603 l0 1570 143 -141 c149 -147 187
-171 247 -158 39 8 87 56 95 95 13 60 -8 88 -225 305 l-210 210 214 215 c180
180 216 221 221 252 12 64 -31 127 -98 143 -55 14 -97 -13 -244 -158 l-143
-141 0 100 c0 115 -16 156 -71 186 -42 23 -66 23 -108 0 -56 -30 -71 -70 -71
-192 l0 -105 -147 147 c-175 174 -201 188 -272 150z"/>
</g>
</svg>
