<?xml version="1.0" standalone="no"?>
<!DOCTYPE svg PUBLIC "-//W3C//DTD SVG 20010904//EN"
 "http://www.w3.org/TR/2001/REC-SVG-20010904/DTD/svg10.dtd">
<svg version="1.0" xmlns="http://www.w3.org/2000/svg"
 width="452pt" height="1000pt" viewBox="0 0 452 1000"
 preserveAspectRatio="xMidYMid meet">
<metadata>
Created by potrace 1.9, written by Peter Selinger 2001-2010
</metadata>
<g transform="translate(0,1000) scale(0.100000,-0.100000)"
fill="#000000" stroke="none">
<path d="M1721 8042 c-47 -25 -74 -76 -66 -125 3 -21 118 -263 255 -537 272
-544 273 -545 355 -545 78 1 77 -2 357 559 278 556 274 547 233 609 -23 35
-79 60 -118 53 -66 -13 -82 -38 -282 -436 l-193 -385 -195 391 c-143 286 -202
395 -222 408 -41 27 -85 30 -124 8z"/>
<path d="M2115 6094 c-684 -55 -1279 -418 -1631 -994 -143 -235 -234 -491
-279 -780 -21 -137 -25 -328 -7 -362 40 -74 167 -77 212 -5 7 12 18 90 26 178
15 182 18 201 50 329 82 329 238 604 484 850 204 203 406 333 670 430 149 54
359 100 459 100 l41 0 0 -1903 c0 -1823 1 -1904 18 -1936 19 -36 72 -71 107
-71 35 0 88 35 107 71 17 32 18 113 18 1936 l0 1903 36 0 c188 0 551 -117 767
-246 242 -146 495 -399 641 -641 111 -185 206 -454 235 -663 16 -117 24 -263
15 -259 -5 2 -36 18 -70 36 -33 17 -89 39 -125 49 -85 23 -233 23 -319 0 -254
-69 -438 -299 -444 -557 -1 -74 12 -108 54 -132 55 -33 143 -13 169 37 6 12
17 57 25 102 17 99 43 152 107 216 74 74 144 103 249 103 71 0 94 -5 142 -27
111 -51 206 -178 211 -280 2 -41 -16 -70 -472 -753 -261 -390 -479 -726 -485
-746 -12 -47 16 -104 64 -131 32 -17 68 -18 545 -18 475 0 513 1 544 18 35 19
71 72 71 105 0 31 -30 85 -58 104 -25 16 -62 18 -420 23 l-392 5 426 638 c234
351 430 651 435 665 18 46 -29 242 -81 338 l-38 72 27 5 c40 8 78 52 86 98 14
84 -18 351 -65 539 -149 593 -560 1092 -1115 1356 -177 84 -381 145 -591 178
-102 16 -357 27 -449 20z"/>
</g>
</svg>
