<?xml version="1.0" standalone="no"?>
<!DOCTYPE svg PUBLIC "-//W3C//DTD SVG 20010904//EN"
 "http://www.w3.org/TR/2001/REC-SVG-20010904/DTD/svg10.dtd">
<svg version="1.0" xmlns="http://www.w3.org/2000/svg"
 width="942pt" height="1000pt" viewBox="0 0 942 1000"
 preserveAspectRatio="xMidYMid meet">
<metadata>
Created by potrace 1.9, written by Peter Selinger 2001-2010
</metadata>
<g transform="translate(0,1000) scale(0.100000,-0.100000)"
fill="#000000" stroke="none">
<path d="M2115 6094 c-684 -55 -1279 -418 -1631 -994 -143 -235 -234 -491
-279 -780 -21 -137 -25 -328 -7 -362 40 -74 167 -77 212 -5 7 12 18 90 26 178
15 182 18 201 50 329 82 329 238 604 484 850 246 246 519 401 850 485 155 39
245 49 440 49 195 0 285 -10 440 -49 331 -84 604 -239 850 -485 246 -246 402
-521 484 -850 32 -128 35 -147 50 -329 8 -88 19 -166 26 -178 45 -72 172 -69
212 5 18 34 14 225 -7 362 -71 458 -269 853 -585 1170 -378 377 -876 590
-1416 604 -82 2 -171 2 -199 0z"/>
<path d="M7111 6082 c-19 -10 -43 -34 -53 -53 -17 -32 -18 -113 -18 -1941 l0
-1908 -928 0 c-879 0 -929 -1 -961 -18 -36 -19 -71 -72 -71 -107 0 -35 35 -88
71 -107 32 -17 115 -18 2014 -18 1899 0 1982 1 2014 18 36 19 71 72 71 107 0
35 -35 88 -71 107 -32 17 -82 18 -961 18 l-928 0 0 855 0 855 928 0 c879 0
929 1 961 18 19 10 43 34 53 53 17 32 18 84 18 1034 0 950 -1 1002 -18 1034
-10 19 -34 43 -53 53 -32 17 -84 18 -1034 18 -950 0 -1002 -1 -1034 -18z
m1889 -1087 l0 -855 -855 0 -855 0 0 855 0 855 855 0 855 0 0 -855z"/>
<path d="M2205 4121 c-57 -27 -1988 -1962 -2010 -2013 -8 -21 -15 -45 -15 -55
0 -33 36 -86 71 -105 32 -17 115 -18 2014 -18 1904 0 1982 1 2015 18 46 25 74
81 65 130 -6 33 -119 150 -1003 1036 -583 583 -1010 1004 -1029 1012 -42 18
-60 17 -108 -5z m885 -1116 l825 -825 -1655 0 -1655 0 825 825 c454 454 827
825 830 825 3 0 376 -371 830 -825z"/>
</g>
</svg>
