<?xml version="1.0" standalone="no"?>
<!DOCTYPE svg PUBLIC "-//W3C//DTD SVG 20010904//EN"
 "http://www.w3.org/TR/2001/REC-SVG-20010904/DTD/svg10.dtd">
<svg version="1.0" xmlns="http://www.w3.org/2000/svg"
 width="1383pt" height="1000pt" viewBox="0 0 1383 1000"
 preserveAspectRatio="xMidYMid meet">
<metadata>
Created by potrace 1.9, written by Peter Selinger 2001-2010
</metadata>
<g transform="translate(0,1000) scale(0.100000,-0.100000)"
fill="#000000" stroke="none">
<path d="M6621 6082 c-19 -10 -43 -34 -53 -53 -17 -32 -18 -115 -18 -2014 0
-1899 1 -1982 18 -2014 10 -19 34 -43 53 -53 32 -17 84 -18 1034 -18 950 0
1002 1 1034 18 36 19 71 72 71 107 0 35 -35 88 -71 107 -32 17 -82 18 -961 18
l-928 0 0 1908 c0 1828 -1 1909 -18 1941 -19 36 -72 71 -107 71 -11 0 -36 -8
-54 -18z"/>
<path d="M13481 6082 c-19 -10 -43 -34 -53 -53 -17 -32 -18 -79 -18 -874 l0
-840 -397 397 c-343 342 -403 398 -435 403 -64 12 -127 -31 -143 -98 -17 -64
1 -86 403 -489 l387 -388 -1815 0 c-1739 0 -1817 -1 -1849 -18 -36 -19 -71
-72 -71 -107 0 -35 35 -88 71 -107 32 -17 110 -18 1849 -18 l1815 0 -387 -387
c-402 -404 -420 -426 -403 -490 16 -67 79 -110 143 -98 32 5 92 61 435 403
l397 397 0 -840 c0 -795 1 -842 18 -874 19 -36 72 -71 107 -71 35 0 88 35 107
71 17 32 18 115 18 2014 0 1899 -1 1982 -18 2014 -19 36 -72 71 -107 71 -11 0
-36 -8 -54 -18z"/>
<path d="M5151 5102 c-36 -19 -71 -73 -71 -107 1 -57 49 -111 479 -540 l441
-440 -449 -450 c-468 -470 -483 -487 -466 -552 16 -67 79 -110 143 -98 32 5
105 74 550 518 358 358 515 522 523 544 24 73 30 65 -509 607 -290 290 -521
514 -539 522 -43 18 -61 18 -102 -4z"/>
<path d="M2205 4121 c-28 -13 -345 -325 -1021 -1002 -792 -794 -984 -991 -994
-1022 -20 -64 6 -123 67 -152 80 -38 18 -93 1056 943 l947 947 938 -937 c923
-923 971 -968 1029 -968 33 0 86 36 105 71 17 32 18 84 18 1034 0 950 -1 1002
-18 1034 -19 36 -72 71 -107 71 -35 0 -88 -35 -107 -71 -17 -32 -18 -79 -18
-874 l0 -840 -882 882 c-497 497 -895 887 -911 893 -39 14 -56 13 -102 -9z"/>
</g>
</svg>
