<?xml version="1.0" standalone="no"?>
<!DOCTYPE svg PUBLIC "-//W3C//DTD SVG 20010904//EN"
 "http://www.w3.org/TR/2001/REC-SVG-20010904/DTD/svg10.dtd">
<svg version="1.0" xmlns="http://www.w3.org/2000/svg"
 width="648pt" height="1000pt" viewBox="0 0 648 1000"
 preserveAspectRatio="xMidYMid meet">
<metadata>
Created by potrace 1.9, written by Peter Selinger 2001-2010
</metadata>
<g transform="translate(0,1000) scale(0.100000,-0.100000)"
fill="#000000" stroke="none">
<path d="M5151 5102 c-35 -19 -71 -72 -71 -105 0 -55 41 -103 413 -474 l382
-383 -2795 0 c-2688 0 -2797 -1 -2829 -18 -36 -19 -71 -72 -71 -107 0 -35 35
-88 71 -107 32 -17 82 -18 961 -18 l928 0 0 -928 c0 -879 1 -929 18 -961 19
-36 72 -71 107 -71 35 0 88 35 107 71 17 32 18 82 18 961 l0 928 1742 0 1743
0 -387 -387 c-402 -404 -420 -426 -403 -490 16 -67 79 -110 143 -98 32 5 105
74 550 518 358 358 515 522 523 544 24 73 30 65 -509 607 -290 290 -521 514
-539 522 -43 18 -61 18 -102 -4z"/>
</g>
</svg>
