<?xml version="1.0" standalone="no"?>
<!DOCTYPE svg PUBLIC "-//W3C//DTD SVG 20010904//EN"
 "http://www.w3.org/TR/2001/REC-SVG-20010904/DTD/svg10.dtd">
<svg version="1.0" xmlns="http://www.w3.org/2000/svg"
 width="1334pt" height="1000pt" viewBox="0 0 1334 1000"
 preserveAspectRatio="xMidYMid meet">
<metadata>
Created by potrace 1.9, written by Peter Selinger 2001-2010
</metadata>
<g transform="translate(0,1000) scale(0.100000,-0.100000)"
fill="#000000" stroke="none">
<path d="M2115 6094 c-684 -55 -1279 -418 -1631 -994 -148 -244 -240 -508
-280 -800 -12 -88 -24 -139 -42 -174 -27 -54 -26 -113 2 -145 12 -13 20 -52
26 -127 30 -337 127 -639 294 -913 326 -535 865 -890 1481 -975 277 -38 312
-38 590 0 615 85 1155 440 1481 975 199 326 298 686 298 1079 0 204 -15 323
-64 520 -165 656 -654 1197 -1290 1430 -108 39 -286 84 -416 104 -102 16 -357
27 -449 20z m25 -994 l0 -741 -22 12 c-13 7 -41 24 -63 39 -131 89 -333 162
-555 201 -97 17 -343 17 -440 0 -220 -38 -419 -110 -557 -202 -18 -11 -33 -18
-33 -14 0 48 81 285 140 413 168 359 503 694 862 862 206 96 460 166 616 169
l52 1 0 -740z m393 729 c215 -32 478 -126 660 -235 297 -179 575 -484 717
-786 101 -216 154 -417 174 -659 4 -55 3 -58 -32 -91 -132 -125 -357 -238
-567 -284 -98 -21 -377 -24 -475 -5 -246 48 -562 215 -600 317 -12 33 -15 173
-17 897 l-3 857 35 0 c20 0 69 -5 108 -11z m-1008 -1474 c204 -43 376 -125
548 -263 l67 -54 0 -919 0 -919 -41 0 c-148 0 -422 74 -627 170 -358 168 -694
504 -862 862 -108 232 -160 440 -176 698 l-6 115 63 51 c193 153 396 242 625
273 96 14 313 6 409 -14z m1104 -726 c444 -195 969 -161 1389 92 l53 31 -6
-38 c-26 -146 -86 -334 -155 -482 -168 -358 -504 -694 -862 -862 -202 -94
-479 -170 -622 -170 l-36 0 0 780 0 780 76 -47 c42 -25 115 -63 163 -84z"/>
<path d="M6010 6084 c-122 -22 -238 -62 -349 -121 -308 -161 -509 -452 -568
-819 -16 -100 -16 -107 6 -249 102 -668 339 -1249 727 -1787 213 -295 496
-587 784 -809 106 -82 381 -267 494 -332 62 -36 87 -25 399 182 557 368 1004
871 1327 1494 198 382 327 779 399 1232 20 125 19 131 -5 283 -77 488 -428
840 -920 926 -359 63 -766 -92 -1007 -382 -35 -42 -79 -105 -98 -139 -19 -35
-36 -63 -39 -63 -3 1 -24 33 -47 73 -209 364 -689 586 -1103 511z m400 -269
c353 -114 585 -399 619 -764 5 -54 15 -107 22 -119 43 -69 175 -69 218 0 7 12
17 65 22 119 17 179 89 357 197 484 115 137 243 222 422 281 77 25 98 28 230
28 132 0 153 -3 230 -28 183 -61 317 -152 431 -292 66 -80 115 -175 155 -294
25 -76 28 -100 28 -220 0 -110 -5 -159 -27 -265 -113 -532 -328 -1027 -628
-1446 -257 -359 -581 -679 -944 -931 -139 -96 -215 -139 -236 -133 -27 9 -256
165 -359 244 -403 311 -780 745 -1005 1156 -227 415 -372 837 -440 1280 -20
130 -15 201 22 318 88 280 289 485 564 576 106 35 147 40 274 37 97 -3 136 -9
205 -31z"/>
<path d="M11032 6084 c-18 -9 -41 -29 -51 -43 -41 -58 -1971 -3933 -1976
-3968 -8 -49 19 -100 66 -125 32 -17 115 -18 2014 -18 1899 0 1982 1 2014 18
37 20 71 72 71 109 0 13 -447 918 -994 2011 -764 1527 -1000 1993 -1021 2006
-39 25 -85 29 -123 10z m55 -3902 c-963 -1 -1752 0 -1754 2 -2 2 390 793 873
1757 l877 1754 877 -1755 878 -1755 -1751 -3z"/>
<path d="M11005 4623 c-256 -40 -449 -208 -510 -443 -21 -81 -24 -188 -7 -222
29 -54 115 -75 172 -41 38 22 48 43 64 139 17 99 43 152 107 216 74 74 144
103 249 103 106 0 175 -29 250 -105 76 -75 105 -144 105 -250 0 -105 -29 -175
-103 -249 -64 -64 -117 -90 -216 -107 -96 -17 -117 -26 -140 -65 -15 -26 -17
-61 -16 -306 0 -228 3 -282 16 -309 44 -92 167 -94 216 -3 16 29 18 59 18 240
l0 207 48 12 c134 34 286 156 354 286 51 97 71 181 71 294 0 59 -6 120 -17
160 -55 202 -217 367 -415 422 -68 19 -194 30 -246 21z"/>
<path d="M11043 2683 c-33 -6 -79 -57 -86 -92 -26 -127 122 -210 212 -120 43
42 49 93 18 156 -20 42 -87 68 -144 56z"/>
</g>
</svg>
