<?xml version="1.0" standalone="no"?>
<!DOCTYPE svg PUBLIC "-//W3C//DTD SVG 20010904//EN"
 "http://www.w3.org/TR/2001/REC-SVG-20010904/DTD/svg10.dtd">
<svg version="1.0" xmlns="http://www.w3.org/2000/svg"
 width="1334pt" height="1000pt" viewBox="0 0 1334 1000"
 preserveAspectRatio="xMidYMid meet">
<metadata>
Created by potrace 1.9, written by Peter Selinger 2001-2010
</metadata>
<g transform="translate(0,1000) scale(0.100000,-0.100000)"
fill="#000000" stroke="none">
<path d="M11025 6081 c-57 -27 -1989 -1962 -2010 -2013 -13 -33 -15 -154 -15
-963 l0 -925 -1835 0 -1835 0 0 928 c0 879 -1 929 -18 961 -19 36 -72 71 -107
71 -35 0 -88 -35 -107 -71 -17 -32 -18 -84 -18 -1034 0 -950 1 -1002 18 -1034
10 -19 34 -43 53 -53 32 -17 115 -18 2014 -18 1899 0 1982 1 2014 18 19 10 43
34 53 53 17 32 18 83 18 999 l0 965 974 975 c1067 1067 1009 1003 971 1083
-32 67 -102 91 -170 58z"/>
<path d="M12005 6086 c-63 -27 -89 -120 -51 -178 10 -15 68 -70 129 -122 411
-346 693 -832 788 -1353 45 -249 45 -577 0 -826 -95 -521 -377 -1007 -788
-1353 -128 -109 -146 -133 -146 -190 0 -85 77 -141 158 -114 50 16 268 204
381 326 259 283 467 651 572 1009 142 486 142 984 0 1470 -135 462 -423 905
-790 1216 -150 127 -187 144 -253 115z"/>
<path d="M251 5102 c-19 -10 -43 -34 -53 -53 -17 -32 -18 -84 -18 -1034 0
-950 1 -1002 18 -1034 10 -19 34 -43 53 -53 32 -17 115 -18 2014 -18 1899 0
1982 1 2014 18 19 10 43 34 53 53 17 32 18 84 18 1034 0 950 -1 1002 -18 1034
-10 19 -34 43 -53 53 -32 17 -115 18 -2014 18 -1899 0 -1982 -1 -2014 -18z
m1889 -1087 l0 -855 -855 0 -855 0 0 855 0 855 855 0 855 0 0 -855z m1960 0
l0 -855 -855 0 -855 0 0 855 0 855 855 0 855 0 0 -855z"/>
</g>
</svg>
