<?xml version="1.0" standalone="no"?>
<!DOCTYPE svg PUBLIC "-//W3C//DTD SVG 20010904//EN"
 "http://www.w3.org/TR/2001/REC-SVG-20010904/DTD/svg10.dtd">
<svg version="1.0" xmlns="http://www.w3.org/2000/svg"
 width="844pt" height="1000pt" viewBox="0 0 844 1000"
 preserveAspectRatio="xMidYMid meet">
<metadata>
Created by potrace 1.9, written by Peter Selinger 2001-2010
</metadata>
<g transform="translate(0,1000) scale(0.100000,-0.100000)"
fill="#000000" stroke="none">
<path d="M6010 6084 c-194 -35 -394 -125 -531 -240 -290 -242 -446 -650 -384
-1003 49 -279 185 -523 384 -685 138 -113 340 -206 514 -236 l67 -12 0 -937
c0 -888 1 -938 18 -970 19 -36 72 -71 107 -71 34 0 87 35 105 68 12 22 19 69
24 149 12 204 44 361 106 533 97 264 227 466 430 670 246 246 521 402 850 484
128 32 147 35 329 50 88 8 166 19 178 26 72 45 69 172 -5 212 -60 31 -354 5
-582 -52 -526 -133 -990 -478 -1261 -940 l-44 -75 -3 424 c-1 233 -1 425 1
427 1 2 38 10 81 19 458 95 788 441 871 916 61 347 -93 758 -373 994 -241 203
-592 302 -882 249z m400 -269 c176 -56 318 -152 431 -291 68 -83 117 -178 155
-299 26 -80 29 -104 29 -225 0 -121 -3 -145 -29 -225 -93 -295 -290 -493 -586
-591 -77 -25 -98 -28 -230 -28 -132 0 -153 3 -230 28 -179 59 -319 154 -431
292 -68 82 -117 177 -155 299 -26 82 -29 103 -28 230 0 126 3 149 28 225 95
288 291 488 567 579 106 35 147 40 274 37 97 -3 137 -9 205 -31z"/>
<path d="M2115 4134 c-684 -55 -1279 -418 -1631 -994 -148 -244 -240 -508
-280 -800 -12 -88 -24 -139 -42 -174 -42 -83 -21 -141 78 -209 31 -22 99 -22
130 0 37 25 48 44 56 89 5 36 15 49 67 91 169 134 340 216 547 260 117 24 363
24 480 0 209 -45 380 -127 550 -263 55 -44 67 -60 78 -99 14 -53 63 -104 187
-194 173 -126 333 -202 531 -252 415 -104 849 -29 1209 209 78 52 150 109 232
183 28 26 36 79 28 187 -39 539 -244 1000 -605 1362 -378 377 -876 590 -1416
604 -82 2 -171 2 -199 0z m418 -265 c215 -32 478 -126 660 -235 242 -146 495
-399 641 -641 112 -188 208 -460 235 -668 24 -186 24 -189 -17 -227 -132 -125
-357 -238 -567 -284 -98 -21 -377 -24 -475 -5 -104 20 -218 59 -325 111 -111
54 -265 161 -265 185 0 108 -339 365 -615 468 -165 62 -338 92 -525 92 -187 0
-360 -31 -525 -92 -75 -28 -200 -89 -252 -124 -18 -11 -33 -18 -33 -14 0 20
43 171 70 245 97 264 227 466 430 670 318 317 699 495 1150 534 73 6 334 -3
413 -15z"/>
</g>
</svg>
