<?xml version="1.0" standalone="no"?>
<!DOCTYPE svg PUBLIC "-//W3C//DTD SVG 20010904//EN"
 "http://www.w3.org/TR/2001/REC-SVG-20010904/DTD/svg10.dtd">
<svg version="1.0" xmlns="http://www.w3.org/2000/svg"
 width="746pt" height="1000pt" viewBox="0 0 746 1000"
 preserveAspectRatio="xMidYMid meet">
<metadata>
Created by potrace 1.9, written by Peter Selinger 2001-2010
</metadata>
<g transform="translate(0,1000) scale(0.100000,-0.100000)"
fill="#000000" stroke="none">
<path d="M5585 6075 c-30 -31 -35 -42 -35 -83 0 -41 6 -54 43 -99 144 -176
180 -225 220 -302 54 -102 100 -230 124 -343 24 -115 24 -370 -1 -488 -44
-210 -150 -425 -279 -566 -28 -31 -67 -78 -86 -104 -20 -27 -58 -77 -86 -112
-115 -144 -226 -365 -270 -538 -114 -441 -41 -868 211 -1246 73 -111 169 -215
217 -237 71 -33 146 -1 168 72 17 56 0 95 -82 186 -152 171 -247 360 -296 587
-24 115 -24 370 1 488 44 210 150 425 279 566 28 31 67 78 86 104 20 27 59 77
86 112 76 96 169 258 214 371 76 196 105 354 105 567 -1 387 -131 723 -393
1015 -63 70 -88 85 -143 85 -41 0 -52 -5 -83 -35z"/>
<path d="M2211 6082 c-72 -38 -71 -35 -71 -528 l0 -442 -66 -11 c-176 -31
-381 -125 -515 -237 -290 -242 -446 -650 -384 -1003 49 -279 185 -523 384
-685 138 -113 340 -206 514 -236 l67 -12 0 -286 0 -287 -888 887 c-971 970
-915 921 -995 883 -61 -29 -87 -88 -67 -152 10 -31 202 -228 994 -1022 967
-969 1021 -1020 1081 -1021 34 0 88 35 107 71 17 31 18 67 18 481 l0 447 38 6
c192 32 399 127 549 254 275 233 429 645 368 990 -78 447 -373 780 -790 895
-49 13 -107 27 -127 31 l-38 6 0 442 c0 409 -1 445 -18 476 -19 36 -72 71
-107 71 -11 0 -36 -8 -54 -18z m-71 -2062 c0 -727 -2 -840 -14 -840 -33 0
-186 54 -257 91 -144 75 -291 222 -362 364 -19 39 -48 111 -63 160 -26 82 -29
103 -28 230 0 126 3 149 28 225 16 47 44 117 63 155 70 140 221 293 358 363
71 36 225 91 258 92 16 0 17 -47 17 -840z m352 814 c173 -54 316 -151 429
-290 68 -83 117 -178 155 -299 26 -80 29 -104 29 -225 0 -121 -3 -145 -29
-225 -93 -295 -295 -498 -584 -589 -46 -14 -87 -26 -93 -26 -5 0 -9 317 -9
840 0 523 4 840 9 840 6 0 47 -12 93 -26z"/>
<path d="M4171 6082 c-19 -10 -43 -34 -53 -53 -17 -32 -18 -115 -18 -2014 0
-1899 1 -1982 18 -2014 19 -36 72 -71 107 -71 35 0 88 35 107 71 17 32 18 115
18 2014 0 1899 -1 1982 -18 2014 -19 36 -72 71 -107 71 -11 0 -36 -8 -54 -18z"/>
<path d="M7111 6082 c-19 -10 -43 -34 -53 -53 -17 -32 -18 -115 -18 -2014 0
-1899 1 -1982 18 -2014 19 -36 72 -71 107 -71 35 0 88 35 107 71 17 32 18 115
18 2014 0 1899 -1 1982 -18 2014 -19 36 -72 71 -107 71 -11 0 -36 -8 -54 -18z"/>
</g>
</svg>
