<?xml version="1.0" standalone="no"?>
<!DOCTYPE svg PUBLIC "-//W3C//DTD SVG 20010904//EN"
 "http://www.w3.org/TR/2001/REC-SVG-20010904/DTD/svg10.dtd">
<svg version="1.0" xmlns="http://www.w3.org/2000/svg"
 width="1432pt" height="1000pt" viewBox="0 0 1432 1000"
 preserveAspectRatio="xMidYMid meet">
<metadata>
Created by potrace 1.9, written by Peter Selinger 2001-2010
</metadata>
<g transform="translate(0,1000) scale(0.100000,-0.100000)"
fill="#000000" stroke="none">
<path d="M1721 8042 c-19 -10 -43 -34 -53 -53 -17 -31 -18 -69 -18 -544 0
-475 1 -513 18 -544 10 -19 34 -43 53 -53 31 -17 69 -18 544 -18 475 0 513 1
544 18 19 10 43 34 53 53 17 31 18 69 18 544 0 475 -1 513 -18 544 -10 19 -34
43 -53 53 -31 17 -69 18 -544 18 -475 0 -513 -1 -544 -18z m909 -597 l0 -365
-365 0 -365 0 0 365 0 365 365 0 365 0 0 -365z"/>
<path d="M2211 6082 c-19 -10 -43 -34 -53 -53 -17 -32 -18 -82 -18 -961 l0
-928 -928 0 c-879 0 -929 -1 -961 -18 -36 -19 -71 -72 -71 -107 0 -35 35 -88
71 -107 32 -17 82 -18 961 -18 l928 0 0 -928 c0 -879 1 -929 18 -961 19 -36
72 -71 107 -71 35 0 88 35 107 71 17 32 18 82 18 961 l0 928 928 0 c879 0 929
1 961 18 36 19 71 72 71 107 0 35 -35 88 -71 107 -32 17 -82 18 -961 18 l-928
0 0 928 c0 879 -1 929 -18 961 -19 36 -72 71 -107 71 -11 0 -36 -8 -54 -18z"/>
<path d="M11890 6084 c-194 -35 -394 -125 -531 -240 -202 -168 -335 -405 -383
-680 -23 -130 -24 -2155 -1 -2283 46 -262 179 -511 352 -660 l48 -40 -645 -1
c-606 0 -647 -1 -679 -18 -36 -19 -71 -72 -71 -107 0 -35 35 -88 71 -107 32
-17 82 -18 951 -18 l918 0 0 -36 c0 -95 -47 -309 -100 -454 -97 -264 -227
-466 -430 -670 -246 -246 -521 -402 -850 -484 -128 -32 -147 -35 -329 -50 -88
-8 -166 -19 -178 -26 -47 -30 -70 -110 -44 -158 27 -51 32 -52 214 -52 181 0
260 10 432 54 644 164 1184 655 1415 1286 56 155 120 448 120 554 l0 36 938 0
c889 0 939 1 971 18 36 19 71 72 71 107 0 35 -35 88 -71 107 -32 17 -73 18
-681 18 l-648 0 83 83 c176 175 272 375 318 656 18 108 19 182 19 1095 0 825
-2 995 -15 1085 -47 325 -181 574 -405 754 -240 191 -578 282 -860 231z m400
-269 c118 -38 213 -88 294 -154 191 -155 302 -365 326 -618 13 -139 13 -1912
0 -2047 -36 -372 -263 -654 -620 -772 -77 -25 -98 -28 -230 -28 -132 0 -153 3
-230 28 -179 59 -319 154 -431 292 -68 82 -117 177 -155 299 l-29 90 0 1120 0
1120 29 85 c98 290 292 488 567 579 106 35 147 40 274 37 97 -3 136 -9 205
-31z"/>
<path d="M12023 5123 c-33 -6 -79 -57 -86 -92 -26 -127 122 -210 212 -120 43
42 49 93 18 156 -20 42 -87 68 -144 56z"/>
<path d="M12023 4143 c-33 -6 -79 -57 -86 -92 -26 -127 122 -210 212 -120 43
42 49 93 18 156 -20 42 -87 68 -144 56z"/>
<path d="M12023 3163 c-33 -6 -79 -57 -86 -92 -26 -127 122 -210 212 -120 43
42 49 93 18 156 -20 42 -87 68 -144 56z"/>
<path d="M6017 4619 c-338 -39 -643 -180 -875 -404 -70 -67 -95 -99 -101 -125
-21 -96 61 -174 154 -149 22 6 66 39 118 87 150 142 262 212 438 276 158 57
233 69 424 69 191 0 266 -12 424 -69 120 -44 226 -100 316 -169 91 -69 120
-101 135 -149 29 -90 294 -283 514 -372 461 -188 991 -134 1410 143 100 67
215 165 240 205 9 14 16 47 16 72 0 39 -5 51 -35 81 -30 30 -42 35 -81 35 -48
0 -104 -30 -154 -85 -106 -114 -365 -245 -575 -291 -98 -21 -377 -24 -475 -5
-173 34 -372 120 -505 219 -67 49 -83 66 -93 99 -25 83 -249 269 -457 379
-234 124 -567 185 -838 153z"/>
</g>
</svg>
