<?xml version="1.0" standalone="no"?>
<!DOCTYPE svg PUBLIC "-//W3C//DTD SVG 20010904//EN"
 "http://www.w3.org/TR/2001/REC-SVG-20010904/DTD/svg10.dtd">
<svg version="1.0" xmlns="http://www.w3.org/2000/svg"
 width="1187pt" height="1000pt" viewBox="0 0 1187 1000"
 preserveAspectRatio="xMidYMid meet">
<metadata>
Created by potrace 1.9, written by Peter Selinger 2001-2010
</metadata>
<g transform="translate(0,1000) scale(0.100000,-0.100000)"
fill="#000000" stroke="none">
<path d="M4050 6084 c-194 -35 -394 -125 -531 -240 -290 -242 -446 -650 -384
-1003 49 -279 185 -523 384 -685 138 -113 340 -206 514 -236 l67 -12 0 -937
c0 -888 1 -938 18 -970 19 -36 72 -71 107 -71 35 0 88 35 107 71 17 32 18 82
18 971 l0 937 38 6 c20 4 78 18 127 31 417 115 712 448 790 895 61 347 -93
758 -373 994 -241 203 -592 302 -882 249z m400 -269 c176 -56 318 -152 431
-291 68 -83 117 -178 155 -299 26 -80 29 -104 29 -225 0 -121 -3 -145 -29
-225 -93 -295 -290 -493 -586 -591 -77 -25 -98 -28 -230 -28 -132 0 -153 3
-230 28 -179 59 -319 154 -431 292 -68 82 -117 177 -155 299 -26 82 -29 103
-28 230 0 126 3 149 28 225 95 288 291 488 567 579 106 35 147 40 274 37 97
-3 137 -9 205 -31z"/>
<path d="M6615 6081 c-26 -12 -208 -188 -531 -512 -535 -538 -529 -530 -504
-613 10 -35 85 -115 503 -535 519 -520 542 -540 613 -527 41 8 90 56 99 96 4
16 2 45 -4 62 -8 23 -151 173 -466 488 l-455 455 459 460 c503 504 493 491
456 568 -32 67 -102 91 -170 58z"/>
<path d="M8581 6082 c-71 -38 -71 -35 -71 -524 l0 -438 -438 0 c-404 0 -440
-1 -471 -18 -36 -19 -71 -72 -71 -107 0 -35 35 -88 71 -107 31 -17 67 -18 471
-18 l438 0 0 -855 0 -855 -438 0 c-489 0 -486 0 -524 -71 -23 -42 -23 -66 0
-108 38 -71 35 -71 524 -71 l438 0 0 -438 c0 -404 1 -440 18 -471 19 -36 72
-71 107 -71 35 0 88 35 107 71 17 31 18 67 18 471 l0 438 855 0 855 0 0 -438
c0 -489 0 -486 71 -524 42 -23 66 -23 108 0 71 38 71 35 71 524 l0 438 438 0
c489 0 486 0 524 71 23 42 23 66 0 108 -38 71 -35 71 -524 71 l-438 0 0 855 0
855 438 0 c404 0 440 1 471 18 36 19 71 72 71 107 0 35 -35 88 -71 107 -31 17
-67 18 -471 18 l-438 0 0 438 c0 404 -1 440 -18 471 -19 36 -72 71 -107 71
-35 0 -88 -35 -107 -71 -17 -31 -18 -67 -18 -471 l0 -438 -855 0 -855 0 0 438
c0 404 -1 440 -18 471 -19 36 -72 71 -107 71 -11 0 -36 -8 -54 -18z m1889
-2067 l0 -855 -855 0 -855 0 0 855 0 855 855 0 855 0 0 -855z"/>
<path d="M251 5102 c-19 -10 -43 -34 -53 -53 -17 -32 -18 -84 -18 -1034 0
-950 1 -1002 18 -1034 10 -19 34 -43 53 -53 32 -17 84 -18 1034 -18 950 0
1002 1 1034 18 19 10 43 34 53 53 17 32 18 84 18 1034 0 950 -1 1002 -18 1034
-10 19 -34 43 -53 53 -32 17 -84 18 -1034 18 -950 0 -1002 -1 -1034 -18z
m1889 -1087 l0 -855 -855 0 -855 0 0 855 0 855 855 0 855 0 0 -855z"/>
<path d="M251 2162 c-36 -19 -71 -72 -71 -107 0 -35 35 -88 71 -107 32 -17 84
-18 1034 -18 950 0 1002 1 1034 18 36 19 71 72 71 107 0 35 -35 88 -71 107
-32 17 -84 18 -1034 18 -950 0 -1002 -1 -1034 -18z"/>
</g>
</svg>
