<?xml version="1.0" standalone="no"?>
<!DOCTYPE svg PUBLIC "-//W3C//DTD SVG 20010904//EN"
 "http://www.w3.org/TR/2001/REC-SVG-20010904/DTD/svg10.dtd">
<svg version="1.0" xmlns="http://www.w3.org/2000/svg"
 width="1040pt" height="1000pt" viewBox="0 0 1040 1000"
 preserveAspectRatio="xMidYMid meet">
<metadata>
Created by potrace 1.9, written by Peter Selinger 2001-2010
</metadata>
<g transform="translate(0,1000) scale(0.100000,-0.100000)"
fill="#000000" stroke="none">
<path d="M7601 6083 c-19 -9 -46 -36 -60 -59 -14 -23 -123 -236 -241 -473
l-215 -431 -460 0 c-427 0 -463 -1 -494 -18 -36 -19 -71 -72 -71 -107 0 -35
35 -88 71 -107 31 -17 65 -18 431 -18 l398 0 -427 -855 -428 -855 -460 0
c-515 0 -508 1 -547 -71 -23 -42 -23 -66 0 -108 38 -71 40 -71 484 -71 l398 0
-200 -400 c-110 -219 -202 -416 -205 -437 -11 -74 61 -150 132 -139 69 10 74
18 319 508 l234 468 840 0 840 0 -200 -400 c-110 -219 -202 -416 -205 -437
-11 -74 61 -150 132 -139 69 10 74 18 319 508 l234 468 463 0 c517 0 510 -1
549 71 23 42 23 66 0 108 -38 71 -40 71 -484 71 -219 0 -398 2 -398 5 0 3 191
388 425 855 l425 850 458 0 c511 0 505 -1 544 71 23 42 23 66 0 108 -38 71
-40 71 -479 71 -216 0 -393 3 -393 6 0 4 88 184 195 402 108 218 198 412 201
431 11 73 -63 148 -134 137 -70 -10 -76 -21 -317 -510 l-229 -466 -838 0
c-461 0 -838 2 -838 5 0 2 92 189 205 415 113 226 205 421 205 433 0 37 -34
89 -71 109 -41 22 -64 22 -108 1z m892 -2068 l-428 -855 -837 0 c-461 0 -838
2 -838 5 0 3 191 388 425 855 l425 850 840 0 840 0 -427 -855z"/>
<path d="M251 5102 c-19 -10 -43 -34 -53 -53 -17 -32 -18 -84 -18 -1034 0
-950 1 -1002 18 -1034 19 -36 72 -71 107 -71 35 0 88 35 107 71 17 31 18 67
18 471 l0 438 855 0 855 0 0 -438 c0 -489 0 -486 71 -524 42 -23 66 -23 108 0
71 38 71 35 71 524 l0 438 855 0 855 0 0 -438 c0 -404 1 -440 18 -471 19 -36
72 -71 107 -71 35 0 88 35 107 71 17 32 18 84 18 1034 0 950 -1 1002 -18 1034
-19 36 -72 71 -107 71 -35 0 -88 -35 -107 -71 -17 -31 -18 -67 -18 -471 l0
-438 -855 0 -855 0 0 438 c0 404 -1 440 -18 471 -19 36 -72 71 -107 71 -35 0
-88 -35 -107 -71 -17 -31 -18 -67 -18 -471 l0 -438 -855 0 -855 0 0 438 c0
404 -1 440 -18 471 -19 36 -72 71 -107 71 -11 0 -36 -8 -54 -18z"/>
</g>
</svg>
