<?xml version="1.0" standalone="no"?>
<!DOCTYPE svg PUBLIC "-//W3C//DTD SVG 20010904//EN"
 "http://www.w3.org/TR/2001/REC-SVG-20010904/DTD/svg10.dtd">
<svg version="1.0" xmlns="http://www.w3.org/2000/svg"
 width="550pt" height="1000pt" viewBox="0 0 550 1000"
 preserveAspectRatio="xMidYMid meet">
<metadata>
Created by potrace 1.9, written by Peter Selinger 2001-2010
</metadata>
<g transform="translate(0,1000) scale(0.100000,-0.100000)"
fill="#000000" stroke="none">
<path d="M2702 8044 c-18 -9 -41 -29 -51 -43 -40 -56 -501 -992 -506 -1028
-11 -74 61 -150 132 -139 68 10 76 22 280 430 l195 391 193 -385 c200 -398
216 -423 282 -436 39 -7 95 18 118 53 41 62 45 53 -233 609 -194 389 -267 525
-287 538 -39 25 -85 29 -123 10z"/>
<path d="M2701 6083 c-19 -9 -46 -36 -60 -59 -14 -23 -123 -236 -241 -473
l-215 -431 -460 0 c-515 0 -508 1 -547 -71 -23 -42 -23 -66 0 -108 38 -71 40
-71 484 -71 l398 0 -427 -855 -428 -855 -460 0 c-515 0 -508 1 -547 -71 -23
-42 -23 -66 0 -108 38 -71 40 -71 484 -71 l398 0 -200 -400 c-110 -219 -202
-416 -205 -437 -11 -74 61 -150 132 -139 69 10 74 18 319 508 l234 468 840 0
840 0 -200 -400 c-110 -219 -202 -416 -205 -437 -11 -74 61 -150 132 -139 69
10 74 18 319 508 l234 468 463 0 c517 0 510 -1 549 71 23 42 23 66 0 108 -38
71 -40 71 -484 71 -219 0 -398 2 -398 5 0 3 191 388 425 855 l425 850 458 0
c511 0 505 -1 544 71 23 42 23 66 0 108 -38 71 -40 71 -479 71 -216 0 -393 3
-393 6 0 4 88 184 195 402 108 218 198 412 201 431 11 73 -63 148 -134 137
-70 -10 -76 -21 -317 -510 l-229 -466 -838 0 c-461 0 -838 2 -838 5 0 2 92
189 205 415 113 226 205 421 205 433 0 37 -34 89 -71 109 -41 22 -64 22 -108
1z m892 -2068 l-428 -855 -837 0 c-461 0 -838 2 -838 5 0 3 191 388 425 855
l425 850 840 0 840 0 -427 -855z"/>
</g>
</svg>
