<?xml version="1.0" standalone="no"?>
<!DOCTYPE svg PUBLIC "-//W3C//DTD SVG 20010904//EN"
 "http://www.w3.org/TR/2001/REC-SVG-20010904/DTD/svg10.dtd">
<svg version="1.0" xmlns="http://www.w3.org/2000/svg"
 width="452pt" height="1000pt" viewBox="0 0 452 1000"
 preserveAspectRatio="xMidYMid meet">
<metadata>
Created by potrace 1.9, written by Peter Selinger 2001-2010
</metadata>
<g transform="translate(0,1000) scale(0.100000,-0.100000)"
fill="#000000" stroke="none">
<path d="M1231 6082 c-19 -10 -43 -34 -53 -53 -17 -32 -18 -83 -18 -1006 l0
-973 -485 -970 c-269 -538 -487 -986 -490 -1007 -16 -104 101 -175 190 -117
20 13 134 232 467 898 l440 881 439 -877 c368 -736 444 -880 471 -900 l33 -23
1010 -3 c964 -2 1012 -1 1044 16 37 20 71 72 71 109 0 13 -221 464 -490 1003
l-490 980 0 978 c0 927 -1 979 -18 1011 -19 36 -72 71 -107 71 -35 0 -88 -35
-107 -71 -17 -32 -18 -84 -19 -1009 l0 -975 -428 -855 -428 -855 -427 853
-426 852 0 978 c0 927 -1 979 -18 1011 -19 36 -72 71 -107 71 -11 0 -36 -8
-54 -18z m2016 -3900 c-424 -1 -772 0 -774 2 -2 2 170 352 383 777 l387 774
387 -775 388 -775 -771 -3z"/>
</g>
</svg>
