<?xml version="1.0" standalone="no"?>
<!DOCTYPE svg PUBLIC "-//W3C//DTD SVG 20010904//EN"
 "http://www.w3.org/TR/2001/REC-SVG-20010904/DTD/svg10.dtd">
<svg version="1.0" xmlns="http://www.w3.org/2000/svg"
 width="1334pt" height="1000pt" viewBox="0 0 1334 1000"
 preserveAspectRatio="xMidYMid meet">
<metadata>
Created by potrace 1.9, written by Peter Selinger 2001-2010
</metadata>
<g transform="translate(0,1000) scale(0.100000,-0.100000)"
fill="#000000" stroke="none">
<path d="M1231 6082 c-19 -10 -43 -34 -53 -53 -17 -32 -18 -113 -18 -1941 l0
-1908 -438 0 c-404 0 -440 -1 -471 -18 -36 -19 -71 -72 -71 -107 0 -35 35 -88
71 -107 32 -17 84 -18 1034 -18 950 0 1002 1 1034 18 36 19 71 72 71 107 0 35
-35 88 -71 107 -31 17 -67 18 -471 18 l-438 0 0 1908 c0 1828 -1 1909 -18
1941 -19 36 -72 71 -107 71 -11 0 -36 -8 -54 -18z"/>
<path d="M6990 6084 c-122 -22 -238 -62 -349 -121 -308 -161 -509 -452 -568
-819 -16 -100 -16 -107 6 -249 102 -668 339 -1249 727 -1787 213 -295 496
-587 784 -809 106 -82 381 -267 494 -332 62 -36 87 -25 399 182 557 368 1004
871 1327 1494 198 382 327 779 399 1232 20 125 19 131 -5 283 -77 488 -428
840 -920 926 -359 63 -766 -92 -1007 -382 -35 -42 -79 -105 -98 -139 -19 -35
-36 -63 -39 -63 -3 1 -24 33 -47 73 -209 364 -689 586 -1103 511z m400 -269
c353 -114 585 -399 619 -764 5 -54 15 -107 22 -119 43 -69 175 -69 218 0 7 12
17 65 22 119 17 179 89 357 197 484 115 137 243 222 422 281 77 25 98 28 230
28 132 0 153 -3 230 -28 183 -61 317 -152 431 -292 66 -80 115 -175 155 -294
25 -76 28 -100 28 -220 0 -110 -5 -159 -27 -265 -113 -532 -328 -1027 -628
-1446 -257 -359 -581 -679 -944 -931 -139 -96 -215 -139 -236 -133 -27 9 -256
165 -359 244 -403 311 -780 745 -1005 1156 -227 415 -372 837 -440 1280 -20
130 -15 201 22 318 88 280 289 485 564 576 106 35 147 40 274 37 97 -3 136 -9
205 -31z"/>
<path d="M11031 6082 c-19 -10 -43 -34 -53 -53 -17 -32 -18 -84 -18 -1034 0
-950 1 -1002 18 -1034 10 -19 34 -43 53 -53 32 -17 82 -18 961 -18 l928 0 0
-928 c0 -879 1 -929 18 -961 19 -36 72 -71 107 -71 35 0 88 35 107 71 17 32
18 115 18 2014 0 1899 -1 1982 -18 2014 -19 36 -72 71 -107 71 -35 0 -88 -35
-107 -71 -17 -32 -18 -73 -18 -676 l0 -643 -82 83 c-167 166 -369 268 -614
311 -160 28 -319 15 -498 -40 -169 -53 -381 -189 -480 -307 l-36 -42 0 640 c0
601 -1 642 -18 674 -19 36 -72 71 -107 71 -11 0 -36 -8 -54 -18z m1259 -1247
c292 -94 493 -294 584 -583 14 -46 26 -90 26 -98 0 -12 -113 -14 -840 -14
-727 0 -840 2 -840 14 0 8 12 52 26 98 89 281 290 486 565 577 106 35 147 40
274 37 97 -3 136 -9 205 -31z"/>
<path d="M3191 4122 c-36 -19 -71 -72 -71 -107 0 -35 35 -88 71 -107 32 -17
84 -18 1034 -18 950 0 1002 1 1034 18 36 19 71 72 71 107 0 35 -35 88 -71 107
-32 17 -84 18 -1034 18 -950 0 -1002 -1 -1034 -18z"/>
</g>
</svg>
