<?xml version="1.0" standalone="no"?>
<!DOCTYPE svg PUBLIC "-//W3C//DTD SVG 20010904//EN"
 "http://www.w3.org/TR/2001/REC-SVG-20010904/DTD/svg10.dtd">
<svg version="1.0" xmlns="http://www.w3.org/2000/svg"
 width="942pt" height="1000pt" viewBox="0 0 942 1000"
 preserveAspectRatio="xMidYMid meet">
<metadata>
Created by potrace 1.9, written by Peter Selinger 2001-2010
</metadata>
<g transform="translate(0,1000) scale(0.100000,-0.100000)"
fill="#000000" stroke="none">
<path d="M2115 6094 c-684 -55 -1279 -418 -1631 -994 -199 -327 -298 -686
-298 -1080 0 -204 15 -323 64 -520 184 -731 759 -1306 1490 -1490 197 -49 316
-64 520 -64 557 0 1074 211 1461 595 398 396 613 914 613 1479 0 204 -15 323
-64 520 -165 656 -654 1197 -1290 1430 -108 39 -286 84 -416 104 -102 16 -357
27 -449 20z m418 -265 c215 -32 478 -126 660 -235 240 -145 495 -400 640 -641
111 -184 202 -440 238 -668 7 -44 13 -163 13 -265 0 -102 -6 -221 -13 -265
-36 -228 -127 -484 -238 -668 -138 -230 -398 -494 -615 -626 l-37 -22 49 93
c78 150 130 352 130 508 0 306 -164 656 -395 841 -194 156 -470 259 -695 259
-78 0 -239 -23 -318 -46 -178 -51 -392 -183 -503 -309 -171 -196 -267 -427
-285 -694 -12 -174 36 -388 126 -559 l49 -93 -37 22 c-217 132 -477 396 -615
626 -111 184 -202 440 -238 668 -16 103 -16 427 0 530 36 228 127 484 237 668
146 242 399 495 641 641 225 135 511 225 793 250 73 6 334 -3 413 -15z m-43
-1974 c83 -27 188 -75 242 -112 l27 -19 -252 -252 -252 -252 -250 250 -250
251 25 19 c39 31 179 96 245 115 149 44 329 43 465 0z m-664 -1064 c-285 -285
-251 -271 -319 -136 -142 283 -125 588 47 852 l21 33 250 -250 250 -250 -249
-249z m1131 732 c30 -39 93 -173 119 -258 26 -80 29 -104 29 -225 0 -121 -3
-145 -29 -225 -27 -86 -89 -219 -121 -260 -15 -19 -26 -9 -268 233 l-252 252
250 250 c137 137 252 250 254 250 2 0 10 -8 18 -17z m-225 -1186 c-53 -36
-158 -85 -242 -113 -77 -25 -98 -28 -230 -28 -132 0 -153 3 -230 28 -47 15
-119 46 -160 67 -134 70 -149 34 135 319 l250 250 252 -252 252 -252 -27 -19z"/>
<path d="M6125 6081 c-27 -13 -201 -180 -531 -512 -513 -516 -526 -530 -509
-596 16 -67 79 -110 143 -98 32 5 92 61 435 403 l397 397 0 -1820 c0 -1744 1
-1822 18 -1854 19 -36 72 -71 107 -71 35 0 88 35 107 71 17 32 18 110 18 1849
l0 1815 388 -387 c403 -402 425 -420 489 -403 67 16 110 79 98 143 -5 32 -74
104 -513 546 -290 290 -521 514 -539 522 -42 18 -60 17 -108 -5z"/>
<path d="M8091 6082 c-19 -10 -43 -34 -53 -53 -17 -32 -18 -110 -18 -1854 l0
-1820 -397 397 c-436 435 -430 430 -506 393 -61 -29 -87 -88 -67 -152 17 -53
973 -1015 1039 -1045 88 -40 61 -62 629 505 358 358 515 522 523 544 6 18 8
47 4 63 -8 39 -56 87 -95 95 -70 15 -85 2 -492 -403 l-388 -387 0 1815 c0
1739 -1 1817 -18 1849 -19 36 -72 71 -107 71 -11 0 -36 -8 -54 -18z"/>
</g>
</svg>
