<?xml version="1.0" standalone="no"?>
<!DOCTYPE svg PUBLIC "-//W3C//DTD SVG 20010904//EN"
 "http://www.w3.org/TR/2001/REC-SVG-20010904/DTD/svg10.dtd">
<svg version="1.0" xmlns="http://www.w3.org/2000/svg"
 width="256pt" height="1000pt" viewBox="0 0 256 1000"
 preserveAspectRatio="xMidYMid meet">
<metadata>
Created by potrace 1.9, written by Peter Selinger 2001-2010
</metadata>
<g transform="translate(0,1000) scale(0.100000,-0.100000)"
fill="#000000" stroke="none">
<path d="M1231 6082 c-71 -38 -71 -35 -71 -524 l0 -438 -438 0 c-489 0 -486 0
-524 -71 -23 -42 -23 -66 0 -108 38 -71 35 -71 524 -71 l438 0 0 -1418 c0
-1354 1 -1419 18 -1451 19 -36 72 -71 107 -71 35 0 88 35 107 71 17 32 18 97
18 1451 l0 1418 438 0 c489 0 486 0 524 71 23 42 23 66 0 108 -38 71 -35 71
-524 71 l-438 0 0 438 c0 404 -1 440 -18 471 -19 36 -72 71 -107 71 -11 0 -36
-8 -54 -18z"/>
</g>
</svg>
