<?xml version="1.0" standalone="no"?>
<!DOCTYPE svg PUBLIC "-//W3C//DTD SVG 20010904//EN"
 "http://www.w3.org/TR/2001/REC-SVG-20010904/DTD/svg10.dtd">
<svg version="1.0" xmlns="http://www.w3.org/2000/svg"
 width="1236pt" height="1000pt" viewBox="0 0 1236 1000"
 preserveAspectRatio="xMidYMid meet">
<metadata>
Created by potrace 1.9, written by Peter Selinger 2001-2010
</metadata>
<g transform="translate(0,1000) scale(0.100000,-0.100000)"
fill="#000000" stroke="none">
<path d="M2211 6082 c-19 -10 -43 -34 -53 -53 -17 -32 -18 -82 -18 -961 l0
-928 -936 0 c-856 0 -938 -1 -964 -17 -47 -28 -55 -55 -53 -182 9 -506 237
-1027 612 -1400 387 -384 904 -595 1461 -595 204 0 323 15 520 64 592 149
1093 561 1356 1115 112 236 163 438 203 808 13 115 2 152 -54 187 -32 20 -47
20 -964 20 l-931 0 0 928 c0 879 -1 929 -18 961 -19 36 -72 71 -107 71 -11 0
-36 -8 -54 -18z m1869 -2228 c0 -143 -76 -420 -170 -622 -142 -302 -420 -607
-717 -786 -184 -110 -440 -201 -668 -237 -103 -16 -427 -16 -530 0 -228 36
-484 127 -668 237 -297 179 -575 484 -717 786 -94 202 -170 479 -170 622 l0
36 1820 0 1820 0 0 -36z"/>
<path d="M6131 6082 c-19 -10 -43 -34 -53 -53 -17 -32 -18 -113 -18 -1941 l0
-1908 -438 0 c-404 0 -440 -1 -471 -18 -36 -19 -71 -72 -71 -107 0 -35 35 -88
71 -107 32 -17 84 -18 1034 -18 950 0 1002 1 1034 18 36 19 71 72 71 107 0 35
-35 88 -71 107 -31 17 -67 18 -471 18 l-438 0 0 1908 c0 1828 -1 1909 -18
1941 -19 36 -72 71 -107 71 -11 0 -36 -8 -54 -18z"/>
<path d="M9938 4125 c-207 -33 -388 -114 -551 -248 -174 -144 -306 -364 -357
-599 -43 -197 -37 -352 22 -553 54 -184 198 -413 317 -505 l46 -35 -655 -5
c-611 -5 -657 -6 -682 -23 -28 -19 -58 -73 -58 -104 0 -33 36 -86 71 -105 32
-17 115 -18 2014 -18 1899 0 1982 1 2014 18 35 19 71 72 71 105 0 31 -30 85
-58 104 -25 17 -72 18 -687 23 l-660 5 47 36 c26 20 79 76 117 124 195 246
286 574 236 854 -35 202 -115 383 -235 535 -158 199 -409 342 -685 390 -107
19 -208 19 -327 1z m392 -270 c83 -27 188 -75 242 -112 l27 -19 -252 -252
-252 -252 -250 250 -250 251 25 19 c39 31 179 96 245 115 149 44 329 43 465 0z
m-664 -1064 c-285 -285 -251 -271 -319 -136 -142 283 -125 588 47 852 l21 33
250 -250 250 -250 -249 -249z m1131 732 c30 -39 93 -173 119 -258 26 -80 29
-104 29 -225 0 -121 -3 -145 -29 -225 -27 -86 -89 -219 -121 -260 -15 -19 -26
-9 -268 233 l-252 252 250 250 c137 137 252 250 254 250 2 0 10 -8 18 -17z
m-225 -1186 c-53 -36 -158 -85 -242 -113 -77 -25 -98 -28 -230 -28 -132 0
-153 3 -230 28 -47 15 -119 46 -160 67 -134 70 -149 34 135 319 l250 250 252
-252 252 -252 -27 -19z"/>
</g>
</svg>
