<?xml version="1.0" standalone="no"?>
<!DOCTYPE svg PUBLIC "-//W3C//DTD SVG 20010904//EN"
 "http://www.w3.org/TR/2001/REC-SVG-20010904/DTD/svg10.dtd">
<svg version="1.0" xmlns="http://www.w3.org/2000/svg"
 width="1040pt" height="1000pt" viewBox="0 0 1040 1000"
 preserveAspectRatio="xMidYMid meet">
<metadata>
Created by potrace 1.9, written by Peter Selinger 2001-2010
</metadata>
<g transform="translate(0,1000) scale(0.100000,-0.100000)"
fill="#000000" stroke="none">
<path d="M5152 8044 c-18 -9 -41 -29 -51 -43 -40 -56 -501 -992 -506 -1028
-11 -74 61 -150 132 -139 68 10 76 22 280 430 l195 391 193 -385 c200 -398
216 -423 282 -436 39 -7 95 18 118 53 41 62 45 53 -233 609 -194 389 -267 525
-287 538 -39 25 -85 29 -123 10z"/>
<path d="M3191 5102 c-35 -19 -71 -72 -71 -105 0 -55 41 -103 413 -474 l382
-383 -1815 0 c-1739 0 -1817 -1 -1849 -18 -36 -19 -71 -72 -71 -107 0 -35 35
-88 71 -107 32 -17 110 -18 1849 -18 l1815 0 -387 -387 c-402 -404 -420 -426
-403 -490 16 -67 79 -110 143 -98 32 5 92 61 435 403 l397 397 0 -350 c0 -392
1 -400 71 -437 32 -17 84 -18 1034 -18 950 0 1002 1 1034 18 70 37 71 46 71
432 l0 345 388 -387 c403 -402 425 -420 489 -403 67 16 110 79 98 143 -5 32
-61 92 -403 435 l-397 397 1820 0 c1744 0 1822 1 1854 18 36 19 71 72 71 107
0 35 -35 88 -71 107 -32 17 -110 18 -1854 18 l-1820 0 397 398 c342 342 398
402 403 434 12 64 -31 127 -98 143 -64 17 -86 -1 -489 -403 l-388 -387 0 345
c0 386 -1 395 -71 432 -32 17 -84 18 -1034 18 -950 0 -1002 -1 -1034 -18 -70
-37 -71 -45 -71 -437 l0 -350 -392 392 c-216 216 -406 397 -421 403 -39 14
-57 13 -96 -8z m2869 -1087 l0 -855 -855 0 -855 0 0 855 0 855 855 0 855 0 0
-855z"/>
</g>
</svg>
