<?xml version="1.0" standalone="no"?>
<!DOCTYPE svg PUBLIC "-//W3C//DTD SVG 20010904//EN"
 "http://www.w3.org/TR/2001/REC-SVG-20010904/DTD/svg10.dtd">
<svg version="1.0" xmlns="http://www.w3.org/2000/svg"
 width="354pt" height="1000pt" viewBox="0 0 354 1000"
 preserveAspectRatio="xMidYMid meet">
<metadata>
Created by potrace 1.9, written by Peter Selinger 2001-2010
</metadata>
<g transform="translate(0,1000) scale(0.100000,-0.100000)"
fill="#000000" stroke="none">
<path d="M251 4122 c-19 -10 -43 -34 -53 -53 -17 -32 -18 -84 -18 -1034 0
-950 1 -1002 18 -1034 10 -19 34 -43 53 -53 32 -17 84 -18 1024 -18 939 0 996
1 1111 20 158 25 266 60 386 122 308 160 509 444 572 804 20 113 20 215 0 328
-86 494 -432 837 -930 922 -102 17 -187 15 -222 -7 -11 -7 -27 -25 -36 -40
-15 -25 -16 -115 -16 -963 l0 -936 -855 0 -855 0 0 928 c0 879 -1 929 -18 961
-19 36 -72 71 -107 71 -11 0 -36 -8 -54 -18z m2241 -268 c177 -56 315 -149
429 -290 66 -80 115 -174 155 -294 25 -77 28 -98 28 -230 0 -132 -3 -153 -28
-230 -98 -295 -295 -493 -584 -584 -46 -14 -87 -26 -93 -26 -5 0 -9 317 -9
840 0 523 4 840 9 840 6 0 47 -12 93 -26z"/>
</g>
</svg>
