<?xml version="1.0" standalone="no"?>
<!DOCTYPE svg PUBLIC "-//W3C//DTD SVG 20010904//EN"
 "http://www.w3.org/TR/2001/REC-SVG-20010904/DTD/svg10.dtd">
<svg version="1.0" xmlns="http://www.w3.org/2000/svg"
 width="844pt" height="1000pt" viewBox="0 0 844 1000"
 preserveAspectRatio="xMidYMid meet">
<metadata>
Created by potrace 1.9, written by Peter Selinger 2001-2010
</metadata>
<g transform="translate(0,1000) scale(0.100000,-0.100000)"
fill="#000000" stroke="none">
<path d="M2212 8044 c-18 -9 -41 -29 -51 -43 -40 -56 -501 -992 -506 -1028
-11 -74 61 -150 132 -139 68 10 76 22 280 430 l195 391 193 -385 c200 -398
216 -423 282 -436 39 -7 95 18 118 53 41 62 45 53 -233 609 -194 389 -267 525
-287 538 -39 25 -85 29 -123 10z"/>
<path d="M4165 6081 c-27 -13 -663 -643 -2001 -1982 -1584 -1586 -1964 -1971
-1974 -2002 -15 -49 -5 -90 31 -126 35 -35 77 -46 121 -32 24 8 598 576 2015
1993 2169 2171 2017 2010 1978 2091 -32 67 -102 91 -170 58z"/>
<path d="M6125 4121 c-28 -13 -345 -325 -1021 -1002 -792 -794 -984 -991 -994
-1022 -20 -64 6 -123 67 -152 80 -38 18 -93 1056 943 l947 947 938 -937 c923
-923 971 -968 1029 -968 33 0 86 36 105 71 17 32 18 84 18 1034 0 950 -1 1002
-18 1034 -19 36 -72 71 -107 71 -35 0 -88 -35 -107 -71 -17 -32 -18 -79 -18
-874 l0 -840 -882 882 c-497 497 -895 887 -911 893 -39 14 -56 13 -102 -9z"/>
</g>
</svg>
