<?xml version="1.0" standalone="no"?>
<!DOCTYPE svg PUBLIC "-//W3C//DTD SVG 20010904//EN"
 "http://www.w3.org/TR/2001/REC-SVG-20010904/DTD/svg10.dtd">
<svg version="1.0" xmlns="http://www.w3.org/2000/svg"
 width="942pt" height="1000pt" viewBox="0 0 942 1000"
 preserveAspectRatio="xMidYMid meet">
<metadata>
Created by potrace 1.9, written by Peter Selinger 2001-2010
</metadata>
<g transform="translate(0,1000) scale(0.100000,-0.100000)"
fill="#000000" stroke="none">
<path d="M1721 8042 c-47 -25 -74 -76 -66 -125 3 -21 118 -263 255 -537 272
-544 273 -545 355 -545 78 1 77 -2 357 559 278 556 274 547 233 609 -23 35
-79 60 -118 53 -66 -13 -82 -38 -282 -436 l-193 -385 -195 391 c-143 286 -202
395 -222 408 -41 27 -85 30 -124 8z"/>
<path d="M2195 6104 c-28 -7 -70 -13 -94 -14 -116 -1 -402 -62 -561 -120 -503
-184 -925 -569 -1156 -1055 -118 -250 -192 -555 -197 -816 -2 -127 6 -154 53
-182 54 -33 138 -15 170 36 7 12 18 90 26 178 15 182 18 201 50 329 82 329
238 604 484 850 323 323 698 495 1166 534 58 5 62 4 91 -27 124 -131 234 -355
280 -569 21 -100 24 -368 4 -468 -20 -103 -59 -217 -111 -325 -55 -115 -118
-203 -304 -423 -117 -139 -229 -337 -285 -507 -150 -454 -84 -927 185 -1331
73 -111 169 -215 217 -237 71 -33 146 -1 168 72 17 56 0 95 -82 186 -152 171
-247 360 -296 587 -24 115 -24 370 1 488 44 210 150 425 279 566 28 31 67 77
86 104 20 27 63 84 96 127 207 270 307 567 309 913 1 270 -61 518 -184 733
-27 48 -50 89 -50 92 0 13 229 -45 340 -85 264 -97 466 -227 670 -430 246
-246 402 -521 484 -850 32 -128 35 -147 50 -329 8 -88 19 -166 26 -178 45 -72
172 -69 212 5 18 34 14 225 -7 362 -71 458 -269 853 -585 1170 -352 351 -797
555 -1311 600 -64 6 -129 14 -145 19 -18 5 -47 3 -79 -5z"/>
<path d="M7015 6094 c-172 -14 -419 -67 -575 -124 -631 -231 -1120 -769 -1286
-1415 -70 -271 -67 -205 -71 -1420 -4 -1057 -3 -1101 15 -1134 10 -19 34 -43
53 -53 32 -17 115 -18 2014 -18 1899 0 1982 1 2014 18 19 10 43 34 53 53 17
32 18 84 18 1014 0 975 -2 1051 -36 1300 -85 616 -439 1154 -974 1481 -234
142 -489 233 -776 278 -102 16 -357 27 -449 20z m418 -265 c215 -32 478 -126
660 -235 242 -146 495 -399 641 -641 77 -128 158 -324 197 -476 62 -244 69
-380 69 -1414 l0 -883 -1836 0 -1835 0 4 1028 c3 872 6 1039 20 1107 78 409
238 716 517 995 318 317 699 495 1150 534 73 6 334 -3 413 -15z"/>
</g>
</svg>
