<?xml version="1.0" standalone="no"?>
<!DOCTYPE svg PUBLIC "-//W3C//DTD SVG 20010904//EN"
 "http://www.w3.org/TR/2001/REC-SVG-20010904/DTD/svg10.dtd">
<svg version="1.0" xmlns="http://www.w3.org/2000/svg"
 width="452pt" height="1000pt" viewBox="0 0 452 1000"
 preserveAspectRatio="xMidYMid meet">
<metadata>
Created by potrace 1.9, written by Peter Selinger 2001-2010
</metadata>
<g transform="translate(0,1000) scale(0.100000,-0.100000)"
fill="#000000" stroke="none">
<path d="M1110 5104 c-194 -35 -394 -125 -531 -240 -202 -168 -335 -405 -383
-680 -74 -419 156 -903 523 -1105 34 -19 61 -36 61 -39 0 -3 -28 -20 -63 -39
-361 -197 -595 -688 -522 -1100 49 -279 185 -523 384 -685 145 -119 339 -206
536 -240 114 -20 216 -20 330 0 540 94 900 507 938 1074 2 29 13 43 76 96 237
199 572 298 899 266 243 -24 479 -120 653 -265 58 -49 75 -70 84 -102 19 -73
55 -105 121 -105 48 0 113 41 145 93 25 39 20 97 -10 138 -12 16 -21 42 -21
60 0 54 -30 229 -60 349 -165 656 -653 1197 -1290 1430 -161 58 -449 120 -563
120 l-45 0 -7 53 c-23 167 -120 386 -233 527 -237 297 -660 460 -1022 394z
m400 -269 c176 -56 318 -152 431 -291 68 -83 117 -178 155 -299 26 -80 29
-104 29 -225 0 -121 -3 -145 -29 -225 -93 -295 -290 -493 -586 -591 -77 -25
-98 -28 -230 -28 -132 0 -153 3 -230 28 -179 59 -319 154 -431 292 -68 82
-117 177 -155 299 -26 82 -29 103 -28 230 0 126 3 149 28 225 95 288 291 488
567 579 106 35 147 40 274 37 97 -3 137 -9 205 -31z m1023 -966 c215 -32 478
-126 660 -235 242 -146 495 -399 641 -641 48 -80 106 -206 146 -313 30 -84 74
-240 68 -245 -2 -1 -41 19 -87 46 -211 122 -454 183 -726 183 -322 0 -564 -74
-847 -257 l-57 -37 -16 53 c-29 88 -115 243 -182 327 -77 96 -181 187 -280
243 -40 23 -73 44 -73 47 0 3 33 24 73 47 260 149 442 422 512 766 5 25 9 27
51 27 25 0 78 -5 117 -11z m-1023 -994 c176 -56 318 -152 431 -291 68 -84 118
-179 154 -299 24 -78 26 -93 15 -123 -17 -47 -15 -98 5 -128 21 -32 15 -80
-22 -204 -85 -285 -288 -489 -583 -586 -77 -25 -98 -28 -230 -28 -132 0 -153
3 -230 28 -179 59 -319 154 -431 292 -68 82 -117 177 -155 299 -26 82 -29 103
-28 230 0 126 3 149 28 225 95 288 291 488 567 579 106 35 147 40 274 37 97
-3 137 -9 205 -31z"/>
</g>
</svg>
