<?xml version="1.0" standalone="no"?>
<!DOCTYPE svg PUBLIC "-//W3C//DTD SVG 20010904//EN"
 "http://www.w3.org/TR/2001/REC-SVG-20010904/DTD/svg10.dtd">
<svg version="1.0" xmlns="http://www.w3.org/2000/svg"
 width="1334pt" height="1000pt" viewBox="0 0 1334 1000"
 preserveAspectRatio="xMidYMid meet">
<metadata>
Created by potrace 1.9, written by Peter Selinger 2001-2010
</metadata>
<g transform="translate(0,1000) scale(0.100000,-0.100000)"
fill="#000000" stroke="none">
<path d="M12445 6075 c-30 -31 -35 -42 -35 -83 0 -41 6 -54 43 -99 144 -176
180 -225 220 -302 54 -102 100 -230 124 -343 24 -115 24 -370 -1 -488 -44
-210 -150 -425 -279 -566 -28 -31 -67 -78 -86 -104 -20 -27 -58 -77 -86 -112
-115 -144 -226 -365 -270 -538 -114 -441 -41 -868 211 -1246 73 -111 169 -215
217 -237 71 -33 146 -1 168 72 17 56 0 95 -82 186 -152 171 -247 360 -296 587
-24 115 -24 370 1 488 44 210 150 425 279 566 28 31 67 78 86 104 20 27 59 77
86 112 76 96 169 258 214 371 76 196 105 354 105 567 -1 387 -131 723 -393
1015 -63 70 -88 85 -143 85 -41 0 -52 -5 -83 -35z"/>
<path d="M7015 6094 c-684 -55 -1279 -418 -1631 -994 -143 -235 -234 -491
-279 -780 -21 -137 -25 -328 -7 -362 40 -74 167 -77 212 -5 7 12 18 90 26 178
15 182 18 201 50 329 82 329 238 604 484 850 246 246 519 401 850 485 155 39
245 49 440 49 195 0 285 -10 440 -49 331 -84 604 -239 850 -485 241 -242 401
-519 481 -835 11 -44 22 -89 26 -100 3 -11 -165 150 -373 357 -415 413 -411
409 -487 373 -61 -29 -87 -88 -67 -152 17 -53 973 -1015 1039 -1045 88 -40 61
-62 629 505 358 358 515 522 523 544 6 18 8 47 4 63 -8 39 -56 87 -95 95 -70
15 -85 3 -506 -417 -318 -316 -403 -397 -407 -382 -3 11 -9 39 -12 64 -11 77
-63 271 -95 360 -207 565 -665 1023 -1230 1230 -108 39 -286 84 -416 104 -102
16 -357 27 -449 20z"/>
<path d="M2090 5104 c-274 -49 -517 -189 -681 -391 l-64 -80 -115 -6 c-228
-13 -432 -64 -612 -153 -190 -95 -414 -269 -460 -358 -49 -95 25 -201 128
-182 26 5 58 28 113 79 183 171 370 277 586 331 64 16 226 38 232 32 2 -2 -3
-28 -12 -58 -25 -88 -45 -218 -45 -298 0 -161 52 -359 137 -520 157 -299 445
-502 798 -564 114 -20 216 -20 330 0 324 56 611 244 763 500 l36 60 125 12
c150 14 245 33 366 73 178 59 376 172 515 294 83 74 100 100 100 159 0 39 -5
51 -35 81 -30 30 -42 35 -81 35 -48 0 -104 -30 -154 -85 -14 -15 -54 -48 -90
-75 -160 -118 -384 -208 -571 -228 l-75 -8 13 61 c79 361 -73 793 -365 1040
-241 203 -592 302 -882 249z m400 -269 c176 -56 318 -152 431 -291 68 -83 117
-178 155 -299 25 -79 29 -105 29 -220 0 -98 -5 -147 -19 -197 l-19 -68 -41 6
c-111 17 -294 83 -406 146 -84 47 -200 136 -200 153 0 30 -39 90 -87 136 -182
172 -451 326 -649 370 l-54 12 22 25 c86 91 225 177 359 221 106 35 147 40
274 37 97 -3 137 -9 205 -31z m-916 -491 c184 -46 341 -125 496 -250 55 -44
67 -60 78 -99 14 -53 63 -104 187 -194 167 -122 326 -199 513 -247 l101 -27
-42 -50 c-102 -122 -248 -217 -417 -273 -77 -25 -98 -28 -230 -28 -132 0 -153
3 -230 28 -179 59 -319 154 -431 292 -68 82 -117 177 -155 299 -26 82 -29 103
-28 230 0 130 2 147 33 238 22 67 37 97 48 97 8 0 43 -7 77 -16z"/>
<path d="M7084 4111 c-21 -16 -256 -246 -520 -512 -503 -505 -516 -520 -499
-586 16 -67 79 -110 143 -98 32 5 93 62 443 412 224 223 409 401 411 397 3 -5
9 -31 12 -59 4 -27 20 -102 36 -165 184 -731 759 -1306 1490 -1490 197 -49
316 -64 520 -64 557 0 1074 211 1461 595 322 320 523 719 594 1179 21 137 25
328 7 362 -40 74 -167 77 -212 5 -7 -12 -18 -90 -26 -178 -15 -182 -18 -201
-50 -329 -41 -166 -119 -358 -201 -493 -145 -241 -400 -496 -640 -641 -184
-110 -440 -201 -668 -237 -103 -16 -427 -16 -530 0 -228 36 -484 127 -668 237
-240 145 -495 400 -640 641 -81 133 -159 325 -202 492 l-24 94 372 -370 c391
-389 408 -403 477 -388 40 9 88 58 95 99 4 18 1 46 -7 64 -11 28 -978 1008
-1033 1048 -34 24 -97 18 -141 -15z"/>
<path d="M1231 3142 c-35 -19 -71 -72 -71 -105 0 -55 41 -103 413 -474 l382
-383 -345 0 c-315 0 -348 -2 -379 -18 -36 -19 -71 -72 -71 -107 0 -35 35 -88
71 -107 32 -17 84 -18 1034 -18 950 0 1002 1 1034 18 36 19 71 72 71 107 0 35
-35 88 -71 107 -31 16 -64 18 -384 18 l-350 0 397 398 c342 342 398 402 403
434 12 64 -31 127 -98 143 -65 17 -82 2 -555 -469 l-452 -451 -453 452 c-248
249 -465 457 -480 463 -39 14 -57 13 -96 -8z"/>
</g>
</svg>
