<?xml version="1.0" standalone="no"?>
<!DOCTYPE svg PUBLIC "-//W3C//DTD SVG 20010904//EN"
 "http://www.w3.org/TR/2001/REC-SVG-20010904/DTD/svg10.dtd">
<svg version="1.0" xmlns="http://www.w3.org/2000/svg"
 width="1628pt" height="1000pt" viewBox="0 0 1628 1000"
 preserveAspectRatio="xMidYMid meet">
<metadata>
Created by potrace 1.9, written by Peter Selinger 2001-2010
</metadata>
<g transform="translate(0,1000) scale(0.100000,-0.100000)"
fill="#000000" stroke="none">
<path d="M1721 8042 c-19 -10 -43 -34 -53 -53 -17 -31 -18 -69 -18 -544 0
-475 1 -513 18 -544 10 -19 34 -43 53 -53 31 -17 69 -18 544 -18 475 0 513 1
544 18 19 10 43 34 53 53 17 31 18 69 18 544 0 475 -1 513 -18 544 -10 19 -34
43 -53 53 -31 17 -69 18 -544 18 -475 0 -513 -1 -544 -18z m909 -597 l0 -365
-365 0 -365 0 0 365 0 365 365 0 365 0 0 -365z"/>
<path d="M15385 6075 c-30 -31 -35 -42 -35 -83 0 -41 6 -54 43 -99 144 -176
180 -225 220 -302 54 -102 100 -230 124 -343 24 -115 24 -370 -1 -488 -44
-210 -150 -425 -279 -566 -28 -31 -67 -78 -86 -104 -20 -27 -58 -77 -86 -112
-115 -144 -226 -365 -270 -538 -114 -441 -41 -868 211 -1246 73 -111 169 -215
217 -237 71 -33 146 -1 168 72 17 56 0 95 -82 186 -152 171 -247 360 -296 587
-24 115 -24 370 1 488 44 210 150 425 279 566 28 31 67 78 86 104 20 27 59 77
86 112 76 96 169 258 214 371 76 196 105 354 105 567 -1 387 -131 723 -393
1015 -63 70 -88 85 -143 85 -41 0 -52 -5 -83 -35z"/>
<path d="M2211 6082 c-19 -10 -43 -34 -53 -53 -17 -32 -18 -82 -18 -961 l0
-928 -928 0 c-879 0 -929 -1 -961 -18 -36 -19 -71 -72 -71 -107 0 -35 35 -88
71 -107 32 -17 82 -18 961 -18 l928 0 0 -928 c0 -879 1 -929 18 -961 19 -36
72 -71 107 -71 35 0 88 35 107 71 17 32 18 82 18 961 l0 928 928 0 c879 0 929
1 961 18 36 19 71 72 71 107 0 35 -35 88 -71 107 -32 17 -82 18 -961 18 l-928
0 0 928 c0 879 -1 929 -18 961 -19 36 -72 71 -107 71 -11 0 -36 -8 -54 -18z"/>
<path d="M7112 6083 c-18 -9 -41 -28 -51 -42 -10 -14 -127 -244 -260 -509
-185 -369 -245 -482 -257 -478 -90 35 -263 66 -364 66 -234 0 -519 -104 -701
-256 -290 -242 -446 -650 -384 -1003 49 -281 188 -527 386 -686 41 -32 80 -64
87 -70 11 -10 -33 -105 -232 -503 -135 -270 -248 -508 -251 -529 -8 -49 19
-100 66 -125 32 -17 84 -18 1034 -18 950 0 1002 1 1034 18 36 19 71 72 71 107
0 35 -35 88 -71 107 -32 17 -81 18 -921 18 -489 0 -888 2 -888 5 0 3 90 185
200 404 l199 399 60 -18 c89 -28 226 -50 311 -50 239 0 523 106 712 265 280
236 434 647 373 994 -54 310 -207 560 -450 738 l-30 22 253 508 c139 279 253
517 252 528 0 35 -35 88 -71 107 -41 22 -64 22 -107 1z m-729 -1239 c31 -9 57
-21 57 -25 0 -14 -739 -1489 -746 -1489 -15 0 -127 106 -177 168 -66 81 -115
176 -153 297 -26 82 -29 103 -28 230 0 126 3 149 28 225 59 179 144 307 281
422 101 86 253 158 396 188 67 14 274 5 342 -16z m460 -302 c66 -81 115 -176
153 -297 26 -80 29 -104 29 -225 0 -121 -3 -145 -29 -225 -93 -295 -290 -494
-586 -591 -76 -25 -100 -28 -225 -28 -109 -1 -154 3 -202 18 l-62 18 375 750
375 749 58 -50 c32 -28 83 -81 114 -119z"/>
<path d="M9955 6094 c-684 -55 -1279 -418 -1631 -994 -143 -235 -234 -491
-279 -780 -21 -137 -25 -328 -7 -362 40 -74 167 -77 212 -5 7 12 18 90 26 178
15 182 18 201 50 329 82 329 238 604 484 850 246 246 519 401 850 485 155 39
245 49 440 49 195 0 285 -10 440 -49 331 -84 604 -239 850 -485 241 -242 401
-519 481 -835 11 -44 22 -89 26 -100 3 -11 -165 150 -373 357 -415 413 -411
409 -487 373 -61 -29 -87 -88 -67 -152 17 -53 973 -1015 1039 -1045 88 -40 61
-62 629 505 358 358 515 522 523 544 6 18 8 47 4 63 -8 39 -56 87 -95 95 -70
15 -85 3 -506 -417 -318 -316 -403 -397 -407 -382 -3 11 -9 39 -12 64 -11 77
-63 271 -95 360 -207 565 -665 1023 -1230 1230 -108 39 -286 84 -416 104 -102
16 -357 27 -449 20z"/>
<path d="M10024 4111 c-21 -16 -256 -246 -520 -512 -503 -505 -516 -520 -499
-586 16 -67 79 -110 143 -98 32 5 93 62 443 412 224 223 409 401 411 397 3 -5
9 -31 12 -59 4 -27 20 -102 36 -165 184 -731 759 -1306 1490 -1490 197 -49
316 -64 520 -64 557 0 1074 211 1461 595 322 320 523 719 594 1179 21 137 25
328 7 362 -40 74 -167 77 -212 5 -7 -12 -18 -90 -26 -178 -15 -182 -18 -201
-50 -329 -41 -166 -119 -358 -201 -493 -145 -241 -400 -496 -640 -641 -184
-110 -440 -201 -668 -237 -103 -16 -427 -16 -530 0 -228 36 -484 127 -668 237
-240 145 -495 400 -640 641 -81 133 -159 325 -202 492 l-24 94 372 -370 c391
-389 408 -403 477 -388 40 9 88 58 95 99 4 18 1 46 -7 64 -11 28 -978 1008
-1033 1048 -34 24 -97 18 -141 -15z"/>
</g>
</svg>
