<?xml version="1.0" standalone="no"?>
<!DOCTYPE svg PUBLIC "-//W3C//DTD SVG 20010904//EN"
 "http://www.w3.org/TR/2001/REC-SVG-20010904/DTD/svg10.dtd">
<svg version="1.0" xmlns="http://www.w3.org/2000/svg"
 width="452pt" height="1000pt" viewBox="0 0 452 1000"
 preserveAspectRatio="xMidYMid meet">
<metadata>
Created by potrace 1.9, written by Peter Selinger 2001-2010
</metadata>
<g transform="translate(0,1000) scale(0.100000,-0.100000)"
fill="#000000" stroke="none">
<path d="M250 6082 c-19 -11 -42 -34 -52 -54 -17 -33 -18 -126 -18 -2012 0
-1786 1 -1981 16 -2011 44 -93 167 -95 216 -4 17 32 18 82 18 971 l0 938 36 0
c59 0 230 29 354 60 597 150 1093 561 1361 1125 26 55 53 119 60 143 6 23 15
42 19 42 4 0 13 -19 19 -42 20 -66 101 -233 165 -337 285 -468 732 -799 1256
-931 128 -32 296 -60 359 -60 l41 0 0 -938 c0 -889 1 -939 18 -971 19 -36 72
-71 107 -71 35 0 88 35 107 71 17 32 18 115 18 2014 0 1899 -1 1982 -18 2014
-10 19 -34 43 -53 53 -32 17 -115 18 -2014 18 -1904 0 -1982 -1 -2015 -18z
m1870 -268 c0 -143 -76 -420 -170 -622 -168 -359 -503 -694 -862 -862 -202
-94 -479 -170 -622 -170 l-36 0 0 845 0 845 845 0 845 0 0 -36z m1980 -809 l0
-845 -41 0 c-148 0 -422 74 -627 170 -358 168 -694 504 -862 862 -94 202 -170
479 -170 622 l0 36 850 0 850 0 0 -845z"/>
</g>
</svg>
