<?xml version="1.0" standalone="no"?>
<!DOCTYPE svg PUBLIC "-//W3C//DTD SVG 20010904//EN"
 "http://www.w3.org/TR/2001/REC-SVG-20010904/DTD/svg10.dtd">
<svg version="1.0" xmlns="http://www.w3.org/2000/svg"
 width="256pt" height="1000pt" viewBox="0 0 256 1000"
 preserveAspectRatio="xMidYMid meet">
<metadata>
Created by potrace 1.9, written by Peter Selinger 2001-2010
</metadata>
<g transform="translate(0,1000) scale(0.100000,-0.100000)"
fill="#000000" stroke="none">
<path d="M1110 6084 c-194 -35 -394 -125 -531 -240 -202 -168 -335 -405 -383
-680 -23 -130 -24 -2155 -1 -2283 49 -279 185 -523 384 -685 145 -119 339
-206 536 -240 364 -64 780 97 1017 394 125 155 201 338 239 569 18 108 19 182
19 1095 0 825 -2 995 -15 1085 -57 391 -247 683 -560 856 -221 122 -481 170
-705 129z m400 -269 c176 -56 318 -152 431 -291 68 -83 117 -178 155 -299 26
-80 29 -104 29 -225 0 -121 -3 -145 -29 -225 -93 -295 -290 -493 -586 -591
-77 -25 -98 -28 -230 -28 -132 0 -153 3 -230 28 -179 59 -319 154 -431 292
-68 82 -117 177 -155 299 -26 82 -29 103 -28 230 0 126 3 149 28 225 95 288
291 488 567 579 106 35 147 40 274 37 97 -3 137 -9 205 -31z m620 -2805 c-34
-384 -257 -666 -620 -786 -77 -25 -98 -28 -230 -28 -132 0 -153 3 -230 28
-293 97 -488 291 -586 586 l-28 85 -3 705 -3 705 39 -46 c177 -205 525 -359
811 -359 289 0 639 156 814 363 l41 49 3 -593 c2 -352 -1 -641 -8 -709z"/>
</g>
</svg>
