<?xml version="1.0" standalone="no"?>
<!DOCTYPE svg PUBLIC "-//W3C//DTD SVG 20010904//EN"
 "http://www.w3.org/TR/2001/REC-SVG-20010904/DTD/svg10.dtd">
<svg version="1.0" xmlns="http://www.w3.org/2000/svg"
 width="139pt" height="1000pt" viewBox="0 0 139 1000"
 preserveAspectRatio="xMidYMid meet">
<g transform="translate(0,1000) scale(0.100000,-0.100000)"
fill="#000000" stroke="none">
<path d="M180 2705 l0 -647 303 5 c179 3 322 10 352 17 193 46 317 180 376 405 28 108 31 315 5 430 -48 213 -176 362 -351 411 -47 13 -126 17 -372 21 l-313 6 0 -648z m663 471 c59 -22 138 -98 172 -167 45 -87 57 -168 52 -329 -4 -122 -8 -157 -30 -217 -46 -133 -120 -207 -238 -238 -38 -11 -112 -15 -251 -15 l-198 0 0 496 0 496 223 -4 c182 -4 231 -8 270 -22z"/>
</g>
</svg>

