<?xml version="1.0" standalone="no"?>
<!DOCTYPE svg PUBLIC "-//W3C//DTD SVG 20010904//EN"
 "http://www.w3.org/TR/2001/REC-SVG-20010904/DTD/svg10.dtd">
<svg version="1.0" xmlns="http://www.w3.org/2000/svg"
 width="942pt" height="1000pt" viewBox="0 0 942 1000"
 preserveAspectRatio="xMidYMid meet">
<metadata>
Created by potrace 1.9, written by Peter Selinger 2001-2010
</metadata>
<g transform="translate(0,1000) scale(0.100000,-0.100000)"
fill="#000000" stroke="none">
<path d="M2212 8044 c-18 -9 -41 -29 -51 -43 -40 -56 -501 -992 -506 -1028
-11 -74 61 -150 132 -139 68 10 76 22 280 430 l195 391 193 -385 c200 -398
216 -423 282 -436 39 -7 95 18 118 53 41 62 45 53 -233 609 -194 389 -267 525
-287 538 -39 25 -85 29 -123 10z"/>
<path d="M2212 6084 c-18 -9 -41 -29 -51 -43 -41 -58 -1971 -3933 -1976 -3968
-8 -49 19 -100 66 -125 32 -17 84 -18 1034 -18 950 0 1002 1 1034 18 36 19 71
72 71 107 0 35 -35 88 -71 107 -32 17 -81 18 -921 18 -489 0 -888 2 -888 5 0
3 394 794 876 1757 l876 1753 929 -1857 c791 -1581 933 -1859 961 -1880 l33
-23 995 -3 c547 -1 1009 0 1027 3 42 8 91 57 99 100 8 46 -21 102 -66 127 -33
17 -81 18 -987 18 l-953 0 -969 1938 c-743 1487 -976 1943 -996 1956 -39 25
-85 29 -123 10z"/>
<path d="M9071 6082 c-19 -10 -43 -34 -53 -53 -17 -32 -18 -89 -18 -1169 l0
-1135 -45 51 c-184 211 -525 364 -815 364 -234 0 -519 -104 -701 -256 -290
-242 -446 -650 -384 -1003 49 -279 185 -523 384 -685 145 -119 339 -206 536
-240 364 -64 780 97 1017 394 125 155 201 338 239 569 18 110 19 192 19 1596
0 1415 -1 1482 -18 1514 -19 36 -72 71 -107 71 -11 0 -36 -8 -54 -18z m-701
-2227 c176 -56 318 -152 431 -291 68 -83 117 -178 155 -299 26 -80 29 -104 29
-225 0 -121 -3 -145 -29 -225 -93 -295 -290 -493 -586 -591 -77 -25 -98 -28
-230 -28 -132 0 -153 3 -230 28 -179 59 -319 154 -431 292 -68 82 -117 177
-155 299 -26 82 -29 103 -28 230 0 126 3 149 28 225 95 288 291 488 567 579
106 35 147 40 274 37 97 -3 137 -9 205 -31z"/>
</g>
</svg>
