<?xml version="1.0" standalone="no"?>
<!DOCTYPE svg PUBLIC "-//W3C//DTD SVG 20010904//EN"
 "http://www.w3.org/TR/2001/REC-SVG-20010904/DTD/svg10.dtd">
<svg version="1.0" xmlns="http://www.w3.org/2000/svg"
 width="452pt" height="1000pt" viewBox="0 0 452 1000"
 preserveAspectRatio="xMidYMid meet">
<metadata>
Created by potrace 1.9, written by Peter Selinger 2001-2010
</metadata>
<g transform="translate(0,1000) scale(0.100000,-0.100000)"
fill="#000000" stroke="none">
<path d="M1721 8042 c-47 -25 -74 -76 -66 -125 3 -21 118 -263 255 -537 272
-544 273 -545 355 -545 78 1 77 -2 357 559 278 556 274 547 233 609 -23 35
-79 60 -118 53 -66 -13 -82 -38 -282 -436 l-193 -385 -195 391 c-143 286 -202
395 -222 408 -41 27 -85 30 -124 8z"/>
<path d="M2090 6084 c-270 -49 -508 -184 -674 -383 -76 -91 -164 -253 -200
-368 -53 -171 -69 -347 -35 -401 43 -68 165 -68 208 0 7 12 17 65 22 119 34
365 263 647 619 765 77 25 98 28 230 28 132 0 153 -3 230 -28 294 -98 494
-296 583 -581 13 -44 28 -104 32 -134 l7 -54 -1455 -1456 c-1181 -1182 -1457
-1463 -1467 -1494 -20 -64 6 -123 67 -152 81 -39 -19 -131 1451 1338 739 738
1341 1333 1338 1322 -118 -426 -217 -675 -393 -990 -310 -552 -800 -1049
-1376 -1394 -93 -56 -127 -94 -127 -144 0 -76 66 -135 138 -123 60 9 374 207
557 350 483 377 854 835 1139 1403 167 334 285 702 357 1118 l19 109 489 491
c536 537 523 520 486 598 -30 64 -91 89 -158 63 -33 -12 -130 -103 -446 -420
l-405 -405 -26 83 c-73 227 -240 447 -435 571 -235 150 -527 214 -775 169z"/>
</g>
</svg>
