<?xml version="1.0" standalone="no"?>
<!DOCTYPE svg PUBLIC "-//W3C//DTD SVG 20010904//EN"
 "http://www.w3.org/TR/2001/REC-SVG-20010904/DTD/svg10.dtd">
<svg version="1.0" xmlns="http://www.w3.org/2000/svg"
 width="893pt" height="1000pt" viewBox="0 0 893 1000"
 preserveAspectRatio="xMidYMid meet">
<metadata>
Created by potrace 1.9, written by Peter Selinger 2001-2010
</metadata>
<g transform="translate(0,1000) scale(0.100000,-0.100000)"
fill="#000000" stroke="none">
<path d="M5545 6094 c-684 -55 -1279 -418 -1631 -994 -199 -327 -298 -686
-298 -1080 0 -204 15 -323 64 -520 184 -731 759 -1306 1490 -1490 197 -49 316
-64 520 -64 557 0 1074 211 1461 595 354 352 565 806 609 1312 l8 100 491 491
c425 426 491 496 496 528 12 64 -31 127 -98 143 -65 17 -85 0 -503 -417 -318
-316 -403 -397 -407 -382 -3 11 -9 39 -12 64 -11 77 -63 271 -95 360 -101 276
-275 546 -489 759 -372 369 -872 581 -1407 595 -82 2 -171 2 -199 0z m418
-265 c215 -32 478 -126 660 -235 240 -145 495 -400 640 -641 78 -129 159 -326
198 -478 11 -44 22 -89 26 -100 3 -11 -165 150 -373 357 -326 324 -384 378
-416 383 -64 12 -127 -31 -143 -98 -17 -66 -4 -81 491 -577 l474 -475 -10
-110 c-19 -222 -71 -411 -170 -623 -142 -302 -420 -607 -717 -786 -184 -110
-440 -201 -668 -237 -44 -7 -163 -13 -265 -13 -195 0 -285 10 -440 49 -327 83
-601 238 -841 476 -207 206 -342 416 -439 679 -76 209 -104 374 -104 620 0
195 10 285 49 440 84 331 239 604 485 850 318 317 699 495 1150 534 73 6 334
-3 413 -15z"/>
<path d="M735 4121 c-61 -29 -529 -504 -545 -554 -20 -64 6 -123 67 -152 68
-33 91 -20 261 148 l152 151 0 -767 0 -767 -193 0 c-167 0 -197 -2 -226 -18
-36 -19 -71 -72 -71 -107 0 -35 35 -88 71 -107 31 -17 69 -18 544 -18 475 0
513 1 544 18 36 19 71 72 71 107 0 35 -35 88 -71 107 -29 16 -59 18 -226 18
l-193 0 0 928 c0 879 -1 929 -18 961 -19 36 -73 71 -107 71 -11 0 -38 -9 -60
-19z"/>
<path d="M2185 4133 c-256 -40 -444 -203 -512 -443 -17 -60 -18 -113 -18 -650
0 -537 1 -590 18 -650 58 -204 215 -364 416 -423 91 -27 251 -27 342 0 160 47
298 162 368 306 73 148 75 168 79 737 2 353 0 522 -8 560 -6 30 -18 84 -27
120 -45 198 -218 372 -420 424 -66 17 -189 27 -238 19z m220 -277 c64 -29 144
-105 175 -166 43 -85 49 -164 49 -650 0 -586 -7 -629 -120 -742 -74 -74 -144
-103 -249 -103 -71 0 -94 5 -142 27 -74 34 -152 112 -186 186 l-27 57 0 575 0
575 27 57 c46 98 146 183 245 208 61 15 167 4 228 -24z"/>
</g>
</svg>
