<?xml version="1.0" standalone="no"?>
<!DOCTYPE svg PUBLIC "-//W3C//DTD SVG 20010904//EN"
 "http://www.w3.org/TR/2001/REC-SVG-20010904/DTD/svg10.dtd">
<svg version="1.0" xmlns="http://www.w3.org/2000/svg"
 width="844pt" height="1000pt" viewBox="0 0 844 1000"
 preserveAspectRatio="xMidYMid meet">
<metadata>
Created by potrace 1.9, written by Peter Selinger 2001-2010
</metadata>
<g transform="translate(0,1000) scale(0.100000,-0.100000)"
fill="#000000" stroke="none">
<path d="M2212 8044 c-18 -9 -41 -29 -51 -43 -40 -56 -501 -992 -506 -1028
-11 -74 61 -150 132 -139 68 10 76 22 280 430 l195 391 193 -385 c200 -398
216 -423 282 -436 39 -7 95 18 118 53 41 62 45 53 -233 609 -194 389 -267 525
-287 538 -39 25 -85 29 -123 10z"/>
<path d="M2115 6094 c-684 -55 -1279 -418 -1631 -994 -148 -244 -240 -508
-280 -800 -12 -88 -24 -139 -42 -174 -27 -54 -26 -113 2 -145 12 -13 20 -52
26 -127 30 -337 127 -639 294 -913 326 -535 865 -890 1481 -975 277 -38 312
-38 590 0 752 103 1394 621 1655 1334 56 155 120 448 120 554 l0 36 1752 0
1753 0 -387 -387 c-405 -408 -418 -423 -403 -493 8 -39 56 -87 95 -95 16 -4
45 -2 63 4 22 8 186 165 544 523 544 546 538 538 514 611 -8 22 -165 186 -523
544 -445 444 -518 513 -550 518 -64 12 -127 -31 -143 -98 -17 -64 1 -86 403
-489 l387 -388 -1753 0 -1752 0 0 41 c0 110 -63 401 -120 559 -101 276 -275
546 -489 759 -372 369 -872 581 -1407 595 -82 2 -171 2 -199 0z m25 -994 l0
-741 -22 12 c-13 7 -41 24 -63 39 -131 89 -333 162 -555 201 -97 17 -343 17
-440 0 -220 -38 -419 -110 -557 -202 -18 -11 -33 -18 -33 -14 0 48 81 285 140
413 168 359 503 694 862 862 206 96 460 166 616 169 l52 1 0 -740z m393 729
c215 -32 478 -126 660 -235 297 -179 575 -484 717 -786 101 -216 154 -417 174
-659 4 -55 3 -58 -32 -91 -132 -125 -357 -238 -567 -284 -98 -21 -377 -24
-475 -5 -246 48 -562 215 -600 317 -12 33 -15 173 -17 897 l-3 857 35 0 c20 0
69 -5 108 -11z m-1008 -1474 c204 -43 376 -125 548 -263 l67 -54 0 -919 0
-919 -41 0 c-148 0 -422 74 -627 170 -358 168 -694 504 -862 862 -108 232
-160 440 -176 698 l-6 115 63 51 c193 153 396 242 625 273 96 14 313 6 409
-14z m1104 -726 c444 -195 969 -161 1389 92 l53 31 -6 -38 c-26 -146 -86 -334
-155 -482 -168 -358 -504 -694 -862 -862 -202 -94 -479 -170 -622 -170 l-36 0
0 780 0 780 76 -47 c42 -25 115 -63 163 -84z"/>
</g>
</svg>
