<?xml version="1.0" standalone="no"?>
<!DOCTYPE svg PUBLIC "-//W3C//DTD SVG 20010904//EN"
 "http://www.w3.org/TR/2001/REC-SVG-20010904/DTD/svg10.dtd">
<svg version="1.0" xmlns="http://www.w3.org/2000/svg"
 width="256pt" height="1000pt" viewBox="0 0 256 1000"
 preserveAspectRatio="xMidYMid meet">
<metadata>
Created by potrace 1.9, written by Peter Selinger 2001-2010
</metadata>
<g transform="translate(0,1000) scale(0.100000,-0.100000)"
fill="#000000" stroke="none">
<path d="M240 7063 c-14 -9 -30 -24 -37 -33 -21 -27 -26 -102 -13 -195 40
-286 183 -551 389 -719 138 -113 340 -206 514 -236 l67 -12 0 -1917 c0 -1837
1 -1918 18 -1950 19 -36 72 -71 107 -71 35 0 88 35 107 71 17 32 18 113 18
1951 l0 1917 38 6 c72 12 218 56 279 85 237 110 406 269 521 488 106 203 164
512 109 582 -52 67 -164 65 -206 -2 -7 -11 -17 -63 -22 -116 -34 -367 -263
-651 -619 -768 -77 -25 -98 -28 -230 -28 -132 0 -153 3 -230 28 -179 59 -319
154 -431 292 -103 126 -171 299 -188 476 -5 53 -15 105 -22 116 -31 50 -121
68 -169 35z"/>
</g>
</svg>
