<?xml version="1.0" standalone="no"?>
<!DOCTYPE svg PUBLIC "-//W3C//DTD SVG 20010904//EN"
 "http://www.w3.org/TR/2001/REC-SVG-20010904/DTD/svg10.dtd">
<svg version="1.0" xmlns="http://www.w3.org/2000/svg"
 width="1726pt" height="1000pt" viewBox="0 0 1726 1000"
 preserveAspectRatio="xMidYMid meet">
<metadata>
Created by potrace 1.9, written by Peter Selinger 2001-2010
</metadata>
<g transform="translate(0,1000) scale(0.100000,-0.100000)"
fill="#000000" stroke="none">
<path d="M7015 8054 c-684 -55 -1279 -418 -1631 -994 -143 -235 -234 -491
-279 -780 -21 -137 -25 -328 -7 -362 40 -74 167 -77 212 -5 7 12 18 90 26 178
15 182 18 201 50 329 82 329 238 604 484 850 246 246 519 401 850 485 155 39
245 49 440 49 195 0 285 -10 440 -49 331 -84 604 -239 850 -485 246 -246 402
-521 484 -850 32 -128 35 -147 50 -329 8 -88 19 -166 26 -178 45 -72 172 -69
212 5 18 34 14 225 -7 362 -71 458 -269 853 -585 1170 -378 377 -876 590
-1416 604 -82 2 -171 2 -199 0z"/>
<path d="M1110 6084 c-360 -65 -649 -275 -803 -585 -92 -185 -144 -413 -119
-522 7 -28 21 -99 31 -157 131 -727 392 -1308 845 -1880 123 -156 432 -465
591 -592 121 -96 316 -232 433 -303 35 -20 66 -43 69 -50 9 -25 73 -48 113
-41 58 9 373 207 555 350 483 378 854 835 1139 1405 173 344 298 743 365 1166
20 125 19 131 -5 283 -77 488 -428 840 -920 926 -359 63 -766 -92 -1007 -382
-35 -42 -79 -105 -98 -139 -19 -35 -36 -63 -39 -63 -3 1 -24 33 -47 73 -209
364 -689 586 -1103 511z m400 -269 c292 -94 493 -294 584 -583 32 -103 33
-120 4 -126 -163 -34 -245 -62 -367 -127 -293 -157 -494 -444 -555 -795 -39
-221 3 -461 121 -684 104 -199 260 -350 466 -454 125 -63 241 -98 398 -121 99
-14 112 -14 227 5 233 38 427 123 584 255 280 236 434 647 373 994 -62 352
-254 632 -543 792 -125 69 -207 99 -374 134 -35 7 -35 21 -2 127 56 177 149
315 290 429 80 66 174 115 294 155 77 25 98 28 230 28 132 0 153 -3 230 -28
183 -61 317 -152 431 -292 66 -80 115 -175 155 -294 25 -76 28 -100 28 -220 0
-110 -5 -159 -27 -265 -86 -404 -225 -774 -424 -1130 -298 -531 -795 -1042
-1326 -1364 l-37 -23 -48 28 c-87 50 -266 176 -387 272 -163 130 -468 437
-599 602 -415 523 -672 1109 -781 1785 -28 175 -26 209 19 342 91 266 291 464
557 552 106 35 147 40 274 37 97 -3 136 -9 205 -31z m630 -1795 c0 -727 -2
-840 -14 -840 -33 0 -186 54 -257 91 -144 75 -291 222 -362 364 -19 39 -48
111 -63 160 -26 82 -29 103 -28 230 0 126 3 149 28 225 16 47 44 117 63 155
70 140 221 293 358 363 71 36 225 91 258 92 16 0 17 -47 17 -840z m352 814
c173 -54 316 -151 429 -290 68 -83 117 -178 155 -299 26 -80 29 -104 29 -225
0 -121 -3 -145 -29 -225 -93 -295 -295 -498 -584 -589 -46 -14 -87 -26 -93
-26 -5 0 -9 317 -9 840 0 523 4 840 9 840 6 0 47 -12 93 -26z"/>
<path d="M7112 6084 c-18 -9 -41 -29 -51 -43 -41 -58 -1971 -3933 -1976 -3968
-8 -49 19 -100 66 -125 32 -17 115 -18 2014 -18 1899 0 1982 1 2014 18 37 20
71 72 71 109 0 13 -447 918 -994 2011 -764 1527 -1000 1993 -1021 2006 -39 25
-85 29 -123 10z m55 -3902 c-963 -1 -1752 0 -1754 2 -2 2 390 793 873 1757
l877 1754 877 -1755 878 -1755 -1751 -3z"/>
<path d="M11915 6094 c-684 -55 -1279 -418 -1631 -994 -143 -235 -234 -491
-279 -780 -21 -137 -25 -328 -7 -362 40 -74 167 -77 212 -5 7 12 18 90 26 178
15 182 18 201 50 329 82 329 238 604 484 850 246 246 519 401 850 485 155 39
245 49 440 49 195 0 285 -10 440 -49 331 -84 604 -239 850 -485 246 -246 402
-521 484 -850 32 -128 35 -147 50 -329 8 -88 19 -166 26 -178 45 -72 172 -69
212 5 18 34 14 225 -7 362 -71 458 -269 853 -585 1170 -378 377 -876 590
-1416 604 -82 2 -171 2 -199 0z"/>
<path d="M14951 5102 c-19 -10 -43 -34 -53 -53 -17 -32 -18 -77 -18 -789 0
-712 1 -757 18 -789 19 -36 72 -71 107 -71 35 0 88 35 107 71 17 32 18 77 18
789 0 712 -1 757 -18 789 -19 36 -72 71 -107 71 -11 0 -36 -8 -54 -18z"/>
<path d="M15931 5102 c-19 -10 -43 -34 -53 -53 -17 -32 -18 -77 -18 -789 0
-712 1 -757 18 -789 19 -36 72 -71 107 -71 35 0 88 35 107 71 17 32 18 77 18
789 0 712 -1 757 -18 789 -19 36 -72 71 -107 71 -11 0 -36 -8 -54 -18z"/>
<path d="M11031 4122 c-36 -19 -71 -72 -71 -107 0 -35 35 -88 71 -107 32 -17
84 -18 1034 -18 950 0 1002 1 1034 18 36 19 71 72 71 107 0 35 -35 88 -71 107
-32 17 -84 18 -1034 18 -950 0 -1002 -1 -1034 -18z"/>
<path d="M14963 3173 c-33 -6 -79 -57 -86 -92 -26 -127 122 -210 212 -120 43
42 49 93 18 156 -20 42 -87 68 -144 56z"/>
<path d="M15943 3173 c-33 -6 -79 -57 -86 -92 -26 -127 122 -210 212 -120 43
42 49 93 18 156 -20 42 -87 68 -144 56z"/>
</g>
</svg>
