<?xml version="1.0" standalone="no"?>
<!DOCTYPE svg PUBLIC "-//W3C//DTD SVG 20010904//EN"
 "http://www.w3.org/TR/2001/REC-SVG-20010904/DTD/svg10.dtd">
<svg version="1.0" xmlns="http://www.w3.org/2000/svg"
 width="942pt" height="1000pt" viewBox="0 0 942 1000"
 preserveAspectRatio="xMidYMid meet">
<metadata>
Created by potrace 1.9, written by Peter Selinger 2001-2010
</metadata>
<g transform="translate(0,1000) scale(0.100000,-0.100000)"
fill="#000000" stroke="none">
<path d="M6131 6082 c-19 -10 -43 -34 -53 -53 -17 -32 -18 -79 -18 -851 0
-450 -2 -818 -5 -818 -2 0 -35 20 -72 44 -98 63 -174 99 -293 139 -332 112
-658 112 -990 0 -149 -50 -306 -134 -425 -228 -22 -17 -45 -34 -51 -38 -7 -4
-34 10 -60 31 -131 102 -281 183 -434 235 -331 112 -656 112 -990 1 -192 -65
-389 -185 -538 -329 -71 -69 -95 -98 -101 -125 -5 -28 -21 -46 -81 -92 -136
-104 -336 -193 -520 -229 -84 -17 -356 -17 -440 0 -222 44 -427 143 -590 286
-85 75 -118 95 -158 95 -95 0 -154 -99 -110 -184 32 -61 230 -211 399 -301
228 -120 544 -182 802 -157 207 21 403 76 556 157 181 97 379 249 401 309 24
65 38 83 117 146 134 108 322 195 509 236 110 24 388 24 498 0 106 -23 252
-77 347 -128 77 -41 230 -152 228 -166 -6 -40 7 -62 79 -130 257 -244 566
-386 916 -422 305 -32 636 42 902 199 l99 59 5 -877 c5 -824 6 -878 23 -903
19 -28 73 -58 104 -58 33 0 86 36 105 71 17 32 18 83 18 1001 0 890 1 970 17
1003 15 32 15 40 3 78 -12 34 -15 213 -20 987 -5 890 -6 947 -23 972 -19 28
-73 58 -104 58 -10 0 -34 -8 -52 -18z m-687 -1727 c176 -36 368 -123 501 -228
87 -67 88 -61 -14 -136 -129 -95 -319 -180 -486 -217 -98 -21 -377 -24 -475
-5 -104 20 -218 59 -325 111 -108 52 -265 161 -265 184 0 19 129 116 220 165
131 70 295 123 432 141 100 12 317 4 412 -15z"/>
<path d="M8092 4124 c-18 -9 -41 -29 -51 -43 -41 -57 -991 -1973 -996 -2008
-8 -49 19 -100 66 -125 32 -17 84 -18 1034 -18 950 0 1002 1 1034 18 37 20 71
72 71 109 0 13 -227 476 -504 1031 -383 767 -511 1013 -531 1026 -39 25 -85
29 -123 10z m55 -1942 c-424 -1 -772 0 -774 2 -2 2 170 352 383 777 l387 774
387 -775 388 -775 -771 -3z"/>
</g>
</svg>
