<?xml version="1.0" standalone="no"?>
<!DOCTYPE svg PUBLIC "-//W3C//DTD SVG 20010904//EN"
 "http://www.w3.org/TR/2001/REC-SVG-20010904/DTD/svg10.dtd">
<svg version="1.0" xmlns="http://www.w3.org/2000/svg"
 width="452pt" height="1000pt" viewBox="0 0 452 1000"
 preserveAspectRatio="xMidYMid meet">
<metadata>
Created by potrace 1.9, written by Peter Selinger 2001-2010
</metadata>
<g transform="translate(0,1000) scale(0.100000,-0.100000)"
fill="#000000" stroke="none">
<path d="M1721 8042 c-47 -25 -74 -76 -66 -125 3 -21 118 -263 255 -537 272
-544 273 -545 355 -545 78 1 77 -2 357 559 278 556 274 547 233 609 -23 35
-79 60 -118 53 -66 -13 -82 -38 -282 -436 l-193 -385 -195 391 c-143 286 -202
395 -222 408 -41 27 -85 30 -124 8z"/>
<path d="M4165 6081 c-26 -12 -203 -183 -510 -490 l-470 -471 -960 0 c-911 0
-962 -1 -994 -18 -36 -19 -71 -72 -71 -107 0 -35 35 -88 71 -107 32 -17 79
-18 869 -18 l835 0 -1366 -1367 c-1100 -1101 -1369 -1375 -1379 -1406 -15 -49
-5 -90 31 -126 35 -35 77 -46 121 -32 23 8 180 158 513 491 l480 480 965 0
c916 0 967 1 999 18 36 19 71 72 71 107 0 35 -35 88 -71 107 -32 17 -79 18
-874 18 l-840 0 1377 1377 c1507 1508 1412 1405 1373 1486 -32 67 -102 91
-170 58z"/>
</g>
</svg>
