<?xml version="1.0" standalone="no"?>
<!DOCTYPE svg PUBLIC "-//W3C//DTD SVG 20010904//EN"
 "http://www.w3.org/TR/2001/REC-SVG-20010904/DTD/svg10.dtd">
<svg version="1.0" xmlns="http://www.w3.org/2000/svg"
 width="452pt" height="1000pt" viewBox="0 0 452 1000"
 preserveAspectRatio="xMidYMid meet">
<metadata>
Created by potrace 1.9, written by Peter Selinger 2001-2010
</metadata>
<g transform="translate(0,1000) scale(0.100000,-0.100000)"
fill="#000000" stroke="none">
<path d="M2212 8044 c-18 -9 -41 -29 -51 -43 -40 -56 -501 -992 -506 -1028
-11 -74 61 -150 132 -139 68 10 76 22 280 430 l195 391 193 -385 c200 -398
216 -423 282 -436 39 -7 95 18 118 53 41 62 45 53 -233 609 -194 389 -267 525
-287 538 -39 25 -85 29 -123 10z"/>
<path d="M1231 6082 c-36 -19 -71 -72 -71 -107 0 -35 35 -88 71 -107 31 -17
67 -18 471 -18 l438 0 0 -1345 0 -1345 -448 0 c-479 0 -470 1 -509 -50 -36
-45 -23 -208 29 -385 54 -185 183 -390 315 -504 l48 -40 -645 -1 c-606 0 -647
-1 -679 -18 -36 -19 -71 -72 -71 -107 0 -35 35 -88 71 -107 32 -17 115 -18
2014 -18 1899 0 1982 1 2014 18 36 19 71 72 71 107 0 35 -35 88 -71 107 -32
17 -73 18 -681 18 l-648 0 83 82 c178 179 279 391 322 680 15 99 15 109 0 142
-10 20 -32 45 -50 56 -31 19 -49 20 -474 20 l-441 0 0 1345 0 1345 438 0 c404
0 440 1 471 18 36 19 71 72 71 107 0 35 -35 88 -71 107 -32 17 -84 18 -1034
18 -950 0 -1002 -1 -1034 -18z m1869 -3179 c0 -4 -12 -45 -26 -92 -87 -287
-289 -490 -584 -587 -77 -25 -98 -28 -230 -28 -132 0 -153 3 -230 28 -295 97
-497 300 -584 587 -14 47 -26 88 -26 92 0 4 378 7 840 7 462 0 840 -3 840 -7z"/>
</g>
</svg>
