<?xml version="1.0" standalone="no"?>
<!DOCTYPE svg PUBLIC "-//W3C//DTD SVG 20010904//EN"
 "http://www.w3.org/TR/2001/REC-SVG-20010904/DTD/svg10.dtd">
<svg version="1.0" xmlns="http://www.w3.org/2000/svg"
 width="746pt" height="1000pt" viewBox="0 0 746 1000"
 preserveAspectRatio="xMidYMid meet">
<metadata>
Created by potrace 1.9, written by Peter Selinger 2001-2010
</metadata>
<g transform="translate(0,1000) scale(0.100000,-0.100000)"
fill="#000000" stroke="none">
<path d="M6131 6082 c-19 -10 -43 -34 -53 -53 -17 -32 -18 -82 -18 -961 l0
-928 -2888 0 c-2777 0 -2889 -1 -2921 -18 -36 -19 -71 -72 -71 -107 0 -35 35
-88 71 -107 32 -17 96 -18 1411 -18 l1378 0 -445 -890 c-246 -492 -447 -906
-450 -927 -16 -104 101 -175 190 -117 20 13 134 232 467 898 l440 881 439
-877 c478 -955 459 -923 544 -923 22 0 53 9 68 19 23 15 124 209 469 900 l440
881 438 -874 c321 -643 445 -881 466 -898 78 -62 184 -20 201 81 4 27 -61 164
-446 934 -248 496 -451 904 -451 907 0 3 179 5 398 5 444 0 446 0 484 71 17
32 18 82 18 961 l0 928 438 0 c404 0 440 1 471 18 36 19 71 72 71 107 0 35
-35 88 -71 107 -31 17 -69 18 -544 18 -475 0 -513 -1 -544 -18z m-1517 -2964
c-212 -425 -388 -775 -390 -777 -3 -3 -774 1534 -774 1544 0 3 349 5 775 5
l775 0 -386 -772z"/>
</g>
</svg>
