<?xml version="1.0" standalone="no"?>
<!DOCTYPE svg PUBLIC "-//W3C//DTD SVG 20010904//EN"
 "http://www.w3.org/TR/2001/REC-SVG-20010904/DTD/svg10.dtd">
<svg version="1.0" xmlns="http://www.w3.org/2000/svg"
 width="1236pt" height="1000pt" viewBox="0 0 1236 1000"
 preserveAspectRatio="xMidYMid meet">
<metadata>
Created by potrace 1.9, written by Peter Selinger 2001-2010
</metadata>
<g transform="translate(0,1000) scale(0.100000,-0.100000)"
fill="#000000" stroke="none">
<path d="M4165 6081 c-28 -13 -634 -614 -2001 -1982 -2065 -2067 -1997 -1996
-1979 -2066 16 -67 79 -110 143 -98 33 5 255 224 1905 1873 l1867 1867 0 -768
0 -767 -438 0 c-489 0 -486 0 -524 -71 -17 -32 -18 -84 -18 -1034 0 -950 1
-1002 18 -1034 10 -19 34 -43 53 -53 32 -17 84 -18 1034 -18 950 0 1002 1
1034 18 19 10 43 34 53 53 17 32 18 84 18 1034 0 950 -1 1002 -18 1034 -38 71
-35 71 -524 71 l-438 0 0 928 c0 879 -1 929 -18 961 -19 36 -73 71 -107 71
-11 0 -38 -9 -60 -19z m915 -3046 l0 -855 -855 0 -855 0 0 855 0 855 855 0
855 0 0 -855z"/>
<path d="M11500 6083 c-39 -25 -138 -142 -203 -239 -250 -378 -318 -830 -191
-1272 51 -178 153 -371 280 -527 l64 -80 -1 -975 -2 -975 36 -37 c65 -67 153
-57 201 23 11 20 44 64 71 98 72 89 168 250 210 350 84 200 118 372 119 596 0
217 -36 400 -116 593 -39 93 -139 260 -212 351 l-56 70 0 966 c0 1064 3 1010
-60 1055 -34 24 -105 26 -140 3z m-50 -1080 l-1 -608 -28 55 c-39 76 -87 213
-108 312 -13 60 -18 127 -17 243 0 177 15 272 63 405 31 83 82 200 87 200 2 0
4 -273 4 -607z m319 -1545 c52 -149 66 -235 65 -413 0 -184 -15 -276 -71 -425
-66 -178 -62 -206 -62 425 0 560 0 569 18 535 10 -19 33 -74 50 -122z"/>
<path d="M6997 4619 c-334 -38 -638 -178 -869 -398 -49 -46 -94 -93 -99 -103
-18 -34 -13 -98 10 -129 17 -23 24 -52 31 -137 45 -508 254 -958 609 -1311
387 -384 904 -595 1461 -595 557 0 1074 211 1461 595 367 365 575 829 614
1371 9 120 1 162 -41 204 -29 29 -42 34 -80 34 -48 0 -104 -30 -154 -85 -106
-114 -365 -245 -575 -291 -98 -21 -377 -24 -475 -5 -173 34 -372 120 -505 219
-67 49 -83 66 -93 99 -25 83 -249 269 -457 379 -234 124 -567 185 -838 153z
m407 -264 c171 -36 360 -120 491 -220 91 -69 120 -101 135 -149 15 -45 72
-102 185 -185 237 -173 482 -265 774 -292 306 -29 637 48 909 212 l53 31 -6
-38 c-35 -201 -130 -458 -232 -627 -145 -241 -400 -496 -640 -641 -184 -110
-440 -201 -668 -237 -103 -16 -427 -16 -530 0 -228 36 -484 127 -668 237 -297
179 -575 484 -717 786 -108 232 -160 439 -176 699 l-7 116 74 61 c162 134 398
235 610 261 101 13 318 6 413 -14z"/>
</g>
</svg>
