<?xml version="1.0" standalone="no"?>
<!DOCTYPE svg PUBLIC "-//W3C//DTD SVG 20010904//EN"
 "http://www.w3.org/TR/2001/REC-SVG-20010904/DTD/svg10.dtd">
<svg version="1.0" xmlns="http://www.w3.org/2000/svg"
 width="1530pt" height="1000pt" viewBox="0 0 1530 1000"
 preserveAspectRatio="xMidYMid meet">
<metadata>
Created by potrace 1.9, written by Peter Selinger 2001-2010
</metadata>
<g transform="translate(0,1000) scale(0.100000,-0.100000)"
fill="#000000" stroke="none">
<path d="M251 6082 c-19 -10 -43 -34 -53 -53 -17 -32 -18 -84 -18 -1034 0
-950 1 -1002 18 -1034 38 -71 40 -71 484 -71 l398 0 -445 -890 c-246 -492
-447 -906 -450 -927 -16 -104 101 -175 190 -117 20 13 134 232 467 898 l440
881 438 -874 c321 -643 445 -881 466 -898 63 -50 148 -33 186 37 17 33 18 111
18 2015 0 1899 -1 1982 -18 2014 -19 36 -72 71 -107 71 -35 0 -88 -35 -107
-71 -17 -32 -18 -82 -18 -961 l0 -928 -855 0 -855 0 0 928 c0 879 -1 929 -18
961 -19 36 -72 71 -107 71 -11 0 -36 -8 -54 -18z m1888 -2844 l0 -653 -324
645 c-178 355 -324 648 -324 653 -1 4 145 7 324 7 l325 0 -1 -652z"/>
<path d="M10907 6084 c-487 -92 -826 -436 -912 -925 -63 -358 100 -776 395
-1012 100 -79 275 -169 395 -202 173 -47 271 -55 689 -55 l386 0 -445 -890
c-246 -492 -447 -906 -450 -927 -16 -104 101 -175 190 -117 20 13 134 232 467
898 l440 881 439 -877 c478 -955 459 -923 544 -923 22 0 53 9 68 19 23 15 124
209 469 900 l440 881 438 -874 c321 -643 445 -881 466 -898 78 -62 184 -20
201 81 4 27 -61 164 -446 934 -248 496 -451 904 -451 907 0 3 179 5 398 5 366
0 400 1 431 18 36 19 71 72 71 107 0 35 -35 88 -71 107 -32 17 -114 18 -1974
18 -1243 0 -1979 4 -2048 10 -252 24 -463 136 -618 326 -68 83 -117 178 -155
299 -26 80 -29 104 -29 225 0 121 3 145 29 225 38 121 87 216 155 299 152 188
367 302 610 325 54 5 107 15 119 22 69 43 68 165 -2 209 -30 19 -149 21 -239
4z m2527 -2966 c-212 -425 -388 -775 -390 -777 -3 -3 -774 1534 -774 1544 0 3
349 5 775 5 l775 0 -386 -772z"/>
<path d="M3191 4122 c-19 -10 -43 -34 -53 -53 -17 -32 -18 -84 -18 -1034 0
-950 1 -1002 18 -1034 10 -19 34 -43 53 -53 32 -17 115 -18 1994 -18 1977 0
2006 0 2270 36 615 84 1154 439 1481 974 143 235 234 491 279 780 21 137 25
328 7 362 -40 74 -167 77 -212 5 -7 -12 -18 -90 -26 -178 -15 -182 -18 -201
-50 -329 -82 -329 -238 -604 -484 -850 -241 -241 -516 -399 -833 -481 -244
-62 -381 -69 -1409 -69 l-878 0 0 928 c0 879 -1 929 -18 961 -10 19 -34 43
-53 53 -32 17 -84 18 -1034 18 -950 0 -1002 -1 -1034 -18z m1889 -1087 l0
-855 -855 0 -855 0 0 855 0 855 855 0 855 0 0 -855z"/>
</g>
</svg>
