<?xml version="1.0" standalone="no"?>
<!DOCTYPE svg PUBLIC "-//W3C//DTD SVG 20010904//EN"
 "http://www.w3.org/TR/2001/REC-SVG-20010904/DTD/svg10.dtd">
<svg version="1.0" xmlns="http://www.w3.org/2000/svg"
 width="256pt" height="1000pt" viewBox="0 0 256 1000"
 preserveAspectRatio="xMidYMid meet">
<metadata>
Created by potrace 1.9, written by Peter Selinger 2001-2010
</metadata>
<g transform="translate(0,1000) scale(0.100000,-0.100000)"
fill="#000000" stroke="none">
<path d="M1231 7062 c-72 -38 -71 -35 -71 -528 l0 -442 -66 -11 c-176 -31
-381 -125 -515 -237 -290 -242 -446 -650 -384 -1003 49 -279 185 -523 384
-685 138 -113 340 -206 514 -236 l67 -12 0 -854 c0 -739 -2 -854 -14 -854 -33
0 -186 54 -257 91 -144 75 -291 222 -362 364 -50 100 -86 226 -96 337 -5 53
-15 105 -22 116 -42 67 -154 69 -206 2 -21 -27 -26 -102 -13 -195 40 -286 183
-551 389 -719 138 -113 340 -206 514 -236 l67 -12 0 -447 c0 -499 -1 -495 71
-533 42 -23 66 -23 108 0 72 38 71 34 71 534 l0 447 38 6 c20 4 78 17 127 31
415 113 712 449 789 890 71 403 -132 857 -482 1082 -119 75 -298 144 -434 167
l-38 6 0 854 c0 532 4 855 9 855 6 0 47 -12 93 -26 177 -56 315 -149 429 -290
104 -127 171 -298 188 -473 5 -54 15 -107 22 -119 43 -68 165 -68 208 0 22 35
24 120 7 222 -77 449 -373 786 -791 900 -49 14 -107 27 -127 31 l-38 6 0 442
c0 409 -1 445 -18 476 -19 36 -72 71 -107 71 -11 0 -36 -8 -54 -18z m-71
-2062 c0 -727 -2 -840 -14 -840 -33 0 -186 54 -257 91 -144 75 -291 222 -362
364 -19 39 -48 111 -63 160 -26 80 -29 104 -29 225 0 121 3 145 29 225 92 292
289 493 576 586 47 16 93 28 103 29 16 0 17 -47 17 -840z m352 -1146 c177 -56
315 -149 429 -290 66 -80 115 -175 155 -294 25 -76 28 -99 28 -225 1 -127 -2
-148 -28 -230 -93 -295 -295 -498 -584 -589 -46 -14 -87 -26 -93 -26 -5 0 -9
317 -9 840 0 523 4 840 9 840 6 0 47 -12 93 -26z"/>
</g>
</svg>
