<?xml version="1.0" standalone="no"?>
<!DOCTYPE svg PUBLIC "-//W3C//DTD SVG 20010904//EN"
 "http://www.w3.org/TR/2001/REC-SVG-20010904/DTD/svg10.dtd">
<svg version="1.0" xmlns="http://www.w3.org/2000/svg"
 width="1432pt" height="1000pt" viewBox="0 0 1432 1000"
 preserveAspectRatio="xMidYMid meet">
<metadata>
Created by potrace 1.9, written by Peter Selinger 2001-2010
</metadata>
<g transform="translate(0,1000) scale(0.100000,-0.100000)"
fill="#000000" stroke="none">
<path d="M6132 6083 c-18 -9 -41 -28 -51 -42 -10 -14 -127 -244 -260 -509
-185 -369 -245 -482 -257 -478 -90 35 -263 66 -364 66 -234 0 -519 -104 -701
-256 -290 -242 -446 -650 -384 -1003 49 -281 188 -527 386 -686 41 -32 80 -64
87 -70 11 -10 -33 -105 -232 -503 -135 -270 -248 -508 -251 -529 -8 -49 19
-100 66 -125 32 -17 84 -18 1034 -18 950 0 1002 1 1034 18 36 19 71 72 71 107
0 35 -35 88 -71 107 -32 17 -81 18 -921 18 -489 0 -888 2 -888 5 0 3 90 185
200 404 l199 399 60 -18 c89 -28 226 -50 311 -50 239 0 523 106 712 265 280
236 434 647 373 994 -54 310 -207 560 -450 738 l-30 22 253 508 c139 279 253
517 252 528 0 35 -35 88 -71 107 -41 22 -64 22 -107 1z m-729 -1239 c31 -9 57
-21 57 -25 0 -14 -739 -1489 -746 -1489 -15 0 -127 106 -177 168 -66 81 -115
176 -153 297 -26 82 -29 103 -28 230 0 126 3 149 28 225 59 179 144 307 281
422 101 86 253 158 396 188 67 14 274 5 342 -16z m460 -302 c66 -81 115 -176
153 -297 26 -80 29 -104 29 -225 0 -121 -3 -145 -29 -225 -93 -295 -290 -494
-586 -591 -76 -25 -100 -28 -225 -28 -109 -1 -154 3 -202 18 l-62 18 375 750
375 749 58 -50 c32 -28 83 -81 114 -119z"/>
<path d="M8085 6081 c-27 -13 -201 -180 -531 -512 -513 -516 -526 -530 -509
-596 16 -67 79 -110 143 -98 32 5 92 61 435 403 l397 397 0 -1820 c0 -1744 1
-1822 18 -1854 19 -36 72 -71 107 -71 35 0 88 35 107 71 17 32 18 110 18 1849
l0 1815 388 -387 c403 -402 425 -420 489 -403 67 16 110 79 98 143 -5 32 -74
104 -513 546 -290 290 -521 514 -539 522 -42 18 -60 17 -108 -5z"/>
<path d="M11915 6094 c-684 -55 -1279 -418 -1631 -994 -199 -327 -298 -686
-298 -1080 0 -204 15 -323 64 -520 184 -731 759 -1306 1490 -1490 197 -49 316
-64 520 -64 557 0 1074 211 1461 595 398 396 613 914 613 1479 0 204 -15 323
-64 520 -165 656 -654 1197 -1290 1430 -108 39 -286 84 -416 104 -102 16 -357
27 -449 20z m418 -265 c215 -32 478 -126 660 -235 240 -145 495 -400 640 -641
111 -184 202 -440 238 -668 7 -44 13 -163 13 -265 0 -195 -10 -285 -49 -440
-84 -332 -244 -610 -494 -859 -240 -238 -514 -393 -841 -476 -155 -39 -245
-49 -440 -49 -195 0 -285 10 -440 49 -327 83 -601 238 -841 476 -207 206 -342
416 -439 679 -76 209 -104 374 -104 620 0 195 10 285 49 440 84 331 239 604
485 850 318 317 699 495 1150 534 73 6 334 -3 413 -15z"/>
<path d="M11890 5104 c-194 -35 -394 -125 -531 -240 -290 -242 -446 -650 -384
-1003 49 -279 185 -523 384 -685 145 -119 339 -206 536 -240 114 -20 216 -20
330 0 489 85 833 432 920 925 61 347 -93 758 -373 994 -241 203 -592 302 -882
249z m400 -269 c176 -56 318 -152 431 -291 68 -83 117 -178 155 -299 26 -80
29 -104 29 -225 0 -121 -3 -145 -29 -225 -93 -295 -290 -493 -586 -591 -77
-25 -98 -28 -230 -28 -132 0 -153 3 -230 28 -179 59 -319 154 -431 292 -68 82
-117 177 -155 299 -26 82 -29 103 -28 230 0 126 3 149 28 225 95 288 291 488
567 579 106 35 147 40 274 37 97 -3 137 -9 205 -31z"/>
<path d="M1710 4140 c-809 -4 -978 -7 -995 -19 -36 -25 -138 -147 -198 -237
-342 -517 -339 -1167 8 -1689 66 -100 176 -224 218 -247 30 -17 98 -18 1032
-18 945 0 1002 1 1034 18 18 10 43 34 55 53 11 20 44 64 71 98 72 89 168 250
210 350 84 200 118 372 119 596 0 390 -124 714 -393 1020 -61 70 -87 85 -141
83 -25 -2 -484 -5 -1020 -8z m1051 -338 c111 -139 195 -323 236 -514 24 -115
24 -370 -1 -488 -44 -209 -150 -425 -278 -565 l-50 -55 -903 0 -903 0 -50 55
c-131 143 -233 351 -279 567 -24 115 -24 370 1 488 43 208 156 436 279 568
l31 32 925 -2 926 -3 66 -83z"/>
</g>
</svg>
