<?xml version="1.0" standalone="no"?>
<!DOCTYPE svg PUBLIC "-//W3C//DTD SVG 20010904//EN"
 "http://www.w3.org/TR/2001/REC-SVG-20010904/DTD/svg10.dtd">
<svg version="1.0" xmlns="http://www.w3.org/2000/svg"
 width="452pt" height="1000pt" viewBox="0 0 452 1000"
 preserveAspectRatio="xMidYMid meet">
<metadata>
Created by potrace 1.9, written by Peter Selinger 2001-2010
</metadata>
<g transform="translate(0,1000) scale(0.100000,-0.100000)"
fill="#000000" stroke="none">
<path d="M251 6082 c-35 -19 -71 -72 -71 -105 0 -10 7 -34 15 -55 11 -26 545
-567 1868 -1889 l1852 -1853 -835 0 c-790 0 -837 -1 -869 -18 -36 -19 -71 -72
-71 -107 0 -35 35 -88 71 -107 32 -17 84 -18 1034 -18 950 0 1002 1 1034 18
19 10 43 34 53 53 17 32 18 84 18 1034 0 950 -1 1002 -18 1034 -19 36 -72 71
-107 71 -35 0 -88 -35 -107 -71 -17 -32 -18 -79 -18 -874 l0 -840 -1862 1862
c-1066 1065 -1875 1867 -1891 1873 -39 14 -57 13 -96 -8z"/>
</g>
</svg>
