<?xml version="1.0" standalone="no"?>
<!DOCTYPE svg PUBLIC "-//W3C//DTD SVG 20010904//EN"
 "http://www.w3.org/TR/2001/REC-SVG-20010904/DTD/svg10.dtd">
<svg version="1.0" xmlns="http://www.w3.org/2000/svg"
 width="452pt" height="1000pt" viewBox="0 0 452 1000"
 preserveAspectRatio="xMidYMid meet">
<metadata>
Created by potrace 1.9, written by Peter Selinger 2001-2010
</metadata>
<g transform="translate(0,1000) scale(0.100000,-0.100000)"
fill="#000000" stroke="none">
<path d="M4170 6085 c-22 -10 -698 -679 -1887 -1868 l-1853 -1852 0 835 c0
790 -1 837 -18 869 -19 36 -72 71 -107 71 -35 0 -88 -35 -107 -71 -17 -32 -18
-84 -18 -1034 0 -950 1 -1002 18 -1034 10 -19 34 -43 53 -53 32 -17 84 -18
1034 -18 950 0 1002 1 1034 18 36 19 71 72 71 107 0 35 -35 88 -71 107 -32 17
-79 18 -874 18 l-840 0 1867 1867 c2043 2045 1902 1895 1863 1976 -30 64 -100
90 -165 62z"/>
</g>
</svg>
