<?xml version="1.0" standalone="no"?>
<!DOCTYPE svg PUBLIC "-//W3C//DTD SVG 20010904//EN"
 "http://www.w3.org/TR/2001/REC-SVG-20010904/DTD/svg10.dtd">
<svg version="1.0" xmlns="http://www.w3.org/2000/svg"
 width="942pt" height="1000pt" viewBox="0 0 942 1000"
 preserveAspectRatio="xMidYMid meet">
<metadata>
Created by potrace 1.9, written by Peter Selinger 2001-2010
</metadata>
<g transform="translate(0,1000) scale(0.100000,-0.100000)"
fill="#000000" stroke="none">
<path d="M1231 6082 c-71 -38 -71 -35 -71 -524 l0 -438 -438 0 c-489 0 -486 0
-524 -71 -23 -42 -23 -66 0 -108 37 -70 46 -71 432 -71 l345 0 -387 -387
c-402 -404 -420 -426 -403 -490 16 -67 79 -110 143 -98 32 5 92 61 435 403
l397 397 0 -768 0 -767 -438 0 c-489 0 -486 0 -524 -71 -23 -42 -23 -66 0
-108 38 -71 35 -71 524 -71 l438 0 0 -438 c0 -489 0 -486 71 -524 42 -23 66
-23 108 0 71 38 71 35 71 524 l0 438 855 0 855 0 0 -438 c0 -489 0 -486 71
-524 42 -23 66 -23 108 0 71 38 71 35 71 524 l0 438 438 0 c489 0 486 0 524
71 23 42 23 66 0 108 -38 71 -35 71 -524 71 l-438 0 0 762 0 763 388 -387
c403 -402 425 -420 489 -403 67 16 110 79 98 143 -5 32 -61 92 -403 435 l-397
397 350 0 c392 0 400 1 437 71 23 42 23 66 0 108 -38 71 -35 71 -524 71 l-438
0 0 438 c0 404 -1 440 -18 471 -19 36 -72 71 -107 71 -35 0 -88 -35 -107 -71
-16 -31 -18 -64 -18 -384 l0 -350 -397 397 c-314 312 -405 397 -430 403 -73
15 -86 4 -495 -403 l-388 -387 0 345 c0 315 -2 348 -18 379 -19 36 -72 71
-107 71 -11 0 -36 -8 -54 -18z m1369 -627 l335 -335 -675 0 -675 0 335 335
c184 184 337 335 340 335 3 0 156 -151 340 -335z m520 -1440 l0 -855 -855 0
-855 0 0 855 0 855 855 0 855 0 0 -855z"/>
<path d="M6010 6084 c-122 -22 -238 -62 -349 -121 -308 -161 -509 -452 -568
-819 -16 -100 -16 -107 6 -249 115 -747 399 -1390 872 -1976 194 -240 537
-560 764 -712 l40 -27 -795 0 c-751 0 -797 -1 -829 -18 -36 -19 -71 -72 -71
-107 0 -35 35 -88 71 -107 32 -17 115 -18 2014 -18 1899 0 1982 1 2014 18 36
19 71 72 71 107 0 35 -35 88 -71 107 -32 17 -78 18 -829 19 -751 0 -794 1
-770 17 326 223 685 578 929 920 385 540 616 1105 720 1757 20 125 19 131 -5
283 -77 488 -428 840 -920 926 -359 63 -766 -92 -1007 -382 -35 -42 -79 -105
-98 -139 -19 -35 -36 -63 -39 -63 -3 1 -24 33 -47 73 -209 364 -689 586 -1103
511z m400 -269 c353 -114 585 -399 619 -764 5 -54 15 -107 22 -119 43 -69 175
-69 218 0 7 12 17 65 22 119 17 179 89 357 197 484 115 137 243 222 422 281
77 25 98 28 230 28 132 0 153 -3 230 -28 183 -61 317 -152 431 -292 66 -80
115 -175 155 -294 25 -76 28 -100 28 -220 0 -110 -5 -159 -27 -265 -113 -532
-328 -1027 -628 -1446 -257 -359 -581 -679 -944 -931 -139 -96 -215 -139 -236
-133 -27 9 -256 165 -359 244 -403 311 -780 745 -1005 1156 -227 415 -372 837
-440 1280 -20 130 -15 201 22 318 88 280 289 485 564 576 106 35 147 40 274
37 97 -3 136 -9 205 -31z"/>
</g>
</svg>
