<?xml version="1.0" standalone="no"?>
<!DOCTYPE svg PUBLIC "-//W3C//DTD SVG 20010904//EN"
 "http://www.w3.org/TR/2001/REC-SVG-20010904/DTD/svg10.dtd">
<svg version="1.0" xmlns="http://www.w3.org/2000/svg"
 width="1432pt" height="1000pt" viewBox="0 0 1432 1000"
 preserveAspectRatio="xMidYMid meet">
<metadata>
Created by potrace 1.9, written by Peter Selinger 2001-2010
</metadata>
<g transform="translate(0,1000) scale(0.100000,-0.100000)"
fill="#000000" stroke="none">
<path d="M2211 6082 c-71 -38 -71 -35 -71 -524 l0 -438 -438 0 c-489 0 -486 0
-524 -71 -17 -32 -18 -79 -18 -874 l0 -840 -398 397 c-342 342 -402 398 -434
403 -64 12 -127 -31 -143 -98 -18 -68 -31 -53 999 -1086 967 -969 1021 -1020
1081 -1021 34 0 88 35 107 71 17 31 18 67 18 471 l0 438 438 0 c489 0 486 0
524 71 17 32 18 84 18 1034 0 950 -1 1002 -18 1034 -38 71 -35 71 -524 71
l-438 0 0 438 c0 404 -1 440 -18 471 -19 36 -72 71 -107 71 -11 0 -36 -8 -54
-18z m-71 -2067 l0 -855 -365 0 -365 0 0 855 0 855 365 0 365 0 0 -855z m980
0 l0 -855 -365 0 -365 0 0 855 0 855 365 0 365 0 0 -855z m-980 -1380 c0 -151
-1 -275 -3 -275 -1 0 -126 124 -277 275 l-275 275 278 0 277 0 0 -275z"/>
<path d="M7125 6092 c-99 -35 -118 -168 -32 -222 12 -7 90 -18 178 -26 182
-15 201 -18 329 -50 329 -82 604 -238 850 -484 246 -246 401 -519 485 -850 39
-155 49 -245 49 -440 0 -102 -6 -221 -13 -265 -36 -228 -127 -484 -237 -668
-146 -242 -399 -495 -641 -641 -184 -110 -440 -201 -668 -237 -103 -16 -427
-16 -530 0 -228 36 -484 127 -668 237 -240 145 -495 400 -640 641 -81 133
-159 325 -202 492 l-24 94 372 -370 c391 -389 408 -403 477 -388 40 9 88 58
95 99 4 18 1 46 -7 64 -11 28 -978 1008 -1033 1048 -34 24 -97 18 -141 -15
-21 -16 -256 -246 -520 -512 -503 -505 -516 -520 -499 -586 16 -67 79 -110
143 -98 32 5 93 62 443 412 224 223 409 401 411 397 3 -5 9 -31 12 -59 4 -27
20 -102 36 -165 184 -731 759 -1306 1490 -1490 197 -49 316 -64 520 -64 562 0
1078 212 1470 604 392 392 604 908 604 1470 0 562 -212 1078 -604 1470 -316
315 -715 515 -1165 584 -118 18 -312 28 -340 18z"/>
<path d="M12011 6082 c-19 -10 -43 -34 -53 -53 -17 -32 -18 -82 -18 -961 l0
-928 -928 0 c-879 0 -929 -1 -961 -18 -36 -19 -71 -72 -71 -107 0 -35 35 -88
71 -107 32 -17 82 -18 961 -18 l928 0 0 -928 c0 -879 1 -929 18 -961 19 -36
72 -71 107 -71 35 0 88 35 107 71 17 32 18 82 18 961 l0 928 762 0 763 0 -387
-387 c-405 -408 -418 -423 -403 -493 8 -39 56 -87 95 -95 16 -4 45 -2 63 4 22
8 186 165 544 523 544 546 538 538 514 611 -8 22 -165 186 -523 544 -445 444
-518 513 -550 518 -64 12 -127 -31 -143 -98 -17 -64 1 -86 403 -489 l387 -388
-763 0 -762 0 0 928 c0 879 -1 929 -18 961 -19 36 -72 71 -107 71 -11 0 -36
-8 -54 -18z"/>
</g>
</svg>
