<?xml version="1.0" standalone="no"?>
<!DOCTYPE svg PUBLIC "-//W3C//DTD SVG 20010904//EN"
 "http://www.w3.org/TR/2001/REC-SVG-20010904/DTD/svg10.dtd">
<svg version="1.0" xmlns="http://www.w3.org/2000/svg"
 width="746pt" height="1000pt" viewBox="0 0 746 1000"
 preserveAspectRatio="xMidYMid meet">
<metadata>
Created by potrace 1.9, written by Peter Selinger 2001-2010
</metadata>
<g transform="translate(0,1000) scale(0.100000,-0.100000)"
fill="#000000" stroke="none">
<path d="M6125 6081 c-27 -13 -340 -320 -1000 -980 l-960 -961 -406 0 -407 0
-11 66 c-82 466 -437 814 -917 898 -359 63 -765 -91 -1008 -383 -112 -134
-206 -339 -237 -515 l-11 -66 -442 0 c-493 0 -490 1 -528 -71 -23 -42 -23 -66
0 -108 38 -71 40 -71 484 -71 l398 0 -445 -890 c-246 -492 -447 -906 -450
-927 -16 -104 101 -175 190 -117 20 13 134 232 467 898 l440 881 439 -877
c478 -955 459 -923 544 -923 22 0 53 9 68 19 23 15 124 209 469 900 l440 881
438 -874 c321 -643 445 -881 466 -898 78 -62 184 -20 201 81 4 27 -61 164
-446 934 -248 496 -451 904 -451 907 0 3 177 5 394 5 250 0 405 4 423 10 16 6
439 422 970 953 l943 942 452 -451 c473 -471 490 -486 555 -469 67 16 110 79
98 143 -5 32 -74 104 -513 546 -290 290 -521 514 -539 522 -42 18 -60 17 -108
-5z m-3635 -1246 c292 -94 493 -294 584 -583 14 -46 26 -90 26 -98 0 -12 -113
-14 -840 -14 -727 0 -840 2 -840 14 0 8 12 52 26 98 89 281 290 486 565 577
106 35 147 40 274 37 97 -3 136 -9 205 -31z m164 -1717 c-212 -425 -388 -775
-390 -777 -3 -3 -774 1534 -774 1544 0 3 349 5 775 5 l775 0 -386 -772z"/>
</g>
</svg>
