<?xml version="1.0" standalone="no"?>
<!DOCTYPE svg PUBLIC "-//W3C//DTD SVG 20010904//EN"
 "http://www.w3.org/TR/2001/REC-SVG-20010904/DTD/svg10.dtd">
<svg version="1.0" xmlns="http://www.w3.org/2000/svg"
 width="1040pt" height="1000pt" viewBox="0 0 1040 1000"
 preserveAspectRatio="xMidYMid meet">
<metadata>
Created by potrace 1.9, written by Peter Selinger 2001-2010
</metadata>
<g transform="translate(0,1000) scale(0.100000,-0.100000)"
fill="#000000" stroke="none">
<path d="M4165 6081 c-28 -13 -634 -614 -2001 -1982 -2065 -2067 -1997 -1996
-1979 -2066 16 -67 79 -110 143 -98 33 5 255 224 1905 1873 l1867 1867 0 -768
0 -767 -438 0 c-489 0 -486 0 -524 -71 -17 -32 -18 -84 -18 -1034 0 -950 1
-1002 18 -1034 10 -19 34 -43 53 -53 32 -17 84 -18 1034 -18 950 0 1002 1
1034 18 19 10 43 34 53 53 17 32 18 84 18 1034 0 950 -1 1002 -18 1034 -38 71
-35 71 -524 71 l-438 0 0 928 c0 879 -1 929 -18 961 -19 36 -73 71 -107 71
-11 0 -38 -9 -60 -19z m915 -3046 l0 -855 -855 0 -855 0 0 855 0 855 855 0
855 0 0 -855z"/>
<path d="M7995 6094 c-684 -55 -1279 -418 -1631 -994 -143 -235 -234 -491
-279 -780 -21 -137 -25 -328 -7 -362 40 -74 167 -77 212 -5 7 12 18 90 26 178
15 182 18 201 50 329 82 329 238 604 484 850 246 246 519 401 850 485 155 39
245 49 440 49 195 0 285 -10 440 -49 331 -84 604 -239 850 -485 246 -246 402
-521 484 -850 32 -128 35 -147 50 -329 8 -88 19 -166 26 -178 45 -72 172 -69
212 5 18 34 14 225 -7 362 -71 458 -269 853 -585 1170 -378 377 -876 590
-1416 604 -82 2 -171 2 -199 0z"/>
</g>
</svg>
