<?xml version="1.0" standalone="no"?>
<!DOCTYPE svg PUBLIC "-//W3C//DTD SVG 20010904//EN"
 "http://www.w3.org/TR/2001/REC-SVG-20010904/DTD/svg10.dtd">
<svg version="1.0" xmlns="http://www.w3.org/2000/svg"
 width="1824pt" height="1000pt" viewBox="0 0 1824 1000"
 preserveAspectRatio="xMidYMid meet">
<metadata>
Created by potrace 1.9, written by Peter Selinger 2001-2010
</metadata>
<g transform="translate(0,1000) scale(0.100000,-0.100000)"
fill="#000000" stroke="none">
<path d="M3191 6083 c-19 -9 -46 -36 -60 -59 -14 -23 -453 -897 -976 -1943
l-950 -1901 -460 0 c-427 0 -463 -1 -494 -18 -36 -19 -71 -72 -71 -107 0 -35
35 -88 71 -107 32 -17 84 -18 1034 -18 950 0 1002 1 1034 18 36 19 71 72 71
107 0 35 -35 88 -71 107 -31 17 -65 18 -431 18 -219 0 -398 2 -398 5 0 3 423
851 940 1885 517 1034 940 1890 940 1903 0 37 -34 89 -71 109 -41 22 -64 22
-108 1z"/>
<path d="M12005 6081 c-28 -13 -634 -614 -2001 -1982 -2065 -2067 -1997 -1996
-1979 -2066 16 -67 79 -110 143 -98 33 5 255 224 1905 1873 l1867 1867 0 -768
0 -767 -438 0 c-489 0 -486 0 -524 -71 -17 -32 -18 -84 -18 -1034 0 -950 1
-1002 18 -1034 10 -19 34 -43 53 -53 32 -17 84 -18 1034 -18 950 0 1002 1
1034 18 19 10 43 34 53 53 17 32 18 84 18 1034 0 950 -1 1002 -18 1034 -38 71
-35 71 -524 71 l-438 0 0 928 c0 879 -1 929 -18 961 -19 36 -73 71 -107 71
-11 0 -38 -9 -60 -19z m915 -3046 l0 -855 -855 0 -855 0 0 855 0 855 855 0
855 0 0 -855z"/>
<path d="M15835 6094 c-684 -55 -1279 -418 -1631 -994 -143 -235 -234 -491
-279 -780 -21 -137 -25 -328 -7 -362 40 -74 167 -77 212 -5 7 12 18 90 26 178
15 182 18 201 50 329 82 329 238 604 484 850 246 246 519 401 850 485 155 39
245 49 440 49 195 0 285 -10 440 -49 331 -84 604 -239 850 -485 246 -246 402
-521 484 -850 32 -128 35 -147 50 -329 8 -88 19 -166 26 -178 45 -72 172 -69
212 5 18 34 14 225 -7 362 -71 458 -269 853 -585 1170 -378 377 -876 590
-1416 604 -82 2 -171 2 -199 0z"/>
<path d="M7111 5102 c-19 -10 -43 -34 -53 -53 -17 -32 -18 -77 -18 -789 0
-712 1 -757 18 -789 19 -36 72 -71 107 -71 35 0 88 35 107 71 17 32 18 77 18
789 0 712 -1 757 -18 789 -19 36 -72 71 -107 71 -11 0 -36 -8 -54 -18z"/>
<path d="M4171 4122 c-36 -19 -71 -72 -71 -107 0 -35 35 -88 71 -107 32 -17
84 -18 1034 -18 950 0 1002 1 1034 18 36 19 71 72 71 107 0 35 -35 88 -71 107
-32 17 -84 18 -1034 18 -950 0 -1002 -1 -1034 -18z"/>
<path d="M7123 3173 c-33 -6 -79 -57 -86 -92 -26 -127 122 -210 212 -120 43
42 49 93 18 156 -20 42 -87 68 -144 56z"/>
</g>
</svg>
