<?xml version="1.0" standalone="no"?>
<!DOCTYPE svg PUBLIC "-//W3C//DTD SVG 20010904//EN"
 "http://www.w3.org/TR/2001/REC-SVG-20010904/DTD/svg10.dtd">
<svg version="1.0" xmlns="http://www.w3.org/2000/svg"
 width="746pt" height="1000pt" viewBox="0 0 746 1000"
 preserveAspectRatio="xMidYMid meet">
<metadata>
Created by potrace 1.9, written by Peter Selinger 2001-2010
</metadata>
<g transform="translate(0,1000) scale(0.100000,-0.100000)"
fill="#000000" stroke="none">
<path d="M741 8042 c-47 -25 -74 -76 -66 -125 3 -21 118 -263 255 -537 272
-544 273 -545 355 -545 78 1 77 -2 357 559 278 556 274 547 233 609 -23 35
-79 60 -118 53 -66 -13 -82 -38 -282 -436 l-193 -385 -195 391 c-143 286 -202
395 -222 408 -41 27 -85 30 -124 8z"/>
<path d="M251 6082 c-36 -19 -71 -73 -71 -107 1 -60 52 -114 969 -1030 l931
-930 -935 -935 c-920 -921 -965 -969 -965 -1027 0 -33 36 -86 71 -105 32 -17
84 -18 1034 -18 950 0 1002 1 1034 18 36 19 71 72 71 107 0 35 -35 88 -71 107
-32 17 -79 18 -874 18 l-840 0 887 888 c945 946 913 911 889 984 -14 41 -1991
2022 -2034 2038 -39 14 -57 13 -96 -8z"/>
<path d="M3191 6082 c-36 -19 -71 -73 -71 -107 1 -60 52 -114 999 -1060 l961
-960 0 -887 0 -888 -928 0 c-879 0 -929 -1 -961 -18 -36 -19 -71 -72 -71 -107
0 -35 35 -88 71 -107 32 -17 115 -18 2014 -18 1899 0 1982 1 2014 18 36 19 71
72 71 107 0 35 -35 88 -71 107 -32 17 -82 18 -961 18 l-928 0 0 893 0 892 970
970 c687 686 973 980 981 1003 6 17 8 46 4 62 -8 39 -56 87 -95 95 -73 16 -53
35 -1048 -959 l-942 -941 -943 942 c-531 531 -954 947 -970 953 -39 14 -57 13
-96 -8z"/>
</g>
</svg>
