<?xml version="1.0" standalone="no"?>
<!DOCTYPE svg PUBLIC "-//W3C//DTD SVG 20010904//EN"
 "http://www.w3.org/TR/2001/REC-SVG-20010904/DTD/svg10.dtd">
<svg version="1.0" xmlns="http://www.w3.org/2000/svg"
 width="1432pt" height="1000pt" viewBox="0 0 1432 1000"
 preserveAspectRatio="xMidYMid meet">
<metadata>
Created by potrace 1.9, written by Peter Selinger 2001-2010
</metadata>
<g transform="translate(0,1000) scale(0.100000,-0.100000)"
fill="#000000" stroke="none">
<path d="M251 6082 c-19 -10 -43 -34 -53 -53 -17 -32 -18 -115 -18 -2014 0
-1899 1 -1982 18 -2014 10 -19 34 -43 53 -53 32 -17 115 -18 2014 -18 1899 0
1982 1 2014 18 19 10 43 34 53 53 17 32 18 115 18 2014 0 1899 -1 1982 -18
2014 -10 19 -34 43 -53 53 -32 17 -115 18 -2014 18 -1899 0 -1982 -1 -2014
-18z m1889 -2067 l0 -1835 -855 0 -855 0 0 1835 0 1835 855 0 855 0 0 -1835z
m1960 0 l0 -1835 -855 0 -855 0 0 1835 0 1835 855 0 855 0 0 -1835z"/>
<path d="M1243 4143 c-33 -6 -79 -57 -86 -92 -26 -127 122 -210 212 -120 43
42 49 93 18 156 -20 42 -87 68 -144 56z"/>
<path d="M3203 4143 c-33 -6 -79 -57 -86 -92 -26 -127 122 -210 212 -120 43
42 49 93 18 156 -20 42 -87 68 -144 56z"/>
<path d="M9065 6081 c-27 -13 -341 -320 -954 -934 l-914 -915 -71 57 c-144
116 -292 199 -456 254 -331 112 -656 112 -990 1 -192 -65 -389 -185 -538 -329
-70 -67 -95 -99 -101 -125 -21 -96 61 -174 154 -149 22 6 66 39 118 87 45 43
107 96 137 119 117 88 309 172 476 209 110 24 388 24 498 0 105 -23 254 -78
346 -127 72 -39 205 -134 231 -165 11 -13 -124 -152 -943 -972 -1009 -1010
-989 -989 -973 -1062 8 -39 56 -87 95 -95 16 -4 45 -2 62 4 23 8 310 287 978
956 520 520 948 945 953 945 4 0 38 -22 75 -49 161 -116 326 -193 518 -242
414 -104 849 -30 1208 208 100 67 215 165 240 205 9 14 16 47 16 72 0 39 -5
51 -35 81 -30 30 -42 35 -81 35 -48 0 -104 -30 -154 -85 -106 -114 -365 -245
-575 -291 -99 -21 -377 -24 -475 -5 -165 32 -370 119 -497 211 l-62 45 944
945 c1033 1034 978 973 940 1053 -32 67 -102 91 -170 58z"/>
<path d="M11031 6082 c-71 -38 -71 -35 -71 -524 l0 -438 -438 0 c-404 0 -440
-1 -471 -18 -36 -19 -71 -72 -71 -107 0 -35 35 -88 71 -107 31 -17 67 -18 471
-18 l438 0 0 -855 0 -855 -438 0 c-489 0 -486 0 -524 -71 -23 -42 -23 -66 0
-108 38 -71 35 -71 524 -71 l438 0 0 -438 c0 -489 0 -486 71 -524 42 -23 66
-23 108 0 71 38 71 35 71 524 l0 438 855 0 855 0 0 -438 c0 -489 0 -486 71
-524 42 -23 66 -23 108 0 71 38 71 35 71 524 l0 438 438 0 c489 0 486 0 524
71 23 42 23 66 0 108 -38 71 -35 71 -524 71 l-438 0 0 855 0 855 438 0 c404 0
440 1 471 18 36 19 71 72 71 107 0 35 -35 88 -71 107 -31 17 -67 18 -471 18
l-438 0 0 438 c0 404 -1 440 -18 471 -19 36 -72 71 -107 71 -35 0 -88 -35
-107 -71 -17 -31 -18 -67 -18 -471 l0 -438 -855 0 -855 0 0 438 c0 404 -1 440
-18 471 -19 36 -72 71 -107 71 -11 0 -36 -8 -54 -18z m1889 -2067 l0 -855
-855 0 -855 0 0 855 0 855 855 0 855 0 0 -855z"/>
</g>
</svg>
