<?xml version="1.0" standalone="no"?>
<!DOCTYPE svg PUBLIC "-//W3C//DTD SVG 20010904//EN"
 "http://www.w3.org/TR/2001/REC-SVG-20010904/DTD/svg10.dtd">
<svg version="1.0" xmlns="http://www.w3.org/2000/svg"
 width="1677pt" height="1000pt" viewBox="0 0 1677 1000"
 preserveAspectRatio="xMidYMid meet">
<metadata>
Created by potrace 1.9, written by Peter Selinger 2001-2010
</metadata>
<g transform="translate(0,1000) scale(0.100000,-0.100000)"
fill="#000000" stroke="none">
<path d="M251 6082 c-36 -19 -71 -73 -71 -107 1 -58 50 -112 624 -685 322
-322 586 -589 586 -594 0 -5 -9 -19 -19 -30 -33 -36 -128 -228 -155 -312 -33
-109 -56 -242 -56 -334 0 -161 52 -359 137 -520 157 -299 445 -502 798 -564
161 -28 319 -15 499 40 82 26 245 106 303 150 17 13 35 24 40 24 4 0 276 -268
603 -595 624 -624 639 -637 706 -621 68 17 111 80 99 144 -5 32 -85 115 -616
647 l-609 610 35 49 c120 168 205 433 205 636 0 157 -52 357 -132 512 -159
305 -447 510 -803 572 -161 28 -319 15 -499 -40 -87 -28 -271 -120 -320 -160
l-29 -26 -601 601 c-334 333 -614 605 -629 611 -39 14 -57 13 -96 -8z m2239
-1247 c176 -56 318 -152 431 -291 68 -83 117 -178 155 -299 26 -80 29 -104 29
-225 0 -121 -3 -145 -29 -225 -27 -86 -89 -219 -121 -260 -15 -19 -41 6 -607
573 -567 566 -592 592 -573 607 35 27 168 91 236 114 106 35 147 40 274 37 97
-3 137 -9 205 -31z m242 -1518 c-53 -36 -158 -85 -242 -113 -77 -25 -98 -28
-230 -28 -132 0 -153 3 -230 28 -179 59 -319 154 -431 292 -68 82 -117 177
-155 299 -26 82 -29 103 -28 230 0 126 3 149 28 225 29 88 72 182 109 237 l22
33 592 -592 592 -592 -27 -19z"/>
<path d="M10051 6082 c-19 -10 -43 -34 -53 -53 -17 -32 -18 -115 -18 -2014 0
-1899 1 -1982 18 -2014 10 -19 34 -43 53 -53 32 -17 115 -18 2014 -18 1899 0
1982 1 2014 18 19 10 43 34 53 53 17 32 18 115 18 2014 0 1899 -1 1982 -18
2014 -10 19 -34 43 -53 53 -32 17 -115 18 -2014 18 -1899 0 -1982 -1 -2014
-18z m2836 -1059 l-827 -828 -827 828 -828 827 1655 0 1655 0 -828 -827z
m1013 -1098 l0 -1745 -1835 0 -1835 0 0 1742 0 1743 878 -877 c951 -951 913
-916 993 -889 25 8 273 249 914 891 484 484 881 880 882 880 2 0 3 -785 3
-1745z"/>
<path d="M15441 5102 c-19 -10 -43 -34 -53 -53 -17 -31 -18 -69 -18 -544 0
-475 1 -513 18 -544 19 -36 72 -71 107 -71 35 0 88 35 107 71 17 31 18 69 18
544 0 475 -1 513 -18 544 -19 36 -72 71 -107 71 -11 0 -36 -8 -54 -18z"/>
<path d="M15415 3643 c-144 -22 -261 -80 -355 -173 -116 -117 -173 -259 -173
-430 0 -168 57 -311 168 -425 118 -120 259 -177 435 -177 176 0 317 57 435
177 111 114 168 257 168 425 0 59 -6 120 -17 160 -55 202 -217 367 -415 422
-68 19 -194 30 -246 21z m220 -277 c71 -32 149 -111 183 -184 22 -48 27 -71
27 -142 0 -106 -29 -175 -105 -250 -75 -76 -144 -105 -250 -105 -106 0 -175
29 -250 105 -76 75 -105 144 -105 250 0 71 5 94 27 142 45 98 146 183 245 208
61 15 167 4 228 -24z"/>
<path d="M6131 3142 c-35 -19 -71 -72 -71 -105 0 -55 41 -103 413 -474 l382
-383 -835 0 c-790 0 -837 -1 -869 -18 -36 -19 -71 -72 -71 -107 0 -35 35 -88
71 -107 32 -17 115 -18 2014 -18 1899 0 1982 1 2014 18 36 19 71 72 71 107 0
35 -35 88 -71 107 -32 17 -79 18 -874 18 l-840 0 397 398 c342 342 398 402
403 434 12 64 -31 127 -98 143 -65 17 -82 2 -555 -469 l-452 -451 -453 452
c-248 249 -465 457 -480 463 -39 14 -57 13 -96 -8z"/>
</g>
</svg>
