<?xml version="1.0" standalone="no"?>
<!DOCTYPE svg PUBLIC "-//W3C//DTD SVG 20010904//EN"
 "http://www.w3.org/TR/2001/REC-SVG-20010904/DTD/svg10.dtd">
<svg version="1.0" xmlns="http://www.w3.org/2000/svg"
 width="354pt" height="1000pt" viewBox="0 0 354 1000"
 preserveAspectRatio="xMidYMid meet">
<metadata>
Created by potrace 1.9, written by Peter Selinger 2001-2010
</metadata>
<g transform="translate(0,1000) scale(0.100000,-0.100000)"
fill="#000000" stroke="none">
<path d="M2090 6084 c-270 -49 -508 -184 -674 -383 -112 -134 -206 -339 -237
-515 l-11 -66 -442 0 c-493 0 -490 1 -528 -71 -17 -32 -18 -84 -18 -1034 0
-950 1 -1002 18 -1034 10 -19 34 -43 53 -53 32 -17 82 -18 959 -18 l925 0 -80
-81 c-222 -226 -493 -437 -778 -608 -93 -56 -127 -94 -127 -144 0 -76 66 -135
138 -123 39 6 169 80 347 200 768 512 1362 1337 1608 2232 66 241 129 576 120
644 -31 253 -83 411 -188 575 -222 347 -685 552 -1085 479z m400 -269 c293
-94 488 -290 586 -585 25 -76 28 -100 28 -220 0 -149 -21 -273 -91 -524 -117
-425 -326 -863 -565 -1190 l-58 -80 0 900 c0 852 -1 901 -18 933 -38 71 -36
71 -519 71 -371 0 -433 2 -433 14 0 8 12 52 26 98 89 281 290 486 565 577 106
35 147 40 274 37 97 -3 136 -9 205 -31z m-350 -1800 l0 -855 -855 0 -855 0 0
855 0 855 855 0 855 0 0 -855z"/>
</g>
</svg>
