<?xml version="1.0" standalone="no"?>
<!DOCTYPE svg PUBLIC "-//W3C//DTD SVG 20010904//EN"
 "http://www.w3.org/TR/2001/REC-SVG-20010904/DTD/svg10.dtd">
<svg version="1.0" xmlns="http://www.w3.org/2000/svg"
 width="942pt" height="1000pt" viewBox="0 0 942 1000"
 preserveAspectRatio="xMidYMid meet">
<metadata>
Created by potrace 1.9, written by Peter Selinger 2001-2010
</metadata>
<g transform="translate(0,1000) scale(0.100000,-0.100000)"
fill="#000000" stroke="none">
<path d="M3095 6094 c-172 -14 -419 -67 -575 -124 -565 -207 -1023 -665 -1230
-1230 -58 -161 -120 -449 -120 -562 l0 -45 -70 -12 c-177 -29 -385 -124 -521
-237 -290 -242 -446 -650 -384 -1003 49 -279 185 -523 384 -685 188 -154 467
-256 701 -256 239 0 523 106 712 265 280 236 434 647 373 994 -62 352 -254
632 -543 792 -125 69 -207 99 -374 134 -26 5 -28 9 -28 51 0 198 113 556 246
777 146 242 399 495 641 641 184 110 440 201 668 237 44 7 163 13 265 13 102
0 221 -6 265 -13 228 -36 484 -127 668 -237 242 -146 495 -399 641 -641 133
-221 246 -579 246 -777 0 -39 -3 -46 -22 -50 -163 -34 -245 -62 -367 -127
-293 -157 -494 -444 -555 -795 -39 -221 3 -461 121 -684 157 -299 445 -502
798 -564 114 -20 216 -20 330 0 489 85 833 432 920 925 61 347 -93 758 -373
994 -142 119 -354 218 -529 246 l-73 12 0 45 c0 113 -62 401 -120 562 -207
565 -665 1023 -1230 1230 -108 39 -286 84 -416 104 -102 16 -357 27 -449 20z
m-1585 -2239 c176 -56 318 -152 431 -291 68 -83 117 -178 155 -299 26 -80 29
-104 29 -225 0 -121 -3 -145 -29 -225 -93 -295 -290 -493 -586 -591 -77 -25
-98 -28 -230 -28 -132 0 -153 3 -230 28 -179 59 -319 154 -431 292 -68 82
-117 177 -155 299 -26 82 -29 103 -28 230 0 126 3 149 28 225 95 288 291 488
567 579 106 35 147 40 274 37 97 -3 137 -9 205 -31z m3920 0 c176 -56 318
-152 431 -291 68 -83 117 -178 155 -299 26 -80 29 -104 29 -225 0 -121 -3
-145 -29 -225 -93 -295 -290 -493 -586 -591 -77 -25 -98 -28 -230 -28 -132 0
-153 3 -230 28 -179 59 -319 154 -431 292 -68 82 -117 177 -155 299 -26 82
-29 103 -28 230 0 126 3 149 28 225 95 288 291 488 567 579 106 35 147 40 274
37 97 -3 137 -9 205 -31z"/>
<path d="M9065 6081 c-57 -27 -1989 -1962 -2010 -2013 -8 -21 -15 -45 -15 -55
0 -33 36 -86 71 -105 32 -17 79 -18 869 -18 l835 0 -877 -877 c-924 -926 -909
-910 -893 -983 8 -39 56 -87 95 -95 16 -4 45 -2 62 4 24 8 324 302 1035 1013
889 890 1002 1007 1008 1040 9 49 -19 105 -65 130 -33 17 -78 18 -875 18
l-840 0 887 888 c970 971 921 915 883 995 -32 67 -102 91 -170 58z"/>
</g>
</svg>
