<?xml version="1.0" standalone="no"?>
<!DOCTYPE svg PUBLIC "-//W3C//DTD SVG 20010904//EN"
 "http://www.w3.org/TR/2001/REC-SVG-20010904/DTD/svg10.dtd">
<svg version="1.0" xmlns="http://www.w3.org/2000/svg"
 width="1726pt" height="1000pt" viewBox="0 0 1726 1000"
 preserveAspectRatio="xMidYMid meet">
<metadata>
Created by potrace 1.9, written by Peter Selinger 2001-2010
</metadata>
<g transform="translate(0,1000) scale(0.100000,-0.100000)"
fill="#000000" stroke="none">
<path d="M1231 6082 c-19 -10 -43 -34 -53 -53 -17 -32 -18 -113 -18 -1941 l0
-1908 -438 0 c-404 0 -440 -1 -471 -18 -36 -19 -71 -72 -71 -107 0 -35 35 -88
71 -107 32 -17 84 -18 1034 -18 950 0 1002 1 1034 18 36 19 71 72 71 107 0 35
-35 88 -71 107 -31 17 -67 18 -471 18 l-438 0 0 1908 c0 1828 -1 1909 -18
1941 -19 36 -72 71 -107 71 -11 0 -36 -8 -54 -18z"/>
<path d="M5055 6094 c-684 -55 -1279 -418 -1631 -994 -143 -235 -234 -491
-279 -780 -21 -137 -25 -328 -7 -362 40 -74 167 -77 212 -5 7 12 18 90 26 178
15 182 18 201 50 329 82 329 238 604 484 850 241 241 514 398 835 481 81 21
237 50 243 44 2 -1 -416 -840 -927 -1864 -527 -1052 -933 -1877 -936 -1898 -8
-49 19 -100 66 -125 32 -17 115 -18 2014 -18 1899 0 1982 1 2014 18 37 20 71
72 71 109 0 13 -423 869 -940 1904 -649 1296 -935 1879 -923 1876 10 -3 41 -8
68 -12 180 -24 463 -126 638 -231 242 -146 495 -399 641 -641 81 -135 159
-328 200 -493 32 -128 35 -147 50 -329 8 -88 19 -166 26 -178 45 -72 172 -69
212 5 18 34 14 225 -7 362 -71 458 -269 853 -585 1170 -378 377 -876 590
-1416 604 -82 2 -171 2 -199 0z m152 -3912 c-963 -1 -1752 0 -1754 2 -2 2 390
793 873 1757 l877 1754 877 -1755 878 -1755 -1751 -3z"/>
<path d="M10045 6081 c-27 -13 -201 -180 -531 -512 -513 -516 -526 -530 -509
-596 16 -67 79 -110 143 -98 32 5 92 61 435 403 l397 397 0 -1660 0 -1660
-397 397 c-343 342 -403 398 -435 403 -64 12 -127 -31 -143 -98 -16 -64 2 -87
383 -469 l365 -367 -94 24 c-167 43 -358 121 -492 201 -240 145 -495 400 -640
641 -82 135 -160 327 -201 493 -32 128 -35 147 -50 329 -8 88 -19 166 -26 178
-45 72 -172 69 -212 -5 -31 -60 -5 -354 52 -582 204 -811 885 -1420 1715
-1534 277 -38 312 -38 590 0 615 85 1155 440 1481 975 143 234 234 490 279
779 21 137 25 328 7 362 -40 74 -167 77 -212 5 -7 -12 -18 -90 -26 -178 -15
-182 -18 -201 -50 -329 -82 -330 -242 -610 -493 -859 -239 -238 -512 -392
-840 -476 l-94 -24 376 377 c323 325 377 382 382 414 12 64 -31 127 -98 143
-64 17 -86 -1 -489 -403 l-388 -387 0 1650 0 1650 388 -387 c403 -402 425
-420 489 -403 67 16 110 79 98 143 -5 32 -74 104 -513 546 -290 290 -521 514
-539 522 -42 18 -60 17 -108 -5z"/>
<path d="M14855 6094 c-172 -14 -419 -67 -575 -124 -631 -231 -1120 -769
-1286 -1415 -70 -271 -67 -205 -71 -1420 -4 -1057 -3 -1101 15 -1134 10 -19
34 -43 53 -53 32 -17 115 -18 2014 -18 1899 0 1982 1 2014 18 19 10 43 34 53
53 17 32 18 84 18 1014 0 975 -2 1051 -36 1300 -85 616 -439 1154 -974 1481
-234 142 -489 233 -776 278 -102 16 -357 27 -449 20z m418 -265 c215 -32 478
-126 660 -235 242 -146 495 -399 641 -641 77 -128 158 -324 197 -476 62 -244
69 -380 69 -1414 l0 -883 -1836 0 -1835 0 4 1028 c3 872 6 1039 20 1107 78
409 238 716 517 995 318 317 699 495 1150 534 73 6 334 -3 413 -15z"/>
</g>
</svg>
