<?xml version="1.0" standalone="no"?>
<!DOCTYPE svg PUBLIC "-//W3C//DTD SVG 20010904//EN"
 "http://www.w3.org/TR/2001/REC-SVG-20010904/DTD/svg10.dtd">
<svg version="1.0" xmlns="http://www.w3.org/2000/svg"
 width="1138pt" height="1000pt" viewBox="0 0 1138 1000"
 preserveAspectRatio="xMidYMid meet">
<metadata>
Created by potrace 1.9, written by Peter Selinger 2001-2010
</metadata>
<g transform="translate(0,1000) scale(0.100000,-0.100000)"
fill="#000000" stroke="none">
<path d="M238 4123 c-46 -29 -53 -56 -51 -182 5 -258 77 -558 195 -813 l41
-88 -41 -87 c-118 -256 -190 -556 -195 -814 -2 -127 6 -154 53 -182 54 -33
138 -15 170 36 7 12 18 90 26 178 15 182 18 201 50 329 21 86 74 244 93 277 5
9 22 -8 56 -54 70 -95 250 -272 359 -353 386 -286 797 -424 1266 -424 469 0
880 138 1266 424 109 81 289 258 359 353 34 46 51 63 56 54 19 -33 72 -191 93
-277 32 -128 35 -147 50 -329 8 -88 19 -166 26 -178 32 -51 116 -69 170 -36
47 28 55 55 53 182 -5 258 -77 558 -195 814 l-41 87 41 88 c118 255 190 555
195 813 2 127 -6 154 -53 182 -54 33 -138 15 -170 -36 -7 -12 -18 -90 -26
-178 -15 -182 -18 -200 -50 -329 -20 -83 -47 -164 -86 -262 l-10 -28 -50 66
c-73 96 -256 275 -362 354 -386 286 -797 424 -1266 424 -469 0 -880 -138
-1266 -424 -106 -79 -289 -258 -362 -354 l-50 -66 -10 28 c-39 98 -66 179 -86
262 -32 129 -35 147 -50 329 -8 88 -19 166 -26 178 -32 51 -119 69 -172 36z
m2295 -254 c215 -32 478 -126 660 -235 117 -71 245 -173 357 -284 105 -105
250 -285 250 -310 0 -24 -159 -219 -259 -319 -240 -238 -514 -393 -841 -476
-155 -39 -245 -49 -440 -49 -195 0 -285 10 -440 49 -327 83 -601 238 -841 476
-100 100 -259 295 -259 319 0 25 145 205 250 310 318 317 699 495 1150 534 73
6 334 -3 413 -15z"/>
<path d="M6010 4124 c-270 -49 -508 -184 -674 -383 -76 -91 -164 -253 -200
-368 -53 -171 -69 -347 -35 -401 43 -68 165 -68 208 0 7 12 17 65 22 119 34
365 263 647 619 765 77 25 98 28 230 28 132 0 153 -3 230 -28 122 -41 225 -96
305 -164 188 -159 292 -361 315 -614 23 -248 62 -397 147 -558 157 -299 445
-502 798 -564 364 -64 780 97 1017 394 153 190 228 402 258 728 35 378 258
658 620 778 77 25 98 28 230 28 132 0 153 -3 230 -28 183 -61 317 -152 431
-292 104 -127 171 -298 188 -473 5 -54 15 -107 22 -119 43 -68 165 -68 208 0
51 83 -5 375 -111 580 -160 308 -444 509 -804 572 -223 39 -459 -2 -683 -121
-192 -100 -344 -252 -444 -444 -86 -162 -123 -304 -147 -553 -35 -381 -259
-663 -620 -782 -77 -25 -98 -28 -230 -28 -132 0 -153 3 -230 28 -179 59 -319
154 -431 292 -106 130 -172 299 -189 490 -27 284 -81 461 -195 639 -222 347
-685 552 -1085 479z"/>
</g>
</svg>
