<?xml version="1.0" standalone="no"?>
<!DOCTYPE svg PUBLIC "-//W3C//DTD SVG 20010904//EN"
 "http://www.w3.org/TR/2001/REC-SVG-20010904/DTD/svg10.dtd">
<svg version="1.0" xmlns="http://www.w3.org/2000/svg"
 width="942pt" height="1000pt" viewBox="0 0 942 1000"
 preserveAspectRatio="xMidYMid meet">
<metadata>
Created by potrace 1.9, written by Peter Selinger 2001-2010
</metadata>
<g transform="translate(0,1000) scale(0.100000,-0.100000)"
fill="#000000" stroke="none">
<path d="M7015 6094 c-684 -55 -1279 -418 -1631 -994 -199 -327 -298 -686
-298 -1080 0 -204 15 -323 64 -520 204 -811 885 -1420 1715 -1534 277 -38 312
-38 590 0 615 85 1155 440 1481 975 199 326 298 686 298 1079 0 204 -15 323
-64 520 -165 656 -654 1197 -1290 1430 -108 39 -286 84 -416 104 -102 16 -357
27 -449 20z m25 -2074 l0 -1820 -41 0 c-193 0 -553 115 -772 246 -240 145
-495 400 -640 641 -111 184 -202 440 -238 668 -7 44 -13 163 -13 265 0 102 6
221 13 265 36 228 127 484 237 668 146 242 399 495 641 641 218 130 561 241
761 245 l52 1 0 -1820z m393 1809 c215 -32 478 -126 660 -235 240 -145 495
-400 640 -641 111 -184 202 -440 238 -668 7 -44 13 -163 13 -265 0 -195 -10
-285 -49 -440 -84 -332 -244 -610 -494 -859 -197 -196 -401 -325 -661 -421
-145 -53 -359 -100 -454 -100 l-36 0 0 1820 0 1820 36 0 c19 0 68 -5 107 -11z"/>
<path d="M251 2162 c-36 -19 -71 -72 -71 -107 0 -35 35 -88 71 -107 32 -17
115 -18 2014 -18 1899 0 1982 1 2014 18 36 19 71 72 71 107 0 35 -35 88 -71
107 -32 17 -115 18 -2014 18 -1899 0 -1982 -1 -2014 -18z"/>
<path d="M1243 1203 c-33 -6 -79 -57 -86 -92 -26 -127 122 -210 212 -120 43
42 49 93 18 156 -20 42 -87 68 -144 56z"/>
<path d="M3203 1203 c-33 -6 -79 -57 -86 -92 -26 -127 122 -210 212 -120 43
42 49 93 18 156 -20 42 -87 68 -144 56z"/>
</g>
</svg>
