<?xml version="1.0" standalone="no"?>
<!DOCTYPE svg PUBLIC "-//W3C//DTD SVG 20010904//EN"
 "http://www.w3.org/TR/2001/REC-SVG-20010904/DTD/svg10.dtd">
<svg version="1.0" xmlns="http://www.w3.org/2000/svg"
 width="158pt" height="1000pt" viewBox="0 0 158 1000"
 preserveAspectRatio="xMidYMid meet">
<metadata>
Created by potrace 1.9, written by Peter Selinger 2001-2010
</metadata>
<g transform="translate(0,1000) scale(0.100000,-0.100000)"
fill="#000000" stroke="none">
<path d="M715 4133 c-256 -40 -447 -206 -511 -443 -23 -86 -23 -234 0 -320 27
-98 82 -195 153 -266 l62 -64 -62 -64 c-114 -115 -170 -257 -170 -426 0 -168
57 -311 168 -425 118 -120 259 -177 435 -177 176 0 317 57 435 177 111 114
168 257 168 425 0 169 -56 311 -170 426 l-62 64 62 64 c71 71 126 168 153 266
23 86 23 234 0 320 -55 202 -217 367 -415 422 -68 19 -194 30 -246 21z m220
-277 c71 -32 149 -111 183 -184 22 -48 27 -71 27 -142 0 -106 -29 -175 -105
-250 -75 -76 -144 -105 -250 -105 -106 0 -175 29 -250 105 -76 75 -105 144
-105 250 0 71 5 94 27 142 45 98 146 183 245 208 61 15 167 4 228 -24z m0
-980 c71 -32 149 -111 183 -184 22 -48 27 -71 27 -142 0 -106 -29 -175 -105
-250 -75 -76 -144 -105 -250 -105 -71 0 -94 5 -142 27 -74 34 -152 112 -186
186 -38 82 -38 202 0 284 45 98 146 183 245 208 61 15 167 4 228 -24z"/>
</g>
</svg>
