<?xml version="1.0" standalone="no"?>
<!DOCTYPE svg PUBLIC "-//W3C//DTD SVG 20010904//EN"
 "http://www.w3.org/TR/2001/REC-SVG-20010904/DTD/svg10.dtd">
<svg version="1.0" xmlns="http://www.w3.org/2000/svg"
 width="844pt" height="1000pt" viewBox="0 0 844 1000"
 preserveAspectRatio="xMidYMid meet">
<metadata>
Created by potrace 1.9, written by Peter Selinger 2001-2010
</metadata>
<g transform="translate(0,1000) scale(0.100000,-0.100000)"
fill="#000000" stroke="none">
<path d="M251 5102 c-44 -24 -74 -76 -67 -120 12 -78 -78 -30 2017 -1077 1117
-559 1985 -987 2006 -990 49 -8 100 19 125 66 17 32 18 81 18 921 l0 888 1870
-935 c1057 -529 1886 -937 1907 -940 104 -16 175 101 117 190 -13 21 -479 257
-2006 1021 -1093 547 -1998 994 -2011 994 -37 0 -89 -34 -109 -71 -17 -32 -18
-81 -18 -921 0 -489 -2 -888 -5 -888 -3 0 -851 423 -1885 940 -1034 517 -1890
940 -1903 940 -12 0 -38 -8 -56 -18z"/>
</g>
</svg>
