<?xml version="1.0" standalone="no"?>
<!DOCTYPE svg PUBLIC "-//W3C//DTD SVG 20010904//EN"
 "http://www.w3.org/TR/2001/REC-SVG-20010904/DTD/svg10.dtd">
<svg version="1.0" xmlns="http://www.w3.org/2000/svg"
 width="844pt" height="1000pt" viewBox="0 0 844 1000"
 preserveAspectRatio="xMidYMid meet">
<metadata>
Created by potrace 1.9, written by Peter Selinger 2001-2010
</metadata>
<g transform="translate(0,1000) scale(0.100000,-0.100000)"
fill="#000000" stroke="none">
<path d="M4171 6082 c-19 -10 -43 -34 -53 -53 -17 -32 -18 -113 -18 -1941 l0
-1908 -438 0 c-404 0 -440 -1 -471 -18 -36 -19 -71 -72 -71 -107 0 -35 35 -88
71 -107 32 -17 84 -18 1034 -18 950 0 1002 1 1034 18 36 19 71 72 71 107 0 35
-35 88 -71 107 -31 17 -67 18 -471 18 l-438 0 0 1908 c0 1828 -1 1909 -18
1941 -19 36 -72 71 -107 71 -11 0 -36 -8 -54 -18z"/>
<path d="M6131 6082 c-35 -19 -71 -72 -71 -105 0 -56 42 -103 475 -537 l445
-445 -441 -440 c-500 -499 -507 -508 -461 -594 33 -61 66 -71 237 -71 l150 0
-42 -36 c-73 -61 -170 -187 -226 -295 -117 -222 -160 -461 -122 -678 49 -279
185 -523 384 -685 188 -154 467 -256 701 -256 239 0 523 106 712 265 280 236
434 647 373 994 -43 247 -144 449 -306 613 l-77 78 151 0 c174 0 207 10 240
74 41 79 53 64 -454 571 l-459 460 455 455 c315 315 458 465 466 488 6 17 8
46 4 62 -8 39 -56 87 -95 95 -70 15 -82 6 -558 -469 l-452 -451 -453 452
c-248 249 -465 457 -480 463 -39 14 -57 13 -96 -8z m1369 -1607 l335 -335
-675 0 -675 0 335 335 c184 184 337 335 340 335 3 0 156 -151 340 -335z m-110
-620 c176 -56 318 -152 431 -291 68 -83 117 -178 155 -299 26 -80 29 -104 29
-225 0 -121 -3 -145 -29 -225 -93 -295 -290 -493 -586 -591 -77 -25 -98 -28
-230 -28 -132 0 -153 3 -230 28 -179 59 -319 154 -431 292 -68 82 -117 177
-155 299 -26 82 -29 103 -28 230 0 126 3 149 28 225 95 288 291 488 567 579
106 35 147 40 274 37 97 -3 137 -9 205 -31z"/>
<path d="M7123 3163 c-33 -6 -79 -57 -86 -92 -26 -127 122 -210 212 -120 43
42 49 93 18 156 -20 42 -87 68 -144 56z"/>
<path d="M251 4122 c-36 -19 -71 -73 -71 -107 1 -57 49 -111 479 -540 l441
-440 -449 -450 c-468 -470 -483 -487 -466 -552 16 -67 79 -110 143 -98 32 5
98 68 494 463 l458 457 452 -452 c473 -470 490 -485 555 -468 67 16 110 79 98
143 -5 32 -68 99 -466 497 l-459 460 455 455 c315 315 458 465 466 488 6 17 8
46 4 62 -8 39 -56 87 -95 95 -70 15 -82 6 -558 -469 l-452 -451 -453 452
c-248 249 -465 457 -480 463 -39 14 -57 13 -96 -8z"/>
</g>
</svg>
