<?xml version="1.0" standalone="no"?>
<!DOCTYPE svg PUBLIC "-//W3C//DTD SVG 20010904//EN"
 "http://www.w3.org/TR/2001/REC-SVG-20010904/DTD/svg10.dtd">
<svg version="1.0" xmlns="http://www.w3.org/2000/svg"
 width="1628pt" height="1000pt" viewBox="0 0 1628 1000"
 preserveAspectRatio="xMidYMid meet">
<metadata>
Created by potrace 1.9, written by Peter Selinger 2001-2010
</metadata>
<g transform="translate(0,1000) scale(0.100000,-0.100000)"
fill="#000000" stroke="none">
<path d="M265 6092 c-33 -12 -51 -26 -68 -53 -16 -24 -17 -178 -17 -2019 0
-1982 0 -1993 20 -2025 11 -18 36 -40 54 -49 37 -17 86 -14 341 20 615 84
1154 439 1481 974 199 327 298 686 298 1080 0 562 -212 1078 -604 1470 -316
315 -715 515 -1165 584 -118 18 -312 28 -340 18z m308 -263 c215 -32 478 -126
660 -235 242 -146 495 -399 641 -641 110 -184 201 -440 237 -668 16 -103 16
-427 0 -530 -36 -228 -127 -484 -237 -668 -146 -242 -399 -495 -641 -641 -216
-129 -579 -246 -767 -246 l-36 0 0 1820 0 1820 36 0 c19 0 68 -5 107 -11z"/>
<path d="M4171 6082 c-19 -10 -43 -34 -53 -53 -17 -32 -18 -115 -18 -2014 0
-1899 1 -1982 18 -2014 19 -36 72 -71 107 -71 35 0 88 35 107 71 17 32 18 115
18 2014 0 1899 -1 1982 -18 2014 -19 36 -72 71 -107 71 -11 0 -36 -8 -54 -18z"/>
<path d="M11009 6083 c-44 -27 -51 -51 -65 -214 -15 -182 -18 -201 -50 -329
-41 -165 -119 -358 -200 -493 -146 -242 -399 -495 -641 -641 -221 -132 -579
-246 -777 -246 -48 0 -48 0 -61 75 -13 79 -58 202 -107 297 -160 308 -444 509
-804 572 -359 63 -765 -91 -1008 -383 -112 -134 -206 -339 -237 -515 l-11 -66
-932 0 c-883 0 -933 -1 -965 -18 -35 -19 -71 -72 -71 -105 0 -31 30 -85 58
-104 26 -17 122 -18 2112 -24 1837 -5 2095 -7 2165 -21 412 -81 716 -239 995
-518 246 -246 402 -521 484 -850 32 -128 35 -147 50 -329 8 -88 19 -166 26
-178 45 -72 172 -69 212 5 18 34 14 225 -7 362 -97 629 -442 1150 -975 1476
-105 63 -272 145 -337 165 -24 6 -43 15 -43 19 0 4 19 13 43 19 23 7 87 34
142 60 436 207 786 555 991 986 118 250 192 555 197 816 2 127 -6 154 -53 182
-35 21 -97 21 -131 0z m-2639 -1248 c292 -94 493 -294 584 -583 14 -46 26 -90
26 -98 0 -12 -113 -14 -840 -14 -727 0 -840 2 -840 14 0 8 12 52 26 98 89 281
290 486 565 577 106 35 147 40 274 37 97 -3 136 -9 205 -31z"/>
<path d="M13971 6083 c-19 -9 -46 -36 -60 -59 -14 -23 -123 -236 -241 -473
l-215 -431 -705 0 c-664 0 -707 -1 -739 -18 -47 -25 -74 -76 -66 -125 3 -21
164 -356 359 -745 l354 -707 -354 -707 c-195 -389 -356 -724 -359 -745 -8 -49
19 -100 66 -125 32 -17 75 -18 739 -18 l705 0 232 -464 c254 -507 257 -511
338 -511 78 1 79 2 331 507 l234 468 708 0 c666 0 709 1 741 18 37 20 71 72
71 109 0 12 -163 348 -361 745 l-361 723 361 725 c199 399 362 734 361 745 0
35 -35 88 -71 107 -32 17 -75 18 -741 18 l-708 0 -234 468 c-173 347 -241 473
-261 486 -39 26 -85 29 -124 9z m56 -961 c-154 -1 -282 0 -284 2 -2 2 60 131
138 287 l142 284 142 -285 143 -285 -281 -3z m-963 -784 l-266 -533 -264 525
c-144 289 -263 528 -263 533 -1 4 238 7 529 7 l530 0 -266 -532z m1707 -140
l336 -673 -336 -672 -336 -673 -412 0 -413 0 -336 672 -336 673 336 672 336
673 413 0 412 0 336 -672z m743 140 l-266 -533 -264 525 c-144 289 -263 528
-263 533 -1 4 238 7 529 7 l530 0 -266 -532z m-2449 -1628 l265 -530 -530 0
c-291 0 -530 2 -530 5 0 7 524 1055 527 1055 2 0 122 -238 268 -530z m2450 0
l265 -530 -530 0 c-291 0 -530 2 -530 5 0 7 524 1055 527 1055 2 0 122 -238
268 -530z m-1346 -1062 c-78 -156 -143 -285 -145 -287 -3 -3 -284 554 -284
564 0 3 128 5 285 5 l285 0 -141 -282z"/>
<path d="M3203 4143 c-33 -6 -79 -57 -86 -92 -26 -127 122 -210 212 -120 43
42 49 93 18 156 -20 42 -87 68 -144 56z"/>
</g>
</svg>
