<?xml version="1.0" standalone="no"?>
<!DOCTYPE svg PUBLIC "-//W3C//DTD SVG 20010904//EN"
 "http://www.w3.org/TR/2001/REC-SVG-20010904/DTD/svg10.dtd">
<svg version="1.0" xmlns="http://www.w3.org/2000/svg"
 width="942pt" height="1000pt" viewBox="0 0 942 1000"
 preserveAspectRatio="xMidYMid meet">
<metadata>
Created by potrace 1.9, written by Peter Selinger 2001-2010
</metadata>
<g transform="translate(0,1000) scale(0.100000,-0.100000)"
fill="#000000" stroke="none">
<path d="M1110 6084 c-360 -65 -649 -275 -803 -585 -92 -185 -144 -413 -119
-522 7 -28 21 -99 31 -157 86 -475 223 -876 429 -1255 79 -144 223 -371 312
-490 l77 -103 -410 -409 c-399 -398 -446 -452 -447 -508 0 -34 35 -88 71 -107
32 -17 115 -18 2014 -18 1899 0 1982 1 2014 18 36 19 71 72 71 107 0 35 -35
88 -71 107 -32 17 -78 18 -829 18 l-795 0 40 27 c150 101 398 316 559 484 453
473 800 1079 969 1695 66 241 129 576 120 644 -32 259 -89 428 -197 589 -20
29 -36 56 -36 60 0 3 49 56 110 116 114 114 137 151 125 205 -8 39 -56 87 -95
95 -57 13 -99 -12 -215 -126 l-111 -109 -48 35 c-170 120 -432 205 -636 205
-234 0 -519 -104 -701 -256 -92 -77 -193 -195 -240 -281 -19 -35 -36 -63 -39
-63 -3 1 -24 33 -47 73 -209 364 -689 586 -1103 511z m400 -269 c353 -114 585
-399 619 -764 5 -54 15 -107 22 -119 43 -69 175 -69 218 0 7 12 17 65 22 119
17 179 89 357 197 484 115 137 243 222 422 281 77 25 98 28 230 28 132 0 153
-3 230 -28 84 -28 216 -91 255 -121 19 -15 -36 -71 -1240 -1275 -693 -693
-1263 -1260 -1268 -1260 -22 0 -236 317 -333 495 -219 400 -355 800 -429 1260
-28 175 -26 209 19 342 91 266 291 464 557 552 106 35 147 40 274 37 97 -3
136 -9 205 -31z m2482 -430 c20 -38 48 -108 64 -155 25 -76 28 -100 28 -220 0
-110 -5 -159 -27 -265 -86 -404 -225 -774 -424 -1130 -298 -531 -795 -1042
-1326 -1364 l-37 -23 -48 28 c-197 114 -452 315 -675 533 l-168 165 1272 1272
c1259 1259 1273 1272 1289 1251 10 -12 33 -53 52 -92z m-2633 -2768 c161 -158
265 -248 411 -357 47 -35 89 -67 95 -72 5 -4 -276 -8 -625 -8 l-635 0 295 295
c162 162 297 295 299 295 3 0 75 -69 160 -153z"/>
<path d="M6125 6081 c-27 -13 -201 -180 -531 -512 -513 -516 -526 -530 -509
-596 16 -67 79 -110 143 -98 32 5 92 61 435 403 l397 397 0 -1820 c0 -1744 1
-1822 18 -1854 19 -36 72 -71 107 -71 35 0 88 35 107 71 17 32 18 110 18 1849
l0 1815 388 -387 c403 -402 425 -420 489 -403 67 16 110 79 98 143 -5 32 -74
104 -513 546 -290 290 -521 514 -539 522 -42 18 -60 17 -108 -5z"/>
<path d="M8091 6082 c-19 -10 -43 -34 -53 -53 -17 -32 -18 -110 -18 -1854 l0
-1820 -397 397 c-436 435 -430 430 -506 393 -61 -29 -87 -88 -67 -152 17 -53
973 -1015 1039 -1045 88 -40 61 -62 629 505 358 358 515 522 523 544 6 18 8
47 4 63 -8 39 -56 87 -95 95 -70 15 -85 2 -492 -403 l-388 -387 0 1815 c0
1739 -1 1817 -18 1849 -19 36 -72 71 -107 71 -11 0 -36 -8 -54 -18z"/>
</g>
</svg>
