<?xml version="1.0" standalone="no"?>
<!DOCTYPE svg PUBLIC "-//W3C//DTD SVG 20010904//EN"
 "http://www.w3.org/TR/2001/REC-SVG-20010904/DTD/svg10.dtd">
<svg version="1.0" xmlns="http://www.w3.org/2000/svg"
 width="648pt" height="1000pt" viewBox="0 0 648 1000"
 preserveAspectRatio="xMidYMid meet">
<metadata>
Created by potrace 1.9, written by Peter Selinger 2001-2010
</metadata>
<g transform="translate(0,1000) scale(0.100000,-0.100000)"
fill="#000000" stroke="none">
<path d="M3681 8042 c-47 -25 -74 -76 -66 -125 3 -21 118 -263 255 -537 272
-544 273 -545 355 -545 78 1 77 -2 357 559 278 556 274 547 233 609 -23 35
-79 60 -118 53 -66 -13 -82 -38 -282 -436 l-193 -385 -195 391 c-143 286 -202
395 -222 408 -41 27 -85 30 -124 8z"/>
<path d="M1231 6082 c-19 -10 -43 -34 -53 -53 -17 -32 -18 -115 -18 -2014 0
-1899 1 -1982 18 -2014 19 -36 72 -71 107 -71 35 0 88 35 107 71 17 32 18 115
18 2014 0 1899 -1 1982 -18 2014 -19 36 -72 71 -107 71 -11 0 -36 -8 -54 -18z"/>
<path d="M4165 6081 c-28 -13 -345 -325 -1021 -1002 -792 -794 -984 -991 -994
-1022 -20 -64 6 -123 67 -152 80 -38 18 -93 1055 943 l948 947 942 -941 c761
-760 950 -944 981 -954 64 -20 123 6 152 67 38 80 98 14 -993 1107 -583 583
-1010 1004 -1029 1012 -42 18 -60 17 -108 -5z"/>
<path d="M263 4143 c-33 -6 -79 -57 -86 -92 -26 -127 122 -210 212 -120 43 42
49 93 18 156 -20 42 -87 68 -144 56z"/>
<path d="M3560 4124 c-194 -35 -394 -125 -531 -240 -290 -242 -446 -650 -384
-1003 49 -279 185 -523 384 -685 188 -154 467 -256 701 -256 131 0 349 49 453
101 36 19 38 19 75 0 57 -29 189 -68 288 -85 113 -20 215 -20 329 0 489 85
833 432 920 925 61 347 -93 758 -373 994 -189 159 -473 265 -712 265 -131 0
-349 -49 -452 -101 -37 -19 -39 -19 -75 0 -21 10 -75 30 -119 44 -175 55 -349
69 -504 41z m324 -249 c38 -8 71 -16 73 -19 3 -2 -31 -45 -74 -95 -209 -245
-310 -587 -258 -881 38 -215 126 -406 258 -561 43 -50 77 -93 74 -95 -2 -3
-37 -12 -78 -20 -221 -47 -499 28 -685 185 -137 115 -223 246 -280 426 -26 82
-29 103 -28 230 0 126 3 149 28 225 59 179 144 307 281 422 101 86 258 160
396 187 70 14 218 12 293 -4z m1056 -20 c176 -56 318 -152 431 -291 68 -83
117 -178 155 -299 26 -80 29 -104 29 -225 0 -121 -3 -145 -29 -225 -93 -295
-293 -497 -586 -590 -111 -35 -271 -44 -379 -21 -41 8 -76 18 -78 20 -3 3 25
39 61 81 111 126 185 257 230 407 56 182 68 332 41 487 -40 229 -125 409 -271
576 -36 42 -64 78 -61 81 2 3 33 11 68 19 102 23 283 14 389 -20z m-660 -175
c127 -110 211 -242 266 -415 26 -80 29 -104 29 -225 0 -121 -3 -145 -29 -225
-55 -174 -139 -305 -267 -416 l-59 -51 -59 51 c-128 111 -212 242 -267 416
-26 82 -29 103 -28 230 0 126 3 149 28 225 57 171 139 299 264 409 32 28 59
50 61 51 2 0 29 -23 61 -50z"/>
</g>
</svg>
