<?xml version="1.0" standalone="no"?>
<!DOCTYPE svg PUBLIC "-//W3C//DTD SVG 20010904//EN"
 "http://www.w3.org/TR/2001/REC-SVG-20010904/DTD/svg10.dtd">
<svg version="1.0" xmlns="http://www.w3.org/2000/svg"
 width="256pt" height="1000pt" viewBox="0 0 256 1000"
 preserveAspectRatio="xMidYMid meet">
<metadata>
Created by potrace 1.9, written by Peter Selinger 2001-2010
</metadata>
<g transform="translate(0,1000) scale(0.100000,-0.100000)"
fill="#000000" stroke="none">
<path d="M1231 7062 c-72 -39 -71 -31 -71 -557 l0 -470 -91 -75 c-264 -219
-529 -581 -677 -928 -154 -358 -228 -787 -203 -1164 48 -710 364 -1346 894
-1800 70 -60 141 -114 158 -120 58 -20 91 -3 231 116 534 456 851 1091 899
1804 25 377 -49 806 -203 1164 -147 344 -414 712 -672 923 l-85 70 0 475 c-1
441 -2 478 -19 509 -19 36 -72 71 -107 71 -11 0 -36 -8 -54 -18z m126 -1321
c233 -202 452 -507 582 -810 107 -251 163 -484 182 -758 37 -551 -121 -1085
-453 -1533 -82 -111 -305 -348 -360 -385 -27 -17 -29 -17 -55 0 -16 10 -84 75
-152 144 -210 213 -366 444 -480 710 -107 251 -163 484 -182 759 -42 633 174
1246 605 1716 91 98 219 216 236 216 5 0 39 -27 77 -59z"/>
</g>
</svg>
