<?xml version="1.0" standalone="no"?>
<!DOCTYPE svg PUBLIC "-//W3C//DTD SVG 20010904//EN"
 "http://www.w3.org/TR/2001/REC-SVG-20010904/DTD/svg10.dtd">
<svg version="1.0" xmlns="http://www.w3.org/2000/svg"
 width="1236pt" height="1000pt" viewBox="0 0 1236 1000"
 preserveAspectRatio="xMidYMid meet">
<metadata>
Created by potrace 1.9, written by Peter Selinger 2001-2010
</metadata>
<g transform="translate(0,1000) scale(0.100000,-0.100000)"
fill="#000000" stroke="none">
<path d="M3191 6082 c-35 -19 -71 -72 -71 -105 0 -52 40 -101 276 -338 218
-218 243 -247 229 -259 -26 -21 -157 -206 -214 -302 -189 -316 -285 -673 -285
-1058 0 -204 15 -323 64 -520 184 -731 759 -1306 1490 -1490 197 -49 316 -64
520 -64 385 0 742 96 1058 285 96 57 281 188 302 214 12 14 43 -13 269 -238
266 -264 297 -288 358 -272 67 16 110 79 98 143 -5 31 -46 77 -267 298 l-260
261 80 104 c293 383 436 802 436 1279 0 204 -15 323 -64 520 -184 731 -759
1306 -1490 1490 -197 49 -316 64 -520 64 -393 0 -753 -99 -1079 -298 -100 -61
-228 -152 -274 -194 l-28 -26 -252 251 c-139 139 -265 257 -280 263 -39 14
-57 13 -96 -8z m2282 -253 c215 -32 478 -126 660 -235 240 -145 495 -400 640
-641 111 -184 202 -440 238 -668 7 -44 13 -163 13 -265 0 -102 -6 -221 -13
-265 -36 -228 -127 -484 -238 -668 -37 -63 -176 -251 -191 -261 -4 -3 -587
574 -1295 1282 l-1288 1288 28 26 c15 14 62 50 103 80 271 196 585 312 930
342 73 6 334 -3 413 -15z m-364 -1903 c830 -830 1281 -1288 1276 -1296 -10
-17 -179 -139 -252 -184 -184 -110 -440 -201 -668 -237 -103 -16 -427 -16
-530 0 -228 36 -484 127 -668 237 -240 145 -495 400 -640 641 -111 184 -202
440 -238 668 -7 44 -13 163 -13 265 0 102 6 221 13 265 50 316 178 613 373
864 27 34 51 61 56 61 4 0 585 -578 1291 -1284z"/>
<path d="M9955 6094 c-684 -55 -1279 -418 -1631 -994 -199 -327 -298 -686
-298 -1080 0 -204 15 -323 64 -520 184 -731 759 -1306 1490 -1490 197 -49 316
-64 520 -64 557 0 1074 211 1461 595 398 396 613 914 613 1479 0 204 -15 323
-64 520 -165 656 -654 1197 -1290 1430 -108 39 -286 84 -416 104 -102 16 -357
27 -449 20z m418 -265 c215 -32 478 -126 660 -235 240 -145 495 -400 640 -641
111 -184 202 -440 238 -668 7 -44 13 -163 13 -265 0 -195 -10 -285 -49 -440
-84 -332 -244 -610 -494 -859 -240 -238 -514 -393 -841 -476 -155 -39 -245
-49 -440 -49 -195 0 -285 10 -440 49 -327 83 -601 238 -841 476 -207 206 -342
416 -439 679 -76 209 -104 374 -104 620 0 195 10 285 49 440 84 331 239 604
485 850 318 317 699 495 1150 534 73 6 334 -3 413 -15z"/>
<path d="M10045 5591 c-27 -13 -201 -180 -531 -512 -513 -516 -526 -530 -509
-596 16 -67 79 -110 143 -98 32 5 98 68 494 463 l458 457 452 -452 c473 -470
490 -485 555 -468 67 16 110 79 98 143 -5 32 -74 104 -513 546 -290 290 -521
514 -539 522 -42 18 -60 17 -108 -5z"/>
<path d="M1243 5123 c-33 -6 -79 -57 -86 -92 -26 -127 122 -210 212 -120 43
42 49 93 18 156 -20 42 -87 68 -144 56z"/>
<path d="M251 4122 c-36 -19 -71 -72 -71 -107 0 -35 35 -88 71 -107 32 -17 84
-18 1034 -18 950 0 1002 1 1034 18 36 19 71 72 71 107 0 35 -35 88 -71 107
-32 17 -84 18 -1034 18 -950 0 -1002 -1 -1034 -18z"/>
<path d="M1243 3163 c-33 -6 -79 -57 -86 -92 -26 -127 122 -210 212 -120 43
42 49 93 18 156 -20 42 -87 68 -144 56z"/>
</g>
</svg>
