<?xml version="1.0" standalone="no"?>
<!DOCTYPE svg PUBLIC "-//W3C//DTD SVG 20010904//EN"
 "http://www.w3.org/TR/2001/REC-SVG-20010904/DTD/svg10.dtd">
<svg version="1.0" xmlns="http://www.w3.org/2000/svg"
 width="354pt" height="1000pt" viewBox="0 0 354 1000"
 preserveAspectRatio="xMidYMid meet">
<metadata>
Created by potrace 1.9, written by Peter Selinger 2001-2010
</metadata>
<g transform="translate(0,1000) scale(0.100000,-0.100000)"
fill="#000000" stroke="none">
<path d="M2090 6084 c-351 -63 -637 -267 -793 -565 -108 -204 -137 -346 -137
-666 l0 -223 -438 0 c-489 0 -486 0 -524 -71 -23 -42 -23 -66 0 -108 38 -71
35 -71 524 -71 l438 0 0 -365 0 -365 -438 0 c-489 0 -486 0 -524 -71 -23 -42
-23 -66 0 -108 38 -71 35 -71 524 -71 l438 0 0 -217 c0 -312 31 -461 137 -663
157 -299 445 -502 798 -564 114 -20 216 -20 330 0 356 62 644 267 803 572 106
203 164 512 109 582 -52 67 -164 65 -206 -2 -7 -11 -17 -63 -22 -116 -34 -367
-263 -651 -619 -768 -77 -25 -98 -28 -230 -28 -132 0 -153 3 -230 28 -294 97
-490 293 -585 586 -27 82 -28 95 -32 338 l-5 252 439 0 c490 0 487 0 525 71
23 42 23 66 0 108 -38 71 -35 71 -524 71 l-438 0 0 365 0 365 438 0 c489 0
486 0 524 71 23 42 23 66 0 108 -38 71 -35 71 -525 71 l-439 0 4 258 c4 250 5
259 32 342 98 295 290 488 586 586 77 25 98 28 230 28 132 0 153 -3 230 -28
183 -61 317 -152 431 -292 104 -127 171 -298 188 -473 5 -54 15 -107 22 -119
43 -68 165 -68 208 0 22 35 24 120 7 222 -63 368 -263 652 -574 814 -218 113
-466 155 -682 116z"/>
</g>
</svg>
