<?xml version="1.0" standalone="no"?>
<!DOCTYPE svg PUBLIC "-//W3C//DTD SVG 20010904//EN"
 "http://www.w3.org/TR/2001/REC-SVG-20010904/DTD/svg10.dtd">
<svg version="1.0" xmlns="http://www.w3.org/2000/svg"
 width="1530pt" height="1000pt" viewBox="0 0 1530 1000"
 preserveAspectRatio="xMidYMid meet">
<metadata>
Created by potrace 1.9, written by Peter Selinger 2001-2010
</metadata>
<g transform="translate(0,1000) scale(0.100000,-0.100000)"
fill="#000000" stroke="none">
<path d="M3192 9024 c-18 -9 -41 -29 -51 -43 -40 -56 -501 -992 -506 -1028
-11 -74 61 -150 132 -139 68 10 76 22 280 430 l195 391 193 -385 c200 -398
216 -423 282 -436 39 -7 95 18 118 53 41 62 45 53 -233 609 -194 389 -267 525
-287 538 -39 25 -85 29 -123 10z"/>
<path d="M3185 7061 c-27 -13 -201 -180 -531 -512 -513 -516 -526 -530 -509
-596 16 -67 79 -110 143 -98 32 5 92 61 435 403 l397 397 0 -840 c0 -795 1
-842 18 -874 19 -36 72 -71 107 -71 35 0 88 35 107 71 17 32 18 79 18 869 l0
835 388 -387 c403 -402 425 -420 489 -403 67 16 110 79 98 143 -5 32 -74 104
-513 546 -290 290 -521 514 -539 522 -42 18 -60 17 -108 -5z"/>
<path d="M8950 6084 c-270 -49 -508 -184 -674 -383 -113 -135 -208 -344 -237
-520 l-12 -68 -68 -12 c-176 -29 -385 -124 -520 -237 -290 -242 -446 -650
-384 -1003 49 -279 185 -523 384 -685 188 -154 467 -256 701 -256 239 0 523
106 712 265 280 236 434 647 373 994 -62 352 -254 632 -543 792 -125 69 -207
99 -374 134 -35 7 -35 21 -2 127 91 288 289 486 584 584 77 25 98 28 230 28
132 0 153 -3 230 -28 183 -61 317 -152 431 -292 66 -80 115 -175 155 -294 25
-76 28 -100 28 -220 0 -110 -5 -159 -27 -265 -113 -532 -328 -1027 -628 -1446
-306 -428 -714 -805 -1150 -1063 -128 -76 -144 -93 -144 -161 0 -62 25 -97 82
-116 47 -15 72 -7 198 68 656 392 1159 928 1515 1616 198 382 327 779 399
1232 20 125 19 131 -5 283 -57 358 -262 649 -572 810 -218 113 -466 155 -682
116z m-580 -1249 c176 -56 318 -152 431 -291 68 -83 117 -178 155 -299 26 -80
29 -104 29 -225 0 -121 -3 -145 -29 -225 -93 -295 -290 -493 -586 -591 -77
-25 -98 -28 -230 -28 -132 0 -153 3 -230 28 -179 59 -319 154 -431 292 -68 82
-117 177 -155 299 -26 82 -29 103 -28 230 0 126 3 149 28 225 95 288 291 488
567 579 106 35 147 40 274 37 97 -3 137 -9 205 -31z"/>
<path d="M8103 4143 c-33 -6 -79 -57 -86 -92 -26 -127 122 -210 212 -120 43
42 49 93 18 156 -20 42 -87 68 -144 56z"/>
<path d="M1225 5101 c-26 -12 -209 -188 -532 -512 -545 -548 -533 -533 -500
-621 24 -62 994 -1030 1050 -1048 64 -20 123 6 152 67 37 76 42 70 -393 506
l-397 397 840 0 c795 0 842 1 874 18 36 19 71 72 71 107 0 35 -35 88 -71 107
-32 17 -79 18 -874 18 l-840 0 397 398 c435 435 430 429 393 505 -32 67 -102
91 -170 58z"/>
<path d="M5151 5102 c-35 -19 -71 -72 -71 -105 0 -55 41 -103 413 -474 l382
-383 -835 0 c-790 0 -837 -1 -869 -18 -36 -19 -71 -72 -71 -107 0 -35 35 -88
71 -107 32 -17 79 -18 869 -18 l835 0 -387 -387 c-402 -404 -420 -426 -403
-490 16 -67 79 -110 143 -98 32 5 105 74 550 518 358 358 515 522 523 544 24
73 30 65 -509 607 -290 290 -521 514 -539 522 -43 18 -61 18 -102 -4z"/>
<path d="M12011 5102 c-71 -38 -71 -35 -71 -524 l0 -438 -438 0 c-404 0 -440
-1 -471 -18 -36 -19 -71 -72 -71 -107 0 -35 35 -88 71 -107 31 -17 67 -18 471
-18 l438 0 0 -438 c0 -489 0 -486 71 -524 42 -23 66 -23 108 0 71 38 71 35 71
524 l0 438 438 0 c404 0 440 1 471 18 36 19 71 72 71 107 0 35 -35 88 -71 107
-31 17 -67 18 -471 18 l-438 0 0 438 c0 404 -1 440 -18 471 -19 36 -72 71
-107 71 -11 0 -36 -8 -54 -18z"/>
<path d="M13971 5102 c-19 -10 -43 -34 -53 -53 -17 -32 -18 -77 -18 -789 0
-712 1 -757 18 -789 19 -36 72 -71 107 -71 35 0 88 35 107 71 17 32 18 77 18
789 0 712 -1 757 -18 789 -19 36 -72 71 -107 71 -11 0 -36 -8 -54 -18z"/>
<path d="M13983 3173 c-33 -6 -79 -57 -86 -92 -26 -127 122 -210 212 -120 43
42 49 93 18 156 -20 42 -87 68 -144 56z"/>
<path d="M3191 3142 c-19 -10 -43 -34 -53 -53 -17 -32 -18 -79 -18 -874 l0
-840 -397 397 c-436 435 -430 430 -506 393 -61 -29 -87 -88 -67 -152 17 -53
973 -1015 1039 -1045 88 -40 61 -62 629 505 358 358 515 522 523 544 6 18 8
47 4 63 -8 39 -56 87 -95 95 -70 15 -85 2 -492 -403 l-388 -387 0 835 c0 790
-1 837 -18 869 -19 36 -72 71 -107 71 -11 0 -36 -8 -54 -18z"/>
</g>
</svg>
