<?xml version="1.0" standalone="no"?>
<!DOCTYPE svg PUBLIC "-//W3C//DTD SVG 20010904//EN"
 "http://www.w3.org/TR/2001/REC-SVG-20010904/DTD/svg10.dtd">
<svg version="1.0" xmlns="http://www.w3.org/2000/svg"
 width="452pt" height="1000pt" viewBox="0 0 452 1000"
 preserveAspectRatio="xMidYMid meet">
<metadata>
Created by potrace 1.9, written by Peter Selinger 2001-2010
</metadata>
<g transform="translate(0,1000) scale(0.100000,-0.100000)"
fill="#000000" stroke="none">
<path d="M2205 4127 c-63 -29 -89 -121 -51 -179 10 -15 68 -70 129 -122 201
-169 382 -384 514 -609 161 -276 280 -650 300 -944 l6 -93 -1409 0 c-1346 0
-1411 -1 -1443 -18 -36 -19 -71 -72 -71 -107 0 -35 35 -88 71 -107 32 -17 115
-18 2014 -18 1904 0 1982 1 2015 18 19 11 42 35 52 54 20 38 17 99 -18 353
-62 446 -265 856 -584 1175 -367 366 -850 578 -1380 605 -87 4 -122 2 -145 -8z
m530 -301 c133 -34 336 -119 458 -192 242 -146 495 -399 641 -641 131 -219
246 -579 246 -772 l0 -41 -363 0 -364 0 -6 93 c-16 237 -97 561 -199 799 -98
230 -292 539 -432 688 -29 30 -59 64 -67 74 -13 17 -12 18 6 13 11 -3 47 -13
80 -21z"/>
</g>
</svg>
