<?xml version="1.0" standalone="no"?>
<!DOCTYPE svg PUBLIC "-//W3C//DTD SVG 20010904//EN"
 "http://www.w3.org/TR/2001/REC-SVG-20010904/DTD/svg10.dtd">
<svg version="1.0" xmlns="http://www.w3.org/2000/svg"
 width="452pt" height="1000pt" viewBox="0 0 452 1000"
 preserveAspectRatio="xMidYMid meet">
<metadata>
Created by potrace 1.9, written by Peter Selinger 2001-2010
</metadata>
<g transform="translate(0,1000) scale(0.100000,-0.100000)"
fill="#000000" stroke="none">
<path d="M2189 6083 c-44 -27 -51 -51 -65 -214 -15 -182 -18 -201 -50 -329
-82 -329 -238 -604 -484 -850 -246 -246 -521 -402 -850 -484 -128 -32 -147
-35 -329 -50 -88 -8 -166 -19 -178 -26 -73 -46 -70 -172 5 -212 60 -31 354 -5
582 52 525 132 990 478 1260 938 23 39 44 72 47 72 6 0 -5 -153 -18 -250 -29
-209 -124 -478 -235 -663 -146 -242 -399 -495 -641 -641 -135 -81 -328 -159
-493 -200 -128 -32 -147 -35 -329 -50 -88 -8 -166 -19 -178 -26 -73 -46 -70
-172 5 -212 60 -31 354 -5 582 52 530 134 985 474 1266 948 l49 82 5 -1002 c5
-946 6 -1005 23 -1030 19 -27 72 -58 102 -58 30 0 83 31 102 58 17 25 18 83
23 1022 l5 995 44 -75 c269 -459 737 -808 1261 -940 228 -57 522 -83 582 -52
74 40 77 167 5 212 -12 7 -90 18 -178 26 -182 15 -201 18 -329 50 -165 41
-358 119 -493 200 -240 145 -495 400 -640 641 -111 184 -207 454 -236 663 -13
97 -24 250 -18 250 3 0 24 -33 47 -72 118 -202 334 -444 515 -578 298 -221
602 -349 965 -405 137 -21 328 -25 362 -7 74 40 77 167 5 212 -12 7 -90 18
-178 26 -182 15 -201 18 -329 50 -165 41 -358 119 -493 200 -240 145 -495 400
-640 641 -82 135 -160 327 -201 493 -32 128 -35 147 -50 329 -8 88 -19 166
-26 178 -32 51 -127 70 -181 36z"/>
</g>
</svg>
