<?xml version="1.0" standalone="no"?>
<!DOCTYPE svg PUBLIC "-//W3C//DTD SVG 20010904//EN"
 "http://www.w3.org/TR/2001/REC-SVG-20010904/DTD/svg10.dtd">
<svg version="1.0" xmlns="http://www.w3.org/2000/svg"
 width="648pt" height="1000pt" viewBox="0 0 648 1000"
 preserveAspectRatio="xMidYMid meet">
<metadata>
Created by potrace 1.9, written by Peter Selinger 2001-2010
</metadata>
<g transform="translate(0,1000) scale(0.100000,-0.100000)"
fill="#000000" stroke="none">
<path d="M2212 8044 c-18 -9 -41 -29 -51 -43 -40 -56 -501 -992 -506 -1028
-11 -74 61 -150 132 -139 68 10 76 22 280 430 l195 391 193 -385 c200 -398
216 -423 282 -436 39 -7 95 18 118 53 41 62 45 53 -233 609 -194 389 -267 525
-287 538 -39 25 -85 29 -123 10z"/>
<path d="M2115 6094 c-684 -55 -1279 -418 -1631 -994 -178 -294 -280 -628
-299 -990 -7 -132 5 -169 66 -202 32 -17 82 -18 961 -18 l928 0 0 -928 c0
-879 1 -929 18 -961 19 -36 72 -71 107 -71 35 0 88 35 107 71 17 32 18 82 18
961 l0 928 762 0 763 0 -387 -387 c-402 -404 -420 -426 -403 -490 16 -67 79
-110 143 -98 32 5 104 74 546 513 288 288 514 521 522 539 15 35 10 115 -22
348 -85 616 -439 1154 -974 1481 -234 142 -489 233 -776 278 -102 16 -357 27
-449 20z m25 -1104 l0 -850 -850 0 -850 0 0 41 c0 193 115 553 246 772 146
242 399 495 641 641 218 130 561 241 761 245 l52 1 0 -850z m393 839 c215 -32
478 -126 660 -235 242 -146 495 -399 641 -641 77 -130 158 -326 197 -478 11
-44 22 -89 26 -100 3 -11 -165 150 -373 357 -326 324 -384 378 -416 383 -64
12 -127 -31 -143 -98 -17 -64 1 -86 403 -489 l387 -388 -763 0 -762 0 0 850 0
850 36 0 c19 0 68 -5 107 -11z"/>
<path d="M5151 6082 c-19 -10 -43 -34 -53 -53 -17 -32 -18 -115 -18 -2014 0
-1899 1 -1982 18 -2014 19 -36 72 -71 107 -71 35 0 88 35 107 71 17 32 18 115
18 2014 0 1899 -1 1982 -18 2014 -19 36 -72 71 -107 71 -11 0 -36 -8 -54 -18z"/>
<path d="M6143 4143 c-33 -6 -79 -57 -86 -92 -26 -127 122 -210 212 -120 43
42 49 93 18 156 -20 42 -87 68 -144 56z"/>
</g>
</svg>
