<?xml version="1.0" standalone="no"?>
<!DOCTYPE svg PUBLIC "-//W3C//DTD SVG 20010904//EN"
 "http://www.w3.org/TR/2001/REC-SVG-20010904/DTD/svg10.dtd">
<svg version="1.0" xmlns="http://www.w3.org/2000/svg"
 width="452pt" height="1000pt" viewBox="0 0 452 1000"
 preserveAspectRatio="xMidYMid meet">
<metadata>
Created by potrace 1.9, written by Peter Selinger 2001-2010
</metadata>
<g transform="translate(0,1000) scale(0.100000,-0.100000)"
fill="#000000" stroke="none">
<path d="M251 6082 c-35 -19 -71 -72 -71 -105 0 -31 30 -85 58 -104 25 -17 66
-18 527 -23 l500 -5 -75 -44 c-462 -271 -807 -735 -940 -1261 -49 -197 -64
-316 -64 -520 0 -204 15 -323 64 -520 133 -529 475 -986 948 -1266 l82 -49
-507 -5 c-469 -5 -510 -6 -535 -23 -28 -19 -58 -73 -58 -104 0 -33 36 -86 71
-105 32 -17 115 -18 2014 -18 1899 0 1982 1 2014 18 35 19 71 72 71 105 0 31
-30 85 -58 104 -25 17 -66 18 -540 23 l-512 5 82 49 c473 280 815 737 948
1266 49 197 64 316 64 520 0 204 -15 323 -64 520 -132 525 -479 990 -940 1261
l-75 44 505 5 c466 5 507 6 532 23 28 19 58 73 58 104 0 33 -36 86 -71 105
-32 17 -115 18 -2014 18 -1899 0 -1982 -1 -2014 -18z m1889 -2062 l0 -1820
-41 0 c-193 0 -553 115 -772 246 -240 145 -495 400 -640 641 -111 184 -202
440 -238 668 -16 103 -16 427 0 530 36 228 127 484 237 668 146 242 399 495
641 641 218 130 561 241 761 245 l52 1 0 -1820z m393 1809 c215 -32 478 -126
660 -235 240 -145 495 -400 640 -641 111 -184 202 -440 238 -668 7 -44 13
-163 13 -265 0 -195 -10 -285 -49 -440 -84 -332 -244 -610 -494 -859 -197
-196 -401 -325 -661 -421 -145 -53 -359 -100 -454 -100 l-36 0 0 1820 0 1820
36 0 c19 0 68 -5 107 -11z"/>
</g>
</svg>
