<?xml version="1.0" standalone="no"?>
<!DOCTYPE svg PUBLIC "-//W3C//DTD SVG 20010904//EN"
 "http://www.w3.org/TR/2001/REC-SVG-20010904/DTD/svg10.dtd">
<svg version="1.0" xmlns="http://www.w3.org/2000/svg"
 width="648pt" height="1000pt" viewBox="0 0 648 1000"
 preserveAspectRatio="xMidYMid meet">
<metadata>
Created by potrace 1.9, written by Peter Selinger 2001-2010
</metadata>
<g transform="translate(0,1000) scale(0.100000,-0.100000)"
fill="#000000" stroke="none">
<path d="M4183 9043 c-33 -6 -79 -57 -86 -92 -26 -127 122 -210 212 -120 43
42 49 93 18 156 -20 42 -87 68 -144 56z"/>
<path d="M2701 9022 c-47 -25 -74 -76 -66 -125 3 -21 118 -263 255 -537 272
-544 273 -545 355 -545 78 1 77 -2 357 559 278 556 274 547 233 609 -23 35
-79 60 -118 53 -66 -13 -82 -38 -282 -436 l-193 -385 -195 391 c-143 286 -202
395 -222 408 -41 27 -85 30 -124 8z"/>
<path d="M3185 7061 c-27 -13 -201 -180 -531 -512 -513 -516 -526 -530 -509
-596 16 -67 79 -110 143 -98 32 5 92 61 435 403 l397 397 0 -768 0 -767 -438
0 c-404 0 -440 -1 -471 -18 -71 -38 -71 -35 -71 -524 l0 -438 -767 0 -768 0
397 398 c435 435 430 429 393 505 -29 61 -88 87 -152 67 -56 -18 -1026 -986
-1050 -1048 -33 -88 -45 -73 505 -625 521 -521 542 -539 608 -523 68 17 111
80 99 144 -5 32 -61 92 -403 435 l-397 397 768 0 767 0 0 -438 c0 -489 0 -486
71 -524 31 -17 67 -18 471 -18 l438 0 0 -767 0 -768 -397 397 c-436 435 -430
430 -506 393 -61 -29 -87 -88 -67 -152 17 -53 973 -1015 1039 -1045 88 -40 61
-62 629 505 358 358 515 522 523 544 6 18 8 47 4 63 -8 39 -56 87 -95 95 -70
15 -85 2 -492 -403 l-388 -387 0 763 0 762 438 0 c404 0 440 1 471 18 71 38
71 35 71 524 l0 438 762 0 763 0 -387 -387 c-402 -404 -420 -426 -403 -490 16
-67 79 -110 143 -98 32 5 105 74 550 518 358 358 515 522 523 544 24 73 30 65
-514 611 -358 358 -522 515 -544 523 -18 6 -47 8 -63 4 -39 -8 -87 -56 -95
-95 -15 -70 -2 -85 403 -492 l387 -388 -763 0 -762 0 0 438 c0 489 0 486 -71
524 -31 17 -67 18 -471 18 l-438 0 0 762 0 763 388 -387 c403 -402 425 -420
489 -403 67 16 110 79 98 143 -5 32 -74 104 -513 546 -290 290 -521 514 -539
522 -42 18 -60 17 -108 -5z m915 -3046 l0 -855 -855 0 -855 0 0 855 0 855 855
0 855 0 0 -855z"/>
</g>
</svg>
