<?xml version="1.0" standalone="no"?>
<!DOCTYPE svg PUBLIC "-//W3C//DTD SVG 20010904//EN"
 "http://www.w3.org/TR/2001/REC-SVG-20010904/DTD/svg10.dtd">
<svg version="1.0" xmlns="http://www.w3.org/2000/svg"
 width="648pt" height="1000pt" viewBox="0 0 648 1000"
 preserveAspectRatio="xMidYMid meet">
<metadata>
Created by potrace 1.9, written by Peter Selinger 2001-2010
</metadata>
<g transform="translate(0,1000) scale(0.100000,-0.100000)"
fill="#000000" stroke="none">
<path d="M2090 8044 c-270 -49 -508 -184 -674 -383 -152 -182 -256 -467 -256
-701 0 -291 155 -637 367 -819 l48 -40 -645 -1 c-606 0 -647 -1 -679 -18 -36
-19 -71 -72 -71 -107 0 -35 35 -88 71 -107 32 -17 82 -18 961 -18 l928 0 0
-900 0 -900 -485 -970 c-269 -538 -487 -986 -490 -1007 -8 -49 19 -100 66
-125 32 -17 84 -18 1034 -18 950 0 1002 1 1034 18 37 20 71 72 71 109 0 13
-220 464 -490 1003 l-490 980 0 905 0 905 928 0 c879 0 929 1 961 18 36 19 71
72 71 107 0 35 -35 88 -71 107 -32 17 -73 18 -681 18 l-648 0 83 83 c167 166
268 367 312 618 61 347 -93 758 -373 994 -241 203 -592 302 -882 249z m50
-1084 c0 -727 -2 -840 -14 -840 -33 0 -186 54 -257 91 -144 75 -291 222 -362
364 -19 39 -48 111 -63 160 -26 82 -29 103 -28 230 0 126 3 149 28 225 16 47
44 117 63 155 70 140 221 293 358 363 71 36 225 91 258 92 16 0 17 -47 17
-840z m352 814 c173 -54 316 -151 429 -290 68 -83 117 -178 155 -299 26 -80
29 -104 29 -225 0 -121 -3 -145 -29 -225 -93 -295 -295 -498 -584 -589 -46
-14 -87 -26 -93 -26 -5 0 -9 317 -9 840 0 523 4 840 9 840 6 0 47 -12 93 -26z
m-225 -5592 c-424 -1 -772 0 -774 2 -2 2 170 352 383 777 l387 774 387 -775
388 -775 -771 -3z"/>
<path d="M5151 6082 c-36 -19 -71 -73 -71 -107 1 -51 46 -108 234 -295 l196
-195 -204 -205 c-211 -212 -236 -248 -221 -307 16 -67 79 -110 143 -98 30 5
65 34 190 158 l152 151 0 -1575 c0 -1506 1 -1576 18 -1608 19 -36 72 -71 107
-71 35 0 88 35 107 71 17 32 18 102 18 1603 l0 1570 143 -141 c149 -147 187
-171 247 -158 39 8 87 56 95 95 13 60 -8 88 -225 305 l-210 210 214 215 c180
180 216 221 221 252 12 64 -31 127 -98 143 -55 14 -97 -13 -244 -158 l-143
-141 0 100 c0 115 -16 156 -71 186 -42 23 -66 23 -108 0 -56 -30 -71 -70 -71
-192 l0 -105 -147 147 c-175 174 -201 188 -272 150z"/>
</g>
</svg>
