<?xml version="1.0" standalone="no"?>
<!DOCTYPE svg PUBLIC "-//W3C//DTD SVG 20010904//EN"
 "http://www.w3.org/TR/2001/REC-SVG-20010904/DTD/svg10.dtd">
<svg version="1.0" xmlns="http://www.w3.org/2000/svg"
 width="648pt" height="1000pt" viewBox="0 0 648 1000"
 preserveAspectRatio="xMidYMid meet">
<metadata>
Created by potrace 1.9, written by Peter Selinger 2001-2010
</metadata>
<g transform="translate(0,1000) scale(0.100000,-0.100000)"
fill="#000000" stroke="none">
<path d="M1231 6082 c-19 -10 -43 -34 -53 -53 -17 -32 -18 -83 -18 -1006 l0
-973 -485 -970 c-269 -538 -487 -986 -490 -1007 -16 -104 101 -175 190 -117
20 13 134 232 467 898 l440 881 437 -871 c240 -480 442 -879 449 -887 24 -28
82 -49 118 -43 44 9 91 58 100 103 6 34 -29 108 -472 995 l-479 958 903 903
902 902 904 -904 904 -904 -469 -938 c-260 -520 -471 -955 -474 -976 -8 -49
19 -100 66 -125 32 -17 84 -18 1034 -18 950 0 1002 1 1034 18 37 20 71 72 71
109 0 13 -220 464 -490 1003 l-490 980 0 978 c0 927 -1 979 -18 1011 -19 36
-72 71 -107 71 -35 0 -88 -35 -107 -71 -17 -32 -18 -79 -18 -874 l0 -840 -887
887 c-714 712 -894 887 -920 893 -77 16 -56 35 -985 -893 l-878 -877 0 835 c0
790 -1 837 -18 869 -19 36 -72 71 -107 71 -11 0 -36 -8 -54 -18z m3976 -3900
c-424 -1 -772 0 -774 2 -2 2 170 352 383 777 l387 774 387 -775 388 -775 -771
-3z"/>
</g>
</svg>
