<?xml version="1.0" standalone="no"?>
<!DOCTYPE svg PUBLIC "-//W3C//DTD SVG 20010904//EN"
 "http://www.w3.org/TR/2001/REC-SVG-20010904/DTD/svg10.dtd">
<svg version="1.0" xmlns="http://www.w3.org/2000/svg"
 width="2118pt" height="1000pt" viewBox="0 0 2118 1000"
 preserveAspectRatio="xMidYMid meet">
<metadata>
Created by potrace 1.9, written by Peter Selinger 2001-2010
</metadata>
<g transform="translate(0,1000) scale(0.100000,-0.100000)"
fill="#000000" stroke="none">
<path d="M4171 6082 c-36 -19 -71 -72 -71 -107 0 -35 35 -88 71 -107 32 -17
113 -18 1941 -18 l1908 0 0 -1835 0 -1835 -3868 0 c-3726 0 -3869 -1 -3901
-18 -36 -19 -71 -72 -71 -107 0 -35 35 -88 71 -107 32 -17 177 -18 3974 -18
3797 0 3942 1 3974 18 19 10 43 34 53 53 17 32 18 115 18 2014 0 1899 -1 1982
-18 2014 -10 19 -34 43 -53 53 -32 17 -115 18 -2014 18 -1899 0 -1982 -1
-2014 -18z"/>
<path d="M10935 6094 c-684 -55 -1279 -418 -1631 -994 -143 -235 -234 -491
-279 -780 -21 -137 -25 -328 -7 -362 40 -74 167 -77 212 -5 7 12 18 90 26 178
15 182 18 201 50 329 82 329 238 604 484 850 246 246 519 401 850 485 155 39
245 49 440 49 195 0 285 -10 440 -49 331 -84 604 -239 850 -485 246 -246 402
-521 484 -850 32 -128 35 -147 50 -329 8 -88 19 -166 26 -178 45 -72 172 -69
212 5 18 34 14 225 -7 362 -71 458 -269 853 -585 1170 -378 377 -876 590
-1416 604 -82 2 -171 2 -199 0z"/>
<path d="M18775 6094 c-684 -55 -1279 -418 -1631 -994 -67 -111 -139 -262
-179 -375 -15 -44 -31 -83 -34 -87 -3 -3 -52 -11 -109 -17 -362 -39 -663 -175
-905 -411 -76 -74 -97 -101 -97 -122 0 -22 -13 -38 -57 -73 -179 -142 -413
-235 -649 -257 -347 -33 -685 77 -942 305 -37 33 -82 66 -101 74 -97 41 -194
-51 -161 -152 30 -90 296 -282 514 -371 433 -177 942 -139 1338 99 169 102
313 224 324 276 9 42 17 53 94 118 161 135 404 239 614 261 l78 8 -6 -45 c-41
-286 -27 -546 44 -831 184 -730 759 -1306 1490 -1490 197 -49 316 -64 520 -64
557 0 1074 211 1461 595 398 396 613 914 613 1479 0 204 -15 323 -64 520 -165
656 -654 1197 -1290 1430 -108 39 -286 84 -416 104 -102 16 -357 27 -449 20z
m418 -265 c215 -32 478 -126 660 -235 240 -145 495 -400 640 -641 111 -184
202 -440 238 -668 7 -44 13 -163 13 -265 0 -195 -10 -285 -49 -440 -84 -332
-244 -610 -494 -859 -240 -238 -514 -393 -841 -476 -155 -39 -245 -49 -440
-49 -102 0 -221 6 -265 13 -228 36 -484 127 -668 237 -240 145 -495 400 -640
641 -111 184 -202 440 -238 668 -17 106 -17 417 0 528 l13 88 37 -7 c126 -21
299 -83 413 -148 78 -44 208 -142 207 -154 -6 -40 7 -62 79 -130 261 -248 574
-390 931 -423 261 -25 543 28 786 146 113 54 251 146 337 222 37 32 78 66 93
76 39 27 59 77 51 123 -6 32 -25 56 -104 134 -150 147 -346 268 -542 334 -334
111 -659 111 -990 -1 -149 -50 -306 -134 -425 -228 -22 -17 -45 -34 -51 -38
-7 -4 -34 10 -60 31 -195 152 -400 243 -671 298 l-22 4 19 55 c140 406 514
814 922 1005 210 98 418 154 648 174 73 6 334 -3 413 -15z m-29 -1474 c176
-36 368 -123 501 -228 87 -67 88 -61 -14 -136 -129 -95 -319 -180 -486 -217
-98 -21 -377 -24 -475 -5 -104 20 -218 59 -325 111 -108 52 -265 161 -265 184
0 19 129 116 220 165 131 70 295 123 432 141 100 12 317 4 412 -15z"/>
<path d="M11025 4121 c-57 -27 -1988 -1962 -2010 -2013 -8 -21 -15 -45 -15
-55 0 -33 36 -86 71 -105 32 -17 115 -18 2014 -18 1904 0 1982 1 2015 18 46
25 74 81 65 130 -6 33 -119 150 -1003 1036 -583 583 -1010 1004 -1029 1012
-42 18 -60 17 -108 -5z m885 -1116 l825 -825 -1655 0 -1655 0 825 825 c454
454 827 825 830 825 3 0 376 -371 830 -825z"/>
</g>
</svg>
