<?xml version="1.0" standalone="no"?>
<!DOCTYPE svg PUBLIC "-//W3C//DTD SVG 20010904//EN"
 "http://www.w3.org/TR/2001/REC-SVG-20010904/DTD/svg10.dtd">
<svg version="1.0" xmlns="http://www.w3.org/2000/svg"
 width="648pt" height="1000pt" viewBox="0 0 648 1000"
 preserveAspectRatio="xMidYMid meet">
<metadata>
Created by potrace 1.9, written by Peter Selinger 2001-2010
</metadata>
<g transform="translate(0,1000) scale(0.100000,-0.100000)"
fill="#000000" stroke="none">
<path d="M1231 6082 c-19 -10 -43 -34 -53 -53 -17 -32 -18 -113 -18 -1941 l0
-1908 -438 0 c-404 0 -440 -1 -471 -18 -36 -19 -71 -72 -71 -107 0 -35 35 -88
71 -107 32 -17 84 -18 1034 -18 950 0 1002 1 1034 18 36 19 71 72 71 107 0 35
-35 88 -71 107 -31 17 -67 18 -471 18 l-438 0 0 893 0 892 915 915 915 915
920 -920 920 -920 0 -887 0 -888 -438 0 c-404 0 -440 -1 -471 -18 -36 -19 -71
-72 -71 -107 0 -35 35 -88 71 -107 32 -17 84 -18 1034 -18 950 0 1002 1 1034
18 36 19 71 72 71 107 0 35 -35 88 -71 107 -31 17 -67 18 -471 18 l-438 0 0
1908 c0 1828 -1 1909 -18 1941 -19 36 -72 71 -107 71 -35 0 -88 -35 -107 -71
-17 -32 -18 -79 -18 -874 l0 -840 -887 887 c-714 712 -894 887 -920 893 -77
16 -56 35 -985 -893 l-878 -877 0 835 c0 790 -1 837 -18 869 -19 36 -72 71
-107 71 -11 0 -36 -8 -54 -18z"/>
</g>
</svg>
