<?xml version="1.0" standalone="no"?>
<!DOCTYPE svg PUBLIC "-//W3C//DTD SVG 20010904//EN"
 "http://www.w3.org/TR/2001/REC-SVG-20010904/DTD/svg10.dtd">
<svg version="1.0" xmlns="http://www.w3.org/2000/svg"
 width="452pt" height="1000pt" viewBox="0 0 452 1000"
 preserveAspectRatio="xMidYMid meet">
<metadata>
Created by potrace 1.9, written by Peter Selinger 2001-2010
</metadata>
<g transform="translate(0,1000) scale(0.100000,-0.100000)"
fill="#000000" stroke="none">
<path d="M2115 6094 c-172 -14 -419 -67 -575 -124 -565 -207 -1023 -665 -1230
-1230 -88 -241 -154 -660 -120 -766 10 -32 195 -223 994 -1023 739 -741 992
-988 1025 -1003 90 -41 12 -111 1115 990 580 580 1004 1010 1012 1029 15 35
10 114 -22 348 -85 616 -439 1154 -974 1481 -234 142 -489 233 -776 278 -102
16 -357 27 -449 20z m418 -265 c163 -24 351 -83 515 -159 359 -168 694 -503
862 -862 102 -219 156 -423 174 -668 l6 -75 -915 -915 -915 -915 -915 915
-915 915 6 75 c18 245 72 449 174 668 168 359 503 694 862 862 210 98 418 154
648 174 73 6 334 -3 413 -15z"/>
</g>
</svg>
