<?xml version="1.0" standalone="no"?>
<!DOCTYPE svg PUBLIC "-//W3C//DTD SVG 20010904//EN"
 "http://www.w3.org/TR/2001/REC-SVG-20010904/DTD/svg10.dtd">
<svg version="1.0" xmlns="http://www.w3.org/2000/svg"
 width="746pt" height="1000pt" viewBox="0 0 746 1000"
 preserveAspectRatio="xMidYMid meet">
<metadata>
Created by potrace 1.9, written by Peter Selinger 2001-2010
</metadata>
<g transform="translate(0,1000) scale(0.100000,-0.100000)"
fill="#000000" stroke="none">
<path d="M1231 6082 c-19 -10 -43 -34 -53 -53 -17 -32 -18 -113 -18 -1941 l0
-1908 -438 0 c-404 0 -440 -1 -471 -18 -36 -19 -71 -72 -71 -107 0 -35 35 -88
71 -107 32 -17 84 -18 1034 -18 950 0 1002 1 1034 18 36 19 71 72 71 107 0 35
-35 88 -71 107 -31 17 -67 18 -471 18 l-438 0 0 1908 c0 1828 -1 1909 -18
1941 -19 36 -72 71 -107 71 -11 0 -36 -8 -54 -18z"/>
<path d="M5145 6081 c-28 -13 -345 -325 -1021 -1002 -792 -794 -984 -991 -994
-1022 -20 -64 6 -123 67 -152 80 -38 18 -93 1056 943 l947 947 834 -834 c459
-459 833 -838 831 -842 -3 -3 -28 -9 -57 -13 -78 -10 -271 -61 -368 -96 -565
-207 -1023 -665 -1230 -1230 -57 -158 -120 -449 -120 -559 l0 -41 -855 0 -855
0 0 41 c0 100 46 310 100 459 97 264 227 466 430 670 246 246 521 402 850 484
128 32 147 35 329 50 88 8 166 19 178 26 72 45 69 172 -5 212 -34 18 -225 14
-362 -7 -458 -71 -853 -269 -1170 -585 -366 -367 -576 -845 -605 -1380 -7
-132 5 -169 66 -202 32 -17 115 -18 2014 -18 1899 0 1982 1 2014 18 36 19 71
72 71 107 0 35 -35 88 -71 107 -32 17 -82 18 -956 18 l-923 0 0 41 c0 100 46
310 100 459 97 264 227 466 430 670 246 246 521 402 850 484 130 33 152 36
330 50 172 14 197 23 225 83 38 80 98 14 -993 1107 -583 583 -1010 1004 -1029
1012 -42 18 -60 17 -108 -5z"/>
</g>
</svg>
