<?xml version="1.0" standalone="no"?>
<!DOCTYPE svg PUBLIC "-//W3C//DTD SVG 20010904//EN"
 "http://www.w3.org/TR/2001/REC-SVG-20010904/DTD/svg10.dtd">
<svg version="1.0" xmlns="http://www.w3.org/2000/svg"
 width="1432pt" height="1000pt" viewBox="0 0 1432 1000"
 preserveAspectRatio="xMidYMid meet">
<metadata>
Created by potrace 1.9, written by Peter Selinger 2001-2010
</metadata>
<g transform="translate(0,1000) scale(0.100000,-0.100000)"
fill="#000000" stroke="none">
<path d="M2115 6094 c-684 -55 -1279 -418 -1631 -994 -199 -327 -298 -686
-298 -1080 0 -204 15 -323 64 -520 184 -731 759 -1306 1490 -1490 197 -49 316
-64 520 -64 557 0 1074 211 1461 595 398 396 613 914 613 1479 0 204 -15 323
-64 520 -165 656 -654 1197 -1290 1430 -108 39 -286 84 -416 104 -102 16 -357
27 -449 20z m418 -265 c215 -32 478 -126 660 -235 240 -145 495 -400 640 -641
111 -184 202 -440 238 -668 7 -44 13 -163 13 -265 0 -102 -6 -221 -13 -265
-36 -228 -127 -484 -238 -668 -138 -230 -398 -494 -615 -626 l-37 -22 49 93
c78 150 130 352 130 508 0 306 -164 656 -395 841 -194 156 -470 259 -695 259
-78 0 -239 -23 -318 -46 -178 -51 -392 -183 -503 -309 -171 -196 -267 -427
-285 -694 -12 -174 36 -388 126 -559 l49 -93 -37 22 c-217 132 -477 396 -615
626 -111 184 -202 440 -238 668 -16 103 -16 427 0 530 36 228 127 484 237 668
146 242 399 495 641 641 225 135 511 225 793 250 73 6 334 -3 413 -15z m-43
-1974 c83 -27 188 -75 242 -112 l27 -19 -252 -252 -252 -252 -250 250 -250
251 25 19 c39 31 179 96 245 115 149 44 329 43 465 0z m-664 -1064 c-285 -285
-251 -271 -319 -136 -142 283 -125 588 47 852 l21 33 250 -250 250 -250 -249
-249z m1131 732 c30 -39 93 -173 119 -258 26 -80 29 -104 29 -225 0 -121 -3
-145 -29 -225 -27 -86 -89 -219 -121 -260 -15 -19 -26 -9 -268 233 l-252 252
250 250 c137 137 252 250 254 250 2 0 10 -8 18 -17z m-225 -1186 c-53 -36
-158 -85 -242 -113 -77 -25 -98 -28 -230 -28 -132 0 -153 3 -230 28 -47 15
-119 46 -160 67 -134 70 -149 34 135 319 l250 250 252 -252 252 -252 -27 -19z"/>
<path d="M5151 6082 c-19 -10 -43 -34 -53 -53 -17 -32 -18 -115 -18 -2014 0
-1899 1 -1982 18 -2014 10 -19 34 -43 53 -53 32 -17 84 -18 1034 -18 950 0
1002 1 1034 18 19 10 43 34 53 53 17 32 18 115 18 2014 0 1899 -1 1982 -18
2014 -10 19 -34 43 -53 53 -32 17 -84 18 -1034 18 -950 0 -1002 -1 -1034 -18z
m1889 -2067 l0 -1835 -855 0 -855 0 0 1835 0 1835 855 0 855 0 0 -1835z"/>
<path d="M9930 6084 c-270 -49 -508 -184 -674 -383 -113 -135 -208 -344 -237
-520 l-12 -68 -68 -12 c-176 -29 -385 -124 -520 -237 -290 -242 -446 -650
-384 -1003 49 -279 185 -523 384 -685 188 -154 467 -256 701 -256 239 0 523
106 712 265 280 236 434 647 373 994 -62 352 -254 632 -543 792 -125 69 -207
99 -374 134 -35 7 -35 21 -2 127 91 288 289 486 584 584 77 25 98 28 230 28
132 0 153 -3 230 -28 183 -61 317 -152 431 -292 66 -80 115 -175 155 -294 25
-76 28 -100 28 -220 0 -110 -5 -159 -27 -265 -113 -532 -328 -1027 -628 -1446
-306 -428 -714 -805 -1150 -1063 -128 -76 -144 -93 -144 -161 0 -62 25 -97 82
-116 47 -15 72 -7 198 68 656 392 1159 928 1515 1616 198 382 327 779 399
1232 20 125 19 131 -5 283 -57 358 -262 649 -572 810 -218 113 -466 155 -682
116z m-580 -1249 c176 -56 318 -152 431 -291 68 -83 117 -178 155 -299 26 -80
29 -104 29 -225 0 -121 -3 -145 -29 -225 -93 -295 -290 -493 -586 -591 -77
-25 -98 -28 -230 -28 -132 0 -153 3 -230 28 -179 59 -319 154 -431 292 -68 82
-117 177 -155 299 -26 82 -29 103 -28 230 0 126 3 149 28 225 95 288 291 488
567 579 106 35 147 40 274 37 97 -3 137 -9 205 -31z"/>
<path d="M13965 6081 c-57 -27 -1989 -1962 -2010 -2013 -8 -21 -15 -45 -15
-55 0 -33 36 -86 71 -105 32 -17 79 -18 869 -18 l835 0 -877 -877 c-924 -926
-909 -910 -893 -983 8 -39 56 -87 95 -95 16 -4 45 -2 62 4 24 8 324 302 1035
1013 889 890 1002 1007 1008 1040 9 49 -19 105 -65 130 -33 17 -78 18 -875 18
l-840 0 887 888 c970 971 921 915 883 995 -32 67 -102 91 -170 58z"/>
</g>
</svg>
