<?xml version="1.0" standalone="no"?>
<!DOCTYPE svg PUBLIC "-//W3C//DTD SVG 20010904//EN"
 "http://www.w3.org/TR/2001/REC-SVG-20010904/DTD/svg10.dtd">
<svg version="1.0" xmlns="http://www.w3.org/2000/svg"
 width="1236pt" height="1000pt" viewBox="0 0 1236 1000"
 preserveAspectRatio="xMidYMid meet">
<metadata>
Created by potrace 1.9, written by Peter Selinger 2001-2010
</metadata>
<g transform="translate(0,1000) scale(0.100000,-0.100000)"
fill="#000000" stroke="none">
<path d="M251 6082 c-19 -10 -43 -34 -53 -53 -17 -32 -18 -84 -18 -1034 0
-950 1 -1002 18 -1034 38 -71 40 -71 484 -71 l398 0 -445 -890 c-246 -492
-447 -906 -450 -927 -16 -104 101 -175 190 -117 20 13 134 232 467 898 l440
881 438 -874 c321 -643 445 -881 466 -898 63 -50 148 -33 186 37 17 33 18 111
18 2015 0 1899 -1 1982 -18 2014 -19 36 -72 71 -107 71 -35 0 -88 -35 -107
-71 -17 -32 -18 -82 -18 -961 l0 -928 -855 0 -855 0 0 928 c0 879 -1 929 -18
961 -19 36 -72 71 -107 71 -11 0 -36 -8 -54 -18z m1888 -2844 l0 -653 -324
645 c-178 355 -324 648 -324 653 -1 4 145 7 324 7 l325 0 -1 -652z"/>
<path d="M3191 6082 c-35 -19 -71 -72 -71 -105 0 -58 45 -106 965 -1027 l935
-935 -825 -825 -825 -825 0 835 c0 790 -1 837 -18 869 -19 36 -72 71 -107 71
-35 0 -88 -35 -107 -71 -17 -32 -18 -84 -18 -1034 0 -953 1 -1002 18 -1035 25
-46 81 -74 130 -65 33 6 144 113 985 953 l947 947 938 -937 c923 -923 971
-968 1029 -968 33 0 86 36 105 71 17 32 18 84 18 1034 0 950 -1 1002 -18 1034
-19 36 -72 71 -107 71 -35 0 -88 -35 -107 -71 -17 -32 -18 -79 -18 -874 l0
-840 -830 830 -830 830 949 950 c1039 1040 984 978 946 1058 -29 61 -88 87
-152 67 -31 -10 -220 -194 -981 -954 l-942 -941 -943 942 c-531 531 -954 947
-970 953 -39 14 -57 13 -96 -8z"/>
<path d="M12010 6085 c-22 -10 -550 -531 -1462 -1443 l-1428 -1427 -457 457
c-397 395 -463 458 -495 463 -64 12 -127 -31 -144 -99 -16 -65 5 -90 471 -556
l445 -445 -449 -450 c-468 -470 -483 -487 -466 -552 16 -67 79 -110 143 -98
32 5 98 68 494 463 l458 457 452 -452 c476 -474 488 -483 558 -468 39 8 87 56
95 95 4 16 2 45 -4 62 -8 23 -151 173 -466 488 l-455 455 1439 1440 c1576
1576 1475 1467 1436 1548 -30 64 -100 90 -165 62z"/>
</g>
</svg>
