<?xml version="1.0" standalone="no"?>
<!DOCTYPE svg PUBLIC "-//W3C//DTD SVG 20010904//EN"
 "http://www.w3.org/TR/2001/REC-SVG-20010904/DTD/svg10.dtd">
<svg version="1.0" xmlns="http://www.w3.org/2000/svg"
 width="942pt" height="1000pt" viewBox="0 0 942 1000"
 preserveAspectRatio="xMidYMid meet">
<metadata>
Created by potrace 1.9, written by Peter Selinger 2001-2010
</metadata>
<g transform="translate(0,1000) scale(0.100000,-0.100000)"
fill="#000000" stroke="none">
<path d="M2211 6082 c-19 -10 -43 -34 -53 -53 -17 -32 -18 -82 -18 -961 l0
-928 -936 0 c-856 0 -938 -1 -964 -17 -47 -28 -55 -55 -53 -182 9 -506 237
-1027 612 -1400 387 -384 904 -595 1461 -595 204 0 323 15 520 64 592 149
1093 561 1356 1115 112 236 163 438 203 808 13 115 2 152 -54 187 -32 20 -47
20 -964 20 l-931 0 0 928 c0 879 -1 929 -18 961 -19 36 -72 71 -107 71 -11 0
-36 -8 -54 -18z m1869 -2228 c0 -143 -76 -420 -170 -622 -142 -302 -420 -607
-717 -786 -184 -110 -440 -201 -668 -237 -103 -16 -427 -16 -530 0 -228 36
-484 127 -668 237 -297 179 -575 484 -717 786 -94 202 -170 479 -170 622 l0
36 1820 0 1820 0 0 -36z"/>
<path d="M8091 5102 c-35 -19 -71 -72 -71 -105 0 -55 41 -103 413 -474 l382
-383 -1815 0 c-1739 0 -1817 -1 -1849 -18 -36 -19 -71 -72 -71 -107 0 -35 35
-88 71 -107 32 -17 110 -18 1849 -18 l1815 0 -387 -387 c-402 -404 -420 -426
-403 -490 16 -67 79 -110 143 -98 32 5 105 74 550 518 358 358 515 522 523
544 24 73 30 65 -509 607 -290 290 -521 514 -539 522 -43 18 -61 18 -102 -4z"/>
<path d="M6125 3141 c-26 -12 -209 -188 -532 -512 -545 -548 -533 -533 -500
-621 24 -62 994 -1030 1050 -1048 64 -20 123 6 152 67 37 76 42 70 -393 506
l-397 397 1820 0 c1744 0 1822 1 1854 18 36 19 71 72 71 107 0 35 -35 88 -71
107 -32 17 -110 18 -1854 18 l-1820 0 397 398 c435 435 430 429 393 505 -32
67 -102 91 -170 58z"/>
</g>
</svg>
