<?xml version="1.0" standalone="no"?>
<!DOCTYPE svg PUBLIC "-//W3C//DTD SVG 20010904//EN"
 "http://www.w3.org/TR/2001/REC-SVG-20010904/DTD/svg10.dtd">
<svg version="1.0" xmlns="http://www.w3.org/2000/svg"
 width="844pt" height="1000pt" viewBox="0 0 844 1000"
 preserveAspectRatio="xMidYMid meet">
<metadata>
Created by potrace 1.9, written by Peter Selinger 2001-2010
</metadata>
<g transform="translate(0,1000) scale(0.100000,-0.100000)"
fill="#000000" stroke="none">
<path d="M2211 8042 c-47 -25 -74 -76 -66 -125 3 -21 118 -263 255 -537 272
-544 273 -545 355 -545 78 1 77 -2 357 559 278 556 274 547 233 609 -23 35
-79 60 -118 53 -66 -13 -82 -38 -282 -436 l-193 -385 -195 391 c-143 286 -202
395 -222 408 -41 27 -85 30 -124 8z"/>
<path d="M2701 6083 c-19 -9 -46 -36 -60 -59 -14 -23 -123 -236 -241 -473
l-215 -431 -460 0 c-515 0 -508 1 -547 -71 -23 -42 -23 -66 0 -108 38 -71 40
-71 484 -71 l398 0 -427 -855 -428 -855 -460 0 c-515 0 -508 1 -547 -71 -23
-42 -23 -66 0 -108 38 -71 40 -71 484 -71 l398 0 -200 -400 c-110 -219 -202
-416 -205 -437 -11 -74 61 -150 132 -139 69 10 74 18 319 508 l234 468 840 0
840 0 -200 -400 c-110 -219 -202 -416 -205 -437 -11 -74 61 -150 132 -139 69
10 74 18 319 508 l234 468 463 0 c517 0 510 -1 549 71 23 42 23 66 0 108 -38
71 -40 71 -484 71 -219 0 -398 2 -398 5 0 3 191 388 425 855 l425 850 463 0
c429 0 465 1 496 18 36 19 71 72 71 107 0 35 -35 88 -71 107 -31 17 -65 18
-431 18 -219 0 -398 2 -398 5 0 2 92 189 205 415 113 226 205 421 205 433 0
65 -76 133 -138 123 -73 -11 -79 -21 -325 -512 l-232 -464 -837 0 c-461 0
-838 2 -838 5 0 2 92 189 205 415 113 226 205 421 205 433 0 37 -34 89 -71
109 -41 22 -64 22 -108 1z m892 -2068 l-428 -855 -837 0 c-461 0 -838 2 -838
5 0 3 191 388 425 855 l425 850 840 0 840 0 -427 -855z"/>
<path d="M6131 4122 c-36 -19 -71 -72 -71 -107 0 -35 35 -88 71 -107 31 -17
67 -18 471 -18 l438 0 0 -855 0 -855 -438 0 c-404 0 -440 -1 -471 -18 -36 -19
-71 -72 -71 -107 0 -35 35 -88 71 -107 32 -17 84 -18 1034 -18 950 0 1002 1
1034 18 36 19 71 72 71 107 0 35 -35 88 -71 107 -31 17 -67 18 -471 18 l-438
0 0 855 0 855 438 0 c404 0 440 1 471 18 36 19 71 72 71 107 0 35 -35 88 -71
107 -32 17 -84 18 -1034 18 -950 0 -1002 -1 -1034 -18z"/>
</g>
</svg>
