<?xml version="1.0" standalone="no"?>
<!DOCTYPE svg PUBLIC "-//W3C//DTD SVG 20010904//EN"
 "http://www.w3.org/TR/2001/REC-SVG-20010904/DTD/svg10.dtd">
<svg version="1.0" xmlns="http://www.w3.org/2000/svg"
 width="452pt" height="1000pt" viewBox="0 0 452 1000"
 preserveAspectRatio="xMidYMid meet">
<metadata>
Created by potrace 1.9, written by Peter Selinger 2001-2010
</metadata>
<g transform="translate(0,1000) scale(0.100000,-0.100000)"
fill="#000000" stroke="none">
<path d="M2115 4134 c-680 -53 -1280 -418 -1631 -994 -178 -294 -280 -628
-299 -990 -7 -132 5 -169 66 -202 32 -17 115 -18 2014 -18 1899 0 1982 1 2014
18 36 19 71 72 71 107 0 35 -35 88 -71 107 -32 17 -82 18 -956 18 l-923 0 0
41 c0 100 46 310 100 459 97 264 227 466 430 670 246 246 521 402 850 484 128
32 147 35 329 50 88 8 166 19 178 26 72 45 69 172 -5 212 -60 31 -354 5 -582
-52 -657 -165 -1197 -653 -1430 -1290 -57 -158 -120 -449 -120 -559 l0 -41
-855 0 -855 0 0 41 c0 100 46 310 100 459 97 264 227 466 430 670 246 246 521
402 850 484 128 32 147 35 329 50 88 8 166 19 178 26 70 44 69 166 -1 210 -22
14 -124 20 -211 14z"/>
</g>
</svg>
