<?xml version="1.0" standalone="no"?>
<!DOCTYPE svg PUBLIC "-//W3C//DTD SVG 20010904//EN"
 "http://www.w3.org/TR/2001/REC-SVG-20010904/DTD/svg10.dtd">
<svg version="1.0" xmlns="http://www.w3.org/2000/svg"
 width="746pt" height="1000pt" viewBox="0 0 746 1000"
 preserveAspectRatio="xMidYMid meet">
<metadata>
Created by potrace 1.9, written by Peter Selinger 2001-2010
</metadata>
<g transform="translate(0,1000) scale(0.100000,-0.100000)"
fill="#000000" stroke="none">
<path d="M2211 6082 c-47 -25 -74 -76 -66 -125 3 -21 431 -889 990 -2006 839
-1679 989 -1972 1017 -1993 l33 -23 999 -3 c958 -2 1004 -1 1122 18 162 26
286 67 409 135 308 170 493 448 556 833 18 108 18 123 4 221 -77 533 -420 896
-930 985 -360 63 -765 -91 -1009 -383 -152 -182 -256 -467 -256 -701 0 -291
155 -637 367 -819 l48 -40 -597 -1 -598 0 -969 1938 c-743 1487 -976 1943
-996 1956 -41 27 -85 30 -124 8z m4199 -2227 c292 -93 496 -299 584 -586 14
-47 26 -90 26 -97 0 -9 -194 -12 -840 -12 -727 0 -840 2 -840 14 0 8 12 52 26
98 89 281 290 486 565 577 106 35 147 40 274 37 97 -3 137 -9 205 -31z m610
-952 c0 -4 -12 -45 -26 -92 -87 -287 -289 -490 -584 -587 -77 -25 -98 -28
-230 -28 -132 0 -153 3 -230 28 -295 97 -497 300 -584 587 -14 47 -26 88 -26
92 0 4 378 7 840 7 462 0 840 -3 840 -7z"/>
<path d="M1232 4124 c-18 -9 -41 -29 -51 -43 -41 -57 -991 -1973 -996 -2008
-16 -104 101 -175 190 -117 20 13 134 232 467 898 l440 881 438 -874 c321
-643 445 -881 466 -898 78 -62 184 -20 201 81 4 27 -69 179 -500 1042 -384
769 -512 1015 -532 1028 -39 25 -85 29 -123 10z"/>
</g>
</svg>
