<?xml version="1.0" standalone="no"?>
<!DOCTYPE svg PUBLIC "-//W3C//DTD SVG 20010904//EN"
 "http://www.w3.org/TR/2001/REC-SVG-20010904/DTD/svg10.dtd">
<svg version="1.0" xmlns="http://www.w3.org/2000/svg"
 width="452pt" height="1000pt" viewBox="0 0 452 1000"
 preserveAspectRatio="xMidYMid meet">
<metadata>
Created by potrace 1.9, written by Peter Selinger 2001-2010
</metadata>
<g transform="translate(0,1000) scale(0.100000,-0.100000)"
fill="#000000" stroke="none">
<path d="M2212 8044 c-18 -9 -41 -29 -51 -43 -40 -56 -501 -992 -506 -1028
-11 -74 61 -150 132 -139 68 10 76 22 280 430 l195 391 193 -385 c200 -398
216 -423 282 -436 39 -7 95 18 118 53 41 62 45 53 -233 609 -194 389 -267 525
-287 538 -39 25 -85 29 -123 10z"/>
<path d="M251 6082 c-35 -19 -71 -72 -71 -105 0 -58 45 -106 965 -1027 l935
-935 -825 -825 -825 -825 0 835 c0 790 -1 837 -18 869 -19 36 -72 71 -107 71
-35 0 -88 -35 -107 -71 -17 -32 -18 -84 -18 -1034 0 -953 1 -1002 18 -1035 25
-46 81 -74 130 -65 33 6 144 113 985 953 l947 947 938 -937 c923 -923 971
-968 1029 -968 33 0 86 36 105 71 17 32 18 84 18 1034 0 950 -1 1002 -18 1034
-19 36 -72 71 -107 71 -35 0 -88 -35 -107 -71 -17 -32 -18 -79 -18 -874 l0
-840 -830 830 -830 830 949 950 c1039 1040 984 978 946 1058 -29 61 -88 87
-152 67 -31 -10 -220 -194 -981 -954 l-942 -941 -943 942 c-531 531 -954 947
-970 953 -39 14 -57 13 -96 -8z"/>
</g>
</svg>
