<?xml version="1.0" standalone="no"?>
<!DOCTYPE svg PUBLIC "-//W3C//DTD SVG 20010904//EN"
 "http://www.w3.org/TR/2001/REC-SVG-20010904/DTD/svg10.dtd">
<svg version="1.0" xmlns="http://www.w3.org/2000/svg"
 width="452pt" height="1000pt" viewBox="0 0 452 1000"
 preserveAspectRatio="xMidYMid meet">
<metadata>
Created by potrace 1.9, written by Peter Selinger 2001-2010
</metadata>
<g transform="translate(0,1000) scale(0.100000,-0.100000)"
fill="#000000" stroke="none">
<path d="M3203 8063 c-33 -6 -79 -57 -86 -92 -26 -127 122 -210 212 -120 43
42 49 93 18 156 -20 42 -87 68 -144 56z"/>
<path d="M1721 8042 c-47 -25 -74 -76 -66 -125 3 -21 118 -263 255 -537 272
-544 273 -545 355 -545 78 1 77 -2 357 559 278 556 274 547 233 609 -23 35
-79 60 -118 53 -66 -13 -82 -38 -282 -436 l-193 -385 -195 391 c-143 286 -202
395 -222 408 -41 27 -85 30 -124 8z"/>
<path d="M238 4123 c-46 -29 -53 -56 -51 -182 9 -506 237 -1027 612 -1400 387
-384 904 -595 1461 -595 204 0 323 15 520 64 592 149 1093 561 1356 1115 112
236 163 438 203 808 13 115 2 152 -54 187 -32 20 -44 20 -2026 20 -1842 -1
-1996 -2 -2021 -17z m3842 -269 c0 -143 -76 -420 -170 -622 -142 -302 -420
-607 -717 -786 -184 -110 -440 -201 -668 -237 -103 -16 -427 -16 -530 0 -228
36 -484 127 -668 237 -297 179 -575 484 -717 786 -94 202 -170 479 -170 622
l0 36 1820 0 1820 0 0 -36z"/>
</g>
</svg>
