<?xml version="1.0" standalone="no"?>
<!DOCTYPE svg PUBLIC "-//W3C//DTD SVG 20010904//EN"
 "http://www.w3.org/TR/2001/REC-SVG-20010904/DTD/svg10.dtd">
<svg version="1.0" xmlns="http://www.w3.org/2000/svg"
 width="746pt" height="1000pt" viewBox="0 0 746 1000"
 preserveAspectRatio="xMidYMid meet">
<metadata>
Created by potrace 1.9, written by Peter Selinger 2001-2010
</metadata>
<g transform="translate(0,1000) scale(0.100000,-0.100000)"
fill="#000000" stroke="none">
<path d="M1232 6090 c-39 -16 -274 -224 -368 -326 -258 -282 -467 -650 -572
-1009 -142 -486 -142 -984 0 -1470 105 -358 313 -726 572 -1009 98 -106 344
-322 385 -338 41 -15 88 0 129 41 20 20 78 72 128 114 260 220 516 573 662
915 154 358 228 787 203 1165 -48 709 -364 1345 -893 1798 -152 130 -181 144
-246 119z m-72 -2072 l-1 -1683 -90 95 c-187 197 -342 433 -448 679 -107 251
-163 484 -182 759 -43 638 175 1250 614 1725 55 59 101 107 103 107 2 0 4
-757 4 -1682z m507 1382 c165 -219 292 -472 368 -733 122 -419 122 -875 0
-1294 -101 -344 -292 -677 -539 -938 l-85 -90 0 1675 0 1675 85 -90 c47 -49
124 -142 171 -205z"/>
<path d="M3178 4123 c-46 -29 -53 -56 -51 -182 9 -506 237 -1027 612 -1400
387 -384 904 -595 1461 -595 204 0 323 15 520 64 592 149 1093 561 1356 1115
112 236 163 438 203 808 13 115 2 152 -54 187 -32 20 -44 20 -2026 20 -1842
-1 -1996 -2 -2021 -17z m3842 -269 c0 -143 -76 -420 -170 -622 -142 -302 -420
-607 -717 -786 -184 -110 -440 -201 -668 -237 -103 -16 -427 -16 -530 0 -228
36 -484 127 -668 237 -297 179 -575 484 -717 786 -94 202 -170 479 -170 622
l0 36 1820 0 1820 0 0 -36z"/>
</g>
</svg>
