<?xml version="1.0" standalone="no"?>
<!DOCTYPE svg PUBLIC "-//W3C//DTD SVG 20010904//EN"
 "http://www.w3.org/TR/2001/REC-SVG-20010904/DTD/svg10.dtd">
<svg version="1.0" xmlns="http://www.w3.org/2000/svg"
 width="1628pt" height="1000pt" viewBox="0 0 1628 1000"
 preserveAspectRatio="xMidYMid meet">
<metadata>
Created by potrace 1.9, written by Peter Selinger 2001-2010
</metadata>
<g transform="translate(0,1000) scale(0.100000,-0.100000)"
fill="#000000" stroke="none">
<path d="M2115 6094 c-172 -14 -419 -67 -575 -124 -631 -231 -1120 -769 -1286
-1415 -70 -271 -67 -205 -71 -1420 -4 -1057 -3 -1101 15 -1134 10 -19 34 -43
53 -53 32 -17 115 -18 2014 -18 1899 0 1982 1 2014 18 19 10 43 34 53 53 17
32 18 84 18 1014 0 975 -2 1051 -36 1300 -85 616 -439 1154 -974 1481 -234
142 -489 233 -776 278 -102 16 -357 27 -449 20z m418 -265 c215 -32 478 -126
660 -235 242 -146 495 -399 641 -641 77 -128 158 -324 197 -476 62 -244 69
-380 69 -1414 l0 -883 -1836 0 -1835 0 4 1028 c3 872 6 1039 20 1107 78 409
238 716 517 995 318 317 699 495 1150 534 73 6 334 -3 413 -15z"/>
<path d="M6990 6084 c-270 -49 -508 -184 -674 -383 -113 -135 -208 -344 -237
-520 l-12 -68 -68 -12 c-176 -29 -385 -124 -520 -237 -290 -242 -446 -650
-384 -1003 49 -279 185 -523 384 -685 188 -154 467 -256 701 -256 239 0 523
106 712 265 280 236 434 647 373 994 -62 352 -254 632 -543 792 -125 69 -207
99 -374 134 -35 7 -35 21 -2 127 91 288 289 486 584 584 77 25 98 28 230 28
132 0 153 -3 230 -28 183 -61 317 -152 431 -292 66 -80 115 -175 155 -294 25
-76 28 -100 28 -220 0 -110 -5 -159 -27 -265 -113 -532 -328 -1027 -628 -1446
-306 -428 -714 -805 -1150 -1063 -128 -76 -144 -93 -144 -161 0 -62 25 -97 82
-116 47 -15 72 -7 198 68 656 392 1159 928 1515 1616 198 382 327 779 399
1232 20 125 19 131 -5 283 -57 358 -262 649 -572 810 -218 113 -466 155 -682
116z m-580 -1249 c176 -56 318 -152 431 -291 68 -83 117 -178 155 -299 26 -80
29 -104 29 -225 0 -121 -3 -145 -29 -225 -93 -295 -290 -493 -586 -591 -77
-25 -98 -28 -230 -28 -132 0 -153 3 -230 28 -179 59 -319 154 -431 292 -68 82
-117 177 -155 299 -26 82 -29 103 -28 230 0 126 3 149 28 225 95 288 291 488
567 579 106 35 147 40 274 37 97 -3 137 -9 205 -31z"/>
<path d="M9071 6082 c-36 -19 -71 -72 -71 -107 0 -35 35 -88 71 -107 32 -17
79 -18 869 -18 l835 0 -387 -387 c-402 -404 -420 -426 -403 -490 16 -67 79
-110 143 -98 32 5 92 61 435 403 l397 397 0 -658 c0 -361 -2 -657 -5 -657 -2
0 -35 20 -72 44 -254 163 -603 247 -906 218 -290 -28 -493 -100 -732 -258
-121 -80 -274 -227 -284 -274 -21 -96 61 -174 154 -149 22 6 66 39 118 87 150
142 262 212 438 276 158 57 233 69 424 69 191 0 266 -12 424 -69 157 -57 286
-133 399 -237 l42 -40 0 -923 0 -924 -928 0 c-879 0 -929 -1 -961 -18 -36 -19
-71 -72 -71 -107 0 -35 35 -88 71 -107 32 -17 115 -18 2014 -18 1899 0 1982 1
2014 18 19 10 43 34 53 53 17 32 18 115 18 2014 0 1899 -1 1982 -18 2014 -10
19 -34 43 -53 53 -32 17 -115 18 -2014 18 -1899 0 -1982 -1 -2014 -18z m3849
-1106 l0 -874 -55 -50 c-138 -126 -352 -232 -560 -278 -98 -21 -377 -24 -475
-5 -173 34 -372 120 -505 218 -124 92 -115 19 -115 919 l0 759 388 -387 c403
-402 425 -420 489 -403 67 16 110 79 98 143 -5 32 -61 92 -403 435 l-397 397
768 0 767 0 0 -874z m0 -2001 l0 -795 -855 0 -855 0 0 790 0 790 76 -47 c227
-137 481 -206 764 -207 284 -1 536 66 766 204 54 32 100 59 102 60 1 0 2 -358
2 -795z"/>
<path d="M15925 4121 c-57 -27 -1988 -1962 -2010 -2013 -8 -21 -15 -45 -15
-55 0 -33 36 -86 71 -105 32 -17 84 -18 1034 -18 950 0 1002 1 1034 18 19 10
43 34 53 53 17 32 18 84 18 1034 0 950 -1 1002 -18 1034 -19 36 -73 71 -107
71 -11 0 -38 -9 -60 -19z m-65 -1176 l0 -765 -767 0 -768 0 765 765 c421 421
766 765 767 765 2 0 3 -344 3 -765z"/>
</g>
</svg>
