<?xml version="1.0" standalone="no"?>
<!DOCTYPE svg PUBLIC "-//W3C//DTD SVG 20010904//EN"
 "http://www.w3.org/TR/2001/REC-SVG-20010904/DTD/svg10.dtd">
<svg version="1.0" xmlns="http://www.w3.org/2000/svg"
 width="452pt" height="1000pt" viewBox="0 0 452 1000"
 preserveAspectRatio="xMidYMid meet">
<metadata>
Created by potrace 1.9, written by Peter Selinger 2001-2010
</metadata>
<g transform="translate(0,1000) scale(0.100000,-0.100000)"
fill="#000000" stroke="none">
<path d="M2221 6112 c-84 -13 -128 -114 -82 -187 10 -16 46 -61 81 -100 409
-461 412 -1171 5 -1635 -32 -36 -68 -81 -81 -100 -13 -19 -49 -64 -79 -100
-150 -180 -263 -431 -311 -693 -24 -126 -24 -380 -1 -504 43 -227 99 -370 229
-580 l20 -33 -786 0 -786 0 0 1908 c0 1828 -1 1909 -18 1941 -19 36 -72 71
-107 71 -35 0 -88 -35 -107 -71 -17 -32 -18 -115 -18 -2014 0 -1899 1 -1982
18 -2014 10 -19 34 -43 53 -53 32 -17 115 -18 2014 -18 1899 0 1982 1 2014 18
19 10 43 34 53 53 17 32 18 115 18 2014 0 1899 -1 1982 -18 2014 -19 36 -72
71 -107 71 -35 0 -88 -35 -107 -71 -17 -32 -18 -113 -18 -1941 l0 -1908 -884
0 -884 0 -50 55 c-131 143 -233 351 -279 567 -24 115 -24 370 1 488 44 210
150 425 279 566 28 31 67 77 86 104 20 27 63 84 96 127 441 575 412 1377 -69
1922 -36 41 -73 79 -81 84 -27 15 -68 23 -94 19z"/>
</g>
</svg>
