<?xml version="1.0" standalone="no"?>
<!DOCTYPE svg PUBLIC "-//W3C//DTD SVG 20010904//EN"
 "http://www.w3.org/TR/2001/REC-SVG-20010904/DTD/svg10.dtd">
<svg version="1.0" xmlns="http://www.w3.org/2000/svg"
 width="1138pt" height="1000pt" viewBox="0 0 1138 1000"
 preserveAspectRatio="xMidYMid meet">
<metadata>
Created by potrace 1.9, written by Peter Selinger 2001-2010
</metadata>
<g transform="translate(0,1000) scale(0.100000,-0.100000)"
fill="#000000" stroke="none">
<path d="M9015 6075 c-30 -31 -35 -42 -35 -83 0 -41 6 -54 43 -99 144 -176
180 -225 220 -302 103 -196 142 -358 141 -586 0 -184 -15 -276 -71 -425 -63
-170 -126 -275 -238 -400 -36 -40 -65 -77 -65 -83 0 -7 -438 -450 -974 -987
-1022 -1023 -1009 -1009 -991 -1077 16 -67 79 -110 143 -98 32 5 126 95 736
703 447 446 696 688 692 672 -3 -14 -11 -80 -18 -148 -25 -257 38 -576 158
-802 100 -188 242 -369 317 -403 71 -33 146 -1 168 72 17 56 0 95 -82 186
-152 171 -247 360 -296 587 -24 115 -24 370 1 488 19 90 72 241 113 325 73
146 95 169 1169 1245 924 926 1053 1059 1059 1092 12 64 -31 127 -98 143 -67
17 -69 16 -803 -717 l-702 -700 15 78 c22 115 22 384 0 501 -57 304 -175 544
-376 768 -63 70 -88 85 -143 85 -41 0 -52 -5 -83 -35z"/>
<path d="M251 6082 c-19 -10 -43 -34 -53 -53 -17 -32 -18 -84 -18 -1034 0
-950 1 -1002 18 -1034 33 -61 67 -71 235 -71 l149 0 -39 -32 c-108 -91 -230
-271 -289 -428 -59 -155 -86 -376 -64 -522 77 -505 427 -865 925 -952 290 -51
619 41 870 242 84 68 187 191 238 283 18 32 34 59 37 59 3 0 20 -28 39 -63
145 -263 443 -463 776 -521 290 -51 619 41 870 242 84 68 187 191 238 283 18
32 34 59 37 59 3 0 20 -28 39 -63 145 -263 443 -463 776 -521 291 -51 619 41
870 243 191 154 332 405 380 682 50 281 -41 608 -237 855 -38 48 -88 102 -111
119 l-42 30 165 5 c185 6 204 12 235 77 37 77 47 64 -456 568 l-459 460 210
210 c217 217 238 245 225 305 -9 40 -58 88 -99 96 -71 13 -94 -7 -612 -527
-513 -516 -526 -530 -509 -596 16 -67 79 -110 143 -98 31 5 71 41 250 218
l212 212 338 -338 337 -337 -1743 0 -1742 0 0 928 c0 879 -1 929 -18 961 -10
19 -34 43 -53 53 -32 17 -84 18 -1034 18 -950 0 -1002 -1 -1034 -18z m1889
-1087 l0 -855 -855 0 -855 0 0 855 0 855 855 0 855 0 0 -855z m-630 -1140 c83
-27 188 -75 242 -112 l27 -19 -252 -252 -252 -252 -250 250 -250 251 25 19
c39 31 179 96 245 115 149 44 329 43 465 0z m993 3 c-21 -18 -55 -51 -75 -73
-44 -49 -144 -195 -153 -224 -3 -11 -9 -21 -13 -21 -4 0 -21 27 -39 59 -43 78
-156 219 -204 254 -21 16 -39 31 -39 33 0 2 126 4 281 4 l281 0 -39 -32z m967
-3 c83 -27 188 -75 242 -112 l27 -19 -252 -252 -252 -252 -250 250 -250 251
25 19 c39 31 179 96 245 115 149 44 329 43 465 0z m993 3 c-21 -18 -55 -51
-75 -73 -44 -49 -144 -195 -153 -224 -3 -11 -9 -21 -13 -21 -4 0 -21 27 -39
59 -43 78 -156 219 -204 254 -21 16 -39 31 -39 33 0 2 126 4 281 4 l281 0 -39
-32z m967 -3 c83 -27 188 -75 242 -112 l27 -19 -252 -252 -252 -252 -250 250
-250 251 25 19 c39 31 179 96 245 115 149 44 329 43 465 0z m-4584 -1064
c-285 -285 -251 -271 -319 -136 -142 283 -125 588 47 852 l21 33 250 -250 250
-250 -249 -249z m1131 732 c30 -39 93 -173 119 -258 26 -80 29 -104 29 -225 0
-121 -3 -145 -29 -225 -27 -86 -89 -219 -121 -260 -15 -19 -26 -9 -268 233
l-252 252 250 250 c137 137 252 250 254 250 2 0 10 -8 18 -17z m829 -732
c-285 -285 -251 -271 -319 -136 -142 283 -125 588 47 852 l21 33 250 -250 250
-250 -249 -249z m1131 732 c30 -39 93 -173 119 -258 26 -80 29 -104 29 -225 0
-121 -3 -145 -29 -225 -27 -86 -89 -219 -121 -260 -15 -19 -26 -9 -268 233
l-252 252 250 250 c137 137 252 250 254 250 2 0 10 -8 18 -17z m829 -732
c-285 -285 -251 -271 -319 -136 -142 283 -125 588 47 852 l21 33 250 -250 250
-250 -249 -249z m1131 732 c30 -39 93 -173 119 -258 26 -80 29 -104 29 -225 0
-121 -3 -145 -29 -225 -27 -86 -89 -219 -121 -260 -15 -19 -26 -9 -268 233
l-252 252 250 250 c137 137 252 250 254 250 2 0 10 -8 18 -17z m-4145 -1186
c-53 -36 -158 -85 -242 -113 -77 -25 -98 -28 -230 -28 -132 0 -153 3 -230 28
-47 15 -119 46 -160 67 -134 70 -149 34 135 319 l250 250 252 -252 252 -252
-27 -19z m1960 0 c-53 -36 -158 -85 -242 -113 -77 -25 -98 -28 -230 -28 -132
0 -153 3 -230 28 -47 15 -119 46 -160 67 -134 70 -149 34 135 319 l250 250
252 -252 252 -252 -27 -19z m1960 0 c-53 -36 -158 -85 -242 -113 -77 -25 -98
-28 -230 -28 -132 0 -153 3 -230 28 -47 15 -119 46 -160 67 -134 70 -149 34
135 319 l250 250 252 -252 252 -252 -27 -19z"/>
</g>
</svg>
