<?xml version="1.0" standalone="no"?>
<!DOCTYPE svg PUBLIC "-//W3C//DTD SVG 20010904//EN"
 "http://www.w3.org/TR/2001/REC-SVG-20010904/DTD/svg10.dtd">
<svg version="1.0" xmlns="http://www.w3.org/2000/svg"
 width="942pt" height="1000pt" viewBox="0 0 942 1000"
 preserveAspectRatio="xMidYMid meet">
<metadata>
Created by potrace 1.9, written by Peter Selinger 2001-2010
</metadata>
<g transform="translate(0,1000) scale(0.100000,-0.100000)"
fill="#000000" stroke="none">
<path d="M7055 6075 c-30 -31 -35 -42 -35 -83 0 -41 6 -54 43 -99 144 -176
180 -225 220 -302 54 -102 100 -230 124 -343 24 -115 24 -370 -1 -488 -44
-210 -150 -425 -279 -566 -28 -31 -67 -78 -86 -104 -20 -27 -58 -77 -86 -112
-154 -193 -259 -436 -306 -708 -19 -108 -17 -364 4 -477 42 -227 99 -370 229
-580 l20 -33 -786 0 -786 0 0 1908 c0 1828 -1 1909 -18 1941 -19 36 -72 71
-107 71 -35 0 -88 -35 -107 -71 -17 -32 -18 -115 -18 -2014 0 -1899 1 -1982
18 -2014 10 -19 34 -43 53 -53 32 -17 115 -18 2014 -18 1899 0 1982 1 2014 18
19 10 43 34 53 53 17 32 18 115 18 2014 0 1899 -1 1982 -18 2014 -19 36 -72
71 -107 71 -35 0 -88 -35 -107 -71 -17 -32 -18 -113 -18 -1941 l0 -1908 -884
0 -884 0 -50 55 c-131 143 -233 351 -279 567 -24 115 -24 370 1 488 44 210
150 425 279 566 28 31 67 78 86 104 20 27 59 77 86 112 76 96 169 258 214 371
76 196 105 354 105 567 -1 387 -131 723 -393 1015 -63 70 -88 85 -143 85 -41
0 -52 -5 -83 -35z"/>
<path d="M1231 3142 c-35 -19 -71 -72 -71 -105 0 -55 41 -103 413 -474 l382
-383 -835 0 c-790 0 -837 -1 -869 -18 -36 -19 -71 -72 -71 -107 0 -35 35 -88
71 -107 32 -17 115 -18 2014 -18 1899 0 1982 1 2014 18 36 19 71 72 71 107 0
35 -35 88 -71 107 -32 17 -79 18 -874 18 l-840 0 397 398 c342 342 398 402
403 434 12 64 -31 127 -98 143 -65 17 -82 2 -555 -469 l-452 -451 -453 452
c-248 249 -465 457 -480 463 -39 14 -57 13 -96 -8z"/>
</g>
</svg>
