<?xml version="1.0" standalone="no"?>
<!DOCTYPE svg PUBLIC "-//W3C//DTD SVG 20010904//EN"
 "http://www.w3.org/TR/2001/REC-SVG-20010904/DTD/svg10.dtd">
<svg version="1.0" xmlns="http://www.w3.org/2000/svg"
 width="746pt" height="1000pt" viewBox="0 0 746 1000"
 preserveAspectRatio="xMidYMid meet">
<metadata>
Created by potrace 1.9, written by Peter Selinger 2001-2010
</metadata>
<g transform="translate(0,1000) scale(0.100000,-0.100000)"
fill="#000000" stroke="none">
<path d="M5095 6075 c-30 -31 -35 -42 -35 -83 0 -41 6 -54 43 -99 144 -176
180 -225 220 -302 103 -196 142 -358 141 -586 0 -184 -15 -276 -71 -425 -63
-170 -126 -275 -238 -400 -36 -40 -65 -77 -65 -83 0 -7 -438 -450 -974 -987
-1022 -1023 -1009 -1009 -991 -1077 16 -67 79 -110 143 -98 32 5 126 95 736
703 447 446 696 688 692 672 -3 -14 -11 -80 -18 -148 -25 -257 38 -576 158
-802 100 -188 242 -369 317 -403 71 -33 146 -1 168 72 17 56 0 95 -82 186
-152 171 -247 360 -296 587 -24 115 -24 370 1 488 19 90 72 241 113 325 73
146 95 169 1169 1245 924 926 1053 1059 1059 1092 12 64 -31 127 -98 143 -67
17 -69 16 -803 -717 l-702 -700 15 78 c22 115 22 384 0 501 -57 304 -175 544
-376 768 -63 70 -88 85 -143 85 -41 0 -52 -5 -83 -35z"/>
<path d="M1110 6084 c-194 -35 -394 -125 -531 -240 -202 -168 -335 -405 -383
-680 -23 -130 -24 -2155 -1 -2283 49 -279 185 -523 384 -685 145 -119 339
-206 536 -240 364 -64 780 97 1017 394 125 155 201 338 239 569 18 108 19 182
19 1095 0 825 -2 995 -15 1085 -57 391 -247 683 -560 856 -221 122 -481 170
-705 129z m400 -269 c176 -56 318 -152 431 -291 68 -83 117 -178 155 -299 26
-80 29 -104 29 -225 0 -121 -3 -145 -29 -225 -93 -295 -290 -493 -586 -591
-77 -25 -98 -28 -230 -28 -132 0 -153 3 -230 28 -179 59 -319 154 -431 292
-68 82 -117 177 -155 299 -26 82 -29 103 -28 230 0 126 3 149 28 225 95 288
291 488 567 579 106 35 147 40 274 37 97 -3 137 -9 205 -31z m620 -2805 c-34
-384 -257 -666 -620 -786 -77 -25 -98 -28 -230 -28 -132 0 -153 3 -230 28
-293 97 -488 291 -586 586 l-28 85 -3 705 -3 705 39 -46 c177 -205 525 -359
811 -359 289 0 639 156 814 363 l41 49 3 -593 c2 -352 -1 -641 -8 -709z"/>
</g>
</svg>
