<?xml version="1.0" standalone="no"?>
<!DOCTYPE svg PUBLIC "-//W3C//DTD SVG 20010904//EN"
 "http://www.w3.org/TR/2001/REC-SVG-20010904/DTD/svg10.dtd">
<svg version="1.0" xmlns="http://www.w3.org/2000/svg"
 width="746pt" height="1000pt" viewBox="0 0 746 1000"
 preserveAspectRatio="xMidYMid meet">
<metadata>
Created by potrace 1.9, written by Peter Selinger 2001-2010
</metadata>
<g transform="translate(0,1000) scale(0.100000,-0.100000)"
fill="#000000" stroke="none">
<path d="M5095 6075 c-30 -31 -35 -42 -35 -83 0 -41 6 -54 43 -99 144 -176
180 -225 220 -302 103 -196 142 -358 141 -586 0 -184 -15 -276 -71 -425 -63
-170 -126 -275 -238 -400 -36 -40 -65 -77 -65 -83 0 -7 -438 -450 -974 -987
-1022 -1023 -1009 -1009 -991 -1077 16 -67 79 -110 143 -98 32 5 126 95 736
703 447 446 696 688 692 672 -3 -14 -11 -80 -18 -148 -25 -257 38 -576 158
-802 100 -188 242 -369 317 -403 71 -33 146 -1 168 72 17 56 0 95 -82 186
-152 171 -247 360 -296 587 -24 115 -24 370 1 488 19 90 72 241 113 325 73
146 95 169 1169 1245 924 926 1053 1059 1059 1092 12 64 -31 127 -98 143 -67
17 -69 16 -803 -717 l-702 -700 15 78 c22 115 22 384 0 501 -57 304 -175 544
-376 768 -63 70 -88 85 -143 85 -41 0 -52 -5 -83 -35z"/>
<path d="M1231 6082 c-19 -10 -43 -34 -53 -53 -17 -32 -18 -113 -18 -1941 l0
-1908 -438 0 c-404 0 -440 -1 -471 -18 -36 -19 -71 -72 -71 -107 0 -35 35 -88
71 -107 32 -17 84 -18 1034 -18 950 0 1002 1 1034 18 36 19 71 72 71 107 0 35
-35 88 -71 107 -31 17 -67 18 -471 18 l-438 0 0 1908 c0 1828 -1 1909 -18
1941 -19 36 -72 71 -107 71 -11 0 -36 -8 -54 -18z"/>
</g>
</svg>
