<?xml version="1.0" standalone="no"?>
<!DOCTYPE svg PUBLIC "-//W3C//DTD SVG 20010904//EN"
 "http://www.w3.org/TR/2001/REC-SVG-20010904/DTD/svg10.dtd">
<svg version="1.0" xmlns="http://www.w3.org/2000/svg"
 width="844pt" height="1000pt" viewBox="0 0 844 1000"
 preserveAspectRatio="xMidYMid meet">
<metadata>
Created by potrace 1.9, written by Peter Selinger 2001-2010
</metadata>
<g transform="translate(0,1000) scale(0.100000,-0.100000)"
fill="#000000" stroke="none">
<path d="M1721 8042 c-19 -10 -43 -34 -53 -53 -17 -31 -18 -69 -18 -544 0
-475 1 -513 18 -544 10 -19 34 -43 53 -53 31 -17 69 -18 544 -18 475 0 513 1
544 18 19 10 43 34 53 53 17 31 18 69 18 544 0 475 -1 513 -18 544 -10 19 -34
43 -53 53 -31 17 -69 18 -544 18 -475 0 -513 -1 -544 -18z m909 -597 l0 -365
-365 0 -365 0 0 365 0 365 365 0 365 0 0 -365z"/>
<path d="M2212 6083 c-18 -9 -41 -28 -51 -42 -41 -58 -1971 -3933 -1976 -3968
-16 -104 101 -175 190 -117 20 13 230 424 895 1753 l869 1736 0 -1632 1 -1633
-438 0 c-404 0 -440 -1 -471 -18 -36 -19 -71 -72 -71 -107 0 -35 35 -88 71
-107 32 -17 84 -18 1034 -18 950 0 1002 1 1034 18 36 19 71 72 71 107 0 35
-35 88 -71 107 -31 17 -67 18 -471 18 l-438 0 0 1908 c0 1828 -1 1909 -18
1941 -19 36 -73 71 -107 71 -11 0 -35 -8 -53 -17z"/>
<path d="M4640 6083 c-39 -25 -138 -142 -203 -239 -250 -378 -318 -830 -191
-1272 51 -178 153 -371 280 -527 l64 -80 -1 -975 -2 -975 36 -37 c65 -67 153
-57 201 23 11 20 44 64 71 98 72 89 168 250 210 350 84 200 118 372 119 596 0
217 -36 400 -116 593 -39 93 -139 260 -212 351 l-56 70 0 966 c0 1064 3 1010
-60 1055 -34 24 -105 26 -140 3z m-50 -1080 l-1 -608 -28 55 c-39 76 -87 213
-108 312 -13 60 -18 127 -17 243 0 177 15 272 63 405 31 83 82 200 87 200 2 0
4 -273 4 -607z m319 -1545 c52 -149 66 -235 65 -413 0 -184 -15 -276 -71 -425
-66 -178 -62 -206 -62 425 0 560 0 569 18 535 10 -19 33 -74 50 -122z"/>
<path d="M6615 4121 c-61 -29 -529 -504 -545 -554 -20 -64 6 -123 67 -152 68
-33 91 -20 261 148 l152 151 0 -767 0 -767 -193 0 c-167 0 -197 -2 -226 -18
-36 -19 -71 -72 -71 -107 0 -35 35 -88 71 -107 31 -17 69 -18 544 -18 475 0
513 1 544 18 36 19 71 72 71 107 0 35 -35 88 -71 107 -29 16 -59 18 -226 18
l-193 0 0 928 c0 879 -1 929 -18 961 -19 36 -73 71 -107 71 -11 0 -38 -9 -60
-19z"/>
<path d="M8103 2183 c-33 -6 -79 -57 -86 -92 -26 -127 122 -210 212 -120 43
42 49 93 18 156 -20 42 -87 68 -144 56z"/>
</g>
</svg>
