<?xml version="1.0" standalone="no"?>
<!DOCTYPE svg PUBLIC "-//W3C//DTD SVG 20010904//EN"
 "http://www.w3.org/TR/2001/REC-SVG-20010904/DTD/svg10.dtd">
<svg version="1.0" xmlns="http://www.w3.org/2000/svg"
 width="110pt" height="1000pt" viewBox="0 0 110 1000"
 preserveAspectRatio="xMidYMid meet">
<g transform="translate(0,1000) scale(0.100000,-0.100000)"
fill="#000000" stroke="none">
<path d="M251 3142 c-67 -36 -71 -55 -71 -352 0 -238 2 -269 18 -299 33 -61 67 -71 234 -71 l148 0 40 -40 c52 -52 54 -91 8 -144 -40 -46 -78 -55 -233 -56 -87 0 -117 -4 -144 -18 -36 -19 -71 -72 -71 -107 0 -35 35 -88 71 -107 28 -15 57 -18 166 -18 226 0 342 48 427 177 85 129 86 266 1 394 -75 115 -184 169 -342 169 l-73 0 0 120 0 120 193 0 c167 0 197 2 226 18 36 19 71 72 71 107 0 35 -35 88 -71 107 -30 16 -61 18 -299 18 -238 0 -269 -2 -299 -18z"/>
</g>
</svg>

