<?xml version="1.0" standalone="no"?>
<!DOCTYPE svg PUBLIC "-//W3C//DTD SVG 20010904//EN"
 "http://www.w3.org/TR/2001/REC-SVG-20010904/DTD/svg10.dtd">
<svg version="1.0" xmlns="http://www.w3.org/2000/svg"
 width="844pt" height="1000pt" viewBox="0 0 844 1000"
 preserveAspectRatio="xMidYMid meet">
<metadata>
Created by potrace 1.9, written by Peter Selinger 2001-2010
</metadata>
<g transform="translate(0,1000) scale(0.100000,-0.100000)"
fill="#000000" stroke="none">
<path d="M8090 6084 c-23 -10 -701 -681 -1985 -1964 -1073 -1073 -1955 -1950
-1961 -1950 -6 0 -44 -29 -84 -65 -125 -112 -230 -175 -400 -238 -152 -57
-233 -70 -420 -70 -229 -1 -357 27 -555 123 -111 54 -265 161 -265 185 0 108
-339 365 -615 468 -165 62 -338 92 -525 92 -239 0 -460 -51 -662 -151 -190
-95 -414 -269 -460 -358 -49 -95 25 -201 128 -182 26 5 58 28 113 79 118 111
206 173 326 232 208 101 330 129 555 129 217 0 340 -27 537 -119 100 -47 153
-81 253 -161 55 -44 67 -60 78 -99 14 -53 63 -104 187 -194 233 -169 474 -262
759 -291 378 -39 790 84 1089 325 l67 55 1958 0 c1877 0 1959 1 1991 18 19 10
43 34 53 53 17 32 18 115 18 2014 0 1899 -1 1982 -18 2014 -19 36 -73 71 -107
71 -11 -1 -36 -8 -55 -16z m-70 -2159 l0 -1745 -1747 0 -1748 0 1745 1745
c960 960 1746 1745 1747 1745 2 0 3 -785 3 -1745z"/>
</g>
</svg>
