<?xml version="1.0" standalone="no"?>
<!DOCTYPE svg PUBLIC "-//W3C//DTD SVG 20010904//EN"
 "http://www.w3.org/TR/2001/REC-SVG-20010904/DTD/svg10.dtd">
<svg version="1.0" xmlns="http://www.w3.org/2000/svg"
 width="452pt" height="1000pt" viewBox="0 0 452 1000"
 preserveAspectRatio="xMidYMid meet">
<metadata>
Created by potrace 1.9, written by Peter Selinger 2001-2010
</metadata>
<g transform="translate(0,1000) scale(0.100000,-0.100000)"
fill="#000000" stroke="none">
<path d="M2212 8044 c-18 -9 -41 -29 -51 -43 -40 -56 -501 -992 -506 -1028
-11 -74 61 -150 132 -139 68 10 76 22 280 430 l195 391 193 -385 c200 -398
216 -423 282 -436 39 -7 95 18 118 53 41 62 45 53 -233 609 -194 389 -267 525
-287 538 -39 25 -85 29 -123 10z"/>
<path d="M238 4123 c-46 -29 -53 -56 -51 -182 5 -261 79 -566 197 -816 79
-167 209 -361 329 -494 l49 -54 -54 -22 c-214 -88 -494 -291 -550 -399 -49
-95 25 -201 128 -182 26 5 58 28 113 79 149 140 274 220 445 286 127 49 125
49 203 -7 308 -221 655 -347 1053 -382 105 -10 117 -13 145 -39 86 -81 281
-201 419 -257 461 -188 991 -134 1410 143 100 67 215 165 240 205 9 14 16 47
16 72 0 39 -5 51 -35 81 -30 30 -42 35 -81 35 -48 0 -104 -30 -154 -85 -106
-114 -365 -245 -575 -291 -98 -21 -377 -24 -475 -5 -99 20 -216 59 -320 108
-110 52 -113 47 65 88 528 122 991 460 1281 936 143 234 234 490 279 779 21
137 25 328 7 362 -40 74 -167 77 -212 5 -7 -12 -18 -90 -26 -178 -15 -182 -18
-201 -50 -329 -41 -166 -119 -358 -201 -493 -145 -241 -400 -496 -640 -641
-182 -109 -445 -203 -660 -235 -119 -18 -156 -15 -184 15 -42 46 -161 139
-252 198 -192 123 -357 186 -597 227 -84 14 -305 18 -393 6 l-59 -7 -89 91
c-237 241 -394 519 -473 839 -32 128 -35 147 -50 329 -8 88 -19 166 -26 178
-32 51 -119 69 -172 36z m1290 -1729 c42 -9 104 -25 137 -36 86 -28 293 -131
274 -135 -43 -10 -324 79 -464 147 -92 44 -77 51 53 24z"/>
</g>
</svg>
