<?xml version="1.0" standalone="no"?>
<!DOCTYPE svg PUBLIC "-//W3C//DTD SVG 20010904//EN"
 "http://www.w3.org/TR/2001/REC-SVG-20010904/DTD/svg10.dtd">
<svg version="1.0" xmlns="http://www.w3.org/2000/svg"
 width="746pt" height="1000pt" viewBox="0 0 746 1000"
 preserveAspectRatio="xMidYMid meet">
<metadata>
Created by potrace 1.9, written by Peter Selinger 2001-2010
</metadata>
<g transform="translate(0,1000) scale(0.100000,-0.100000)"
fill="#000000" stroke="none">
<path d="M1110 6084 c-194 -35 -394 -125 -531 -240 -290 -242 -446 -650 -384
-1003 49 -279 185 -523 384 -685 138 -113 340 -206 514 -236 l67 -12 0 -937
c0 -888 1 -938 18 -970 19 -36 72 -71 107 -71 35 0 88 35 107 71 17 32 18 82
18 971 l0 937 38 6 c20 4 78 18 127 31 417 115 712 448 790 895 61 347 -93
758 -373 994 -241 203 -592 302 -882 249z m400 -269 c176 -56 318 -152 431
-291 68 -83 117 -178 155 -299 26 -80 29 -104 29 -225 0 -121 -3 -145 -29
-225 -93 -295 -290 -493 -586 -591 -77 -25 -98 -28 -230 -28 -132 0 -153 3
-230 28 -179 59 -319 154 -431 292 -68 82 -117 177 -155 299 -26 82 -29 103
-28 230 0 126 3 149 28 225 95 288 291 488 567 579 106 35 147 40 274 37 97
-3 137 -9 205 -31z"/>
<path d="M7105 6081 c-27 -13 -341 -320 -954 -934 l-914 -915 -71 57 c-144
116 -292 199 -456 254 -331 112 -656 112 -990 1 -192 -65 -389 -185 -538 -329
-70 -67 -95 -99 -101 -125 -21 -96 61 -174 154 -149 22 6 66 39 118 87 45 43
107 96 137 119 117 88 309 172 476 209 110 24 388 24 498 0 105 -23 254 -78
346 -127 72 -39 205 -134 231 -165 11 -13 -124 -152 -943 -972 -1009 -1010
-989 -989 -973 -1062 8 -39 56 -87 95 -95 16 -4 45 -2 62 4 23 8 310 287 978
956 520 520 948 945 953 945 4 0 38 -22 75 -49 161 -116 326 -193 518 -242
414 -104 849 -30 1208 208 100 67 215 165 240 205 9 14 16 47 16 72 0 39 -5
51 -35 81 -30 30 -42 35 -81 35 -48 0 -104 -30 -154 -85 -106 -114 -365 -245
-575 -291 -99 -21 -377 -24 -475 -5 -165 32 -370 119 -497 211 l-62 45 944
945 c1033 1034 978 973 940 1053 -32 67 -102 91 -170 58z"/>
</g>
</svg>
