<?xml version="1.0" standalone="no"?>
<!DOCTYPE svg PUBLIC "-//W3C//DTD SVG 20010904//EN"
 "http://www.w3.org/TR/2001/REC-SVG-20010904/DTD/svg10.dtd">
<svg version="1.0" xmlns="http://www.w3.org/2000/svg"
 width="452pt" height="1000pt" viewBox="0 0 452 1000"
 preserveAspectRatio="xMidYMid meet">
<metadata>
Created by potrace 1.9, written by Peter Selinger 2001-2010
</metadata>
<g transform="translate(0,1000) scale(0.100000,-0.100000)"
fill="#000000" stroke="none">
<path d="M2212 8044 c-18 -9 -41 -29 -51 -43 -40 -56 -501 -992 -506 -1028
-11 -74 61 -150 132 -139 68 10 76 22 280 430 l195 391 193 -385 c200 -398
216 -423 282 -436 39 -7 95 18 118 53 41 62 45 53 -233 609 -194 389 -267 525
-287 538 -39 25 -85 29 -123 10z"/>
<path d="M265 6092 c-99 -35 -118 -168 -32 -222 12 -7 90 -18 178 -26 182 -15
201 -18 329 -50 329 -82 604 -238 850 -484 246 -246 402 -521 484 -850 32
-128 35 -147 50 -329 8 -88 19 -166 26 -178 44 -70 176 -70 220 0 7 12 18 90
26 178 15 182 18 201 50 329 82 329 238 604 484 850 246 246 521 402 850 484
128 32 147 35 329 50 88 8 166 19 178 26 72 45 69 172 -5 212 -34 18 -225 14
-362 -7 -629 -97 -1150 -442 -1476 -975 -63 -105 -145 -272 -165 -337 -6 -24
-15 -43 -19 -43 -4 0 -13 19 -19 43 -7 23 -34 87 -60 142 -207 436 -555 786
-986 991 -242 115 -526 185 -800 198 -60 3 -119 2 -130 -2z"/>
</g>
</svg>
