<?xml version="1.0" standalone="no"?>
<!DOCTYPE svg PUBLIC "-//W3C//DTD SVG 20010904//EN"
 "http://www.w3.org/TR/2001/REC-SVG-20010904/DTD/svg10.dtd">
<svg version="1.0" xmlns="http://www.w3.org/2000/svg"
 width="648pt" height="1000pt" viewBox="0 0 648 1000"
 preserveAspectRatio="xMidYMid meet">
<metadata>
Created by potrace 1.9, written by Peter Selinger 2001-2010
</metadata>
<g transform="translate(0,1000) scale(0.100000,-0.100000)"
fill="#000000" stroke="none">
<path d="M1245 6092 c-99 -35 -118 -168 -32 -222 12 -7 90 -18 178 -26 182
-15 201 -18 329 -50 329 -82 604 -238 850 -484 328 -328 502 -714 535 -1186
l7 -90 -425 -850 -425 -849 -440 881 c-345 691 -446 885 -469 900 -15 10 -46
19 -68 19 -85 0 -62 41 -600 -1035 -276 -553 -497 -1006 -500 -1027 -16 -104
101 -175 190 -117 20 13 134 232 467 898 l440 881 439 -877 c478 -955 459
-923 544 -923 22 0 53 9 68 19 23 15 124 209 469 900 l440 881 439 -877 c478
-955 459 -923 544 -923 22 0 53 9 68 19 23 15 124 209 469 900 l440 881 438
-874 c321 -643 445 -881 466 -898 78 -62 184 -20 201 81 4 27 -69 179 -500
1042 -398 797 -511 1015 -534 1029 -15 11 -46 20 -68 20 -85 0 -66 32 -544
-923 l-439 -877 -427 854 -427 854 7 86 c18 252 71 456 175 679 85 181 200
342 360 502 246 246 521 402 850 484 128 32 147 35 329 50 88 8 166 19 178 26
72 45 69 172 -5 212 -34 18 -225 14 -362 -7 -629 -97 -1150 -442 -1476 -975
-63 -105 -145 -272 -165 -337 -6 -24 -15 -43 -19 -43 -4 0 -13 19 -19 43 -7
23 -34 87 -60 142 -207 436 -555 786 -986 991 -242 115 -526 185 -800 198 -60
3 -119 2 -130 -2z"/>
</g>
</svg>
