<?xml version="1.0" standalone="no"?>
<!DOCTYPE svg PUBLIC "-//W3C//DTD SVG 20010904//EN"
 "http://www.w3.org/TR/2001/REC-SVG-20010904/DTD/svg10.dtd">
<svg version="1.0" xmlns="http://www.w3.org/2000/svg"
 width="452pt" height="1000pt" viewBox="0 0 452 1000"
 preserveAspectRatio="xMidYMid meet">
<metadata>
Created by potrace 1.9, written by Peter Selinger 2001-2010
</metadata>
<g transform="translate(0,1000) scale(0.100000,-0.100000)"
fill="#000000" stroke="none">
<path d="M1110 5104 c-270 -49 -508 -184 -674 -383 -76 -91 -164 -253 -200
-367 -56 -183 -56 -170 -56 -1289 0 -979 1 -1032 18 -1064 10 -19 34 -43 53
-53 32 -17 115 -18 2014 -18 1899 0 1982 1 2014 18 19 10 43 34 53 53 17 32
18 84 18 1034 0 950 -1 1002 -18 1034 -10 19 -34 43 -53 53 -32 17 -82 18
-970 18 l-937 0 -11 66 c-25 139 -86 294 -166 419 -222 347 -685 552 -1085
479z m400 -269 c292 -94 493 -294 584 -583 14 -46 26 -90 26 -98 0 -12 -113
-14 -840 -14 -727 0 -840 2 -840 14 0 8 12 52 26 98 89 281 290 486 565 577
106 35 147 40 274 37 97 -3 136 -9 205 -31z m2590 -1800 l0 -855 -1835 0
-1835 0 0 855 0 855 1835 0 1835 0 0 -855z"/>
</g>
</svg>
