<?xml version="1.0" standalone="no"?>
<!DOCTYPE svg PUBLIC "-//W3C//DTD SVG 20010904//EN"
 "http://www.w3.org/TR/2001/REC-SVG-20010904/DTD/svg10.dtd">
<svg version="1.0" xmlns="http://www.w3.org/2000/svg"
 width="1432pt" height="1000pt" viewBox="0 0 1432 1000"
 preserveAspectRatio="xMidYMid meet">
<metadata>
Created by potrace 1.9, written by Peter Selinger 2001-2010
</metadata>
<g transform="translate(0,1000) scale(0.100000,-0.100000)"
fill="#000000" stroke="none">
<path d="M251 6082 c-36 -19 -71 -73 -71 -107 1 -60 52 -114 969 -1030 l931
-930 -935 -935 c-920 -921 -965 -969 -965 -1027 0 -33 36 -86 71 -105 32 -17
84 -18 1034 -18 950 0 1002 1 1034 18 19 10 43 34 53 53 17 32 18 115 18 2014
0 1899 -1 1982 -18 2014 -10 19 -34 43 -53 53 -32 17 -84 18 -1034 18 -950 0
-1002 -1 -1034 -18z m1889 -997 c0 -421 -1 -765 -3 -765 -1 0 -346 344 -767
765 l-765 765 768 0 767 0 0 -765z m0 -2140 l0 -765 -767 0 -768 0 765 765
c421 421 766 765 767 765 2 0 3 -344 3 -765z"/>
<path d="M5151 6082 c-19 -10 -43 -34 -53 -53 -17 -32 -18 -110 -18 -1854 l0
-1820 -397 397 c-343 342 -403 398 -435 403 -64 12 -127 -31 -143 -98 -17 -64
1 -86 403 -489 l387 -388 -835 0 c-790 0 -837 -1 -869 -18 -36 -19 -71 -72
-71 -107 0 -35 35 -88 71 -107 32 -17 115 -18 2014 -18 1899 0 1982 1 2014 18
36 19 71 72 71 107 0 35 -35 88 -71 107 -32 17 -79 18 -874 18 l-840 0 397
398 c342 342 398 402 403 434 12 64 -31 127 -98 143 -64 17 -86 -1 -489 -403
l-388 -387 0 1815 c0 1739 -1 1817 -18 1849 -19 36 -72 71 -107 71 -11 0 -36
-8 -54 -18z"/>
<path d="M10052 6084 c-18 -9 -41 -29 -51 -43 -41 -58 -1971 -3933 -1976
-3968 -8 -49 19 -100 66 -125 32 -17 84 -18 1034 -18 950 0 1002 1 1034 18 36
19 71 72 71 107 0 35 -35 88 -71 107 -32 17 -81 18 -921 18 -489 0 -888 2
-888 5 0 3 394 794 876 1757 l876 1753 929 -1857 c791 -1581 933 -1859 961
-1880 l33 -23 995 -3 c547 -1 1009 0 1027 3 42 8 91 57 99 100 8 46 -21 102
-66 127 -33 17 -81 18 -987 18 l-953 0 -969 1938 c-743 1487 -976 1943 -996
1956 -39 25 -85 29 -123 10z"/>
<path d="M12011 3632 c-36 -19 -71 -73 -71 -107 1 -57 49 -111 531 -591 522
-520 527 -524 602 -509 25 6 137 112 545 518 358 358 515 522 523 544 6 18 8
47 4 63 -8 39 -56 87 -95 95 -70 15 -82 6 -558 -469 l-452 -451 -453 452
c-248 249 -465 457 -480 463 -39 14 -57 13 -96 -8z"/>
</g>
</svg>
