<?xml version="1.0" standalone="no"?>
<!DOCTYPE svg PUBLIC "-//W3C//DTD SVG 20010904//EN"
 "http://www.w3.org/TR/2001/REC-SVG-20010904/DTD/svg10.dtd">
<svg version="1.0" xmlns="http://www.w3.org/2000/svg"
 width="1628pt" height="1000pt" viewBox="0 0 1628 1000"
 preserveAspectRatio="xMidYMid meet">
<metadata>
Created by potrace 1.9, written by Peter Selinger 2001-2010
</metadata>
<g transform="translate(0,1000) scale(0.100000,-0.100000)"
fill="#000000" stroke="none">
<path d="M3191 7062 c-19 -10 -43 -34 -53 -53 -17 -32 -18 -79 -18 -874 l0
-840 -397 397 c-436 435 -430 430 -506 393 -61 -29 -87 -88 -67 -152 17 -53
973 -1015 1039 -1045 88 -40 61 -62 629 505 358 358 515 522 523 544 6 18 8
47 4 63 -8 39 -56 87 -95 95 -70 15 -85 2 -492 -403 l-388 -387 0 835 c0 790
-1 837 -18 869 -19 36 -72 71 -107 71 -11 0 -36 -8 -54 -18z"/>
<path d="M12012 6084 c-18 -9 -41 -29 -51 -43 -41 -58 -1971 -3933 -1976
-3968 -8 -49 19 -100 66 -125 32 -17 84 -18 1034 -18 950 0 1002 1 1034 18 36
19 71 72 71 107 0 35 -35 88 -71 107 -32 17 -81 18 -921 18 -489 0 -888 2
-888 5 0 3 394 794 876 1757 l876 1753 929 -1857 c791 -1581 933 -1859 961
-1880 l33 -23 995 -3 c547 -1 1009 0 1027 3 42 8 91 57 99 100 8 46 -21 102
-66 127 -33 17 -81 18 -987 18 l-953 0 -969 1938 c-743 1487 -976 1943 -996
1956 -39 25 -85 29 -123 10z"/>
<path d="M1231 5102 c-35 -19 -71 -72 -71 -105 0 -55 41 -103 413 -474 l382
-383 -835 0 c-790 0 -837 -1 -869 -18 -36 -19 -71 -72 -71 -107 0 -35 35 -88
71 -107 32 -17 79 -18 869 -18 l835 0 -387 -387 c-402 -404 -420 -426 -403
-490 16 -67 79 -110 143 -98 32 5 105 74 550 518 358 358 515 522 523 544 24
73 30 65 -509 607 -290 290 -521 514 -539 522 -43 18 -61 18 -102 -4z"/>
<path d="M5145 5101 c-26 -12 -209 -188 -532 -512 -545 -548 -533 -533 -500
-621 24 -62 994 -1030 1050 -1048 64 -20 123 6 152 67 37 76 42 70 -393 506
l-397 397 840 0 c795 0 842 1 874 18 36 19 71 72 71 107 0 35 -35 88 -71 107
-32 17 -79 18 -874 18 l-840 0 397 398 c435 435 430 429 393 505 -32 67 -102
91 -170 58z"/>
<path d="M7970 4124 c-194 -35 -394 -125 -531 -240 -290 -242 -446 -650 -384
-1003 49 -279 185 -523 384 -685 145 -119 339 -206 536 -240 364 -64 780 97
1017 394 125 155 201 338 239 568 18 108 18 123 4 221 -57 391 -248 683 -560
856 -221 122 -481 170 -705 129z m400 -269 c292 -93 496 -299 584 -586 14 -47
26 -90 26 -97 0 -9 -194 -12 -840 -12 -727 0 -840 2 -840 14 0 8 12 52 26 98
89 281 290 486 565 577 106 35 147 40 274 37 97 -3 137 -9 205 -31z m610 -952
c0 -4 -12 -45 -26 -92 -87 -287 -289 -490 -584 -587 -77 -25 -98 -28 -230 -28
-132 0 -153 3 -230 28 -295 97 -497 300 -584 587 -14 47 -26 88 -26 92 0 4
378 7 840 7 462 0 840 -3 840 -7z"/>
<path d="M3185 3141 c-27 -13 -201 -180 -531 -512 -513 -516 -526 -530 -509
-596 16 -67 79 -110 143 -98 32 5 92 61 435 403 l397 397 0 -840 c0 -795 1
-842 18 -874 19 -36 72 -71 107 -71 35 0 88 35 107 71 17 32 18 79 18 869 l0
835 388 -387 c403 -402 425 -420 489 -403 67 16 110 79 98 143 -5 32 -74 104
-513 546 -290 290 -521 514 -539 522 -42 18 -60 17 -108 -5z"/>
</g>
</svg>
