<?xml version="1.0" standalone="no"?>
<!DOCTYPE svg PUBLIC "-//W3C//DTD SVG 20010904//EN"
 "http://www.w3.org/TR/2001/REC-SVG-20010904/DTD/svg10.dtd">
<svg version="1.0" xmlns="http://www.w3.org/2000/svg"
 width="452pt" height="1000pt" viewBox="0 0 452 1000"
 preserveAspectRatio="xMidYMid meet">
<metadata>
Created by potrace 1.9, written by Peter Selinger 2001-2010
</metadata>
<g transform="translate(0,1000) scale(0.100000,-0.100000)"
fill="#000000" stroke="none">
<path d="M1231 6572 c-35 -19 -71 -72 -71 -105 0 -50 39 -101 227 -288 l195
-197 -53 -17 c-30 -10 -99 -39 -154 -65 -372 -175 -676 -448 -891 -800 -199
-327 -298 -686 -298 -1080 0 -204 15 -323 64 -520 184 -731 759 -1306 1490
-1490 197 -49 316 -64 520 -64 557 0 1074 211 1461 595 398 396 613 914 613
1479 0 204 -15 323 -64 520 -150 596 -563 1096 -1125 1360 -55 26 -124 55
-154 65 l-53 17 210 212 c176 177 212 217 217 248 12 64 -31 127 -98 143 -61
16 -92 -8 -358 -272 l-255 -254 -100 17 c-137 24 -451 24 -589 0 l-99 -17
-256 255 c-140 140 -268 260 -283 266 -39 14 -57 13 -96 -8z m1157 -730 l43
-7 -86 -85 -85 -85 -85 85 -86 85 38 6 c53 9 209 9 261 1z m-413 -253 c205
-207 247 -236 314 -224 30 5 70 40 241 211 113 112 213 204 222 204 24 0 202
-66 296 -110 358 -168 694 -504 862 -862 77 -165 134 -349 161 -523 7 -44 13
-163 13 -265 0 -102 -6 -221 -13 -265 -36 -228 -127 -484 -238 -668 -145 -241
-400 -496 -640 -641 -184 -110 -440 -201 -668 -237 -103 -16 -427 -16 -530 0
-228 36 -484 127 -668 237 -240 145 -495 400 -640 641 -111 184 -202 440 -238
668 -16 103 -16 427 0 530 36 228 127 484 237 668 146 242 399 495 641 641
116 70 385 184 438 185 13 1 85 -64 210 -190z"/>
<path d="M1243 5123 c-33 -6 -79 -57 -86 -92 -26 -127 122 -210 212 -120 43
42 49 93 18 156 -20 42 -87 68 -144 56z"/>
<path d="M3203 5123 c-33 -6 -79 -57 -86 -92 -26 -127 122 -210 212 -120 43
42 49 93 18 156 -20 42 -87 68 -144 56z"/>
<path d="M2211 5102 c-19 -10 -43 -34 -53 -53 -17 -32 -18 -82 -18 -961 l0
-928 -438 0 c-404 0 -440 -1 -471 -18 -36 -19 -71 -72 -71 -107 0 -35 35 -88
71 -107 32 -17 84 -18 1034 -18 950 0 1002 1 1034 18 36 19 71 72 71 107 0 35
-35 88 -71 107 -31 17 -67 18 -471 18 l-438 0 0 928 c0 879 -1 929 -18 961
-19 36 -72 71 -107 71 -11 0 -36 -8 -54 -18z"/>
</g>
</svg>
