<?xml version="1.0" standalone="no"?>
<!DOCTYPE svg PUBLIC "-//W3C//DTD SVG 20010904//EN"
 "http://www.w3.org/TR/2001/REC-SVG-20010904/DTD/svg10.dtd">
<svg version="1.0" xmlns="http://www.w3.org/2000/svg"
 width="746pt" height="1000pt" viewBox="0 0 746 1000"
 preserveAspectRatio="xMidYMid meet">
<metadata>
Created by potrace 1.9, written by Peter Selinger 2001-2010
</metadata>
<g transform="translate(0,1000) scale(0.100000,-0.100000)"
fill="#000000" stroke="none">
<path d="M2205 6081 c-28 -13 -345 -325 -1021 -1002 -792 -794 -984 -991 -994
-1022 -20 -64 6 -123 67 -152 80 -38 18 -93 1055 943 l948 947 942 -941 c761
-760 950 -944 981 -954 64 -20 123 6 152 67 38 80 98 14 -993 1107 -583 583
-1010 1004 -1029 1012 -42 18 -60 17 -108 -5z"/>
<path d="M5151 6082 c-19 -10 -43 -34 -53 -53 -17 -32 -18 -115 -18 -2014 0
-1899 1 -1982 18 -2014 10 -19 34 -43 53 -53 32 -17 84 -18 1034 -18 950 0
1002 1 1034 18 36 19 71 72 71 107 0 35 -35 88 -71 107 -32 17 -82 18 -961 18
l-928 0 0 762 0 763 388 -387 c407 -405 422 -418 492 -403 39 8 87 56 95 95 4
16 2 45 -4 62 -8 23 -158 180 -491 513 l-480 480 0 965 c0 916 -1 967 -18 999
-19 36 -72 71 -107 71 -11 0 -36 -8 -54 -18z"/>
</g>
</svg>
