<?xml version="1.0" standalone="no"?>
<!DOCTYPE svg PUBLIC "-//W3C//DTD SVG 20010904//EN"
 "http://www.w3.org/TR/2001/REC-SVG-20010904/DTD/svg10.dtd">
<svg version="1.0" xmlns="http://www.w3.org/2000/svg"
 width="648pt" height="1000pt" viewBox="0 0 648 1000"
 preserveAspectRatio="xMidYMid meet">
<metadata>
Created by potrace 1.9, written by Peter Selinger 2001-2010
</metadata>
<g transform="translate(0,1000) scale(0.100000,-0.100000)"
fill="#000000" stroke="none">
<path d="M1690 9980 c-30 -30 -42 -70 -35 -109 4 -19 119 -258 256 -532 271
-542 272 -544 354 -544 78 0 79 1 359 562 235 471 258 523 252 555 -3 20 -17
47 -31 62 -21 23 -32 26 -88 26 -48 0 -71 -5 -87 -18 -13 -10 -109 -191 -215
-402 l-193 -385 -196 392 c-117 235 -203 396 -215 403 -11 5 -47 10 -80 10
-48 0 -65 -4 -81 -20z"/>
<path d="M3134 9973 c-10 -17 -18 -46 -18 -73 0 -76 48 -125 124 -125 76 0
124 49 124 125 0 27 -8 56 -18 73 -18 26 -21 27 -106 27 -85 0 -88 -1 -106
-27z"/>
<path d="M2115 8054 c-684 -55 -1279 -418 -1631 -994 -143 -235 -234 -491
-279 -780 -21 -137 -25 -328 -7 -362 40 -74 167 -77 212 -5 7 12 18 90 26 178
15 182 18 201 50 329 82 329 238 604 484 850 246 246 519 401 850 485 155 39
245 49 440 49 195 0 285 -10 440 -49 331 -84 604 -239 850 -485 246 -246 402
-521 484 -850 32 -128 35 -147 50 -329 8 -88 19 -166 26 -178 45 -72 172 -69
212 5 18 34 14 225 -7 362 -71 458 -269 853 -585 1170 -378 377 -876 590
-1416 604 -82 2 -171 2 -199 0z"/>
<path d="M2115 6094 c-684 -55 -1279 -418 -1631 -994 -178 -294 -280 -628
-299 -990 -7 -132 5 -169 66 -202 32 -17 82 -18 961 -18 l928 0 0 -928 c0
-879 1 -929 18 -961 19 -36 72 -71 107 -71 35 0 88 35 107 71 17 32 18 82 18
961 l0 928 762 0 763 0 -387 -387 c-402 -404 -420 -426 -403 -490 16 -67 79
-110 143 -98 32 5 104 74 546 513 288 288 514 521 522 539 15 35 10 115 -22
348 -85 616 -439 1154 -974 1481 -234 142 -489 233 -776 278 -102 16 -357 27
-449 20z m25 -1104 l0 -850 -850 0 -850 0 0 41 c0 193 115 553 246 772 146
242 399 495 641 641 218 130 561 241 761 245 l52 1 0 -850z m393 839 c215 -32
478 -126 660 -235 242 -146 495 -399 641 -641 77 -130 158 -326 197 -478 11
-44 22 -89 26 -100 3 -11 -165 150 -373 357 -326 324 -384 378 -416 383 -64
12 -127 -31 -143 -98 -17 -64 1 -86 403 -489 l387 -388 -763 0 -762 0 0 850 0
850 36 0 c19 0 68 -5 107 -11z"/>
<path d="M5151 6082 c-19 -10 -43 -34 -53 -53 -17 -32 -18 -115 -18 -2014 0
-1899 1 -1982 18 -2014 19 -36 72 -71 107 -71 35 0 88 35 107 71 17 32 18 115
18 2014 0 1899 -1 1982 -18 2014 -19 36 -72 71 -107 71 -11 0 -36 -8 -54 -18z"/>
<path d="M6143 4143 c-33 -6 -79 -57 -86 -92 -26 -127 122 -210 212 -120 43
42 49 93 18 156 -20 42 -87 68 -144 56z"/>
</g>
</svg>
