<?xml version="1.0" standalone="no"?>
<!DOCTYPE svg PUBLIC "-//W3C//DTD SVG 20010904//EN"
 "http://www.w3.org/TR/2001/REC-SVG-20010904/DTD/svg10.dtd">
<svg version="1.0" xmlns="http://www.w3.org/2000/svg"
 width="648pt" height="1000pt" viewBox="0 0 648 1000"
 preserveAspectRatio="xMidYMid meet">
<metadata>
Created by potrace 1.9, written by Peter Selinger 2001-2010
</metadata>
<g transform="translate(0,1000) scale(0.100000,-0.100000)"
fill="#000000" stroke="none">
<path d="M2212 8044 c-18 -9 -41 -29 -51 -43 -40 -56 -501 -992 -506 -1028
-11 -74 61 -150 132 -139 68 10 76 22 280 430 l195 391 193 -385 c200 -398
216 -423 282 -436 39 -7 95 18 118 53 41 62 45 53 -233 609 -194 389 -267 525
-287 538 -39 25 -85 29 -123 10z"/>
<path d="M2115 6094 c-172 -14 -419 -67 -575 -124 -631 -231 -1120 -769 -1286
-1415 -70 -271 -67 -205 -71 -1420 -4 -1057 -3 -1101 15 -1134 10 -19 34 -43
53 -53 32 -17 115 -18 2014 -18 1899 0 1982 1 2014 18 19 10 43 34 53 53 17
32 18 82 18 961 l0 928 762 0 763 0 -387 -387 c-405 -408 -418 -423 -403 -493
8 -39 56 -87 95 -95 16 -4 45 -2 63 4 22 8 186 165 544 523 544 546 538 538
514 611 -8 22 -165 186 -523 544 -445 444 -518 513 -550 518 -64 12 -127 -31
-143 -98 -17 -64 1 -86 403 -489 l387 -388 -773 0 -772 0 0 41 c0 110 -63 401
-120 559 -184 503 -569 925 -1055 1156 -177 84 -381 145 -591 178 -102 16
-357 27 -449 20z m418 -265 c215 -32 478 -126 660 -235 242 -146 495 -399 641
-641 131 -219 246 -579 246 -772 l0 -41 -918 0 c-869 0 -919 -1 -951 -18 -36
-19 -71 -72 -71 -107 0 -35 35 -88 71 -107 32 -17 82 -18 961 -18 l928 0 0
-855 0 -855 -1836 0 -1835 0 4 1028 c3 872 6 1039 20 1107 78 409 238 716 517
995 318 317 699 495 1150 534 73 6 334 -3 413 -15z"/>
</g>
</svg>
