<?xml version="1.0" standalone="no"?>
<!DOCTYPE svg PUBLIC "-//W3C//DTD SVG 20010904//EN"
 "http://www.w3.org/TR/2001/REC-SVG-20010904/DTD/svg10.dtd">
<svg version="1.0" xmlns="http://www.w3.org/2000/svg"
 width="1530pt" height="1000pt" viewBox="0 0 1530 1000"
 preserveAspectRatio="xMidYMid meet">
<metadata>
Created by potrace 1.9, written by Peter Selinger 2001-2010
</metadata>
<g transform="translate(0,1000) scale(0.100000,-0.100000)"
fill="#000000" stroke="none">
<path d="M1225 7061 c-56 -27 -1008 -982 -1030 -1033 -13 -33 -15 -260 -15
-2015 0 -1897 1 -1980 18 -2012 10 -19 34 -43 53 -53 32 -17 177 -18 3974 -18
3797 0 3942 1 3974 18 19 10 43 34 53 53 17 32 18 115 18 2012 0 1671 -2 1983
-14 2010 -8 18 -232 249 -522 539 -404 401 -516 507 -541 513 -75 15 -80 11
-602 -509 -332 -330 -499 -504 -512 -531 -18 -38 -19 -80 -19 -880 l0 -840
-887 887 c-714 712 -894 887 -920 893 -77 16 -56 35 -985 -893 l-878 -877 0
833 c0 692 -2 838 -14 865 -18 41 -1012 1033 -1049 1047 -39 14 -56 13 -102
-9z m487 -718 l428 -428 0 -960 c0 -914 1 -962 18 -995 25 -46 81 -74 130 -65
33 6 144 113 985 953 l947 947 938 -937 c923 -923 971 -968 1029 -968 33 0 86
36 105 71 17 32 18 83 18 999 l0 965 425 425 425 425 430 -430 430 -430 0
-1867 0 -1868 -3795 0 -3795 0 0 1872 0 1873 422 422 c233 233 425 423 428
423 3 0 197 -192 432 -427z"/>
<path d="M11031 6082 c-35 -19 -71 -72 -71 -105 0 -56 42 -103 475 -537 l445
-445 -890 -890 -890 -890 -457 457 c-397 395 -463 458 -495 463 -64 12 -127
-31 -144 -99 -16 -65 5 -90 471 -556 l445 -445 -449 -450 c-468 -470 -483
-487 -466 -552 16 -67 79 -110 143 -98 32 5 98 68 494 463 l458 457 452 -452
c473 -470 490 -485 555 -468 67 16 110 79 98 143 -5 32 -68 99 -466 497 l-459
460 890 890 890 890 890 -890 890 -890 -449 -450 c-468 -470 -483 -487 -466
-552 16 -67 79 -110 143 -98 32 5 98 68 494 463 l458 457 452 -452 c473 -470
490 -485 555 -468 67 16 110 79 98 143 -5 32 -68 99 -466 497 l-459 460 455
455 c315 315 458 465 466 488 6 17 8 46 4 62 -8 39 -56 87 -95 95 -70 15 -82
6 -558 -469 l-452 -451 -890 890 -890 890 459 460 c398 398 461 465 466 497
12 64 -31 127 -98 143 -65 17 -82 2 -555 -469 l-452 -451 -453 452 c-248 249
-465 457 -480 463 -39 14 -57 13 -96 -8z"/>
</g>
</svg>
