<?xml version="1.0" standalone="no"?>
<!DOCTYPE svg PUBLIC "-//W3C//DTD SVG 20010904//EN"
 "http://www.w3.org/TR/2001/REC-SVG-20010904/DTD/svg10.dtd">
<svg version="1.0" xmlns="http://www.w3.org/2000/svg"
 width="1432pt" height="1000pt" viewBox="0 0 1432 1000"
 preserveAspectRatio="xMidYMid meet">
<metadata>
Created by potrace 1.9, written by Peter Selinger 2001-2010
</metadata>
<g transform="translate(0,1000) scale(0.100000,-0.100000)"
fill="#000000" stroke="none">
<path d="M2211 6082 c-19 -10 -43 -34 -53 -53 -17 -32 -18 -81 -18 -921 0
-489 -2 -888 -5 -888 -3 0 -410 203 -905 450 -495 248 -911 450 -923 450 -65
0 -133 -75 -123 -138 11 -76 -10 -64 1002 -570 l954 -477 0 -950 c0 -901 1
-952 18 -984 10 -19 34 -43 53 -53 32 -17 115 -18 2014 -18 1899 0 1982 1
2014 18 19 10 43 34 53 53 17 32 18 81 18 921 l0 888 890 -445 c492 -246 906
-447 927 -450 104 -16 175 101 117 190 -13 20 -249 143 -976 506 l-958 479 0
953 c0 903 -1 954 -18 986 -10 19 -34 43 -53 53 -32 17 -115 18 -2014 18
-1899 0 -1982 -1 -2014 -18z m1009 -236 c0 -2 -33 -23 -72 -46 -280 -164 -544
-428 -708 -707 -23 -40 -44 -73 -46 -73 -2 0 -4 187 -4 415 l0 415 415 0 c228
0 415 -2 415 -4z m1273 -17 c215 -32 478 -126 660 -235 240 -145 495 -400 640
-641 78 -128 158 -323 198 -478 21 -81 50 -237 44 -243 -1 -2 -404 197 -894
442 -490 246 -902 446 -914 446 -37 0 -89 -34 -109 -71 -17 -32 -18 -81 -18
-921 0 -489 -2 -888 -5 -888 -3 0 -387 191 -854 425 l-850 424 5 58 c20 244
73 444 174 661 168 359 503 694 862 862 210 98 418 154 648 174 73 6 334 -3
413 -15z m1567 -406 c0 -234 -2 -424 -4 -422 -2 2 -29 46 -60 98 -173 286
-426 537 -703 701 -40 23 -73 44 -73 46 0 2 189 4 420 4 l420 0 0 -427z m-17
-1535 c-17 -230 -73 -441 -173 -656 -142 -302 -420 -607 -717 -786 -184 -110
-440 -201 -668 -237 -103 -16 -427 -16 -530 0 -228 36 -484 127 -668 237 -240
145 -495 400 -640 641 -78 128 -158 323 -198 478 -22 82 -49 235 -43 235 2 0
400 -198 884 -440 486 -243 896 -442 917 -445 49 -8 100 19 125 66 17 32 18
81 18 921 l0 888 849 -424 848 -425 -4 -53z m14 -1705 c-2 -2 -196 -2 -431 -1
l-426 3 82 49 c294 174 551 431 724 724 l49 82 3 -426 c1 -235 1 -429 -1 -431z
m-3617 765 c162 -276 416 -531 700 -703 52 -32 97 -59 99 -61 2 -2 -188 -4
-422 -4 l-427 0 0 420 c0 231 2 420 4 420 2 0 23 -33 46 -72z"/>
<path d="M9930 6084 c-194 -35 -394 -125 -531 -240 -290 -242 -446 -650 -384
-1003 49 -279 185 -523 384 -685 138 -113 340 -206 514 -236 l67 -12 0 -937
c0 -888 1 -938 18 -970 19 -36 72 -71 107 -71 34 0 87 35 105 68 12 22 19 69
24 149 12 204 44 361 106 533 97 264 227 466 430 670 246 246 521 402 850 484
128 32 147 35 329 50 88 8 166 19 178 26 72 45 69 172 -5 212 -60 31 -354 5
-582 -52 -526 -133 -990 -478 -1261 -940 l-44 -75 -3 424 c-1 233 -1 425 1
427 1 2 38 10 81 19 458 95 788 441 871 916 61 347 -93 758 -373 994 -241 203
-592 302 -882 249z m400 -269 c176 -56 318 -152 431 -291 68 -83 117 -178 155
-299 26 -80 29 -104 29 -225 0 -121 -3 -145 -29 -225 -93 -295 -290 -493 -586
-591 -77 -25 -98 -28 -230 -28 -132 0 -153 3 -230 28 -179 59 -319 154 -431
292 -68 82 -117 177 -155 299 -26 82 -29 103 -28 230 0 126 3 149 28 225 95
288 291 488 567 579 106 35 147 40 274 37 97 -3 137 -9 205 -31z"/>
<path d="M12985 6086 c-63 -27 -89 -120 -51 -178 10 -15 68 -70 129 -122 411
-346 693 -832 788 -1353 45 -249 45 -577 0 -826 -95 -521 -377 -1007 -788
-1353 -128 -109 -146 -133 -146 -190 0 -85 77 -141 158 -114 50 16 268 204
381 326 259 283 467 651 572 1009 142 486 142 984 0 1470 -135 462 -423 905
-790 1216 -150 127 -187 144 -253 115z"/>
</g>
</svg>
