<?xml version="1.0" standalone="no"?>
<!DOCTYPE svg PUBLIC "-//W3C//DTD SVG 20010904//EN"
 "http://www.w3.org/TR/2001/REC-SVG-20010904/DTD/svg10.dtd">
<svg version="1.0" xmlns="http://www.w3.org/2000/svg"
 width="599pt" height="1000pt" viewBox="0 0 599 1000"
 preserveAspectRatio="xMidYMid meet">
<metadata>
Created by potrace 1.9, written by Peter Selinger 2001-2010
</metadata>
<g transform="translate(0,1000) scale(0.100000,-0.100000)"
fill="#000000" stroke="none">
<path d="M2205 6081 c-57 -27 -1988 -1962 -2010 -2013 -13 -33 -15 -260 -15
-2015 0 -1913 1 -1979 19 -2013 l18 -35 88 0 88 0 18 35 c18 32 19 64 19 472
l0 438 1835 0 1835 0 0 -438 c0 -408 1 -440 19 -472 l18 -35 88 0 88 0 18 35
c18 34 19 100 19 2013 0 1674 -2 1983 -14 2010 -18 42 -1991 2013 -2029 2027
-39 14 -56 13 -102 -9z m977 -1208 l918 -918 0 -887 0 -888 -1835 0 -1835 0 0
892 0 893 912 912 c502 502 915 913 918 913 3 0 418 -413 922 -917z m918
-3308 l0 -365 -1835 0 -1835 0 0 365 0 365 1835 0 1835 0 0 -365z"/>
<path d="M5635 2161 c-26 -12 -209 -188 -532 -512 -423 -425 -493 -500 -504
-536 -24 -84 -26 -81 514 -621 l493 -493 89 3 88 3 20 38 c41 80 54 64 -454
572 l-459 460 459 460 c503 504 493 491 456 568 -32 67 -102 91 -170 58z"/>
</g>
</svg>
