<?xml version="1.0" standalone="no"?>
<!DOCTYPE svg PUBLIC "-//W3C//DTD SVG 20010904//EN"
 "http://www.w3.org/TR/2001/REC-SVG-20010904/DTD/svg10.dtd">
<svg version="1.0" xmlns="http://www.w3.org/2000/svg"
 width="110pt" height="1000pt" viewBox="0 0 110 1000"
 preserveAspectRatio="xMidYMid meet">
<g transform="translate(0,1000) scale(0.100000,-0.100000)"
fill="#000000" stroke="none">
<path d="M251 3142 c-67 -36 -71 -55 -71 -352 0 -379 -7 -370 297 -370 l193 0 0 -193 c0 -167 2 -197 18 -226 19 -36 72 -71 107 -71 35 0 88 35 107 71 17 31 18 69 18 544 0 475 -1 513 -18 544 -19 36 -72 71 -107 71 -35 0 -88 -35 -107 -71 -16 -29 -18 -59 -18 -226 l0 -193 -120 0 -120 0 0 193 c0 167 -2 197 -18 226 -19 36 -72 71 -107 71 -11 0 -36 -8 -54 -18z"/>
</g>
</svg>

