<?xml version="1.0" standalone="no"?>
<!DOCTYPE svg PUBLIC "-//W3C//DTD SVG 20010904//EN"
 "http://www.w3.org/TR/2001/REC-SVG-20010904/DTD/svg10.dtd">
<svg version="1.0" xmlns="http://www.w3.org/2000/svg"
 width="942pt" height="1000pt" viewBox="0 0 942 1000"
 preserveAspectRatio="xMidYMid meet">
<metadata>
Created by potrace 1.9, written by Peter Selinger 2001-2010
</metadata>
<g transform="translate(0,1000) scale(0.100000,-0.100000)"
fill="#000000" stroke="none">
<path d="M5055 6094 c-684 -55 -1279 -418 -1631 -994 -199 -327 -298 -686
-298 -1080 0 -204 15 -323 64 -520 184 -731 759 -1306 1490 -1490 197 -49 316
-64 520 -64 557 0 1074 211 1461 595 324 322 531 737 593 1184 38 278 38 313
0 590 -114 830 -724 1511 -1534 1715 -63 15 -161 36 -216 44 -102 16 -357 27
-449 20z m25 -1177 c0 -874 1 -924 18 -956 10 -19 34 -43 53 -53 32 -17 82
-18 951 -18 l918 0 0 -36 c0 -143 -76 -420 -170 -622 -142 -302 -420 -607
-717 -786 -184 -110 -440 -201 -668 -237 -103 -16 -427 -16 -530 0 -228 36
-484 127 -668 237 -240 145 -495 400 -640 641 -111 184 -202 440 -238 668 -7
44 -13 163 -13 265 0 102 6 221 13 265 36 228 127 484 237 668 146 242 399
495 641 641 218 130 561 241 761 245 l52 1 0 -923z m393 912 c215 -32 478
-126 660 -235 297 -179 575 -484 717 -786 96 -205 170 -479 170 -627 l0 -41
-845 0 -845 0 0 850 0 850 36 0 c19 0 68 -5 107 -11z"/>
<path d="M1110 5104 c-194 -35 -394 -125 -531 -240 -290 -242 -446 -650 -384
-1003 49 -279 185 -523 384 -685 145 -119 339 -206 536 -240 114 -20 216 -20
330 0 489 85 833 432 920 925 61 347 -93 758 -373 994 -241 203 -592 302 -882
249z m400 -269 c176 -56 318 -152 431 -291 68 -83 117 -178 155 -299 26 -80
29 -104 29 -225 0 -121 -3 -145 -29 -225 -93 -295 -290 -493 -586 -591 -77
-25 -98 -28 -230 -28 -132 0 -153 3 -230 28 -179 59 -319 154 -431 292 -68 82
-117 177 -155 299 -26 82 -29 103 -28 230 0 126 3 149 28 225 95 288 291 488
567 579 106 35 147 40 274 37 97 -3 137 -9 205 -31z"/>
<path d="M8091 4122 c-19 -10 -43 -34 -53 -53 -17 -31 -18 -69 -18 -544 0
-475 1 -513 18 -544 38 -71 35 -71 524 -71 l438 0 0 -438 c0 -404 1 -440 18
-471 19 -36 72 -71 107 -71 35 0 88 35 107 71 17 32 18 84 18 1034 0 950 -1
1002 -18 1034 -19 36 -72 71 -107 71 -35 0 -88 -35 -107 -71 -17 -31 -18 -67
-18 -471 l0 -438 -365 0 -365 0 0 438 c0 404 -1 440 -18 471 -19 36 -72 71
-107 71 -11 0 -36 -8 -54 -18z"/>
<path d="M251 2162 c-36 -19 -71 -72 -71 -107 0 -35 35 -88 71 -107 32 -17 84
-18 1034 -18 950 0 1002 1 1034 18 36 19 71 72 71 107 0 35 -35 88 -71 107
-32 17 -84 18 -1034 18 -950 0 -1002 -1 -1034 -18z"/>
</g>
</svg>
