<?xml version="1.0" standalone="no"?>
<!DOCTYPE svg PUBLIC "-//W3C//DTD SVG 20010904//EN"
 "http://www.w3.org/TR/2001/REC-SVG-20010904/DTD/svg10.dtd">
<svg version="1.0" xmlns="http://www.w3.org/2000/svg"
 width="550pt" height="1000pt" viewBox="0 0 550 1000"
 preserveAspectRatio="xMidYMid meet">
<metadata>
Created by potrace 1.9, written by Peter Selinger 2001-2010
</metadata>
<g transform="translate(0,1000) scale(0.100000,-0.100000)"
fill="#000000" stroke="none">
<path d="M2702 8044 c-18 -9 -41 -29 -51 -43 -40 -56 -501 -992 -506 -1028
-11 -74 61 -150 132 -139 68 10 76 22 280 430 l195 391 193 -385 c200 -398
216 -423 282 -436 39 -7 95 18 118 53 41 62 45 53 -233 609 -194 389 -267 525
-287 538 -39 25 -85 29 -123 10z"/>
<path d="M3191 5102 c-19 -10 -43 -34 -53 -53 -17 -32 -18 -73 -18 -661 l0
-628 -32 0 c-90 1 -259 51 -403 120 -111 53 -265 161 -265 185 0 108 -339 365
-615 468 -165 62 -338 92 -525 92 -239 0 -460 -51 -662 -151 -190 -95 -414
-269 -460 -358 -49 -95 25 -201 128 -182 26 5 58 28 113 79 118 111 206 173
326 232 208 101 330 129 555 129 217 0 340 -27 537 -119 100 -47 153 -81 253
-161 55 -44 67 -60 78 -99 14 -53 63 -104 187 -194 217 -158 479 -263 713
-286 l72 -8 0 -246 c0 -276 4 -297 71 -333 32 -17 84 -18 1034 -18 950 0 1002
1 1034 18 19 10 43 34 53 53 17 32 18 84 18 1034 0 950 -1 1002 -18 1034 -10
19 -34 43 -53 53 -32 17 -84 18 -1034 18 -950 0 -1002 -1 -1034 -18z m1889
-1087 l0 -855 -855 0 -855 0 0 173 0 174 83 12 c299 45 591 183 798 376 68 63
79 83 79 137 0 41 -5 52 -35 83 -30 30 -42 35 -81 35 -48 0 -104 -30 -154 -85
-39 -42 -148 -120 -230 -163 -130 -69 -355 -142 -440 -142 -20 0 -20 3 -20
555 l0 555 855 0 855 0 0 -855z"/>
</g>
</svg>
