<?xml version="1.0" standalone="no"?>
<!DOCTYPE svg PUBLIC "-//W3C//DTD SVG 20010904//EN"
 "http://www.w3.org/TR/2001/REC-SVG-20010904/DTD/svg10.dtd">
<svg version="1.0" xmlns="http://www.w3.org/2000/svg"
 width="452pt" height="1000pt" viewBox="0 0 452 1000"
 preserveAspectRatio="xMidYMid meet">
<metadata>
Created by potrace 1.9, written by Peter Selinger 2001-2010
</metadata>
<g transform="translate(0,1000) scale(0.100000,-0.100000)"
fill="#000000" stroke="none">
<path d="M1721 8042 c-47 -25 -74 -76 -66 -125 3 -21 118 -263 255 -537 272
-544 273 -545 355 -545 78 1 77 -2 357 559 278 556 274 547 233 609 -23 35
-79 60 -118 53 -66 -13 -82 -38 -282 -436 l-193 -385 -195 391 c-143 286 -202
395 -222 408 -41 27 -85 30 -124 8z"/>
<path d="M251 6082 c-19 -10 -43 -34 -53 -53 -17 -32 -18 -115 -18 -2014 0
-1899 1 -1982 18 -2014 10 -19 34 -43 53 -53 32 -17 115 -18 2014 -18 1899 0
1982 1 2014 18 19 10 43 34 53 53 17 32 18 115 18 2014 0 1899 -1 1982 -18
2014 -19 36 -72 71 -107 71 -35 0 -88 -35 -107 -71 -15 -28 -18 -58 -18 -186
l0 -153 -82 83 c-167 166 -369 268 -614 311 -359 63 -766 -92 -1007 -382 -35
-42 -79 -105 -98 -139 -19 -35 -36 -63 -39 -63 -3 1 -24 33 -47 73 -151 263
-437 453 -769 511 -160 28 -319 15 -498 -40 -169 -53 -381 -189 -480 -307
l-36 -42 0 150 c0 126 -3 156 -18 184 -19 36 -72 71 -107 71 -11 0 -36 -8 -54
-18z m1259 -267 c353 -114 585 -399 619 -764 5 -54 15 -107 22 -119 43 -69
175 -69 218 0 7 12 17 65 22 119 17 179 89 357 197 484 115 137 243 222 422
281 77 25 98 28 230 28 132 0 153 -3 230 -28 183 -61 317 -152 431 -292 66
-80 115 -175 155 -294 25 -76 28 -100 28 -220 0 -110 -5 -159 -27 -265 -86
-404 -225 -774 -424 -1130 -298 -531 -795 -1042 -1326 -1364 l-37 -23 -48 28
c-87 50 -266 176 -387 272 -163 130 -468 437 -599 602 -415 523 -672 1109
-781 1785 -28 175 -26 209 19 342 91 266 291 464 557 552 106 35 147 40 274
37 97 -3 136 -9 205 -31z m-1050 -1852 c97 -247 270 -563 449 -818 218 -312
544 -648 849 -876 53 -40 101 -76 107 -81 5 -4 -316 -8 -713 -8 l-722 0 0 920
c0 506 2 920 4 920 2 0 14 -26 26 -57z m3640 -873 l0 -910 -722 0 -723 0 40
27 c226 152 565 469 755 703 253 314 482 692 610 1008 19 45 35 82 37 82 2 0
3 -409 3 -910z"/>
</g>
</svg>
