<?xml version="1.0" standalone="no"?>
<!DOCTYPE svg PUBLIC "-//W3C//DTD SVG 20010904//EN"
 "http://www.w3.org/TR/2001/REC-SVG-20010904/DTD/svg10.dtd">
<svg version="1.0" xmlns="http://www.w3.org/2000/svg"
 width="1040pt" height="1000pt" viewBox="0 0 1040 1000"
 preserveAspectRatio="xMidYMid meet">
<metadata>
Created by potrace 1.9, written by Peter Selinger 2001-2010
</metadata>
<g transform="translate(0,1000) scale(0.100000,-0.100000)"
fill="#000000" stroke="none">
<path d="M4661 8042 c-19 -10 -43 -34 -53 -53 -17 -31 -18 -69 -18 -544 0
-475 1 -513 18 -544 10 -19 34 -43 53 -53 31 -17 69 -18 544 -18 475 0 513 1
544 18 19 10 43 34 53 53 17 31 18 69 18 544 0 475 -1 513 -18 544 -10 19 -34
43 -53 53 -31 17 -69 18 -544 18 -475 0 -513 -1 -544 -18z m909 -597 l0 -365
-365 0 -365 0 0 365 0 365 365 0 365 0 0 -365z"/>
<path d="M5151 6082 c-19 -10 -43 -34 -53 -53 -17 -32 -18 -115 -18 -2014 0
-1899 1 -1982 18 -2014 19 -36 72 -71 107 -71 35 0 88 35 107 71 17 32 18 115
18 2014 0 1899 -1 1982 -18 2014 -19 36 -72 71 -107 71 -11 0 -36 -8 -54 -18z"/>
<path d="M6997 4619 c-338 -39 -643 -180 -875 -404 -70 -67 -95 -99 -101 -125
-21 -96 61 -174 154 -149 22 6 66 39 118 87 150 142 262 212 438 276 158 57
233 69 424 69 191 0 266 -12 424 -69 120 -44 226 -100 316 -169 91 -69 120
-101 135 -149 29 -90 294 -283 514 -372 461 -188 991 -134 1410 143 100 67
215 165 240 205 9 14 16 47 16 72 0 39 -5 51 -35 81 -30 30 -42 35 -81 35 -48
0 -104 -30 -154 -85 -106 -114 -365 -245 -575 -291 -98 -21 -377 -24 -475 -5
-173 34 -372 120 -505 219 -67 49 -83 66 -93 99 -25 83 -249 269 -457 379
-234 124 -567 185 -838 153z"/>
<path d="M4075 4134 c-169 -13 -419 -67 -575 -124 -565 -207 -1023 -665 -1230
-1230 -57 -158 -120 -449 -120 -559 l0 -41 -933 0 c-884 0 -934 -1 -966 -18
-36 -19 -71 -72 -71 -107 0 -35 35 -88 71 -107 32 -17 73 -18 674 -18 l640 0
-42 -36 c-73 -61 -170 -187 -226 -295 -117 -222 -160 -461 -122 -678 50 -285
189 -528 395 -694 99 -79 274 -169 397 -203 88 -24 100 -25 315 -22 220 4 224
4 318 36 400 135 670 455 745 883 56 318 -65 687 -306 931 l-77 78 641 0 c603
0 644 1 676 18 36 19 71 72 71 107 0 35 -35 88 -71 107 -32 17 -82 18 -956 18
l-923 0 0 41 c0 100 46 310 100 459 97 264 227 466 430 670 246 246 521 402
850 484 128 32 147 35 329 50 88 8 166 19 178 26 70 44 69 166 -1 210 -22 14
-124 20 -211 14z m-1585 -2239 c176 -56 318 -152 431 -291 68 -83 117 -178
155 -299 26 -80 29 -104 29 -225 0 -121 -3 -145 -29 -225 -93 -295 -290 -493
-586 -591 -77 -25 -98 -28 -230 -28 -132 0 -153 3 -230 28 -179 59 -319 154
-431 292 -68 82 -117 177 -155 299 -26 82 -29 103 -28 230 0 126 3 149 28 225
95 288 291 488 567 579 106 35 147 40 274 37 97 -3 137 -9 205 -31z"/>
<path d="M6997 2659 c-338 -39 -643 -180 -875 -404 -70 -67 -95 -99 -101 -125
-21 -96 61 -174 154 -149 22 6 66 39 118 87 150 142 262 212 438 276 158 57
233 69 424 69 191 0 266 -12 424 -69 120 -44 226 -100 316 -169 91 -69 120
-101 135 -149 29 -90 294 -283 514 -372 461 -188 991 -134 1410 143 100 67
215 165 240 205 9 14 16 47 16 72 0 39 -5 51 -35 81 -30 30 -42 35 -81 35 -48
0 -104 -30 -154 -85 -106 -114 -365 -245 -575 -291 -98 -21 -377 -24 -475 -5
-173 34 -372 120 -505 219 -67 49 -83 66 -93 99 -25 83 -249 269 -457 379
-234 124 -567 185 -838 153z"/>
</g>
</svg>
