<?xml version="1.0" standalone="no"?>
<!DOCTYPE svg PUBLIC "-//W3C//DTD SVG 20010904//EN"
 "http://www.w3.org/TR/2001/REC-SVG-20010904/DTD/svg10.dtd">
<svg version="1.0" xmlns="http://www.w3.org/2000/svg"
 width="1432pt" height="1000pt" viewBox="0 0 1432 1000"
 preserveAspectRatio="xMidYMid meet">
<metadata>
Created by potrace 1.9, written by Peter Selinger 2001-2010
</metadata>
<g transform="translate(0,1000) scale(0.100000,-0.100000)"
fill="#000000" stroke="none">
<path d="M3191 6082 c-19 -10 -43 -34 -53 -53 -17 -32 -18 -88 -18 -1167 l0
-1133 -72 74 c-40 41 -101 94 -134 119 -125 91 -333 178 -486 203 l-38 6 0
442 c0 494 1 491 -71 529 -32 17 -84 18 -1034 18 -950 0 -1002 -1 -1034 -18
-19 -10 -43 -34 -53 -53 -17 -32 -18 -84 -18 -1034 0 -950 1 -1002 18 -1034
38 -72 35 -71 529 -71 l442 0 6 -37 c17 -99 70 -256 122 -353 158 -300 445
-502 798 -564 364 -64 780 97 1017 394 125 155 201 338 239 569 18 110 19 192
19 1596 0 1415 -1 1482 -18 1514 -19 36 -72 71 -107 71 -11 0 -36 -8 -54 -18z
m-1051 -1581 l0 -369 -66 -11 c-251 -44 -496 -185 -658 -380 -112 -134 -206
-339 -237 -515 l-11 -66 -369 0 -369 0 0 855 0 855 855 0 855 0 0 -369z m0
-981 l0 -360 -360 0 c-308 0 -360 2 -360 14 0 30 53 183 87 251 70 140 221
293 358 363 71 36 225 91 258 92 16 0 17 -24 17 -360z m352 334 c173 -54 316
-151 429 -290 68 -83 117 -178 155 -299 26 -80 29 -104 29 -225 0 -121 -3
-145 -29 -225 -93 -295 -290 -493 -586 -591 -77 -25 -98 -28 -230 -28 -132 0
-153 3 -230 28 -295 97 -497 300 -584 587 -14 47 -26 88 -26 92 0 4 195 7 433
7 483 0 481 0 519 71 17 31 18 66 18 466 0 266 4 433 9 433 6 0 47 -12 93 -26z"/>
<path d="M12025 6092 c-99 -35 -118 -168 -32 -222 12 -7 90 -18 178 -26 182
-15 201 -18 329 -50 329 -82 604 -238 850 -484 246 -246 401 -519 485 -850 39
-155 49 -245 49 -440 0 -102 -6 -221 -13 -265 -36 -228 -127 -484 -237 -668
-146 -242 -399 -495 -641 -641 -184 -110 -440 -201 -668 -237 -103 -16 -427
-16 -530 0 -228 36 -484 127 -668 237 -240 145 -495 400 -640 641 -81 133
-159 325 -202 492 l-24 94 372 -370 c391 -389 408 -403 477 -388 40 9 88 58
95 99 4 18 1 46 -7 64 -11 28 -978 1008 -1033 1048 -34 24 -97 18 -141 -15
-21 -16 -256 -246 -520 -512 -503 -505 -516 -520 -499 -586 16 -67 79 -110
143 -98 32 5 93 62 443 412 224 223 409 401 411 397 3 -5 9 -31 12 -59 4 -27
20 -102 36 -165 184 -731 759 -1306 1490 -1490 197 -49 316 -64 520 -64 562 0
1078 212 1470 604 392 392 604 908 604 1470 0 562 -212 1078 -604 1470 -316
315 -715 515 -1165 584 -118 18 -312 28 -340 18z"/>
<path d="M4171 5102 c-19 -10 -43 -34 -53 -53 -17 -32 -18 -84 -18 -1034 0
-950 1 -1002 18 -1034 10 -19 34 -43 53 -53 32 -17 115 -18 2014 -18 1899 0
1982 1 2014 18 19 10 43 34 53 53 17 32 18 84 18 1034 0 950 -1 1002 -18 1034
-10 19 -34 43 -53 53 -32 17 -115 18 -2014 18 -1899 0 -1982 -1 -2014 -18z
m1889 -1087 l0 -855 -855 0 -855 0 0 855 0 855 855 0 855 0 0 -855z m1960 0
l0 -855 -855 0 -855 0 0 855 0 855 855 0 855 0 0 -855z"/>
</g>
</svg>
