<?xml version="1.0" standalone="no"?>
<!DOCTYPE svg PUBLIC "-//W3C//DTD SVG 20010904//EN"
 "http://www.w3.org/TR/2001/REC-SVG-20010904/DTD/svg10.dtd">
<svg version="1.0" xmlns="http://www.w3.org/2000/svg"
 width="1530pt" height="1000pt" viewBox="0 0 1530 1000"
 preserveAspectRatio="xMidYMid meet">
<metadata>
Created by potrace 1.9, written by Peter Selinger 2001-2010
</metadata>
<g transform="translate(0,1000) scale(0.100000,-0.100000)"
fill="#000000" stroke="none">
<path d="M2701 6083 c-19 -9 -46 -36 -60 -59 -14 -23 -123 -236 -241 -473
l-215 -431 -460 0 c-515 0 -508 1 -547 -71 -23 -42 -23 -66 0 -108 38 -71 40
-71 484 -71 l398 0 -427 -855 -428 -855 -460 0 c-515 0 -508 1 -547 -71 -23
-42 -23 -66 0 -108 38 -71 40 -71 484 -71 l398 0 -200 -400 c-110 -219 -202
-416 -205 -437 -11 -74 61 -150 132 -139 69 10 74 18 319 508 l234 468 840 0
840 0 -200 -400 c-110 -219 -202 -416 -205 -437 -11 -74 61 -150 132 -139 69
10 74 18 319 508 l234 468 463 0 c517 0 510 -1 549 71 23 42 23 66 0 108 -38
71 -40 71 -484 71 -219 0 -398 2 -398 5 0 3 191 388 425 855 l425 850 463 0
c429 0 465 1 496 18 36 19 71 72 71 107 0 35 -35 88 -71 107 -31 17 -65 18
-431 18 -219 0 -398 2 -398 5 0 2 92 189 205 415 113 226 205 421 205 433 0
65 -76 133 -138 123 -73 -11 -79 -21 -325 -512 l-232 -464 -837 0 c-461 0
-838 2 -838 5 0 2 92 189 205 415 113 226 205 421 205 433 0 37 -34 89 -71
109 -41 22 -64 22 -108 1z m892 -2068 l-428 -855 -837 0 c-461 0 -838 2 -838
5 0 3 191 388 425 855 l425 850 840 0 840 0 -427 -855z"/>
<path d="M6131 6082 c-19 -10 -43 -34 -53 -53 -17 -32 -18 -115 -18 -2014 0
-1899 1 -1982 18 -2014 19 -35 72 -71 105 -71 31 0 85 30 104 58 17 25 18 66
23 532 l5 505 44 -75 c120 -204 334 -445 516 -580 385 -286 797 -424 1265
-424 204 0 323 15 520 64 528 133 988 477 1266 948 l49 82 5 -512 c5 -474 6
-515 23 -540 19 -28 73 -58 104 -58 33 0 86 36 105 71 17 32 18 115 18 2014 0
1899 -1 1982 -18 2014 -19 35 -72 71 -105 71 -31 0 -85 -30 -104 -58 -17 -25
-18 -66 -23 -535 l-5 -507 -49 82 c-278 471 -738 815 -1266 948 -197 49 -316
64 -520 64 -204 0 -323 -15 -520 -64 -526 -133 -990 -478 -1261 -940 l-44 -75
-5 500 c-6 556 -3 535 -75 569 -43 21 -63 20 -104 -2z m1889 -1165 c0 -874 1
-924 18 -956 10 -19 34 -43 53 -53 32 -17 82 -18 951 -18 l918 0 0 -36 c0
-143 -76 -420 -170 -622 -142 -302 -420 -607 -717 -786 -184 -110 -440 -201
-668 -237 -103 -16 -427 -16 -530 0 -228 36 -484 127 -668 237 -240 145 -495
400 -640 641 -111 184 -202 440 -238 668 -7 44 -13 163 -13 265 0 102 6 221
13 265 36 228 127 484 237 668 146 242 399 495 641 641 218 130 561 241 761
245 l52 1 0 -923z m393 912 c215 -32 478 -126 660 -235 297 -179 575 -484 717
-786 96 -205 170 -479 170 -627 l0 -41 -845 0 -845 0 0 850 0 850 36 0 c19 0
68 -5 107 -11z"/>
<path d="M11031 4122 c-36 -19 -71 -73 -71 -107 1 -57 49 -111 531 -591 522
-520 527 -524 602 -509 25 6 137 112 545 518 358 358 515 522 523 544 6 18 8
47 4 63 -8 39 -56 87 -95 95 -70 15 -82 6 -558 -469 l-452 -451 -453 452
c-248 249 -465 457 -480 463 -39 14 -57 13 -96 -8z"/>
<path d="M11897 2659 c-338 -39 -643 -180 -875 -404 -70 -67 -95 -99 -101
-125 -21 -96 61 -174 154 -149 22 6 66 39 118 87 150 142 262 212 438 276 158
57 233 69 424 69 191 0 266 -12 424 -69 120 -44 226 -100 316 -169 91 -69 120
-101 135 -149 29 -90 294 -283 514 -372 461 -188 991 -134 1410 143 100 67
215 165 240 205 9 14 16 47 16 72 0 39 -5 51 -35 81 -30 30 -42 35 -81 35 -48
0 -104 -30 -154 -85 -106 -114 -365 -245 -575 -291 -98 -21 -377 -24 -475 -5
-173 34 -372 120 -505 219 -67 49 -83 66 -93 99 -25 83 -249 269 -457 379
-234 124 -567 185 -838 153z"/>
</g>
</svg>
