<?xml version="1.0" standalone="no"?>
<!DOCTYPE svg PUBLIC "-//W3C//DTD SVG 20010904//EN"
 "http://www.w3.org/TR/2001/REC-SVG-20010904/DTD/svg10.dtd">
<svg version="1.0" xmlns="http://www.w3.org/2000/svg"
 width="942pt" height="1000pt" viewBox="0 0 942 1000"
 preserveAspectRatio="xMidYMid meet">
<metadata>
Created by potrace 1.9, written by Peter Selinger 2001-2010
</metadata>
<g transform="translate(0,1000) scale(0.100000,-0.100000)"
fill="#000000" stroke="none">
<path d="M5055 6094 c-684 -55 -1279 -418 -1631 -994 -199 -327 -298 -686
-298 -1080 0 -204 15 -323 64 -520 204 -811 885 -1420 1715 -1534 277 -38 312
-38 590 0 752 103 1394 621 1655 1334 56 155 120 448 120 554 l0 36 772 0 773
0 -387 -387 c-405 -408 -418 -423 -403 -493 8 -39 56 -87 95 -95 16 -4 45 -2
63 4 22 8 186 165 544 523 544 546 538 538 514 611 -8 22 -165 186 -523 544
-445 444 -518 513 -550 518 -64 12 -127 -31 -143 -98 -17 -64 1 -86 403 -489
l387 -388 -773 0 -772 0 0 41 c0 110 -63 401 -120 559 -101 276 -275 546 -489
759 -372 369 -872 581 -1407 595 -82 2 -171 2 -199 0z m25 -2074 l0 -1820 -41
0 c-193 0 -553 115 -772 246 -240 145 -495 400 -640 641 -111 184 -202 440
-238 668 -7 44 -13 163 -13 265 0 102 6 221 13 265 36 228 127 484 237 668
146 242 399 495 641 641 218 130 561 241 761 245 l52 1 0 -1820z m393 1809
c215 -32 478 -126 660 -235 297 -179 575 -484 717 -786 96 -205 170 -479 170
-627 l0 -41 -845 0 -845 0 0 850 0 850 36 0 c19 0 68 -5 107 -11z m1547 -1975
c0 -143 -76 -420 -170 -622 -168 -358 -504 -694 -862 -862 -202 -94 -479 -170
-622 -170 l-36 0 0 845 0 845 845 0 845 0 0 -36z"/>
<path d="M238 4123 c-46 -29 -53 -56 -51 -182 2 -136 23 -282 63 -441 204
-811 885 -1420 1715 -1534 254 -35 315 -38 353 -18 19 10 43 33 54 52 17 33
18 82 18 1035 0 950 -1 1002 -18 1034 -10 19 -34 43 -53 53 -32 17 -84 18
-1044 18 -924 -1 -1012 -2 -1037 -17z m1902 -1078 l0 -845 -41 0 c-148 0 -422
74 -627 170 -358 168 -694 504 -862 862 -94 202 -170 479 -170 622 l0 36 850
0 850 0 0 -845z"/>
</g>
</svg>
