<?xml version="1.0" standalone="no"?>
<!DOCTYPE svg PUBLIC "-//W3C//DTD SVG 20010904//EN"
 "http://www.w3.org/TR/2001/REC-SVG-20010904/DTD/svg10.dtd">
<svg version="1.0" xmlns="http://www.w3.org/2000/svg"
 width="1334pt" height="1000pt" viewBox="0 0 1334 1000"
 preserveAspectRatio="xMidYMid meet">
<metadata>
Created by potrace 1.9, written by Peter Selinger 2001-2010
</metadata>
<g transform="translate(0,1000) scale(0.100000,-0.100000)"
fill="#000000" stroke="none">
<path d="M2212 8044 c-18 -9 -41 -29 -51 -43 -41 -58 -1971 -3933 -1976 -3968
-8 -49 19 -100 66 -125 31 -17 65 -18 431 -18 l398 0 -445 -890 c-246 -492
-447 -906 -450 -927 -8 -49 19 -100 66 -125 32 -17 115 -18 2014 -18 1899 0
1982 1 2014 18 37 20 71 72 71 109 0 12 -202 428 -450 923 -247 495 -450 902
-450 905 0 3 179 5 398 5 366 0 400 1 431 18 37 20 71 72 71 109 0 13 -447
918 -994 2011 -764 1527 -1000 1993 -1021 2006 -39 25 -85 29 -123 10z m932
-2151 l876 -1753 -350 0 -350 0 -479 958 c-377 753 -485 963 -508 978 -15 10
-46 19 -68 19 -85 0 -63 38 -583 -1001 l-477 -954 -347 0 c-192 0 -348 2 -348
5 0 10 1751 3507 1754 3504 2 -2 398 -793 880 -1756z m-877 -3711 c-963 -1
-1752 0 -1754 2 -2 2 390 793 873 1757 l877 1754 877 -1755 878 -1755 -1751
-3z"/>
<path d="M7015 6094 c-684 -55 -1279 -418 -1631 -994 -199 -327 -298 -686
-298 -1080 0 -204 15 -323 64 -520 184 -731 759 -1306 1490 -1490 197 -49 316
-64 520 -64 557 0 1074 211 1461 595 398 396 613 914 613 1479 0 204 -15 323
-64 520 -165 656 -654 1197 -1290 1430 -108 39 -286 84 -416 104 -102 16 -357
27 -449 20z m418 -265 c215 -32 478 -126 660 -235 240 -145 495 -400 640 -641
111 -184 202 -440 238 -668 7 -44 13 -163 13 -265 0 -195 -10 -285 -49 -440
-84 -332 -244 -610 -494 -859 -240 -238 -514 -393 -841 -476 -155 -39 -245
-49 -440 -49 -195 0 -285 10 -440 49 -327 83 -601 238 -841 476 -207 206 -342
416 -439 679 -76 209 -104 374 -104 620 0 195 10 285 49 440 84 331 239 604
485 850 318 317 699 495 1150 534 73 6 334 -3 413 -15z"/>
<path d="M7105 5591 c-27 -13 -201 -180 -531 -512 -513 -516 -526 -530 -509
-596 16 -67 79 -110 143 -98 32 5 98 68 494 463 l458 457 452 -452 c473 -470
490 -485 555 -468 67 16 110 79 98 143 -5 32 -74 104 -513 546 -290 290 -521
514 -539 522 -42 18 -60 17 -108 -5z"/>
<path d="M10910 6084 c-194 -35 -394 -125 -531 -240 -290 -242 -446 -650 -384
-1003 49 -279 185 -523 384 -685 138 -113 340 -206 514 -236 l67 -12 0 -937
c0 -888 1 -938 18 -970 19 -36 72 -71 107 -71 34 0 87 35 105 68 12 22 19 69
24 149 12 204 44 361 106 533 97 264 227 466 430 670 246 246 521 402 850 484
128 32 147 35 329 50 88 8 166 19 178 26 72 45 69 172 -5 212 -60 31 -354 5
-582 -52 -526 -133 -990 -478 -1261 -940 l-44 -75 -3 424 c-1 233 -1 425 1
427 1 2 38 10 81 19 458 95 788 441 871 916 61 347 -93 758 -373 994 -241 203
-592 302 -882 249z m400 -269 c176 -56 318 -152 431 -291 68 -83 117 -178 155
-299 26 -80 29 -104 29 -225 0 -121 -3 -145 -29 -225 -93 -295 -290 -493 -586
-591 -77 -25 -98 -28 -230 -28 -132 0 -153 3 -230 28 -179 59 -319 154 -431
292 -68 82 -117 177 -155 299 -26 82 -29 103 -28 230 0 126 3 149 28 225 95
288 291 488 567 579 106 35 147 40 274 37 97 -3 137 -9 205 -31z"/>
</g>
</svg>
