<?xml version="1.0" standalone="no"?>
<!DOCTYPE svg PUBLIC "-//W3C//DTD SVG 20010904//EN"
 "http://www.w3.org/TR/2001/REC-SVG-20010904/DTD/svg10.dtd">
<svg version="1.0" xmlns="http://www.w3.org/2000/svg"
 width="1824pt" height="1000pt" viewBox="0 0 1824 1000"
 preserveAspectRatio="xMidYMid meet">
<metadata>
Created by potrace 1.9, written by Peter Selinger 2001-2010
</metadata>
<g transform="translate(0,1000) scale(0.100000,-0.100000)"
fill="#000000" stroke="none">
<path d="M2212 8044 c-18 -9 -41 -29 -51 -43 -41 -58 -1971 -3933 -1976 -3968
-8 -49 19 -100 66 -125 31 -17 65 -18 431 -18 l398 0 -445 -890 c-246 -492
-447 -906 -450 -927 -8 -49 19 -100 66 -125 32 -17 115 -18 2014 -18 1899 0
1982 1 2014 18 37 20 71 72 71 109 0 12 -202 428 -450 923 -247 495 -450 902
-450 905 0 3 179 5 398 5 366 0 400 1 431 18 37 20 71 72 71 109 0 13 -447
918 -994 2011 -764 1527 -1000 1993 -1021 2006 -39 25 -85 29 -123 10z m932
-2151 l876 -1753 -350 0 -350 0 -479 958 c-377 753 -485 963 -508 978 -15 10
-46 19 -68 19 -85 0 -63 38 -583 -1001 l-477 -954 -347 0 c-192 0 -348 2 -348
5 0 10 1751 3507 1754 3504 2 -2 398 -793 880 -1756z m-877 -3711 c-963 -1
-1752 0 -1754 2 -2 2 390 793 873 1757 l877 1754 877 -1755 878 -1755 -1751
-3z"/>
<path d="M7015 6094 c-684 -55 -1279 -418 -1631 -994 -199 -327 -298 -686
-298 -1080 0 -204 15 -323 64 -520 184 -731 759 -1306 1490 -1490 197 -49 316
-64 520 -64 557 0 1074 211 1461 595 398 396 613 914 613 1479 0 204 -15 323
-64 520 -165 656 -654 1197 -1290 1430 -108 39 -286 84 -416 104 -102 16 -357
27 -449 20z m418 -265 c215 -32 478 -126 660 -235 240 -145 495 -400 640 -641
111 -184 202 -440 238 -668 7 -44 13 -163 13 -265 0 -195 -10 -285 -49 -440
-84 -332 -244 -610 -494 -859 -240 -238 -514 -393 -841 -476 -155 -39 -245
-49 -440 -49 -195 0 -285 10 -440 49 -327 83 -601 238 -841 476 -207 206 -342
416 -439 679 -76 209 -104 374 -104 620 0 195 10 285 49 440 84 331 239 604
485 850 318 317 699 495 1150 534 73 6 334 -3 413 -15z"/>
<path d="M7105 5591 c-27 -13 -201 -180 -531 -512 -513 -516 -526 -530 -509
-596 16 -67 79 -110 143 -98 32 5 98 68 494 463 l458 457 452 -452 c473 -470
490 -485 555 -468 67 16 110 79 98 143 -5 32 -74 104 -513 546 -290 290 -521
514 -539 522 -42 18 -60 17 -108 -5z"/>
<path d="M12870 6084 c-122 -22 -238 -62 -349 -121 -308 -161 -509 -452 -568
-819 -16 -100 -16 -107 6 -249 39 -253 113 -563 175 -727 l26 -68 -37 20 c-37
20 -57 20 -1038 20 -950 0 -1002 -1 -1034 -18 -36 -19 -71 -72 -71 -107 0 -35
35 -88 71 -107 32 -17 84 -18 1034 -18 950 0 1002 1 1034 18 19 10 42 33 52
51 25 46 24 46 44 -6 9 -27 45 -106 78 -177 272 -581 682 -1095 1177 -1477
106 -82 381 -267 494 -332 62 -36 87 -25 399 182 586 387 1053 928 1379 1597
l70 144 911 0 912 0 -387 -387 c-405 -408 -418 -423 -403 -493 8 -39 56 -87
95 -95 16 -4 45 -2 63 4 22 8 186 165 544 523 544 546 538 538 514 611 -8 22
-165 186 -523 544 -445 444 -518 513 -550 518 -64 12 -127 -31 -143 -98 -17
-64 1 -86 403 -489 l387 -388 -863 0 c-586 0 -862 3 -862 10 0 6 7 27 16 48
43 104 127 453 163 677 20 125 19 131 -5 283 -77 488 -428 840 -920 926 -359
63 -766 -92 -1007 -382 -35 -42 -79 -105 -98 -139 -19 -35 -36 -63 -39 -63 -3
1 -24 33 -47 73 -209 364 -689 586 -1103 511z m400 -269 c353 -114 585 -399
619 -764 5 -54 15 -107 22 -119 43 -69 175 -69 218 0 7 12 17 65 22 119 17
179 89 357 197 484 115 137 243 222 422 281 77 25 98 28 230 28 132 0 153 -3
230 -28 183 -61 317 -152 431 -292 66 -80 115 -175 155 -294 25 -76 28 -100
28 -220 0 -110 -5 -159 -27 -265 -33 -153 -94 -372 -141 -505 l-33 -95 -829
-5 c-779 -5 -831 -6 -856 -23 -28 -19 -58 -73 -58 -104 0 -33 36 -86 71 -105
32 -17 77 -18 796 -18 420 0 763 -3 763 -7 0 -13 -149 -292 -204 -380 -268
-434 -652 -837 -1081 -1135 -139 -96 -215 -139 -236 -133 -27 9 -256 165 -359
244 -403 311 -780 745 -1005 1156 -227 415 -372 837 -440 1280 -20 130 -15
201 22 318 88 280 289 485 564 576 106 35 147 40 274 37 97 -3 136 -9 205 -31z"/>
</g>
</svg>
