<?xml version="1.0" standalone="no"?>
<!DOCTYPE svg PUBLIC "-//W3C//DTD SVG 20010904//EN"
 "http://www.w3.org/TR/2001/REC-SVG-20010904/DTD/svg10.dtd">
<svg version="1.0" xmlns="http://www.w3.org/2000/svg"
 width="1530pt" height="1000pt" viewBox="0 0 1530 1000"
 preserveAspectRatio="xMidYMid meet">
<metadata>
Created by potrace 1.9, written by Peter Selinger 2001-2010
</metadata>
<g transform="translate(0,1000) scale(0.100000,-0.100000)"
fill="#000000" stroke="none">
<path d="M6017 4619 c-338 -39 -643 -180 -875 -404 -70 -67 -95 -99 -101 -125
-21 -96 61 -174 154 -149 22 6 66 39 118 87 150 142 262 212 438 276 158 57
233 69 424 69 191 0 266 -12 424 -69 120 -44 226 -100 316 -169 91 -69 120
-101 135 -149 29 -90 294 -283 514 -372 461 -188 991 -134 1410 143 100 67
215 165 240 205 9 14 16 47 16 72 0 39 -5 51 -35 81 -30 30 -42 35 -81 35 -48
0 -104 -30 -154 -85 -106 -114 -365 -245 -575 -291 -98 -21 -377 -24 -475 -5
-173 34 -372 120 -505 219 -67 49 -83 66 -93 99 -25 83 -249 269 -457 379
-234 124 -567 185 -838 153z"/>
<path d="M251 4122 c-36 -19 -71 -72 -71 -107 0 -35 35 -88 71 -107 31 -17 65
-18 431 -18 l398 0 -445 -890 c-246 -492 -447 -906 -450 -927 -16 -104 101
-175 190 -117 20 13 134 232 467 898 l440 881 439 -877 c478 -955 459 -923
544 -923 22 0 53 9 68 19 23 15 124 209 469 900 l440 881 438 -874 c321 -643
445 -881 466 -898 78 -62 184 -20 201 81 4 27 -61 164 -446 934 -248 496 -451
904 -451 907 0 3 179 5 398 5 366 0 400 1 431 18 36 19 71 72 71 107 0 35 -35
88 -71 107 -32 17 -115 18 -2014 18 -1899 0 -1982 -1 -2014 -18z m2403 -1004
c-212 -425 -388 -775 -390 -777 -3 -3 -774 1534 -774 1544 0 3 349 5 775 5
l775 0 -386 -772z"/>
<path d="M11915 4134 c-684 -55 -1279 -418 -1631 -994 -143 -235 -234 -491
-279 -780 -21 -137 -25 -328 -7 -362 40 -74 167 -77 212 -5 7 12 18 90 26 178
15 182 18 201 50 329 82 329 238 604 484 850 246 246 519 401 850 485 155 39
245 49 440 49 195 0 285 -10 440 -49 331 -84 604 -239 850 -485 241 -242 401
-519 481 -835 11 -44 22 -89 26 -100 3 -11 -165 150 -373 357 -415 413 -411
409 -487 373 -61 -29 -87 -88 -67 -152 17 -53 973 -1015 1039 -1045 88 -40 61
-62 629 505 358 358 515 522 523 544 6 18 8 47 4 63 -8 39 -56 87 -95 95 -70
15 -85 3 -506 -417 -318 -316 -403 -397 -407 -382 -3 11 -9 39 -12 64 -11 77
-63 271 -95 360 -207 565 -665 1023 -1230 1230 -108 39 -286 84 -416 104 -102
16 -357 27 -449 20z"/>
<path d="M5151 2162 c-36 -19 -71 -72 -71 -107 0 -35 35 -88 71 -107 32 -17
115 -18 2014 -18 1899 0 1982 1 2014 18 36 19 71 72 71 107 0 35 -35 88 -71
107 -32 17 -115 18 -2014 18 -1899 0 -1982 -1 -2014 -18z"/>
</g>
</svg>
