<?xml version="1.0" standalone="no"?>
<!DOCTYPE svg PUBLIC "-//W3C//DTD SVG 20010904//EN"
 "http://www.w3.org/TR/2001/REC-SVG-20010904/DTD/svg10.dtd">
<svg version="1.0" xmlns="http://www.w3.org/2000/svg"
 width="403pt" height="1000pt" viewBox="0 0 403 1000"
 preserveAspectRatio="xMidYMid meet">
<metadata>
Created by potrace 1.9, written by Peter Selinger 2001-2010
</metadata>
<g transform="translate(0,1000) scale(0.100000,-0.100000)"
fill="#000000" stroke="none">
<path d="M251 5102 c-19 -10 -43 -34 -53 -53 -17 -32 -18 -84 -18 -1034 0
-950 1 -1002 18 -1034 10 -19 34 -43 53 -53 32 -17 84 -18 1034 -18 950 0
1002 1 1034 18 19 10 43 34 53 53 17 32 18 84 18 1034 0 950 -1 1002 -18 1034
-10 19 -34 43 -53 53 -32 17 -84 18 -1034 18 -950 0 -1002 -1 -1034 -18z
m1889 -1087 l0 -855 -855 0 -855 0 0 855 0 855 855 0 855 0 0 -855z"/>
<path d="M3675 5101 c-26 -12 -208 -188 -531 -512 -535 -538 -529 -530 -504
-613 10 -35 85 -115 503 -535 519 -520 542 -540 613 -527 41 8 90 56 99 96 4
16 2 45 -4 62 -8 23 -151 173 -466 488 l-455 455 459 460 c503 504 493 491
456 568 -32 67 -102 91 -170 58z"/>
</g>
</svg>
