<?xml version="1.0" standalone="no"?>
<!DOCTYPE svg PUBLIC "-//W3C//DTD SVG 20010904//EN"
 "http://www.w3.org/TR/2001/REC-SVG-20010904/DTD/svg10.dtd">
<svg version="1.0" xmlns="http://www.w3.org/2000/svg"
 width="354pt" height="1000pt" viewBox="0 0 354 1000"
 preserveAspectRatio="xMidYMid meet">
<metadata>
Created by potrace 1.9, written by Peter Selinger 2001-2010
</metadata>
<g transform="translate(0,1000) scale(0.100000,-0.100000)"
fill="#000000" stroke="none">
<path d="M3095 6094 c-169 -13 -419 -67 -575 -124 -565 -207 -1023 -665 -1230
-1230 -58 -161 -120 -449 -120 -562 l0 -45 -70 -12 c-177 -29 -385 -124 -521
-237 -290 -242 -446 -650 -384 -1003 49 -279 185 -523 384 -685 188 -154 467
-256 701 -256 239 0 523 106 712 265 280 236 434 647 373 994 -62 352 -254
632 -543 792 -125 69 -207 99 -374 134 -26 5 -28 9 -28 51 0 198 113 556 246
777 146 242 399 495 641 641 135 81 328 159 493 200 128 32 147 35 329 50 88
8 166 19 178 26 70 44 69 166 -1 210 -22 14 -124 20 -211 14z m-1585 -2239
c176 -56 318 -152 431 -291 68 -83 117 -178 155 -299 26 -80 29 -104 29 -225
0 -121 -3 -145 -29 -225 -93 -295 -290 -493 -586 -591 -77 -25 -98 -28 -230
-28 -132 0 -153 3 -230 28 -179 59 -319 154 -431 292 -68 82 -117 177 -155
299 -26 82 -29 103 -28 230 0 126 3 149 28 225 95 288 291 488 567 579 106 35
147 40 274 37 97 -3 137 -9 205 -31z"/>
</g>
</svg>
