<?xml version="1.0" standalone="no"?>
<!DOCTYPE svg PUBLIC "-//W3C//DTD SVG 20010904//EN"
 "http://www.w3.org/TR/2001/REC-SVG-20010904/DTD/svg10.dtd">
<svg version="1.0" xmlns="http://www.w3.org/2000/svg"
 width="501pt" height="1000pt" viewBox="0 0 501 1000"
 preserveAspectRatio="xMidYMid meet">
<metadata>
Created by potrace 1.9, written by Peter Selinger 2001-2010
</metadata>
<g transform="translate(0,1000) scale(0.100000,-0.100000)"
fill="#000000" stroke="none">
<path d="M251 6082 c-36 -19 -71 -73 -71 -107 1 -60 52 -114 999 -1060 l961
-960 0 -960 c0 -911 1 -962 18 -994 19 -36 72 -71 107 -71 35 0 88 35 107 71
17 32 18 84 18 1032 0 834 -2 1003 -14 1030 -18 42 -1991 2013 -2029 2027 -39
14 -57 13 -96 -8z"/>
<path d="M4655 6081 c-57 -27 -1989 -1962 -2010 -2013 -13 -33 -15 -161 -15
-1035 0 -948 1 -1000 18 -1032 19 -36 72 -71 107 -71 35 0 88 35 107 71 17 32
18 83 18 999 l0 965 974 975 c1067 1067 1009 1003 971 1083 -32 67 -102 91
-170 58z"/>
</g>
</svg>
