<?xml version="1.0" standalone="no"?>
<!DOCTYPE svg PUBLIC "-//W3C//DTD SVG 20010904//EN"
 "http://www.w3.org/TR/2001/REC-SVG-20010904/DTD/svg10.dtd">
<svg version="1.0" xmlns="http://www.w3.org/2000/svg"
 width="501pt" height="1000pt" viewBox="0 0 501 1000"
 preserveAspectRatio="xMidYMid meet">
<metadata>
Created by potrace 1.9, written by Peter Selinger 2001-2010
</metadata>
<g transform="translate(0,1000) scale(0.100000,-0.100000)"
fill="#000000" stroke="none">
<path d="M4655 6081 c-26 -12 -208 -188 -531 -512 -535 -538 -529 -530 -504
-613 10 -35 85 -115 503 -535 519 -520 542 -540 613 -527 41 8 90 56 99 96 4
16 2 45 -4 62 -8 23 -151 173 -466 488 l-455 455 459 460 c503 504 493 491
456 568 -32 67 -102 91 -170 58z"/>
<path d="M1241 5123 c-45 -9 -140 -122 -196 -233 -117 -232 -121 -477 -10
-732 7 -17 -15 -18 -372 -18 -423 0 -427 -1 -465 -71 -23 -42 -23 -66 0 -108
38 -71 40 -71 484 -71 l398 0 -445 -890 c-246 -492 -447 -906 -450 -927 -16
-104 101 -175 190 -117 20 13 134 232 467 898 l440 881 439 -877 c478 -955
459 -923 544 -923 22 0 53 9 68 19 23 15 124 209 469 900 l440 881 438 -874
c321 -643 445 -881 466 -898 78 -62 184 -20 201 81 4 27 -61 164 -446 934
-248 496 -451 904 -451 907 0 3 179 5 398 5 444 0 446 0 484 71 23 42 23 66 0
108 -39 72 -32 71 -553 71 l-467 0 -31 35 c-74 85 -115 205 -115 340 0 145 37
244 142 379 68 86 66 167 -4 213 -33 21 -104 21 -135 0 -39 -28 -116 -127
-155 -200 -126 -241 -133 -487 -19 -749 7 -17 -13 -18 -328 -18 l-335 0 -31
35 c-74 85 -115 205 -115 340 0 145 37 244 142 379 68 86 66 167 -4 213 -33
21 -104 21 -135 0 -39 -28 -116 -127 -155 -200 -126 -241 -133 -487 -19 -749
7 -17 -13 -18 -328 -18 l-335 0 -31 35 c-74 85 -115 205 -115 340 0 145 37
244 142 379 29 36 46 69 49 94 12 86 -65 152 -156 135z m1413 -2005 c-212
-425 -388 -775 -390 -777 -3 -3 -774 1534 -774 1544 0 3 349 5 775 5 l775 0
-386 -772z"/>
</g>
</svg>
