<?xml version="1.0" standalone="no"?>
<!DOCTYPE svg PUBLIC "-//W3C//DTD SVG 20010904//EN"
 "http://www.w3.org/TR/2001/REC-SVG-20010904/DTD/svg10.dtd">
<svg version="1.0" xmlns="http://www.w3.org/2000/svg"
 width="452pt" height="1000pt" viewBox="0 0 452 1000"
 preserveAspectRatio="xMidYMid meet">
<metadata>
Created by potrace 1.9, written by Peter Selinger 2001-2010
</metadata>
<g transform="translate(0,1000) scale(0.100000,-0.100000)"
fill="#000000" stroke="none">
<path d="M4165 6081 c-26 -12 -203 -183 -510 -490 l-470 -471 -960 0 c-911 0
-962 -1 -994 -18 -19 -10 -43 -34 -53 -53 -17 -32 -18 -83 -18 -994 l0 -960
-138 -138 -138 -138 -20 23 c-39 43 -140 183 -178 245 -81 135 -159 328 -200
493 -32 128 -35 147 -50 329 -8 88 -19 166 -26 178 -45 72 -172 69 -212 -5
-18 -34 -14 -225 7 -362 58 -372 189 -681 417 -979 l80 -104 -250 -251 c-259
-261 -283 -292 -267 -353 16 -67 79 -110 143 -98 31 5 77 46 298 266 231 230
262 258 274 244 21 -26 206 -157 302 -214 316 -189 673 -285 1058 -285 557 0
1074 211 1461 595 322 320 523 719 594 1179 21 137 25 328 7 362 -40 74 -167
77 -212 5 -7 -12 -18 -90 -26 -178 -15 -182 -18 -201 -50 -329 -41 -166 -119
-358 -201 -493 -145 -241 -400 -496 -640 -641 -184 -110 -440 -201 -668 -237
-103 -16 -427 -16 -530 0 -228 36 -484 127 -668 237 -73 44 -242 167 -252 184
-5 8 42 62 126 146 l134 134 965 0 c916 0 967 1 999 18 19 10 43 34 53 53 17
32 18 83 18 999 l0 965 484 485 c531 531 518 516 481 593 -32 67 -102 91 -170
58z m-1235 -1214 c0 -1 -342 -344 -760 -762 l-760 -760 0 763 0 762 760 0
c418 0 760 -1 760 -3z m190 -942 l0 -765 -767 0 -768 0 765 765 c421 421 766
765 767 765 2 0 3 -344 3 -765z"/>
</g>
</svg>
