<?xml version="1.0" standalone="no"?>
<!DOCTYPE svg PUBLIC "-//W3C//DTD SVG 20010904//EN"
 "http://www.w3.org/TR/2001/REC-SVG-20010904/DTD/svg10.dtd">
<svg version="1.0" xmlns="http://www.w3.org/2000/svg"
 width="942pt" height="1000pt" viewBox="0 0 942 1000"
 preserveAspectRatio="xMidYMid meet">
<metadata>
Created by potrace 1.9, written by Peter Selinger 2001-2010
</metadata>
<g transform="translate(0,1000) scale(0.100000,-0.100000)"
fill="#000000" stroke="none">
<path d="M7112 6083 c-18 -9 -41 -28 -51 -42 -41 -58 -1971 -3933 -1976 -3968
-8 -49 19 -100 66 -125 32 -17 84 -18 1034 -18 950 0 1002 1 1034 18 36 19 71
72 71 107 0 35 -35 88 -71 107 -32 17 -81 18 -921 18 -489 0 -888 2 -888 5 0
3 423 851 940 1885 517 1034 940 1890 940 1903 0 37 -34 89 -71 109 -41 22
-64 22 -107 1z"/>
<path d="M8091 5102 c-19 -10 -43 -34 -53 -53 -17 -32 -18 -77 -18 -789 0
-712 1 -757 18 -789 19 -36 72 -71 107 -71 35 0 88 35 107 71 17 32 18 77 18
789 0 712 -1 757 -18 789 -19 36 -72 71 -107 71 -11 0 -36 -8 -54 -18z"/>
<path d="M4075 4134 c-169 -13 -419 -67 -575 -124 -565 -207 -1023 -665 -1230
-1230 -57 -158 -120 -449 -120 -559 l0 -41 -933 0 c-884 0 -934 -1 -966 -18
-36 -19 -71 -72 -71 -107 0 -35 35 -88 71 -107 32 -17 73 -18 674 -18 l640 0
-42 -36 c-73 -61 -170 -187 -226 -295 -117 -222 -160 -461 -122 -678 50 -285
189 -528 395 -694 99 -79 274 -169 397 -203 88 -24 100 -25 315 -22 220 4 224
4 318 36 400 135 670 455 745 883 56 318 -65 687 -306 931 l-77 78 641 0 c603
0 644 1 676 18 36 19 71 72 71 107 0 35 -35 88 -71 107 -32 17 -82 18 -956 18
l-923 0 0 41 c0 100 46 310 100 459 97 264 227 466 430 670 246 246 521 402
850 484 128 32 147 35 329 50 88 8 166 19 178 26 70 44 69 166 -1 210 -22 14
-124 20 -211 14z m-2179 -2366 c-146 -288 -197 -624 -141 -937 31 -176 85
-335 159 -464 24 -42 42 -77 39 -77 -22 0 -174 92 -229 139 -137 115 -223 246
-280 426 -26 82 -29 103 -28 230 0 126 3 149 28 225 61 182 152 317 292 431
51 42 175 117 211 129 0 0 -22 -46 -51 -102z m491 -105 c50 -96 97 -226 120
-335 21 -100 24 -368 4 -468 -32 -164 -119 -371 -207 -491 l-49 -67 -42 58
c-93 125 -173 311 -210 482 -24 115 -24 370 1 488 34 163 119 359 209 481 l42
57 46 -63 c25 -35 64 -99 86 -142z m263 167 c146 -77 291 -223 363 -365 19
-39 48 -111 63 -160 26 -80 29 -104 29 -225 0 -121 -3 -145 -29 -225 -57 -180
-143 -311 -280 -426 -62 -53 -208 -139 -235 -139 -5 0 5 26 24 58 108 180 177
426 191 677 14 240 -53 539 -166 753 -28 50 -47 92 -44 92 3 0 41 -18 84 -40z"/>
<path d="M8103 3173 c-33 -6 -79 -57 -86 -92 -26 -127 122 -210 212 -120 43
42 49 93 18 156 -20 42 -87 68 -144 56z"/>
<path d="M5151 1182 c-36 -19 -71 -72 -71 -107 0 -35 35 -88 71 -107 32 -17
84 -18 1034 -18 950 0 1002 1 1034 18 36 19 71 72 71 107 0 35 -35 88 -71 107
-32 17 -84 18 -1034 18 -950 0 -1002 -1 -1034 -18z"/>
</g>
</svg>
