<?xml version="1.0" standalone="no"?>
<!DOCTYPE svg PUBLIC "-//W3C//DTD SVG 20010904//EN"
 "http://www.w3.org/TR/2001/REC-SVG-20010904/DTD/svg10.dtd">
<svg version="1.0" xmlns="http://www.w3.org/2000/svg"
 width="256pt" height="1000pt" viewBox="0 0 256 1000"
 preserveAspectRatio="xMidYMid meet">
<metadata>
Created by potrace 1.9, written by Peter Selinger 2001-2010
</metadata>
<g transform="translate(0,1000) scale(0.100000,-0.100000)"
fill="#000000" stroke="none">
<path d="M1225 6081 c-27 -13 -201 -180 -531 -512 -513 -516 -526 -530 -509
-596 16 -67 79 -110 143 -98 32 5 92 61 435 403 l397 397 0 -282 0 -281 -66
-11 c-176 -31 -381 -125 -515 -237 -290 -242 -446 -650 -384 -1003 49 -279
185 -523 384 -685 138 -113 340 -206 514 -236 l67 -12 0 -447 c0 -499 -1 -495
71 -533 42 -23 66 -23 108 0 72 38 71 34 71 534 l0 447 38 6 c192 32 399 127
549 254 275 233 429 645 368 990 -78 447 -373 780 -790 895 -49 13 -107 27
-127 31 l-38 6 0 277 0 277 388 -387 c403 -402 425 -420 489 -403 67 16 110
79 98 143 -5 32 -74 104 -513 546 -290 290 -521 514 -539 522 -42 18 -60 17
-108 -5z m-65 -2061 c0 -727 -2 -840 -14 -840 -33 0 -186 54 -257 91 -144 75
-291 222 -362 364 -19 39 -48 111 -63 160 -26 82 -29 103 -28 230 0 126 3 149
28 225 16 47 44 117 63 155 70 140 221 293 358 363 71 36 225 91 258 92 16 0
17 -47 17 -840z m352 814 c173 -54 316 -151 429 -290 68 -83 117 -178 155
-299 26 -80 29 -104 29 -225 0 -121 -3 -145 -29 -225 -93 -295 -295 -498 -584
-589 -46 -14 -87 -26 -93 -26 -5 0 -9 317 -9 840 0 523 4 840 9 840 6 0 47
-12 93 -26z"/>
</g>
</svg>
