<?xml version="1.0" standalone="no"?>
<!DOCTYPE svg PUBLIC "-//W3C//DTD SVG 20010904//EN"
 "http://www.w3.org/TR/2001/REC-SVG-20010904/DTD/svg10.dtd">
<svg version="1.0" xmlns="http://www.w3.org/2000/svg"
 width="1138pt" height="1000pt" viewBox="0 0 1138 1000"
 preserveAspectRatio="xMidYMid meet">
<metadata>
Created by potrace 1.9, written by Peter Selinger 2001-2010
</metadata>
<g transform="translate(0,1000) scale(0.100000,-0.100000)"
fill="#000000" stroke="none">
<path d="M2211 6082 c-19 -10 -43 -34 -53 -53 -17 -32 -18 -81 -18 -921 0
-489 -2 -888 -5 -888 -3 0 -410 203 -905 450 -495 248 -911 450 -923 450 -65
0 -133 -75 -123 -138 11 -76 -10 -64 1002 -570 l954 -477 0 -950 c0 -901 1
-952 18 -984 10 -19 34 -43 53 -53 32 -17 115 -18 2014 -18 1899 0 1982 1
2014 18 19 10 43 34 53 53 17 32 18 81 18 921 l0 888 890 -445 c492 -246 906
-447 927 -450 104 -16 175 101 117 190 -13 20 -249 143 -976 506 l-958 479 0
953 c0 903 -1 954 -18 986 -10 19 -34 43 -53 53 -32 17 -115 18 -2014 18
-1899 0 -1982 -1 -2014 -18z m1009 -236 c0 -2 -33 -23 -72 -46 -280 -164 -544
-428 -708 -707 -23 -40 -44 -73 -46 -73 -2 0 -4 187 -4 415 l0 415 415 0 c228
0 415 -2 415 -4z m1273 -17 c215 -32 478 -126 660 -235 240 -145 495 -400 640
-641 78 -128 158 -323 198 -478 21 -81 50 -237 44 -243 -1 -2 -404 197 -894
442 -490 246 -902 446 -914 446 -37 0 -89 -34 -109 -71 -17 -32 -18 -81 -18
-921 0 -489 -2 -888 -5 -888 -3 0 -387 191 -854 425 l-850 424 5 58 c20 244
73 444 174 661 168 359 503 694 862 862 210 98 418 154 648 174 73 6 334 -3
413 -15z m1567 -406 c0 -234 -2 -424 -4 -422 -2 2 -29 46 -60 98 -173 286
-426 537 -703 701 -40 23 -73 44 -73 46 0 2 189 4 420 4 l420 0 0 -427z m-17
-1535 c-17 -230 -73 -441 -173 -656 -142 -302 -420 -607 -717 -786 -184 -110
-440 -201 -668 -237 -103 -16 -427 -16 -530 0 -228 36 -484 127 -668 237 -240
145 -495 400 -640 641 -78 128 -158 323 -198 478 -22 82 -49 235 -43 235 2 0
400 -198 884 -440 486 -243 896 -442 917 -445 49 -8 100 19 125 66 17 32 18
81 18 921 l0 888 849 -424 848 -425 -4 -53z m14 -1705 c-2 -2 -196 -2 -431 -1
l-426 3 82 49 c294 174 551 431 724 724 l49 82 3 -426 c1 -235 1 -429 -1 -431z
m-3617 765 c162 -276 416 -531 700 -703 52 -32 97 -59 99 -61 2 -2 -188 -4
-422 -4 l-427 0 0 420 c0 231 2 420 4 420 2 0 23 -33 46 -72z"/>
<path d="M10045 6081 c-27 -13 -201 -180 -531 -512 -513 -516 -526 -530 -509
-596 16 -67 79 -110 143 -98 32 5 92 61 435 403 l397 397 0 -282 0 -281 -66
-11 c-176 -31 -381 -125 -515 -237 -290 -242 -446 -650 -384 -1003 49 -279
185 -523 384 -685 138 -113 340 -206 514 -236 l67 -12 0 -447 c0 -499 -1 -495
71 -533 42 -23 66 -23 108 0 72 38 71 34 71 534 l0 447 38 6 c20 4 78 18 127
31 417 115 712 448 790 895 61 345 -93 757 -368 990 -150 127 -357 222 -549
254 l-38 6 0 277 0 277 388 -387 c403 -402 425 -420 489 -403 67 16 110 79 98
143 -5 32 -74 104 -513 546 -290 290 -521 514 -539 522 -42 18 -60 17 -108 -5z
m-65 -2061 c0 -727 -2 -840 -14 -840 -33 0 -186 54 -257 91 -144 75 -291 222
-362 364 -19 39 -48 111 -63 160 -26 82 -29 103 -28 230 0 126 3 149 28 225
16 47 44 117 63 155 70 140 221 293 358 363 71 36 225 91 258 92 16 0 17 -47
17 -840z m352 814 c173 -54 316 -151 429 -290 68 -83 117 -178 155 -299 26
-80 29 -104 29 -225 0 -121 -3 -145 -29 -225 -93 -295 -295 -498 -584 -589
-46 -14 -87 -26 -93 -26 -5 0 -9 317 -9 840 0 523 4 840 9 840 6 0 47 -12 93
-26z"/>
</g>
</svg>
