<?xml version="1.0" standalone="no"?>
<!DOCTYPE svg PUBLIC "-//W3C//DTD SVG 20010904//EN"
 "http://www.w3.org/TR/2001/REC-SVG-20010904/DTD/svg10.dtd">
<svg version="1.0" xmlns="http://www.w3.org/2000/svg"
 width="2118pt" height="1000pt" viewBox="0 0 2118 1000"
 preserveAspectRatio="xMidYMid meet">
<metadata>
Created by potrace 1.9, written by Peter Selinger 2001-2010
</metadata>
<g transform="translate(0,1000) scale(0.100000,-0.100000)"
fill="#000000" stroke="none">
<path d="M6125 6081 c-27 -13 -340 -320 -1000 -980 l-960 -961 -1940 0 c-1860
0 -1942 -1 -1974 -18 -36 -19 -71 -72 -71 -107 0 -35 35 -88 71 -107 31 -17
65 -18 431 -18 l398 0 -445 -890 c-246 -492 -447 -906 -450 -927 -16 -104 101
-175 190 -117 20 13 134 232 467 898 l440 881 439 -877 c478 -955 459 -923
544 -923 22 0 53 9 68 19 23 15 124 209 469 900 l440 881 438 -874 c321 -643
445 -881 466 -898 78 -62 184 -20 201 81 4 27 -61 164 -446 934 -248 496 -451
904 -451 907 0 3 177 5 394 5 250 0 405 4 423 10 16 6 439 422 970 953 l943
942 452 -451 c473 -471 490 -486 555 -469 67 16 110 79 98 143 -5 32 -74 104
-513 546 -290 290 -521 514 -539 522 -42 18 -60 17 -108 -5z m-3471 -2963
c-212 -425 -388 -775 -390 -777 -3 -3 -774 1534 -774 1544 0 3 349 5 775 5
l775 0 -386 -772z"/>
<path d="M18775 6094 c-684 -55 -1279 -418 -1631 -994 -67 -111 -139 -262
-179 -375 -15 -44 -31 -83 -34 -87 -3 -3 -52 -11 -109 -17 -362 -39 -663 -175
-905 -411 -76 -74 -97 -101 -97 -122 0 -22 -13 -38 -57 -73 -179 -142 -413
-235 -649 -257 -347 -33 -685 77 -942 305 -37 33 -82 66 -101 74 -97 41 -194
-51 -161 -152 30 -90 296 -282 514 -371 433 -177 942 -139 1338 99 169 102
313 224 324 276 9 42 17 53 94 118 161 135 404 239 614 261 l78 8 -6 -45 c-41
-286 -27 -546 44 -831 184 -730 759 -1306 1490 -1490 197 -49 316 -64 520 -64
557 0 1074 211 1461 595 398 396 613 914 613 1479 0 204 -15 323 -64 520 -165
656 -654 1197 -1290 1430 -108 39 -286 84 -416 104 -102 16 -357 27 -449 20z
m418 -265 c215 -32 478 -126 660 -235 240 -145 495 -400 640 -641 111 -184
202 -440 238 -668 7 -44 13 -163 13 -265 0 -195 -10 -285 -49 -440 -84 -332
-244 -610 -494 -859 -240 -238 -514 -393 -841 -476 -155 -39 -245 -49 -440
-49 -102 0 -221 6 -265 13 -228 36 -484 127 -668 237 -240 145 -495 400 -640
641 -111 184 -202 440 -238 668 -17 106 -17 417 0 528 l13 88 37 -7 c126 -21
299 -83 413 -148 78 -44 208 -142 207 -154 -6 -40 7 -62 79 -130 261 -248 574
-390 931 -423 261 -25 543 28 786 146 113 54 251 146 337 222 37 32 78 66 93
76 39 27 59 77 51 123 -6 32 -25 56 -104 134 -150 147 -346 268 -542 334 -334
111 -659 111 -990 -1 -149 -50 -306 -134 -425 -228 -22 -17 -45 -34 -51 -38
-7 -4 -34 10 -60 31 -195 152 -400 243 -671 298 l-22 4 19 55 c140 406 514
814 922 1005 210 98 418 154 648 174 73 6 334 -3 413 -15z m-29 -1474 c176
-36 368 -123 501 -228 87 -67 88 -61 -14 -136 -129 -95 -319 -180 -486 -217
-98 -21 -377 -24 -475 -5 -104 20 -218 59 -325 111 -108 52 -265 161 -265 184
0 19 129 116 220 165 131 70 295 123 432 141 100 12 317 4 412 -15z"/>
<path d="M9072 4124 c-18 -9 -41 -29 -51 -43 -41 -57 -991 -1973 -996 -2008
-16 -104 101 -175 190 -117 20 13 134 232 467 898 l440 881 438 -874 c321
-643 445 -881 466 -898 78 -62 184 -20 201 81 4 27 -69 179 -500 1042 -384
769 -512 1015 -532 1028 -39 25 -85 29 -123 10z"/>
<path d="M11031 4122 c-36 -19 -71 -72 -71 -107 0 -35 35 -88 71 -107 32 -17
84 -18 1034 -18 950 0 1002 1 1034 18 36 19 71 72 71 107 0 35 -35 88 -71 107
-32 17 -84 18 -1034 18 -950 0 -1002 -1 -1034 -18z"/>
</g>
</svg>
