<?xml version="1.0" standalone="no"?>
<!DOCTYPE svg PUBLIC "-//W3C//DTD SVG 20010904//EN"
 "http://www.w3.org/TR/2001/REC-SVG-20010904/DTD/svg10.dtd">
<svg version="1.0" xmlns="http://www.w3.org/2000/svg"
 width="1383pt" height="1000pt" viewBox="0 0 1383 1000"
 preserveAspectRatio="xMidYMid meet">
<metadata>
Created by potrace 1.9, written by Peter Selinger 2001-2010
</metadata>
<g transform="translate(0,1000) scale(0.100000,-0.100000)"
fill="#000000" stroke="none">
<path d="M2090 6084 c-270 -49 -508 -184 -674 -383 -113 -135 -208 -344 -237
-520 l-12 -68 -68 -12 c-176 -29 -385 -124 -520 -237 -290 -242 -446 -650
-384 -1003 49 -279 185 -523 384 -685 188 -154 467 -256 701 -256 239 0 523
106 712 265 280 236 434 647 373 994 -62 352 -254 632 -543 792 -125 69 -207
99 -374 134 -35 7 -35 21 -2 127 91 288 289 486 584 584 77 25 98 28 230 28
132 0 153 -3 230 -28 183 -61 317 -152 431 -292 66 -80 115 -175 155 -294 25
-76 28 -100 28 -220 0 -110 -5 -159 -27 -265 -116 -544 -340 -1056 -641 -1465
-324 -441 -698 -782 -1159 -1059 -93 -56 -127 -94 -127 -144 0 -76 66 -135
138 -123 39 6 169 80 347 200 768 512 1362 1337 1608 2232 66 241 129 576 120
644 -31 253 -83 411 -188 575 -222 347 -685 552 -1085 479z m-580 -1249 c176
-56 318 -152 431 -291 68 -83 117 -178 155 -299 26 -80 29 -104 29 -225 0
-121 -3 -145 -29 -225 -93 -295 -290 -493 -586 -591 -77 -25 -98 -28 -230 -28
-132 0 -153 3 -230 28 -179 59 -319 154 -431 292 -68 82 -117 177 -155 299
-26 82 -29 103 -28 230 0 126 3 149 28 225 95 288 291 488 567 579 106 35 147
40 274 37 97 -3 137 -9 205 -31z"/>
<path d="M6131 6082 c-19 -10 -43 -34 -53 -53 -17 -32 -18 -113 -18 -1941 l0
-1908 -928 0 c-879 0 -929 -1 -961 -18 -36 -19 -71 -72 -71 -107 0 -35 35 -88
71 -107 32 -17 115 -18 2014 -18 1899 0 1982 1 2014 18 36 19 71 72 71 107 0
35 -35 88 -71 107 -32 17 -82 18 -961 18 l-928 0 0 855 0 855 928 0 c879 0
929 1 961 18 19 10 43 34 53 53 17 32 18 84 18 1034 0 950 -1 1002 -18 1034
-10 19 -34 43 -53 53 -32 17 -84 18 -1034 18 -950 0 -1002 -1 -1034 -18z
m1889 -1087 l0 -855 -855 0 -855 0 0 855 0 855 855 0 855 0 0 -855z"/>
<path d="M9270 2705 l0 -647 303 5 c179 3 322 10 352 17 193 46 317 180 376
405 28 108 31 315 5 430 -48 213 -176 362 -351 411 -47 13 -126 17 -372 21
l-313 6 0 -648z m663 471 c59 -22 138 -98 172 -167 45 -87 57 -168 52 -329 -4
-122 -8 -157 -30 -217 -46 -133 -120 -207 -238 -238 -38 -11 -112 -15 -251
-15 l-198 0 0 496 0 496 223 -4 c182 -4 231 -8 270 -22z"/>
<path d="M10570 2705 l0 -645 475 0 475 0 0 75 0 75 -390 0 -390 0 0 220 0
220 350 0 350 0 0 75 0 75 -350 0 -350 0 0 200 0 200 375 0 375 0 0 75 0 75
-460 0 -460 0 0 -645z"/>
<path d="M11773 2898 c4 -369 7 -466 20 -522 48 -205 160 -299 388 -327 240
-29 444 53 524 212 53 104 57 147 62 637 l5 452 -86 0 -85 0 -3 -457 c-4 -519
-5 -528 -80 -609 -53 -57 -134 -84 -253 -84 -180 0 -281 73 -314 228 -7 35
-11 204 -11 487 l0 435 -86 0 -86 0 5 -452z"/>
</g>
</svg>
