<?xml version="1.0" standalone="no"?>
<!DOCTYPE svg PUBLIC "-//W3C//DTD SVG 20010904//EN"
 "http://www.w3.org/TR/2001/REC-SVG-20010904/DTD/svg10.dtd">
<svg version="1.0" xmlns="http://www.w3.org/2000/svg"
 width="991pt" height="1000pt" viewBox="0 0 991 1000"
 preserveAspectRatio="xMidYMid meet">
<metadata>
Created by potrace 1.9, written by Peter Selinger 2001-2010
</metadata>
<g transform="translate(0,1000) scale(0.100000,-0.100000)"
fill="#000000" stroke="none">
<path d="M2211 6082 c-19 -10 -43 -34 -53 -53 -17 -32 -18 -113 -18 -1941 l0
-1908 -928 0 c-879 0 -929 -1 -961 -18 -36 -19 -71 -72 -71 -107 0 -35 35 -88
71 -107 32 -17 115 -18 2014 -18 1899 0 1982 1 2014 18 36 19 71 72 71 107 0
35 -35 88 -71 107 -32 17 -82 18 -961 18 l-928 0 0 855 0 855 928 0 c879 0
929 1 961 18 19 10 43 34 53 53 17 32 18 84 18 1034 0 950 -1 1002 -18 1034
-10 19 -34 43 -53 53 -32 17 -84 18 -1034 18 -950 0 -1002 -1 -1034 -18z
m1889 -1087 l0 -855 -855 0 -855 0 0 855 0 855 855 0 855 0 0 -855z"/>
<path d="M5350 2705 l0 -647 303 5 c179 3 322 10 352 17 193 46 317 180 376
405 28 108 31 315 5 430 -48 213 -176 362 -351 411 -47 13 -126 17 -372 21
l-313 6 0 -648z m663 471 c59 -22 138 -98 172 -167 45 -87 57 -168 52 -329 -4
-122 -8 -157 -30 -217 -46 -133 -120 -207 -238 -238 -38 -11 -112 -15 -251
-15 l-198 0 0 496 0 496 223 -4 c182 -4 231 -8 270 -22z"/>
<path d="M6650 2705 l0 -645 475 0 475 0 0 75 0 75 -390 0 -390 0 0 220 0 220
350 0 350 0 0 75 0 75 -350 0 -350 0 0 200 0 200 375 0 375 0 0 75 0 75 -460
0 -460 0 0 -645z"/>
<path d="M7853 2898 c4 -369 7 -466 20 -522 48 -205 160 -299 388 -327 240
-29 444 53 524 212 53 104 57 147 62 637 l5 452 -86 0 -85 0 -3 -457 c-4 -519
-5 -528 -80 -609 -53 -57 -134 -84 -253 -84 -180 0 -281 73 -314 228 -7 35
-11 204 -11 487 l0 435 -86 0 -86 0 5 -452z"/>
</g>
</svg>
