<?xml version="1.0" standalone="no"?>
<!DOCTYPE svg PUBLIC "-//W3C//DTD SVG 20010904//EN"
 "http://www.w3.org/TR/2001/REC-SVG-20010904/DTD/svg10.dtd">
<svg version="1.0" xmlns="http://www.w3.org/2000/svg"
 width="452pt" height="1000pt" viewBox="0 0 452 1000"
 preserveAspectRatio="xMidYMid meet">
<metadata>
Created by potrace 1.9, written by Peter Selinger 2001-2010
</metadata>
<g transform="translate(0,1000) scale(0.100000,-0.100000)"
fill="#000000" stroke="none">
<path d="M2212 8044 c-18 -9 -41 -29 -51 -43 -40 -56 -501 -992 -506 -1028
-11 -74 61 -150 132 -139 68 10 76 22 280 430 l195 391 193 -385 c200 -398
216 -423 282 -436 39 -7 95 18 118 53 41 62 45 53 -233 609 -194 389 -267 525
-287 538 -39 25 -85 29 -123 10z"/>
<path d="M2211 6082 c-19 -10 -43 -34 -53 -53 -17 -32 -18 -110 -18 -1854 l0
-1820 -397 397 c-343 342 -403 398 -435 403 -64 12 -127 -31 -143 -98 -16 -64
2 -87 383 -469 l365 -367 -94 24 c-167 43 -358 121 -492 201 -240 145 -495
400 -640 641 -82 135 -160 327 -201 493 -32 128 -35 147 -50 329 -8 88 -19
166 -26 178 -45 72 -172 69 -212 -5 -31 -60 -5 -354 52 -582 204 -811 885
-1420 1715 -1534 277 -38 312 -38 590 0 615 85 1155 440 1481 975 143 234 234
490 279 779 21 137 25 328 7 362 -40 74 -167 77 -212 5 -7 -12 -18 -90 -26
-178 -15 -182 -18 -201 -50 -329 -82 -330 -242 -610 -493 -859 -239 -238 -512
-392 -840 -476 l-94 -24 376 377 c323 325 377 382 382 414 12 64 -31 127 -98
143 -64 17 -86 -1 -489 -403 l-388 -387 0 1815 c0 1739 -1 1817 -18 1849 -19
36 -72 71 -107 71 -11 0 -36 -8 -54 -18z"/>
</g>
</svg>
