<?xml version="1.0" standalone="no"?>
<!DOCTYPE svg PUBLIC "-//W3C//DTD SVG 20010904//EN"
 "http://www.w3.org/TR/2001/REC-SVG-20010904/DTD/svg10.dtd">
<svg version="1.0" xmlns="http://www.w3.org/2000/svg"
 width="746pt" height="1000pt" viewBox="0 0 746 1000"
 preserveAspectRatio="xMidYMid meet">
<metadata>
Created by potrace 1.9, written by Peter Selinger 2001-2010
</metadata>
<g transform="translate(0,1000) scale(0.100000,-0.100000)"
fill="#000000" stroke="none">
<path d="M5145 6081 c-27 -13 -201 -180 -531 -512 -513 -516 -526 -530 -509
-596 16 -67 79 -110 143 -98 32 5 92 61 435 403 l397 397 0 -1738 0 -1737 -41
0 c-193 0 -553 115 -772 246 -240 145 -495 400 -640 641 -82 135 -160 327
-201 493 -32 128 -35 147 -50 329 -8 88 -19 166 -26 178 -45 72 -172 69 -212
-5 -31 -60 -5 -354 52 -582 204 -811 885 -1420 1715 -1534 277 -38 312 -38
590 0 615 85 1155 440 1481 975 143 234 234 490 279 779 21 137 25 328 7 362
-40 74 -167 77 -212 5 -7 -12 -18 -90 -26 -178 -15 -182 -18 -201 -50 -329
-82 -330 -242 -610 -493 -859 -197 -196 -401 -325 -661 -421 -145 -53 -359
-100 -454 -100 l-36 0 0 1732 0 1733 388 -387 c403 -402 425 -420 489 -403 67
16 110 79 98 143 -5 32 -74 104 -513 546 -290 290 -521 514 -539 522 -42 18
-60 17 -108 -5z"/>
<path d="M251 5102 c-19 -10 -43 -34 -53 -53 -17 -32 -18 -84 -18 -1034 0
-950 1 -1002 18 -1034 10 -19 34 -43 53 -53 32 -17 84 -18 1034 -18 950 0
1002 1 1034 18 19 10 43 34 53 53 17 32 18 84 18 1034 0 950 -1 1002 -18 1034
-10 19 -34 43 -53 53 -32 17 -84 18 -1034 18 -950 0 -1002 -1 -1034 -18z
m1889 -1087 l0 -855 -855 0 -855 0 0 855 0 855 855 0 855 0 0 -855z"/>
</g>
</svg>
