<?xml version="1.0" standalone="no"?>
<!DOCTYPE svg PUBLIC "-//W3C//DTD SVG 20010904//EN"
 "http://www.w3.org/TR/2001/REC-SVG-20010904/DTD/svg10.dtd">
<svg version="1.0" xmlns="http://www.w3.org/2000/svg"
 width="942pt" height="1000pt" viewBox="0 0 942 1000"
 preserveAspectRatio="xMidYMid meet">
<metadata>
Created by potrace 1.9, written by Peter Selinger 2001-2010
</metadata>
<g transform="translate(0,1000) scale(0.100000,-0.100000)"
fill="#000000" stroke="none">
<path d="M2090 5104 c-274 -49 -517 -189 -681 -391 l-64 -80 -115 -6 c-228
-13 -432 -64 -612 -153 -190 -95 -414 -269 -460 -358 -49 -95 25 -201 128
-182 26 5 58 28 113 79 183 171 370 277 586 331 64 16 226 38 232 32 2 -2 -3
-28 -12 -58 -25 -88 -45 -218 -45 -298 0 -161 52 -359 137 -520 157 -299 445
-502 798 -564 114 -20 216 -20 330 0 324 56 611 244 763 500 l36 60 125 12
c150 14 245 33 366 73 178 59 376 172 515 294 83 74 100 100 100 159 0 39 -5
51 -35 81 -30 30 -42 35 -81 35 -48 0 -104 -30 -154 -85 -14 -15 -54 -48 -90
-75 -160 -118 -384 -208 -571 -228 l-75 -8 13 61 c79 361 -73 793 -365 1040
-241 203 -592 302 -882 249z m400 -269 c176 -56 318 -152 431 -291 68 -83 117
-178 155 -299 25 -79 29 -105 29 -220 0 -98 -5 -147 -19 -197 l-19 -68 -41 6
c-111 17 -294 83 -406 146 -84 47 -200 136 -200 153 0 30 -39 90 -87 136 -182
172 -451 326 -649 370 l-54 12 22 25 c86 91 225 177 359 221 106 35 147 40
274 37 97 -3 137 -9 205 -31z m-916 -491 c184 -46 341 -125 496 -250 55 -44
67 -60 78 -99 14 -53 63 -104 187 -194 167 -122 326 -199 513 -247 l101 -27
-42 -50 c-102 -122 -248 -217 -417 -273 -77 -25 -98 -28 -230 -28 -132 0 -153
3 -230 28 -179 59 -319 154 -431 292 -68 82 -117 177 -155 299 -26 82 -29 103
-28 230 0 130 2 147 33 238 22 67 37 97 48 97 8 0 43 -7 77 -16z"/>
<path d="M1231 3142 c-35 -19 -71 -72 -71 -105 0 -55 41 -103 413 -474 l382
-383 -345 0 c-315 0 -348 -2 -379 -18 -36 -19 -71 -72 -71 -107 0 -35 35 -88
71 -107 32 -17 84 -18 1034 -18 950 0 1002 1 1034 18 36 19 71 72 71 107 0 35
-35 88 -71 107 -31 16 -64 18 -384 18 l-350 0 397 398 c342 342 398 402 403
434 12 64 -31 127 -98 143 -65 17 -82 2 -555 -469 l-452 -451 -453 452 c-248
249 -465 457 -480 463 -39 14 -57 13 -96 -8z"/>
<path d="M5151 2162 c-36 -19 -71 -72 -71 -107 0 -35 35 -88 71 -107 32 -17
82 -18 951 -18 l918 0 0 -36 c0 -95 -47 -309 -100 -454 -97 -264 -227 -466
-430 -670 -246 -246 -521 -402 -850 -484 -128 -32 -147 -35 -329 -50 -88 -8
-166 -19 -178 -26 -47 -30 -70 -110 -44 -158 27 -51 32 -52 214 -52 181 0 260
10 432 54 585 149 1081 563 1346 1121 26 55 53 119 60 143 6 23 15 42 19 42 4
0 13 -19 19 -42 20 -66 101 -233 165 -337 282 -462 730 -797 1241 -927 172
-44 251 -54 430 -54 94 0 175 4 181 8 61 42 56 161 -9 202 -12 7 -90 18 -178
26 -182 15 -201 18 -329 50 -325 80 -601 237 -841 475 -207 206 -342 416 -439
679 -53 145 -100 359 -100 454 l0 36 923 0 c874 0 924 1 956 18 36 19 71 72
71 107 0 35 -35 88 -71 107 -32 17 -115 18 -2014 18 -1899 0 -1982 -1 -2014
-18z"/>
</g>
</svg>
