<?xml version="1.0" standalone="no"?>
<!DOCTYPE svg PUBLIC "-//W3C//DTD SVG 20010904//EN"
 "http://www.w3.org/TR/2001/REC-SVG-20010904/DTD/svg10.dtd">
<svg version="1.0" xmlns="http://www.w3.org/2000/svg"
 width="942pt" height="1000pt" viewBox="0 0 942 1000"
 preserveAspectRatio="xMidYMid meet">
<metadata>
Created by potrace 1.9, written by Peter Selinger 2001-2010
</metadata>
<g transform="translate(0,1000) scale(0.100000,-0.100000)"
fill="#000000" stroke="none">
<path d="M1231 5102 c-64 -34 -71 -62 -71 -282 l0 -196 -87 -13 c-232 -33
-412 -100 -610 -227 -150 -97 -271 -203 -305 -268 -49 -95 25 -201 128 -182
26 5 58 28 113 79 42 40 108 96 146 125 74 56 251 147 350 180 69 23 202 52
240 52 l25 0 0 -678 c0 -637 1 -679 18 -711 10 -19 34 -43 53 -53 32 -17 84
-18 1034 -18 950 0 1002 1 1034 18 67 36 71 57 71 333 l0 246 83 12 c299 45
591 183 798 376 68 63 79 83 79 137 0 41 -5 52 -35 83 -30 30 -42 35 -81 35
-48 0 -104 -30 -154 -85 -39 -42 -148 -120 -230 -163 -130 -69 -355 -142 -440
-142 -20 0 -20 2 -20 628 0 588 -1 629 -18 661 -10 19 -34 43 -53 53 -32 17
-84 18 -1034 18 -950 0 -1002 -1 -1034 -18z m1889 -787 l0 -555 -32 0 c-90 1
-259 51 -403 120 -111 53 -265 161 -265 185 0 66 -131 195 -323 319 -196 126
-373 192 -604 227 l-83 12 0 124 0 123 855 0 855 0 0 -555z m-1592 39 c199
-41 374 -125 542 -260 55 -44 67 -60 78 -99 14 -53 63 -104 187 -194 217 -158
479 -263 713 -286 l72 -8 0 -173 0 -174 -855 0 -855 0 0 605 c0 602 0 605 20
605 12 0 56 -7 98 -16z"/>
<path d="M8091 5102 c-35 -19 -71 -72 -71 -105 0 -55 41 -103 413 -474 l382
-383 -1815 0 c-1739 0 -1817 -1 -1849 -18 -36 -19 -71 -72 -71 -107 0 -35 35
-88 71 -107 32 -17 110 -18 1849 -18 l1815 0 -387 -387 c-402 -404 -420 -426
-403 -490 16 -67 79 -110 143 -98 32 5 105 74 550 518 358 358 515 522 523
544 24 73 30 65 -509 607 -290 290 -521 514 -539 522 -43 18 -61 18 -102 -4z"/>
<path d="M6017 2659 c-338 -39 -643 -180 -875 -404 -70 -67 -95 -99 -101 -125
-21 -96 61 -174 154 -149 22 6 66 39 118 87 150 142 262 212 438 276 158 57
233 69 424 69 191 0 266 -12 424 -69 120 -44 226 -100 316 -169 91 -69 120
-101 135 -149 29 -90 294 -283 514 -372 461 -188 991 -134 1410 143 100 67
215 165 240 205 9 14 16 47 16 72 0 39 -5 51 -35 81 -30 30 -42 35 -81 35 -48
0 -104 -30 -154 -85 -106 -114 -365 -245 -575 -291 -98 -21 -377 -24 -475 -5
-173 34 -372 120 -505 219 -67 49 -83 66 -93 99 -25 83 -249 269 -457 379
-234 124 -567 185 -838 153z"/>
</g>
</svg>
