<?xml version="1.0" standalone="no"?>
<!DOCTYPE svg PUBLIC "-//W3C//DTD SVG 20010904//EN"
 "http://www.w3.org/TR/2001/REC-SVG-20010904/DTD/svg10.dtd">
<svg version="1.0" xmlns="http://www.w3.org/2000/svg"
 width="942pt" height="1000pt" viewBox="0 0 942 1000"
 preserveAspectRatio="xMidYMid meet">
<metadata>
Created by potrace 1.9, written by Peter Selinger 2001-2010
</metadata>
<g transform="translate(0,1000) scale(0.100000,-0.100000)"
fill="#000000" stroke="none">
<path d="M1232 6085 c-51 -22 -257 -202 -363 -316 -546 -592 -784 -1407 -644
-2199 105 -588 405 -1114 858 -1502 71 -61 141 -116 155 -124 23 -12 190 -14
1025 -14 910 0 1002 1 1034 17 19 9 37 22 40 29 2 6 51 51 108 99 354 296 650
753 783 1210 142 486 142 984 0 1470 -106 362 -315 729 -577 1014 -96 103
-306 289 -358 316 -42 22 -2011 21 -2061 0z m2055 -319 c331 -283 584 -677
708 -1099 122 -419 122 -875 0 -1294 -124 -425 -378 -818 -714 -1104 l-104
-89 -917 0 -917 0 -104 89 c-336 286 -590 679 -714 1104 -122 419 -122 875 0
1294 124 422 377 816 708 1099 l98 84 929 0 929 0 98 -84z"/>
<path d="M2223 4143 c-33 -6 -79 -57 -86 -92 -26 -127 122 -210 212 -120 43
42 49 93 18 156 -20 42 -87 68 -144 56z"/>
<path d="M8085 6081 c-28 -13 -634 -614 -2001 -1982 -2065 -2067 -1997 -1996
-1979 -2066 16 -67 79 -110 143 -98 33 5 255 224 1905 1873 l1867 1867 0 -768
0 -767 -438 0 c-489 0 -486 0 -524 -71 -17 -32 -18 -84 -18 -1034 0 -950 1
-1002 18 -1034 10 -19 34 -43 53 -53 32 -17 84 -18 1034 -18 950 0 1002 1
1034 18 19 10 43 34 53 53 17 32 18 84 18 1034 0 950 -1 1002 -18 1034 -38 71
-35 71 -524 71 l-438 0 0 928 c0 879 -1 929 -18 961 -19 36 -73 71 -107 71
-11 0 -38 -9 -60 -19z m915 -3046 l0 -855 -855 0 -855 0 0 855 0 855 855 0
855 0 0 -855z"/>
</g>
</svg>
