<?xml version="1.0" standalone="no"?>
<!DOCTYPE svg PUBLIC "-//W3C//DTD SVG 20010904//EN"
 "http://www.w3.org/TR/2001/REC-SVG-20010904/DTD/svg10.dtd">
<svg version="1.0" xmlns="http://www.w3.org/2000/svg"
 width="550pt" height="1000pt" viewBox="0 0 550 1000"
 preserveAspectRatio="xMidYMid meet">
<metadata>
Created by potrace 1.9, written by Peter Selinger 2001-2010
</metadata>
<g transform="translate(0,1000) scale(0.100000,-0.100000)"
fill="#000000" stroke="none">
<path d="M1160 6584 c-14 -2 -59 -9 -100 -15 -220 -31 -402 -100 -597 -225
-150 -97 -271 -203 -305 -268 -23 -45 -20 -106 6 -135 15 -16 16 -201 16
-1962 0 -1833 1 -1946 17 -1976 10 -18 35 -45 55 -60 20 -15 64 -49 97 -76
295 -234 693 -355 1054 -319 315 31 591 142 821 329 32 26 75 58 94 69 20 12
44 37 54 55 17 32 18 123 18 1980 0 1707 2 1950 15 1975 42 80 -3 156 -170
291 -67 54 -211 146 -293 187 -189 94 -397 144 -627 151 -71 2 -141 2 -155 -1z
m365 -269 c195 -41 385 -130 528 -248 26 -21 44 -43 41 -49 -15 -24 -168 -128
-250 -170 -95 -49 -237 -98 -344 -119 -84 -17 -356 -17 -440 0 -107 21 -249
70 -344 119 -82 42 -235 146 -250 170 -3 6 15 28 41 49 164 136 387 232 609
262 96 14 313 6 409 -14z m574 -4213 c-157 -141 -377 -249 -599 -293 -84 -17
-356 -17 -440 0 -216 42 -435 147 -579 277 l-51 46 0 1794 c0 987 2 1794 5
1794 2 0 34 -18 70 -40 267 -163 598 -242 898 -212 256 26 456 92 667 221 l65
39 3 -1794 2 -1794 -41 -38z"/>
<path d="M3191 6082 c-19 -10 -43 -34 -53 -53 -17 -32 -18 -115 -18 -2014 0
-1899 1 -1982 18 -2014 10 -19 34 -43 53 -53 32 -17 84 -18 1034 -18 950 0
1002 1 1034 18 19 10 43 34 53 53 17 32 18 115 18 2014 0 1899 -1 1982 -18
2014 -19 36 -72 71 -107 71 -35 0 -88 -35 -107 -71 -17 -32 -18 -113 -18
-1941 l0 -1908 -855 0 -855 0 0 1908 c0 1828 -1 1909 -18 1941 -19 36 -72 71
-107 71 -11 0 -36 -8 -54 -18z"/>
</g>
</svg>
