<?xml version="1.0" standalone="no"?>
<!DOCTYPE svg PUBLIC "-//W3C//DTD SVG 20010904//EN"
 "http://www.w3.org/TR/2001/REC-SVG-20010904/DTD/svg10.dtd">
<svg version="1.0" xmlns="http://www.w3.org/2000/svg"
 width="648pt" height="1000pt" viewBox="0 0 648 1000"
 preserveAspectRatio="xMidYMid meet">
<metadata>
Created by potrace 1.9, written by Peter Selinger 2001-2010
</metadata>
<g transform="translate(0,1000) scale(0.100000,-0.100000)"
fill="#000000" stroke="none">
<path d="M1110 5104 c-194 -35 -394 -125 -531 -240 -290 -242 -446 -650 -384
-1003 49 -279 185 -523 384 -685 145 -119 339 -206 536 -240 364 -64 780 97
1017 394 153 190 228 402 258 728 24 257 133 466 326 623 80 66 174 115 294
155 77 25 98 28 230 28 132 0 153 -3 230 -28 122 -41 225 -96 305 -164 188
-159 292 -361 315 -614 23 -248 62 -397 147 -558 157 -299 445 -502 798 -564
114 -20 216 -20 330 0 489 85 833 432 920 925 61 347 -93 758 -373 994 -147
124 -345 214 -547 249 -360 63 -767 -91 -1008 -382 -35 -42 -79 -105 -98 -139
-19 -35 -36 -63 -39 -63 -3 1 -24 33 -47 73 -151 263 -437 453 -769 511 -359
63 -766 -92 -1007 -382 -35 -42 -79 -105 -98 -139 -19 -35 -36 -63 -39 -63 -3
1 -24 33 -47 73 -209 364 -689 586 -1103 511z m400 -269 c176 -56 318 -152
431 -291 68 -83 117 -178 155 -299 26 -80 29 -104 29 -225 0 -121 -3 -145 -29
-225 -93 -295 -290 -493 -586 -591 -77 -25 -98 -28 -230 -28 -132 0 -153 3
-230 28 -179 59 -319 154 -431 292 -68 82 -117 177 -155 299 -26 82 -29 103
-28 230 0 126 3 149 28 225 95 288 291 488 567 579 106 35 147 40 274 37 97
-3 137 -9 205 -31z m3920 0 c176 -56 318 -152 431 -291 68 -83 117 -178 155
-299 26 -80 29 -104 29 -225 0 -121 -3 -145 -29 -225 -93 -295 -290 -493 -586
-591 -77 -25 -98 -28 -230 -28 -132 0 -153 3 -230 28 -179 59 -319 154 -431
292 -68 82 -117 177 -155 299 -26 82 -29 103 -28 230 0 126 3 149 28 225 95
288 291 488 567 579 106 35 147 40 274 37 97 -3 137 -9 205 -31z"/>
<path d="M1243 4143 c-33 -6 -79 -57 -86 -92 -26 -127 122 -210 212 -120 43
42 49 93 18 156 -20 42 -87 68 -144 56z"/>
<path d="M5163 4143 c-33 -6 -79 -57 -86 -92 -26 -127 122 -210 212 -120 43
42 49 93 18 156 -20 42 -87 68 -144 56z"/>
</g>
</svg>
