<?xml version="1.0" standalone="no"?>
<!DOCTYPE svg PUBLIC "-//W3C//DTD SVG 20010904//EN"
 "http://www.w3.org/TR/2001/REC-SVG-20010904/DTD/svg10.dtd">
<svg version="1.0" xmlns="http://www.w3.org/2000/svg"
 width="452pt" height="1000pt" viewBox="0 0 452 1000"
 preserveAspectRatio="xMidYMid meet">
<metadata>
Created by potrace 1.9, written by Peter Selinger 2001-2010
</metadata>
<g transform="translate(0,1000) scale(0.100000,-0.100000)"
fill="#000000" stroke="none">
<path d="M263 5123 c-33 -6 -79 -57 -86 -92 -26 -127 122 -210 212 -120 43 42
49 93 18 156 -20 42 -87 68 -144 56z"/>
<path d="M2223 5123 c-33 -6 -79 -57 -86 -92 -26 -127 122 -210 212 -120 43
42 49 93 18 156 -20 42 -87 68 -144 56z"/>
<path d="M3681 5102 c-70 -37 -71 -45 -71 -436 l0 -350 -152 151 c-125 124
-160 153 -190 158 -64 12 -127 -31 -143 -98 -15 -59 10 -95 221 -307 l204
-205 -200 -200 c-209 -209 -240 -252 -226 -311 17 -68 80 -111 144 -99 30 5
65 34 190 158 l152 151 0 -350 c0 -391 1 -399 71 -436 42 -23 66 -23 108 0 70
37 71 46 71 431 l0 345 143 -141 c149 -147 187 -171 247 -158 39 8 87 56 95
95 13 60 -8 88 -225 305 l-210 210 214 215 c180 180 216 221 221 252 12 64
-31 127 -98 143 -55 14 -97 -13 -244 -158 l-143 -141 0 345 c0 314 -2 347 -18
378 -19 36 -72 71 -107 71 -11 0 -36 -8 -54 -18z"/>
<path d="M263 3163 c-33 -6 -79 -57 -86 -92 -26 -127 122 -210 212 -120 43 42
49 93 18 156 -20 42 -87 68 -144 56z"/>
<path d="M2223 3163 c-33 -6 -79 -57 -86 -92 -26 -127 122 -210 212 -120 43
42 49 93 18 156 -20 42 -87 68 -144 56z"/>
</g>
</svg>
