<?xml version="1.0" standalone="no"?>
<!DOCTYPE svg PUBLIC "-//W3C//DTD SVG 20010904//EN"
 "http://www.w3.org/TR/2001/REC-SVG-20010904/DTD/svg10.dtd">
<svg version="1.0" xmlns="http://www.w3.org/2000/svg"
 width="1040pt" height="1000pt" viewBox="0 0 1040 1000"
 preserveAspectRatio="xMidYMid meet">
<metadata>
Created by potrace 1.9, written by Peter Selinger 2001-2010
</metadata>
<g transform="translate(0,1000) scale(0.100000,-0.100000)"
fill="#000000" stroke="none">
<path d="M4172 8044 c-18 -9 -41 -29 -51 -43 -40 -56 -501 -992 -506 -1028
-11 -74 61 -150 132 -139 68 10 76 22 280 430 l195 391 193 -385 c200 -398
216 -423 282 -436 39 -7 95 18 118 53 41 62 45 53 -233 609 -194 389 -267 525
-287 538 -39 25 -85 29 -123 10z"/>
<path d="M4165 6081 c-28 -13 -634 -614 -2001 -1982 -2065 -2067 -1997 -1996
-1979 -2066 16 -67 79 -110 143 -98 33 5 255 224 1905 1873 l1867 1867 0 -768
0 -767 -438 0 c-489 0 -486 0 -524 -71 -17 -32 -18 -84 -18 -1034 0 -950 1
-1002 18 -1034 10 -19 34 -43 53 -53 32 -17 84 -18 1034 -18 950 0 1002 1
1034 18 19 10 43 34 53 53 17 32 18 84 18 1034 0 950 -1 1002 -18 1034 -38 71
-35 71 -524 71 l-438 0 0 928 c0 879 -1 929 -18 961 -19 36 -73 71 -107 71
-11 0 -38 -9 -60 -19z m915 -3046 l0 -855 -855 0 -855 0 0 855 0 855 855 0
855 0 0 -855z"/>
<path d="M6131 6082 c-19 -10 -43 -34 -53 -53 -17 -32 -18 -115 -18 -2014 0
-1899 1 -1982 18 -2014 19 -36 72 -71 107 -71 35 0 88 35 107 71 17 32 18 115
18 2014 0 1899 -1 1982 -18 2014 -19 36 -72 71 -107 71 -11 0 -36 -8 -54 -18z"/>
<path d="M10051 6082 c-19 -10 -43 -34 -53 -53 -17 -32 -18 -115 -18 -2014 0
-1899 1 -1982 18 -2014 19 -36 72 -71 107 -71 35 0 88 35 107 71 17 32 18 115
18 2014 0 1899 -1 1982 -18 2014 -19 36 -72 71 -107 71 -11 0 -36 -8 -54 -18z"/>
<path d="M8091 5102 c-71 -38 -71 -35 -71 -524 l0 -438 -438 0 c-404 0 -440
-1 -471 -18 -36 -19 -71 -72 -71 -107 0 -35 35 -88 71 -107 31 -17 67 -18 471
-18 l438 0 0 -438 c0 -489 0 -486 71 -524 42 -23 66 -23 108 0 71 38 71 35 71
524 l0 438 438 0 c489 0 486 0 524 71 23 42 23 66 0 108 -38 71 -35 71 -524
71 l-438 0 0 438 c0 404 -1 440 -18 471 -19 36 -72 71 -107 71 -11 0 -36 -8
-54 -18z"/>
</g>
</svg>
