<?xml version="1.0" standalone="no"?>
<!DOCTYPE svg PUBLIC "-//W3C//DTD SVG 20010904//EN"
 "http://www.w3.org/TR/2001/REC-SVG-20010904/DTD/svg10.dtd">
<svg version="1.0" xmlns="http://www.w3.org/2000/svg"
 width="942pt" height="1000pt" viewBox="0 0 942 1000"
 preserveAspectRatio="xMidYMid meet">
<metadata>
Created by potrace 1.9, written by Peter Selinger 2001-2010
</metadata>
<g transform="translate(0,1000) scale(0.100000,-0.100000)"
fill="#000000" stroke="none">
<path d="M2090 8044 c-270 -49 -508 -184 -674 -383 -152 -182 -256 -467 -256
-701 0 -291 155 -637 367 -819 l48 -40 -645 -1 c-606 0 -647 -1 -679 -18 -36
-19 -71 -72 -71 -107 0 -35 35 -88 71 -107 32 -17 82 -18 961 -18 l928 0 0
-1835 0 -1835 -438 0 c-404 0 -440 -1 -471 -18 -36 -19 -71 -72 -71 -107 0
-35 35 -88 71 -107 32 -17 84 -18 1034 -18 950 0 1002 1 1034 18 36 19 71 72
71 107 0 35 -35 88 -71 107 -31 17 -67 18 -471 18 l-438 0 0 1835 0 1835 928
0 c879 0 929 1 961 18 36 19 71 72 71 107 0 35 -35 88 -71 107 -32 17 -73 18
-681 18 l-648 0 83 83 c167 166 268 367 312 618 61 347 -93 758 -373 994 -241
203 -592 302 -882 249z m50 -1084 c0 -727 -2 -840 -14 -840 -33 0 -186 54
-257 91 -144 75 -291 222 -362 364 -19 39 -48 111 -63 160 -26 82 -29 103 -28
230 0 126 3 149 28 225 16 47 44 117 63 155 70 140 221 293 358 363 71 36 225
91 258 92 16 0 17 -47 17 -840z m352 814 c173 -54 316 -151 429 -290 68 -83
117 -178 155 -299 26 -80 29 -104 29 -225 0 -121 -3 -145 -29 -225 -93 -295
-295 -498 -584 -589 -46 -14 -87 -26 -93 -26 -5 0 -9 317 -9 840 0 523 4 840
9 840 6 0 47 -12 93 -26z"/>
<path d="M7105 6087 c-63 -29 -89 -121 -51 -179 10 -15 68 -70 129 -122 349
-294 605 -686 732 -1119 122 -419 122 -875 0 -1294 -124 -425 -378 -818 -714
-1104 l-104 -89 -956 0 c-907 0 -958 -1 -990 -18 -36 -19 -71 -72 -71 -107 0
-35 35 -88 71 -107 32 -17 115 -18 2014 -18 1899 0 1982 1 2014 18 35 19 71
72 71 105 0 31 -30 85 -58 104 -25 17 -66 18 -540 23 l-512 5 82 49 c474 281
814 736 948 1266 49 197 64 316 64 520 0 562 -212 1078 -604 1470 -367 366
-850 578 -1380 605 -87 4 -122 2 -145 -8z m530 -301 c296 -75 579 -241 815
-476 246 -246 401 -519 485 -850 39 -155 49 -245 49 -440 0 -195 -10 -285 -49
-440 -84 -331 -239 -604 -485 -850 -204 -203 -406 -333 -670 -430 -89 -32
-232 -72 -238 -65 -2 1 25 34 61 72 155 166 343 462 445 701 154 358 228 787
203 1165 -28 410 -145 797 -341 1133 -90 153 -216 331 -294 414 -29 30 -59 64
-67 74 -13 17 -12 18 6 13 11 -3 47 -13 80 -21z"/>
</g>
</svg>
