<?xml version="1.0" standalone="no"?>
<!DOCTYPE svg PUBLIC "-//W3C//DTD SVG 20010904//EN"
 "http://www.w3.org/TR/2001/REC-SVG-20010904/DTD/svg10.dtd">
<svg version="1.0" xmlns="http://www.w3.org/2000/svg"
 width="1236pt" height="1000pt" viewBox="0 0 1236 1000"
 preserveAspectRatio="xMidYMid meet">
<metadata>
Created by potrace 1.9, written by Peter Selinger 2001-2010
</metadata>
<g transform="translate(0,1000) scale(0.100000,-0.100000)"
fill="#000000" stroke="none">
<path d="M2115 6094 c-684 -55 -1279 -418 -1631 -994 -199 -327 -298 -686
-298 -1080 0 -204 15 -323 64 -520 133 -529 475 -986 948 -1266 l82 -49 -507
-5 c-469 -5 -510 -6 -535 -23 -28 -19 -58 -73 -58 -104 0 -33 36 -86 71 -105
32 -17 115 -18 2014 -18 1899 0 1982 1 2014 18 35 19 71 72 71 105 0 31 -30
85 -58 104 -25 17 -66 18 -540 23 l-512 5 82 49 c473 280 815 737 948 1266 49
197 64 316 64 520 0 204 -15 323 -64 520 -165 656 -654 1197 -1290 1430 -108
39 -286 84 -416 104 -102 16 -357 27 -449 20z m418 -265 c215 -32 478 -126
660 -235 240 -145 495 -400 640 -641 111 -184 202 -440 238 -668 7 -44 13
-163 13 -265 0 -195 -10 -285 -49 -440 -84 -332 -244 -610 -494 -859 -240
-238 -514 -393 -841 -476 -155 -39 -245 -49 -440 -49 -195 0 -285 10 -440 49
-327 83 -601 238 -841 476 -207 206 -342 416 -439 679 -76 209 -104 374 -104
620 0 195 10 285 49 440 84 331 239 604 485 850 318 317 699 495 1150 534 73
6 334 -3 413 -15z"/>
<path d="M7015 6094 c-684 -55 -1279 -418 -1631 -994 -199 -327 -298 -686
-298 -1080 0 -477 143 -896 436 -1279 l80 -104 -250 -251 c-259 -261 -283
-292 -267 -353 16 -67 79 -110 143 -98 31 5 77 46 298 266 231 230 262 258
274 244 21 -26 206 -157 302 -214 280 -167 549 -247 968 -289 97 -10 166 -6
385 24 615 85 1155 440 1481 975 199 326 298 686 298 1079 0 475 -143 896
-434 1276 l-78 102 254 253 c262 262 282 288 269 349 -8 39 -56 87 -95 95 -66
15 -93 -5 -357 -268 l-253 -251 -27 26 c-46 42 -174 133 -274 194 -233 142
-488 233 -775 278 -102 16 -357 27 -449 20z m25 -1137 l0 -882 -628 -628 -628
-628 -20 23 c-39 43 -140 183 -178 245 -110 184 -201 440 -237 668 -7 44 -13
163 -13 265 0 102 6 221 13 265 36 228 127 484 237 668 146 242 399 495 641
641 218 130 561 241 761 245 l52 1 0 -883z m393 872 c215 -32 478 -126 660
-235 71 -43 236 -163 254 -185 10 -13 -77 -104 -522 -549 l-535 -535 0 758 0
757 36 0 c19 0 68 -5 107 -11z m1190 -716 c152 -203 250 -407 312 -653 39
-155 49 -245 49 -440 0 -195 -10 -285 -49 -440 -84 -332 -244 -610 -494 -859
-197 -196 -401 -325 -661 -421 -145 -53 -359 -100 -454 -100 l-36 0 0 882 0
883 622 622 c343 343 626 623 630 623 4 0 40 -44 81 -97z m-1583 -2158 l0
-755 -41 0 c-193 0 -553 115 -772 246 -73 44 -242 167 -252 184 -5 8 182 202
526 546 294 294 535 534 536 534 2 0 3 -340 3 -755z"/>
<path d="M11031 6082 c-71 -38 -71 -35 -71 -524 l0 -438 -438 0 c-404 0 -440
-1 -471 -18 -36 -19 -71 -72 -71 -107 0 -35 35 -88 71 -107 31 -17 67 -18 471
-18 l438 0 0 -1418 c0 -1354 1 -1419 18 -1451 19 -36 72 -71 107 -71 35 0 88
35 107 71 17 32 18 97 18 1451 l0 1418 438 0 c404 0 440 1 471 18 36 19 71 72
71 107 0 35 -35 88 -71 107 -31 17 -67 18 -471 18 l-438 0 0 438 c0 404 -1
440 -18 471 -19 36 -72 71 -107 71 -11 0 -36 -8 -54 -18z"/>
</g>
</svg>
