<?xml version="1.0" standalone="no"?>
<!DOCTYPE svg PUBLIC "-//W3C//DTD SVG 20010904//EN"
 "http://www.w3.org/TR/2001/REC-SVG-20010904/DTD/svg10.dtd">
<svg version="1.0" xmlns="http://www.w3.org/2000/svg"
 width="1922pt" height="1000pt" viewBox="0 0 1922 1000"
 preserveAspectRatio="xMidYMid meet">
<metadata>
Created by potrace 1.9, written by Peter Selinger 2001-2010
</metadata>
<g transform="translate(0,1000) scale(0.100000,-0.100000)"
fill="#000000" stroke="none">
<path d="M251 6082 c-19 -10 -43 -34 -53 -53 -17 -32 -18 -115 -18 -2014 0
-1899 1 -1982 18 -2014 10 -19 34 -43 53 -53 32 -17 115 -18 2014 -18 1899 0
1982 1 2014 18 19 10 43 34 53 53 17 32 18 115 18 2014 0 1899 -1 1982 -18
2014 -10 19 -34 43 -53 53 -32 17 -115 18 -2014 18 -1899 0 -1982 -1 -2014
-18z m3849 -2067 l0 -1835 -1835 0 -1835 0 0 1835 0 1835 1835 0 1835 0 0
-1835z"/>
<path d="M2211 5102 c-19 -10 -43 -34 -53 -53 -17 -31 -18 -69 -18 -544 0
-475 1 -513 18 -544 19 -36 72 -71 107 -71 35 0 88 35 107 71 17 31 18 69 18
544 0 475 -1 513 -18 544 -19 36 -72 71 -107 71 -11 0 -36 -8 -54 -18z"/>
<path d="M2185 3643 c-256 -40 -447 -206 -511 -443 -23 -86 -23 -234 0 -320
55 -202 213 -364 415 -423 91 -27 251 -27 342 0 202 59 360 221 415 423 11 40
17 101 17 160 0 59 -6 120 -17 160 -55 202 -217 367 -415 422 -68 19 -194 30
-246 21z m220 -277 c71 -32 149 -111 183 -184 22 -48 27 -71 27 -142 0 -106
-29 -175 -105 -250 -75 -76 -144 -105 -250 -105 -106 0 -175 29 -250 105 -76
75 -105 144 -105 250 0 71 5 94 27 142 45 98 146 183 245 208 61 15 167 4 228
-24z"/>
<path d="M12005 6081 c-27 -13 -201 -180 -531 -512 -513 -516 -526 -530 -509
-596 16 -67 79 -110 143 -98 32 5 92 61 435 403 l397 397 0 -1660 0 -1660
-397 397 c-343 342 -403 398 -435 403 -64 12 -127 -31 -143 -98 -16 -64 2 -87
383 -469 l365 -367 -94 24 c-167 43 -358 121 -492 201 -240 145 -495 400 -640
641 -82 135 -160 327 -201 493 -32 128 -35 147 -50 329 -8 88 -19 166 -26 178
-45 72 -172 69 -212 -5 -31 -60 -5 -354 52 -582 204 -811 885 -1420 1715
-1534 277 -38 312 -38 590 0 615 85 1155 440 1481 975 143 234 234 490 279
779 21 137 25 328 7 362 -40 74 -167 77 -212 5 -7 -12 -18 -90 -26 -178 -15
-182 -18 -201 -50 -329 -82 -330 -242 -610 -493 -859 -239 -238 -512 -392
-840 -476 l-94 -24 376 377 c323 325 377 382 382 414 12 64 -31 127 -98 143
-64 17 -86 -1 -489 -403 l-388 -387 0 1650 0 1650 388 -387 c403 -402 425
-420 489 -403 67 16 110 79 98 143 -5 32 -74 104 -513 546 -290 290 -521 514
-539 522 -42 18 -60 17 -108 -5z"/>
<path d="M6990 5104 c-270 -49 -508 -184 -674 -383 -112 -134 -206 -339 -237
-515 l-11 -66 -442 0 c-493 0 -490 1 -528 -71 -23 -42 -23 -66 0 -108 38 -72
35 -71 529 -71 l442 0 6 -37 c17 -99 70 -256 122 -353 158 -300 445 -502 798
-564 364 -64 780 97 1017 394 110 137 204 348 233 523 l6 37 447 0 c500 0 496
-1 534 71 23 42 23 66 0 108 -38 72 -34 71 -534 71 l-447 0 -7 48 c-24 166
-120 383 -232 522 -237 297 -660 460 -1022 394z m400 -269 c292 -93 496 -299
584 -586 14 -47 26 -90 26 -97 0 -9 -194 -12 -840 -12 -727 0 -840 2 -840 14
0 8 12 52 26 98 89 281 290 486 565 577 106 35 147 40 274 37 97 -3 137 -9
205 -31z m610 -952 c0 -4 -12 -45 -26 -92 -87 -287 -289 -490 -584 -587 -77
-25 -98 -28 -230 -28 -132 0 -153 3 -230 28 -295 97 -497 300 -584 587 -14 47
-26 88 -26 92 0 4 378 7 840 7 462 0 840 -3 840 -7z"/>
<path d="M15931 3142 c-35 -19 -71 -72 -71 -105 0 -55 41 -103 413 -474 l382
-383 -835 0 c-790 0 -837 -1 -869 -18 -36 -19 -71 -72 -71 -107 0 -35 35 -88
71 -107 32 -17 115 -18 2014 -18 1899 0 1982 1 2014 18 36 19 71 72 71 107 0
35 -35 88 -71 107 -32 17 -79 18 -874 18 l-840 0 397 398 c342 342 398 402
403 434 12 64 -31 127 -98 143 -65 17 -82 2 -555 -469 l-452 -451 -453 452
c-248 249 -465 457 -480 463 -39 14 -57 13 -96 -8z"/>
</g>
</svg>
