<?xml version="1.0" standalone="no"?>
<!DOCTYPE svg PUBLIC "-//W3C//DTD SVG 20010904//EN"
 "http://www.w3.org/TR/2001/REC-SVG-20010904/DTD/svg10.dtd">
<svg version="1.0" xmlns="http://www.w3.org/2000/svg"
 width="844pt" height="1000pt" viewBox="0 0 844 1000"
 preserveAspectRatio="xMidYMid meet">
<metadata>
Created by potrace 1.9, written by Peter Selinger 2001-2010
</metadata>
<g transform="translate(0,1000) scale(0.100000,-0.100000)"
fill="#000000" stroke="none">
<path d="M2205 6081 c-28 -13 -345 -325 -1021 -1002 -792 -794 -984 -991 -994
-1022 -20 -64 6 -123 67 -152 80 -38 24 -87 996 883 l887 887 0 -813 0 -812
-485 -970 c-269 -538 -487 -986 -490 -1007 -8 -49 19 -100 66 -125 32 -17 84
-18 1034 -18 950 0 1002 1 1034 18 37 20 71 72 71 109 0 13 -220 464 -490
1003 l-490 980 0 813 0 812 878 -877 c929 -928 908 -909 985 -893 26 6 206
181 920 893 l887 887 0 -1748 0 -1747 -438 0 c-404 0 -440 -1 -471 -18 -36
-19 -71 -72 -71 -107 0 -35 35 -88 71 -107 32 -17 84 -18 1034 -18 950 0 1002
1 1034 18 36 19 71 72 71 107 0 35 -35 88 -71 107 -31 17 -67 18 -471 18
l-438 0 0 1742 0 1743 878 -877 c925 -924 909 -909 982 -893 39 8 87 56 95 95
4 16 2 45 -4 62 -8 24 -302 324 -1013 1035 -808 806 -1009 1002 -1035 1008
-77 16 -52 39 -1051 -959 l-942 -941 -943 942 c-531 531 -954 947 -970 953
-39 14 -56 13 -102 -9z m62 -3899 c-424 -1 -772 0 -774 2 -2 2 170 352 383
777 l387 774 387 -775 388 -775 -771 -3z"/>
</g>
</svg>
