<?xml version="1.0" standalone="no"?>
<!DOCTYPE svg PUBLIC "-//W3C//DTD SVG 20010904//EN"
 "http://www.w3.org/TR/2001/REC-SVG-20010904/DTD/svg10.dtd">
<svg version="1.0" xmlns="http://www.w3.org/2000/svg"
 width="942pt" height="1000pt" viewBox="0 0 942 1000"
 preserveAspectRatio="xMidYMid meet">
<metadata>
Created by potrace 1.9, written by Peter Selinger 2001-2010
</metadata>
<g transform="translate(0,1000) scale(0.100000,-0.100000)"
fill="#000000" stroke="none">
<path d="M8975 6094 c-876 -68 -1599 -651 -1851 -1492 -2 -8 -19 9 -39 39
-163 242 -430 409 -740 463 -224 39 -459 -2 -684 -121 -301 -158 -503 -444
-565 -799 -63 -357 95 -772 383 -1008 188 -154 467 -256 701 -256 87 0 221 22
316 51 37 11 74 23 83 25 9 3 3 -2 -14 -12 -16 -9 -65 -46 -107 -81 -289 -240
-445 -649 -383 -1002 49 -279 185 -523 384 -685 188 -154 467 -256 701 -256
239 0 523 106 712 265 280 236 434 647 373 994 -56 318 -218 578 -466 747 -30
21 -47 35 -38 31 205 -72 386 -92 564 -61 489 85 833 432 920 925 61 347 -93
758 -373 994 -189 159 -473 265 -712 265 -159 0 -355 -50 -508 -130 l-93 -49
22 37 c133 219 395 477 626 616 135 81 328 159 493 200 128 32 147 35 329 50
88 8 166 19 178 26 70 44 69 166 -1 210 -22 14 -124 20 -211 14z m-2565 -1259
c176 -56 318 -152 431 -291 68 -83 117 -178 155 -299 26 -80 29 -104 29 -225
0 -121 -3 -145 -29 -225 -93 -295 -290 -493 -586 -591 -77 -25 -98 -28 -230
-28 -132 0 -153 3 -230 28 -179 59 -319 154 -431 292 -68 82 -117 177 -155
299 -26 82 -29 103 -28 230 0 126 3 149 28 225 95 288 291 488 567 579 106 35
147 40 274 37 97 -3 137 -9 205 -31z m1960 0 c176 -56 318 -152 431 -291 68
-83 117 -178 155 -299 26 -80 29 -104 29 -225 0 -121 -3 -145 -29 -225 -93
-295 -290 -493 -586 -591 -77 -25 -98 -28 -230 -28 -132 0 -153 3 -230 28
-179 59 -319 154 -431 292 -68 82 -117 177 -155 299 -26 82 -29 103 -28 230 0
126 3 149 28 225 95 288 291 488 567 579 106 35 147 40 274 37 97 -3 137 -9
205 -31z m-1171 -1378 c65 -119 192 -254 323 -344 29 -20 46 -34 37 -30 -132
47 -289 77 -399 77 -110 0 -267 -30 -399 -77 -9 -4 8 10 38 31 131 89 256 223
323 346 18 33 35 60 38 60 3 0 20 -28 39 -63z m191 -582 c176 -56 318 -152
431 -291 68 -83 117 -178 155 -299 26 -80 29 -104 29 -225 0 -121 -3 -145 -29
-225 -93 -295 -290 -493 -586 -591 -77 -25 -98 -28 -230 -28 -132 0 -153 3
-230 28 -179 59 -319 154 -431 292 -68 82 -117 177 -155 299 -26 82 -29 103
-28 230 0 126 3 149 28 225 95 288 291 488 567 579 106 35 147 40 274 37 97
-3 137 -9 205 -31z"/>
<path d="M2090 5104 c-274 -49 -517 -189 -681 -391 l-64 -80 -115 -6 c-228
-13 -432 -64 -612 -153 -190 -95 -414 -269 -460 -358 -49 -95 25 -201 128
-182 26 5 58 28 113 79 183 171 370 277 586 331 64 16 226 38 232 32 2 -2 -3
-28 -12 -58 -25 -88 -45 -218 -45 -298 0 -161 52 -359 137 -520 157 -299 445
-502 798 -564 114 -20 216 -20 330 0 324 56 611 244 763 500 l36 60 125 12
c150 14 245 33 366 73 178 59 376 172 515 294 83 74 100 100 100 159 0 39 -5
51 -35 81 -30 30 -42 35 -81 35 -48 0 -104 -30 -154 -85 -14 -15 -54 -48 -90
-75 -160 -118 -384 -208 -571 -228 l-75 -8 13 61 c79 361 -73 793 -365 1040
-241 203 -592 302 -882 249z m400 -269 c176 -56 318 -152 431 -291 68 -83 117
-178 155 -299 25 -79 29 -105 29 -220 0 -98 -5 -147 -19 -197 l-19 -68 -41 6
c-111 17 -294 83 -406 146 -84 47 -200 136 -200 153 0 30 -39 90 -87 136 -182
172 -451 326 -649 370 l-54 12 22 25 c86 91 225 177 359 221 106 35 147 40
274 37 97 -3 137 -9 205 -31z m-916 -491 c184 -46 341 -125 496 -250 55 -44
67 -60 78 -99 14 -53 63 -104 187 -194 167 -122 326 -199 513 -247 l101 -27
-42 -50 c-102 -122 -248 -217 -417 -273 -77 -25 -98 -28 -230 -28 -132 0 -153
3 -230 28 -179 59 -319 154 -431 292 -68 82 -117 177 -155 299 -26 82 -29 103
-28 230 0 130 2 147 33 238 22 67 37 97 48 97 8 0 43 -7 77 -16z"/>
<path d="M1231 2162 c-36 -19 -71 -72 -71 -107 0 -35 35 -88 71 -107 32 -17
84 -18 1034 -18 950 0 1002 1 1034 18 36 19 71 72 71 107 0 35 -35 88 -71 107
-32 17 -84 18 -1034 18 -950 0 -1002 -1 -1034 -18z"/>
</g>
</svg>
