<?xml version="1.0" standalone="no"?>
<!DOCTYPE svg PUBLIC "-//W3C//DTD SVG 20010904//EN"
 "http://www.w3.org/TR/2001/REC-SVG-20010904/DTD/svg10.dtd">
<svg version="1.0" xmlns="http://www.w3.org/2000/svg"
 width="256pt" height="1000pt" viewBox="0 0 256 1000"
 preserveAspectRatio="xMidYMid meet">
<metadata>
Created by potrace 1.9, written by Peter Selinger 2001-2010
</metadata>
<g transform="translate(0,1000) scale(0.100000,-0.100000)"
fill="#000000" stroke="none">
<path d="M251 5102 c-19 -10 -43 -34 -53 -53 -17 -32 -18 -84 -18 -1034 0
-950 1 -1002 18 -1034 38 -71 35 -71 524 -71 l438 0 0 -767 0 -768 -397 397
c-436 435 -430 430 -506 393 -61 -29 -87 -88 -67 -152 17 -53 973 -1015 1039
-1045 88 -40 61 -62 629 505 358 358 515 522 523 544 6 18 8 47 4 63 -8 39
-56 87 -95 95 -70 15 -85 2 -492 -403 l-388 -387 0 763 0 762 438 0 c489 0
486 0 524 71 17 32 18 84 18 1034 0 950 -1 1002 -18 1034 -10 19 -34 43 -53
53 -32 17 -84 18 -1034 18 -950 0 -1002 -1 -1034 -18z m1889 -1087 l0 -855
-855 0 -855 0 0 855 0 855 855 0 855 0 0 -855z"/>
</g>
</svg>
