<?xml version="1.0" standalone="no"?>
<!DOCTYPE svg PUBLIC "-//W3C//DTD SVG 20010904//EN"
 "http://www.w3.org/TR/2001/REC-SVG-20010904/DTD/svg10.dtd">
<svg version="1.0" xmlns="http://www.w3.org/2000/svg"
 width="648pt" height="1000pt" viewBox="0 0 648 1000"
 preserveAspectRatio="xMidYMid meet">
<metadata>
Created by potrace 1.9, written by Peter Selinger 2001-2010
</metadata>
<g transform="translate(0,1000) scale(0.100000,-0.100000)"
fill="#000000" stroke="none">
<path d="M251 4122 c-36 -19 -71 -72 -71 -107 0 -35 35 -88 71 -107 29 -16 59
-18 231 -18 l197 0 6 -37 c17 -99 70 -256 122 -353 158 -300 445 -502 798
-564 364 -64 780 97 1017 394 110 137 204 348 233 523 l6 37 1672 0 c1601 0
1674 1 1706 18 36 19 71 72 71 107 0 35 -35 88 -71 107 -32 17 -146 18 -2994
18 -2848 0 -2962 -1 -2994 -18z m2359 -239 c0 -4 -12 -45 -26 -92 -87 -287
-289 -490 -584 -587 -77 -25 -98 -28 -230 -28 -132 0 -153 3 -230 28 -295 97
-497 300 -584 587 -14 47 -26 88 -26 92 0 4 378 7 840 7 462 0 840 -3 840 -7z"/>
</g>
</svg>
