<?xml version="1.0" standalone="no"?>
<!DOCTYPE svg PUBLIC "-//W3C//DTD SVG 20010904//EN"
 "http://www.w3.org/TR/2001/REC-SVG-20010904/DTD/svg10.dtd">
<svg version="1.0" xmlns="http://www.w3.org/2000/svg"
 width="1040pt" height="1000pt" viewBox="0 0 1040 1000"
 preserveAspectRatio="xMidYMid meet">
<metadata>
Created by potrace 1.9, written by Peter Selinger 2001-2010
</metadata>
<g transform="translate(0,1000) scale(0.100000,-0.100000)"
fill="#000000" stroke="none">
<path d="M251 6082 c-19 -10 -43 -34 -53 -53 -17 -32 -18 -84 -18 -1034 0
-950 1 -1002 18 -1034 38 -71 40 -71 484 -71 l398 0 -445 -890 c-246 -492
-447 -906 -450 -927 -16 -104 101 -175 190 -117 20 13 134 232 467 898 l440
881 438 -874 c321 -643 445 -881 466 -898 63 -50 148 -33 186 37 17 33 18 111
18 2015 0 1899 -1 1982 -18 2014 -19 36 -72 71 -107 71 -35 0 -88 -35 -107
-71 -17 -32 -18 -82 -18 -961 l0 -928 -855 0 -855 0 0 928 c0 879 -1 929 -18
961 -19 36 -72 71 -107 71 -11 0 -36 -8 -54 -18z m1888 -2844 l0 -653 -324
645 c-178 355 -324 648 -324 653 -1 4 145 7 324 7 l325 0 -1 -652z"/>
<path d="M3191 6082 c-19 -10 -43 -34 -53 -53 -17 -32 -18 -84 -18 -1034 0
-950 1 -1002 18 -1034 10 -19 34 -43 53 -53 32 -17 84 -18 1034 -18 953 0
1002 1 1035 18 19 11 42 35 53 55 18 35 18 40 2 154 -10 65 -28 156 -42 203
-117 414 -450 708 -889 784 -160 28 -319 15 -498 -40 -169 -53 -381 -189 -480
-307 l-36 -42 0 640 c0 601 -1 642 -18 674 -19 36 -72 71 -107 71 -11 0 -36
-8 -54 -18z m1259 -1247 c292 -94 493 -294 584 -583 14 -46 26 -90 26 -98 0
-12 -113 -14 -840 -14 -727 0 -840 2 -840 14 0 8 12 52 26 98 89 281 290 486
565 577 106 35 147 40 274 37 97 -3 136 -9 205 -31z"/>
<path d="M7995 6094 c-684 -55 -1279 -418 -1631 -994 -143 -235 -234 -491
-279 -780 -21 -137 -25 -328 -7 -362 40 -74 167 -77 212 -5 7 12 18 90 26 178
15 182 18 201 50 329 82 329 238 604 484 850 246 246 519 401 850 485 155 39
245 49 440 49 195 0 285 -10 440 -49 331 -84 604 -239 850 -485 246 -246 402
-521 484 -850 32 -128 35 -147 50 -329 8 -88 19 -166 26 -178 45 -72 172 -69
212 5 18 34 14 225 -7 362 -71 458 -269 853 -585 1170 -378 377 -876 590
-1416 604 -82 2 -171 2 -199 0z"/>
<path d="M8085 4121 c-57 -27 -1988 -1962 -2010 -2013 -8 -21 -15 -45 -15 -55
0 -33 36 -86 71 -105 32 -17 115 -18 2014 -18 1904 0 1982 1 2015 18 46 25 74
81 65 130 -6 33 -119 150 -1003 1036 -583 583 -1010 1004 -1029 1012 -42 18
-60 17 -108 -5z m885 -1116 l825 -825 -1655 0 -1655 0 825 825 c454 454 827
825 830 825 3 0 376 -371 830 -825z"/>
</g>
</svg>
