<?xml version="1.0" standalone="no"?>
<!DOCTYPE svg PUBLIC "-//W3C//DTD SVG 20010904//EN"
 "http://www.w3.org/TR/2001/REC-SVG-20010904/DTD/svg10.dtd">
<svg version="1.0" xmlns="http://www.w3.org/2000/svg"
 width="452pt" height="1000pt" viewBox="0 0 452 1000"
 preserveAspectRatio="xMidYMid meet">
<metadata>
Created by potrace 1.9, written by Peter Selinger 2001-2010
</metadata>
<g transform="translate(0,1000) scale(0.100000,-0.100000)"
fill="#000000" stroke="none">
<path d="M2211 6082 c-71 -38 -71 -35 -71 -524 l0 -438 -438 0 c-404 0 -440
-1 -471 -18 -64 -34 -71 -62 -71 -282 l0 -196 -87 -13 c-232 -33 -412 -100
-610 -227 -150 -97 -271 -203 -305 -268 -49 -95 25 -201 128 -182 26 5 58 28
113 79 42 40 108 96 146 125 74 56 251 147 350 180 69 23 202 52 240 52 l25 0
0 -677 c0 -641 1 -680 19 -718 13 -27 180 -201 512 -531 522 -520 527 -524
602 -509 25 6 137 112 541 513 290 290 514 521 522 539 11 25 14 89 14 276 l0
244 83 12 c299 45 591 183 798 376 68 63 79 83 79 137 0 41 -5 52 -35 83 -30
30 -42 35 -81 35 -48 0 -104 -30 -154 -85 -39 -42 -148 -120 -230 -163 -130
-69 -355 -142 -440 -142 -20 0 -20 2 -20 628 0 588 -1 629 -18 661 -38 71 -35
71 -524 71 l-438 0 0 438 c0 404 -1 440 -18 471 -19 36 -72 71 -107 71 -11 0
-36 -8 -54 -18z m-71 -1467 l0 -256 -22 12 c-13 7 -41 24 -63 39 -135 92 -352
169 -562 201 l-83 12 0 124 0 123 365 0 365 0 0 -255z m980 -300 l0 -555 -32
0 c-202 1 -634 209 -678 326 -11 31 -15 117 -17 412 l-3 372 365 0 365 0 0
-555z m-1592 39 c101 -21 177 -47 289 -99 100 -47 153 -81 256 -163 l67 -54 0
-439 0 -439 -365 0 -365 0 0 605 c0 602 0 605 20 605 12 0 56 -7 98 -16z
m1101 -725 c135 -59 366 -119 462 -119 l29 0 0 -175 0 -175 -365 0 -365 0 0
300 0 300 76 -47 c42 -25 115 -63 163 -84z m-489 -994 c0 -151 -1 -275 -3
-275 -1 0 -126 124 -277 275 l-275 275 278 0 277 0 0 -275z m790 272 c0 -1
-121 -124 -270 -272 l-270 -270 0 273 0 272 270 0 c149 0 270 -1 270 -3z"/>
</g>
</svg>
