<?xml version="1.0" standalone="no"?>
<!DOCTYPE svg PUBLIC "-//W3C//DTD SVG 20010904//EN"
 "http://www.w3.org/TR/2001/REC-SVG-20010904/DTD/svg10.dtd">
<svg version="1.0" xmlns="http://www.w3.org/2000/svg"
 width="452pt" height="1000pt" viewBox="0 0 452 1000"
 preserveAspectRatio="xMidYMid meet">
<metadata>
Created by potrace 1.9, written by Peter Selinger 2001-2010
</metadata>
<g transform="translate(0,1000) scale(0.100000,-0.100000)"
fill="#000000" stroke="none">
<path d="M735 6081 c-61 -29 -529 -504 -545 -554 -20 -64 6 -123 67 -152 68
-33 91 -20 261 148 l152 151 0 -767 0 -767 -193 0 c-167 0 -197 -2 -226 -18
-36 -19 -71 -72 -71 -107 0 -35 35 -88 71 -107 31 -17 69 -18 544 -18 475 0
513 1 544 18 36 19 71 72 71 107 0 35 -35 88 -71 107 -29 16 -59 18 -226 18
l-193 0 0 928 c0 879 -1 929 -18 961 -19 36 -73 71 -107 71 -11 0 -38 -9 -60
-19z"/>
<path d="M3192 6083 c-18 -9 -41 -28 -51 -42 -41 -58 -1971 -3933 -1976 -3968
-16 -104 101 -175 190 -117 21 13 257 479 1021 2006 547 1093 994 1998 994
2011 0 37 -34 89 -71 109 -41 22 -64 22 -107 1z"/>
<path d="M3655 4133 c-256 -40 -449 -208 -510 -443 -21 -81 -24 -188 -7 -222
29 -54 115 -75 172 -41 38 22 48 43 64 139 17 99 43 152 107 216 74 74 144
103 249 103 71 0 94 -5 142 -27 111 -51 206 -178 211 -280 2 -41 -16 -70 -472
-753 -261 -390 -479 -726 -485 -746 -12 -47 16 -104 64 -131 32 -17 68 -18
545 -18 475 0 513 1 544 18 35 19 71 72 71 105 0 31 -30 85 -58 104 -25 16
-62 18 -420 23 l-392 5 426 638 c234 351 430 651 435 665 11 27 8 46 -28 202
-45 198 -218 372 -420 424 -66 17 -189 27 -238 19z"/>
</g>
</svg>
