<?xml version="1.0" standalone="no"?>
<!DOCTYPE svg PUBLIC "-//W3C//DTD SVG 20010904//EN"
 "http://www.w3.org/TR/2001/REC-SVG-20010904/DTD/svg10.dtd">
<svg version="1.0" xmlns="http://www.w3.org/2000/svg"
 width="1138pt" height="1000pt" viewBox="0 0 1138 1000"
 preserveAspectRatio="xMidYMid meet">
<metadata>
Created by potrace 1.9, written by Peter Selinger 2001-2010
</metadata>
<g transform="translate(0,1000) scale(0.100000,-0.100000)"
fill="#000000" stroke="none">
<path d="M251 6082 c-19 -10 -43 -34 -53 -53 -17 -32 -18 -84 -18 -1034 0
-950 1 -1002 18 -1034 38 -71 40 -71 484 -71 l398 0 -445 -890 c-246 -492
-447 -906 -450 -927 -16 -104 101 -175 190 -117 20 13 134 232 467 898 l440
881 438 -874 c321 -643 445 -881 466 -898 63 -50 148 -33 186 37 17 33 18 111
18 2015 0 1899 -1 1982 -18 2014 -19 36 -72 71 -107 71 -35 0 -88 -35 -107
-71 -17 -32 -18 -82 -18 -961 l0 -928 -855 0 -855 0 0 928 c0 879 -1 929 -18
961 -19 36 -72 71 -107 71 -11 0 -36 -8 -54 -18z m1888 -2844 l0 -653 -324
645 c-178 355 -324 648 -324 653 -1 4 145 7 324 7 l325 0 -1 -652z"/>
<path d="M6990 5104 c-194 -35 -394 -125 -531 -240 -290 -242 -446 -650 -384
-1003 49 -279 185 -523 384 -685 145 -119 339 -206 536 -240 165 -29 325 -15
510 45 103 33 266 119 336 179 26 22 50 40 54 40 4 0 28 -18 54 -40 70 -60
233 -146 336 -179 244 -79 446 -79 690 0 103 33 266 119 336 179 26 22 50 40
54 40 4 0 28 -18 54 -40 70 -60 233 -146 336 -179 185 -60 345 -74 510 -45
489 85 833 432 920 925 61 347 -93 758 -373 994 -189 159 -473 265 -712 265
-92 0 -225 -23 -334 -56 -103 -33 -276 -123 -343 -180 -28 -24 -54 -44 -58
-44 -3 0 -28 18 -54 40 -70 60 -233 146 -336 179 -240 78 -440 79 -679 5 -103
-33 -276 -123 -343 -180 -28 -24 -54 -44 -58 -44 -3 0 -28 18 -54 40 -26 22
-93 65 -147 95 -219 122 -481 170 -704 129z m400 -269 c125 -40 226 -94 309
-165 l25 -21 -56 -107 c-119 -227 -161 -463 -123 -681 23 -131 62 -247 123
-363 l56 -107 -25 -21 c-82 -70 -182 -124 -309 -166 -77 -25 -98 -28 -230 -28
-132 0 -153 3 -230 28 -179 59 -319 154 -431 292 -68 82 -117 177 -155 299
-26 82 -29 103 -28 230 0 126 3 149 28 225 95 288 291 488 567 579 106 35 147
40 274 37 97 -3 136 -9 205 -31z m1470 0 c125 -40 226 -94 309 -165 l25 -21
-56 -107 c-119 -227 -161 -463 -123 -681 23 -131 62 -247 123 -363 l56 -107
-25 -21 c-82 -70 -182 -124 -309 -166 -77 -25 -98 -28 -230 -28 -132 0 -153 3
-230 28 -106 35 -220 93 -287 148 l-51 42 23 36 c104 164 175 405 175 590 0
185 -71 426 -175 590 l-23 36 57 46 c89 72 240 140 372 168 24 5 98 8 164 6
97 -3 136 -9 205 -31z m1470 0 c176 -56 318 -152 431 -291 68 -83 117 -178
155 -299 26 -80 29 -104 29 -225 0 -121 -3 -145 -29 -225 -93 -295 -290 -493
-586 -591 -77 -25 -98 -28 -230 -28 -132 0 -153 3 -230 28 -106 35 -220 93
-287 148 l-51 42 23 36 c104 164 175 405 175 590 0 185 -71 426 -175 590 l-23
36 57 46 c89 72 240 140 372 168 24 5 98 8 164 6 97 -3 137 -9 205 -31z
m-2358 -580 c31 -93 33 -110 33 -235 0 -125 -2 -142 -33 -235 -18 -55 -43
-120 -55 -143 l-23 -44 -31 69 c-63 137 -78 205 -78 353 0 148 15 215 78 353
l31 69 23 -44 c12 -23 37 -88 55 -143z m1470 0 c31 -93 33 -110 33 -235 0
-125 -2 -142 -33 -235 -18 -55 -43 -120 -55 -143 l-23 -44 -31 69 c-63 137
-78 205 -78 353 0 148 15 215 78 353 l31 69 23 -44 c12 -23 37 -88 55 -143z"/>
<path d="M4050 4124 c-194 -35 -394 -125 -531 -240 -290 -242 -446 -650 -384
-1003 49 -279 185 -523 384 -685 145 -119 339 -206 536 -240 364 -64 780 97
1017 394 125 155 201 338 239 568 18 108 18 123 4 221 -57 391 -248 683 -560
856 -221 122 -481 170 -705 129z m400 -269 c292 -93 496 -299 584 -586 14 -47
26 -90 26 -97 0 -9 -194 -12 -840 -12 -727 0 -840 2 -840 14 0 8 12 52 26 98
89 281 290 486 565 577 106 35 147 40 274 37 97 -3 137 -9 205 -31z m610 -952
c0 -4 -12 -45 -26 -92 -87 -287 -289 -490 -584 -587 -77 -25 -98 -28 -230 -28
-132 0 -153 3 -230 28 -295 97 -497 300 -584 587 -14 47 -26 88 -26 92 0 4
378 7 840 7 462 0 840 -3 840 -7z"/>
</g>
</svg>
