<?xml version="1.0" standalone="no"?>
<!DOCTYPE svg PUBLIC "-//W3C//DTD SVG 20010904//EN"
 "http://www.w3.org/TR/2001/REC-SVG-20010904/DTD/svg10.dtd">
<svg version="1.0" xmlns="http://www.w3.org/2000/svg"
 width="452pt" height="1000pt" viewBox="0 0 452 1000"
 preserveAspectRatio="xMidYMid meet">
<metadata>
Created by potrace 1.9, written by Peter Selinger 2001-2010
</metadata>
<g transform="translate(0,1000) scale(0.100000,-0.100000)"
fill="#000000" stroke="none">
<path d="M2090 5104 c-270 -49 -508 -184 -674 -383 -112 -134 -206 -339 -237
-515 l-11 -66 -450 0 c-492 0 -489 0 -520 -58 -31 -60 -5 -354 52 -582 184
-731 759 -1306 1490 -1490 197 -49 316 -64 520 -64 204 0 323 15 520 64 592
149 1093 561 1356 1115 112 236 163 438 203 808 13 115 2 152 -54 187 -31 19
-49 20 -483 20 l-450 0 -11 66 c-25 139 -86 294 -166 419 -222 347 -685 552
-1085 479z m400 -269 c292 -94 493 -294 584 -583 14 -46 26 -90 26 -98 0 -12
-113 -14 -840 -14 -727 0 -840 2 -840 14 0 8 12 52 26 98 89 281 290 486 565
577 106 35 147 40 274 37 97 -3 136 -9 205 -31z m1590 -981 c0 -143 -76 -420
-170 -622 -142 -302 -420 -607 -717 -786 -184 -110 -440 -201 -668 -237 -103
-16 -427 -16 -530 0 -228 36 -484 127 -668 237 -297 179 -575 484 -717 786
-94 202 -170 479 -170 622 l0 36 1820 0 1820 0 0 -36z"/>
</g>
</svg>
