<?xml version="1.0" standalone="no"?>
<!DOCTYPE svg PUBLIC "-//W3C//DTD SVG 20010904//EN"
 "http://www.w3.org/TR/2001/REC-SVG-20010904/DTD/svg10.dtd">
<svg version="1.0" xmlns="http://www.w3.org/2000/svg"
 width="942pt" height="1000pt" viewBox="0 0 942 1000"
 preserveAspectRatio="xMidYMid meet">
<metadata>
Created by potrace 1.9, written by Peter Selinger 2001-2010
</metadata>
<g transform="translate(0,1000) scale(0.100000,-0.100000)"
fill="#000000" stroke="none">
<path d="M2205 6081 c-57 -27 -1988 -1962 -2010 -2013 -13 -33 -15 -161 -15
-1035 0 -948 1 -1000 18 -1032 10 -19 34 -43 53 -53 32 -17 115 -18 2014 -18
1899 0 1982 1 2014 18 19 10 43 34 53 53 17 32 18 84 18 1032 0 834 -2 1003
-14 1030 -18 42 -1991 2013 -2029 2027 -39 14 -56 13 -102 -9z m978 -1209
l918 -918 -3 -114 -3 -115 -36 46 c-84 110 -306 254 -474 308 -111 36 -248 61
-335 61 -78 0 -239 -23 -318 -46 -177 -51 -389 -181 -504 -309 -44 -50 -144
-195 -153 -224 -3 -11 -9 -21 -13 -21 -4 0 -21 27 -39 59 -147 266 -443 467
-778 525 -112 20 -193 20 -319 1 -172 -26 -285 -67 -428 -156 -90 -56 -172
-121 -230 -184 l-37 -40 -1 110 0 110 912 912 c502 502 915 913 918 913 3 0
418 -413 923 -918z m-1673 -1017 c83 -27 188 -75 242 -112 l27 -19 -252 -252
-252 -252 -250 250 -250 251 25 19 c39 31 179 96 245 115 149 44 329 43 465 0z
m1960 0 c83 -27 188 -75 242 -112 l27 -19 -252 -252 -252 -252 -250 250 -250
251 25 19 c39 31 179 96 245 115 149 44 329 43 465 0z m-2624 -1064 c-285
-285 -251 -271 -319 -136 -142 283 -125 588 47 852 l21 33 250 -250 250 -250
-249 -249z m1131 732 c30 -39 93 -173 119 -258 26 -80 29 -104 29 -225 0 -121
-3 -145 -29 -225 -27 -86 -89 -219 -121 -260 -15 -19 -26 -9 -268 233 l-252
252 250 250 c137 137 252 250 254 250 2 0 10 -8 18 -17z m829 -732 c-285 -285
-251 -271 -319 -136 -142 283 -125 588 47 852 l21 33 250 -250 250 -250 -249
-249z m1131 732 c30 -39 93 -173 119 -258 26 -80 29 -104 29 -225 0 -121 -3
-145 -29 -225 -27 -86 -89 -219 -121 -260 -15 -19 -26 -9 -268 233 l-252 252
250 250 c137 137 252 250 254 250 2 0 10 -8 18 -17z m-2185 -1186 c-53 -36
-158 -85 -242 -113 -77 -25 -98 -28 -230 -28 -132 0 -153 3 -230 28 -47 15
-119 46 -160 67 -134 70 -149 34 135 319 l250 250 252 -252 252 -252 -27 -19z
m1960 0 c-53 -36 -158 -85 -242 -113 -77 -25 -98 -28 -230 -28 -132 0 -153 3
-230 28 -47 15 -119 46 -160 67 -134 70 -149 34 135 319 l250 250 252 -252
252 -252 -27 -19z m-1413 140 c45 -81 152 -212 210 -257 l46 -35 -148 -3 c-81
-1 -213 -1 -295 0 l-147 3 47 36 c56 43 166 179 211 260 18 32 34 59 37 59 3
0 20 -28 39 -63z m1798 -294 c-3 -2 -42 -3 -88 -1 l-84 3 48 37 c27 20 65 58
85 85 l37 48 3 -84 c2 -46 1 -85 -1 -88z m-3587 70 c14 -12 39 -33 55 -47 l30
-25 -82 -1 -83 0 0 83 1 82 27 -35 c15 -19 38 -45 52 -57z"/>
<path d="M5165 6092 c-99 -35 -118 -168 -32 -222 12 -7 90 -18 178 -26 182
-15 201 -18 329 -50 165 -41 358 -119 493 -200 242 -146 495 -399 641 -641
133 -221 246 -579 246 -777 0 -39 -3 -46 -22 -50 -179 -35 -281 -73 -405 -147
-181 -110 -291 -224 -394 -411 -108 -195 -160 -459 -129 -660 77 -505 427
-865 925 -952 291 -51 619 41 870 243 279 225 442 651 380 1000 -63 356 -257
636 -553 798 -119 65 -201 93 -364 128 -26 5 -28 9 -28 51 0 198 113 556 246
777 146 242 399 495 641 641 135 81 328 159 493 200 128 32 147 35 329 50 88
8 166 19 178 26 72 45 69 172 -5 212 -34 18 -225 14 -362 -7 -629 -97 -1150
-442 -1476 -975 -63 -105 -145 -272 -165 -337 -6 -24 -15 -43 -19 -43 -4 0
-13 19 -19 43 -7 23 -34 87 -60 142 -207 436 -555 786 -986 991 -242 115 -526
185 -800 198 -60 3 -119 2 -130 -2z m2225 -2237 c83 -27 188 -75 242 -112 l27
-19 -252 -252 -252 -252 -250 250 -250 251 25 19 c39 31 179 96 245 115 149
44 329 43 465 0z m-664 -1064 c-285 -285 -251 -271 -319 -136 -142 283 -125
588 47 852 l21 33 250 -250 250 -250 -249 -249z m1131 732 c30 -39 93 -173
119 -258 26 -80 29 -104 29 -225 0 -121 -3 -145 -29 -225 -27 -86 -89 -219
-121 -260 -15 -19 -26 -9 -268 233 l-252 252 250 250 c137 137 252 250 254
250 2 0 10 -8 18 -17z m-225 -1186 c-53 -36 -158 -85 -242 -113 -77 -25 -98
-28 -230 -28 -132 0 -153 3 -230 28 -47 15 -119 46 -160 67 -134 70 -149 34
135 319 l250 250 252 -252 252 -252 -27 -19z"/>
</g>
</svg>
