<?xml version="1.0" standalone="no"?>
<!DOCTYPE svg PUBLIC "-//W3C//DTD SVG 20010904//EN"
 "http://www.w3.org/TR/2001/REC-SVG-20010904/DTD/svg10.dtd">
<svg version="1.0" xmlns="http://www.w3.org/2000/svg"
 width="1040pt" height="1000pt" viewBox="0 0 1040 1000"
 preserveAspectRatio="xMidYMid meet">
<metadata>
Created by potrace 1.9, written by Peter Selinger 2001-2010
</metadata>
<g transform="translate(0,1000) scale(0.100000,-0.100000)"
fill="#000000" stroke="none">
<path d="M251 6082 c-19 -10 -43 -34 -53 -53 -17 -32 -18 -84 -18 -1034 0
-950 1 -1002 18 -1034 38 -71 40 -71 484 -71 l398 0 -445 -890 c-246 -492
-447 -906 -450 -927 -16 -104 101 -175 190 -117 20 13 134 232 467 898 l440
881 438 -874 c321 -643 445 -881 466 -898 63 -50 148 -33 186 37 17 33 18 111
18 2015 0 1899 -1 1982 -18 2014 -19 36 -72 71 -107 71 -35 0 -88 -35 -107
-71 -17 -32 -18 -82 -18 -961 l0 -928 -855 0 -855 0 0 928 c0 879 -1 929 -18
961 -19 36 -72 71 -107 71 -11 0 -36 -8 -54 -18z m1888 -2844 l0 -653 -324
645 c-178 355 -324 648 -324 653 -1 4 145 7 324 7 l325 0 -1 -652z"/>
<path d="M3205 6092 c-99 -35 -118 -168 -32 -222 12 -7 90 -18 178 -26 182
-15 201 -18 329 -50 329 -82 604 -238 850 -484 246 -246 402 -521 484 -850 32
-128 35 -147 50 -329 8 -88 19 -166 26 -178 44 -70 176 -70 220 0 7 12 18 90
26 178 15 182 18 201 50 329 82 329 238 604 484 850 246 246 521 402 850 484
128 32 147 35 329 50 88 8 166 19 178 26 72 45 69 172 -5 212 -34 18 -225 14
-362 -7 -629 -97 -1150 -442 -1476 -975 -63 -105 -145 -272 -165 -337 -6 -24
-15 -43 -19 -43 -4 0 -13 19 -19 43 -7 23 -34 87 -60 142 -207 436 -555 786
-986 991 -242 115 -526 185 -800 198 -60 3 -119 2 -130 -2z"/>
<path d="M9071 6082 c-19 -10 -43 -34 -53 -53 -17 -32 -18 -113 -18 -1941 l0
-1908 -438 0 c-404 0 -440 -1 -471 -18 -36 -19 -71 -72 -71 -107 0 -35 35 -88
71 -107 32 -17 84 -18 1034 -18 950 0 1002 1 1034 18 36 19 71 72 71 107 0 35
-35 88 -71 107 -31 17 -67 18 -471 18 l-438 0 0 1908 c0 1828 -1 1909 -18
1941 -19 36 -72 71 -107 71 -11 0 -36 -8 -54 -18z"/>
</g>
</svg>
