<?xml version="1.0" standalone="no"?>
<!DOCTYPE svg PUBLIC "-//W3C//DTD SVG 20010904//EN"
 "http://www.w3.org/TR/2001/REC-SVG-20010904/DTD/svg10.dtd">
<svg version="1.0" xmlns="http://www.w3.org/2000/svg"
 width="844pt" height="1000pt" viewBox="0 0 844 1000"
 preserveAspectRatio="xMidYMid meet">
<metadata>
Created by potrace 1.9, written by Peter Selinger 2001-2010
</metadata>
<g transform="translate(0,1000) scale(0.100000,-0.100000)"
fill="#000000" stroke="none">
<path d="M4170 6085 c-22 -10 -550 -531 -1462 -1443 l-1428 -1427 -457 457
c-397 395 -463 458 -495 463 -64 12 -127 -31 -144 -99 -16 -65 5 -90 471 -556
l445 -445 -449 -450 c-468 -470 -483 -487 -466 -552 16 -67 79 -110 143 -98
32 5 98 68 494 463 l458 457 452 -452 c476 -474 488 -483 558 -468 39 8 87 56
95 95 4 16 2 45 -4 62 -8 23 -151 173 -466 488 l-455 455 1439 1440 c1576
1576 1475 1467 1436 1548 -30 64 -100 90 -165 62z"/>
<path d="M6035 4134 c-680 -53 -1280 -418 -1631 -994 -143 -235 -234 -491
-279 -780 -21 -137 -25 -328 -7 -362 40 -74 167 -77 212 -5 7 12 18 90 26 178
15 182 18 201 50 329 82 329 238 604 484 850 246 246 521 402 850 484 128 32
147 35 329 50 88 8 166 19 178 26 70 44 69 166 -1 210 -22 14 -124 20 -211 14z"/>
<path d="M7995 4134 c-680 -53 -1280 -418 -1631 -994 -143 -235 -234 -491
-279 -780 -21 -137 -25 -328 -7 -362 40 -74 167 -77 212 -5 7 12 18 90 26 178
15 182 18 201 50 329 82 329 238 604 484 850 246 246 521 402 850 484 128 32
147 35 329 50 88 8 166 19 178 26 70 44 69 166 -1 210 -22 14 -124 20 -211 14z"/>
</g>
</svg>
