<?xml version="1.0" standalone="no"?>
<!DOCTYPE svg PUBLIC "-//W3C//DTD SVG 20010904//EN"
 "http://www.w3.org/TR/2001/REC-SVG-20010904/DTD/svg10.dtd">
<svg version="1.0" xmlns="http://www.w3.org/2000/svg"
 width="893pt" height="1000pt" viewBox="0 0 893 1000"
 preserveAspectRatio="xMidYMid meet">
<metadata>
Created by potrace 1.9, written by Peter Selinger 2001-2010
</metadata>
<g transform="translate(0,1000) scale(0.100000,-0.100000)"
fill="#000000" stroke="none">
<path d="M3095 6094 c-172 -14 -419 -67 -575 -124 -565 -207 -1023 -665 -1230
-1230 -58 -161 -120 -449 -120 -562 l0 -45 -70 -12 c-177 -29 -385 -124 -521
-237 -290 -242 -446 -650 -384 -1003 49 -279 185 -523 384 -685 188 -154 467
-256 701 -256 239 0 523 106 712 265 280 236 434 647 373 994 -62 352 -254
632 -543 792 -125 69 -207 99 -374 134 -26 5 -28 9 -28 51 0 198 113 556 246
777 146 242 399 495 641 641 184 110 440 201 668 237 44 7 163 13 265 13 102
0 221 -6 265 -13 228 -36 484 -127 668 -237 242 -146 495 -399 641 -641 133
-221 246 -579 246 -777 0 -39 -3 -46 -22 -50 -163 -34 -245 -62 -367 -127
-293 -157 -494 -444 -555 -795 -39 -221 3 -461 121 -684 157 -299 445 -502
798 -564 114 -20 216 -20 330 0 489 85 833 432 920 925 61 347 -93 758 -373
994 -142 119 -354 218 -529 246 l-73 12 0 45 c0 113 -62 401 -120 562 -207
565 -665 1023 -1230 1230 -108 39 -286 84 -416 104 -102 16 -357 27 -449 20z
m-1585 -2239 c176 -56 318 -152 431 -291 68 -83 117 -178 155 -299 26 -80 29
-104 29 -225 0 -121 -3 -145 -29 -225 -93 -295 -290 -493 -586 -591 -77 -25
-98 -28 -230 -28 -132 0 -153 3 -230 28 -179 59 -319 154 -431 292 -68 82
-117 177 -155 299 -26 82 -29 103 -28 230 0 126 3 149 28 225 95 288 291 488
567 579 106 35 147 40 274 37 97 -3 137 -9 205 -31z m3920 0 c176 -56 318
-152 431 -291 68 -83 117 -178 155 -299 26 -80 29 -104 29 -225 0 -121 -3
-145 -29 -225 -93 -295 -290 -493 -586 -591 -77 -25 -98 -28 -230 -28 -132 0
-153 3 -230 28 -179 59 -319 154 -431 292 -68 82 -117 177 -155 299 -26 82
-29 103 -28 230 0 126 3 149 28 225 95 288 291 488 567 579 106 35 147 40 274
37 97 -3 137 -9 205 -31z"/>
<path d="M7595 6086 c-63 -27 -89 -120 -51 -178 10 -15 68 -70 129 -122 349
-294 605 -686 732 -1119 122 -419 122 -875 0 -1294 -127 -433 -383 -825 -732
-1119 -128 -109 -146 -133 -146 -190 0 -85 77 -141 158 -114 20 7 93 60 163
120 448 380 752 913 857 1500 70 395 48 793 -67 1185 -135 462 -423 905 -790
1216 -150 127 -187 144 -253 115z"/>
<path d="M7545 5095 c-30 -31 -35 -42 -35 -83 0 -41 6 -54 43 -99 144 -176
180 -225 220 -302 54 -102 100 -230 124 -343 24 -115 24 -370 -1 -488 -44
-211 -175 -473 -291 -580 -55 -50 -85 -106 -85 -154 0 -39 5 -51 35 -81 30
-30 42 -35 81 -35 59 0 85 17 159 100 295 336 428 810 350 1253 -52 290 -173
538 -374 762 -63 70 -88 85 -143 85 -41 0 -52 -5 -83 -35z"/>
<path d="M7110 4627 c-20 -7 -44 -27 -58 -47 -35 -52 -27 -104 29 -176 106
-135 143 -233 143 -379 0 -145 -37 -244 -142 -379 -68 -86 -66 -167 4 -213 33
-21 104 -21 135 0 39 28 116 127 155 200 134 255 134 529 0 784 -37 70 -115
172 -151 197 -31 21 -77 26 -115 13z"/>
</g>
</svg>
