<?xml version="1.0" standalone="no"?>
<!DOCTYPE svg PUBLIC "-//W3C//DTD SVG 20010904//EN"
 "http://www.w3.org/TR/2001/REC-SVG-20010904/DTD/svg10.dtd">
<svg version="1.0" xmlns="http://www.w3.org/2000/svg"
 width="746pt" height="1000pt" viewBox="0 0 746 1000"
 preserveAspectRatio="xMidYMid meet">
<metadata>
Created by potrace 1.9, written by Peter Selinger 2001-2010
</metadata>
<g transform="translate(0,1000) scale(0.100000,-0.100000)"
fill="#000000" stroke="none">
<path d="M1721 8042 c-47 -25 -74 -76 -66 -125 3 -21 118 -263 255 -537 272
-544 273 -545 355 -545 78 1 77 -2 357 559 278 556 274 547 233 609 -23 35
-79 60 -118 53 -66 -13 -82 -38 -282 -436 l-193 -385 -195 391 c-143 286 -202
395 -222 408 -41 27 -85 30 -124 8z"/>
<path d="M6131 6082 c-19 -10 -43 -34 -53 -53 -17 -32 -18 -110 -18 -1854 l0
-1820 -397 397 c-436 435 -430 430 -506 393 -61 -29 -87 -88 -67 -152 17 -53
973 -1015 1039 -1045 88 -40 61 -62 629 505 358 358 515 522 523 544 6 18 8
47 4 63 -8 39 -56 87 -95 95 -70 15 -85 2 -492 -403 l-388 -387 0 1815 c0
1739 -1 1817 -18 1849 -19 36 -72 71 -107 71 -11 0 -36 -8 -54 -18z"/>
<path d="M251 4122 c-36 -19 -71 -72 -71 -107 0 -35 35 -88 71 -107 32 -17 81
-18 921 -18 l888 0 -445 -890 c-246 -492 -447 -906 -450 -927 -8 -49 19 -100
66 -125 32 -17 84 -18 1034 -18 950 0 1002 1 1034 18 37 20 71 72 71 109 0 12
-202 428 -450 923 -247 495 -450 902 -450 905 0 3 399 5 888 5 840 0 889 1
921 18 36 19 71 72 71 107 0 35 -35 88 -71 107 -32 17 -115 18 -2014 18 -1899
0 -1982 -1 -2014 -18z m2016 -1940 c-424 -1 -772 0 -774 2 -2 2 170 352 383
777 l387 774 387 -775 388 -775 -771 -3z"/>
</g>
</svg>
