<?xml version="1.0" standalone="no"?>
<!DOCTYPE svg PUBLIC "-//W3C//DTD SVG 20010904//EN"
 "http://www.w3.org/TR/2001/REC-SVG-20010904/DTD/svg10.dtd">
<svg version="1.0" xmlns="http://www.w3.org/2000/svg"
 width="648pt" height="1000pt" viewBox="0 0 648 1000"
 preserveAspectRatio="xMidYMid meet">
<metadata>
Created by potrace 1.9, written by Peter Selinger 2001-2010
</metadata>
<g transform="translate(0,1000) scale(0.100000,-0.100000)"
fill="#000000" stroke="none">
<path d="M251 6082 c-36 -19 -71 -73 -71 -107 0 -11 9 -38 19 -60 27 -57 1962
-1988 2013 -2010 31 -13 100 -15 433 -15 l395 0 -445 -890 c-246 -492 -447
-906 -450 -927 -16 -104 101 -175 190 -117 20 13 134 232 467 898 l440 881
439 -877 c478 -955 459 -923 544 -923 22 0 53 9 68 19 23 15 124 209 469 900
l440 881 438 -874 c321 -643 445 -881 466 -898 78 -62 184 -20 201 81 4 27
-61 164 -446 934 -248 496 -451 904 -451 907 0 3 179 5 398 5 447 0 447 0 485
74 43 82 106 10 -996 1114 -711 711 -1011 1005 -1035 1013 -17 6 -46 8 -62 4
-39 -8 -87 -56 -95 -95 -16 -73 -31 -57 893 -982 l877 -878 -800 0 -800 0
-970 970 c-686 687 -980 973 -1003 981 -17 6 -46 8 -62 4 -39 -8 -87 -56 -95
-95 -16 -73 -31 -57 893 -982 l877 -878 -800 0 -800 0 -965 966 c-562 563
-978 972 -997 980 -43 18 -61 18 -102 -4z m4363 -2964 c-212 -425 -388 -775
-390 -777 -3 -3 -774 1534 -774 1544 0 3 349 5 775 5 l775 0 -386 -772z"/>
</g>
</svg>
