<?xml version="1.0" standalone="no"?>
<!DOCTYPE svg PUBLIC "-//W3C//DTD SVG 20010904//EN"
 "http://www.w3.org/TR/2001/REC-SVG-20010904/DTD/svg10.dtd">
<svg version="1.0" xmlns="http://www.w3.org/2000/svg"
 width="452pt" height="1000pt" viewBox="0 0 452 1000"
 preserveAspectRatio="xMidYMid meet">
<metadata>
Created by potrace 1.9, written by Peter Selinger 2001-2010
</metadata>
<g transform="translate(0,1000) scale(0.100000,-0.100000)"
fill="#000000" stroke="none">
<path d="M251 6082 c-44 -24 -74 -76 -67 -120 11 -76 -5 -66 922 -530 l874
-437 -872 -436 c-641 -321 -878 -444 -895 -465 -62 -78 -20 -184 81 -201 27
-4 164 61 934 446 496 248 904 451 907 451 3 0 5 -148 5 -329 l0 -329 -67 -12
c-144 -24 -253 -65 -380 -142 -180 -108 -291 -223 -394 -410 -108 -195 -160
-459 -129 -660 77 -505 427 -865 925 -952 291 -51 619 41 870 243 191 154 332
405 380 682 63 355 -102 780 -391 1009 -142 112 -353 206 -526 235 l-38 6 0
329 0 330 890 -445 c492 -246 906 -447 927 -450 104 -16 175 101 117 190 -13
20 -232 134 -901 468 l-883 442 881 440 c654 327 886 447 900 467 63 88 -9
209 -114 193 -21 -3 -464 -218 -992 -483 l-955 -477 -967 483 c-533 266 -977
483 -988 482 -11 0 -36 -8 -54 -18z m2239 -2227 c83 -27 188 -75 242 -112 l27
-19 -252 -252 -252 -252 -250 250 -250 251 25 19 c39 31 179 96 245 115 149
44 329 43 465 0z m-664 -1064 c-285 -285 -251 -271 -319 -136 -142 283 -125
588 47 852 l21 33 250 -250 250 -250 -249 -249z m1131 732 c30 -39 93 -173
119 -258 26 -80 29 -104 29 -225 0 -121 -3 -145 -29 -225 -27 -86 -89 -219
-121 -260 -15 -19 -26 -9 -268 233 l-252 252 250 250 c137 137 252 250 254
250 2 0 10 -8 18 -17z m-225 -1186 c-53 -36 -158 -85 -242 -113 -77 -25 -98
-28 -230 -28 -132 0 -153 3 -230 28 -47 15 -119 46 -160 67 -134 70 -149 34
135 319 l250 250 252 -252 252 -252 -27 -19z"/>
</g>
</svg>
