<?xml version="1.0" standalone="no"?>
<!DOCTYPE svg PUBLIC "-//W3C//DTD SVG 20010904//EN"
 "http://www.w3.org/TR/2001/REC-SVG-20010904/DTD/svg10.dtd">
<svg version="1.0" xmlns="http://www.w3.org/2000/svg"
 width="746pt" height="1000pt" viewBox="0 0 746 1000"
 preserveAspectRatio="xMidYMid meet">
<metadata>
Created by potrace 1.9, written by Peter Selinger 2001-2010
</metadata>
<g transform="translate(0,1000) scale(0.100000,-0.100000)"
fill="#000000" stroke="none">
<path d="M5140 7063 c-14 -9 -30 -24 -37 -33 -21 -27 -26 -102 -13 -195 40
-286 183 -551 389 -719 138 -113 340 -206 514 -236 l67 -12 0 -1917 c0 -1837
1 -1918 18 -1950 19 -36 72 -71 107 -71 35 0 88 35 107 71 17 32 18 113 18
1951 l0 1917 38 6 c72 12 218 56 279 85 237 110 406 269 521 488 106 203 164
512 109 582 -52 67 -164 65 -206 -2 -7 -11 -17 -63 -22 -116 -34 -367 -263
-651 -619 -768 -77 -25 -98 -28 -230 -28 -132 0 -153 3 -230 28 -179 59 -319
154 -431 292 -103 126 -171 299 -188 476 -5 53 -15 105 -22 116 -31 50 -121
68 -169 35z"/>
<path d="M1231 3142 c-35 -19 -71 -72 -71 -105 0 -55 41 -103 413 -474 l382
-383 -835 0 c-790 0 -837 -1 -869 -18 -36 -19 -71 -72 -71 -107 0 -35 35 -88
71 -107 32 -17 115 -18 2014 -18 1899 0 1982 1 2014 18 36 19 71 72 71 107 0
35 -35 88 -71 107 -32 17 -79 18 -874 18 l-840 0 397 398 c342 342 398 402
403 434 12 64 -31 127 -98 143 -65 17 -82 2 -555 -469 l-452 -451 -453 452
c-248 249 -465 457 -480 463 -39 14 -57 13 -96 -8z"/>
</g>
</svg>
