<?xml version="1.0" standalone="no"?>
<!DOCTYPE svg PUBLIC "-//W3C//DTD SVG 20010904//EN"
 "http://www.w3.org/TR/2001/REC-SVG-20010904/DTD/svg10.dtd">
<svg version="1.0" xmlns="http://www.w3.org/2000/svg"
 width="1138pt" height="1000pt" viewBox="0 0 1138 1000"
 preserveAspectRatio="xMidYMid meet">
<metadata>
Created by potrace 1.9, written by Peter Selinger 2001-2010
</metadata>
<g transform="translate(0,1000) scale(0.100000,-0.100000)"
fill="#000000" stroke="none">
<path d="M2090 8044 c-270 -49 -508 -184 -674 -383 -152 -182 -256 -467 -256
-701 0 -291 155 -637 367 -819 l48 -40 -645 -1 c-606 0 -647 -1 -679 -18 -36
-19 -71 -72 -71 -107 0 -35 35 -88 71 -107 32 -17 82 -18 961 -18 l928 0 0
-1835 0 -1835 -438 0 c-404 0 -440 -1 -471 -18 -36 -19 -71 -72 -71 -107 0
-35 35 -88 71 -107 32 -17 84 -18 1034 -18 950 0 1002 1 1034 18 36 19 71 72
71 107 0 35 -35 88 -71 107 -31 17 -67 18 -471 18 l-438 0 0 1835 0 1835 928
0 c879 0 929 1 961 18 36 19 71 72 71 107 0 35 -35 88 -71 107 -32 17 -73 18
-681 18 l-648 0 83 83 c167 166 268 367 312 618 61 347 -93 758 -373 994 -241
203 -592 302 -882 249z m50 -1084 c0 -727 -2 -840 -14 -840 -33 0 -186 54
-257 91 -144 75 -291 222 -362 364 -19 39 -48 111 -63 160 -26 82 -29 103 -28
230 0 126 3 149 28 225 16 47 44 117 63 155 70 140 221 293 358 363 71 36 225
91 258 92 16 0 17 -47 17 -840z m352 814 c173 -54 316 -151 429 -290 68 -83
117 -178 155 -299 26 -80 29 -104 29 -225 0 -121 -3 -145 -29 -225 -93 -295
-295 -498 -584 -589 -46 -14 -87 -26 -93 -26 -5 0 -9 317 -9 840 0 523 4 840
9 840 6 0 47 -12 93 -26z"/>
<path d="M8975 6094 c-684 -55 -1279 -418 -1631 -994 -143 -235 -234 -491
-279 -780 -21 -137 -25 -328 -7 -362 40 -74 167 -77 212 -5 7 12 18 90 26 178
15 182 18 201 50 329 82 329 238 604 484 850 246 246 519 401 850 485 155 39
245 49 440 49 195 0 285 -10 440 -49 331 -84 604 -239 850 -485 246 -246 402
-521 484 -850 32 -128 35 -147 50 -329 8 -88 19 -166 26 -178 45 -72 172 -69
212 5 18 34 14 225 -7 362 -71 458 -269 853 -585 1170 -378 377 -876 590
-1416 604 -82 2 -171 2 -199 0z"/>
<path d="M9071 5102 c-19 -10 -43 -34 -53 -53 -17 -32 -18 -77 -18 -789 0
-712 1 -757 18 -789 19 -36 72 -71 107 -71 35 0 88 35 107 71 17 32 18 77 18
789 0 712 -1 757 -18 789 -19 36 -72 71 -107 71 -11 0 -36 -8 -54 -18z"/>
<path d="M5635 4121 c-61 -29 -529 -504 -545 -554 -20 -64 6 -123 67 -152 68
-33 91 -20 261 148 l152 151 0 -767 0 -767 -193 0 c-167 0 -197 -2 -226 -18
-36 -19 -71 -72 -71 -107 0 -35 35 -88 71 -107 31 -17 69 -18 544 -18 475 0
513 1 544 18 36 19 71 72 71 107 0 35 -35 88 -71 107 -29 16 -59 18 -226 18
l-193 0 0 928 c0 879 -1 929 -18 961 -19 36 -73 71 -107 71 -11 0 -38 -9 -60
-19z"/>
<path d="M9083 3173 c-33 -6 -79 -57 -86 -92 -26 -127 122 -210 212 -120 43
42 49 93 18 156 -20 42 -87 68 -144 56z"/>
</g>
</svg>
