<?xml version="1.0" standalone="no"?>
<!DOCTYPE svg PUBLIC "-//W3C//DTD SVG 20010904//EN"
 "http://www.w3.org/TR/2001/REC-SVG-20010904/DTD/svg10.dtd">
<svg version="1.0" xmlns="http://www.w3.org/2000/svg"
 width="1040pt" height="1000pt" viewBox="0 0 1040 1000"
 preserveAspectRatio="xMidYMid meet">
<metadata>
Created by potrace 1.9, written by Peter Selinger 2001-2010
</metadata>
<g transform="translate(0,1000) scale(0.100000,-0.100000)"
fill="#000000" stroke="none">
<path d="M1721 8042 c-19 -10 -43 -34 -53 -53 -17 -31 -18 -69 -18 -544 0
-475 1 -513 18 -544 10 -19 34 -43 53 -53 31 -17 69 -18 544 -18 475 0 513 1
544 18 19 10 43 34 53 53 17 31 18 69 18 544 0 475 -1 513 -18 544 -10 19 -34
43 -53 53 -31 17 -69 18 -544 18 -475 0 -513 -1 -544 -18z m909 -597 l0 -365
-365 0 -365 0 0 365 0 365 365 0 365 0 0 -365z"/>
<path d="M2211 6082 c-19 -10 -43 -34 -53 -53 -17 -32 -18 -82 -18 -961 l0
-928 -928 0 c-879 0 -929 -1 -961 -18 -36 -19 -71 -72 -71 -107 0 -35 35 -88
71 -107 32 -17 82 -18 961 -18 l928 0 0 -928 c0 -879 1 -929 18 -961 19 -36
72 -71 107 -71 35 0 88 35 107 71 17 32 18 82 18 961 l0 928 928 0 c879 0 929
1 961 18 36 19 71 72 71 107 0 35 -35 88 -71 107 -32 17 -82 18 -961 18 l-928
0 0 928 c0 879 -1 929 -18 961 -19 36 -72 71 -107 71 -11 0 -36 -8 -54 -18z"/>
<path d="M9072 6090 c-39 -16 -274 -224 -368 -326 -258 -282 -467 -650 -572
-1009 -142 -486 -142 -984 0 -1470 105 -358 313 -726 572 -1009 98 -106 344
-322 385 -338 41 -15 88 0 129 41 20 20 78 72 128 114 260 220 516 573 662
915 154 358 228 787 203 1165 -48 709 -364 1345 -893 1798 -152 130 -181 144
-246 119z m-72 -2072 l-1 -1683 -90 95 c-187 197 -342 433 -448 679 -107 251
-163 484 -182 759 -43 638 175 1250 614 1725 55 59 101 107 103 107 2 0 4
-757 4 -1682z m507 1382 c113 -151 199 -299 272 -469 326 -762 223 -1632 -272
-2291 -47 -63 -124 -155 -171 -205 l-85 -90 0 1675 0 1675 85 -90 c47 -49 124
-142 171 -205z"/>
<path d="M7123 4143 c-33 -6 -79 -57 -86 -92 -26 -127 122 -210 212 -120 43
42 49 93 18 156 -20 42 -87 68 -144 56z"/>
<path d="M5163 2183 c-33 -6 -79 -57 -86 -92 -26 -127 122 -210 212 -120 43
42 49 93 18 156 -20 42 -87 68 -144 56z"/>
<path d="M7123 2183 c-33 -6 -79 -57 -86 -92 -26 -127 122 -210 212 -120 43
42 49 93 18 156 -20 42 -87 68 -144 56z"/>
</g>
</svg>
