<?xml version="1.0" standalone="no"?>
<!DOCTYPE svg PUBLIC "-//W3C//DTD SVG 20010904//EN"
 "http://www.w3.org/TR/2001/REC-SVG-20010904/DTD/svg10.dtd">
<svg version="1.0" xmlns="http://www.w3.org/2000/svg"
 width="1236pt" height="1000pt" viewBox="0 0 1236 1000"
 preserveAspectRatio="xMidYMid meet">
<metadata>
Created by potrace 1.9, written by Peter Selinger 2001-2010
</metadata>
<g transform="translate(0,1000) scale(0.100000,-0.100000)"
fill="#000000" stroke="none">
<path d="M10910 6084 c-194 -35 -394 -125 -531 -240 -202 -168 -335 -405 -383
-680 -28 -160 -17 -307 40 -493 27 -90 118 -274 160 -325 l26 -29 -1090 -1091
c-1151 -1152 -1123 -1122 -1107 -1196 8 -39 56 -87 95 -95 16 -4 45 -2 62 4
24 8 350 328 1123 1101 599 599 1094 1090 1098 1090 5 0 23 -11 40 -24 58 -44
221 -124 303 -150 180 -55 338 -68 499 -40 489 85 833 432 920 925 61 347 -93
758 -373 994 -241 203 -592 302 -882 249z m400 -269 c176 -56 318 -152 431
-291 68 -83 117 -178 155 -299 26 -80 29 -104 29 -225 0 -121 -3 -145 -29
-225 -93 -295 -290 -493 -586 -591 -77 -25 -98 -28 -230 -28 -132 0 -153 3
-230 28 -151 50 -304 142 -343 206 -9 14 -26 32 -39 39 -63 35 -155 190 -204
346 -26 82 -29 103 -28 230 0 126 3 149 28 225 95 288 291 488 567 579 106 35
147 40 274 37 97 -3 137 -9 205 -31z"/>
<path d="M6010 5104 c-194 -35 -394 -125 -531 -240 -290 -242 -446 -650 -384
-1003 49 -279 185 -523 384 -685 145 -119 339 -206 536 -240 114 -20 216 -20
330 0 489 85 833 432 920 925 61 347 -93 758 -373 994 -241 203 -592 302 -882
249z m400 -269 c176 -56 318 -152 431 -291 68 -83 117 -178 155 -299 26 -80
29 -104 29 -225 0 -121 -3 -145 -29 -225 -93 -295 -290 -493 -586 -591 -77
-25 -98 -28 -230 -28 -132 0 -153 3 -230 28 -179 59 -319 154 -431 292 -68 82
-117 177 -155 299 -26 82 -29 103 -28 230 0 126 3 149 28 225 95 288 291 488
567 579 106 35 147 40 274 37 97 -3 137 -9 205 -31z"/>
<path d="M6143 4143 c-33 -6 -79 -57 -86 -92 -26 -127 122 -210 212 -120 43
42 49 93 18 156 -20 42 -87 68 -144 56z"/>
<path d="M238 4123 c-46 -29 -53 -56 -51 -182 5 -258 77 -558 195 -813 l41
-88 -41 -87 c-118 -256 -190 -556 -195 -814 -2 -127 6 -154 53 -182 54 -33
138 -15 170 36 7 12 18 90 26 178 15 182 18 201 50 329 21 86 74 244 93 277 5
9 22 -8 56 -54 70 -95 250 -272 359 -353 386 -286 797 -424 1266 -424 469 0
880 138 1266 424 109 81 289 258 359 353 34 46 51 63 56 54 19 -33 72 -191 93
-277 32 -128 35 -147 50 -329 8 -88 19 -166 26 -178 32 -51 116 -69 170 -36
47 28 55 55 53 182 -5 258 -77 558 -195 814 l-41 87 41 88 c118 255 190 555
195 813 2 127 -6 154 -53 182 -54 33 -138 15 -170 -36 -7 -12 -18 -90 -26
-178 -15 -182 -18 -200 -50 -329 -20 -83 -47 -164 -86 -262 l-10 -28 -50 66
c-73 96 -256 275 -362 354 -386 286 -797 424 -1266 424 -469 0 -880 -138
-1266 -424 -106 -79 -289 -258 -362 -354 l-50 -66 -10 28 c-39 98 -66 179 -86
262 -32 129 -35 147 -50 329 -8 88 -19 166 -26 178 -32 51 -119 69 -172 36z
m2295 -254 c215 -32 478 -126 660 -235 117 -71 245 -173 357 -284 105 -105
250 -285 250 -310 0 -24 -159 -219 -259 -319 -240 -238 -514 -393 -841 -476
-155 -39 -245 -49 -440 -49 -195 0 -285 10 -440 49 -327 83 -601 238 -841 476
-100 100 -259 295 -259 319 0 25 145 205 250 310 318 317 699 495 1150 534 73
6 334 -3 413 -15z"/>
<path d="M5151 2162 c-36 -19 -71 -72 -71 -107 0 -35 35 -88 71 -107 32 -17
84 -18 1034 -18 950 0 1002 1 1034 18 36 19 71 72 71 107 0 35 -35 88 -71 107
-32 17 -84 18 -1034 18 -950 0 -1002 -1 -1034 -18z"/>
</g>
</svg>
