<?xml version="1.0" standalone="no"?>
<!DOCTYPE svg PUBLIC "-//W3C//DTD SVG 20010904//EN"
 "http://www.w3.org/TR/2001/REC-SVG-20010904/DTD/svg10.dtd">
<svg version="1.0" xmlns="http://www.w3.org/2000/svg"
 width="1628pt" height="1000pt" viewBox="0 0 1628 1000"
 preserveAspectRatio="xMidYMid meet">
<metadata>
Created by potrace 1.9, written by Peter Selinger 2001-2010
</metadata>
<g transform="translate(0,1000) scale(0.100000,-0.100000)"
fill="#000000" stroke="none">
<path d="M251 6082 c-19 -10 -43 -34 -53 -53 -17 -32 -18 -115 -18 -2014 0
-1899 1 -1982 18 -2014 10 -19 34 -43 53 -53 32 -17 115 -18 2014 -18 1899 0
1982 1 2014 18 19 10 43 34 53 53 17 32 18 115 18 2014 0 1899 -1 1982 -18
2014 -10 19 -34 43 -53 53 -32 17 -115 18 -2014 18 -1899 0 -1982 -1 -2014
-18z m3849 -2067 l0 -1835 -1835 0 -1835 0 0 1835 0 1835 1835 0 1835 0 0
-1835z"/>
<path d="M2090 5104 c-194 -35 -394 -125 -531 -240 -290 -242 -446 -650 -384
-1003 49 -279 185 -523 384 -685 145 -119 339 -206 536 -240 114 -20 216 -20
330 0 489 85 833 432 920 925 61 347 -93 758 -373 994 -241 203 -592 302 -882
249z m400 -269 c176 -56 318 -152 431 -291 68 -83 117 -178 155 -299 26 -80
29 -104 29 -225 0 -121 -3 -145 -29 -225 -93 -295 -290 -493 -586 -591 -77
-25 -98 -28 -230 -28 -132 0 -153 3 -230 28 -179 59 -319 154 -431 292 -68 82
-117 177 -155 299 -26 82 -29 103 -28 230 0 126 3 149 28 225 95 288 291 488
567 579 106 35 147 40 274 37 97 -3 137 -9 205 -31z"/>
<path d="M2223 4143 c-33 -6 -79 -57 -86 -92 -26 -127 122 -210 212 -120 43
42 49 93 18 156 -20 42 -87 68 -144 56z"/>
<path d="M7015 6094 c-684 -55 -1279 -418 -1631 -994 -199 -327 -298 -686
-298 -1080 0 -204 15 -323 64 -520 184 -731 759 -1306 1490 -1490 197 -49 316
-64 520 -64 557 0 1074 211 1461 595 398 396 613 914 613 1479 0 204 -15 323
-64 520 -165 656 -654 1197 -1290 1430 -108 39 -286 84 -416 104 -102 16 -357
27 -449 20z m418 -265 c215 -32 478 -126 660 -235 240 -145 495 -400 640 -641
111 -184 202 -440 238 -668 7 -44 13 -163 13 -265 0 -195 -10 -285 -49 -440
-84 -332 -244 -610 -494 -859 -240 -238 -514 -393 -841 -476 -155 -39 -245
-49 -440 -49 -195 0 -285 10 -440 49 -327 83 -601 238 -841 476 -207 206 -342
416 -439 679 -76 209 -104 374 -104 620 0 195 10 285 49 440 84 331 239 604
485 850 318 317 699 495 1150 534 73 6 334 -3 413 -15z"/>
<path d="M13971 6082 c-19 -10 -43 -34 -53 -53 -17 -32 -18 -79 -18 -851 0
-450 -2 -818 -5 -818 -2 0 -35 20 -72 44 -254 163 -607 248 -910 218 -288 -29
-490 -101 -728 -258 -121 -80 -274 -227 -284 -274 -21 -96 61 -174 154 -149
22 6 66 39 118 87 150 142 262 212 438 276 158 57 233 69 424 69 191 0 266
-12 424 -69 157 -57 286 -133 399 -237 l42 -40 0 -835 0 -836 -152 151 c-125
124 -160 153 -190 158 -64 12 -127 -31 -144 -99 -14 -59 17 -102 226 -311
l200 -200 -204 -205 c-211 -212 -236 -248 -221 -307 16 -67 79 -110 143 -98
30 5 65 34 190 158 l152 151 0 -350 c0 -391 1 -399 71 -436 42 -23 66 -23 108
0 70 37 71 46 71 431 l0 345 143 -141 c147 -145 189 -172 244 -158 67 16 110
79 98 143 -5 31 -41 72 -221 252 l-214 215 210 210 c217 217 238 245 225 305
-8 39 -56 87 -95 95 -60 13 -98 -11 -247 -158 l-143 -141 0 697 0 697 76 -47
c546 -331 1281 -263 1764 162 83 74 100 100 100 159 0 39 -5 51 -35 81 -30 30
-42 35 -81 35 -48 0 -104 -30 -154 -85 -106 -114 -365 -245 -575 -291 -98 -21
-377 -24 -475 -5 -173 34 -372 120 -505 218 -125 93 -115 -5 -115 1084 0 876
-1 926 -18 958 -19 36 -72 71 -107 71 -11 0 -36 -8 -54 -18z"/>
<path d="M10051 4122 c-19 -10 -43 -34 -53 -53 -17 -31 -18 -69 -18 -544 0
-475 1 -513 18 -544 38 -71 35 -71 524 -71 l438 0 0 -438 c0 -404 1 -440 18
-471 19 -36 72 -71 107 -71 35 0 88 35 107 71 17 32 18 84 18 1034 0 950 -1
1002 -18 1034 -19 36 -72 71 -107 71 -35 0 -88 -35 -107 -71 -17 -31 -18 -67
-18 -471 l0 -438 -365 0 -365 0 0 438 c0 404 -1 440 -18 471 -19 36 -72 71
-107 71 -11 0 -36 -8 -54 -18z"/>
</g>
</svg>
