<?xml version="1.0" standalone="no"?>
<!DOCTYPE svg PUBLIC "-//W3C//DTD SVG 20010904//EN"
 "http://www.w3.org/TR/2001/REC-SVG-20010904/DTD/svg10.dtd">
<svg version="1.0" xmlns="http://www.w3.org/2000/svg"
 width="1236pt" height="1000pt" viewBox="0 0 1236 1000"
 preserveAspectRatio="xMidYMid meet">
<metadata>
Created by potrace 1.9, written by Peter Selinger 2001-2010
</metadata>
<g transform="translate(0,1000) scale(0.100000,-0.100000)"
fill="#000000" stroke="none">
<path d="M6125 8041 c-27 -13 -201 -180 -531 -512 -513 -516 -526 -530 -509
-596 16 -67 79 -110 143 -98 32 5 92 61 435 403 l397 397 0 -768 0 -767 -925
0 c-789 0 -931 -2 -961 -15 -52 -21 -256 -198 -365 -316 -546 -592 -784 -1407
-644 -2199 105 -588 405 -1114 858 -1502 71 -61 141 -116 155 -124 23 -12 331
-14 2005 -14 1822 0 1982 1 2014 17 19 9 37 22 40 29 2 6 51 51 108 99 354
296 650 753 783 1210 142 486 142 984 0 1470 -106 362 -315 729 -577 1014 -96
103 -306 289 -358 316 -24 13 -167 15 -955 15 l-928 0 0 762 0 763 388 -387
c403 -402 425 -420 489 -403 67 16 110 79 98 143 -5 32 -74 104 -513 546 -290
290 -521 514 -539 522 -42 18 -60 17 -108 -5z m-65 -3119 c0 -879 1 -929 18
-961 19 -36 72 -71 107 -71 35 0 88 35 107 71 17 32 18 82 18 961 l0 928 890
0 889 0 98 -84 c331 -283 584 -677 708 -1099 122 -419 122 -875 0 -1294 -124
-425 -378 -818 -714 -1104 l-104 -89 -1897 0 -1897 0 -104 89 c-336 286 -590
679 -714 1104 -122 419 -122 875 0 1294 124 422 377 816 708 1099 l98 84 894
0 895 0 0 -928z"/>
<path d="M1110 6084 c-270 -49 -508 -184 -674 -383 -76 -91 -164 -253 -200
-368 -53 -171 -69 -347 -35 -401 43 -68 165 -68 208 0 7 12 17 65 22 119 34
365 263 647 619 765 77 25 98 28 230 28 132 0 153 -3 230 -28 183 -61 317
-152 431 -292 66 -80 115 -175 155 -294 25 -76 28 -100 28 -220 0 -110 -5
-159 -27 -265 -116 -544 -340 -1056 -641 -1465 -324 -441 -698 -782 -1159
-1059 -52 -32 -97 -66 -108 -85 -39 -61 -7 -156 65 -190 31 -14 132 -16 1033
-16 948 0 1000 1 1032 18 36 19 71 72 71 107 0 35 -35 88 -71 107 -32 17 -78
18 -829 18 l-795 0 40 27 c150 101 398 316 559 484 453 473 800 1079 969 1695
66 241 129 576 120 644 -31 253 -83 411 -188 575 -222 347 -685 552 -1085 479z"/>
<path d="M10051 6082 c-19 -10 -43 -34 -53 -53 -17 -32 -18 -115 -18 -2014 0
-1899 1 -1982 18 -2014 19 -36 72 -71 107 -71 35 0 88 35 107 71 17 32 18 115
18 2014 0 1899 -1 1982 -18 2014 -19 36 -72 71 -107 71 -11 0 -36 -8 -54 -18z"/>
<path d="M12011 6082 c-19 -10 -43 -34 -53 -53 -17 -32 -18 -115 -18 -2014 0
-1899 1 -1982 18 -2014 19 -36 72 -71 107 -71 35 0 88 35 107 71 17 32 18 115
18 2014 0 1899 -1 1982 -18 2014 -19 36 -72 71 -107 71 -11 0 -36 -8 -54 -18z"/>
</g>
</svg>
