<?xml version="1.0" standalone="no"?>
<!DOCTYPE svg PUBLIC "-//W3C//DTD SVG 20010904//EN"
 "http://www.w3.org/TR/2001/REC-SVG-20010904/DTD/svg10.dtd">
<svg version="1.0" xmlns="http://www.w3.org/2000/svg"
 width="746pt" height="1000pt" viewBox="0 0 746 1000"
 preserveAspectRatio="xMidYMid meet">
<metadata>
Created by potrace 1.9, written by Peter Selinger 2001-2010
</metadata>
<g transform="translate(0,1000) scale(0.100000,-0.100000)"
fill="#000000" stroke="none">
<path d="M5055 6094 c-684 -55 -1279 -418 -1631 -994 -143 -235 -234 -491
-279 -780 -21 -137 -25 -328 -7 -362 40 -74 167 -77 212 -5 7 12 18 90 26 178
15 182 18 201 50 329 82 329 238 604 484 850 246 246 519 401 850 485 155 39
245 49 440 49 195 0 285 -10 440 -49 331 -84 604 -239 850 -485 246 -246 402
-521 484 -850 32 -128 35 -147 50 -329 8 -88 19 -166 26 -178 45 -72 172 -69
212 5 18 34 14 225 -7 362 -71 458 -269 853 -585 1170 -378 377 -876 590
-1416 604 -82 2 -171 2 -199 0z"/>
<path d="M5151 5102 c-19 -10 -43 -34 -53 -53 -17 -32 -18 -77 -18 -789 0
-712 1 -757 18 -789 19 -36 72 -71 107 -71 35 0 88 35 107 71 17 32 18 77 18
789 0 712 -1 757 -18 789 -19 36 -72 71 -107 71 -11 0 -36 -8 -54 -18z"/>
<path d="M1232 4124 c-18 -9 -41 -29 -51 -43 -41 -57 -991 -1973 -996 -2008
-16 -104 101 -175 190 -117 20 13 134 232 467 898 l440 881 438 -874 c321
-643 445 -881 466 -898 78 -62 184 -20 201 81 4 27 -69 179 -500 1042 -384
769 -512 1015 -532 1028 -39 25 -85 29 -123 10z"/>
<path d="M5163 3173 c-33 -6 -79 -57 -86 -92 -26 -127 122 -210 212 -120 43
42 49 93 18 156 -20 42 -87 68 -144 56z"/>
</g>
</svg>
