<?xml version="1.0" standalone="no"?>
<!DOCTYPE svg PUBLIC "-//W3C//DTD SVG 20010904//EN"
 "http://www.w3.org/TR/2001/REC-SVG-20010904/DTD/svg10.dtd">
<svg version="1.0" xmlns="http://www.w3.org/2000/svg"
 width="844pt" height="1000pt" viewBox="0 0 844 1000"
 preserveAspectRatio="xMidYMid meet">
<metadata>
Created by potrace 1.9, written by Peter Selinger 2001-2010
</metadata>
<g transform="translate(0,1000) scale(0.100000,-0.100000)"
fill="#000000" stroke="none">
<path d="M1721 8042 c-19 -10 -43 -34 -53 -53 -17 -31 -18 -69 -18 -544 0
-475 1 -513 18 -544 10 -19 34 -43 53 -53 31 -17 69 -18 544 -18 475 0 513 1
544 18 19 10 43 34 53 53 17 31 18 69 18 544 0 475 -1 513 -18 544 -10 19 -34
43 -53 53 -31 17 -69 18 -544 18 -475 0 -513 -1 -544 -18z m909 -597 l0 -365
-365 0 -365 0 0 365 0 365 365 0 365 0 0 -365z"/>
<path d="M2212 6083 c-18 -9 -41 -28 -51 -42 -41 -58 -1971 -3933 -1976 -3968
-16 -104 101 -175 190 -117 20 13 230 424 895 1753 l869 1736 0 -1632 1 -1633
-438 0 c-404 0 -440 -1 -471 -18 -36 -19 -71 -72 -71 -107 0 -35 35 -88 71
-107 32 -17 84 -18 1034 -18 950 0 1002 1 1034 18 36 19 71 72 71 107 0 35
-35 88 -71 107 -31 17 -67 18 -471 18 l-438 0 0 1908 c0 1828 -1 1909 -18
1941 -19 36 -73 71 -107 71 -11 0 -35 -8 -53 -17z"/>
<path d="M5145 6081 c-27 -13 -201 -180 -531 -512 -513 -516 -526 -530 -509
-596 16 -67 79 -110 143 -98 32 5 92 61 435 403 l397 397 0 -1820 c0 -1744 1
-1822 18 -1854 19 -36 72 -71 107 -71 35 0 88 35 107 71 17 32 18 110 18 1849
l0 1815 388 -387 c403 -402 425 -420 489 -403 67 16 110 79 98 143 -5 32 -74
104 -513 546 -290 290 -521 514 -539 522 -42 18 -60 17 -108 -5z"/>
<path d="M7111 6082 c-19 -10 -43 -34 -53 -53 -17 -32 -18 -110 -18 -1854 l0
-1820 -397 397 c-436 435 -430 430 -506 393 -61 -29 -87 -88 -67 -152 17 -53
973 -1015 1039 -1045 88 -40 61 -62 629 505 358 358 515 522 523 544 6 18 8
47 4 63 -8 39 -56 87 -95 95 -70 15 -85 2 -492 -403 l-388 -387 0 1815 c0
1739 -1 1817 -18 1849 -19 36 -72 71 -107 71 -11 0 -36 -8 -54 -18z"/>
</g>
</svg>
