<?xml version="1.0" standalone="no"?>
<!DOCTYPE svg PUBLIC "-//W3C//DTD SVG 20010904//EN"
 "http://www.w3.org/TR/2001/REC-SVG-20010904/DTD/svg10.dtd">
<svg version="1.0" xmlns="http://www.w3.org/2000/svg"
 width="991pt" height="1000pt" viewBox="0 0 991 1000"
 preserveAspectRatio="xMidYMid meet">
<metadata>
Created by potrace 1.9, written by Peter Selinger 2001-2010
</metadata>
<g transform="translate(0,1000) scale(0.100000,-0.100000)"
fill="#000000" stroke="none">
<path d="M8525 6075 c-30 -31 -35 -42 -35 -83 0 -41 6 -54 43 -99 144 -176
180 -225 220 -302 54 -102 100 -230 124 -343 24 -115 24 -370 -1 -488 -44
-211 -175 -473 -291 -580 -55 -50 -85 -106 -85 -154 0 -39 5 -51 35 -81 30
-30 42 -35 81 -35 59 0 85 17 159 100 295 336 428 810 350 1253 -52 290 -173
538 -374 762 -63 70 -88 85 -143 85 -41 0 -52 -5 -83 -35z"/>
<path d="M1231 6082 c-19 -10 -43 -34 -53 -53 -17 -32 -18 -83 -18 -1006 l0
-973 -485 -970 c-269 -538 -487 -986 -490 -1007 -16 -104 101 -175 190 -117
20 13 134 232 467 898 l440 881 437 -871 c240 -480 442 -879 449 -887 24 -28
82 -49 118 -43 44 9 91 58 100 103 6 34 -29 108 -472 995 l-479 958 903 903
902 902 904 -904 904 -904 -469 -938 c-260 -520 -471 -955 -474 -976 -8 -49
19 -100 66 -125 32 -17 84 -18 1034 -18 950 0 1002 1 1034 18 37 20 71 72 71
109 0 13 -220 464 -490 1003 l-490 980 0 978 c0 927 -1 979 -18 1011 -19 36
-72 71 -107 71 -35 0 -88 -35 -107 -71 -17 -32 -18 -79 -18 -874 l0 -840 -887
887 c-714 712 -894 887 -920 893 -77 16 -56 35 -985 -893 l-878 -877 0 835 c0
790 -1 837 -18 869 -19 36 -72 71 -107 71 -11 0 -36 -8 -54 -18z m3976 -3900
c-424 -1 -772 0 -774 2 -2 2 170 352 383 777 l387 774 387 -775 388 -775 -771
-3z"/>
<path d="M7580 6083 c-39 -25 -138 -142 -203 -239 -343 -518 -339 -1167 9
-1690 73 -111 169 -215 217 -237 71 -33 146 -1 168 72 17 56 0 95 -82 186
-152 171 -247 360 -296 587 -24 115 -24 370 1 488 44 211 175 473 291 580 55
50 85 106 85 154 0 39 -5 51 -35 81 -31 30 -42 35 -83 35 -26 0 -58 -8 -72
-17z"/>
<path d="M3191 5102 c-70 -37 -71 -45 -71 -436 l0 -350 -152 151 c-125 124
-160 153 -190 158 -64 12 -127 -31 -143 -98 -15 -59 10 -95 221 -307 l204
-205 -200 -200 c-209 -209 -240 -252 -226 -311 17 -68 80 -111 144 -99 30 5
65 34 190 158 l152 151 0 -350 c0 -391 1 -399 71 -436 42 -23 66 -23 108 0 70
37 71 46 71 431 l0 345 143 -141 c149 -147 187 -171 247 -158 39 8 87 56 95
95 13 60 -8 88 -225 305 l-210 210 214 215 c180 180 216 221 221 252 12 64
-31 127 -98 143 -55 14 -97 -13 -244 -158 l-143 -141 0 345 c0 314 -2 347 -18
378 -19 36 -72 71 -107 71 -11 0 -36 -8 -54 -18z"/>
</g>
</svg>
