<?xml version="1.0" standalone="no"?>
<!DOCTYPE svg PUBLIC "-//W3C//DTD SVG 20010904//EN"
 "http://www.w3.org/TR/2001/REC-SVG-20010904/DTD/svg10.dtd">
<svg version="1.0" xmlns="http://www.w3.org/2000/svg"
 width="1334pt" height="1000pt" viewBox="0 0 1334 1000"
 preserveAspectRatio="xMidYMid meet">
<metadata>
Created by potrace 1.9, written by Peter Selinger 2001-2010
</metadata>
<g transform="translate(0,1000) scale(0.100000,-0.100000)"
fill="#000000" stroke="none">
<path d="M1110 6084 c-360 -65 -649 -275 -803 -585 -92 -185 -144 -413 -119
-522 7 -28 21 -99 31 -157 131 -727 392 -1308 845 -1880 123 -156 432 -465
591 -592 121 -96 316 -232 433 -303 35 -20 66 -43 69 -50 9 -25 73 -48 113
-41 58 9 373 207 555 350 483 378 854 835 1139 1405 173 344 298 743 365 1166
20 125 19 131 -5 283 -77 488 -428 840 -920 926 -359 63 -766 -92 -1007 -382
-35 -42 -79 -105 -98 -139 -19 -35 -36 -63 -39 -63 -3 1 -24 33 -47 73 -209
364 -689 586 -1103 511z m400 -269 c353 -114 585 -399 619 -764 5 -54 15 -107
22 -119 43 -69 175 -69 218 0 7 12 17 65 22 119 17 179 89 357 197 484 115
137 243 222 422 281 77 25 98 28 230 28 132 0 153 -3 230 -28 183 -61 317
-152 431 -292 66 -80 115 -175 155 -294 25 -76 28 -100 28 -220 0 -110 -5
-159 -27 -265 -86 -404 -225 -774 -424 -1130 -298 -531 -795 -1042 -1326
-1364 l-37 -23 -48 28 c-87 50 -266 176 -387 272 -163 130 -468 437 -599 602
-415 523 -672 1109 -781 1785 -28 175 -26 209 19 342 91 266 291 464 557 552
106 35 147 40 274 37 97 -3 136 -9 205 -31z"/>
<path d="M5151 6082 c-19 -10 -43 -34 -53 -53 -17 -32 -18 -83 -18 -1006 l0
-973 -485 -970 c-269 -538 -487 -986 -490 -1007 -16 -104 101 -175 190 -117
20 13 134 232 467 898 l440 881 439 -877 c478 -955 459 -923 544 -923 22 0 53
9 68 19 23 15 124 209 469 900 l440 881 438 -874 c321 -643 445 -881 466 -898
78 -62 184 -20 201 81 4 27 -67 175 -486 1014 l-491 982 0 978 c0 927 -1 979
-18 1011 -19 36 -72 71 -107 71 -35 0 -88 -35 -107 -71 -17 -32 -18 -84 -19
-1009 l0 -975 -428 -855 -428 -855 -427 853 -426 852 0 978 c0 927 -1 979 -18
1011 -19 36 -72 71 -107 71 -11 0 -36 -8 -54 -18z"/>
<path d="M10051 6082 c-19 -10 -43 -34 -53 -53 -17 -32 -18 -83 -18 -1006 l0
-973 -485 -970 c-269 -538 -487 -986 -490 -1007 -8 -49 19 -100 66 -125 32
-17 115 -18 2014 -18 1899 0 1982 1 2014 18 37 20 71 72 71 109 0 13 -220 464
-490 1003 l-490 980 0 978 c0 927 -1 979 -18 1011 -19 36 -72 71 -107 71 -35
0 -88 -35 -107 -71 -17 -32 -18 -84 -19 -1009 l0 -975 -428 -855 -428 -855
-427 853 -426 852 0 978 c0 927 -1 979 -18 1011 -19 36 -72 71 -107 71 -11 0
-36 -8 -54 -18z m56 -3900 c-424 -1 -772 0 -774 2 -2 2 170 352 383 777 l387
774 387 -775 388 -775 -771 -3z m1960 0 c-424 -1 -772 0 -774 2 -2 2 170 352
383 777 l387 774 387 -775 388 -775 -771 -3z"/>
</g>
</svg>
