<?xml version="1.0" standalone="no"?>
<!DOCTYPE svg PUBLIC "-//W3C//DTD SVG 20010904//EN"
 "http://www.w3.org/TR/2001/REC-SVG-20010904/DTD/svg10.dtd">
<svg version="1.0" xmlns="http://www.w3.org/2000/svg"
 width="256pt" height="1000pt" viewBox="0 0 256 1000"
 preserveAspectRatio="xMidYMid meet">
<metadata>
Created by potrace 1.9, written by Peter Selinger 2001-2010
</metadata>
<g transform="translate(0,1000) scale(0.100000,-0.100000)"
fill="#000000" stroke="none">
<path d="M240 6083 c-14 -9 -30 -24 -37 -33 -56 -71 4 -381 114 -590 158 -300
445 -502 798 -564 114 -20 216 -20 330 0 356 62 644 267 803 572 106 203 164
512 109 582 -52 67 -164 65 -206 -2 -7 -11 -17 -63 -22 -116 -34 -367 -263
-651 -619 -768 -77 -25 -98 -28 -230 -28 -132 0 -153 3 -230 28 -179 59 -319
154 -431 292 -103 126 -171 299 -188 476 -5 53 -15 105 -22 116 -31 50 -121
68 -169 35z"/>
</g>
</svg>
