<?xml version="1.0" standalone="no"?>
<!DOCTYPE svg PUBLIC "-//W3C//DTD SVG 20010904//EN"
 "http://www.w3.org/TR/2001/REC-SVG-20010904/DTD/svg10.dtd">
<svg version="1.0" xmlns="http://www.w3.org/2000/svg"
 width="1726pt" height="1000pt" viewBox="0 0 1726 1000"
 preserveAspectRatio="xMidYMid meet">
<metadata>
Created by potrace 1.9, written by Peter Selinger 2001-2010
</metadata>
<g transform="translate(0,1000) scale(0.100000,-0.100000)"
fill="#000000" stroke="none">
<path d="M1231 6082 c-71 -38 -71 -35 -71 -524 l0 -438 -438 0 c-489 0 -486 0
-524 -71 -23 -42 -23 -66 0 -108 38 -71 35 -71 524 -71 l438 0 0 -855 0 -855
-438 0 c-489 0 -486 0 -524 -71 -23 -42 -23 -66 0 -108 38 -71 35 -71 524 -71
l438 0 0 -438 c0 -489 0 -486 71 -524 42 -23 66 -23 108 0 71 38 71 35 71 524
l0 438 855 0 855 0 0 -438 c0 -489 0 -486 71 -524 42 -23 66 -23 108 0 71 38
71 35 71 524 l0 438 438 0 c489 0 486 0 524 71 23 42 23 66 0 108 -38 71 -35
71 -524 71 l-438 0 0 855 0 855 438 0 c489 0 486 0 524 71 23 42 23 66 0 108
-38 71 -35 71 -524 71 l-438 0 0 438 c0 404 -1 440 -18 471 -19 36 -72 71
-107 71 -35 0 -88 -35 -107 -71 -17 -31 -18 -67 -18 -471 l0 -438 -855 0 -855
0 0 438 c0 404 -1 440 -18 471 -19 36 -72 71 -107 71 -11 0 -36 -8 -54 -18z
m1889 -2067 l0 -855 -855 0 -855 0 0 855 0 855 855 0 855 0 0 -855z"/>
<path d="M7105 6081 c-28 -13 -345 -325 -1021 -1002 -792 -794 -984 -991 -994
-1022 -20 -64 6 -123 67 -152 80 -38 18 -93 1055 943 l948 947 942 -941 c761
-760 950 -944 981 -954 64 -20 123 6 152 67 38 80 98 14 -993 1107 -583 583
-1010 1004 -1029 1012 -42 18 -60 17 -108 -5z"/>
<path d="M15925 6081 c-27 -13 -340 -320 -1000 -980 l-960 -961 -1940 0
c-1860 0 -1942 -1 -1974 -18 -36 -19 -71 -72 -71 -107 0 -35 35 -88 71 -107
31 -17 65 -18 431 -18 l398 0 -445 -890 c-246 -492 -447 -906 -450 -927 -16
-104 101 -175 190 -117 20 13 134 232 467 898 l440 881 439 -877 c478 -955
459 -923 544 -923 22 0 53 9 68 19 23 15 124 209 469 900 l440 881 438 -874
c321 -643 445 -881 466 -898 78 -62 184 -20 201 81 4 27 -61 164 -446 934
-248 496 -451 904 -451 907 0 3 177 5 394 5 250 0 405 4 423 10 16 6 439 422
970 953 l943 942 452 -451 c473 -471 490 -486 555 -469 67 16 110 79 98 143
-5 32 -74 104 -513 546 -290 290 -521 514 -539 522 -42 18 -60 17 -108 -5z
m-3471 -2963 c-212 -425 -388 -775 -390 -777 -3 -3 -774 1534 -774 1544 0 3
349 5 775 5 l775 0 -386 -772z"/>
</g>
</svg>
