<?xml version="1.0" standalone="no"?>
<!DOCTYPE svg PUBLIC "-//W3C//DTD SVG 20010904//EN"
 "http://www.w3.org/TR/2001/REC-SVG-20010904/DTD/svg10.dtd">
<svg version="1.0" xmlns="http://www.w3.org/2000/svg"
 width="648pt" height="1000pt" viewBox="0 0 648 1000"
 preserveAspectRatio="xMidYMid meet">
<metadata>
Created by potrace 1.9, written by Peter Selinger 2001-2010
</metadata>
<g transform="translate(0,1000) scale(0.100000,-0.100000)"
fill="#000000" stroke="none">
<path d="M2205 6081 c-57 -27 -1988 -1962 -2010 -2013 -13 -33 -15 -161 -15
-1035 0 -948 1 -1000 18 -1032 10 -19 34 -43 53 -53 32 -17 115 -18 2014 -18
1899 0 1982 1 2014 18 19 10 43 34 53 53 17 32 18 84 18 1032 0 834 -2 1003
-14 1030 -18 42 -1991 2013 -2029 2027 -39 14 -56 13 -102 -9z m977 -1208
l918 -918 0 -887 0 -888 -1835 0 -1835 0 0 892 0 893 912 912 c502 502 915
913 918 913 3 0 418 -413 922 -917z"/>
<path d="M5620 6083 c-39 -25 -138 -142 -203 -239 -250 -378 -318 -830 -191
-1272 51 -178 153 -371 280 -527 l64 -80 -1 -975 -2 -975 36 -37 c65 -67 153
-57 201 23 11 20 44 64 71 98 72 89 168 250 210 350 84 200 118 372 119 596 0
217 -36 400 -116 593 -39 93 -139 260 -212 351 l-56 70 0 966 c0 1064 3 1010
-60 1055 -34 24 -105 26 -140 3z m-50 -1080 l-1 -608 -28 55 c-39 76 -87 213
-108 312 -13 60 -18 127 -17 243 0 177 15 272 63 405 31 83 82 200 87 200 2 0
4 -273 4 -607z m319 -1545 c52 -149 66 -235 65 -413 0 -184 -15 -276 -71 -425
-66 -178 -62 -206 -62 425 0 560 0 569 18 535 10 -19 33 -74 50 -122z"/>
</g>
</svg>
