<?xml version="1.0" standalone="no"?>
<!DOCTYPE svg PUBLIC "-//W3C//DTD SVG 20010904//EN"
 "http://www.w3.org/TR/2001/REC-SVG-20010904/DTD/svg10.dtd">
<svg version="1.0" xmlns="http://www.w3.org/2000/svg"
 width="1040pt" height="1000pt" viewBox="0 0 1040 1000"
 preserveAspectRatio="xMidYMid meet">
<metadata>
Created by potrace 1.9, written by Peter Selinger 2001-2010
</metadata>
<g transform="translate(0,1000) scale(0.100000,-0.100000)"
fill="#000000" stroke="none">
<path d="M1231 6082 c-19 -10 -43 -34 -53 -53 -17 -32 -18 -113 -18 -1941 l0
-1908 -438 0 c-404 0 -440 -1 -471 -18 -36 -19 -71 -72 -71 -107 0 -35 35 -88
71 -107 32 -17 84 -18 1034 -18 950 0 1002 1 1034 18 36 19 71 72 71 107 0 35
-35 88 -71 107 -31 17 -67 18 -471 18 l-438 0 0 1908 c0 1828 -1 1909 -18
1941 -19 36 -72 71 -107 71 -11 0 -36 -8 -54 -18z"/>
<path d="M3191 6082 c-19 -10 -43 -34 -53 -53 -17 -32 -18 -115 -18 -2014 0
-1899 1 -1982 18 -2014 10 -19 34 -43 53 -53 32 -17 115 -18 2014 -18 1899 0
1982 1 2014 18 19 10 43 34 53 53 17 32 18 115 18 2014 0 1899 -1 1982 -18
2014 -10 19 -34 43 -53 53 -32 17 -115 18 -2014 18 -1899 0 -1982 -1 -2014
-18z m292 -268 c-23 -19 -58 -54 -77 -77 l-36 -42 0 78 0 77 78 0 77 0 -42
-36z m967 1 c353 -114 585 -399 619 -764 5 -54 15 -107 22 -119 43 -69 175
-69 218 0 7 12 17 65 22 119 17 179 89 357 197 484 115 137 243 222 422 281
77 25 98 28 230 28 132 0 153 -3 230 -28 183 -61 317 -152 431 -292 66 -80
115 -175 155 -294 25 -76 28 -100 28 -220 0 -110 -5 -159 -27 -265 -86 -404
-225 -774 -424 -1130 -233 -414 -580 -812 -991 -1134 -100 -78 -359 -251 -375
-251 -25 0 -221 130 -377 249 -399 305 -780 745 -1005 1156 -227 415 -372 837
-440 1280 -20 130 -15 201 22 318 88 280 289 485 564 576 106 35 147 40 274
37 97 -3 136 -9 205 -31z m993 -1 c-60 -50 -164 -179 -204 -251 -19 -35 -36
-63 -39 -63 -3 0 -20 27 -38 60 -41 75 -139 197 -200 250 l-47 40 285 0 285 0
-42 -36z m1597 -46 l-1 -83 -38 45 c-22 25 -59 62 -83 82 l-43 38 83 0 82 0 0
-82z m-3632 -1848 c122 -306 358 -697 603 -1001 194 -240 537 -560 764 -712
l40 -27 -723 0 -722 0 0 912 c0 501 2 909 4 907 2 -2 18 -38 34 -79z m3632
-830 l0 -910 -722 0 -723 0 40 27 c226 152 565 469 755 703 253 314 482 692
610 1008 19 45 35 82 37 82 2 0 3 -409 3 -910z"/>
<path d="M9065 6081 c-27 -13 -201 -180 -531 -512 -513 -516 -526 -530 -509
-596 16 -67 79 -110 143 -98 32 5 98 68 494 463 l458 457 452 -452 c473 -470
490 -485 555 -468 67 16 110 79 98 143 -5 32 -74 104 -513 546 -290 290 -521
514 -539 522 -42 18 -60 17 -108 -5z"/>
<path d="M8091 3142 c-36 -19 -71 -73 -71 -107 1 -57 49 -111 531 -591 522
-520 527 -524 602 -509 25 6 137 112 545 518 358 358 515 522 523 544 6 18 8
47 4 63 -8 39 -56 87 -95 95 -70 15 -82 6 -558 -469 l-452 -451 -453 452
c-248 249 -465 457 -480 463 -39 14 -57 13 -96 -8z"/>
</g>
</svg>
