<?xml version="1.0" standalone="no"?>
<!DOCTYPE svg PUBLIC "-//W3C//DTD SVG 20010904//EN"
 "http://www.w3.org/TR/2001/REC-SVG-20010904/DTD/svg10.dtd">
<svg version="1.0" xmlns="http://www.w3.org/2000/svg"
 width="893pt" height="1000pt" viewBox="0 0 893 1000"
 preserveAspectRatio="xMidYMid meet">
<metadata>
Created by potrace 1.9, written by Peter Selinger 2001-2010
</metadata>
<g transform="translate(0,1000) scale(0.100000,-0.100000)"
fill="#000000" stroke="none">
<path d="M7545 6075 c-30 -31 -35 -42 -35 -83 0 -41 6 -54 43 -99 144 -176
180 -225 220 -302 54 -102 100 -230 124 -343 24 -115 24 -370 -1 -488 -44
-211 -175 -473 -291 -580 -55 -50 -85 -106 -85 -154 0 -39 5 -51 35 -81 30
-30 42 -35 81 -35 59 0 85 17 159 100 295 336 428 810 350 1253 -52 290 -173
538 -374 762 -63 70 -88 85 -143 85 -41 0 -52 -5 -83 -35z"/>
<path d="M6600 6083 c-39 -25 -138 -142 -203 -239 -343 -518 -339 -1167 9
-1690 73 -111 169 -215 217 -237 71 -33 146 -1 168 72 17 56 0 95 -82 186
-152 171 -247 360 -296 587 -24 115 -24 370 1 488 44 211 175 473 291 580 55
50 85 106 85 154 0 39 -5 51 -35 81 -31 30 -42 35 -83 35 -26 0 -58 -8 -72
-17z"/>
<path d="M2690 4140 c-1645 -4 -1958 -7 -1975 -19 -36 -25 -138 -147 -198
-237 -342 -517 -339 -1167 8 -1689 66 -100 176 -224 218 -247 30 -17 145 -18
2012 -18 1890 0 1982 1 2014 18 18 10 43 34 55 53 11 20 44 64 71 98 72 89
168 250 210 350 84 200 118 372 119 596 0 390 -124 714 -393 1020 -61 70 -87
85 -141 82 -25 -1 -925 -4 -2000 -7z m2031 -338 c111 -139 195 -323 236 -514
24 -115 24 -370 -1 -488 -44 -209 -150 -425 -278 -565 l-50 -55 -1883 0 -1883
0 -50 55 c-131 143 -233 351 -279 567 -24 115 -24 370 1 488 43 208 156 436
279 568 l31 32 1905 -2 1906 -3 66 -83z"/>
</g>
</svg>
