<?xml version="1.0" standalone="no"?>
<!DOCTYPE svg PUBLIC "-//W3C//DTD SVG 20010904//EN"
 "http://www.w3.org/TR/2001/REC-SVG-20010904/DTD/svg10.dtd">
<svg version="1.0" xmlns="http://www.w3.org/2000/svg"
 width="1138pt" height="1000pt" viewBox="0 0 1138 1000"
 preserveAspectRatio="xMidYMid meet">
<metadata>
Created by potrace 1.9, written by Peter Selinger 2001-2010
</metadata>
<g transform="translate(0,1000) scale(0.100000,-0.100000)"
fill="#000000" stroke="none">
<path d="M9015 6075 c-30 -31 -35 -42 -35 -83 0 -41 6 -54 43 -99 144 -176
180 -225 220 -302 54 -102 100 -230 124 -343 24 -115 24 -370 -1 -488 -44
-210 -150 -425 -279 -566 -28 -31 -67 -78 -86 -104 -20 -27 -58 -77 -86 -112
-115 -144 -226 -365 -270 -538 -114 -441 -41 -868 211 -1246 73 -111 169 -215
217 -237 71 -33 146 -1 168 72 17 56 0 95 -82 186 -152 171 -247 360 -296 587
-24 115 -24 370 1 488 44 210 150 425 279 566 28 31 67 78 86 104 20 27 59 77
86 112 76 96 169 258 214 371 76 196 105 354 105 567 -1 387 -131 723 -393
1015 -63 70 -88 85 -143 85 -41 0 -52 -5 -83 -35z"/>
<path d="M8085 5101 c-26 -12 -208 -188 -531 -512 -535 -538 -529 -530 -504
-613 10 -35 85 -115 503 -535 519 -520 542 -540 613 -527 41 8 90 56 99 96 4
16 2 45 -4 62 -8 23 -151 173 -466 488 l-455 455 459 460 c503 504 493 491
456 568 -32 67 -102 91 -170 58z"/>
<path d="M10051 5102 c-36 -19 -71 -73 -71 -107 1 -57 49 -111 479 -540 l441
-440 -449 -450 c-468 -470 -483 -487 -466 -552 16 -67 79 -110 143 -98 32 5
105 74 550 518 358 358 515 522 523 544 24 73 30 65 -509 607 -290 290 -521
514 -539 522 -43 18 -61 18 -102 -4z"/>
<path d="M251 3142 c-36 -19 -71 -72 -71 -107 0 -35 35 -88 71 -107 31 -17 67
-18 471 -18 l438 0 0 -438 c0 -489 0 -486 71 -524 32 -17 115 -18 2014 -18
1899 0 1982 1 2014 18 71 38 71 35 71 524 l0 438 438 0 c404 0 440 1 471 18
36 19 71 72 71 107 0 35 -35 88 -71 107 -31 17 -69 18 -544 18 -475 0 -513 -1
-544 -18 -71 -38 -71 -35 -71 -524 l0 -438 -1835 0 -1835 0 0 438 c0 489 0
486 -71 524 -31 17 -69 18 -544 18 -475 0 -513 -1 -544 -18z"/>
</g>
</svg>
