<?xml version="1.0" standalone="no"?>
<!DOCTYPE svg PUBLIC "-//W3C//DTD SVG 20010904//EN"
 "http://www.w3.org/TR/2001/REC-SVG-20010904/DTD/svg10.dtd">
<svg version="1.0" xmlns="http://www.w3.org/2000/svg"
 width="1628pt" height="1000pt" viewBox="0 0 1628 1000"
 preserveAspectRatio="xMidYMid meet">
<metadata>
Created by potrace 1.9, written by Peter Selinger 2001-2010
</metadata>
<g transform="translate(0,1000) scale(0.100000,-0.100000)"
fill="#000000" stroke="none">
<path d="M9072 8044 c-18 -9 -41 -29 -51 -43 -41 -58 -1971 -3933 -1976 -3968
-8 -49 19 -100 66 -125 31 -17 65 -18 431 -18 l398 0 -445 -890 c-246 -492
-447 -906 -450 -927 -8 -49 19 -100 66 -125 32 -17 115 -18 2014 -18 1899 0
1982 1 2014 18 37 20 71 72 71 109 0 12 -202 428 -450 923 -247 495 -450 902
-450 905 0 3 179 5 398 5 366 0 400 1 431 18 37 20 71 72 71 109 0 13 -447
918 -994 2011 -764 1527 -1000 1993 -1021 2006 -39 25 -85 29 -123 10z m932
-2151 l876 -1753 -350 0 -350 0 -479 958 c-377 753 -485 963 -508 978 -15 10
-46 19 -68 19 -85 0 -63 38 -583 -1001 l-477 -954 -347 0 c-192 0 -348 2 -348
5 0 10 1751 3507 1754 3504 2 -2 398 -793 880 -1756z m-877 -3711 c-963 -1
-1752 0 -1754 2 -2 2 390 793 873 1757 l877 1754 877 -1755 878 -1755 -1751
-3z"/>
<path d="M2225 6092 c-99 -35 -118 -168 -32 -222 12 -7 90 -18 178 -26 182
-15 201 -18 329 -50 329 -82 604 -238 850 -484 328 -328 502 -714 535 -1186
l7 -90 -236 -472 c-130 -259 -238 -488 -241 -509 -11 -74 61 -150 132 -139 68
10 76 22 280 430 l195 391 193 -385 c200 -398 216 -423 282 -436 39 -7 95 18
118 53 41 62 44 55 -220 582 l-247 494 7 86 c18 252 71 456 175 679 85 181
200 342 360 502 246 246 521 402 850 484 128 32 147 35 329 50 88 8 166 19
178 26 72 45 69 172 -5 212 -34 18 -225 14 -362 -7 -629 -97 -1150 -442 -1476
-975 -63 -105 -145 -272 -165 -337 -6 -24 -15 -43 -19 -43 -4 0 -13 19 -19 43
-7 23 -34 87 -60 142 -207 436 -555 786 -986 991 -242 115 -526 185 -800 198
-60 3 -119 2 -130 -2z"/>
<path d="M13875 6094 c-684 -55 -1279 -418 -1631 -994 -199 -327 -298 -686
-298 -1080 0 -204 15 -323 64 -520 184 -731 759 -1306 1490 -1490 197 -49 316
-64 520 -64 557 0 1074 211 1461 595 398 396 613 914 613 1479 0 204 -15 323
-64 520 -165 656 -654 1197 -1290 1430 -108 39 -286 84 -416 104 -102 16 -357
27 -449 20z m418 -265 c215 -32 478 -126 660 -235 240 -145 495 -400 640 -641
111 -184 202 -440 238 -668 7 -44 13 -163 13 -265 0 -195 -10 -285 -49 -440
-84 -332 -244 -610 -494 -859 -240 -238 -514 -393 -841 -476 -155 -39 -245
-49 -440 -49 -195 0 -285 10 -440 49 -327 83 -601 238 -841 476 -207 206 -342
416 -439 679 -76 209 -104 374 -104 620 0 195 10 285 49 440 84 331 239 604
485 850 318 317 699 495 1150 534 73 6 334 -3 413 -15z"/>
<path d="M13965 5591 c-27 -13 -201 -180 -531 -512 -513 -516 -526 -530 -509
-596 16 -67 79 -110 143 -98 32 5 98 68 494 463 l458 457 452 -452 c473 -470
490 -485 555 -468 67 16 110 79 98 143 -5 32 -74 104 -513 546 -290 290 -521
514 -539 522 -42 18 -60 17 -108 -5z"/>
<path d="M715 4133 c-256 -40 -449 -208 -510 -443 -21 -81 -24 -188 -7 -222
29 -54 115 -75 172 -41 38 22 48 43 64 139 17 99 43 152 107 216 74 74 144
103 249 103 71 0 94 -5 142 -27 111 -51 206 -178 211 -280 2 -41 -16 -70 -472
-753 -261 -390 -479 -726 -485 -746 -12 -47 16 -104 64 -131 32 -17 68 -18
545 -18 475 0 513 1 544 18 35 19 71 72 71 105 0 31 -30 85 -58 104 -25 16
-62 18 -420 23 l-392 5 426 638 c234 351 430 651 435 665 11 27 8 46 -28 202
-45 198 -218 372 -420 424 -66 17 -189 27 -238 19z"/>
</g>
</svg>
