<?xml version="1.0" standalone="no"?>
<!DOCTYPE svg PUBLIC "-//W3C//DTD SVG 20010904//EN"
 "http://www.w3.org/TR/2001/REC-SVG-20010904/DTD/svg10.dtd">
<svg version="1.0" xmlns="http://www.w3.org/2000/svg"
 width="452pt" height="1000pt" viewBox="0 0 452 1000"
 preserveAspectRatio="xMidYMid meet">
<metadata>
Created by potrace 1.9, written by Peter Selinger 2001-2010
</metadata>
<g transform="translate(0,1000) scale(0.100000,-0.100000)"
fill="#000000" stroke="none">
<path d="M2211 6082 c-19 -10 -43 -34 -53 -53 -17 -32 -18 -82 -18 -961 l0
-928 -936 0 c-856 0 -938 -1 -964 -17 -47 -28 -55 -55 -53 -182 9 -506 237
-1027 612 -1400 387 -384 904 -595 1461 -595 204 0 323 15 520 64 592 149
1093 561 1356 1115 112 236 163 438 203 808 13 115 2 152 -54 187 -32 20 -47
20 -964 20 l-931 0 0 928 c0 879 -1 929 -18 961 -19 36 -72 71 -107 71 -11 0
-36 -8 -54 -18z m1869 -2228 c0 -95 -47 -309 -100 -454 -85 -232 -192 -409
-365 -603 -64 -72 -232 -227 -246 -227 -5 0 -9 8 -9 17 0 10 -231 248 -512
531 -401 401 -521 515 -549 523 -77 24 -75 25 -608 -505 -359 -358 -498 -503
-513 -534 l-19 -43 -42 33 c-134 107 -337 340 -430 495 -130 215 -247 579
-247 767 l0 36 1820 0 1820 0 0 -36z m-1360 -969 c247 -247 450 -451 450 -453
0 -7 -210 -102 -290 -132 -209 -76 -374 -104 -620 -104 -309 0 -525 50 -810
185 l-104 50 454 454 c250 250 458 454 462 453 4 -2 210 -205 458 -453z"/>
</g>
</svg>
