<?xml version="1.0" standalone="no"?>
<!DOCTYPE svg PUBLIC "-//W3C//DTD SVG 20010904//EN"
 "http://www.w3.org/TR/2001/REC-SVG-20010904/DTD/svg10.dtd">
<svg version="1.0" xmlns="http://www.w3.org/2000/svg"
 width="550pt" height="1000pt" viewBox="0 0 550 1000"
 preserveAspectRatio="xMidYMid meet">
<metadata>
Created by potrace 1.9, written by Peter Selinger 2001-2010
</metadata>
<g transform="translate(0,1000) scale(0.100000,-0.100000)"
fill="#000000" stroke="none">
<path d="M1721 8042 c-47 -25 -74 -76 -66 -125 3 -21 118 -263 255 -537 272
-544 273 -545 355 -545 78 1 77 -2 357 559 278 556 274 547 233 609 -23 35
-79 60 -118 53 -66 -13 -82 -38 -282 -436 l-193 -385 -195 391 c-143 286 -202
395 -222 408 -41 27 -85 30 -124 8z"/>
<path d="M251 6082 c-36 -19 -71 -72 -71 -107 0 -35 35 -88 71 -107 32 -17
112 -18 1901 -18 l1868 0 -392 -785 c-216 -432 -397 -785 -401 -785 -5 0 -27
15 -50 33 -118 94 -276 179 -427 230 -331 112 -656 112 -990 1 -192 -65 -389
-185 -538 -329 -70 -67 -95 -99 -101 -125 -21 -96 61 -174 154 -149 22 6 66
39 118 87 150 142 262 212 438 276 158 57 233 69 424 69 191 0 266 -12 424
-69 156 -57 328 -160 409 -247 l23 -25 -480 -960 c-267 -534 -483 -978 -486
-999 -8 -49 19 -100 66 -125 32 -17 84 -18 1034 -18 950 0 1002 1 1034 18 36
19 71 72 71 107 0 35 -35 88 -71 107 -32 17 -81 18 -921 18 -489 0 -888 3
-887 8 0 4 183 373 407 820 l407 813 55 -39 c218 -155 470 -247 749 -273 331
-31 677 58 965 248 100 67 215 165 240 205 9 14 16 47 16 72 0 39 -5 51 -35
81 -30 30 -42 35 -81 35 -48 0 -104 -30 -154 -85 -106 -114 -365 -245 -575
-291 -98 -21 -377 -24 -475 -5 -174 34 -372 120 -508 220 l-82 61 475 950
c261 523 475 960 475 973 0 37 -34 89 -71 109 -32 17 -115 18 -2014 18 -1899
0 -1982 -1 -2014 -18z"/>
</g>
</svg>
