<?xml version="1.0" standalone="no"?>
<!DOCTYPE svg PUBLIC "-//W3C//DTD SVG 20010904//EN"
 "http://www.w3.org/TR/2001/REC-SVG-20010904/DTD/svg10.dtd">
<svg version="1.0" xmlns="http://www.w3.org/2000/svg"
 width="550pt" height="1000pt" viewBox="0 0 550 1000"
 preserveAspectRatio="xMidYMid meet">
<metadata>
Created by potrace 1.9, written by Peter Selinger 2001-2010
</metadata>
<g transform="translate(0,1000) scale(0.100000,-0.100000)"
fill="#000000" stroke="none">
<path d="M1231 6082 c-19 -10 -43 -34 -53 -53 -17 -32 -18 -83 -18 -1006 l0
-973 -485 -970 c-269 -538 -487 -986 -490 -1007 -16 -104 101 -175 190 -117
20 13 134 232 467 898 l440 881 437 -871 c240 -480 442 -879 449 -887 24 -28
82 -49 118 -43 44 9 91 58 100 103 6 34 -29 108 -472 995 l-479 958 903 903
902 902 942 -941 c995 -994 975 -975 1048 -959 39 8 87 56 95 95 4 16 2 45 -4
62 -8 24 -302 324 -1013 1035 -808 806 -1009 1002 -1035 1008 -77 16 -56 35
-985 -893 l-878 -877 0 835 c0 790 -1 837 -18 869 -19 36 -72 71 -107 71 -11
0 -36 -8 -54 -18z"/>
</g>
</svg>
