<?xml version="1.0" standalone="no"?>
<!DOCTYPE svg PUBLIC "-//W3C//DTD SVG 20010904//EN"
 "http://www.w3.org/TR/2001/REC-SVG-20010904/DTD/svg10.dtd">
<svg version="1.0" xmlns="http://www.w3.org/2000/svg"
 width="648pt" height="1000pt" viewBox="0 0 648 1000"
 preserveAspectRatio="xMidYMid meet">
<metadata>
Created by potrace 1.9, written by Peter Selinger 2001-2010
</metadata>
<g transform="translate(0,1000) scale(0.100000,-0.100000)"
fill="#000000" stroke="none">
<path d="M2212 6084 c-18 -9 -41 -29 -51 -43 -41 -58 -1971 -3933 -1976 -3968
-8 -49 19 -100 66 -125 32 -17 82 -18 951 -18 l918 0 0 -36 c0 -95 -47 -309
-100 -454 -97 -264 -227 -466 -430 -670 -246 -246 -521 -402 -850 -484 -128
-32 -147 -35 -329 -50 -88 -8 -166 -19 -178 -26 -47 -30 -70 -110 -44 -158 27
-51 32 -52 214 -52 181 0 260 10 432 54 580 148 1080 562 1341 1111 112 236
163 438 203 808 13 115 2 152 -54 187 -32 20 -47 20 -924 20 -490 0 -891 2
-891 5 0 3 394 794 876 1757 l876 1753 929 -1857 c791 -1581 933 -1859 961
-1880 l33 -23 928 -3 927 -2 0 -36 c0 -95 -47 -309 -100 -454 -97 -264 -227
-466 -430 -670 -246 -246 -521 -402 -850 -484 -128 -32 -147 -35 -329 -50 -88
-8 -166 -19 -178 -26 -47 -30 -70 -110 -44 -158 27 -51 32 -52 214 -52 181 0
260 10 432 54 580 148 1080 562 1341 1111 112 236 163 438 203 808 13 115 2
152 -54 187 -32 20 -47 20 -989 20 l-956 0 -969 1938 c-743 1487 -976 1943
-996 1956 -39 25 -85 29 -123 10z"/>
</g>
</svg>
