<?xml version="1.0" standalone="no"?>
<!DOCTYPE svg PUBLIC "-//W3C//DTD SVG 20010904//EN"
 "http://www.w3.org/TR/2001/REC-SVG-20010904/DTD/svg10.dtd">
<svg version="1.0" xmlns="http://www.w3.org/2000/svg"
 width="1334pt" height="1000pt" viewBox="0 0 1334 1000"
 preserveAspectRatio="xMidYMid meet">
<metadata>
Created by potrace 1.9, written by Peter Selinger 2001-2010
</metadata>
<g transform="translate(0,1000) scale(0.100000,-0.100000)"
fill="#000000" stroke="none">
<path d="M5152 6083 c-18 -9 -41 -28 -51 -42 -10 -14 -127 -244 -260 -509
-185 -369 -245 -482 -257 -478 -90 35 -263 66 -364 66 -234 0 -519 -104 -701
-256 -290 -242 -446 -650 -384 -1003 49 -281 188 -527 386 -686 41 -32 80 -64
87 -70 11 -10 -33 -105 -232 -503 -135 -270 -248 -508 -251 -529 -8 -49 19
-100 66 -125 32 -17 84 -18 1034 -18 950 0 1002 1 1034 18 36 19 71 72 71 107
0 35 -35 88 -71 107 -32 17 -81 18 -921 18 -489 0 -888 2 -888 5 0 3 90 185
200 404 l199 399 60 -18 c89 -28 226 -50 311 -50 239 0 523 106 712 265 280
236 434 647 373 994 -54 310 -207 560 -450 738 l-30 22 253 508 c139 279 253
517 252 528 0 35 -35 88 -71 107 -41 22 -64 22 -107 1z m-729 -1239 c31 -9 57
-21 57 -25 0 -14 -739 -1489 -746 -1489 -15 0 -127 106 -177 168 -66 81 -115
176 -153 297 -26 82 -29 103 -28 230 0 126 3 149 28 225 59 179 144 307 281
422 101 86 253 158 396 188 67 14 274 5 342 -16z m460 -302 c66 -81 115 -176
153 -297 26 -80 29 -104 29 -225 0 -121 -3 -145 -29 -225 -93 -295 -290 -494
-586 -591 -76 -25 -100 -28 -225 -28 -109 -1 -154 3 -202 18 l-62 18 375 750
375 749 58 -50 c32 -28 83 -81 114 -119z"/>
<path d="M7105 6081 c-27 -13 -201 -180 -531 -512 -513 -516 -526 -530 -509
-596 16 -67 79 -110 143 -98 32 5 92 61 435 403 l397 397 0 -1820 c0 -1744 1
-1822 18 -1854 19 -36 72 -71 107 -71 35 0 88 35 107 71 17 32 18 110 18 1849
l0 1815 388 -387 c403 -402 425 -420 489 -403 67 16 110 79 98 143 -5 32 -74
104 -513 546 -290 290 -521 514 -539 522 -42 18 -60 17 -108 -5z"/>
<path d="M1110 5104 c-194 -35 -394 -125 -531 -240 -290 -242 -446 -650 -384
-1003 49 -279 185 -523 384 -685 145 -119 339 -206 536 -240 114 -20 216 -20
330 0 489 85 833 432 920 925 61 347 -93 758 -373 994 -241 203 -592 302 -882
249z m400 -269 c176 -56 318 -152 431 -291 68 -83 117 -178 155 -299 26 -80
29 -104 29 -225 0 -121 -3 -145 -29 -225 -93 -295 -290 -493 -586 -591 -77
-25 -98 -28 -230 -28 -132 0 -153 3 -230 28 -179 59 -319 154 -431 292 -68 82
-117 177 -155 299 -26 82 -29 103 -28 230 0 126 3 149 28 225 95 288 291 488
567 579 106 35 147 40 274 37 97 -3 137 -9 205 -31z"/>
<path d="M10051 5102 c-64 -34 -71 -62 -71 -283 l0 -196 -59 -6 c-313 -33
-631 -182 -859 -402 -70 -67 -95 -99 -101 -125 -21 -96 61 -174 154 -149 22 6
66 39 118 87 104 99 173 150 267 201 132 71 356 141 450 141 l30 0 0 -678 c0
-637 1 -679 18 -711 10 -19 34 -43 53 -53 32 -17 84 -18 1034 -18 950 0 1002
1 1034 18 67 36 71 57 71 333 l0 246 83 12 c299 45 591 183 798 376 68 63 79
83 79 137 0 41 -5 52 -35 83 -30 30 -42 35 -81 35 -48 0 -104 -30 -154 -85
-39 -42 -148 -120 -230 -163 -130 -69 -355 -142 -440 -142 -20 0 -20 2 -20
628 0 588 -1 629 -18 661 -10 19 -34 43 -53 53 -32 17 -84 18 -1034 18 -950 0
-1002 -1 -1034 -18z m1889 -787 l0 -555 -32 0 c-143 1 -425 111 -583 228 -67
49 -83 66 -93 99 -9 31 -35 63 -105 130 -222 212 -501 347 -814 394 l-83 12 0
124 0 123 855 0 855 0 0 -555z m-1593 39 c168 -35 358 -120 488 -219 91 -69
120 -101 135 -149 29 -90 294 -283 514 -372 106 -43 285 -90 384 -99 l72 -8 0
-173 0 -174 -855 0 -855 0 0 605 c0 602 0 605 20 605 12 0 55 -7 97 -16z"/>
<path d="M251 2162 c-36 -19 -71 -72 -71 -107 0 -35 35 -88 71 -107 32 -17 84
-18 1034 -18 950 0 1002 1 1034 18 36 19 71 72 71 107 0 35 -35 88 -71 107
-32 17 -84 18 -1034 18 -950 0 -1002 -1 -1034 -18z"/>
</g>
</svg>
