<?xml version="1.0" standalone="no"?>
<!DOCTYPE svg PUBLIC "-//W3C//DTD SVG 20010904//EN"
 "http://www.w3.org/TR/2001/REC-SVG-20010904/DTD/svg10.dtd">
<svg version="1.0" xmlns="http://www.w3.org/2000/svg"
 width="1040pt" height="1000pt" viewBox="0 0 1040 1000"
 preserveAspectRatio="xMidYMid meet">
<metadata>
Created by potrace 1.9, written by Peter Selinger 2001-2010
</metadata>
<g transform="translate(0,1000) scale(0.100000,-0.100000)"
fill="#000000" stroke="none">
<path d="M9505 6075 c-30 -31 -35 -42 -35 -83 0 -41 6 -54 43 -99 144 -176
180 -225 220 -302 54 -102 100 -230 124 -343 24 -115 24 -370 -1 -488 -44
-210 -150 -425 -279 -566 -28 -31 -67 -78 -86 -104 -20 -27 -58 -77 -86 -112
-115 -144 -226 -365 -270 -538 -114 -441 -41 -868 211 -1246 73 -111 169 -215
217 -237 71 -33 146 -1 168 72 17 56 0 95 -82 186 -152 171 -247 360 -296 587
-24 115 -24 370 1 488 44 210 150 425 279 566 28 31 67 78 86 104 20 27 59 77
86 112 76 96 169 258 214 371 76 196 105 354 105 567 -1 387 -131 723 -393
1015 -63 70 -88 85 -143 85 -41 0 -52 -5 -83 -35z"/>
<path d="M2090 6084 c-270 -49 -508 -184 -674 -383 -113 -135 -208 -344 -237
-520 l-12 -68 -68 -12 c-176 -29 -385 -124 -520 -237 -290 -242 -446 -650
-384 -1003 49 -279 185 -523 384 -685 188 -154 467 -256 701 -256 239 0 523
106 712 265 280 236 434 647 373 994 -62 352 -254 632 -543 792 -125 69 -207
99 -374 134 -35 7 -35 21 -2 127 91 288 289 486 584 584 77 25 98 28 230 28
132 0 153 -3 230 -28 183 -61 317 -152 431 -292 66 -80 115 -175 155 -294 25
-76 28 -100 28 -220 0 -110 -5 -159 -27 -265 -116 -544 -340 -1056 -641 -1465
-324 -441 -698 -782 -1159 -1059 -93 -56 -127 -94 -127 -144 0 -76 66 -135
138 -123 39 6 169 80 347 200 768 512 1362 1337 1608 2232 66 241 129 576 120
644 -31 253 -83 411 -188 575 -222 347 -685 552 -1085 479z m-580 -1249 c176
-56 318 -152 431 -291 68 -83 117 -178 155 -299 26 -80 29 -104 29 -225 0
-121 -3 -145 -29 -225 -93 -295 -290 -493 -586 -591 -77 -25 -98 -28 -230 -28
-132 0 -153 3 -230 28 -179 59 -319 154 -431 292 -68 82 -117 177 -155 299
-26 82 -29 103 -28 230 0 126 3 149 28 225 95 288 291 488 567 579 106 35 147
40 274 37 97 -3 137 -9 205 -31z"/>
<path d="M5151 5102 c-64 -34 -71 -62 -71 -283 l0 -196 -59 -6 c-313 -33 -631
-182 -859 -402 -70 -67 -95 -99 -101 -125 -21 -96 61 -174 154 -149 22 6 66
39 118 87 104 99 173 150 267 201 132 71 356 141 450 141 l30 0 0 -678 c0
-637 1 -679 18 -711 10 -19 34 -43 53 -53 32 -17 84 -18 1034 -18 950 0 1002
1 1034 18 67 36 71 57 71 333 l0 246 83 12 c299 45 591 183 798 376 68 63 79
83 79 137 0 41 -5 52 -35 83 -30 30 -42 35 -81 35 -48 0 -104 -30 -154 -85
-39 -42 -148 -120 -230 -163 -130 -69 -355 -142 -440 -142 -20 0 -20 2 -20
628 0 588 -1 629 -18 661 -10 19 -34 43 -53 53 -32 17 -84 18 -1034 18 -950 0
-1002 -1 -1034 -18z m1889 -787 l0 -555 -32 0 c-143 1 -425 111 -583 228 -67
49 -83 66 -93 99 -9 31 -35 63 -105 130 -222 212 -501 347 -814 394 l-83 12 0
124 0 123 855 0 855 0 0 -555z m-1593 39 c168 -35 358 -120 488 -219 91 -69
120 -101 135 -149 29 -90 294 -283 514 -372 106 -43 285 -90 384 -99 l72 -8 0
-173 0 -174 -855 0 -855 0 0 605 c0 602 0 605 20 605 12 0 55 -7 97 -16z"/>
</g>
</svg>
