<?xml version="1.0" standalone="no"?>
<!DOCTYPE svg PUBLIC "-//W3C//DTD SVG 20010904//EN"
 "http://www.w3.org/TR/2001/REC-SVG-20010904/DTD/svg10.dtd">
<svg version="1.0" xmlns="http://www.w3.org/2000/svg"
 width="452pt" height="1000pt" viewBox="0 0 452 1000"
 preserveAspectRatio="xMidYMid meet">
<metadata>
Created by potrace 1.9, written by Peter Selinger 2001-2010
</metadata>
<g transform="translate(0,1000) scale(0.100000,-0.100000)"
fill="#000000" stroke="none">
<path d="M1721 8042 c-47 -25 -74 -76 -66 -125 3 -21 118 -263 255 -537 272
-544 273 -545 355 -545 78 1 77 -2 357 559 278 556 274 547 233 609 -23 35
-79 60 -118 53 -66 -13 -82 -38 -282 -436 l-193 -385 -195 391 c-143 286 -202
395 -222 408 -41 27 -85 30 -124 8z"/>
<path d="M1231 5102 c-64 -34 -71 -62 -71 -282 l0 -196 -87 -13 c-232 -33
-412 -100 -610 -227 -150 -97 -271 -203 -305 -268 -49 -95 25 -201 128 -182
26 5 58 28 113 79 42 40 108 96 146 125 74 56 251 147 350 180 69 23 202 52
240 52 l25 0 0 -678 c0 -637 1 -679 18 -711 10 -19 34 -43 53 -53 32 -17 84
-18 1034 -18 950 0 1002 1 1034 18 67 36 71 57 71 333 l0 246 83 12 c299 45
591 183 798 376 68 63 79 83 79 137 0 41 -5 52 -35 83 -30 30 -42 35 -81 35
-48 0 -104 -30 -154 -85 -39 -42 -148 -120 -230 -163 -130 -69 -355 -142 -440
-142 -20 0 -20 2 -20 628 0 588 -1 629 -18 661 -10 19 -34 43 -53 53 -32 17
-84 18 -1034 18 -950 0 -1002 -1 -1034 -18z m1889 -787 l0 -555 -32 0 c-90 1
-259 51 -403 120 -111 53 -265 161 -265 185 0 66 -131 195 -323 319 -196 126
-373 192 -604 227 l-83 12 0 124 0 123 855 0 855 0 0 -555z m-1592 39 c199
-41 374 -125 542 -260 55 -44 67 -60 78 -99 14 -53 63 -104 187 -194 217 -158
479 -263 713 -286 l72 -8 0 -173 0 -174 -855 0 -855 0 0 605 c0 602 0 605 20
605 12 0 56 -7 98 -16z"/>
</g>
</svg>
