<?xml version="1.0" standalone="no"?>
<!DOCTYPE svg PUBLIC "-//W3C//DTD SVG 20010904//EN"
 "http://www.w3.org/TR/2001/REC-SVG-20010904/DTD/svg10.dtd">
<svg version="1.0" xmlns="http://www.w3.org/2000/svg"
 width="452pt" height="1000pt" viewBox="0 0 452 1000"
 preserveAspectRatio="xMidYMid meet">
<metadata>
Created by potrace 1.9, written by Peter Selinger 2001-2010
</metadata>
<g transform="translate(0,1000) scale(0.100000,-0.100000)"
fill="#000000" stroke="none">
<path d="M2115 6094 c-684 -55 -1279 -418 -1631 -994 -143 -235 -234 -491
-279 -780 -21 -137 -25 -328 -7 -362 40 -74 167 -77 212 -5 7 12 18 90 26 178
15 182 18 201 50 329 82 329 238 604 484 850 204 203 406 333 670 430 149 54
359 100 459 100 l41 0 0 -1742 0 -1743 -397 397 c-436 435 -430 430 -506 393
-61 -29 -87 -88 -67 -152 17 -53 973 -1015 1039 -1045 88 -40 61 -62 629 505
358 358 515 522 523 544 6 18 8 47 4 63 -8 39 -56 87 -95 95 -70 15 -85 2
-492 -403 l-388 -387 0 1738 0 1737 36 0 c95 0 309 -47 454 -100 264 -97 466
-227 670 -430 246 -246 402 -521 484 -850 32 -128 35 -147 50 -329 8 -88 19
-166 26 -178 45 -72 172 -69 212 5 18 34 14 225 -7 362 -71 458 -269 853 -585
1170 -378 377 -876 590 -1416 604 -82 2 -171 2 -199 0z"/>
</g>
</svg>
