<?xml version="1.0" standalone="no"?>
<!DOCTYPE svg PUBLIC "-//W3C//DTD SVG 20010904//EN"
 "http://www.w3.org/TR/2001/REC-SVG-20010904/DTD/svg10.dtd">
<svg version="1.0" xmlns="http://www.w3.org/2000/svg"
 width="1432pt" height="1000pt" viewBox="0 0 1432 1000"
 preserveAspectRatio="xMidYMid meet">
<metadata>
Created by potrace 1.9, written by Peter Selinger 2001-2010
</metadata>
<g transform="translate(0,1000) scale(0.100000,-0.100000)"
fill="#000000" stroke="none">
<path d="M5151 6082 c-36 -19 -71 -73 -71 -107 1 -58 50 -112 624 -685 322
-322 586 -589 586 -594 0 -5 -9 -19 -19 -30 -33 -36 -128 -228 -155 -312 -33
-109 -56 -242 -56 -334 0 -161 52 -359 137 -520 157 -299 445 -502 798 -564
161 -28 319 -15 499 40 82 26 245 106 303 150 17 13 35 24 40 24 4 0 276 -268
603 -595 624 -624 639 -637 706 -621 68 17 111 80 99 144 -5 32 -85 115 -616
647 l-609 610 35 49 c120 168 205 433 205 636 0 157 -52 357 -132 512 -159
305 -447 510 -803 572 -161 28 -319 15 -499 -40 -87 -28 -271 -120 -320 -160
l-29 -26 -601 601 c-334 333 -614 605 -629 611 -39 14 -57 13 -96 -8z m2239
-1247 c176 -56 318 -152 431 -291 68 -83 117 -178 155 -299 26 -80 29 -104 29
-225 0 -121 -3 -145 -29 -225 -27 -86 -89 -219 -121 -260 -15 -19 -41 6 -607
573 -567 566 -592 592 -573 607 35 27 168 91 236 114 106 35 147 40 274 37 97
-3 137 -9 205 -31z m242 -1518 c-53 -36 -158 -85 -242 -113 -77 -25 -98 -28
-230 -28 -132 0 -153 3 -230 28 -179 59 -319 154 -431 292 -68 82 -117 177
-155 299 -26 82 -29 103 -28 230 0 126 3 149 28 225 29 88 72 182 109 237 l22
33 592 -592 592 -592 -27 -19z"/>
<path d="M12501 6083 c-19 -9 -46 -36 -60 -59 -14 -23 -123 -236 -241 -473
l-215 -431 -460 0 c-427 0 -463 -1 -494 -18 -36 -19 -71 -72 -71 -107 0 -35
35 -88 71 -107 31 -17 65 -18 431 -18 l398 0 -427 -855 -428 -855 -460 0
c-515 0 -508 1 -547 -71 -23 -42 -23 -66 0 -108 38 -71 40 -71 484 -71 l398 0
-200 -400 c-110 -219 -202 -416 -205 -437 -11 -74 61 -150 132 -139 69 10 74
18 319 508 l234 468 840 0 840 0 -200 -400 c-110 -219 -202 -416 -205 -437
-11 -74 61 -150 132 -139 69 10 74 18 319 508 l234 468 463 0 c517 0 510 -1
549 71 23 42 23 66 0 108 -38 71 -40 71 -484 71 -219 0 -398 2 -398 5 0 3 191
388 425 855 l425 850 110 0 110 0 0 125 0 125 -45 0 c-25 0 -45 2 -45 5 0 3
20 46 45 95 l45 90 -1 277 0 278 -187 -372 -187 -373 -837 0 c-461 0 -838 2
-838 5 0 2 92 189 205 415 113 226 205 421 205 433 0 37 -34 89 -71 109 -41
22 -64 22 -108 1z m892 -2068 l-428 -855 -837 0 c-461 0 -838 2 -838 5 0 3
191 388 425 855 l425 850 840 0 840 0 -427 -855z"/>
<path d="M251 5102 c-19 -10 -43 -34 -53 -53 -17 -32 -18 -84 -18 -1034 0
-950 1 -1002 18 -1034 10 -19 34 -43 53 -53 32 -17 115 -18 2014 -18 1899 0
1982 1 2014 18 19 10 43 34 53 53 17 32 18 84 18 1034 0 950 -1 1002 -18 1034
-10 19 -34 43 -53 53 -32 17 -115 18 -2014 18 -1899 0 -1982 -1 -2014 -18z
m3849 -1087 l0 -855 -1835 0 -1835 0 0 855 0 855 1835 0 1835 0 0 -855z"/>
</g>
</svg>
