<?xml version="1.0" standalone="no"?>
<!DOCTYPE svg PUBLIC "-//W3C//DTD SVG 20010904//EN"
 "http://www.w3.org/TR/2001/REC-SVG-20010904/DTD/svg10.dtd">
<svg version="1.0" xmlns="http://www.w3.org/2000/svg"
 width="452pt" height="1000pt" viewBox="0 0 452 1000"
 preserveAspectRatio="xMidYMid meet">
<metadata>
Created by potrace 1.9, written by Peter Selinger 2001-2010
</metadata>
<g transform="translate(0,1000) scale(0.100000,-0.100000)"
fill="#000000" stroke="none">
<path d="M2205 4121 c-28 -13 -345 -325 -1021 -1002 -792 -794 -984 -991 -994
-1022 -20 -64 6 -123 67 -152 80 -38 18 -93 1056 943 l947 947 938 -937 c923
-923 971 -968 1029 -968 33 0 86 36 105 71 17 32 18 84 18 1034 0 950 -1 1002
-18 1034 -19 36 -72 71 -107 71 -35 0 -88 -35 -107 -71 -17 -32 -18 -79 -18
-874 l0 -840 -882 882 c-497 497 -895 887 -911 893 -39 14 -56 13 -102 -9z"/>
</g>
</svg>
