<?xml version="1.0" standalone="no"?>
<!DOCTYPE svg PUBLIC "-//W3C//DTD SVG 20010904//EN"
 "http://www.w3.org/TR/2001/REC-SVG-20010904/DTD/svg10.dtd">
<svg version="1.0" xmlns="http://www.w3.org/2000/svg"
 width="1138pt" height="1000pt" viewBox="0 0 1138 1000"
 preserveAspectRatio="xMidYMid meet">
<metadata>
Created by potrace 1.9, written by Peter Selinger 2001-2010
</metadata>
<g transform="translate(0,1000) scale(0.100000,-0.100000)"
fill="#000000" stroke="none">
<path d="M2211 6082 c-19 -10 -43 -34 -53 -53 -17 -32 -18 -82 -18 -961 l0
-928 -928 0 c-879 0 -929 -1 -961 -18 -36 -19 -71 -72 -71 -107 0 -35 35 -88
71 -107 32 -17 82 -18 961 -18 l928 0 0 -928 c0 -879 1 -929 18 -961 10 -19
34 -43 53 -53 32 -17 115 -18 2014 -18 1899 0 1982 1 2014 18 19 10 43 34 53
53 17 32 18 115 18 2014 0 1899 -1 1982 -18 2014 -10 19 -34 43 -53 53 -32 17
-115 18 -2014 18 -1899 0 -1982 -1 -2014 -18z m3849 -2067 l0 -1835 -1835 0
-1835 0 0 855 0 855 762 0 763 0 -387 -387 c-405 -408 -418 -423 -403 -493 8
-39 56 -87 95 -95 16 -4 45 -2 63 4 22 8 186 165 544 523 544 546 538 538 514
611 -8 22 -165 186 -523 544 -445 444 -518 513 -550 518 -64 12 -127 -31 -143
-98 -17 -64 1 -86 403 -489 l387 -388 -763 0 -762 0 0 855 0 855 1835 0 1835
0 0 -1835z"/>
<path d="M8091 5102 c-19 -10 -43 -34 -53 -53 -17 -32 -18 -84 -18 -1034 0
-950 1 -1002 18 -1034 10 -19 34 -43 53 -53 32 -17 84 -18 1034 -18 950 0
1002 1 1034 18 19 10 43 34 53 53 17 32 18 84 18 1034 0 950 -1 1002 -18 1034
-10 19 -34 43 -53 53 -32 17 -84 18 -1034 18 -950 0 -1002 -1 -1034 -18z
m1889 -1087 l0 -855 -855 0 -855 0 0 855 0 855 855 0 855 0 0 -855z"/>
<path d="M7098 4123 c-46 -29 -53 -56 -51 -182 9 -506 237 -1027 612 -1400
387 -384 904 -595 1461 -595 557 0 1074 211 1461 595 322 320 523 719 594
1179 21 137 25 328 7 362 -40 74 -167 77 -212 5 -7 -12 -18 -90 -26 -178 -15
-182 -18 -201 -50 -329 -41 -166 -119 -358 -201 -493 -145 -241 -400 -496
-640 -641 -184 -110 -440 -201 -668 -237 -103 -16 -427 -16 -530 0 -228 36
-484 127 -668 237 -240 145 -495 400 -640 641 -82 135 -160 327 -201 493 -32
128 -35 147 -50 329 -8 88 -19 166 -26 178 -32 51 -119 69 -172 36z"/>
</g>
</svg>
