<?xml version="1.0" standalone="no"?>
<!DOCTYPE svg PUBLIC "-//W3C//DTD SVG 20010904//EN"
 "http://www.w3.org/TR/2001/REC-SVG-20010904/DTD/svg10.dtd">
<svg version="1.0" xmlns="http://www.w3.org/2000/svg"
 width="158pt" height="1000pt" viewBox="0 0 158 1000"
 preserveAspectRatio="xMidYMid meet">
<metadata>
Created by potrace 1.9, written by Peter Selinger 2001-2010
</metadata>
<g transform="translate(0,1000) scale(0.100000,-0.100000)"
fill="#000000" stroke="none">
<path d="M462 8044 c-133 -29 -238 -136 -267 -271 -20 -101 -11 -137 45 -176
49 -34 144 -13 169 37 6 12 15 40 21 64 16 61 55 102 106 109 39 5 45 2 83
-36 55 -55 56 -94 4 -149 -31 -32 -47 -40 -89 -46 -157 -20 -158 -232 -1 -252
66 -9 127 -66 127 -119 0 -48 -63 -115 -109 -115 -67 0 -113 48 -125 130 -11
71 -53 110 -121 110 -95 0 -140 -76 -115 -197 39 -191 227 -318 419 -284 246
44 379 335 245 538 -19 29 -34 57 -34 63 0 6 16 34 34 63 128 193 8 479 -223
534 -67 15 -87 15 -169 -3z"/>
</g>
</svg>
