<?xml version="1.0" standalone="no"?>
<!DOCTYPE svg PUBLIC "-//W3C//DTD SVG 20010904//EN"
 "http://www.w3.org/TR/2001/REC-SVG-20010904/DTD/svg10.dtd">
<svg version="1.0" xmlns="http://www.w3.org/2000/svg"
 width="207pt" height="1000pt" viewBox="0 0 207 1000"
 preserveAspectRatio="xMidYMid meet">
<metadata>
Created by potrace 1.9, written by Peter Selinger 2001-2010
</metadata>
<g transform="translate(0,1000) scale(0.100000,-0.100000)"
fill="#000000" stroke="none">
<path d="M741 8042 c-64 -34 -71 -62 -71 -279 l0 -193 -193 0 c-217 0 -245 -7
-279 -71 -23 -42 -23 -66 0 -108 34 -64 62 -71 279 -71 l193 0 0 -193 c0 -217
7 -245 71 -279 42 -23 66 -23 108 0 64 34 71 62 71 279 l0 193 193 0 c217 0
245 7 279 71 23 42 23 66 0 108 -34 64 -62 71 -279 71 l-193 0 0 193 c0 167
-2 197 -18 226 -19 36 -72 71 -107 71 -11 0 -36 -8 -54 -18z"/>
</g>
</svg>
