<?xml version="1.0" standalone="no"?>
<!DOCTYPE svg PUBLIC "-//W3C//DTD SVG 20010904//EN"
 "http://www.w3.org/TR/2001/REC-SVG-20010904/DTD/svg10.dtd">
<svg version="1.0" xmlns="http://www.w3.org/2000/svg"
 width="207pt" height="1000pt" viewBox="0 0 207 1000"
 preserveAspectRatio="xMidYMid meet">
<metadata>
Created by potrace 1.9, written by Peter Selinger 2001-2010
</metadata>
<g transform="translate(0,1000) scale(0.100000,-0.100000)"
fill="#000000" stroke="none">
<path d="M251 8057 c-49 -17 -76 -58 -76 -116 0 -41 6 -55 45 -104 105 -134
144 -236 144 -382 0 -146 -39 -248 -144 -382 -39 -49 -45 -63 -45 -104 0 -59
27 -99 80 -117 63 -21 106 -2 170 75 180 218 239 522 151 781 -56 163 -172
332 -243 351 -45 13 -39 13 -82 -2z"/>
<path d="M741 8042 c-47 -25 -74 -76 -66 -125 3 -21 118 -263 255 -537 272
-544 273 -545 355 -545 78 1 77 -2 357 559 278 556 274 547 233 609 -23 35
-79 60 -118 53 -66 -13 -82 -38 -282 -436 l-193 -385 -195 391 c-143 286 -202
395 -222 408 -41 27 -85 30 -124 8z"/>
</g>
</svg>
