<?xml version="1.0" standalone="no"?>
<!DOCTYPE svg PUBLIC "-//W3C//DTD SVG 20010904//EN"
 "http://www.w3.org/TR/2001/REC-SVG-20010904/DTD/svg10.dtd">
<svg version="1.0" xmlns="http://www.w3.org/2000/svg"
 width="158pt" height="1000pt" viewBox="0 0 158 1000"
 preserveAspectRatio="xMidYMid meet">
<metadata>
Created by potrace 1.9, written by Peter Selinger 2001-2010
</metadata>
<g transform="translate(0,1000) scale(0.100000,-0.100000)"
fill="#000000" stroke="none">
<path d="M742 8044 c-18 -9 -41 -29 -51 -43 -40 -56 -501 -992 -506 -1028 -8
-49 19 -100 66 -125 31 -17 69 -18 544 -18 475 0 513 1 544 18 37 20 71 72 71
109 0 12 -117 256 -259 541 -193 387 -266 523 -286 536 -39 25 -85 29 -123 10z
m55 -962 c-154 -1 -282 0 -284 2 -2 2 60 131 138 287 l142 284 142 -285 143
-285 -281 -3z"/>
</g>
</svg>
