<?xml version="1.0" standalone="no"?>
<!DOCTYPE svg PUBLIC "-//W3C//DTD SVG 20010904//EN"
 "http://www.w3.org/TR/2001/REC-SVG-20010904/DTD/svg10.dtd">
<svg version="1.0" xmlns="http://www.w3.org/2000/svg"
 width="256pt" height="1000pt" viewBox="0 0 256 1000"
 preserveAspectRatio="xMidYMid meet">
<metadata>
Created by potrace 1.9, written by Peter Selinger 2001-2010
</metadata>
<g transform="translate(0,1000) scale(0.100000,-0.100000)"
fill="#000000" stroke="none">
<path d="M715 8053 c-256 -40 -447 -206 -511 -443 -23 -86 -23 -234 0 -320 55
-202 213 -364 415 -423 92 -27 251 -27 346 1 l70 21 75 -22 c98 -27 246 -28
341 0 201 59 360 221 415 423 23 86 23 234 0 320 -55 202 -214 364 -415 423
-95 28 -243 27 -341 0 -75 -22 -75 -22 -145 -2 -71 19 -197 31 -250 22z m63
-250 c-2 -5 -17 -35 -35 -69 -47 -89 -66 -174 -66 -284 0 -110 19 -195 66
-284 18 -34 34 -65 36 -70 6 -14 -81 4 -136 29 -68 31 -147 111 -181 183 -38
82 -38 202 0 284 31 66 106 147 166 177 58 30 159 52 150 34z m649 -28 c68
-31 147 -111 181 -183 22 -48 27 -71 27 -142 0 -71 -5 -94 -27 -142 -34 -72
-113 -152 -181 -183 -55 -25 -142 -43 -136 -29 2 5 18 36 36 70 47 89 66 174
66 284 0 110 -19 195 -66 284 -18 34 -34 65 -36 70 -6 14 81 -4 136 -29z
m-309 -185 c22 -46 27 -69 26 -140 0 -95 -19 -150 -76 -222 l-32 -41 -29 34
c-16 19 -41 59 -55 89 -22 46 -27 69 -26 140 0 95 19 150 76 222 l32 41 29
-34 c16 -19 41 -59 55 -89z"/>
</g>
</svg>
