<?xml version="1.0" standalone="no"?>
<!DOCTYPE svg PUBLIC "-//W3C//DTD SVG 20010904//EN"
 "http://www.w3.org/TR/2001/REC-SVG-20010904/DTD/svg10.dtd">
<svg version="1.0" xmlns="http://www.w3.org/2000/svg"
 width="452pt" height="1000pt" viewBox="0 0 452 1000"
 preserveAspectRatio="xMidYMid meet">
<metadata>
Created by potrace 1.9, written by Peter Selinger 2001-2010
</metadata>
<g transform="translate(0,1000) scale(0.100000,-0.100000)"
fill="#000000" stroke="none">
<path d="M1110 5104 c-194 -35 -394 -125 -531 -240 -290 -242 -446 -650 -384
-1003 49 -279 185 -523 384 -685 145 -119 339 -206 536 -240 114 -20 216 -20
330 0 489 85 833 432 920 925 61 347 -93 758 -373 994 -241 203 -592 302 -882
249z m400 -269 c176 -56 318 -152 431 -291 68 -83 117 -178 155 -299 26 -80
29 -104 29 -225 0 -121 -3 -145 -29 -225 -93 -295 -290 -493 -586 -591 -77
-25 -98 -28 -230 -28 -132 0 -153 3 -230 28 -179 59 -319 154 -431 292 -68 82
-117 177 -155 299 -26 82 -29 103 -28 230 0 126 3 149 28 225 95 288 291 488
567 579 106 35 147 40 274 37 97 -3 137 -9 205 -31z"/>
<path d="M1243 4143 c-33 -6 -79 -57 -86 -92 -26 -127 122 -210 212 -120 43
42 49 93 18 156 -20 42 -87 68 -144 56z"/>
<path d="M3655 4133 c-256 -40 -444 -203 -512 -443 -17 -60 -18 -113 -18 -650
0 -537 1 -590 18 -650 58 -204 215 -364 416 -423 91 -27 251 -27 342 0 202 59
360 221 415 423 23 86 23 234 0 320 -55 202 -214 364 -415 423 -88 26 -242 27
-330 3 -36 -10 -92 -32 -125 -49 -34 -18 -65 -33 -69 -35 -5 -2 -7 123 -5 279
l3 284 27 57 c34 74 112 152 186 186 48 22 71 27 142 27 105 0 175 -29 249
-103 64 -64 90 -117 107 -216 8 -45 19 -90 25 -102 26 -50 114 -70 169 -37 42
24 55 58 54 132 -6 256 -192 491 -441 555 -66 17 -189 27 -238 19z m220 -1257
c71 -32 149 -111 183 -184 22 -48 27 -71 27 -142 0 -106 -29 -175 -105 -250
-75 -76 -144 -105 -250 -105 -106 0 -175 29 -250 105 -76 75 -105 144 -105
250 0 71 5 94 27 142 45 98 146 183 245 208 61 15 167 4 228 -24z"/>
<path d="M251 2162 c-36 -19 -71 -72 -71 -107 0 -35 35 -88 71 -107 32 -17 84
-18 1034 -18 950 0 1002 1 1034 18 36 19 71 72 71 107 0 35 -35 88 -71 107
-32 17 -84 18 -1034 18 -950 0 -1002 -1 -1034 -18z"/>
</g>
</svg>
