<?xml version="1.0" standalone="no"?>
<!DOCTYPE svg PUBLIC "-//W3C//DTD SVG 20010904//EN"
 "http://www.w3.org/TR/2001/REC-SVG-20010904/DTD/svg10.dtd">
<svg version="1.0" xmlns="http://www.w3.org/2000/svg"
 width="158pt" height="1000pt" viewBox="0 0 158 1000"
 preserveAspectRatio="xMidYMid meet">
<metadata>
Created by potrace 1.9, written by Peter Selinger 2001-2010
</metadata>
<g transform="translate(0,1000) scale(0.100000,-0.100000)"
fill="#000000" stroke="none">
<path d="M485 8041 c-58 -27 -279 -255 -295 -304 -39 -123 100 -214 200 -131
l30 26 0 -276 0 -276 -68 0 c-81 0 -127 -21 -154 -71 -23 -42 -23 -66 0 -108
36 -67 55 -71 352 -71 297 0 316 4 352 71 23 42 23 66 0 108 -27 51 -73 71
-159 71 l-73 0 0 438 c0 489 0 486 -71 524 -42 23 -64 22 -114 -1z"/>
</g>
</svg>
