<?xml version="1.0" standalone="no"?>
<!DOCTYPE svg PUBLIC "-//W3C//DTD SVG 20010904//EN"
 "http://www.w3.org/TR/2001/REC-SVG-20010904/DTD/svg10.dtd">
<svg version="1.0" xmlns="http://www.w3.org/2000/svg"
 width="158pt" height="1000pt" viewBox="0 0 158 1000"
 preserveAspectRatio="xMidYMid meet">
<metadata>
Created by potrace 1.9, written by Peter Selinger 2001-2010
</metadata>
<g transform="translate(0,1000) scale(0.100000,-0.100000)"
fill="#000000" stroke="none">
<path d="M1240 8051 c-14 -5 -246 -119 -517 -254 -536 -269 -538 -270 -538
-352 0 -82 2 -83 545 -355 274 -137 516 -252 537 -255 74 -11 150 60 139 132
-10 68 -22 76 -433 281 l-393 197 391 195 c281 140 396 203 411 222 44 63 25
143 -43 180 -36 19 -58 21 -99 9z"/>
</g>
</svg>
