<?xml version="1.0" standalone="no"?>
<!DOCTYPE svg PUBLIC "-//W3C//DTD SVG 20010904//EN"
 "http://www.w3.org/TR/2001/REC-SVG-20010904/DTD/svg10.dtd">
<svg version="1.0" xmlns="http://www.w3.org/2000/svg"
 width="207pt" height="1000pt" viewBox="0 0 207 1000"
 preserveAspectRatio="xMidYMid meet">
<metadata>
Created by potrace 1.9, written by Peter Selinger 2001-2010
</metadata>
<g transform="translate(0,1000) scale(0.100000,-0.100000)"
fill="#000000" stroke="none">
<path d="M251 8042 c-36 -19 -71 -72 -71 -107 0 -35 35 -88 71 -107 29 -16 59
-18 226 -18 l193 0 0 -365 0 -365 -193 0 c-167 0 -197 -2 -226 -18 -36 -19
-71 -72 -71 -107 0 -35 35 -88 71 -107 31 -17 69 -18 544 -18 475 0 513 1 544
18 36 19 71 72 71 107 0 35 -35 88 -71 107 -29 16 -59 18 -226 18 l-193 0 0
365 0 365 193 0 c167 0 197 2 226 18 36 19 71 72 71 107 0 35 -35 88 -71 107
-31 17 -69 18 -544 18 -475 0 -513 -1 -544 -18z"/>
</g>
</svg>
