<?xml version="1.0" standalone="no"?>
<!DOCTYPE svg PUBLIC "-//W3C//DTD SVG 20010904//EN"
 "http://www.w3.org/TR/2001/REC-SVG-20010904/DTD/svg10.dtd">
<svg version="1.0" xmlns="http://www.w3.org/2000/svg"
 width="746pt" height="1000pt" viewBox="0 0 746 1000"
 preserveAspectRatio="xMidYMid meet">
<metadata>
Created by potrace 1.9, written by Peter Selinger 2001-2010
</metadata>
<g transform="translate(0,1000) scale(0.100000,-0.100000)"
fill="#000000" stroke="none">
<path d="M251 6082 c-19 -10 -43 -34 -53 -53 -17 -32 -18 -115 -18 -2014 0
-1899 1 -1982 18 -2014 10 -19 34 -43 53 -53 32 -17 84 -18 1034 -18 950 0
1002 1 1034 18 19 10 43 34 53 53 17 32 18 115 18 2014 0 1899 -1 1982 -18
2014 -10 19 -34 43 -53 53 -32 17 -84 18 -1034 18 -950 0 -1002 -1 -1034 -18z
m1889 -2067 l0 -1835 -855 0 -855 0 0 1835 0 1835 855 0 855 0 0 -1835z"/>
<path d="M5055 6094 c-172 -14 -419 -67 -575 -124 -565 -207 -1023 -665 -1230
-1230 -88 -241 -154 -660 -120 -766 10 -32 195 -223 994 -1023 967 -969 1021
-1020 1081 -1021 34 0 88 35 107 71 17 31 18 67 18 471 l0 438 438 0 c489 0
486 0 524 71 17 32 18 84 18 1034 0 950 -1 1002 -18 1034 -38 71 -35 71 -524
71 l-438 0 0 360 0 360 36 0 c95 0 309 -47 454 -100 264 -97 466 -227 670
-430 246 -246 402 -521 484 -850 32 -128 35 -147 50 -329 8 -88 19 -166 26
-178 45 -72 172 -69 212 5 18 34 14 225 -7 362 -71 458 -269 853 -585 1170
-378 377 -876 590 -1416 604 -82 2 -171 2 -199 0z m25 -614 l0 -360 -438 0
c-489 0 -486 0 -524 -71 -17 -32 -18 -79 -18 -874 l0 -840 -365 365 -365 365
6 75 c18 245 72 449 174 668 168 359 503 694 862 862 206 96 460 166 616 169
l52 1 0 -360z m0 -1465 l0 -855 -365 0 -365 0 0 855 0 855 365 0 365 0 0 -855z
m980 0 l0 -855 -365 0 -365 0 0 855 0 855 365 0 365 0 0 -855z m-980 -1380 c0
-151 -1 -275 -3 -275 -1 0 -126 124 -277 275 l-275 275 278 0 277 0 0 -275z"/>
</g>
</svg>
