<?xml version="1.0" standalone="no"?>
<!DOCTYPE svg PUBLIC "-//W3C//DTD SVG 20010904//EN"
 "http://www.w3.org/TR/2001/REC-SVG-20010904/DTD/svg10.dtd">
<svg version="1.0" xmlns="http://www.w3.org/2000/svg"
 width="942pt" height="1000pt" viewBox="0 0 942 1000"
 preserveAspectRatio="xMidYMid meet">
<metadata>
Created by potrace 1.9, written by Peter Selinger 2001-2010
</metadata>
<g transform="translate(0,1000) scale(0.100000,-0.100000)"
fill="#000000" stroke="none">
<path d="M1231 6082 c-71 -38 -71 -35 -71 -524 l0 -438 -438 0 c-489 0 -486 0
-524 -71 -23 -42 -23 -66 0 -108 38 -71 35 -71 524 -71 l438 0 0 -855 0 -855
-438 0 c-489 0 -486 0 -524 -71 -23 -42 -23 -66 0 -108 38 -71 35 -71 524 -71
l438 0 0 -438 c0 -489 0 -486 71 -524 42 -23 66 -23 108 0 71 38 71 35 71 524
l0 438 855 0 855 0 0 -438 c0 -489 0 -486 71 -524 42 -23 66 -23 108 0 71 38
71 35 71 524 l0 438 438 0 c489 0 486 0 524 71 23 42 23 66 0 108 -38 71 -35
71 -524 71 l-438 0 0 855 0 855 438 0 c489 0 486 0 524 71 23 42 23 66 0 108
-38 71 -35 71 -524 71 l-438 0 0 438 c0 404 -1 440 -18 471 -19 36 -72 71
-107 71 -35 0 -88 -35 -107 -71 -17 -31 -18 -67 -18 -471 l0 -438 -855 0 -855
0 0 438 c0 404 -1 440 -18 471 -19 36 -72 71 -107 71 -11 0 -36 -8 -54 -18z
m1889 -2067 l0 -855 -855 0 -855 0 0 855 0 855 855 0 855 0 0 -855z"/>
<path d="M5151 6082 c-19 -10 -43 -34 -53 -53 -17 -32 -18 -115 -18 -2014 0
-1899 1 -1982 18 -2014 19 -36 72 -71 107 -71 35 0 88 35 107 71 17 32 18 115
18 2014 0 1899 -1 1982 -18 2014 -19 36 -72 71 -107 71 -11 0 -36 -8 -54 -18z"/>
<path d="M9071 6082 c-19 -10 -43 -34 -53 -53 -17 -32 -18 -115 -18 -2014 0
-1899 1 -1982 18 -2014 19 -36 72 -71 107 -71 35 0 88 35 107 71 17 32 18 115
18 2014 0 1899 -1 1982 -18 2014 -19 36 -72 71 -107 71 -11 0 -36 -8 -54 -18z"/>
<path d="M7111 5102 c-19 -10 -43 -34 -53 -53 -17 -31 -18 -69 -18 -544 0
-475 1 -513 18 -544 19 -36 72 -71 107 -71 35 0 88 35 107 71 17 31 18 69 18
544 0 475 -1 513 -18 544 -19 36 -72 71 -107 71 -11 0 -36 -8 -54 -18z"/>
<path d="M7085 3643 c-144 -22 -261 -80 -355 -173 -116 -117 -173 -259 -173
-430 0 -168 57 -311 168 -425 118 -120 259 -177 435 -177 176 0 317 57 435
177 111 114 168 257 168 425 0 59 -6 120 -17 160 -55 202 -217 367 -415 422
-68 19 -194 30 -246 21z m220 -277 c71 -32 149 -111 183 -184 22 -48 27 -71
27 -142 0 -106 -29 -175 -105 -250 -75 -76 -144 -105 -250 -105 -106 0 -175
29 -250 105 -76 75 -105 144 -105 250 0 71 5 94 27 142 45 98 146 183 245 208
61 15 167 4 228 -24z"/>
</g>
</svg>
