<?xml version="1.0" standalone="no"?>
<!DOCTYPE svg PUBLIC "-//W3C//DTD SVG 20010904//EN"
 "http://www.w3.org/TR/2001/REC-SVG-20010904/DTD/svg10.dtd">
<svg version="1.0" xmlns="http://www.w3.org/2000/svg"
 width="942pt" height="1000pt" viewBox="0 0 942 1000"
 preserveAspectRatio="xMidYMid meet">
<metadata>
Created by potrace 1.9, written by Peter Selinger 2001-2010
</metadata>
<g transform="translate(0,1000) scale(0.100000,-0.100000)"
fill="#000000" stroke="none">
<path d="M7970 5104 c-270 -49 -508 -184 -674 -383 -113 -136 -208 -344 -237
-521 l-12 -70 -45 0 c-113 0 -401 -62 -562 -120 -276 -101 -539 -270 -750
-480 -366 -367 -576 -845 -605 -1380 -7 -132 5 -169 66 -202 32 -17 115 -18
2014 -18 1899 0 1982 1 2014 18 19 10 43 34 53 53 17 32 18 84 18 1023 0 834
-2 1005 -15 1095 -47 325 -181 574 -405 754 -240 191 -578 282 -860 231z m400
-269 c292 -94 493 -294 584 -583 14 -46 26 -90 26 -98 0 -12 -113 -14 -840
-14 -727 0 -840 2 -840 14 0 8 12 52 26 98 89 281 290 486 565 577 106 35 147
40 274 37 97 -3 136 -9 205 -31z m630 -1800 l0 -855 -1830 0 -1830 0 0 41 c0
193 115 553 246 772 146 242 399 495 641 641 226 135 528 230 793 249 25 2
480 4 1013 5 l967 2 0 -855z"/>
<path d="M251 4122 c-19 -10 -43 -34 -53 -53 -17 -32 -18 -84 -18 -1034 0
-950 1 -1002 18 -1034 19 -36 72 -71 107 -71 35 0 88 35 107 71 17 32 18 82
18 961 l0 928 1835 0 1835 0 0 -928 c0 -879 1 -929 18 -961 19 -36 72 -71 107
-71 35 0 88 35 107 71 17 32 18 84 18 1034 0 950 -1 1002 -18 1034 -10 19 -34
43 -53 53 -32 17 -115 18 -2014 18 -1899 0 -1982 -1 -2014 -18z"/>
</g>
</svg>
