<?xml version="1.0" standalone="no"?>
<!DOCTYPE svg PUBLIC "-//W3C//DTD SVG 20010904//EN"
 "http://www.w3.org/TR/2001/REC-SVG-20010904/DTD/svg10.dtd">
<svg version="1.0" xmlns="http://www.w3.org/2000/svg"
 width="1236pt" height="1000pt" viewBox="0 0 1236 1000"
 preserveAspectRatio="xMidYMid meet">
<metadata>
Created by potrace 1.9, written by Peter Selinger 2001-2010
</metadata>
<g transform="translate(0,1000) scale(0.100000,-0.100000)"
fill="#000000" stroke="none">
<path d="M1160 2664 c-14 -2 -59 -9 -100 -15 -220 -31 -402 -100 -597 -225
-150 -97 -271 -203 -305 -268 -49 -95 25 -201 128 -182 26 5 58 28 113 79 118
111 206 173 326 232 208 101 330 129 555 129 217 0 340 -27 537 -119 100 -47
153 -81 253 -161 55 -44 67 -60 78 -99 14 -53 63 -104 187 -194 233 -169 474
-262 759 -291 378 -39 790 84 1089 325 l67 55 1956 0 c1765 0 1959 2 1989 16
42 19 64 52 73 107 7 37 16 49 89 107 134 108 322 195 509 236 110 24 388 24
498 0 177 -39 361 -122 491 -221 91 -69 120 -101 135 -149 29 -90 294 -283
514 -372 461 -188 991 -134 1410 143 100 67 215 165 240 205 9 14 16 47 16 72
0 39 -5 51 -35 81 -30 30 -42 35 -81 35 -48 0 -104 -30 -154 -85 -106 -114
-365 -245 -575 -291 -98 -21 -377 -24 -475 -5 -173 34 -372 120 -505 219 -67
49 -83 66 -93 99 -9 31 -35 63 -105 130 -150 143 -346 262 -537 327 -333 111
-657 111 -990 0 -188 -64 -385 -183 -531 -321 l-87 -84 -1921 1 c-1394 1
-1926 -2 -1941 -10 -12 -6 -50 -38 -86 -70 -116 -105 -227 -171 -394 -233
-152 -57 -233 -70 -420 -70 -229 -1 -357 27 -555 123 -111 54 -265 161 -265
185 0 66 -131 195 -323 319 -189 121 -341 180 -572 222 -80 15 -318 27 -365
18z"/>
</g>
</svg>
