<?xml version="1.0" standalone="no"?>
<!DOCTYPE svg PUBLIC "-//W3C//DTD SVG 20010904//EN"
 "http://www.w3.org/TR/2001/REC-SVG-20010904/DTD/svg10.dtd">
<svg version="1.0" xmlns="http://www.w3.org/2000/svg"
 width="942pt" height="1000pt" viewBox="0 0 942 1000"
 preserveAspectRatio="xMidYMid meet">
<metadata>
Created by potrace 1.9, written by Peter Selinger 2001-2010
</metadata>
<g transform="translate(0,1000) scale(0.100000,-0.100000)"
fill="#000000" stroke="none">
<path d="M2212 8044 c-18 -9 -41 -29 -51 -43 -10 -14 -229 -447 -486 -961
-257 -514 -468 -936 -470 -938 -1 -1 -42 -9 -90 -18 -363 -63 -653 -273 -808
-585 -92 -185 -144 -413 -119 -522 7 -28 21 -99 31 -157 26 -144 68 -332 91
-409 l19 -64 -69 -137 c-80 -159 -89 -193 -65 -243 28 -60 56 -71 183 -77
l112 -5 55 -116 c56 -119 156 -304 215 -397 l34 -54 -302 -604 c-166 -332
-304 -620 -307 -641 -8 -49 19 -100 66 -125 32 -17 115 -18 2014 -18 1899 0
1982 1 2014 18 37 20 71 72 71 109 0 12 -138 298 -306 635 -296 592 -306 614
-291 638 8 14 38 63 66 110 29 47 93 167 143 268 l92 182 95 0 c74 0 104 4
130 18 36 20 71 72 71 108 0 12 -32 86 -71 165 l-71 144 16 60 c58 208 127
584 119 645 -27 216 -62 341 -135 482 -156 299 -446 511 -778 567 -36 6 -75
14 -88 16 -18 5 -105 172 -501 964 -363 726 -486 962 -506 975 -39 25 -85 29
-123 10z m446 -1180 l390 -780 -96 -27 c-123 -34 -305 -124 -389 -194 -36 -29
-68 -53 -72 -53 -4 0 -34 54 -66 121 -67 136 -95 164 -160 164 -66 0 -96 -30
-167 -170 l-63 -124 -75 60 c-92 73 -265 161 -384 194 -50 14 -91 27 -93 29
-2 2 172 356 387 786 215 430 393 781 394 779 2 -2 179 -355 394 -785z m-1143
-1052 c144 -44 282 -128 375 -227 l24 -26 -354 -710 -355 -709 -274 2 -274 3
-30 88 -31 89 382 763 381 764 38 -6 c21 -3 74 -17 118 -31z m2037 -735 l386
-774 -28 -79 -28 -79 -281 -3 -281 -2 -356 711 -355 711 23 25 c121 129 348
243 523 262 6 1 184 -347 397 -772z m-2772 173 c-155 -309 -283 -561 -285
-559 -2 2 -17 89 -34 192 -27 163 -30 197 -21 247 56 308 277 571 565 670 28
10 51 16 53 15 2 -2 -123 -256 -278 -565z m2855 497 c137 -69 288 -222 358
-362 93 -187 115 -345 77 -561 -12 -71 -25 -134 -29 -141 -3 -7 -135 245 -293
562 l-287 574 52 -18 c29 -10 84 -34 122 -54z m-1346 -201 c-13 -25 -26 -46
-29 -46 -3 0 -15 20 -28 44 l-24 44 28 53 27 54 25 -52 25 -52 -24 -45z m1128
-2265 c-67 -97 -231 -293 -343 -410 -227 -237 -505 -461 -767 -620 l-37 -23
-48 28 c-87 50 -266 176 -387 272 -226 180 -575 549 -722 763 l-31 44 493 985
c456 910 494 983 504 958 25 -66 42 -140 50 -229 5 -53 15 -106 22 -117 43
-69 175 -69 218 0 7 12 17 65 22 119 5 55 21 136 35 182 l26 82 498 -995 498
-995 -31 -44z m-2414 455 l-77 -155 -20 32 c-24 41 -136 262 -136 270 0 4 70
7 155 7 l155 0 -77 -154z m2767 149 c0 -8 -64 -135 -118 -234 l-45 -84 -78
154 c-43 85 -78 157 -78 162 -1 4 71 7 159 7 88 0 160 -2 160 -5z m-2709 -940
c185 -233 463 -502 707 -684 l102 -76 -677 -3 c-372 -1 -678 0 -680 2 -2 2 96
204 219 449 122 245 223 445 224 444 1 -1 48 -60 105 -132z m2738 -322 l221
-443 -682 0 -683 0 40 27 c241 163 589 491 787 744 51 65 94 117 94 116 1 -1
101 -201 223 -444z"/>
<path d="M7105 6087 c-63 -29 -89 -121 -51 -179 10 -15 68 -70 129 -122 349
-294 605 -686 732 -1119 122 -419 122 -875 0 -1294 -127 -433 -383 -825 -732
-1119 -61 -52 -119 -107 -129 -122 -24 -37 -22 -102 5 -140 32 -45 75 -55 200
-47 537 34 1007 241 1371 605 392 392 604 908 604 1470 0 562 -212 1078 -604
1470 -367 366 -850 578 -1380 605 -87 4 -122 2 -145 -8z m530 -301 c296 -75
579 -241 815 -476 246 -246 401 -519 485 -850 39 -155 49 -245 49 -440 0 -195
-10 -285 -49 -440 -84 -331 -239 -604 -485 -850 -204 -203 -406 -333 -670
-430 -89 -32 -232 -72 -238 -65 -2 1 25 34 61 72 155 166 343 462 445 701 154
358 228 787 203 1165 -28 410 -145 797 -341 1133 -90 153 -216 331 -294 414
-29 30 -59 64 -67 74 -13 17 -12 18 6 13 11 -3 47 -13 80 -21z"/>
<path d="M5641 5102 c-70 -37 -71 -45 -71 -436 l0 -350 -152 151 c-125 124
-160 153 -190 158 -64 12 -127 -31 -143 -98 -15 -59 10 -95 221 -307 l204
-205 -200 -200 c-209 -209 -240 -252 -226 -311 17 -68 80 -111 144 -99 30 5
65 34 190 158 l152 151 0 -350 c0 -391 1 -399 71 -436 42 -23 66 -23 108 0 70
37 71 46 71 431 l0 345 143 -141 c149 -147 187 -171 247 -158 39 8 87 56 95
95 13 60 -8 88 -225 305 l-210 210 214 215 c180 180 216 221 221 252 12 64
-31 127 -98 143 -55 14 -97 -13 -244 -158 l-143 -141 0 345 c0 314 -2 347 -18
378 -19 36 -72 71 -107 71 -11 0 -36 -8 -54 -18z"/>
</g>
</svg>
