<?xml version="1.0" standalone="no"?>
<!DOCTYPE svg PUBLIC "-//W3C//DTD SVG 20010904//EN"
 "http://www.w3.org/TR/2001/REC-SVG-20010904/DTD/svg10.dtd">
<svg version="1.0" xmlns="http://www.w3.org/2000/svg"
 width="1236pt" height="1000pt" viewBox="0 0 1236 1000"
 preserveAspectRatio="xMidYMid meet">
<metadata>
Created by potrace 1.9, written by Peter Selinger 2001-2010
</metadata>
<g transform="translate(0,1000) scale(0.100000,-0.100000)"
fill="#000000" stroke="none">
<path d="M265 6092 c-33 -12 -51 -26 -68 -53 -16 -24 -17 -178 -17 -2019 0
-1982 0 -1993 20 -2025 11 -18 36 -40 54 -49 37 -17 86 -14 341 20 615 84
1154 439 1481 974 199 327 298 686 298 1080 0 562 -212 1078 -604 1470 -316
315 -715 515 -1165 584 -118 18 -312 28 -340 18z m308 -263 c215 -32 478 -126
660 -235 242 -146 495 -399 641 -641 110 -184 201 -440 237 -668 16 -103 16
-427 0 -530 -36 -228 -127 -484 -237 -668 -146 -242 -399 -495 -641 -641 -216
-129 -579 -246 -767 -246 l-36 0 0 1820 0 1820 36 0 c19 0 68 -5 107 -11z"/>
<path d="M5151 6082 c-19 -10 -43 -34 -53 -53 -17 -32 -18 -113 -18 -1941 l0
-1908 -928 0 c-879 0 -929 -1 -961 -18 -36 -19 -71 -72 -71 -107 0 -35 35 -88
71 -107 32 -17 115 -18 2014 -18 1899 0 1982 1 2014 18 36 19 71 72 71 107 0
35 -35 88 -71 107 -32 17 -82 18 -961 18 l-928 0 0 855 0 855 928 0 c879 0
929 1 961 18 19 10 43 34 53 53 17 32 18 84 18 1034 0 950 -1 1002 -18 1034
-10 19 -34 43 -53 53 -32 17 -84 18 -1034 18 -950 0 -1002 -1 -1034 -18z
m1889 -1087 l0 -855 -855 0 -855 0 0 855 0 855 855 0 855 0 0 -855z"/>
<path d="M10051 6083 c-19 -9 -46 -36 -60 -59 -14 -23 -123 -236 -241 -473
l-215 -431 -705 0 c-664 0 -707 -1 -739 -18 -47 -25 -74 -76 -66 -125 3 -21
164 -356 359 -745 l354 -707 -354 -707 c-195 -389 -356 -724 -359 -745 -8 -49
19 -100 66 -125 32 -17 75 -18 739 -18 l705 0 232 -464 c254 -507 257 -511
338 -511 78 1 79 2 331 507 l234 468 708 0 c666 0 709 1 741 18 37 20 71 72
71 109 0 12 -163 348 -361 745 l-361 723 361 725 c199 399 362 734 361 745 0
35 -35 88 -71 107 -32 17 -75 18 -741 18 l-708 0 -234 468 c-173 347 -241 473
-261 486 -39 26 -85 29 -124 9z m56 -961 c-154 -1 -282 0 -284 2 -2 2 60 131
138 287 l142 284 142 -285 143 -285 -281 -3z m-963 -784 l-266 -533 -264 525
c-144 289 -263 528 -263 533 -1 4 238 7 529 7 l530 0 -266 -532z m1707 -140
l336 -673 -336 -672 -336 -673 -412 0 -413 0 -336 672 -336 673 336 672 336
673 413 0 412 0 336 -672z m743 140 l-266 -533 -264 525 c-144 289 -263 528
-263 533 -1 4 238 7 529 7 l530 0 -266 -532z m-2449 -1628 l265 -530 -530 0
c-291 0 -530 2 -530 5 0 7 524 1055 527 1055 2 0 122 -238 268 -530z m2450 0
l265 -530 -530 0 c-291 0 -530 2 -530 5 0 7 524 1055 527 1055 2 0 122 -238
268 -530z m-1346 -1062 c-78 -156 -143 -285 -145 -287 -3 -3 -284 554 -284
564 0 3 128 5 285 5 l285 0 -141 -282z"/>
</g>
</svg>
