<?xml version="1.0" standalone="no"?>
<!DOCTYPE svg PUBLIC "-//W3C//DTD SVG 20010904//EN"
 "http://www.w3.org/TR/2001/REC-SVG-20010904/DTD/svg10.dtd">
<svg version="1.0" xmlns="http://www.w3.org/2000/svg"
 width="1138pt" height="1000pt" viewBox="0 0 1138 1000"
 preserveAspectRatio="xMidYMid meet">
<metadata>
Created by potrace 1.9, written by Peter Selinger 2001-2010
</metadata>
<g transform="translate(0,1000) scale(0.100000,-0.100000)"
fill="#000000" stroke="none">
<path d="M1231 6082 c-19 -10 -43 -34 -53 -53 -17 -32 -18 -113 -18 -1941 l0
-1908 -438 0 c-404 0 -440 -1 -471 -18 -36 -19 -71 -72 -71 -107 0 -35 35 -88
71 -107 32 -17 84 -18 1034 -18 950 0 1002 1 1034 18 36 19 71 72 71 107 0 35
-35 88 -71 107 -31 17 -67 18 -471 18 l-438 0 0 1908 c0 1828 -1 1909 -18
1941 -19 36 -72 71 -107 71 -11 0 -36 -8 -54 -18z"/>
<path d="M5152 6083 c-18 -9 -41 -28 -51 -42 -41 -58 -1971 -3933 -1976 -3968
-16 -104 101 -175 190 -117 20 13 230 424 895 1753 l869 1736 0 -1632 1 -1633
-438 0 c-404 0 -440 -1 -471 -18 -36 -19 -71 -72 -71 -107 0 -35 35 -88 71
-107 32 -17 84 -18 1034 -18 950 0 1002 1 1034 18 36 19 71 72 71 107 0 35
-35 88 -71 107 -31 17 -67 18 -471 18 l-438 0 0 1908 c0 1828 -1 1909 -18
1941 -19 36 -73 71 -107 71 -11 0 -35 -8 -53 -17z"/>
<path d="M9065 6081 c-57 -27 -1988 -1962 -2010 -2013 -13 -33 -15 -161 -15
-1035 0 -948 1 -1000 18 -1032 10 -19 34 -43 53 -53 32 -17 115 -18 2014 -18
1899 0 1982 1 2014 18 19 10 43 34 53 53 17 32 18 84 18 1032 0 834 -2 1003
-14 1030 -18 42 -1991 2013 -2029 2027 -39 14 -56 13 -102 -9z m977 -1208
l918 -918 0 -887 0 -888 -1835 0 -1835 0 0 892 0 893 912 912 c502 502 915
913 918 913 3 0 418 -413 922 -917z"/>
</g>
</svg>
