<?xml version="1.0" standalone="no"?>
<!DOCTYPE svg PUBLIC "-//W3C//DTD SVG 20010904//EN"
 "http://www.w3.org/TR/2001/REC-SVG-20010904/DTD/svg10.dtd">
<svg version="1.0" xmlns="http://www.w3.org/2000/svg"
 width="550pt" height="1000pt" viewBox="0 0 550 1000"
 preserveAspectRatio="xMidYMid meet">
<metadata>
Created by potrace 1.9, written by Peter Selinger 2001-2010
</metadata>
<g transform="translate(0,1000) scale(0.100000,-0.100000)"
fill="#000000" stroke="none">
<path d="M2115 4134 c-684 -55 -1279 -418 -1631 -994 -148 -244 -240 -508
-280 -800 -12 -88 -24 -139 -42 -174 -27 -54 -26 -113 2 -145 14 -16 16 -73
16 -492 0 -440 1 -477 18 -508 19 -36 72 -71 107 -71 35 0 88 35 107 71 17 31
18 69 18 550 l0 515 63 50 c169 135 340 216 547 261 117 24 363 24 480 0 210
-45 380 -127 553 -265 l67 -54 0 -512 c0 -476 1 -514 18 -545 19 -36 72 -71
107 -71 35 0 88 35 107 71 16 31 18 65 18 406 l0 373 76 -47 c227 -137 481
-206 764 -207 283 -1 534 66 766 203 l99 59 5 -387 c5 -351 7 -388 23 -413 19
-28 73 -58 104 -58 33 0 86 36 105 71 17 31 18 68 18 524 0 477 -4 579 -36
810 -85 616 -439 1154 -974 1481 -234 142 -489 233 -776 278 -102 16 -357 27
-449 20z m418 -265 c215 -32 478 -126 660 -235 242 -146 495 -399 641 -641
112 -188 208 -460 235 -668 24 -186 24 -189 -17 -227 -132 -125 -357 -238
-567 -284 -98 -21 -377 -24 -475 -5 -104 20 -218 59 -325 111 -111 54 -265
161 -265 185 0 108 -339 365 -615 468 -165 62 -338 92 -525 92 -187 0 -360
-31 -525 -92 -75 -28 -200 -89 -252 -124 -18 -11 -33 -18 -33 -14 0 20 43 171
70 245 97 264 227 466 430 670 318 317 699 495 1150 534 73 6 334 -3 413 -15z"/>
</g>
</svg>
