<?xml version="1.0" standalone="no"?>
<!DOCTYPE svg PUBLIC "-//W3C//DTD SVG 20010904//EN"
 "http://www.w3.org/TR/2001/REC-SVG-20010904/DTD/svg10.dtd">
<svg version="1.0" xmlns="http://www.w3.org/2000/svg"
 width="550pt" height="1000pt" viewBox="0 0 550 1000"
 preserveAspectRatio="xMidYMid meet">
<metadata>
Created by potrace 1.9, written by Peter Selinger 2001-2010
</metadata>
<g transform="translate(0,1000) scale(0.100000,-0.100000)"
fill="#000000" stroke="none">
<path d="M3095 4134 c-172 -14 -419 -67 -575 -124 -565 -207 -1023 -665 -1230
-1230 -32 -89 -84 -283 -95 -360 -3 -25 -9 -53 -12 -64 -4 -15 -91 67 -412
387 -445 444 -437 439 -514 402 -61 -29 -87 -88 -67 -152 17 -53 973 -1015
1039 -1045 88 -40 61 -62 629 505 358 358 515 522 523 544 6 18 8 47 4 63 -8
39 -56 87 -95 95 -69 15 -86 1 -479 -389 -205 -204 -371 -362 -368 -351 4 11
15 56 26 100 80 316 240 593 481 835 246 246 519 401 850 485 155 39 245 49
440 49 195 0 285 -10 440 -49 331 -84 604 -239 850 -485 246 -246 402 -521
484 -850 32 -128 35 -147 50 -329 8 -88 19 -166 26 -178 45 -72 172 -69 212 5
18 34 14 225 -7 362 -71 458 -269 853 -585 1170 -378 377 -876 590 -1416 604
-82 2 -171 2 -199 0z"/>
</g>
</svg>
