<?xml version="1.0" standalone="no"?>
<!DOCTYPE svg PUBLIC "-//W3C//DTD SVG 20010904//EN"
 "http://www.w3.org/TR/2001/REC-SVG-20010904/DTD/svg10.dtd">
<svg version="1.0" xmlns="http://www.w3.org/2000/svg"
 width="1138pt" height="1000pt" viewBox="0 0 1138 1000"
 preserveAspectRatio="xMidYMid meet">
<metadata>
Created by potrace 1.9, written by Peter Selinger 2001-2010
</metadata>
<g transform="translate(0,1000) scale(0.100000,-0.100000)"
fill="#000000" stroke="none">
<path d="M2211 6082 c-71 -38 -71 -35 -71 -524 l0 -438 -438 0 c-489 0 -486 0
-524 -71 -17 -32 -18 -79 -18 -874 l0 -840 -398 397 c-342 342 -402 398 -434
403 -64 12 -127 -31 -143 -98 -18 -68 -31 -53 999 -1086 967 -969 1021 -1020
1081 -1021 34 0 88 35 107 71 17 31 18 67 18 471 l0 438 438 0 c489 0 486 0
524 71 17 32 18 84 18 1034 0 950 -1 1002 -18 1034 -38 71 -35 71 -524 71
l-438 0 0 438 c0 404 -1 440 -18 471 -19 36 -72 71 -107 71 -11 0 -36 -8 -54
-18z m-71 -2067 l0 -855 -365 0 -365 0 0 855 0 855 365 0 365 0 0 -855z m980
0 l0 -855 -365 0 -365 0 0 855 0 855 365 0 365 0 0 -855z m-980 -1380 c0 -151
-1 -275 -3 -275 -1 0 -126 124 -277 275 l-275 275 278 0 277 0 0 -275z"/>
<path d="M9071 6082 c-36 -19 -71 -72 -71 -107 0 -35 35 -88 71 -107 31 -17
67 -18 471 -18 l438 0 0 -1835 0 -1835 -438 0 c-404 0 -440 -1 -471 -18 -36
-19 -71 -72 -71 -107 0 -35 35 -88 71 -107 32 -17 84 -18 1034 -18 950 0 1002
1 1034 18 36 19 71 72 71 107 0 35 -35 88 -71 107 -31 17 -67 18 -471 18
l-438 0 0 1835 0 1835 438 0 c404 0 440 1 471 18 36 19 71 72 71 107 0 35 -35
88 -71 107 -32 17 -84 18 -1034 18 -950 0 -1002 -1 -1034 -18z"/>
<path d="M5870 3030 l0 -970 115 0 115 0 0 92 0 91 35 -45 c67 -85 164 -140
282 -158 282 -44 560 160 638 467 42 168 40 400 -6 551 -87 284 -282 436 -554
435 -148 -1 -245 -42 -345 -146 l-40 -41 0 347 0 347 -120 0 -120 0 0 -970z
m725 249 c33 -12 77 -41 110 -71 99 -91 145 -228 145 -438 0 -210 -40 -332
-144 -436 -82 -82 -148 -108 -261 -102 -60 4 -92 11 -130 30 -62 32 -149 123
-176 183 -31 71 -49 186 -49 318 0 211 39 327 144 433 43 42 78 67 116 82 74
28 171 29 245 1z"/>
<path d="M4865 3489 c-162 -17 -321 -87 -392 -173 -37 -45 -75 -122 -96 -192
l-15 -51 119 -15 c80 -9 119 -11 119 -3 0 5 13 37 29 71 64 135 157 179 361
172 110 -4 122 -6 186 -39 103 -51 138 -116 132 -247 l-3 -67 -84 -22 c-46
-12 -181 -36 -300 -53 -250 -35 -272 -40 -364 -87 -289 -145 -300 -551 -20
-691 84 -42 154 -56 278 -56 178 1 313 49 449 160 60 48 60 48 71 -20 4 -22
13 -57 22 -78 l15 -38 114 0 c63 0 114 2 114 5 0 2 -12 40 -27 82 l-27 78 -7
475 c-5 393 -9 484 -22 525 -50 158 -177 241 -399 265 -105 11 -140 11 -253
-1z m445 -821 c0 -197 -57 -307 -201 -391 -99 -58 -279 -75 -382 -37 -57 21
-119 77 -136 123 -18 47 -13 119 12 167 43 86 116 115 399 159 75 12 171 32
215 45 43 13 81 24 86 25 4 0 7 -41 7 -91z"/>
<path d="M7810 3491 c-199 -29 -357 -133 -438 -289 -78 -150 -113 -352 -93
-548 17 -172 48 -267 120 -372 95 -139 235 -220 419 -242 321 -39 574 128 651
433 17 66 18 72 2 75 -9 1 -62 8 -118 15 l-101 13 -6 -38 c-19 -116 -94 -226
-190 -276 -46 -24 -61 -27 -156 -27 -126 0 -172 17 -254 95 -96 91 -136 218
-136 435 0 246 54 386 184 474 92 63 226 79 330 40 70 -26 146 -106 175 -184
12 -31 21 -59 21 -63 0 -5 53 -1 119 6 l118 15 -14 55 c-47 180 -184 321 -354
366 -71 18 -209 26 -279 17z"/>
</g>
</svg>
