<?xml version="1.0" standalone="no"?>
<!DOCTYPE svg PUBLIC "-//W3C//DTD SVG 20010904//EN"
 "http://www.w3.org/TR/2001/REC-SVG-20010904/DTD/svg10.dtd">
<svg version="1.0" xmlns="http://www.w3.org/2000/svg"
 width="354pt" height="1000pt" viewBox="0 0 354 1000"
 preserveAspectRatio="xMidYMid meet">
<metadata>
Created by potrace 1.9, written by Peter Selinger 2001-2010
</metadata>
<g transform="translate(0,1000) scale(0.100000,-0.100000)"
fill="#000000" stroke="none">
<path d="M2115 6093 c-92 -6 -259 -34 -375 -63 -524 -132 -971 -463 -1256
-931 -199 -326 -298 -686 -298 -1079 0 -204 15 -323 64 -520 165 -656 654
-1197 1290 -1430 279 -102 668 -153 879 -116 496 88 839 430 925 922 73 415
-147 888 -511 1097 -40 23 -72 44 -72 47 0 3 32 24 72 47 263 151 453 437 511
769 20 113 20 215 0 328 -63 360 -264 644 -572 804 -206 107 -394 142 -657
125z m375 -278 c293 -94 488 -289 586 -585 25 -77 28 -98 28 -230 0 -132 -3
-153 -28 -230 -59 -179 -144 -307 -281 -422 -127 -108 -305 -180 -484 -197
-54 -5 -107 -15 -119 -22 -52 -32 -70 -120 -37 -176 26 -45 49 -54 156 -64
179 -17 357 -89 484 -197 137 -115 222 -243 281 -422 25 -77 28 -98 28 -230 0
-132 -3 -153 -28 -230 -61 -183 -152 -317 -292 -431 -80 -65 -174 -115 -294
-155 -80 -27 -94 -28 -250 -28 -91 1 -201 6 -245 13 -225 35 -483 126 -668
237 -240 145 -495 400 -640 641 -111 184 -202 440 -238 668 -16 103 -16 427 0
530 27 174 84 358 161 523 168 358 504 694 862 862 272 127 525 182 813 175
98 -2 135 -8 205 -30z"/>
</g>
</svg>
