<?xml version="1.0" standalone="no"?>
<!DOCTYPE svg PUBLIC "-//W3C//DTD SVG 20010904//EN"
 "http://www.w3.org/TR/2001/REC-SVG-20010904/DTD/svg10.dtd">
<svg version="1.0" xmlns="http://www.w3.org/2000/svg"
 width="746pt" height="1000pt" viewBox="0 0 746 1000"
 preserveAspectRatio="xMidYMid meet">
<metadata>
Created by potrace 1.9, written by Peter Selinger 2001-2010
</metadata>
<g transform="translate(0,1000) scale(0.100000,-0.100000)"
fill="#000000" stroke="none">
<path d="M1232 8044 c-18 -9 -41 -29 -51 -43 -40 -56 -501 -992 -506 -1028
-11 -74 61 -150 132 -139 68 10 76 22 280 430 l195 391 193 -385 c200 -398
216 -423 282 -436 39 -7 95 18 118 53 41 62 45 53 -233 609 -194 389 -267 525
-287 538 -39 25 -85 29 -123 10z"/>
<path d="M251 6082 c-19 -10 -43 -34 -53 -53 -17 -32 -18 -115 -18 -2014 0
-1904 1 -1982 18 -2015 25 -46 81 -74 130 -65 33 6 150 119 1040 1008 711 711
1005 1011 1013 1035 24 74 64 31 -999 1096 -583 584 -1010 1004 -1029 1012
-43 18 -61 18 -102 -4z m1007 -1245 l822 -822 -825 -825 -825 -825 0 1648 c0
906 1 1647 3 1647 1 0 372 -370 825 -823z"/>
<path d="M5055 6094 c-684 -55 -1279 -418 -1631 -994 -199 -327 -298 -686
-298 -1080 0 -477 143 -896 436 -1279 l80 -104 -250 -251 c-259 -261 -283
-292 -267 -353 16 -67 79 -110 143 -98 31 5 77 46 298 266 231 230 262 258
274 244 21 -26 206 -157 302 -214 280 -167 549 -247 968 -289 97 -10 166 -6
385 24 615 85 1155 440 1481 975 199 326 298 686 298 1079 0 475 -143 896
-434 1276 l-78 102 254 253 c262 262 282 288 269 349 -8 39 -56 87 -95 95 -66
15 -93 -5 -357 -268 l-253 -251 -27 26 c-46 42 -174 133 -274 194 -233 142
-488 233 -775 278 -102 16 -357 27 -449 20z m25 -1137 l0 -882 -628 -628 -628
-628 -20 23 c-39 43 -140 183 -178 245 -110 184 -201 440 -237 668 -7 44 -13
163 -13 265 0 102 6 221 13 265 36 228 127 484 237 668 146 242 399 495 641
641 218 130 561 241 761 245 l52 1 0 -883z m393 872 c215 -32 478 -126 660
-235 71 -43 236 -163 254 -185 10 -13 -77 -104 -522 -549 l-535 -535 0 758 0
757 36 0 c19 0 68 -5 107 -11z m1190 -716 c152 -203 250 -407 312 -653 39
-155 49 -245 49 -440 0 -195 -10 -285 -49 -440 -84 -332 -244 -610 -494 -859
-197 -196 -401 -325 -661 -421 -145 -53 -359 -100 -454 -100 l-36 0 0 882 0
883 622 622 c343 343 626 623 630 623 4 0 40 -44 81 -97z m-1583 -2158 l0
-755 -41 0 c-193 0 -553 115 -772 246 -73 44 -242 167 -252 184 -5 8 182 202
526 546 294 294 535 534 536 534 2 0 3 -340 3 -755z"/>
</g>
</svg>
