<?xml version="1.0" standalone="no"?>
<!DOCTYPE svg PUBLIC "-//W3C//DTD SVG 20010904//EN"
 "http://www.w3.org/TR/2001/REC-SVG-20010904/DTD/svg10.dtd">
<svg version="1.0" xmlns="http://www.w3.org/2000/svg"
 width="844pt" height="1000pt" viewBox="0 0 844 1000"
 preserveAspectRatio="xMidYMid meet">
<metadata>
Created by potrace 1.9, written by Peter Selinger 2001-2010
</metadata>
<g transform="translate(0,1000) scale(0.100000,-0.100000)"
fill="#000000" stroke="none">
<path d="M2211 6082 c-72 -38 -71 -35 -71 -528 l0 -442 -66 -11 c-176 -31
-381 -125 -515 -237 -290 -242 -446 -650 -384 -1003 49 -279 185 -523 384
-685 138 -113 340 -206 514 -236 l67 -12 0 -286 0 -287 -888 887 c-971 970
-915 921 -995 883 -61 -29 -87 -88 -67 -152 10 -31 202 -228 994 -1022 967
-969 1021 -1020 1081 -1021 34 0 88 35 107 71 17 31 18 67 18 481 l0 447 38 6
c192 32 399 127 549 254 275 233 429 645 368 990 -78 447 -373 780 -790 895
-49 13 -107 27 -127 31 l-38 6 0 442 c0 409 -1 445 -18 476 -19 36 -72 71
-107 71 -11 0 -36 -8 -54 -18z m-71 -2062 c0 -727 -2 -840 -14 -840 -33 0
-186 54 -257 91 -144 75 -291 222 -362 364 -19 39 -48 111 -63 160 -26 82 -29
103 -28 230 0 126 3 149 28 225 16 47 44 117 63 155 70 140 221 293 358 363
71 36 225 91 258 92 16 0 17 -47 17 -840z m352 814 c173 -54 316 -151 429
-290 68 -83 117 -178 155 -299 26 -80 29 -104 29 -225 0 -121 -3 -145 -29
-225 -93 -295 -295 -498 -584 -589 -46 -14 -87 -26 -93 -26 -5 0 -9 317 -9
840 0 523 4 840 9 840 6 0 47 -12 93 -26z"/>
<path d="M5027 6084 c-487 -92 -826 -436 -912 -925 -62 -352 98 -769 384
-1003 147 -121 340 -206 542 -241 l94 -16 432 -432 433 -432 -449 -450 c-468
-470 -483 -487 -466 -552 16 -67 79 -110 143 -98 32 5 98 68 494 463 l458 457
452 -452 c473 -470 490 -485 555 -468 67 16 110 79 98 143 -5 32 -68 99 -466
497 l-459 460 433 432 432 432 94 16 c430 74 759 353 884 751 34 108 57 242
57 334 0 41 -7 115 -16 164 -86 494 -432 837 -930 922 -102 17 -187 15 -222
-7 -70 -43 -69 -165 0 -208 12 -7 65 -17 119 -22 179 -17 357 -89 484 -197
137 -115 222 -243 281 -422 25 -77 28 -98 28 -230 0 -132 -3 -153 -28 -230
-59 -179 -144 -307 -281 -422 -127 -108 -305 -180 -486 -197 -55 -5 -104 -12
-107 -16 -4 -3 -213 -211 -464 -463 l-458 -457 -457 457 c-252 252 -461 460
-465 463 -3 4 -52 11 -107 16 -245 23 -459 137 -612 325 -68 83 -117 178 -155
299 -26 80 -29 104 -29 225 0 121 3 145 29 225 38 121 87 216 155 299 152 188
367 302 610 325 54 5 107 15 119 22 69 43 68 165 -2 209 -30 19 -149 21 -239
4z"/>
</g>
</svg>
