<?xml version="1.0" standalone="no"?>
<!DOCTYPE svg PUBLIC "-//W3C//DTD SVG 20010904//EN"
 "http://www.w3.org/TR/2001/REC-SVG-20010904/DTD/svg10.dtd">
<svg version="1.0" xmlns="http://www.w3.org/2000/svg"
 width="746pt" height="1000pt" viewBox="0 0 746 1000"
 preserveAspectRatio="xMidYMid meet">
<metadata>
Created by potrace 1.9, written by Peter Selinger 2001-2010
</metadata>
<g transform="translate(0,1000) scale(0.100000,-0.100000)"
fill="#000000" stroke="none">
<path d="M1232 8044 c-18 -9 -41 -29 -51 -43 -40 -56 -501 -992 -506 -1028
-11 -74 61 -150 132 -139 68 10 76 22 280 430 l195 391 193 -385 c200 -398
216 -423 282 -436 39 -7 95 18 118 53 41 62 45 53 -233 609 -194 389 -267 525
-287 538 -39 25 -85 29 -123 10z"/>
<path d="M1232 6084 c-18 -9 -41 -29 -51 -43 -10 -14 -239 -465 -507 -1001
l-489 -975 -3 -1015 c-2 -970 -1 -1017 16 -1049 10 -19 34 -43 53 -53 32 -17
84 -18 1034 -18 950 0 1002 1 1034 18 19 10 43 34 53 53 17 32 18 84 18 1036
l0 1003 -504 1008 c-383 767 -511 1013 -531 1026 -39 25 -85 29 -123 10z m55
-1942 c-424 -1 -772 0 -774 2 -2 2 170 352 383 777 l387 774 387 -775 388
-775 -771 -3z m853 -1107 l0 -855 -855 0 -855 0 0 855 0 855 855 0 855 0 0
-855z"/>
<path d="M3191 6082 c-35 -19 -71 -72 -71 -105 0 -10 7 -34 15 -55 11 -26 545
-567 1868 -1889 l1852 -1853 -835 0 c-790 0 -837 -1 -869 -18 -36 -19 -71 -72
-71 -107 0 -35 35 -88 71 -107 32 -17 84 -18 1034 -18 950 0 1002 1 1034 18
19 10 43 34 53 53 17 32 18 84 18 1034 0 950 -1 1002 -18 1034 -19 36 -72 71
-107 71 -35 0 -88 -35 -107 -71 -17 -32 -18 -79 -18 -874 l0 -840 -1862 1862
c-1066 1065 -1875 1867 -1891 1873 -39 14 -57 13 -96 -8z"/>
</g>
</svg>
