<?xml version="1.0" standalone="no"?>
<!DOCTYPE svg PUBLIC "-//W3C//DTD SVG 20010904//EN"
 "http://www.w3.org/TR/2001/REC-SVG-20010904/DTD/svg10.dtd">
<svg version="1.0" xmlns="http://www.w3.org/2000/svg"
 width="1236pt" height="1000pt" viewBox="0 0 1236 1000"
 preserveAspectRatio="xMidYMid meet">
<metadata>
Created by potrace 1.9, written by Peter Selinger 2001-2010
</metadata>
<g transform="translate(0,1000) scale(0.100000,-0.100000)"
fill="#000000" stroke="none">
<path d="M251 6082 c-19 -10 -43 -34 -53 -53 -17 -32 -18 -84 -18 -1034 0
-950 1 -1002 18 -1034 38 -71 40 -71 484 -71 l398 0 -445 -890 c-246 -492
-447 -906 -450 -927 -16 -104 101 -175 190 -117 20 13 134 232 467 898 l440
881 438 -874 c321 -643 445 -881 466 -898 63 -50 148 -33 186 37 17 33 18 111
18 2015 0 1899 -1 1982 -18 2014 -19 36 -72 71 -107 71 -35 0 -88 -35 -107
-71 -17 -32 -18 -82 -18 -961 l0 -928 -855 0 -855 0 0 928 c0 879 -1 929 -18
961 -19 36 -72 71 -107 71 -11 0 -36 -8 -54 -18z m1888 -2844 l0 -653 -324
645 c-178 355 -324 648 -324 653 -1 4 145 7 324 7 l325 0 -1 -652z"/>
<path d="M5030 4124 c-270 -49 -508 -184 -674 -383 -152 -182 -256 -467 -256
-701 0 -291 155 -637 367 -819 l48 -40 -645 -1 c-606 0 -647 -1 -679 -18 -36
-19 -71 -72 -71 -107 0 -35 35 -88 71 -107 32 -17 115 -18 2014 -18 1899 0
1982 1 2014 18 36 19 71 72 71 107 0 35 -35 88 -71 107 -32 17 -73 18 -681 18
l-648 0 83 83 c175 175 272 375 318 655 18 108 18 123 4 221 -57 391 -248 683
-560 856 -221 122 -481 170 -705 129z m400 -269 c292 -93 496 -299 584 -586
14 -47 26 -90 26 -97 0 -9 -194 -12 -840 -12 -727 0 -840 2 -840 14 0 8 12 52
26 98 89 281 290 486 565 577 106 35 147 40 274 37 97 -3 137 -9 205 -31z
m610 -952 c0 -4 -12 -45 -26 -92 -87 -287 -289 -490 -584 -587 -77 -25 -98
-28 -230 -28 -132 0 -153 3 -230 28 -295 97 -497 300 -584 587 -14 47 -26 88
-26 92 0 4 378 7 840 7 462 0 840 -3 840 -7z"/>
<path d="M11915 4134 c-169 -13 -419 -67 -575 -124 -565 -207 -1023 -665
-1230 -1230 -57 -158 -120 -449 -120 -559 l0 -41 -933 0 c-884 0 -934 -1 -966
-18 -36 -19 -71 -72 -71 -107 0 -35 35 -88 71 -107 32 -17 115 -18 2014 -18
1899 0 1982 1 2014 18 36 19 71 72 71 107 0 35 -35 88 -71 107 -32 17 -82 18
-956 18 l-923 0 0 41 c0 100 46 310 100 459 97 264 227 466 430 670 246 246
521 402 850 484 128 32 147 35 329 50 88 8 166 19 178 26 70 44 69 166 -1 210
-22 14 -124 20 -211 14z"/>
</g>
</svg>
