<?xml version="1.0" standalone="no"?>
<!DOCTYPE svg PUBLIC "-//W3C//DTD SVG 20010904//EN"
 "http://www.w3.org/TR/2001/REC-SVG-20010904/DTD/svg10.dtd">
<svg version="1.0" xmlns="http://www.w3.org/2000/svg"
 width="1432pt" height="1000pt" viewBox="0 0 1432 1000"
 preserveAspectRatio="xMidYMid meet">
<metadata>
Created by potrace 1.9, written by Peter Selinger 2001-2010
</metadata>
<g transform="translate(0,1000) scale(0.100000,-0.100000)"
fill="#000000" stroke="none">
<path d="M8091 6082 c-36 -19 -71 -72 -71 -107 0 -35 35 -88 71 -107 32 -17
112 -18 1901 -18 l1868 0 -427 -855 -428 -855 -460 0 c-427 0 -463 -1 -494
-18 -36 -19 -71 -72 -71 -107 0 -35 35 -88 71 -107 31 -17 65 -18 431 -18
l398 0 -445 -890 c-246 -492 -447 -906 -450 -927 -8 -49 19 -100 66 -125 32
-17 84 -18 1034 -18 950 0 1002 1 1034 18 36 19 71 72 71 107 0 35 -35 88 -71
107 -32 17 -81 18 -921 18 -489 0 -888 2 -888 5 0 3 191 388 425 855 l425 850
1277 0 1278 0 -387 -387 c-405 -408 -418 -423 -403 -493 8 -39 56 -87 95 -95
16 -4 45 -2 63 4 22 8 186 165 544 523 544 546 538 538 514 611 -8 22 -165
186 -523 544 -445 444 -518 513 -550 518 -64 12 -127 -31 -143 -98 -17 -64 1
-86 403 -489 l387 -388 -1213 0 c-666 0 -1212 2 -1212 5 0 3 203 410 450 905
248 495 450 911 450 923 0 37 -34 89 -71 109 -32 17 -115 18 -2014 18 -1899 0
-1982 -1 -2014 -18z"/>
<path d="M5151 4122 c-36 -19 -71 -72 -71 -107 0 -35 35 -88 71 -107 32 -17
84 -18 1034 -18 950 0 1002 1 1034 18 36 19 71 72 71 107 0 35 -35 88 -71 107
-32 17 -84 18 -1034 18 -950 0 -1002 -1 -1034 -18z"/>
<path d="M1231 3142 c-35 -19 -71 -72 -71 -105 0 -55 41 -103 413 -474 l382
-383 -835 0 c-790 0 -837 -1 -869 -18 -36 -19 -71 -72 -71 -107 0 -35 35 -88
71 -107 32 -17 115 -18 2014 -18 1899 0 1982 1 2014 18 36 19 71 72 71 107 0
35 -35 88 -71 107 -32 17 -79 18 -874 18 l-840 0 397 398 c342 342 398 402
403 434 12 64 -31 127 -98 143 -65 17 -82 2 -555 -469 l-452 -451 -453 452
c-248 249 -465 457 -480 463 -39 14 -57 13 -96 -8z"/>
</g>
</svg>
