<?xml version="1.0" standalone="no"?>
<!DOCTYPE svg PUBLIC "-//W3C//DTD SVG 20010904//EN"
 "http://www.w3.org/TR/2001/REC-SVG-20010904/DTD/svg10.dtd">
<svg version="1.0" xmlns="http://www.w3.org/2000/svg"
 width="942pt" height="1000pt" viewBox="0 0 942 1000"
 preserveAspectRatio="xMidYMid meet">
<metadata>
Created by potrace 1.9, written by Peter Selinger 2001-2010
</metadata>
<g transform="translate(0,1000) scale(0.100000,-0.100000)"
fill="#000000" stroke="none">
<path d="M2115 6094 c-684 -55 -1279 -418 -1631 -994 -199 -327 -298 -686
-298 -1080 0 -204 15 -323 64 -520 184 -731 759 -1306 1490 -1490 197 -49 316
-64 520 -64 557 0 1074 211 1461 595 324 322 531 737 593 1184 38 278 38 313
0 590 -114 830 -724 1511 -1534 1715 -63 15 -161 36 -216 44 -102 16 -357 27
-449 20z m25 -1177 c0 -874 1 -924 18 -956 10 -19 34 -43 53 -53 32 -17 82
-18 951 -18 l918 0 0 -36 c0 -143 -76 -420 -170 -622 -142 -302 -420 -607
-717 -786 -184 -110 -440 -201 -668 -237 -103 -16 -427 -16 -530 0 -228 36
-484 127 -668 237 -240 145 -495 400 -640 641 -111 184 -202 440 -238 668 -16
103 -16 427 0 530 36 228 127 484 237 668 146 242 399 495 641 641 218 130
561 241 761 245 l52 1 0 -923z m393 912 c215 -32 478 -126 660 -235 297 -179
575 -484 717 -786 96 -205 170 -479 170 -627 l0 -41 -845 0 -845 0 0 850 0
850 36 0 c19 0 68 -5 107 -11z"/>
<path d="M5151 6082 c-19 -10 -43 -34 -53 -53 -17 -32 -18 -115 -18 -2014 0
-1899 1 -1982 18 -2014 10 -19 34 -43 53 -53 32 -17 115 -18 2014 -18 1899 0
1982 1 2014 18 19 10 43 34 53 53 17 32 18 115 18 2014 0 1899 -1 1982 -18
2014 -19 36 -72 71 -107 71 -35 0 -88 -35 -107 -71 -15 -28 -18 -58 -18 -186
l0 -153 -82 83 c-167 166 -369 268 -614 311 -359 63 -766 -92 -1007 -382 -35
-42 -79 -105 -98 -139 -19 -35 -36 -63 -39 -63 -3 1 -24 33 -47 73 -151 263
-437 453 -769 511 -160 28 -319 15 -498 -40 -169 -53 -381 -189 -480 -307
l-36 -42 0 150 c0 126 -3 156 -18 184 -19 36 -72 71 -107 71 -11 0 -36 -8 -54
-18z m1259 -267 c353 -114 585 -399 619 -764 5 -54 15 -107 22 -119 43 -69
175 -69 218 0 7 12 17 65 22 119 17 179 89 357 197 484 115 137 243 222 422
281 77 25 98 28 230 28 132 0 153 -3 230 -28 183 -61 317 -152 431 -292 66
-80 115 -175 155 -294 25 -76 28 -100 28 -220 0 -110 -5 -159 -27 -265 -113
-532 -328 -1027 -628 -1446 -257 -359 -581 -679 -944 -931 -139 -96 -215 -139
-236 -133 -27 9 -256 165 -359 244 -403 311 -780 745 -1005 1156 -227 415
-372 837 -440 1280 -20 130 -15 201 22 318 88 280 289 485 564 576 106 35 147
40 274 37 97 -3 136 -9 205 -31z m-1042 -1895 c122 -306 358 -697 603 -1001
194 -240 537 -560 764 -712 l40 -27 -723 0 -722 0 0 912 c0 501 2 909 4 907 2
-2 18 -38 34 -79z m3632 -830 l0 -910 -722 1 c-683 0 -722 1 -698 17 266 182
584 480 806 757 217 271 458 675 574 963 19 45 35 82 37 82 2 0 3 -409 3 -910z"/>
</g>
</svg>
