<?xml version="1.0" standalone="no"?>
<!DOCTYPE svg PUBLIC "-//W3C//DTD SVG 20010904//EN"
 "http://www.w3.org/TR/2001/REC-SVG-20010904/DTD/svg10.dtd">
<svg version="1.0" xmlns="http://www.w3.org/2000/svg"
 width="354pt" height="1000pt" viewBox="0 0 354 1000"
 preserveAspectRatio="xMidYMid meet">
<metadata>
Created by potrace 1.9, written by Peter Selinger 2001-2010
</metadata>
<g transform="translate(0,1000) scale(0.100000,-0.100000)"
fill="#000000" stroke="none">
<path d="M3095 8054 c-680 -53 -1280 -418 -1631 -994 -174 -287 -261 -567
-300 -970 l-5 -55 -90 -75 c-343 -284 -645 -753 -777 -1205 -142 -486 -142
-984 0 -1470 105 -358 313 -726 572 -1009 124 -135 346 -323 391 -332 55 -10
86 8 222 124 530 454 846 1090 894 1800 25 377 -49 806 -203 1164 -147 345
-415 712 -672 923 l-85 70 5 75 c17 238 71 448 174 668 85 181 200 342 360
502 246 246 521 402 850 484 128 32 147 35 329 50 88 8 166 19 178 26 70 44
69 166 -1 210 -22 14 -124 20 -211 14z m-1738 -2313 c233 -202 452 -507 582
-810 107 -251 163 -484 182 -758 37 -551 -121 -1085 -453 -1533 -82 -111 -305
-348 -360 -385 -27 -17 -29 -17 -55 0 -16 10 -84 75 -152 144 -210 213 -366
444 -480 710 -107 251 -163 484 -182 759 -42 633 174 1246 605 1716 91 98 219
216 236 216 5 0 39 -27 77 -59z"/>
</g>
</svg>
