<?xml version="1.0" standalone="no"?>
<!DOCTYPE svg PUBLIC "-//W3C//DTD SVG 20010904//EN"
 "http://www.w3.org/TR/2001/REC-SVG-20010904/DTD/svg10.dtd">
<svg version="1.0" xmlns="http://www.w3.org/2000/svg"
 width="844pt" height="1000pt" viewBox="0 0 844 1000"
 preserveAspectRatio="xMidYMid meet">
<metadata>
Created by potrace 1.9, written by Peter Selinger 2001-2010
</metadata>
<g transform="translate(0,1000) scale(0.100000,-0.100000)"
fill="#000000" stroke="none">
<path d="M7995 8054 c-680 -53 -1280 -418 -1631 -994 -174 -287 -261 -567
-300 -970 l-5 -55 -90 -75 c-117 -97 -274 -266 -377 -406 -424 -578 -591
-1286 -467 -1984 86 -481 310 -935 639 -1294 124 -135 346 -323 391 -332 55
-10 86 8 222 124 530 454 846 1090 894 1800 25 377 -49 806 -203 1164 -147
345 -415 712 -672 923 l-85 70 5 75 c17 238 71 448 174 668 85 181 200 342
360 502 246 246 521 402 850 484 128 32 147 35 329 50 88 8 166 19 178 26 70
44 69 166 -1 210 -22 14 -124 20 -211 14z m-1738 -2313 c233 -202 452 -507
582 -810 107 -251 163 -484 182 -758 37 -551 -121 -1085 -453 -1533 -82 -111
-305 -348 -360 -385 -27 -17 -29 -17 -55 0 -16 10 -84 75 -152 144 -210 213
-366 444 -480 710 -107 251 -163 484 -182 759 -42 633 174 1246 605 1716 91
98 219 216 236 216 5 0 39 -27 77 -59z"/>
<path d="M2090 5104 c-274 -49 -517 -189 -681 -391 l-64 -80 -115 -6 c-228
-13 -432 -64 -612 -153 -190 -95 -414 -269 -460 -358 -49 -95 25 -201 128
-182 26 5 58 28 113 79 183 171 370 277 586 331 64 16 226 38 232 32 2 -2 -3
-28 -12 -58 -25 -88 -45 -218 -45 -298 0 -161 52 -359 137 -520 157 -299 445
-502 798 -564 114 -20 216 -20 330 0 324 56 611 244 763 500 l36 60 125 12
c150 14 245 33 366 73 178 59 376 172 515 294 83 74 100 100 100 159 0 39 -5
51 -35 81 -30 30 -42 35 -81 35 -48 0 -104 -30 -154 -85 -14 -15 -54 -48 -90
-75 -160 -118 -384 -208 -571 -228 l-75 -8 13 61 c79 361 -73 793 -365 1040
-241 203 -592 302 -882 249z m400 -269 c176 -56 318 -152 431 -291 68 -83 117
-178 155 -299 25 -79 29 -105 29 -220 0 -98 -5 -147 -19 -197 l-19 -68 -41 6
c-111 17 -294 83 -406 146 -84 47 -200 136 -200 153 0 30 -39 90 -87 136 -182
172 -451 326 -649 370 l-54 12 22 25 c86 91 225 177 359 221 106 35 147 40
274 37 97 -3 137 -9 205 -31z m-916 -491 c184 -46 341 -125 496 -250 55 -44
67 -60 78 -99 14 -53 63 -104 187 -194 167 -122 326 -199 513 -247 l101 -27
-42 -50 c-102 -122 -248 -217 -417 -273 -77 -25 -98 -28 -230 -28 -132 0 -153
3 -230 28 -179 59 -319 154 -431 292 -68 82 -117 177 -155 299 -26 82 -29 103
-28 230 0 130 2 147 33 238 22 67 37 97 48 97 8 0 43 -7 77 -16z"/>
<path d="M1231 2162 c-36 -19 -71 -72 -71 -107 0 -35 35 -88 71 -107 32 -17
84 -18 1034 -18 950 0 1002 1 1034 18 36 19 71 72 71 107 0 35 -35 88 -71 107
-32 17 -84 18 -1034 18 -950 0 -1002 -1 -1034 -18z"/>
</g>
</svg>
