<?xml version="1.0" standalone="no"?>
<!DOCTYPE svg PUBLIC "-//W3C//DTD SVG 20010904//EN"
 "http://www.w3.org/TR/2001/REC-SVG-20010904/DTD/svg10.dtd">
<svg version="1.0" xmlns="http://www.w3.org/2000/svg"
 width="942pt" height="1000pt" viewBox="0 0 942 1000"
 preserveAspectRatio="xMidYMid meet">
<metadata>
Created by potrace 1.9, written by Peter Selinger 2001-2010
</metadata>
<g transform="translate(0,1000) scale(0.100000,-0.100000)"
fill="#000000" stroke="none">
<path d="M251 6082 c-19 -10 -43 -34 -53 -53 -17 -32 -18 -115 -18 -2014 0
-1899 1 -1982 18 -2014 19 -35 72 -71 105 -71 31 0 85 30 104 58 17 25 18 66
23 532 l5 505 44 -75 c120 -204 334 -445 516 -580 385 -286 797 -424 1265
-424 204 0 323 15 520 64 528 133 988 477 1266 948 l49 82 5 -512 c5 -474 6
-515 23 -540 19 -28 73 -58 104 -58 33 0 86 36 105 71 17 32 18 115 18 2014 0
1899 -1 1982 -18 2014 -19 35 -72 71 -105 71 -31 0 -85 -30 -104 -58 -17 -25
-18 -66 -23 -535 l-5 -507 -49 82 c-278 471 -738 815 -1266 948 -197 49 -316
64 -520 64 -204 0 -323 -15 -520 -64 -526 -133 -990 -478 -1261 -940 l-44 -75
-5 500 c-6 556 -3 535 -75 569 -43 21 -63 20 -104 -2z m1889 -1165 c0 -874 1
-924 18 -956 10 -19 34 -43 53 -53 32 -17 82 -18 951 -18 l918 0 0 -36 c0
-143 -76 -420 -170 -622 -142 -302 -420 -607 -717 -786 -184 -110 -440 -201
-668 -237 -103 -16 -427 -16 -530 0 -228 36 -484 127 -668 237 -240 145 -495
400 -640 641 -111 184 -202 440 -238 668 -16 103 -16 427 0 530 36 228 127
484 237 668 146 242 399 495 641 641 218 130 561 241 761 245 l52 1 0 -923z
m393 912 c215 -32 478 -126 660 -235 297 -179 575 -484 717 -786 96 -205 170
-479 170 -627 l0 -41 -845 0 -845 0 0 850 0 850 36 0 c19 0 68 -5 107 -11z"/>
<path d="M7015 6094 c-172 -14 -419 -67 -575 -124 -631 -231 -1120 -769 -1286
-1415 -70 -271 -67 -205 -71 -1420 -4 -1057 -3 -1101 15 -1134 10 -19 34 -43
53 -53 32 -17 115 -18 2014 -18 1899 0 1982 1 2014 18 19 10 43 34 53 53 17
32 18 84 18 1014 0 975 -2 1051 -36 1300 -85 616 -439 1154 -974 1481 -234
142 -489 233 -776 278 -102 16 -357 27 -449 20z m418 -265 c215 -32 478 -126
660 -235 242 -146 495 -399 641 -641 77 -128 158 -324 197 -476 62 -244 69
-380 69 -1414 l0 -883 -1836 0 -1835 0 4 1028 c3 872 6 1039 20 1107 78 409
238 716 517 995 318 317 699 495 1150 534 73 6 334 -3 413 -15z"/>
</g>
</svg>
