<?xml version="1.0" standalone="no"?>
<!DOCTYPE svg PUBLIC "-//W3C//DTD SVG 20010904//EN"
 "http://www.w3.org/TR/2001/REC-SVG-20010904/DTD/svg10.dtd">
<svg version="1.0" xmlns="http://www.w3.org/2000/svg"
 width="746pt" height="1000pt" viewBox="0 0 746 1000"
 preserveAspectRatio="xMidYMid meet">
<metadata>
Created by potrace 1.9, written by Peter Selinger 2001-2010
</metadata>
<g transform="translate(0,1000) scale(0.100000,-0.100000)"
fill="#000000" stroke="none">
<path d="M251 6082 c-19 -10 -43 -34 -53 -53 -17 -32 -18 -115 -18 -2014 0
-1904 1 -1982 18 -2015 25 -46 81 -74 130 -65 33 6 150 119 1040 1008 711 711
1005 1011 1013 1035 24 74 64 31 -999 1096 -583 584 -1010 1004 -1029 1012
-43 18 -61 18 -102 -4z m1007 -1245 l822 -822 -825 -825 -825 -825 0 1648 c0
906 1 1647 3 1647 1 0 372 -370 825 -823z"/>
<path d="M3191 6082 c-19 -10 -43 -34 -53 -53 -17 -32 -18 -115 -18 -2014 0
-1899 1 -1982 18 -2014 10 -19 34 -43 53 -53 32 -17 115 -18 2014 -18 1899 0
1982 1 2014 18 19 10 43 34 53 53 17 32 18 115 18 2014 0 1899 -1 1982 -18
2014 -19 36 -72 71 -107 71 -35 0 -88 -35 -107 -71 -15 -28 -18 -58 -18 -186
l0 -153 -82 83 c-167 166 -369 268 -614 311 -359 63 -766 -92 -1007 -382 -35
-42 -79 -105 -98 -139 -19 -35 -36 -63 -39 -63 -3 1 -24 33 -47 73 -151 263
-437 453 -769 511 -160 28 -319 15 -498 -40 -169 -53 -381 -189 -480 -307
l-36 -42 0 150 c0 126 -3 156 -18 184 -19 36 -72 71 -107 71 -11 0 -36 -8 -54
-18z m1259 -267 c353 -114 585 -399 619 -764 5 -54 15 -107 22 -119 43 -69
175 -69 218 0 7 12 17 65 22 119 17 179 89 357 197 484 115 137 243 222 422
281 77 25 98 28 230 28 132 0 153 -3 230 -28 183 -61 317 -152 431 -292 66
-80 115 -175 155 -294 25 -76 28 -100 28 -220 0 -110 -5 -159 -27 -265 -86
-404 -225 -774 -424 -1130 -233 -414 -580 -812 -991 -1134 -100 -78 -359 -251
-375 -251 -25 0 -221 130 -377 249 -399 305 -780 745 -1005 1156 -227 415
-372 837 -440 1280 -20 130 -15 201 22 318 88 280 289 485 564 576 106 35 147
40 274 37 97 -3 136 -9 205 -31z m-1042 -1895 c122 -306 358 -697 603 -1001
194 -240 537 -560 764 -712 l40 -27 -723 0 -722 0 0 912 c0 501 2 909 4 907 2
-2 18 -38 34 -79z m3632 -830 l0 -910 -722 0 -723 0 40 27 c226 152 565 469
755 703 253 314 482 692 610 1008 19 45 35 82 37 82 2 0 3 -409 3 -910z"/>
</g>
</svg>
