<?xml version="1.0" standalone="no"?>
<!DOCTYPE svg PUBLIC "-//W3C//DTD SVG 20010904//EN"
 "http://www.w3.org/TR/2001/REC-SVG-20010904/DTD/svg10.dtd">
<svg version="1.0" xmlns="http://www.w3.org/2000/svg"
 width="452pt" height="1000pt" viewBox="0 0 452 1000"
 preserveAspectRatio="xMidYMid meet">
<metadata>
Created by potrace 1.9, written by Peter Selinger 2001-2010
</metadata>
<g transform="translate(0,1000) scale(0.100000,-0.100000)"
fill="#000000" stroke="none">
<path d="M2090 6084 c-270 -49 -508 -184 -674 -383 -112 -134 -206 -339 -237
-515 l-11 -66 -442 0 c-408 0 -444 -1 -475 -18 -36 -19 -71 -72 -71 -107 0
-35 35 -88 71 -107 32 -17 115 -18 2014 -18 1899 0 1982 1 2014 18 36 19 71
72 71 107 0 35 -35 88 -71 107 -31 17 -67 18 -480 18 l-447 0 -11 66 c-25 139
-86 294 -166 419 -222 347 -685 552 -1085 479z m400 -269 c292 -94 493 -294
584 -583 14 -46 26 -90 26 -98 0 -12 -113 -14 -840 -14 -727 0 -840 2 -840 14
0 8 12 52 26 98 89 281 290 486 565 577 106 35 147 40 274 37 97 -3 136 -9
205 -31z"/>
</g>
</svg>
