<?xml version="1.0" standalone="no"?>
<!DOCTYPE svg PUBLIC "-//W3C//DTD SVG 20010904//EN"
 "http://www.w3.org/TR/2001/REC-SVG-20010904/DTD/svg10.dtd">
<svg version="1.0" xmlns="http://www.w3.org/2000/svg"
 width="1236pt" height="1000pt" viewBox="0 0 1236 1000"
 preserveAspectRatio="xMidYMid meet">
<metadata>
Created by potrace 1.9, written by Peter Selinger 2001-2010
</metadata>
<g transform="translate(0,1000) scale(0.100000,-0.100000)"
fill="#000000" stroke="none">
<path d="M251 6082 c-36 -19 -71 -73 -71 -107 1 -60 52 -114 969 -1030 l931
-930 -939 -940 c-757 -758 -941 -947 -951 -978 -20 -64 6 -123 67 -152 80 -38
13 -98 1111 998 711 711 1005 1011 1013 1035 24 74 64 31 -999 1096 -583 584
-1010 1004 -1029 1012 -43 18 -61 18 -102 -4z"/>
<path d="M2211 6082 c-36 -19 -71 -73 -71 -107 1 -60 52 -114 969 -1030 l931
-930 -939 -940 c-757 -758 -941 -947 -951 -978 -20 -64 6 -123 67 -152 80 -38
13 -98 1111 998 711 711 1005 1011 1013 1035 24 74 64 31 -999 1096 -583 584
-1010 1004 -1029 1012 -43 18 -61 18 -102 -4z"/>
<path d="M9955 6094 c-684 -55 -1279 -418 -1631 -994 -143 -235 -234 -491
-279 -780 -21 -137 -25 -328 -7 -362 40 -74 167 -77 212 -5 7 12 18 90 26 178
15 182 18 201 50 329 82 329 238 604 484 850 241 241 514 398 835 481 81 21
237 50 243 44 2 -1 -416 -840 -927 -1864 -527 -1052 -933 -1877 -936 -1898 -8
-49 19 -100 66 -125 32 -17 115 -18 2014 -18 1899 0 1982 1 2014 18 37 20 71
72 71 109 0 13 -423 869 -940 1904 -649 1296 -935 1879 -923 1876 10 -3 41 -8
68 -12 180 -24 463 -126 638 -231 242 -146 495 -399 641 -641 81 -135 159
-328 200 -493 32 -128 35 -147 50 -329 8 -88 19 -166 26 -178 45 -72 172 -69
212 5 18 34 14 225 -7 362 -71 458 -269 853 -585 1170 -378 377 -876 590
-1416 604 -82 2 -171 2 -199 0z m152 -3912 c-963 -1 -1752 0 -1754 2 -2 2 390
793 873 1757 l877 1754 877 -1755 878 -1755 -1751 -3z"/>
<path d="M10025 4623 c-256 -40 -449 -208 -510 -443 -21 -81 -24 -188 -7 -222
29 -54 115 -75 172 -41 38 22 48 43 64 139 17 99 43 152 107 216 74 74 144
103 249 103 106 0 175 -29 250 -105 76 -75 105 -144 105 -250 0 -105 -29 -175
-103 -249 -64 -64 -117 -90 -216 -107 -96 -17 -117 -26 -140 -65 -15 -26 -17
-61 -16 -306 0 -228 3 -282 16 -309 44 -92 167 -94 216 -3 16 29 18 59 18 240
l0 207 48 12 c134 34 286 156 354 286 51 97 71 181 71 294 0 59 -6 120 -17
160 -55 202 -217 367 -415 422 -68 19 -194 30 -246 21z"/>
<path d="M10063 2683 c-33 -6 -79 -57 -86 -92 -26 -127 122 -210 212 -120 43
42 49 93 18 156 -20 42 -87 68 -144 56z"/>
<path d="M5151 4122 c-36 -19 -71 -72 -71 -107 0 -35 35 -88 71 -107 32 -17
84 -18 1034 -18 950 0 1002 1 1034 18 36 19 71 72 71 107 0 35 -35 88 -71 107
-32 17 -84 18 -1034 18 -950 0 -1002 -1 -1034 -18z"/>
</g>
</svg>
