<?xml version="1.0" standalone="no"?>
<!DOCTYPE svg PUBLIC "-//W3C//DTD SVG 20010904//EN"
 "http://www.w3.org/TR/2001/REC-SVG-20010904/DTD/svg10.dtd">
<svg version="1.0" xmlns="http://www.w3.org/2000/svg"
 width="942pt" height="1000pt" viewBox="0 0 942 1000"
 preserveAspectRatio="xMidYMid meet">
<metadata>
Created by potrace 1.9, written by Peter Selinger 2001-2010
</metadata>
<g transform="translate(0,1000) scale(0.100000,-0.100000)"
fill="#000000" stroke="none">
<path d="M1231 6082 c-71 -38 -71 -35 -71 -524 l0 -438 -438 0 c-489 0 -486 0
-524 -71 -23 -42 -23 -66 0 -108 37 -70 46 -71 432 -71 l345 0 -387 -387
c-402 -404 -420 -426 -403 -490 16 -67 79 -110 143 -98 32 5 92 61 435 403
l397 397 0 -768 0 -767 -438 0 c-489 0 -486 0 -524 -71 -23 -42 -23 -66 0
-108 38 -71 35 -71 524 -71 l438 0 0 -438 c0 -489 0 -486 71 -524 42 -23 66
-23 108 0 71 38 71 35 71 524 l0 438 855 0 855 0 0 -438 c0 -489 0 -486 71
-524 42 -23 66 -23 108 0 71 38 71 35 71 524 l0 438 438 0 c489 0 486 0 524
71 23 42 23 66 0 108 -38 71 -35 71 -524 71 l-438 0 0 762 0 763 388 -387
c403 -402 425 -420 489 -403 67 16 110 79 98 143 -5 32 -61 92 -403 435 l-397
397 350 0 c392 0 400 1 437 71 23 42 23 66 0 108 -38 71 -35 71 -524 71 l-438
0 0 438 c0 404 -1 440 -18 471 -19 36 -72 71 -107 71 -35 0 -88 -35 -107 -71
-16 -31 -18 -64 -18 -384 l0 -350 -397 397 c-314 312 -405 397 -430 403 -73
15 -86 4 -495 -403 l-388 -387 0 345 c0 315 -2 348 -18 379 -19 36 -72 71
-107 71 -11 0 -36 -8 -54 -18z m1369 -627 l335 -335 -675 0 -675 0 335 335
c184 184 337 335 340 335 3 0 156 -151 340 -335z m520 -1440 l0 -855 -855 0
-855 0 0 855 0 855 855 0 855 0 0 -855z"/>
<path d="M5138 4123 c-46 -29 -53 -56 -51 -182 5 -261 79 -566 197 -816 78
-164 213 -367 323 -487 24 -26 43 -51 43 -57 0 -5 -17 -15 -37 -21 -183 -58
-551 -335 -572 -430 -21 -96 61 -174 154 -149 22 6 66 39 118 87 104 99 173
150 267 201 74 40 257 111 286 111 8 0 45 -22 82 -48 307 -221 654 -347 1052
-382 105 -10 117 -13 145 -39 86 -81 281 -201 419 -257 461 -188 991 -134
1410 143 100 67 215 165 240 205 9 14 16 47 16 72 0 39 -5 51 -35 81 -30 30
-42 35 -81 35 -48 0 -104 -30 -154 -85 -106 -114 -365 -245 -575 -291 -98 -21
-377 -24 -475 -5 -99 20 -216 59 -320 108 -110 52 -113 47 65 88 528 122 991
460 1281 936 143 234 234 490 279 779 21 137 25 328 7 362 -40 74 -167 77
-212 5 -7 -12 -18 -90 -26 -178 -15 -182 -18 -201 -50 -329 -41 -166 -119
-358 -201 -493 -145 -241 -400 -496 -640 -641 -222 -133 -579 -246 -779 -246
-44 0 -50 4 -125 74 -229 215 -527 347 -875 387 -92 10 -287 6 -341 -7 -19 -5
-38 9 -113 86 -238 242 -395 519 -474 840 -32 128 -35 147 -50 329 -8 88 -19
166 -26 178 -32 51 -119 69 -172 36z m1289 -1729 c42 -8 119 -31 171 -50 108
-39 262 -117 239 -122 -43 -9 -325 82 -462 148 -92 44 -77 51 52 24z"/>
</g>
</svg>
