<?xml version="1.0" standalone="no"?>
<!DOCTYPE svg PUBLIC "-//W3C//DTD SVG 20010904//EN"
 "http://www.w3.org/TR/2001/REC-SVG-20010904/DTD/svg10.dtd">
<svg version="1.0" xmlns="http://www.w3.org/2000/svg"
 width="844pt" height="1000pt" viewBox="0 0 844 1000"
 preserveAspectRatio="xMidYMid meet">
<metadata>
Created by potrace 1.9, written by Peter Selinger 2001-2010
</metadata>
<g transform="translate(0,1000) scale(0.100000,-0.100000)"
fill="#000000" stroke="none">
<path d="M2211 6082 c-19 -10 -43 -34 -53 -53 -17 -32 -18 -82 -18 -961 l0
-928 -936 0 c-856 0 -938 -1 -964 -17 -47 -28 -55 -55 -53 -182 9 -506 237
-1027 612 -1400 387 -384 904 -595 1461 -595 204 0 323 15 520 64 592 149
1093 561 1356 1115 112 236 163 438 203 808 13 115 2 152 -54 187 -32 20 -47
20 -964 20 l-931 0 0 928 c0 879 -1 929 -18 961 -19 36 -72 71 -107 71 -11 0
-36 -8 -54 -18z m1869 -2228 c0 -143 -76 -420 -170 -622 -142 -302 -420 -607
-717 -786 -184 -110 -440 -201 -668 -237 -103 -16 -427 -16 -530 0 -228 36
-484 127 -668 237 -297 179 -575 484 -717 786 -94 202 -170 479 -170 622 l0
36 1820 0 1820 0 0 -36z"/>
<path d="M7112 6083 c-18 -9 -41 -28 -51 -42 -41 -58 -1971 -3933 -1976 -3968
-16 -104 101 -175 190 -117 20 13 230 424 895 1753 l869 1736 0 -1632 1 -1633
-438 0 c-404 0 -440 -1 -471 -18 -36 -19 -71 -72 -71 -107 0 -35 35 -88 71
-107 32 -17 84 -18 1034 -18 950 0 1002 1 1034 18 36 19 71 72 71 107 0 35
-35 88 -71 107 -31 17 -67 18 -471 18 l-438 0 0 1908 c0 1828 -1 1909 -18
1941 -19 36 -73 71 -107 71 -11 0 -35 -8 -53 -17z"/>
</g>
</svg>
