<?xml version="1.0" standalone="no"?>
<!DOCTYPE svg PUBLIC "-//W3C//DTD SVG 20010904//EN"
 "http://www.w3.org/TR/2001/REC-SVG-20010904/DTD/svg10.dtd">
<svg version="1.0" xmlns="http://www.w3.org/2000/svg"
 width="452pt" height="1000pt" viewBox="0 0 452 1000"
 preserveAspectRatio="xMidYMid meet">
<metadata>
Created by potrace 1.9, written by Peter Selinger 2001-2010
</metadata>
<g transform="translate(0,1000) scale(0.100000,-0.100000)"
fill="#000000" stroke="none">
<path d="M251 6082 c-36 -19 -71 -72 -71 -107 0 -35 35 -88 71 -107 32 -17
110 -18 1849 -18 l1815 0 -872 -872 c-859 -859 -903 -907 -903 -965 0 -33 36
-86 71 -105 32 -17 79 -18 869 -18 l835 0 -877 -877 c-924 -926 -909 -910
-893 -983 8 -39 56 -87 95 -95 16 -4 45 -2 62 4 24 8 324 302 1035 1013 889
890 1002 1007 1008 1040 9 49 -19 105 -65 130 -33 17 -78 18 -875 18 l-840 0
887 888 c786 786 887 891 893 924 9 49 -19 105 -65 130 -33 17 -111 18 -2015
18 -1899 0 -1982 -1 -2014 -18z"/>
</g>
</svg>
