<?xml version="1.0" standalone="no"?>
<!DOCTYPE svg PUBLIC "-//W3C//DTD SVG 20010904//EN"
 "http://www.w3.org/TR/2001/REC-SVG-20010904/DTD/svg10.dtd">
<svg version="1.0" xmlns="http://www.w3.org/2000/svg"
 width="942pt" height="1000pt" viewBox="0 0 942 1000"
 preserveAspectRatio="xMidYMid meet">
<metadata>
Created by potrace 1.9, written by Peter Selinger 2001-2010
</metadata>
<g transform="translate(0,1000) scale(0.100000,-0.100000)"
fill="#000000" stroke="none">
<path d="M3095 6094 c-169 -13 -419 -67 -575 -124 -565 -207 -1023 -665 -1230
-1230 -58 -161 -120 -449 -120 -562 l0 -45 -70 -12 c-177 -29 -385 -124 -521
-237 -290 -242 -446 -650 -384 -1003 49 -279 185 -523 384 -685 188 -154 467
-256 701 -256 239 0 523 106 712 265 280 236 434 647 373 994 -62 352 -254
632 -543 792 -125 69 -207 99 -374 134 -26 5 -28 9 -28 51 0 198 113 556 246
777 146 242 399 495 641 641 135 81 328 159 493 200 128 32 147 35 329 50 88
8 166 19 178 26 70 44 69 166 -1 210 -22 14 -124 20 -211 14z m-2179 -2366
c-146 -288 -197 -624 -141 -937 31 -176 85 -335 159 -463 24 -43 42 -78 39
-78 -22 0 -174 92 -229 139 -137 115 -223 246 -280 426 -26 82 -29 103 -28
230 0 126 3 149 28 225 61 182 152 317 292 431 51 42 175 117 211 129 0 0 -22
-46 -51 -102z m491 -105 c50 -96 97 -226 120 -335 21 -100 24 -368 4 -468 -32
-164 -119 -371 -207 -491 l-49 -67 -42 58 c-93 125 -173 311 -210 482 -24 115
-24 370 1 488 34 163 119 359 209 481 l42 57 46 -63 c25 -35 64 -99 86 -142z
m263 167 c146 -77 291 -223 363 -365 19 -39 48 -111 63 -160 26 -80 29 -104
29 -225 0 -121 -3 -145 -29 -225 -57 -180 -143 -311 -280 -426 -62 -53 -208
-139 -235 -139 -5 0 5 26 24 58 108 180 177 426 191 677 14 240 -53 539 -166
753 -28 50 -47 92 -44 92 3 0 41 -18 84 -40z"/>
<path d="M5030 5104 c-194 -35 -394 -125 -531 -240 -290 -242 -446 -650 -384
-1003 49 -279 185 -523 384 -685 145 -119 339 -206 536 -240 114 -20 216 -20
330 0 489 85 833 432 920 925 61 347 -93 758 -373 994 -241 203 -592 302 -882
249z m400 -269 c176 -56 318 -152 431 -291 68 -83 117 -178 155 -299 26 -80
29 -104 29 -225 0 -121 -3 -145 -29 -225 -93 -295 -290 -493 -586 -591 -77
-25 -98 -28 -230 -28 -132 0 -153 3 -230 28 -179 59 -319 154 -431 292 -68 82
-117 177 -155 299 -26 82 -29 103 -28 230 0 126 3 149 28 225 95 288 291 488
567 579 106 35 147 40 274 37 97 -3 137 -9 205 -31z"/>
<path d="M5163 4143 c-33 -6 -79 -57 -86 -92 -26 -127 122 -210 212 -120 43
42 49 93 18 156 -20 42 -87 68 -144 56z"/>
<path d="M8975 4134 c-680 -53 -1280 -418 -1631 -994 -143 -235 -234 -491
-279 -780 -21 -137 -25 -328 -7 -362 40 -74 167 -77 212 -5 7 12 18 90 26 178
15 182 18 201 50 329 82 329 238 604 484 850 246 246 521 402 850 484 128 32
147 35 329 50 88 8 166 19 178 26 70 44 69 166 -1 210 -22 14 -124 20 -211 14z"/>
<path d="M4171 2162 c-36 -19 -71 -72 -71 -107 0 -35 35 -88 71 -107 32 -17
84 -18 1034 -18 950 0 1002 1 1034 18 36 19 71 72 71 107 0 35 -35 88 -71 107
-32 17 -84 18 -1034 18 -950 0 -1002 -1 -1034 -18z"/>
</g>
</svg>
