<?xml version="1.0" standalone="no"?>
<!DOCTYPE svg PUBLIC "-//W3C//DTD SVG 20010904//EN"
 "http://www.w3.org/TR/2001/REC-SVG-20010904/DTD/svg10.dtd">
<svg version="1.0" xmlns="http://www.w3.org/2000/svg"
 width="1040pt" height="1000pt" viewBox="0 0 1040 1000"
 preserveAspectRatio="xMidYMid meet">
<metadata>
Created by potrace 1.9, written by Peter Selinger 2001-2010
</metadata>
<g transform="translate(0,1000) scale(0.100000,-0.100000)"
fill="#000000" stroke="none">
<path d="M2090 8044 c-270 -49 -508 -184 -674 -383 -152 -182 -256 -467 -256
-701 0 -291 155 -637 367 -819 l48 -40 -645 -1 c-606 0 -647 -1 -679 -18 -36
-19 -71 -72 -71 -107 0 -35 35 -88 71 -107 32 -17 82 -18 961 -18 l928 0 0
-1835 0 -1835 -438 0 c-404 0 -440 -1 -471 -18 -36 -19 -71 -72 -71 -107 0
-35 35 -88 71 -107 32 -17 84 -18 1034 -18 950 0 1002 1 1034 18 36 19 71 72
71 107 0 35 -35 88 -71 107 -31 17 -67 18 -471 18 l-438 0 0 1835 0 1835 928
0 c879 0 929 1 961 18 36 19 71 72 71 107 0 35 -35 88 -71 107 -32 17 -73 18
-681 18 l-648 0 83 83 c167 166 268 367 312 618 61 347 -93 758 -373 994 -241
203 -592 302 -882 249z m50 -1084 c0 -727 -2 -840 -14 -840 -33 0 -186 54
-257 91 -144 75 -291 222 -362 364 -19 39 -48 111 -63 160 -26 82 -29 103 -28
230 0 126 3 149 28 225 16 47 44 117 63 155 70 140 221 293 358 363 71 36 225
91 258 92 16 0 17 -47 17 -840z m352 814 c173 -54 316 -151 429 -290 68 -83
117 -178 155 -299 26 -80 29 -104 29 -225 0 -121 -3 -145 -29 -225 -93 -295
-295 -498 -584 -589 -46 -14 -87 -26 -93 -26 -5 0 -9 317 -9 840 0 523 4 840
9 840 6 0 47 -12 93 -26z"/>
<path d="M6010 6084 c-194 -35 -394 -125 -531 -240 -290 -242 -446 -650 -384
-1003 50 -285 189 -528 395 -694 101 -80 275 -169 400 -203 52 -15 96 -28 98
-29 2 -2 -200 -408 -447 -904 -250 -498 -453 -917 -456 -938 -8 -49 19 -100
66 -125 32 -17 84 -18 1034 -18 950 0 1002 1 1034 18 37 20 71 72 71 109 0 13
-207 436 -459 942 l-460 919 64 16 c103 26 187 59 287 115 289 160 481 440
543 792 61 347 -93 758 -373 994 -241 203 -592 302 -882 249z m400 -269 c176
-56 318 -152 431 -291 68 -83 117 -178 155 -299 26 -80 29 -104 29 -225 0
-121 -3 -145 -29 -225 -93 -295 -290 -493 -586 -591 -77 -25 -98 -28 -230 -28
-132 0 -153 3 -230 28 -179 59 -319 154 -431 292 -68 82 -117 177 -155 299
-26 82 -29 103 -28 230 0 126 3 149 28 225 95 288 291 488 567 579 106 35 147
40 274 37 97 -3 137 -9 205 -31z m-223 -3633 c-424 -1 -772 0 -774 2 -2 2 170
352 383 777 l387 774 387 -775 388 -775 -771 -3z"/>
<path d="M9065 5101 c-26 -12 -208 -188 -531 -512 -535 -538 -529 -530 -504
-613 10 -35 85 -115 503 -535 519 -520 542 -540 613 -527 41 8 90 56 99 96 4
16 2 45 -4 62 -8 23 -151 173 -466 488 l-455 455 459 460 c503 504 493 491
456 568 -32 67 -102 91 -170 58z"/>
<path d="M10045 5101 c-26 -12 -208 -188 -531 -512 -535 -538 -529 -530 -504
-613 10 -35 85 -115 503 -535 519 -520 542 -540 613 -527 41 8 90 56 99 96 4
16 2 45 -4 62 -8 23 -151 173 -466 488 l-455 455 459 460 c503 504 493 491
456 568 -32 67 -102 91 -170 58z"/>
</g>
</svg>
