<?xml version="1.0" standalone="no"?>
<!DOCTYPE svg PUBLIC "-//W3C//DTD SVG 20010904//EN"
 "http://www.w3.org/TR/2001/REC-SVG-20010904/DTD/svg10.dtd">
<svg version="1.0" xmlns="http://www.w3.org/2000/svg"
 width="1628pt" height="1000pt" viewBox="0 0 1628 1000"
 preserveAspectRatio="xMidYMid meet">
<metadata>
Created by potrace 1.9, written by Peter Selinger 2001-2010
</metadata>
<g transform="translate(0,1000) scale(0.100000,-0.100000)"
fill="#000000" stroke="none">
<path d="M3070 6084 c-122 -22 -238 -62 -349 -121 -308 -161 -509 -452 -568
-819 -16 -100 -16 -107 6 -249 102 -668 339 -1249 727 -1787 213 -295 500
-591 784 -809 109 -84 285 -204 378 -259 39 -23 72 -46 72 -50 0 -19 73 -42
113 -36 42 7 67 21 307 178 525 342 962 812 1282 1383 236 419 387 861 467
1360 20 125 19 131 -5 283 -77 488 -428 840 -920 926 -359 63 -766 -92 -1007
-382 -35 -42 -79 -105 -98 -139 -19 -35 -36 -63 -39 -63 -3 1 -24 33 -47 73
-209 364 -689 586 -1103 511z m400 -269 c353 -114 585 -399 619 -764 5 -54 15
-107 22 -119 43 -69 175 -69 218 0 7 12 17 65 22 119 17 179 89 357 197 484
115 137 243 222 422 281 77 25 98 28 230 28 132 0 153 -3 230 -28 183 -61 317
-152 431 -292 66 -80 115 -175 155 -294 25 -76 28 -100 28 -220 0 -110 -5
-159 -27 -265 -86 -404 -225 -774 -424 -1130 -233 -414 -580 -812 -991 -1134
-100 -78 -359 -251 -375 -251 -25 0 -221 130 -377 249 -399 305 -780 745
-1005 1156 -227 415 -372 837 -440 1280 -20 130 -15 201 22 318 88 280 289
485 564 576 106 35 147 40 274 37 97 -3 136 -9 205 -31z"/>
<path d="M14461 6083 c-19 -9 -46 -36 -60 -59 -14 -23 -123 -236 -241 -473
l-215 -431 -460 0 c-427 0 -463 -1 -494 -18 -36 -19 -71 -72 -71 -107 0 -35
35 -88 71 -107 31 -17 65 -18 431 -18 l398 0 -427 -855 -428 -855 -460 0
c-515 0 -508 1 -547 -71 -23 -42 -23 -66 0 -108 38 -71 40 -71 484 -71 l398 0
-200 -400 c-110 -219 -202 -416 -205 -437 -11 -74 61 -150 132 -139 69 10 74
18 319 508 l234 468 840 0 840 0 -200 -400 c-110 -219 -202 -416 -205 -437
-11 -74 61 -150 132 -139 69 10 74 18 319 508 l234 468 463 0 c517 0 510 -1
549 71 23 42 23 66 0 108 -38 71 -40 71 -484 71 -219 0 -398 2 -398 5 0 3 191
388 425 855 l425 850 110 0 110 0 0 125 0 125 -45 0 c-25 0 -45 2 -45 5 0 3
20 46 45 95 l45 90 -1 277 0 278 -187 -372 -187 -373 -837 0 c-461 0 -838 2
-838 5 0 2 92 189 205 415 113 226 205 421 205 433 0 37 -34 89 -71 109 -41
22 -64 22 -108 1z m892 -2068 l-428 -855 -837 0 c-461 0 -838 2 -838 5 0 3
191 388 425 855 l425 850 840 0 840 0 -427 -855z"/>
<path d="M7111 5102 c-19 -10 -43 -34 -53 -53 -17 -32 -18 -84 -18 -1034 0
-950 1 -1002 18 -1034 10 -19 34 -43 53 -53 32 -17 115 -18 2014 -18 1899 0
1982 1 2014 18 19 10 43 34 53 53 17 32 18 84 18 1034 0 950 -1 1002 -18 1034
-10 19 -34 43 -53 53 -32 17 -115 18 -2014 18 -1899 0 -1982 -1 -2014 -18z
m3849 -1087 l0 -855 -1835 0 -1835 0 0 855 0 855 1835 0 1835 0 0 -855z"/>
<path d="M1232 4124 c-18 -9 -41 -29 -51 -43 -41 -57 -991 -1973 -996 -2008
-16 -104 101 -175 190 -117 20 13 134 232 467 898 l440 881 438 -874 c321
-643 445 -881 466 -898 78 -62 184 -20 201 81 4 27 -69 179 -500 1042 -384
769 -512 1015 -532 1028 -39 25 -85 29 -123 10z"/>
</g>
</svg>
