<?xml version="1.0" standalone="no"?>
<!DOCTYPE svg PUBLIC "-//W3C//DTD SVG 20010904//EN"
 "http://www.w3.org/TR/2001/REC-SVG-20010904/DTD/svg10.dtd">
<svg version="1.0" xmlns="http://www.w3.org/2000/svg"
 width="942pt" height="1000pt" viewBox="0 0 942 1000"
 preserveAspectRatio="xMidYMid meet">
<metadata>
Created by potrace 1.9, written by Peter Selinger 2001-2010
</metadata>
<g transform="translate(0,1000) scale(0.100000,-0.100000)"
fill="#000000" stroke="none">
<path d="M245 6087 c-63 -29 -89 -121 -51 -179 10 -15 68 -70 129 -122 349
-294 605 -686 732 -1119 122 -419 122 -875 0 -1294 -127 -433 -383 -825 -732
-1119 -61 -52 -119 -107 -129 -122 -24 -37 -22 -102 5 -140 32 -45 75 -55 200
-47 537 34 1007 241 1371 605 392 392 604 908 604 1470 0 562 -212 1078 -604
1470 -367 366 -850 578 -1380 605 -87 4 -122 2 -145 -8z m530 -301 c296 -75
579 -241 815 -476 246 -246 401 -519 485 -850 39 -155 49 -245 49 -440 0 -195
-10 -285 -49 -440 -84 -331 -239 -604 -485 -850 -204 -203 -406 -333 -670
-430 -89 -32 -232 -72 -238 -65 -2 1 25 34 61 72 155 166 343 462 445 701 154
358 228 787 203 1165 -28 410 -145 797 -341 1133 -90 153 -216 331 -294 414
-29 30 -59 64 -67 74 -13 17 -12 18 6 13 11 -3 47 -13 80 -21z"/>
<path d="M3191 6082 c-19 -10 -43 -34 -53 -53 -17 -32 -18 -115 -18 -2014 0
-1899 1 -1982 18 -2014 19 -36 72 -71 107 -71 35 0 88 35 107 71 17 32 18 115
18 2014 0 1899 -1 1982 -18 2014 -19 36 -72 71 -107 71 -11 0 -36 -8 -54 -18z"/>
<path d="M5151 6082 c-35 -19 -71 -72 -71 -105 0 -52 40 -101 276 -338 218
-218 243 -247 229 -259 -26 -21 -157 -206 -214 -302 -189 -316 -285 -673 -285
-1058 0 -204 15 -323 64 -520 184 -731 759 -1306 1490 -1490 197 -49 316 -64
520 -64 385 0 742 96 1058 285 96 57 281 188 302 214 12 14 43 -13 269 -238
266 -264 297 -288 358 -272 67 16 110 79 98 143 -5 31 -46 77 -267 298 l-260
261 80 104 c293 383 436 802 436 1279 0 204 -15 323 -64 520 -184 731 -759
1306 -1490 1490 -197 49 -316 64 -520 64 -393 0 -753 -99 -1079 -298 -100 -61
-228 -152 -274 -194 l-28 -26 -252 251 c-139 139 -265 257 -280 263 -39 14
-57 13 -96 -8z m2282 -253 c215 -32 478 -126 660 -235 240 -145 495 -400 640
-641 111 -184 202 -440 238 -668 7 -44 13 -163 13 -265 0 -102 -6 -221 -13
-265 -36 -228 -127 -484 -238 -668 -37 -63 -176 -251 -191 -261 -4 -3 -587
574 -1295 1282 l-1288 1288 28 26 c15 14 62 50 103 80 271 196 585 312 930
342 73 6 334 -3 413 -15z m-364 -1903 c830 -830 1281 -1288 1276 -1296 -10
-17 -179 -139 -252 -184 -184 -110 -440 -201 -668 -237 -103 -16 -427 -16
-530 0 -228 36 -484 127 -668 237 -240 145 -495 400 -640 641 -111 184 -202
440 -238 668 -7 44 -13 163 -13 265 0 102 6 221 13 265 50 316 178 613 373
864 27 34 51 61 56 61 4 0 585 -578 1291 -1284z"/>
<path d="M4183 4143 c-33 -6 -79 -57 -86 -92 -26 -127 122 -210 212 -120 43
42 49 93 18 156 -20 42 -87 68 -144 56z"/>
</g>
</svg>
