<?xml version="1.0" standalone="no"?>
<!DOCTYPE svg PUBLIC "-//W3C//DTD SVG 20010904//EN"
 "http://www.w3.org/TR/2001/REC-SVG-20010904/DTD/svg10.dtd">
<svg version="1.0" xmlns="http://www.w3.org/2000/svg"
 width="1040pt" height="1000pt" viewBox="0 0 1040 1000"
 preserveAspectRatio="xMidYMid meet">
<metadata>
Created by potrace 1.9, written by Peter Selinger 2001-2010
</metadata>
<g transform="translate(0,1000) scale(0.100000,-0.100000)"
fill="#000000" stroke="none">
<path d="M1232 6085 c-51 -22 -257 -202 -363 -316 -546 -592 -784 -1407 -644
-2199 105 -588 405 -1114 858 -1502 71 -61 141 -116 155 -124 23 -12 190 -14
1025 -14 910 0 1002 1 1034 17 19 9 37 22 40 29 2 6 51 51 108 99 354 296 650
753 783 1210 142 486 142 984 0 1470 -106 362 -315 729 -577 1014 -96 103
-306 289 -358 316 -42 22 -2011 21 -2061 0z m2055 -319 c331 -283 584 -677
708 -1099 122 -419 122 -875 0 -1294 -124 -425 -378 -818 -714 -1104 l-104
-89 -917 0 -917 0 -104 89 c-336 286 -590 679 -714 1104 -122 419 -122 875 0
1294 124 422 377 816 708 1099 l98 84 929 0 929 0 98 -84z"/>
<path d="M2223 4143 c-33 -6 -79 -57 -86 -92 -26 -127 122 -210 212 -120 43
42 49 93 18 156 -20 42 -87 68 -144 56z"/>
<path d="M7112 6083 c-18 -9 -41 -28 -51 -42 -41 -58 -1971 -3933 -1976 -3968
-8 -49 19 -100 66 -125 32 -17 84 -18 1034 -18 950 0 1002 1 1034 18 36 19 71
72 71 107 0 35 -35 88 -71 107 -32 17 -81 18 -921 18 -489 0 -888 2 -888 5 0
3 423 851 940 1885 517 1034 940 1890 940 1903 0 37 -34 89 -71 109 -41 22
-64 22 -107 1z"/>
<path d="M8957 5104 c-456 -71 -810 -401 -907 -846 -28 -127 -35 -269 -20
-370 77 -504 428 -865 925 -952 364 -64 780 97 1017 394 190 237 282 571 233
849 -62 355 -254 632 -550 796 -221 122 -460 166 -698 129z m393 -269 c176
-56 318 -152 431 -291 68 -83 117 -178 155 -299 26 -80 29 -104 29 -225 0
-121 -3 -145 -29 -225 -93 -295 -290 -493 -586 -591 -77 -25 -98 -28 -230 -28
-132 0 -153 3 -230 28 -294 97 -494 298 -584 586 -123 394 93 845 482 1010
130 55 215 70 367 65 85 -2 129 -9 195 -30z"/>
</g>
</svg>
