<?xml version="1.0" standalone="no"?>
<!DOCTYPE svg PUBLIC "-//W3C//DTD SVG 20010904//EN"
 "http://www.w3.org/TR/2001/REC-SVG-20010904/DTD/svg10.dtd">
<svg version="1.0" xmlns="http://www.w3.org/2000/svg"
 width="223pt" height="1000pt" viewBox="0 0 223 1000"
 preserveAspectRatio="xMidYMid meet">
<g transform="translate(0,1000) scale(0.100000,-0.100000)"
fill="#000000" stroke="none">
<path d="M180 3030 l0 -970 130 0 130 0 2 821 3 821 275 -818 276 -819 111 -3 111 -3 30 83 c16 46 143 409 283 807 l254 724 3 -806 2 -807 130 0 130 0 0 970 0 970 -169 0 -169 0 -10 -27 c-44 -121 -458 -1287 -508 -1432 -36 -102 -66 -186 -67 -188 -2 -1 -127 369 -277 822 l-274 825 -198 0 -198 0 0 -970z"/>
</g>
</svg>

