<?xml version="1.0" standalone="no"?>
<!DOCTYPE svg PUBLIC "-//W3C//DTD SVG 20010904//EN"
 "http://www.w3.org/TR/2001/REC-SVG-20010904/DTD/svg10.dtd">
<svg version="1.0" xmlns="http://www.w3.org/2000/svg"
 width="746pt" height="1000pt" viewBox="0 0 746 1000"
 preserveAspectRatio="xMidYMid meet">
<metadata>
Created by potrace 1.9, written by Peter Selinger 2001-2010
</metadata>
<g transform="translate(0,1000) scale(0.100000,-0.100000)"
fill="#000000" stroke="none">
<path d="M5037 6579 c-338 -39 -643 -180 -875 -404 -70 -67 -95 -99 -101 -125
-21 -96 61 -174 154 -149 22 6 66 39 118 87 150 142 262 212 438 276 158 57
233 69 424 69 191 0 266 -12 424 -69 175 -64 293 -137 431 -270 41 -39 90 -79
109 -89 49 -25 108 -15 143 24 66 74 49 129 -75 248 -150 143 -346 262 -537
327 -221 74 -445 100 -653 75z"/>
<path d="M5082 5809 c-170 -22 -407 -145 -479 -248 -21 -31 -21 -102 0 -135
46 -70 127 -72 213 -4 135 105 234 142 379 142 150 0 240 -36 389 -152 45 -36
63 -44 99 -44 50 -1 91 22 113 63 33 65 11 122 -74 192 -128 105 -278 169
-432 187 -95 11 -118 11 -208 -1z"/>
<path d="M251 5102 c-19 -10 -43 -34 -53 -53 -17 -32 -18 -84 -18 -1034 0
-950 1 -1002 18 -1034 10 -19 34 -43 53 -53 32 -17 84 -18 1034 -18 950 0
1002 1 1034 18 19 10 43 34 53 53 17 32 18 84 18 1034 0 950 -1 1002 -18 1034
-10 19 -34 43 -53 53 -32 17 -84 18 -1034 18 -950 0 -1002 -1 -1034 -18z
m1889 -1087 l0 -855 -855 0 -855 0 0 855 0 855 855 0 855 0 0 -855z"/>
<path d="M3191 5102 c-19 -10 -43 -34 -53 -53 -17 -32 -18 -84 -18 -1034 0
-950 1 -1002 18 -1034 10 -19 34 -43 53 -53 32 -17 115 -18 2014 -18 1899 0
1982 1 2014 18 19 10 43 34 53 53 17 32 18 84 18 1034 0 950 -1 1002 -18 1034
-10 19 -34 43 -53 53 -32 17 -115 18 -2014 18 -1899 0 -1982 -1 -2014 -18z
m1889 -1087 l0 -855 -855 0 -855 0 0 855 0 855 855 0 855 0 0 -855z m1960 0
l0 -855 -855 0 -855 0 0 855 0 855 855 0 855 0 0 -855z"/>
<path d="M4685 2672 c-52 -12 -95 -65 -95 -117 0 -52 26 -90 101 -147 267
-203 599 -230 896 -74 73 39 172 116 200 155 21 31 21 102 0 135 -46 70 -127
72 -213 4 -135 -105 -234 -142 -379 -142 -143 0 -229 31 -360 129 -68 51 -109
67 -150 57z"/>
<path d="M4173 2175 c-56 -24 -83 -89 -63 -151 30 -89 297 -282 514 -370 461
-188 991 -134 1410 143 100 67 215 165 240 205 9 14 16 47 16 72 0 39 -5 51
-35 81 -30 30 -42 35 -81 35 -48 0 -104 -30 -154 -85 -74 -80 -243 -180 -400
-238 -424 -157 -909 -65 -1248 236 -96 85 -136 100 -199 72z"/>
</g>
</svg>
