<?xml version="1.0" standalone="no"?>
<!DOCTYPE svg PUBLIC "-//W3C//DTD SVG 20010904//EN"
 "http://www.w3.org/TR/2001/REC-SVG-20010904/DTD/svg10.dtd">
<svg version="1.0" xmlns="http://www.w3.org/2000/svg"
 width="452pt" height="1000pt" viewBox="0 0 452 1000"
 preserveAspectRatio="xMidYMid meet">
<metadata>
Created by potrace 1.9, written by Peter Selinger 2001-2010
</metadata>
<g transform="translate(0,1000) scale(0.100000,-0.100000)"
fill="#000000" stroke="none">
<path d="M1690 9980 c-30 -30 -42 -70 -35 -109 4 -19 119 -258 256 -532 271
-542 272 -544 354 -544 78 0 79 1 359 562 235 471 258 523 252 555 -3 20 -17
47 -31 62 -21 23 -32 26 -88 26 -48 0 -71 -5 -87 -18 -13 -10 -109 -191 -215
-402 l-193 -385 -196 392 c-117 235 -203 396 -215 403 -11 5 -47 10 -80 10
-48 0 -65 -4 -81 -20z"/>
<path d="M2090 8044 c-270 -49 -508 -184 -674 -383 -152 -182 -256 -467 -256
-701 0 -291 155 -637 367 -819 l48 -40 -645 -1 c-606 0 -647 -1 -679 -18 -36
-19 -71 -72 -71 -107 0 -35 35 -88 71 -107 32 -17 115 -18 2014 -18 1899 0
1982 1 2014 18 36 19 71 72 71 107 0 35 -35 88 -71 107 -32 17 -73 18 -681 18
l-648 0 83 83 c167 166 268 367 312 618 61 347 -93 758 -373 994 -241 203
-592 302 -882 249z m50 -1084 c0 -727 -2 -840 -14 -840 -33 0 -186 54 -257 91
-144 75 -291 222 -362 364 -19 39 -48 111 -63 160 -26 82 -29 103 -28 230 0
126 3 149 28 225 16 47 44 117 63 155 70 140 221 293 358 363 71 36 225 91
258 92 16 0 17 -47 17 -840z m352 814 c173 -54 316 -151 429 -290 68 -83 117
-178 155 -299 26 -80 29 -104 29 -225 0 -121 -3 -145 -29 -225 -93 -295 -295
-498 -584 -589 -46 -14 -87 -26 -93 -26 -5 0 -9 317 -9 840 0 523 4 840 9 840
6 0 47 -12 93 -26z"/>
</g>
</svg>
