<?xml version="1.0" standalone="no"?>
<!DOCTYPE svg PUBLIC "-//W3C//DTD SVG 20010904//EN"
 "http://www.w3.org/TR/2001/REC-SVG-20010904/DTD/svg10.dtd">
<svg version="1.0" xmlns="http://www.w3.org/2000/svg"
 width="1089pt" height="1000pt" viewBox="0 0 1089 1000"
 preserveAspectRatio="xMidYMid meet">
<metadata>
Created by potrace 1.9, written by Peter Selinger 2001-2010
</metadata>
<g transform="translate(0,1000) scale(0.100000,-0.100000)"
fill="#000000" stroke="none">
<path d="M7111 6572 c-36 -19 -71 -73 -71 -107 1 -57 49 -111 479 -540 l441
-440 -449 -450 c-468 -470 -483 -487 -466 -552 16 -67 79 -110 143 -98 32 5
105 74 550 518 358 358 515 522 523 544 24 73 30 65 -509 607 -290 290 -521
514 -539 522 -43 18 -61 18 -102 -4z"/>
<path d="M9555 6081 c-27 -13 -340 -320 -1000 -980 l-960 -961 -1940 0 c-1860
0 -1942 -1 -1974 -18 -36 -19 -71 -72 -71 -107 0 -35 35 -88 71 -107 31 -17
65 -18 431 -18 l398 0 -445 -890 c-246 -492 -447 -906 -450 -927 -16 -104 101
-175 190 -117 20 13 134 232 467 898 l440 881 439 -877 c478 -955 459 -923
544 -923 22 0 53 9 68 19 23 15 124 209 469 900 l440 881 438 -874 c321 -643
445 -881 466 -898 78 -62 184 -20 201 81 4 27 -61 164 -446 934 -248 496 -451
904 -451 907 0 3 177 5 394 5 250 0 405 4 423 10 16 6 439 422 970 953 l943
942 452 -451 c473 -471 490 -486 555 -469 67 16 110 79 98 143 -5 32 -74 104
-513 546 -290 290 -521 514 -539 522 -42 18 -60 17 -108 -5z m-3471 -2963
c-212 -425 -388 -775 -390 -777 -3 -3 -774 1534 -774 1544 0 3 349 5 775 5
l775 0 -386 -772z"/>
<path d="M751 5123 c-45 -9 -140 -122 -196 -233 -151 -298 -112 -640 102 -902
70 -85 127 -107 192 -74 41 22 64 63 63 113 0 36 -8 54 -44 99 -116 149 -152
239 -152 389 0 145 37 244 142 379 29 36 46 69 49 94 12 86 -65 152 -156 135z"/>
<path d="M1731 5123 c-45 -9 -140 -122 -196 -233 -151 -298 -112 -640 102
-902 70 -85 127 -107 192 -74 41 22 64 63 63 113 0 36 -8 54 -44 99 -116 149
-152 239 -152 389 0 145 37 244 142 379 29 36 46 69 49 94 12 86 -65 152 -156
135z"/>
<path d="M2711 5123 c-45 -9 -140 -122 -196 -233 -151 -298 -112 -640 102
-902 70 -85 127 -107 192 -74 41 22 64 63 63 113 0 36 -8 54 -44 99 -116 149
-152 239 -152 389 0 145 37 244 142 379 29 36 46 69 49 94 12 86 -65 152 -156
135z"/>
</g>
</svg>
