<?xml version="1.0" standalone="no"?>
<!DOCTYPE svg PUBLIC "-//W3C//DTD SVG 20010904//EN"
 "http://www.w3.org/TR/2001/REC-SVG-20010904/DTD/svg10.dtd">
<svg version="1.0" xmlns="http://www.w3.org/2000/svg"
 width="305pt" height="1000pt" viewBox="0 0 305 1000"
 preserveAspectRatio="xMidYMid meet">
<metadata>
Created by potrace 1.9, written by Peter Selinger 2001-2010
</metadata>
<g transform="translate(0,1000) scale(0.100000,-0.100000)"
fill="#000000" stroke="none">
<path d="M2605 8054 c-169 -13 -419 -67 -575 -124 -565 -207 -1023 -665 -1230
-1230 -59 -162 -120 -449 -120 -564 0 -26 -7 -63 -15 -83 -32 -77 -19 -111 85
-228 110 -124 182 -247 239 -407 52 -149 66 -235 65 -413 -1 -225 -30 -354
-124 -550 -55 -115 -118 -203 -304 -423 -117 -139 -229 -337 -285 -507 -150
-454 -84 -927 185 -1331 54 -82 159 -206 198 -234 28 -20 218 -18 364 5 460
71 855 268 1172 585 392 392 604 908 604 1470 0 204 -15 323 -64 520 -165 657
-653 1197 -1290 1430 -151 55 -448 120 -549 120 -30 0 -31 1 -31 46 0 198 113
556 246 777 146 242 399 495 641 641 135 81 328 159 493 200 128 32 147 35
329 50 88 8 166 19 178 26 70 44 69 166 -1 210 -22 14 -124 20 -211 14z
m-1375 -2260 c329 -81 604 -238 850 -484 246 -246 401 -519 485 -850 39 -155
49 -245 49 -440 0 -195 -10 -285 -49 -440 -84 -331 -239 -604 -485 -850 -324
-323 -698 -495 -1167 -534 l-62 -6 -45 51 c-127 141 -228 348 -273 561 -24
115 -24 370 1 488 44 210 150 425 279 566 28 31 67 77 86 104 20 27 63 84 96
127 207 270 307 567 309 913 1 270 -61 518 -184 733 -27 48 -50 89 -50 92 0 6
48 -3 160 -31z"/>
<path d="M1233 3649 c-40 -12 -129 -117 -178 -211 -162 -307 -127 -651 92
-920 54 -66 89 -88 142 -88 40 0 76 29 132 105 205 280 231 604 74 904 -54
103 -136 198 -182 210 -21 6 -40 11 -43 10 -3 0 -19 -5 -37 -10z m89 -439 c17
-51 22 -87 22 -165 0 -99 -7 -134 -47 -228 -20 -48 -21 -48 -33 -25 -38 68
-58 154 -58 253 0 100 7 133 47 228 20 48 21 48 33 25 7 -12 23 -52 36 -88z"/>
</g>
</svg>
