<?xml version="1.0" standalone="no"?>
<!DOCTYPE svg PUBLIC "-//W3C//DTD SVG 20010904//EN"
 "http://www.w3.org/TR/2001/REC-SVG-20010904/DTD/svg10.dtd">
<svg version="1.0" xmlns="http://www.w3.org/2000/svg"
 width="1726pt" height="1000pt" viewBox="0 0 1726 1000"
 preserveAspectRatio="xMidYMid meet">
<metadata>
Created by potrace 1.9, written by Peter Selinger 2001-2010
</metadata>
<g transform="translate(0,1000) scale(0.100000,-0.100000)"
fill="#000000" stroke="none">
<path d="M1721 8042 c-19 -10 -43 -34 -53 -53 -17 -31 -18 -69 -18 -544 0
-475 1 -513 18 -544 10 -19 34 -43 53 -53 31 -17 69 -18 544 -18 475 0 513 1
544 18 19 10 43 34 53 53 17 31 18 69 18 544 0 475 -1 513 -18 544 -10 19 -34
43 -53 53 -31 17 -69 18 -544 18 -475 0 -513 -1 -544 -18z m909 -597 l0 -365
-365 0 -365 0 0 365 0 365 365 0 365 0 0 -365z"/>
<path d="M2211 6082 c-19 -10 -43 -34 -53 -53 -17 -32 -18 -82 -18 -961 l0
-928 -928 0 c-879 0 -929 -1 -961 -18 -36 -19 -71 -72 -71 -107 0 -35 35 -88
71 -107 32 -17 82 -18 961 -18 l928 0 0 -928 c0 -879 1 -929 18 -961 19 -36
72 -71 107 -71 35 0 88 35 107 71 17 32 18 82 18 961 l0 928 928 0 c879 0 929
1 961 18 36 19 71 72 71 107 0 35 -35 88 -71 107 -32 17 -82 18 -961 18 l-928
0 0 928 c0 879 -1 929 -18 961 -19 36 -72 71 -107 71 -11 0 -36 -8 -54 -18z"/>
<path d="M7112 6083 c-18 -9 -41 -28 -51 -42 -10 -14 -127 -244 -260 -509
-185 -369 -245 -482 -257 -478 -90 35 -263 66 -364 66 -234 0 -519 -104 -701
-256 -290 -242 -446 -650 -384 -1003 49 -281 188 -527 386 -686 41 -32 80 -64
87 -70 11 -10 -33 -105 -232 -503 -135 -270 -248 -508 -251 -529 -8 -49 19
-100 66 -125 32 -17 84 -18 1034 -18 950 0 1002 1 1034 18 36 19 71 72 71 107
0 35 -35 88 -71 107 -32 17 -81 18 -921 18 -489 0 -888 2 -888 5 0 3 90 185
200 404 l199 399 60 -18 c89 -28 226 -50 311 -50 239 0 523 106 712 265 280
236 434 647 373 994 -54 310 -207 560 -450 738 l-30 22 253 508 c139 279 253
517 252 528 0 35 -35 88 -71 107 -41 22 -64 22 -107 1z m-729 -1239 c31 -9 57
-21 57 -25 0 -14 -739 -1489 -746 -1489 -15 0 -127 106 -177 168 -66 81 -115
176 -153 297 -26 82 -29 103 -28 230 0 126 3 149 28 225 59 179 144 307 281
422 101 86 253 158 396 188 67 14 274 5 342 -16z m460 -302 c66 -81 115 -176
153 -297 26 -80 29 -104 29 -225 0 -121 -3 -145 -29 -225 -93 -295 -290 -494
-586 -591 -76 -25 -100 -28 -225 -28 -109 -1 -154 3 -202 18 l-62 18 375 750
375 749 58 -50 c32 -28 83 -81 114 -119z"/>
<path d="M10029 6083 c-44 -27 -51 -51 -65 -214 -15 -182 -18 -201 -50 -329
-82 -329 -238 -604 -484 -850 -246 -246 -521 -402 -850 -484 -128 -32 -147
-35 -329 -50 -88 -8 -166 -19 -178 -26 -73 -46 -70 -172 5 -212 60 -31 354 -5
582 52 530 134 985 474 1266 948 l49 82 5 -1492 c5 -1419 6 -1494 23 -1520 19
-27 72 -58 102 -58 30 0 83 31 102 58 17 26 18 101 23 1512 l5 1485 44 -75
c120 -204 334 -445 516 -580 168 -125 392 -249 533 -294 28 -10 52 -21 52 -24
0 -4 -198 -205 -440 -447 -483 -483 -485 -485 -461 -568 11 -36 81 -111 509
-540 521 -521 542 -539 608 -523 68 17 111 80 99 144 -5 32 -68 99 -466 497
l-459 460 453 452 452 452 93 -15 c124 -20 320 -23 354 -6 74 40 77 167 5 212
-12 7 -90 18 -178 26 -182 15 -201 18 -329 50 -165 41 -358 119 -493 200 -240
145 -495 400 -640 641 -82 135 -160 327 -201 493 -32 128 -35 147 -50 329 -8
88 -19 166 -26 178 -32 51 -127 70 -181 36z"/>
<path d="M14945 6081 c-27 -13 -196 -175 -510 -490 l-470 -471 -470 0 c-526 0
-518 1 -557 -71 -45 -85 -43 -89 457 -589 l445 -445 -441 -440 c-430 -429
-478 -483 -479 -540 0 -34 35 -88 71 -107 32 -17 82 -18 961 -18 l928 0 0
-438 c0 -404 1 -440 18 -471 19 -36 72 -71 107 -71 35 0 88 35 107 71 17 31
18 67 18 471 l0 438 928 0 c882 0 929 1 962 18 46 25 74 81 65 130 -6 32 -64
94 -466 497 l-459 460 459 460 c507 507 495 492 454 571 -39 75 -29 74 -563
74 l-475 0 -475 476 c-269 269 -489 482 -507 490 -42 18 -60 17 -108 -5z m500
-732 c293 -294 453 -447 480 -460 37 -17 69 -19 385 -19 l345 0 -387 -387
c-421 -423 -422 -425 -398 -507 10 -35 72 -102 398 -428 l387 -388 -1655 0
-1655 0 392 393 c229 229 397 404 403 422 27 72 27 71 -398 498 l-397 397 348
0 c276 0 354 3 380 14 18 8 226 208 477 460 245 245 447 446 450 446 3 0 203
-198 445 -441z"/>
</g>
</svg>
