<?xml version="1.0" standalone="no"?>
<!DOCTYPE svg PUBLIC "-//W3C//DTD SVG 20010904//EN"
 "http://www.w3.org/TR/2001/REC-SVG-20010904/DTD/svg10.dtd">
<svg version="1.0" xmlns="http://www.w3.org/2000/svg"
 width="452pt" height="1000pt" viewBox="0 0 452 1000"
 preserveAspectRatio="xMidYMid meet">
<metadata>
Created by potrace 1.9, written by Peter Selinger 2001-2010
</metadata>
<g transform="translate(0,1000) scale(0.100000,-0.100000)"
fill="#000000" stroke="none">
<path d="M2205 6081 c-27 -13 -196 -175 -510 -490 l-470 -471 -470 0 c-526 0
-518 1 -557 -71 -45 -85 -43 -89 457 -589 l445 -445 -441 -440 c-430 -429
-478 -483 -479 -540 0 -34 35 -88 71 -107 32 -17 82 -18 961 -18 l928 0 0
-438 c0 -404 1 -440 18 -471 19 -36 72 -71 107 -71 35 0 88 35 107 71 17 31
18 67 18 471 l0 438 928 0 c882 0 929 1 962 18 46 25 74 81 65 130 -6 32 -64
94 -466 497 l-459 460 459 460 c507 507 495 492 454 571 -39 75 -29 74 -563
74 l-475 0 -475 476 c-269 269 -489 482 -507 490 -42 18 -60 17 -108 -5z m500
-732 c293 -294 453 -447 480 -460 37 -17 69 -19 385 -19 l345 0 -387 -387
c-421 -423 -422 -425 -398 -507 10 -35 72 -102 398 -428 l387 -388 -1655 0
-1655 0 392 393 c229 229 397 404 403 422 27 72 27 71 -398 498 l-397 397 348
0 c276 0 354 3 380 14 18 8 226 208 477 460 245 245 447 446 450 446 3 0 203
-198 445 -441z"/>
</g>
</svg>
