<?xml version="1.0" standalone="no"?>
<!DOCTYPE svg PUBLIC "-//W3C//DTD SVG 20010904//EN"
 "http://www.w3.org/TR/2001/REC-SVG-20010904/DTD/svg10.dtd">
<svg version="1.0" xmlns="http://www.w3.org/2000/svg"
 width="942pt" height="1000pt" viewBox="0 0 942 1000"
 preserveAspectRatio="xMidYMid meet">
<metadata>
Created by potrace 1.9, written by Peter Selinger 2001-2010
</metadata>
<g transform="translate(0,1000) scale(0.100000,-0.100000)"
fill="#000000" stroke="none">
<path d="M6997 8044 c-165 -25 -278 -68 -426 -159 -298 -184 -481 -500 -507
-874 -21 -302 135 -674 363 -870 l48 -40 -645 -1 c-606 0 -647 -1 -679 -18
-36 -19 -71 -72 -71 -107 0 -35 35 -88 71 -107 32 -17 115 -18 2014 -18 1899
0 1982 1 2014 18 36 19 71 72 71 107 0 35 -35 88 -71 107 -32 17 -73 18 -681
18 l-648 0 83 83 c167 166 268 367 312 618 61 347 -93 758 -373 994 -147 124
-345 214 -547 249 -107 19 -208 19 -328 0z m43 -1084 c0 -727 -2 -840 -14
-840 -33 0 -186 54 -257 91 -368 191 -550 648 -410 1026 82 222 250 406 449
495 55 24 189 67 215 67 16 1 17 -45 17 -839z m352 814 c173 -54 316 -151 429
-290 68 -83 117 -178 155 -299 26 -80 29 -104 29 -225 0 -121 -3 -145 -29
-225 -93 -295 -295 -498 -584 -589 -46 -14 -87 -26 -93 -26 -5 0 -9 317 -9
840 0 523 4 840 9 840 6 0 47 -12 93 -26z"/>
<path d="M2085 6090 c-509 -46 -985 -276 -1335 -645 -429 -451 -637 -1111
-543 -1730 93 -619 442 -1147 973 -1471 327 -199 686 -298 1080 -298 557 0
1074 211 1461 595 398 396 613 914 613 1479 0 204 -15 323 -64 520 -184 731
-760 1306 -1490 1490 -226 56 -488 79 -695 60z m449 -261 c214 -32 477 -126
659 -235 240 -145 495 -400 640 -641 111 -184 202 -440 238 -668 16 -103 16
-427 0 -530 -36 -228 -127 -484 -238 -668 -145 -241 -400 -496 -640 -641 -184
-110 -440 -201 -668 -237 -103 -16 -427 -16 -530 0 -228 36 -484 127 -668 237
-297 179 -575 484 -717 786 -141 302 -196 600 -171 923 15 184 41 310 102 476
120 330 308 592 589 819 272 221 651 372 985 394 92 6 339 -3 419 -15z"/>
<path d="M1243 5123 c-33 -6 -79 -57 -86 -92 -26 -127 122 -210 212 -120 43
42 49 93 18 156 -20 42 -87 68 -144 56z"/>
<path d="M3203 5123 c-33 -6 -79 -57 -86 -92 -26 -127 122 -210 212 -120 43
42 49 93 18 156 -20 42 -87 68 -144 56z"/>
<path d="M2211 5102 c-19 -10 -43 -34 -53 -53 -17 -32 -18 -82 -18 -961 l0
-928 -438 0 c-404 0 -440 -1 -471 -18 -36 -19 -71 -72 -71 -107 0 -35 35 -88
71 -107 32 -17 84 -18 1034 -18 950 0 1002 1 1034 18 36 19 71 72 71 107 0 35
-35 88 -71 107 -31 17 -67 18 -471 18 l-438 0 0 928 c0 879 -1 929 -18 961
-19 36 -72 71 -107 71 -11 0 -36 -8 -54 -18z"/>
</g>
</svg>
