<?xml version="1.0" standalone="no"?>
<!DOCTYPE svg PUBLIC "-//W3C//DTD SVG 20010904//EN"
 "http://www.w3.org/TR/2001/REC-SVG-20010904/DTD/svg10.dtd">
<svg version="1.0" xmlns="http://www.w3.org/2000/svg"
 width="1334pt" height="1000pt" viewBox="0 0 1334 1000"
 preserveAspectRatio="xMidYMid meet">
<metadata>
Created by potrace 1.9, written by Peter Selinger 2001-2010
</metadata>
<g transform="translate(0,1000) scale(0.100000,-0.100000)"
fill="#000000" stroke="none">
<path d="M1231 6082 c-19 -10 -43 -34 -53 -53 -17 -32 -18 -113 -18 -1941 l0
-1908 -438 0 c-404 0 -440 -1 -471 -18 -36 -19 -71 -72 -71 -107 0 -35 35 -88
71 -107 32 -17 84 -18 1034 -18 950 0 1002 1 1034 18 36 19 71 72 71 107 0 35
-35 88 -71 107 -31 17 -67 18 -471 18 l-438 0 0 1908 c0 1828 -1 1909 -18
1941 -19 36 -72 71 -107 71 -11 0 -36 -8 -54 -18z"/>
<path d="M5055 6094 c-684 -55 -1279 -418 -1631 -994 -143 -235 -234 -491
-279 -780 -21 -137 -25 -328 -7 -362 40 -74 167 -77 212 -5 7 12 18 90 26 178
15 182 18 201 50 329 82 329 238 604 484 850 241 241 514 398 835 481 81 21
237 50 243 44 2 -1 -416 -840 -927 -1864 -527 -1052 -933 -1877 -936 -1898 -8
-49 19 -100 66 -125 32 -17 115 -18 2014 -18 1899 0 1982 1 2014 18 37 20 71
72 71 109 0 13 -423 869 -940 1904 -649 1296 -935 1879 -923 1876 10 -3 41 -8
68 -12 180 -24 463 -126 638 -231 242 -146 495 -399 641 -641 81 -135 159
-328 200 -493 32 -128 35 -147 50 -329 8 -88 19 -166 26 -178 45 -72 172 -69
212 5 18 34 14 225 -7 362 -71 458 -269 853 -585 1170 -378 377 -876 590
-1416 604 -82 2 -171 2 -199 0z m152 -3912 c-963 -1 -1752 0 -1754 2 -2 2 390
793 873 1757 l877 1754 877 -1755 878 -1755 -1751 -3z"/>
<path d="M10541 6083 c-19 -9 -46 -36 -60 -59 -14 -23 -123 -236 -241 -473
l-215 -431 -460 0 c-427 0 -463 -1 -494 -18 -36 -19 -71 -72 -71 -107 0 -35
35 -88 71 -107 31 -17 65 -18 431 -18 l398 0 -427 -855 -428 -855 -460 0
c-515 0 -508 1 -547 -71 -23 -42 -23 -66 0 -108 38 -71 40 -71 484 -71 l398 0
-200 -400 c-110 -219 -202 -416 -205 -437 -11 -74 61 -150 132 -139 69 10 74
18 319 508 l234 468 840 0 840 0 -200 -400 c-110 -219 -202 -416 -205 -437
-11 -74 61 -150 132 -139 69 10 74 18 319 508 l234 468 463 0 c517 0 510 -1
549 71 23 42 23 66 0 108 -38 71 -40 71 -484 71 -219 0 -398 2 -398 5 0 3 191
388 425 855 l425 850 463 0 c429 0 465 1 496 18 36 19 71 72 71 107 0 35 -35
88 -71 107 -31 17 -65 18 -431 18 l-398 0 200 400 c110 219 202 416 205 437
17 111 -116 182 -202 109 -19 -16 -106 -180 -258 -485 l-230 -461 -837 0
c-461 0 -838 2 -838 5 0 2 92 189 205 415 113 226 205 421 205 433 0 37 -34
89 -71 109 -41 22 -64 22 -108 1z m892 -2068 l-428 -855 -837 0 c-461 0 -838
2 -838 5 0 3 191 388 425 855 l425 850 840 0 840 0 -427 -855z"/>
</g>
</svg>
