<?xml version="1.0" standalone="no"?>
<!DOCTYPE svg PUBLIC "-//W3C//DTD SVG 20010904//EN"
 "http://www.w3.org/TR/2001/REC-SVG-20010904/DTD/svg10.dtd">
<svg version="1.0" xmlns="http://www.w3.org/2000/svg"
 width="1040pt" height="1000pt" viewBox="0 0 1040 1000"
 preserveAspectRatio="xMidYMid meet">
<metadata>
Created by potrace 1.9, written by Peter Selinger 2001-2010
</metadata>
<g transform="translate(0,1000) scale(0.100000,-0.100000)"
fill="#000000" stroke="none">
<path d="M2115 6094 c-172 -14 -419 -67 -575 -124 -631 -231 -1120 -769 -1286
-1415 -70 -271 -67 -205 -71 -1420 -4 -1057 -3 -1101 15 -1134 10 -19 34 -43
53 -53 32 -17 115 -18 2014 -18 1899 0 1982 1 2014 18 19 10 43 34 53 53 17
32 18 84 18 1014 0 975 -2 1051 -36 1300 -85 616 -439 1154 -974 1481 -234
142 -489 233 -776 278 -102 16 -357 27 -449 20z m418 -265 c215 -32 478 -126
660 -235 242 -146 495 -399 641 -641 77 -128 158 -324 197 -476 62 -244 69
-380 69 -1414 l0 -883 -1836 0 -1835 0 4 1028 c3 872 6 1039 20 1107 78 409
238 716 517 995 318 317 699 495 1150 534 73 6 334 -3 413 -15z"/>
<path d="M7601 6083 c-19 -9 -46 -36 -60 -59 -14 -23 -123 -236 -241 -473
l-215 -431 -460 0 c-427 0 -463 -1 -494 -18 -36 -19 -71 -72 -71 -107 0 -35
35 -88 71 -107 31 -17 65 -18 431 -18 l398 0 -427 -855 -428 -855 -460 0
c-515 0 -508 1 -547 -71 -23 -42 -23 -66 0 -108 38 -71 40 -71 484 -71 l398 0
-200 -400 c-110 -219 -202 -416 -205 -437 -11 -74 61 -150 132 -139 69 10 74
18 319 508 l234 468 840 0 840 0 -200 -400 c-110 -219 -202 -416 -205 -437
-11 -74 61 -150 132 -139 69 10 74 18 319 508 l234 468 463 0 c517 0 510 -1
549 71 23 42 23 66 0 108 -38 71 -40 71 -484 71 -219 0 -398 2 -398 5 0 3 191
388 425 855 l425 850 463 0 c429 0 465 1 496 18 36 19 71 72 71 107 0 35 -35
88 -71 107 -31 17 -65 18 -431 18 l-398 0 200 400 c110 219 202 416 205 437
17 111 -116 182 -202 109 -19 -16 -106 -180 -258 -485 l-230 -461 -837 0
c-461 0 -838 2 -838 5 0 2 92 189 205 415 113 226 205 421 205 433 0 37 -34
89 -71 109 -41 22 -64 22 -108 1z m892 -2068 l-428 -855 -837 0 c-461 0 -838
2 -838 5 0 3 191 388 425 855 l425 850 840 0 840 0 -427 -855z"/>
</g>
</svg>
