<?xml version="1.0" standalone="no"?>
<!DOCTYPE svg PUBLIC "-//W3C//DTD SVG 20010904//EN"
 "http://www.w3.org/TR/2001/REC-SVG-20010904/DTD/svg10.dtd">
<svg version="1.0" xmlns="http://www.w3.org/2000/svg"
 width="1138pt" height="1000pt" viewBox="0 0 1138 1000"
 preserveAspectRatio="xMidYMid meet">
<metadata>
Created by potrace 1.9, written by Peter Selinger 2001-2010
</metadata>
<g transform="translate(0,1000) scale(0.100000,-0.100000)"
fill="#000000" stroke="none">
<path d="M2205 6081 c-57 -27 -1988 -1962 -2010 -2013 -13 -33 -15 -161 -15
-1035 0 -948 1 -1000 18 -1032 10 -19 34 -43 53 -53 32 -17 115 -18 2014 -18
1899 0 1982 1 2014 18 19 10 43 34 53 53 17 32 18 84 18 1032 0 834 -2 1003
-14 1030 -18 42 -1991 2013 -2029 2027 -39 14 -56 13 -102 -9z m977 -1208
l918 -918 0 -887 0 -888 -1835 0 -1835 0 0 892 0 893 912 912 c502 502 915
913 918 913 3 0 418 -413 922 -917z"/>
<path d="M5151 5102 c-19 -10 -43 -34 -53 -53 -17 -32 -18 -100 -18 -1524 0
-1424 1 -1492 18 -1524 10 -19 34 -43 53 -53 32 -17 146 -18 2994 -18 2848 0
2962 1 2994 18 19 10 43 34 53 53 17 32 18 100 18 1524 0 1424 -1 1492 -18
1524 -10 19 -34 43 -53 53 -32 17 -146 18 -2994 18 -2848 0 -2962 -1 -2994
-18z m5809 -1577 l0 -1345 -2815 0 -2815 0 0 1345 0 1345 2815 0 2815 0 0
-1345z"/>
<path d="M10051 4122 c-71 -38 -71 -35 -71 -524 l0 -438 -1908 0 c-1828 0
-1909 -1 -1941 -18 -36 -19 -71 -72 -71 -107 0 -35 35 -88 71 -107 32 -17 115
-18 2014 -18 1899 0 1982 1 2014 18 19 10 43 34 53 53 17 31 18 69 18 544 0
475 -1 513 -18 544 -19 36 -72 71 -107 71 -11 0 -36 -8 -54 -18z"/>
</g>
</svg>
