<?xml version="1.0" standalone="no"?>
<!DOCTYPE svg PUBLIC "-//W3C//DTD SVG 20010904//EN"
 "http://www.w3.org/TR/2001/REC-SVG-20010904/DTD/svg10.dtd">
<svg version="1.0" xmlns="http://www.w3.org/2000/svg"
 width="452pt" height="1000pt" viewBox="0 0 452 1000"
 preserveAspectRatio="xMidYMid meet">
<metadata>
Created by potrace 1.9, written by Peter Selinger 2001-2010
</metadata>
<g transform="translate(0,1000) scale(0.100000,-0.100000)"
fill="#000000" stroke="none">
<path d="M265 6092 c-33 -12 -51 -26 -68 -53 -16 -24 -17 -178 -17 -2019 0
-1982 0 -1993 20 -2025 11 -18 36 -40 54 -49 37 -17 86 -14 341 20 615 84
1154 439 1481 974 199 327 298 686 298 1080 0 562 -212 1078 -604 1470 -316
315 -715 515 -1165 584 -118 18 -312 28 -340 18z m308 -263 c215 -32 478 -126
660 -235 242 -146 495 -399 641 -641 110 -184 201 -440 237 -668 16 -103 16
-427 0 -530 -36 -228 -127 -484 -237 -668 -146 -242 -399 -495 -641 -641 -216
-129 -579 -246 -767 -246 l-36 0 0 1820 0 1820 36 0 c19 0 68 -5 107 -11z"/>
<path d="M3191 4122 c-19 -10 -43 -34 -53 -53 -17 -31 -18 -69 -18 -542 0
-556 0 -554 58 -594 24 -16 59 -19 332 -23 l305 -5 57 -27 c74 -34 152 -112
186 -186 22 -48 27 -71 27 -142 0 -105 -29 -175 -103 -249 -102 -102 -180
-120 -522 -121 -209 0 -239 -2 -270 -18 -45 -25 -74 -81 -66 -127 8 -43 57
-92 99 -100 18 -3 149 -4 292 -2 299 4 361 14 493 78 148 72 263 214 308 379
23 86 23 234 0 320 -55 204 -217 367 -421 425 -46 13 -115 19 -292 22 l-233 5
0 364 0 364 438 0 c404 0 440 1 471 18 36 19 71 72 71 107 0 35 -35 88 -71
107 -31 17 -69 18 -544 18 -475 0 -513 -1 -544 -18z"/>
</g>
</svg>
