<?xml version="1.0" standalone="no"?>
<!DOCTYPE svg PUBLIC "-//W3C//DTD SVG 20010904//EN"
 "http://www.w3.org/TR/2001/REC-SVG-20010904/DTD/svg10.dtd">
<svg version="1.0" xmlns="http://www.w3.org/2000/svg"
 width="1040pt" height="1000pt" viewBox="0 0 1040 1000"
 preserveAspectRatio="xMidYMid meet">
<metadata>
Created by potrace 1.9, written by Peter Selinger 2001-2010
</metadata>
<g transform="translate(0,1000) scale(0.100000,-0.100000)"
fill="#000000" stroke="none">
<path d="M1110 5104 c-194 -35 -394 -125 -531 -240 -290 -242 -446 -650 -384
-1003 49 -279 185 -523 384 -685 145 -119 339 -206 536 -240 114 -20 216 -20
330 0 489 85 833 432 920 925 61 347 -93 758 -373 994 -241 203 -592 302 -882
249z m400 -269 c176 -56 318 -152 431 -291 68 -83 117 -178 155 -299 26 -80
29 -104 29 -225 0 -121 -3 -145 -29 -225 -93 -295 -290 -493 -586 -591 -77
-25 -98 -28 -230 -28 -132 0 -153 3 -230 28 -179 59 -319 154 -431 292 -68 82
-117 177 -155 299 -26 82 -29 103 -28 230 0 126 3 149 28 225 95 288 291 488
567 579 106 35 147 40 274 37 97 -3 137 -9 205 -31z"/>
<path d="M3191 4122 c-36 -19 -71 -72 -71 -107 0 -35 35 -88 71 -107 31 -17
65 -18 431 -18 l398 0 -445 -890 c-246 -492 -447 -906 -450 -927 -16 -104 101
-175 190 -117 20 13 134 232 467 898 l440 881 439 -877 c478 -955 459 -923
544 -923 22 0 53 9 68 19 23 15 124 209 469 900 l440 881 438 -874 c321 -643
445 -881 466 -898 78 -62 184 -20 201 81 4 27 -61 164 -446 934 -248 496 -451
904 -451 907 0 3 179 5 398 5 366 0 400 1 431 18 36 19 71 72 71 107 0 35 -35
88 -71 107 -32 17 -115 18 -2014 18 -1899 0 -1982 -1 -2014 -18z m2403 -1004
c-212 -425 -388 -775 -390 -777 -3 -3 -774 1534 -774 1544 0 3 349 5 775 5
l775 0 -386 -772z"/>
<path d="M8950 4124 c-194 -35 -394 -125 -531 -240 -290 -242 -446 -650 -384
-1003 49 -279 185 -523 384 -685 145 -119 339 -206 536 -240 364 -64 780 97
1017 394 125 155 201 338 239 568 18 108 18 123 4 221 -57 391 -248 683 -560
856 -221 122 -481 170 -705 129z m400 -269 c292 -93 496 -299 584 -586 14 -47
26 -90 26 -97 0 -9 -194 -12 -840 -12 -727 0 -840 2 -840 14 0 8 12 52 26 98
89 281 290 486 565 577 106 35 147 40 274 37 97 -3 137 -9 205 -31z m610 -952
c0 -4 -12 -45 -26 -92 -87 -287 -289 -490 -584 -587 -77 -25 -98 -28 -230 -28
-132 0 -153 3 -230 28 -295 97 -497 300 -584 587 -14 47 -26 88 -26 92 0 4
378 7 840 7 462 0 840 -3 840 -7z"/>
<path d="M251 2162 c-36 -19 -71 -72 -71 -107 0 -35 35 -88 71 -107 32 -17 84
-18 1034 -18 950 0 1002 1 1034 18 36 19 71 72 71 107 0 35 -35 88 -71 107
-32 17 -84 18 -1034 18 -950 0 -1002 -1 -1034 -18z"/>
</g>
</svg>
