<?xml version="1.0" standalone="no"?>
<!DOCTYPE svg PUBLIC "-//W3C//DTD SVG 20010904//EN"
 "http://www.w3.org/TR/2001/REC-SVG-20010904/DTD/svg10.dtd">
<svg version="1.0" xmlns="http://www.w3.org/2000/svg"
 width="942pt" height="1000pt" viewBox="0 0 942 1000"
 preserveAspectRatio="xMidYMid meet">
<metadata>
Created by potrace 1.9, written by Peter Selinger 2001-2010
</metadata>
<g transform="translate(0,1000) scale(0.100000,-0.100000)"
fill="#000000" stroke="none">
<path d="M2212 8044 c-18 -9 -41 -29 -51 -43 -40 -56 -501 -992 -506 -1028
-11 -74 61 -150 132 -139 68 10 76 22 280 430 l195 391 193 -385 c200 -398
216 -423 282 -436 39 -7 95 18 118 53 41 62 45 53 -233 609 -194 389 -267 525
-287 538 -39 25 -85 29 -123 10z"/>
<path d="M251 6082 c-35 -19 -71 -72 -71 -105 0 -52 40 -101 276 -338 218
-218 243 -247 229 -259 -26 -21 -157 -206 -214 -302 -133 -224 -222 -478 -266
-758 -21 -137 -25 -328 -7 -362 40 -74 167 -77 212 -5 7 12 18 90 26 178 15
182 18 201 50 329 62 249 176 483 336 689 27 34 51 61 56 61 4 0 276 -269 605
-598 l597 -597 -825 -825 -825 -825 0 345 c0 315 -2 348 -18 379 -19 36 -72
71 -107 71 -35 0 -88 -35 -107 -71 -17 -31 -18 -69 -18 -544 0 -475 1 -513 18
-544 10 -19 34 -43 53 -53 31 -17 69 -18 544 -18 475 0 513 1 544 18 35 19 71
72 71 105 0 31 -30 85 -58 104 -24 16 -61 18 -385 23 l-357 5 765 765 765 765
0 -840 c0 -795 1 -842 18 -874 19 -36 72 -71 107 -71 35 0 88 35 107 71 17 32
18 113 18 1936 l0 1903 36 0 c95 0 309 -47 454 -100 264 -97 466 -227 670
-430 246 -246 402 -521 484 -850 32 -128 35 -147 50 -329 8 -88 19 -166 26
-178 45 -72 172 -69 212 5 18 34 14 225 -7 362 -71 458 -269 853 -585 1170
-392 392 -908 604 -1470 604 -393 0 -753 -99 -1079 -298 -100 -61 -228 -152
-274 -194 l-28 -26 -252 251 c-139 139 -265 257 -280 263 -39 14 -57 13 -96
-8z m1889 -1004 l0 -763 -540 540 c-450 450 -537 541 -527 554 18 22 183 142
254 185 218 130 561 241 761 245 l52 1 0 -762z"/>
<path d="M6010 6084 c-122 -22 -238 -62 -349 -121 -308 -161 -509 -452 -568
-819 -16 -100 -16 -107 6 -249 102 -668 339 -1249 727 -1787 213 -295 496
-587 784 -809 106 -82 381 -267 494 -332 62 -36 87 -25 399 182 557 368 1004
871 1327 1494 198 382 327 779 399 1232 20 125 19 131 -5 283 -77 488 -428
840 -920 926 -359 63 -766 -92 -1007 -382 -35 -42 -79 -105 -98 -139 -19 -35
-36 -63 -39 -63 -3 1 -24 33 -47 73 -209 364 -689 586 -1103 511z m400 -269
c292 -94 493 -294 584 -583 32 -103 33 -120 4 -126 -163 -34 -245 -62 -367
-127 -293 -157 -494 -444 -555 -795 -39 -221 3 -461 121 -684 104 -199 260
-350 466 -454 125 -63 241 -98 398 -121 99 -14 112 -14 227 5 233 38 427 123
584 255 280 236 434 647 373 994 -62 352 -254 632 -543 792 -125 69 -207 99
-374 134 -35 7 -35 21 -2 127 56 177 149 315 290 429 80 66 174 115 294 155
77 25 98 28 230 28 132 0 153 -3 230 -28 183 -61 317 -152 431 -292 66 -80
115 -175 155 -294 25 -76 28 -100 28 -220 0 -110 -5 -159 -27 -265 -113 -532
-328 -1027 -628 -1446 -257 -359 -581 -679 -944 -931 -139 -96 -215 -139 -236
-133 -27 9 -256 165 -359 244 -403 311 -780 745 -1005 1156 -227 415 -372 837
-440 1280 -20 130 -15 201 22 318 88 280 289 485 564 576 106 35 147 40 274
37 97 -3 136 -9 205 -31z m630 -1795 c0 -727 -2 -840 -14 -840 -33 0 -186 54
-257 91 -144 75 -291 222 -362 364 -19 39 -48 111 -63 160 -26 82 -29 103 -28
230 0 126 3 149 28 225 16 47 44 117 63 155 70 140 221 293 358 363 71 36 225
91 258 92 16 0 17 -47 17 -840z m352 814 c173 -54 316 -151 429 -290 68 -83
117 -178 155 -299 26 -80 29 -104 29 -225 0 -121 -3 -145 -29 -225 -93 -295
-295 -498 -584 -589 -46 -14 -87 -26 -93 -26 -5 0 -9 317 -9 840 0 523 4 840
9 840 6 0 47 -12 93 -26z"/>
</g>
</svg>
