<?xml version="1.0" standalone="no"?>
<!DOCTYPE svg PUBLIC "-//W3C//DTD SVG 20010904//EN"
 "http://www.w3.org/TR/2001/REC-SVG-20010904/DTD/svg10.dtd">
<svg version="1.0" xmlns="http://www.w3.org/2000/svg"
 width="452pt" height="1000pt" viewBox="0 0 452 1000"
 preserveAspectRatio="xMidYMid meet">
<metadata>
Created by potrace 1.9, written by Peter Selinger 2001-2010
</metadata>
<g transform="translate(0,1000) scale(0.100000,-0.100000)"
fill="#000000" stroke="none">
<path d="M251 6082 c-19 -10 -43 -34 -53 -53 -17 -32 -18 -116 -18 -2039 0
-2180 -3 -2065 56 -2259 36 -119 123 -280 204 -376 167 -199 404 -332 675
-379 364 -64 780 97 1017 394 125 155 201 338 239 569 18 111 19 201 19 2086
0 1889 -1 1972 -18 2004 -19 36 -72 71 -107 71 -35 0 -88 -35 -107 -71 -17
-32 -18 -104 -18 -1659 l0 -1625 -45 51 c-107 123 -303 249 -470 303 -240 78
-440 79 -679 5 -169 -53 -381 -189 -480 -307 l-36 -42 0 1620 c0 1550 -1 1622
-18 1654 -19 36 -72 71 -107 71 -11 0 -36 -8 -54 -18z m1259 -3207 c176 -56
318 -152 431 -291 68 -83 117 -178 155 -299 26 -80 29 -104 29 -225 0 -121 -3
-145 -29 -225 -93 -295 -290 -493 -586 -591 -77 -25 -98 -28 -230 -28 -132 0
-153 3 -230 28 -179 59 -319 154 -431 292 -68 82 -117 177 -155 299 -26 82
-29 103 -28 230 0 126 3 149 28 225 95 288 291 488 567 579 106 35 147 40 274
37 97 -3 137 -9 205 -31z"/>
<path d="M3660 6083 c-39 -25 -138 -142 -203 -239 -250 -378 -318 -830 -191
-1272 51 -178 153 -371 280 -527 l64 -80 -1 -975 -2 -975 36 -37 c65 -67 153
-57 201 23 11 20 44 64 71 98 72 89 168 250 210 350 84 200 118 372 119 596 0
217 -36 400 -116 593 -39 93 -139 260 -212 351 l-56 70 0 966 c0 1064 3 1010
-60 1055 -34 24 -105 26 -140 3z m-50 -1080 l-1 -608 -28 55 c-39 76 -87 213
-108 312 -13 60 -18 127 -17 243 0 177 15 272 63 405 31 83 82 200 87 200 2 0
4 -273 4 -607z m319 -1545 c52 -149 66 -235 65 -413 0 -184 -15 -276 -71 -425
-66 -178 -62 -206 -62 425 0 560 0 569 18 535 10 -19 33 -74 50 -122z"/>
</g>
</svg>
