<?xml version="1.0" standalone="no"?>
<!DOCTYPE svg PUBLIC "-//W3C//DTD SVG 20010904//EN"
 "http://www.w3.org/TR/2001/REC-SVG-20010904/DTD/svg10.dtd">
<svg version="1.0" xmlns="http://www.w3.org/2000/svg"
 width="158pt" height="1000pt" viewBox="0 0 158 1000"
 preserveAspectRatio="xMidYMid meet">
<metadata>
Created by potrace 1.9, written by Peter Selinger 2001-2010
</metadata>
<g transform="translate(0,1000) scale(0.100000,-0.100000)"
fill="#000000" stroke="none">
<path d="M251 8042 c-47 -25 -74 -76 -66 -125 3 -21 118 -263 255 -537 272
-544 273 -545 355 -545 78 1 77 -2 357 559 278 556 274 547 233 609 -23 35
-79 60 -118 53 -66 -13 -82 -38 -282 -436 l-193 -385 -195 391 c-143 286 -202
395 -222 408 -41 27 -85 30 -124 8z"/>
<path d="M720 6083 c-39 -25 -138 -142 -203 -239 -342 -517 -339 -1169 8
-1689 29 -44 74 -104 100 -134 l46 -54 -1 -972 c-1 -681 2 -979 9 -993 16 -30
66 -62 103 -68 43 -7 95 22 122 68 11 19 43 62 69 94 156 192 265 434 313 697
24 126 24 380 1 504 -50 266 -156 502 -312 696 l-55 67 0 966 c0 1063 3 1009
-60 1054 -34 24 -105 26 -140 3z m-50 -1080 l-1 -608 -28 55 c-39 76 -87 213
-108 312 -13 60 -18 127 -17 243 0 177 15 272 63 405 31 83 82 200 87 200 2 0
4 -273 4 -607z m319 -1545 c52 -149 66 -235 65 -413 0 -88 -6 -189 -13 -225
-15 -79 -63 -227 -96 -295 l-23 -50 -1 570 c0 560 0 569 18 535 10 -19 33 -74
50 -122z"/>
</g>
</svg>
