<?xml version="1.0" standalone="no"?>
<!DOCTYPE svg PUBLIC "-//W3C//DTD SVG 20010904//EN"
 "http://www.w3.org/TR/2001/REC-SVG-20010904/DTD/svg10.dtd">
<svg version="1.0" xmlns="http://www.w3.org/2000/svg"
 width="452pt" height="1000pt" viewBox="0 0 452 1000"
 preserveAspectRatio="xMidYMid meet">
<metadata>
Created by potrace 1.9, written by Peter Selinger 2001-2010
</metadata>
<g transform="translate(0,1000) scale(0.100000,-0.100000)"
fill="#000000" stroke="none">
<path d="M4075 8054 c-169 -13 -419 -67 -575 -124 -565 -207 -1023 -665 -1230
-1230 -59 -162 -120 -449 -120 -564 l0 -46 -46 0 c-115 0 -402 -61 -564 -120
-503 -184 -925 -569 -1156 -1055 -133 -280 -198 -574 -198 -895 0 -204 15
-323 64 -520 184 -731 759 -1306 1490 -1490 197 -49 316 -64 520 -64 557 0
1074 211 1461 595 398 396 613 914 613 1479 0 204 -15 323 -64 520 -184 731
-760 1306 -1490 1490 -120 30 -295 60 -349 60 -30 0 -31 1 -31 46 0 198 113
556 246 777 146 242 399 495 641 641 135 81 328 159 493 200 128 32 147 35
329 50 88 8 166 19 178 26 70 44 69 166 -1 210 -22 14 -124 20 -211 14z
m-1542 -2225 c215 -32 478 -126 660 -235 240 -145 495 -400 640 -641 111 -184
202 -440 238 -668 7 -44 13 -163 13 -265 0 -195 -10 -285 -49 -440 -84 -332
-244 -610 -494 -859 -240 -238 -514 -393 -841 -476 -155 -39 -245 -49 -440
-49 -195 0 -285 10 -440 49 -327 83 -601 238 -841 476 -207 206 -342 416 -439
679 -76 209 -104 374 -104 620 0 195 10 285 49 440 84 331 239 604 485 850
318 317 699 495 1150 534 73 6 334 -3 413 -15z"/>
<path d="M2090 5104 c-194 -35 -394 -125 -531 -240 -290 -242 -446 -650 -384
-1003 49 -279 185 -523 384 -685 145 -119 339 -206 536 -240 114 -20 216 -20
330 0 489 85 833 432 920 925 61 347 -93 758 -373 994 -241 203 -592 302 -882
249z m400 -269 c176 -56 318 -152 431 -291 68 -83 117 -178 155 -299 26 -80
29 -104 29 -225 0 -121 -3 -145 -29 -225 -93 -295 -290 -493 -586 -591 -77
-25 -98 -28 -230 -28 -132 0 -153 3 -230 28 -179 59 -319 154 -431 292 -68 82
-117 177 -155 299 -26 82 -29 103 -28 230 0 126 3 149 28 225 95 288 291 488
567 579 106 35 147 40 274 37 97 -3 137 -9 205 -31z"/>
</g>
</svg>
