<?xml version="1.0" standalone="no"?>
<!DOCTYPE svg PUBLIC "-//W3C//DTD SVG 20010904//EN"
 "http://www.w3.org/TR/2001/REC-SVG-20010904/DTD/svg10.dtd">
<svg version="1.0" xmlns="http://www.w3.org/2000/svg"
 width="844pt" height="1000pt" viewBox="0 0 844 1000"
 preserveAspectRatio="xMidYMid meet">
<metadata>
Created by potrace 1.9, written by Peter Selinger 2001-2010
</metadata>
<g transform="translate(0,1000) scale(0.100000,-0.100000)"
fill="#000000" stroke="none">
<path d="M4171 7062 c-19 -10 -43 -34 -53 -53 -17 -32 -18 -97 -18 -1451 l0
-1418 -365 0 -365 0 0 928 c0 879 -1 929 -18 961 -19 36 -72 71 -107 71 -35 0
-88 -35 -107 -71 -17 -32 -18 -82 -18 -961 l0 -928 -365 0 -365 0 0 928 c0
879 -1 929 -18 961 -19 36 -72 71 -107 71 -35 0 -88 -35 -107 -71 -17 -32 -18
-82 -18 -961 l0 -928 -365 0 -365 0 0 928 c0 879 -1 929 -18 961 -19 36 -72
71 -107 71 -35 0 -88 -35 -107 -71 -17 -32 -18 -82 -18 -961 l0 -928 -365 0
-365 0 0 928 c0 879 -1 929 -18 961 -19 36 -72 71 -107 71 -35 0 -88 -35 -107
-71 -17 -32 -18 -84 -18 -1034 0 -950 1 -1002 18 -1034 10 -19 34 -43 53 -53
32 -17 113 -18 1941 -18 l1908 0 0 -855 0 -855 -438 0 c-404 0 -440 -1 -471
-18 -36 -19 -71 -72 -71 -107 0 -35 35 -88 71 -107 32 -17 84 -18 1034 -18
950 0 1002 1 1034 18 36 19 71 72 71 107 0 35 -35 88 -71 107 -31 17 -67 18
-471 18 l-438 0 0 855 0 855 1908 0 c1828 0 1909 1 1941 18 19 10 43 34 53 53
17 32 18 84 18 1034 0 950 -1 1002 -18 1034 -19 36 -72 71 -107 71 -35 0 -88
-35 -107 -71 -17 -32 -18 -82 -18 -961 l0 -928 -365 0 -365 0 0 928 c0 879 -1
929 -18 961 -19 36 -72 71 -107 71 -35 0 -88 -35 -107 -71 -17 -32 -18 -82
-18 -961 l0 -928 -365 0 -365 0 0 928 c0 879 -1 929 -18 961 -19 36 -72 71
-107 71 -35 0 -88 -35 -107 -71 -17 -32 -18 -82 -18 -961 l0 -928 -365 0 -365
0 0 928 c0 879 -1 929 -18 961 -19 36 -72 71 -107 71 -35 0 -88 -35 -107 -71
-17 -32 -18 -82 -18 -961 l0 -928 -365 0 -365 0 0 1418 c0 1354 -1 1419 -18
1451 -19 36 -72 71 -107 71 -11 0 -36 -8 -54 -18z"/>
</g>
</svg>
