<?xml version="1.0" standalone="no"?>
<!DOCTYPE svg PUBLIC "-//W3C//DTD SVG 20010904//EN"
 "http://www.w3.org/TR/2001/REC-SVG-20010904/DTD/svg10.dtd">
<svg version="1.0" xmlns="http://www.w3.org/2000/svg"
 width="1628pt" height="1000pt" viewBox="0 0 1628 1000"
 preserveAspectRatio="xMidYMid meet">
<metadata>
Created by potrace 1.9, written by Peter Selinger 2001-2010
</metadata>
<g transform="translate(0,1000) scale(0.100000,-0.100000)"
fill="#000000" stroke="none">
<path d="M7015 6094 c-684 -55 -1279 -418 -1631 -994 -199 -327 -298 -686
-298 -1080 0 -204 15 -323 64 -520 204 -811 885 -1420 1715 -1534 277 -38 312
-38 590 0 615 85 1155 440 1481 975 199 326 298 686 298 1079 0 204 -15 323
-64 520 -165 656 -654 1197 -1290 1430 -108 39 -286 84 -416 104 -102 16 -357
27 -449 20z m25 -2074 l0 -1820 -41 0 c-193 0 -553 115 -772 246 -240 145
-495 400 -640 641 -111 184 -202 440 -238 668 -7 44 -13 163 -13 265 0 102 6
221 13 265 36 228 127 484 237 668 146 242 399 495 641 641 218 130 561 241
761 245 l52 1 0 -1820z m393 1809 c215 -32 478 -126 660 -235 240 -145 495
-400 640 -641 111 -184 202 -440 238 -668 7 -44 13 -163 13 -265 0 -195 -10
-285 -49 -440 -84 -332 -244 -610 -494 -859 -197 -196 -401 -325 -661 -421
-145 -53 -359 -100 -454 -100 l-36 0 0 1820 0 1820 36 0 c19 0 68 -5 107 -11z"/>
<path d="M11032 6085 c-51 -22 -257 -202 -363 -316 -262 -285 -471 -652 -577
-1014 -85 -290 -121 -608 -103 -888 48 -709 364 -1345 894 -1799 71 -61 141
-116 155 -124 23 -12 331 -14 2005 -14 1822 0 1982 1 2014 17 19 9 37 22 40
29 2 6 51 51 108 99 354 296 650 753 783 1210 142 486 142 984 0 1470 -106
362 -315 729 -577 1014 -96 103 -306 289 -358 316 -42 22 -3971 22 -4021 0z
m4015 -319 c331 -283 584 -677 708 -1099 122 -419 122 -875 0 -1294 -124 -425
-378 -818 -714 -1104 l-104 -89 -1897 0 -1897 0 -104 89 c-336 286 -590 679
-714 1104 -122 419 -122 875 0 1294 124 422 377 816 708 1099 l98 84 1909 0
1909 0 98 -84z"/>
<path d="M12992 5104 c-18 -9 -41 -29 -51 -43 -41 -57 -991 -1973 -996 -2008
-8 -49 19 -100 66 -125 32 -17 84 -18 1034 -18 950 0 1002 1 1034 18 37 20 71
72 71 109 0 13 -227 476 -504 1031 -383 767 -511 1013 -531 1026 -39 25 -85
29 -123 10z m55 -1942 c-424 -1 -772 0 -774 2 -2 2 170 352 383 777 l387 774
387 -775 388 -775 -771 -3z"/>
<path d="M1160 4624 c-14 -2 -59 -9 -100 -15 -220 -31 -402 -100 -597 -225
-150 -97 -271 -203 -305 -268 -49 -95 25 -201 128 -182 26 5 58 28 113 79 118
111 206 173 326 232 208 101 330 129 555 129 217 0 340 -27 537 -119 100 -47
153 -81 253 -161 55 -44 67 -60 78 -99 14 -53 63 -104 187 -194 173 -126 333
-202 531 -252 414 -104 849 -30 1208 208 100 67 215 165 240 205 9 14 16 47
16 72 0 39 -5 51 -35 81 -30 30 -42 35 -81 35 -48 0 -104 -30 -154 -85 -106
-114 -365 -245 -575 -291 -98 -21 -377 -24 -475 -5 -104 20 -218 59 -325 111
-111 54 -265 161 -265 185 0 66 -131 195 -323 319 -189 121 -341 180 -572 222
-80 15 -318 27 -365 18z"/>
</g>
</svg>
