<?xml version="1.0" standalone="no"?>
<!DOCTYPE svg PUBLIC "-//W3C//DTD SVG 20010904//EN"
 "http://www.w3.org/TR/2001/REC-SVG-20010904/DTD/svg10.dtd">
<svg version="1.0" xmlns="http://www.w3.org/2000/svg"
 width="452pt" height="1000pt" viewBox="0 0 452 1000"
 preserveAspectRatio="xMidYMid meet">
<metadata>
Created by potrace 1.9, written by Peter Selinger 2001-2010
</metadata>
<g transform="translate(0,1000) scale(0.100000,-0.100000)"
fill="#000000" stroke="none">
<path d="M2115 6094 c-684 -55 -1279 -418 -1631 -994 -143 -235 -234 -491
-279 -780 -21 -137 -25 -328 -7 -362 40 -74 167 -77 212 -5 7 12 18 90 26 178
15 182 18 201 50 329 82 329 238 604 484 850 246 246 519 401 850 485 155 39
245 49 440 49 195 0 285 -10 440 -49 331 -84 604 -239 850 -485 203 -204 333
-406 430 -670 109 -299 120 -437 120 -1490 l0 -795 -887 887 c-981 980 -914
921 -1004 880 -33 -15 -286 -262 -1025 -1003 -792 -794 -984 -991 -994 -1022
-20 -64 6 -123 67 -152 80 -38 18 -93 1056 943 l947 947 938 -937 c923 -923
971 -968 1029 -968 33 0 86 36 105 71 17 32 18 84 18 1014 0 975 -2 1051 -36
1300 -85 616 -439 1154 -974 1481 -234 142 -489 233 -776 278 -102 16 -357 27
-449 20z"/>
</g>
</svg>
