<?xml version="1.0" standalone="no"?>
<!DOCTYPE svg PUBLIC "-//W3C//DTD SVG 20010904//EN"
 "http://www.w3.org/TR/2001/REC-SVG-20010904/DTD/svg10.dtd">
<svg version="1.0" xmlns="http://www.w3.org/2000/svg"
 width="942pt" height="1000pt" viewBox="0 0 942 1000"
 preserveAspectRatio="xMidYMid meet">
<metadata>
Created by potrace 1.9, written by Peter Selinger 2001-2010
</metadata>
<g transform="translate(0,1000) scale(0.100000,-0.100000)"
fill="#000000" stroke="none">
<path d="M2090 8044 c-270 -49 -508 -184 -674 -383 -152 -182 -256 -467 -256
-701 0 -291 155 -637 367 -819 l48 -40 -645 -1 c-606 0 -647 -1 -679 -18 -36
-19 -71 -72 -71 -107 0 -35 35 -88 71 -107 32 -17 82 -18 961 -18 l928 0 0
-900 0 -900 -485 -970 c-269 -538 -487 -986 -490 -1007 -8 -49 19 -100 66
-125 32 -17 84 -18 1034 -18 950 0 1002 1 1034 18 37 20 71 72 71 109 0 13
-220 464 -490 1003 l-490 980 0 905 0 905 928 0 c879 0 929 1 961 18 36 19 71
72 71 107 0 35 -35 88 -71 107 -32 17 -73 18 -681 18 l-648 0 83 83 c167 166
268 367 312 618 61 347 -93 758 -373 994 -241 203 -592 302 -882 249z m50
-1084 c0 -727 -2 -840 -14 -840 -33 0 -186 54 -257 91 -144 75 -291 222 -362
364 -19 39 -48 111 -63 160 -26 82 -29 103 -28 230 0 126 3 149 28 225 16 47
44 117 63 155 70 140 221 293 358 363 71 36 225 91 258 92 16 0 17 -47 17
-840z m352 814 c173 -54 316 -151 429 -290 68 -83 117 -178 155 -299 26 -80
29 -104 29 -225 0 -121 -3 -145 -29 -225 -93 -295 -295 -498 -584 -589 -46
-14 -87 -26 -93 -26 -5 0 -9 317 -9 840 0 523 4 840 9 840 6 0 47 -12 93 -26z
m-225 -5592 c-424 -1 -772 0 -774 2 -2 2 170 352 383 777 l387 774 387 -775
388 -775 -771 -3z"/>
<path d="M5138 4123 c-46 -29 -53 -56 -51 -182 5 -258 77 -558 195 -813 l41
-88 -41 -87 c-118 -256 -190 -556 -195 -814 -2 -127 6 -154 53 -182 54 -33
138 -15 170 36 7 12 18 90 26 178 15 182 18 201 50 329 21 86 74 244 93 277 5
9 22 -8 56 -54 70 -95 250 -272 359 -353 386 -286 797 -424 1266 -424 469 0
880 138 1266 424 109 81 289 258 359 353 34 46 51 63 56 54 19 -33 72 -191 93
-277 32 -128 35 -147 50 -329 8 -88 19 -166 26 -178 32 -51 116 -69 170 -36
47 28 55 55 53 182 -5 258 -77 558 -195 814 l-41 87 41 88 c118 255 190 555
195 813 2 127 -6 154 -53 182 -54 33 -138 15 -170 -36 -7 -12 -18 -90 -26
-178 -15 -182 -18 -200 -50 -329 -20 -83 -47 -164 -86 -262 l-10 -28 -50 66
c-73 96 -256 275 -362 354 -386 286 -797 424 -1266 424 -469 0 -880 -138
-1266 -424 -106 -79 -289 -258 -362 -354 l-50 -66 -10 28 c-39 98 -66 179 -86
262 -32 129 -35 147 -50 329 -8 88 -19 166 -26 178 -32 51 -119 69 -172 36z
m2295 -254 c215 -32 478 -126 660 -235 117 -71 245 -173 357 -284 105 -105
250 -285 250 -310 0 -24 -159 -219 -259 -319 -240 -238 -514 -393 -841 -476
-155 -39 -245 -49 -440 -49 -195 0 -285 10 -440 49 -327 83 -601 238 -841 476
-100 100 -259 295 -259 319 0 25 145 205 250 310 318 317 699 495 1150 534 73
6 334 -3 413 -15z"/>
</g>
</svg>
