<?xml version="1.0" standalone="no"?>
<!DOCTYPE svg PUBLIC "-//W3C//DTD SVG 20010904//EN"
 "http://www.w3.org/TR/2001/REC-SVG-20010904/DTD/svg10.dtd">
<svg version="1.0" xmlns="http://www.w3.org/2000/svg"
 width="1236pt" height="1000pt" viewBox="0 0 1236 1000"
 preserveAspectRatio="xMidYMid meet">
<metadata>
Created by potrace 1.9, written by Peter Selinger 2001-2010
</metadata>
<g transform="translate(0,1000) scale(0.100000,-0.100000)"
fill="#000000" stroke="none">
<path d="M5152 8044 c-18 -9 -41 -29 -51 -43 -41 -58 -1971 -3933 -1976 -3968
-8 -49 19 -100 66 -125 31 -17 65 -18 431 -18 l398 0 -445 -890 c-246 -492
-447 -906 -450 -927 -8 -49 19 -100 66 -125 32 -17 115 -18 2014 -18 1899 0
1982 1 2014 18 37 20 71 72 71 109 0 12 -202 428 -450 923 -247 495 -450 902
-450 905 0 3 179 5 398 5 366 0 400 1 431 18 37 20 71 72 71 109 0 13 -447
918 -994 2011 -764 1527 -1000 1993 -1021 2006 -39 25 -85 29 -123 10z m932
-2151 l876 -1753 -350 0 -350 0 -479 958 c-377 753 -485 963 -508 978 -15 10
-46 19 -68 19 -85 0 -63 38 -583 -1001 l-477 -954 -347 0 c-192 0 -348 2 -348
5 0 10 1751 3507 1754 3504 2 -2 398 -793 880 -1756z m-877 -3711 c-963 -1
-1752 0 -1754 2 -2 2 390 793 873 1757 l877 1754 877 -1755 878 -1755 -1751
-3z"/>
<path d="M1231 6082 c-19 -10 -43 -34 -53 -53 -17 -32 -18 -83 -18 -1006 l0
-973 -485 -970 c-269 -538 -487 -986 -490 -1007 -16 -104 101 -175 190 -117
20 13 134 232 467 898 l440 881 438 -874 c321 -643 445 -881 466 -898 78 -62
184 -20 201 81 4 27 -67 175 -486 1014 l-491 982 0 978 c0 927 -1 979 -18
1011 -19 36 -72 71 -107 71 -11 0 -36 -8 -54 -18z"/>
<path d="M8091 6082 c-36 -19 -71 -72 -71 -107 0 -35 35 -88 71 -107 28 -15
58 -18 184 -18 l150 0 -42 -36 c-73 -61 -170 -187 -226 -295 -65 -122 -101
-233 -124 -375 -16 -100 -16 -107 6 -249 115 -747 399 -1390 872 -1976 194
-240 537 -560 764 -712 l40 -27 -795 0 c-751 0 -797 -1 -829 -18 -36 -19 -71
-72 -71 -107 0 -35 35 -88 71 -107 32 -17 115 -18 2014 -18 1899 0 1982 1
2014 18 36 19 71 72 71 107 0 35 -35 88 -71 107 -32 17 -78 18 -829 19 -751 0
-794 1 -770 17 80 55 238 180 344 272 553 485 996 1189 1196 1905 64 226 132
588 123 655 -42 339 -134 550 -324 742 l-77 78 151 0 c128 0 158 3 186 18 36
19 71 72 71 107 0 35 -35 88 -71 107 -32 17 -115 18 -2014 18 -1899 0 -1982
-1 -2014 -18z m1259 -267 c353 -114 585 -399 619 -764 5 -54 15 -107 22 -119
43 -69 175 -69 218 0 7 12 17 65 22 119 17 179 89 357 197 484 115 137 243
222 422 281 77 25 98 28 230 28 132 0 153 -3 230 -28 183 -61 317 -152 431
-292 66 -80 115 -175 155 -294 25 -76 28 -100 28 -220 0 -110 -5 -159 -27
-265 -113 -532 -328 -1027 -628 -1446 -257 -359 -581 -679 -944 -931 -139 -96
-215 -139 -236 -133 -27 9 -256 165 -359 244 -403 311 -780 745 -1005 1156
-227 415 -372 837 -440 1280 -20 130 -15 201 22 318 88 280 289 485 564 576
106 35 147 40 274 37 97 -3 136 -9 205 -31z m993 -1 c-60 -50 -164 -179 -204
-251 -19 -35 -36 -63 -39 -63 -3 0 -20 27 -38 60 -41 75 -139 197 -200 250
l-47 40 285 0 285 0 -42 -36z"/>
</g>
</svg>
