<?xml version="1.0" standalone="no"?>
<!DOCTYPE svg PUBLIC "-//W3C//DTD SVG 20010904//EN"
 "http://www.w3.org/TR/2001/REC-SVG-20010904/DTD/svg10.dtd">
<svg version="1.0" xmlns="http://www.w3.org/2000/svg"
 width="942pt" height="1000pt" viewBox="0 0 942 1000"
 preserveAspectRatio="xMidYMid meet">
<metadata>
Created by potrace 1.9, written by Peter Selinger 2001-2010
</metadata>
<g transform="translate(0,1000) scale(0.100000,-0.100000)"
fill="#000000" stroke="none">
<path d="M2115 6094 c-684 -55 -1279 -418 -1631 -994 -143 -235 -234 -491
-279 -780 -21 -137 -25 -328 -7 -362 40 -74 167 -77 212 -5 7 12 18 90 26 178
15 182 18 201 50 329 82 329 238 604 484 850 241 241 514 398 835 481 81 21
237 50 243 44 2 -1 -416 -840 -927 -1864 -527 -1052 -933 -1877 -936 -1898 -8
-49 19 -100 66 -125 32 -17 115 -18 2014 -18 1899 0 1982 1 2014 18 37 20 71
72 71 109 0 13 -423 869 -940 1904 -649 1296 -935 1879 -923 1876 10 -3 41 -8
68 -12 180 -24 463 -126 638 -231 242 -146 495 -399 641 -641 81 -135 159
-328 200 -493 32 -128 35 -147 50 -329 8 -88 19 -166 26 -178 45 -72 172 -69
212 5 18 34 14 225 -7 362 -71 458 -269 853 -585 1170 -378 377 -876 590
-1416 604 -82 2 -171 2 -199 0z m152 -3912 c-963 -1 -1752 0 -1754 2 -2 2 390
793 873 1757 l877 1754 877 -1755 878 -1755 -1751 -3z"/>
<path d="M7015 6094 c-684 -55 -1279 -418 -1631 -994 -148 -244 -241 -509
-280 -800 -9 -69 -19 -130 -23 -136 -3 -6 -14 -23 -24 -37 -26 -36 -25 -102 2
-138 17 -23 24 -52 31 -137 30 -335 127 -638 294 -911 326 -535 865 -890 1481
-975 277 -38 312 -38 590 0 615 85 1155 440 1481 975 199 326 298 686 298
1079 0 204 -15 323 -64 520 -165 656 -654 1197 -1290 1430 -108 39 -286 84
-416 104 -102 16 -357 27 -449 20z m25 -994 c0 -407 -2 -740 -5 -740 -2 0 -35
20 -72 44 -183 118 -391 187 -649 217 -272 31 -621 -40 -858 -176 -44 -25 -81
-44 -82 -42 -2 1 6 36 16 77 39 150 120 346 196 473 146 242 399 495 641 641
218 130 561 241 761 245 l52 1 0 -740z m393 729 c215 -32 478 -126 660 -235
297 -179 575 -484 717 -786 101 -216 154 -417 174 -659 4 -55 3 -58 -32 -91
-132 -125 -357 -238 -567 -284 -98 -21 -377 -24 -475 -5 -173 34 -372 120
-505 218 -125 93 -115 6 -115 1007 l0 846 36 0 c19 0 68 -5 107 -11z m-1009
-1474 c212 -44 423 -150 574 -288 l42 -40 0 -836 0 -836 -397 397 c-343 342
-403 398 -435 403 -64 12 -127 -31 -143 -98 -16 -64 2 -87 383 -469 l365 -367
-94 24 c-167 43 -358 121 -492 201 -297 179 -575 484 -717 786 -108 232 -160
439 -176 699 l-7 116 74 61 c162 134 398 235 610 261 101 13 318 6 413 -14z
m1105 -726 c444 -195 969 -161 1389 92 l53 31 -6 -38 c-35 -201 -130 -458
-232 -627 -145 -241 -400 -496 -640 -641 -134 -80 -325 -158 -492 -201 l-94
-24 376 377 c323 325 377 382 382 414 12 64 -31 127 -98 143 -64 17 -86 -1
-489 -403 l-388 -387 0 697 0 698 76 -47 c42 -25 115 -63 163 -84z"/>
</g>
</svg>
