<?xml version="1.0" standalone="no"?>
<!DOCTYPE svg PUBLIC "-//W3C//DTD SVG 20010904//EN"
 "http://www.w3.org/TR/2001/REC-SVG-20010904/DTD/svg10.dtd">
<svg version="1.0" xmlns="http://www.w3.org/2000/svg"
 width="844pt" height="1000pt" viewBox="0 0 844 1000"
 preserveAspectRatio="xMidYMid meet">
<metadata>
Created by potrace 1.9, written by Peter Selinger 2001-2010
</metadata>
<g transform="translate(0,1000) scale(0.100000,-0.100000)"
fill="#000000" stroke="none">
<path d="M1232 8044 c-18 -9 -41 -29 -51 -43 -40 -56 -501 -992 -506 -1028
-11 -74 61 -150 132 -139 68 10 76 22 280 430 l195 391 193 -385 c200 -398
216 -423 282 -436 39 -7 95 18 118 53 41 62 45 53 -233 609 -194 389 -267 525
-287 538 -39 25 -85 29 -123 10z"/>
<path d="M1110 5104 c-194 -35 -394 -125 -531 -240 -290 -242 -446 -650 -384
-1003 49 -279 185 -523 384 -685 145 -119 339 -206 536 -240 114 -20 216 -20
330 0 489 85 833 432 920 925 61 347 -93 758 -373 994 -241 203 -592 302 -882
249z m400 -269 c176 -56 318 -152 431 -291 68 -83 117 -178 155 -299 26 -80
29 -104 29 -225 0 -121 -3 -145 -29 -225 -93 -295 -290 -493 -586 -591 -77
-25 -98 -28 -230 -28 -132 0 -153 3 -230 28 -179 59 -319 154 -431 292 -68 82
-117 177 -155 299 -26 82 -29 103 -28 230 0 126 3 149 28 225 95 288 291 488
567 579 106 35 147 40 274 37 97 -3 137 -9 205 -31z"/>
<path d="M3191 4122 c-36 -19 -71 -72 -71 -107 0 -35 35 -88 71 -107 31 -17
65 -18 431 -18 l398 0 -339 -677 c-306 -612 -345 -684 -395 -737 -93 -99 -147
-225 -161 -376 -5 -53 -3 -71 13 -99 24 -44 77 -74 119 -67 64 9 81 31 183
236 l99 197 53 23 c42 19 71 24 138 24 105 1 175 -28 249 -102 64 -64 90 -117
107 -216 16 -96 26 -117 64 -139 57 -34 143 -13 172 41 17 34 14 141 -7 222
-65 251 -274 420 -552 446 l-72 7 266 531 265 531 439 -877 c478 -955 459
-923 544 -923 71 1 88 21 195 235 l99 197 53 23 c42 19 71 24 138 24 105 1
175 -28 249 -102 64 -64 90 -117 107 -216 16 -96 26 -117 64 -139 57 -34 143
-13 172 41 17 34 14 141 -7 222 -65 251 -274 420 -552 446 l-72 7 266 531 265
531 438 -874 c321 -643 445 -881 466 -898 41 -32 84 -38 127 -18 49 23 67 55
79 139 13 95 46 165 108 226 75 76 144 105 250 105 105 0 175 -29 249 -103 64
-64 90 -117 107 -216 8 -45 19 -90 25 -102 26 -50 114 -70 169 -37 42 24 55
58 54 132 -6 258 -190 488 -444 557 -86 23 -234 23 -319 0 -127 -34 -250 -115
-321 -210 l-34 -47 -373 743 c-204 409 -372 746 -372 751 -1 4 178 7 397 7
366 0 400 1 431 18 36 19 71 72 71 107 0 35 -35 88 -71 107 -32 17 -115 18
-2014 18 -1899 0 -1982 -1 -2014 -18z m2448 -914 c-198 -396 -350 -689 -364
-699 -12 -10 -40 -41 -61 -69 l-39 -51 -372 743 c-204 409 -372 746 -372 751
-1 4 348 7 774 7 l775 0 -341 -682z"/>
</g>
</svg>
