<?xml version="1.0" standalone="no"?>
<!DOCTYPE svg PUBLIC "-//W3C//DTD SVG 20010904//EN"
 "http://www.w3.org/TR/2001/REC-SVG-20010904/DTD/svg10.dtd">
<svg version="1.0" xmlns="http://www.w3.org/2000/svg"
 width="844pt" height="1000pt" viewBox="0 0 844 1000"
 preserveAspectRatio="xMidYMid meet">
<metadata>
Created by potrace 1.9, written by Peter Selinger 2001-2010
</metadata>
<g transform="translate(0,1000) scale(0.100000,-0.100000)"
fill="#000000" stroke="none">
<path d="M2211 6082 c-19 -10 -43 -34 -53 -53 -17 -32 -18 -81 -18 -921 0
-489 -2 -888 -5 -888 -3 0 -410 203 -905 450 -495 248 -911 450 -923 450 -65
0 -133 -75 -123 -138 11 -76 -10 -64 1002 -570 l954 -477 0 -950 c0 -901 1
-952 18 -984 10 -19 34 -43 53 -53 32 -17 115 -18 2014 -18 1899 0 1982 1
2014 18 19 10 43 34 53 53 17 32 18 81 18 921 l0 888 890 -445 c492 -246 906
-447 927 -450 104 -16 175 101 117 190 -13 20 -249 143 -976 506 l-958 479 0
953 c0 903 -1 954 -18 986 -10 19 -34 43 -53 53 -32 17 -115 18 -2014 18
-1899 0 -1982 -1 -2014 -18z m3849 -1047 c0 -448 -2 -815 -5 -815 -3 0 -410
203 -905 450 -495 248 -911 450 -923 450 -37 0 -89 -34 -109 -71 -17 -32 -18
-81 -18 -921 0 -489 -2 -888 -5 -888 -3 0 -388 191 -855 425 l-850 425 0 880
0 880 1835 0 1835 0 0 -815z m0 -1977 l0 -878 -1835 0 -1835 0 0 815 0 815
890 -445 c492 -246 906 -447 927 -450 49 -8 100 19 125 66 17 32 18 81 18 921
l0 888 855 -427 855 -428 0 -877z"/>
</g>
</svg>
