<?xml version="1.0" standalone="no"?>
<!DOCTYPE svg PUBLIC "-//W3C//DTD SVG 20010904//EN"
 "http://www.w3.org/TR/2001/REC-SVG-20010904/DTD/svg10.dtd">
<svg version="1.0" xmlns="http://www.w3.org/2000/svg"
 width="1334pt" height="1000pt" viewBox="0 0 1334 1000"
 preserveAspectRatio="xMidYMid meet">
<metadata>
Created by potrace 1.9, written by Peter Selinger 2001-2010
</metadata>
<g transform="translate(0,1000) scale(0.100000,-0.100000)"
fill="#000000" stroke="none">
<path d="M7105 6086 c-63 -27 -89 -120 -51 -178 10 -15 68 -70 129 -122 349
-294 605 -686 732 -1119 122 -419 122 -875 0 -1294 -127 -433 -383 -825 -732
-1119 -128 -109 -146 -133 -146 -190 0 -85 77 -141 158 -114 20 7 93 60 163
120 448 380 752 913 857 1500 70 395 48 793 -67 1185 -135 462 -423 905 -790
1216 -150 127 -187 144 -253 115z"/>
<path d="M10935 6094 c-684 -55 -1279 -418 -1631 -994 -199 -327 -298 -686
-298 -1080 0 -204 15 -323 64 -520 184 -731 759 -1306 1490 -1490 197 -49 316
-64 520 -64 557 0 1074 211 1461 595 398 396 613 914 613 1479 0 204 -15 323
-64 520 -165 656 -654 1197 -1290 1430 -108 39 -286 84 -416 104 -102 16 -357
27 -449 20z m418 -265 c215 -32 478 -126 660 -235 240 -145 495 -400 640 -641
111 -184 202 -440 238 -668 7 -44 13 -163 13 -265 0 -195 -10 -285 -49 -440
-84 -332 -244 -610 -494 -859 -240 -238 -514 -393 -841 -476 -155 -39 -245
-49 -440 -49 -195 0 -285 10 -440 49 -327 83 -601 238 -841 476 -207 206 -342
416 -439 679 -76 209 -104 374 -104 620 0 195 10 285 49 440 84 331 239 604
485 850 318 317 699 495 1150 534 73 6 334 -3 413 -15z"/>
<path d="M11025 5591 c-27 -13 -201 -180 -531 -512 -513 -516 -526 -530 -509
-596 16 -67 79 -110 143 -98 32 5 98 68 494 463 l458 457 452 -452 c473 -470
490 -485 555 -468 67 16 110 79 98 143 -5 32 -74 104 -513 546 -290 290 -521
514 -539 522 -42 18 -60 17 -108 -5z"/>
<path d="M1110 4124 c-270 -49 -508 -184 -674 -383 -76 -91 -164 -253 -200
-368 -53 -171 -69 -347 -35 -401 43 -68 165 -68 208 0 7 12 17 65 22 119 34
365 263 647 619 765 77 25 98 28 230 28 132 0 153 -3 230 -28 122 -41 225 -96
305 -164 188 -159 292 -361 315 -614 23 -248 62 -397 147 -558 157 -299 445
-502 798 -564 364 -64 780 97 1017 394 153 190 228 402 258 728 35 378 258
658 620 778 77 25 98 28 230 28 132 0 153 -3 230 -28 183 -61 317 -152 431
-292 104 -127 171 -298 188 -473 5 -54 15 -107 22 -119 43 -68 165 -68 208 0
51 83 -5 375 -111 580 -160 308 -444 509 -804 572 -223 39 -459 -2 -683 -121
-192 -100 -344 -252 -444 -444 -86 -162 -123 -304 -147 -553 -35 -381 -259
-663 -620 -782 -77 -25 -98 -28 -230 -28 -132 0 -153 3 -230 28 -179 59 -319
154 -431 292 -106 130 -172 299 -189 490 -27 284 -81 461 -195 639 -222 347
-685 552 -1085 479z"/>
</g>
</svg>
