<?xml version="1.0" standalone="no"?>
<!DOCTYPE svg PUBLIC "-//W3C//DTD SVG 20010904//EN"
 "http://www.w3.org/TR/2001/REC-SVG-20010904/DTD/svg10.dtd">
<svg version="1.0" xmlns="http://www.w3.org/2000/svg"
 width="1726pt" height="1000pt" viewBox="0 0 1726 1000"
 preserveAspectRatio="xMidYMid meet">
<metadata>
Created by potrace 1.9, written by Peter Selinger 2001-2010
</metadata>
<g transform="translate(0,1000) scale(0.100000,-0.100000)"
fill="#000000" stroke="none">
<path d="M14952 8044 c-18 -9 -41 -29 -51 -43 -41 -58 -1971 -3933 -1976
-3968 -8 -49 19 -100 66 -125 31 -17 65 -18 431 -18 l398 0 -445 -890 c-246
-492 -447 -906 -450 -927 -8 -49 19 -100 66 -125 32 -17 115 -18 2014 -18
1899 0 1982 1 2014 18 37 20 71 72 71 109 0 12 -202 428 -450 923 -247 495
-450 902 -450 905 0 3 179 5 398 5 366 0 400 1 431 18 37 20 71 72 71 109 0
13 -447 918 -994 2011 -764 1527 -1000 1993 -1021 2006 -39 25 -85 29 -123 10z
m932 -2151 l876 -1753 -350 0 -350 0 -479 958 c-377 753 -485 963 -508 978
-15 10 -46 19 -68 19 -85 0 -63 38 -583 -1001 l-477 -954 -347 0 c-192 0 -348
2 -348 5 0 10 1751 3507 1754 3504 2 -2 398 -793 880 -1756z m-877 -3711
c-963 -1 -1752 0 -1754 2 -2 2 390 793 873 1757 l877 1754 877 -1755 878
-1755 -1751 -3z"/>
<path d="M1231 6082 c-19 -10 -43 -34 -53 -53 -17 -32 -18 -113 -18 -1941 l0
-1908 -438 0 c-404 0 -440 -1 -471 -18 -36 -19 -71 -72 -71 -107 0 -35 35 -88
71 -107 32 -17 84 -18 1034 -18 950 0 1002 1 1034 18 36 19 71 72 71 107 0 35
-35 88 -71 107 -31 17 -67 18 -471 18 l-438 0 0 1908 c0 1828 -1 1909 -18
1941 -19 36 -72 71 -107 71 -11 0 -36 -8 -54 -18z"/>
<path d="M5145 6081 c-27 -13 -201 -180 -531 -512 -513 -516 -526 -530 -509
-596 16 -67 79 -110 143 -98 32 5 92 61 435 403 l397 397 0 -1738 0 -1737 -41
0 c-193 0 -553 115 -772 246 -240 145 -495 400 -640 641 -82 135 -160 327
-201 493 -32 128 -35 147 -50 329 -8 88 -19 166 -26 178 -45 72 -172 69 -212
-5 -31 -60 -5 -354 52 -582 204 -811 885 -1420 1715 -1534 277 -38 312 -38
590 0 615 85 1155 440 1481 975 143 234 234 490 279 779 21 137 25 328 7 362
-40 74 -167 77 -212 5 -7 -12 -18 -90 -26 -178 -15 -182 -18 -201 -50 -329
-82 -330 -242 -610 -493 -859 -197 -196 -401 -325 -661 -421 -145 -53 -359
-100 -454 -100 l-36 0 0 1732 0 1733 388 -387 c403 -402 425 -420 489 -403 67
16 110 79 98 143 -5 32 -74 104 -513 546 -290 290 -521 514 -539 522 -42 18
-60 17 -108 -5z"/>
<path d="M9955 6094 c-172 -14 -419 -67 -575 -124 -631 -231 -1120 -769 -1286
-1415 -70 -271 -67 -205 -71 -1420 -4 -1057 -3 -1101 15 -1134 10 -19 34 -43
53 -53 32 -17 115 -18 2014 -18 1899 0 1982 1 2014 18 19 10 43 34 53 53 17
32 18 84 18 1014 0 975 -2 1051 -36 1300 -85 616 -439 1154 -974 1481 -234
142 -489 233 -776 278 -102 16 -357 27 -449 20z m418 -265 c215 -32 478 -126
660 -235 242 -146 495 -399 641 -641 77 -128 158 -324 197 -476 62 -244 69
-380 69 -1414 l0 -883 -1836 0 -1835 0 4 1028 c3 872 6 1039 20 1107 78 409
238 716 517 995 318 317 699 495 1150 534 73 6 334 -3 413 -15z"/>
</g>
</svg>
