<?xml version="1.0" standalone="no"?>
<!DOCTYPE svg PUBLIC "-//W3C//DTD SVG 20010904//EN"
 "http://www.w3.org/TR/2001/REC-SVG-20010904/DTD/svg10.dtd">
<svg version="1.0" xmlns="http://www.w3.org/2000/svg"
 width="1138pt" height="1000pt" viewBox="0 0 1138 1000"
 preserveAspectRatio="xMidYMid meet">
<metadata>
Created by potrace 1.9, written by Peter Selinger 2001-2010
</metadata>
<g transform="translate(0,1000) scale(0.100000,-0.100000)"
fill="#000000" stroke="none">
<path d="M3070 6084 c-194 -35 -394 -125 -531 -240 -202 -168 -335 -405 -383
-680 -28 -160 -17 -307 40 -493 27 -90 118 -274 160 -325 l26 -29 -1090 -1091
c-1151 -1152 -1123 -1122 -1107 -1196 8 -39 56 -87 95 -95 16 -4 45 -2 62 4
24 8 350 328 1123 1101 599 599 1094 1090 1098 1090 5 0 23 -11 40 -24 58 -44
221 -124 303 -150 180 -55 338 -68 499 -40 489 85 833 432 920 925 61 347 -93
758 -373 994 -241 203 -592 302 -882 249z m400 -269 c176 -56 318 -152 431
-291 68 -83 117 -178 155 -299 26 -80 29 -104 29 -225 0 -121 -3 -145 -29
-225 -93 -295 -290 -493 -586 -591 -77 -25 -98 -28 -230 -28 -132 0 -153 3
-230 28 -151 50 -304 142 -343 206 -9 14 -26 32 -39 39 -63 35 -155 190 -204
346 -26 82 -29 103 -28 230 0 126 3 149 28 225 95 288 291 488 567 579 106 35
147 40 274 37 97 -3 137 -9 205 -31z"/>
<path d="M7015 6094 c-684 -55 -1279 -418 -1631 -994 -143 -235 -234 -491
-279 -780 -21 -137 -25 -328 -7 -362 40 -74 167 -77 212 -5 7 12 18 90 26 178
15 182 18 201 50 329 82 329 238 604 484 850 246 246 519 401 850 485 155 39
245 49 440 49 195 0 285 -10 440 -49 331 -84 604 -239 850 -485 241 -242 401
-519 481 -835 11 -44 22 -89 26 -100 3 -11 -165 150 -373 357 -415 413 -411
409 -487 373 -61 -29 -87 -88 -67 -152 17 -53 973 -1015 1039 -1045 88 -40 61
-62 629 505 358 358 515 522 523 544 6 18 8 47 4 63 -8 39 -56 87 -95 95 -70
15 -85 3 -506 -417 -318 -316 -403 -397 -407 -382 -3 11 -9 39 -12 64 -11 77
-63 271 -95 360 -207 565 -665 1023 -1230 1230 -108 39 -286 84 -416 104 -102
16 -357 27 -449 20z"/>
<path d="M7084 4111 c-21 -16 -256 -246 -520 -512 -503 -505 -516 -520 -499
-586 16 -67 79 -110 143 -98 32 5 93 62 443 412 224 223 409 401 411 397 3 -5
9 -31 12 -59 4 -27 20 -102 36 -165 184 -731 759 -1306 1490 -1490 197 -49
316 -64 520 -64 557 0 1074 211 1461 595 322 320 523 719 594 1179 21 137 25
328 7 362 -40 74 -167 77 -212 5 -7 -12 -18 -90 -26 -178 -15 -182 -18 -201
-50 -329 -41 -166 -119 -358 -201 -493 -145 -241 -400 -496 -640 -641 -184
-110 -440 -201 -668 -237 -103 -16 -427 -16 -530 0 -228 36 -484 127 -668 237
-240 145 -495 400 -640 641 -81 133 -159 325 -202 492 l-24 94 372 -370 c391
-389 408 -403 477 -388 40 9 88 58 95 99 4 18 1 46 -7 64 -11 28 -978 1008
-1033 1048 -34 24 -97 18 -141 -15z"/>
</g>
</svg>
