<?xml version="1.0" standalone="no"?>
<!DOCTYPE svg PUBLIC "-//W3C//DTD SVG 20010904//EN"
 "http://www.w3.org/TR/2001/REC-SVG-20010904/DTD/svg10.dtd">
<svg version="1.0" xmlns="http://www.w3.org/2000/svg"
 width="648pt" height="1000pt" viewBox="0 0 648 1000"
 preserveAspectRatio="xMidYMid meet">
<metadata>
Created by potrace 1.9, written by Peter Selinger 2001-2010
</metadata>
<g transform="translate(0,1000) scale(0.100000,-0.100000)"
fill="#000000" stroke="none">
<path d="M2115 6094 c-684 -55 -1279 -418 -1631 -994 -199 -327 -298 -686
-298 -1080 0 -204 15 -323 64 -520 133 -529 475 -986 948 -1266 l82 -49 -507
-5 c-469 -5 -510 -6 -535 -23 -28 -19 -58 -73 -58 -104 0 -33 36 -86 71 -105
32 -17 115 -18 2014 -18 1899 0 1982 1 2014 18 35 19 71 72 71 105 0 31 -30
85 -58 104 -25 17 -66 18 -540 23 l-512 5 82 49 c473 280 815 737 948 1266 49
197 64 316 64 520 0 204 -15 323 -64 520 -165 656 -654 1197 -1290 1430 -108
39 -286 84 -416 104 -102 16 -357 27 -449 20z m418 -265 c215 -32 478 -126
660 -235 240 -145 495 -400 640 -641 111 -184 202 -440 238 -668 7 -44 13
-163 13 -265 0 -195 -10 -285 -49 -440 -84 -332 -244 -610 -494 -859 -240
-238 -514 -393 -841 -476 -155 -39 -245 -49 -440 -49 -195 0 -285 10 -440 49
-327 83 -601 238 -841 476 -207 206 -342 416 -439 679 -76 209 -104 374 -104
620 0 195 10 285 49 440 84 331 239 604 485 850 318 317 699 495 1150 534 73
6 334 -3 413 -15z"/>
<path d="M5615 4133 c-256 -40 -449 -208 -510 -443 -21 -81 -24 -188 -7 -222
29 -54 115 -75 172 -41 38 22 48 43 64 139 17 99 43 152 107 216 74 74 144
103 249 103 71 0 94 -5 142 -27 111 -51 206 -178 211 -280 2 -41 -16 -70 -472
-753 -261 -390 -479 -726 -485 -746 -12 -47 16 -104 64 -131 32 -17 68 -18
545 -18 475 0 513 1 544 18 35 19 71 72 71 105 0 31 -30 85 -58 104 -25 16
-62 18 -420 23 l-392 5 426 638 c234 351 430 651 435 665 11 27 8 46 -28 202
-45 198 -218 372 -420 424 -66 17 -189 27 -238 19z"/>
</g>
</svg>
