<?xml version="1.0" standalone="no"?>
<!DOCTYPE svg PUBLIC "-//W3C//DTD SVG 20010904//EN"
 "http://www.w3.org/TR/2001/REC-SVG-20010904/DTD/svg10.dtd">
<svg version="1.0" xmlns="http://www.w3.org/2000/svg"
 width="1334pt" height="1000pt" viewBox="0 0 1334 1000"
 preserveAspectRatio="xMidYMid meet">
<metadata>
Created by potrace 1.9, written by Peter Selinger 2001-2010
</metadata>
<g transform="translate(0,1000) scale(0.100000,-0.100000)"
fill="#000000" stroke="none">
<path d="M2090 8044 c-270 -49 -508 -184 -674 -383 -152 -182 -256 -467 -256
-701 0 -291 155 -637 367 -819 l48 -40 -645 -1 c-606 0 -647 -1 -679 -18 -36
-19 -71 -72 -71 -107 0 -35 35 -88 71 -107 32 -17 82 -18 961 -18 l928 0 0
-1835 0 -1835 -438 0 c-404 0 -440 -1 -471 -18 -36 -19 -71 -72 -71 -107 0
-35 35 -88 71 -107 32 -17 84 -18 1034 -18 950 0 1002 1 1034 18 36 19 71 72
71 107 0 35 -35 88 -71 107 -31 17 -67 18 -471 18 l-438 0 0 1835 0 1835 928
0 c879 0 929 1 961 18 36 19 71 72 71 107 0 35 -35 88 -71 107 -32 17 -73 18
-681 18 l-648 0 83 83 c167 166 268 367 312 618 61 347 -93 758 -373 994 -241
203 -592 302 -882 249z m50 -1084 c0 -727 -2 -840 -14 -840 -33 0 -186 54
-257 91 -144 75 -291 222 -362 364 -19 39 -48 111 -63 160 -26 82 -29 103 -28
230 0 126 3 149 28 225 16 47 44 117 63 155 70 140 221 293 358 363 71 36 225
91 258 92 16 0 17 -47 17 -840z m352 814 c173 -54 316 -151 429 -290 68 -83
117 -178 155 -299 26 -80 29 -104 29 -225 0 -121 -3 -145 -29 -225 -93 -295
-295 -498 -584 -589 -46 -14 -87 -26 -93 -26 -5 0 -9 317 -9 840 0 523 4 840
9 840 6 0 47 -12 93 -26z"/>
<path d="M11025 6081 c-28 -13 -345 -325 -1021 -1002 -792 -794 -984 -991
-994 -1022 -20 -64 6 -123 67 -152 80 -38 24 -87 996 883 l887 887 0 -813 0
-812 -485 -970 c-269 -538 -487 -986 -490 -1007 -8 -49 19 -100 66 -125 32
-17 84 -18 1034 -18 950 0 1002 1 1034 18 37 20 71 72 71 109 0 13 -220 464
-490 1003 l-490 980 0 813 0 812 878 -877 c920 -919 911 -910 979 -893 67 16
110 79 98 143 -5 33 -128 159 -1003 1036 -583 583 -1010 1004 -1029 1012 -42
18 -60 17 -108 -5z m62 -3899 c-424 -1 -772 0 -774 2 -2 2 170 352 383 777
l387 774 387 -775 388 -775 -771 -3z"/>
<path d="M4159 4123 c-57 -35 -54 25 -57 -1058 -2 -550 0 -1014 3 -1032 7 -42
57 -91 99 -99 42 -7 98 17 123 54 17 25 18 66 23 532 l5 505 44 -75 c120 -204
334 -445 516 -580 385 -286 797 -424 1265 -424 204 0 323 15 520 64 528 133
988 477 1266 948 l49 82 5 -512 c5 -474 6 -515 23 -540 19 -28 73 -58 104 -58
33 0 86 36 105 71 17 32 18 84 18 1032 0 1107 4 1045 -65 1087 -58 36 -142 20
-175 -33 -7 -12 -18 -90 -26 -178 -15 -182 -18 -201 -50 -329 -41 -166 -119
-358 -201 -493 -145 -241 -400 -496 -640 -641 -184 -110 -440 -201 -668 -237
-103 -16 -427 -16 -530 0 -228 36 -484 127 -668 237 -240 145 -495 400 -640
641 -82 135 -160 327 -201 493 -32 128 -35 147 -50 329 -8 88 -19 166 -26 178
-32 50 -119 69 -171 36z"/>
</g>
</svg>
