<?xml version="1.0" standalone="no"?>
<!DOCTYPE svg PUBLIC "-//W3C//DTD SVG 20010904//EN"
 "http://www.w3.org/TR/2001/REC-SVG-20010904/DTD/svg10.dtd">
<svg version="1.0" xmlns="http://www.w3.org/2000/svg"
 width="452pt" height="1000pt" viewBox="0 0 452 1000"
 preserveAspectRatio="xMidYMid meet">
<metadata>
Created by potrace 1.9, written by Peter Selinger 2001-2010
</metadata>
<g transform="translate(0,1000) scale(0.100000,-0.100000)"
fill="#000000" stroke="none">
<path d="M2205 6081 c-28 -13 -345 -325 -1021 -1002 -792 -794 -984 -991 -994
-1022 -20 -64 6 -123 67 -152 80 -38 24 -87 996 883 l887 887 0 -813 0 -812
-485 -970 c-269 -538 -487 -986 -490 -1007 -8 -49 19 -100 66 -125 32 -17 84
-18 1034 -18 950 0 1002 1 1034 18 37 20 71 72 71 109 0 13 -220 464 -490
1003 l-490 980 0 813 0 812 878 -877 c920 -919 911 -910 979 -893 67 16 110
79 98 143 -5 33 -128 159 -1003 1036 -583 583 -1010 1004 -1029 1012 -42 18
-60 17 -108 -5z m62 -3899 c-424 -1 -772 0 -774 2 -2 2 170 352 383 777 l387
774 387 -775 388 -775 -771 -3z"/>
</g>
</svg>
