<?xml version="1.0" standalone="no"?>
<!DOCTYPE svg PUBLIC "-//W3C//DTD SVG 20010904//EN"
 "http://www.w3.org/TR/2001/REC-SVG-20010904/DTD/svg10.dtd">
<svg version="1.0" xmlns="http://www.w3.org/2000/svg"
 width="942pt" height="1000pt" viewBox="0 0 942 1000"
 preserveAspectRatio="xMidYMid meet">
<metadata>
Created by potrace 1.9, written by Peter Selinger 2001-2010
</metadata>
<g transform="translate(0,1000) scale(0.100000,-0.100000)"
fill="#000000" stroke="none">
<path d="M7015 6094 c-684 -55 -1279 -418 -1631 -994 -199 -327 -298 -686
-298 -1080 0 -204 15 -323 64 -520 184 -731 759 -1306 1490 -1490 197 -49 316
-64 520 -64 557 0 1074 211 1461 595 398 396 613 914 613 1479 0 204 -15 323
-64 520 -165 656 -654 1197 -1290 1430 -108 39 -286 84 -416 104 -102 16 -357
27 -449 20z m418 -265 c215 -32 478 -126 660 -235 240 -145 495 -400 640 -641
111 -184 202 -440 238 -668 7 -44 13 -163 13 -265 0 -102 -6 -221 -13 -265
-36 -228 -127 -484 -238 -668 -138 -230 -398 -494 -615 -626 l-37 -22 49 93
c78 150 130 352 130 508 0 306 -164 656 -395 841 -194 156 -470 259 -695 259
-78 0 -239 -23 -318 -46 -178 -51 -392 -183 -503 -309 -171 -196 -267 -427
-285 -694 -12 -174 36 -388 126 -559 l49 -93 -37 22 c-217 132 -477 396 -615
626 -111 184 -202 440 -238 668 -7 44 -13 163 -13 265 0 195 10 285 49 440 84
331 239 604 485 850 318 317 699 495 1150 534 73 6 334 -3 413 -15z m-43
-1974 c83 -27 188 -75 242 -112 l27 -19 -252 -252 -252 -252 -250 250 -250
251 25 19 c39 31 179 96 245 115 149 44 329 43 465 0z m-664 -1064 c-285 -285
-251 -271 -319 -136 -142 283 -125 588 47 852 l21 33 250 -250 250 -250 -249
-249z m1131 732 c30 -39 93 -173 119 -258 26 -80 29 -104 29 -225 0 -121 -3
-145 -29 -225 -27 -86 -89 -219 -121 -260 -15 -19 -26 -9 -268 233 l-252 252
250 250 c137 137 252 250 254 250 2 0 10 -8 18 -17z m-225 -1186 c-53 -36
-158 -85 -242 -113 -77 -25 -98 -28 -230 -28 -132 0 -153 3 -230 28 -47 15
-119 46 -160 67 -134 70 -149 34 135 319 l250 250 252 -252 252 -252 -27 -19z"/>
<path d="M715 4133 c-256 -40 -449 -208 -510 -443 -21 -81 -24 -188 -7 -222
29 -54 115 -75 172 -41 38 22 48 43 64 139 17 99 43 152 107 216 74 74 144
103 249 103 71 0 94 -5 142 -27 111 -51 206 -178 211 -280 2 -41 -16 -70 -472
-753 -261 -390 -479 -726 -485 -746 -12 -47 16 -104 64 -131 32 -17 68 -18
545 -18 475 0 513 1 544 18 35 19 71 72 71 105 0 31 -30 85 -58 104 -25 16
-62 18 -420 23 l-392 5 426 638 c234 351 430 651 435 665 11 27 8 46 -28 202
-45 198 -218 372 -420 424 -66 17 -189 27 -238 19z"/>
<path d="M3078 4125 c-159 -25 -271 -65 -405 -147 -180 -108 -291 -223 -394
-410 -108 -195 -160 -459 -129 -660 77 -505 427 -865 925 -952 291 -51 619 41
870 243 191 154 332 405 380 682 49 279 -41 608 -235 853 -158 199 -409 342
-685 390 -107 19 -208 19 -327 1z m392 -270 c83 -27 188 -75 242 -112 l27 -19
-252 -252 -252 -252 -250 250 -250 251 25 19 c39 31 179 96 245 115 149 44
329 43 465 0z m-664 -1064 c-285 -285 -251 -271 -319 -136 -142 283 -125 588
47 852 l21 33 250 -250 250 -250 -249 -249z m1131 732 c30 -39 93 -173 119
-258 26 -80 29 -104 29 -225 0 -121 -3 -145 -29 -225 -27 -86 -89 -219 -121
-260 -15 -19 -26 -9 -268 233 l-252 252 250 250 c137 137 252 250 254 250 2 0
10 -8 18 -17z m-225 -1186 c-53 -36 -158 -85 -242 -113 -77 -25 -98 -28 -230
-28 -132 0 -153 3 -230 28 -47 15 -119 46 -160 67 -134 70 -149 34 135 319
l250 250 252 -252 252 -252 -27 -19z"/>
</g>
</svg>
