<?xml version="1.0" standalone="no"?>
<!DOCTYPE svg PUBLIC "-//W3C//DTD SVG 20010904//EN"
 "http://www.w3.org/TR/2001/REC-SVG-20010904/DTD/svg10.dtd">
<svg version="1.0" xmlns="http://www.w3.org/2000/svg"
 width="1236pt" height="1000pt" viewBox="0 0 1236 1000"
 preserveAspectRatio="xMidYMid meet">
<metadata>
Created by potrace 1.9, written by Peter Selinger 2001-2010
</metadata>
<g transform="translate(0,1000) scale(0.100000,-0.100000)"
fill="#000000" stroke="none">
<path d="M251 6082 c-19 -10 -43 -34 -53 -53 -17 -32 -18 -84 -18 -1034 0
-950 1 -1002 18 -1034 38 -71 40 -71 484 -71 l398 0 -445 -890 c-246 -492
-447 -906 -450 -927 -16 -104 101 -175 190 -117 20 13 134 232 467 898 l440
881 438 -874 c321 -643 445 -881 466 -898 63 -50 148 -33 186 37 17 33 18 111
18 2015 0 1899 -1 1982 -18 2014 -19 36 -72 71 -107 71 -35 0 -88 -35 -107
-71 -17 -32 -18 -82 -18 -961 l0 -928 -855 0 -855 0 0 928 c0 879 -1 929 -18
961 -19 36 -72 71 -107 71 -11 0 -36 -8 -54 -18z m1888 -2844 l0 -653 -324
645 c-178 355 -324 648 -324 653 -1 4 145 7 324 7 l325 0 -1 -652z"/>
<path d="M12005 6081 c-57 -27 -3948 -3921 -3970 -3973 -8 -21 -15 -45 -15
-55 0 -33 36 -86 71 -105 32 -17 115 -18 2014 -18 1899 0 1982 1 2014 18 19
10 43 34 53 53 17 32 18 115 18 2014 0 1899 -1 1982 -18 2014 -19 36 -73 71
-107 71 -11 0 -38 -9 -60 -19z m-65 -2156 l0 -1745 -1747 0 -1748 0 1745 1745
c960 960 1746 1745 1747 1745 2 0 3 -785 3 -1745z"/>
<path d="M3655 4133 c-256 -40 -449 -208 -510 -443 -21 -81 -24 -188 -7 -222
29 -54 115 -75 172 -41 38 22 48 43 64 139 17 99 43 152 107 216 74 74 144
103 249 103 71 0 94 -5 142 -27 111 -51 206 -178 211 -280 2 -41 -16 -70 -472
-753 -261 -390 -479 -726 -485 -746 -12 -47 16 -104 64 -131 32 -17 68 -18
545 -18 475 0 513 1 544 18 35 19 71 72 71 105 0 31 -30 85 -58 104 -25 16
-62 18 -420 23 l-392 5 426 638 c234 351 430 651 435 665 11 27 8 46 -28 202
-45 198 -218 372 -420 424 -66 17 -189 27 -238 19z"/>
<path d="M6018 4125 c-159 -25 -271 -65 -405 -147 -180 -108 -291 -223 -394
-410 -108 -195 -160 -459 -129 -660 77 -505 427 -865 925 -952 291 -51 619 41
870 243 191 154 332 405 380 682 49 279 -41 608 -235 853 -158 199 -409 342
-685 390 -107 19 -208 19 -327 1z m392 -270 c83 -27 188 -75 242 -112 l27 -19
-252 -252 -252 -252 -250 250 -250 251 25 19 c39 31 179 96 245 115 149 44
329 43 465 0z m-664 -1064 c-285 -285 -251 -271 -319 -136 -142 283 -125 588
47 852 l21 33 250 -250 250 -250 -249 -249z m1131 732 c30 -39 93 -173 119
-258 26 -80 29 -104 29 -225 0 -121 -3 -145 -29 -225 -27 -86 -89 -219 -121
-260 -15 -19 -26 -9 -268 233 l-252 252 250 250 c137 137 252 250 254 250 2 0
10 -8 18 -17z m-225 -1186 c-53 -36 -158 -85 -242 -113 -77 -25 -98 -28 -230
-28 -132 0 -153 3 -230 28 -47 15 -119 46 -160 67 -134 70 -149 34 135 319
l250 250 252 -252 252 -252 -27 -19z"/>
</g>
</svg>
