<?xml version="1.0" standalone="no"?>
<!DOCTYPE svg PUBLIC "-//W3C//DTD SVG 20010904//EN"
 "http://www.w3.org/TR/2001/REC-SVG-20010904/DTD/svg10.dtd">
<svg version="1.0" xmlns="http://www.w3.org/2000/svg"
 width="648pt" height="1000pt" viewBox="0 0 648 1000"
 preserveAspectRatio="xMidYMid meet">
<metadata>
Created by potrace 1.9, written by Peter Selinger 2001-2010
</metadata>
<g transform="translate(0,1000) scale(0.100000,-0.100000)"
fill="#000000" stroke="none">
<path d="M1160 2664 c-14 -2 -59 -9 -100 -15 -308 -44 -599 -187 -833 -408
-103 -98 -113 -173 -32 -249 26 -24 58 -47 72 -53 14 -5 413 -9 992 -9 863 0
970 -2 981 -16 21 -25 168 -127 255 -178 170 -98 383 -164 599 -186 378 -39
790 84 1089 325 l67 55 978 0 c927 0 979 1 1011 18 91 49 89 172 -4 216 -30
15 -214 16 -1937 16 l-1904 0 -35 36 c-88 93 -280 229 -417 298 -189 94 -397
144 -627 151 -71 2 -141 2 -155 -1z m365 -269 c146 -30 325 -104 436 -178 l54
-37 -735 0 -735 0 45 31 c140 95 350 174 526 198 96 14 313 6 409 -14z m2255
-479 c-51 -28 -217 -85 -295 -102 -99 -21 -377 -24 -475 -5 -79 16 -227 64
-295 96 l-50 23 570 1 c482 0 566 -2 545 -13z"/>
</g>
</svg>
