<?xml version="1.0" standalone="no"?>
<!DOCTYPE svg PUBLIC "-//W3C//DTD SVG 20010904//EN"
 "http://www.w3.org/TR/2001/REC-SVG-20010904/DTD/svg10.dtd">
<svg version="1.0" xmlns="http://www.w3.org/2000/svg"
 width="1236pt" height="1000pt" viewBox="0 0 1236 1000"
 preserveAspectRatio="xMidYMid meet">
<metadata>
Created by potrace 1.9, written by Peter Selinger 2001-2010
</metadata>
<g transform="translate(0,1000) scale(0.100000,-0.100000)"
fill="#000000" stroke="none">
<path d="M5152 8044 c-18 -9 -41 -29 -51 -43 -10 -14 -229 -447 -486 -961
-257 -514 -468 -936 -470 -938 -1 -1 -42 -9 -90 -18 -354 -62 -641 -264 -798
-565 -65 -122 -101 -233 -124 -375 -16 -100 -16 -107 6 -249 24 -161 70 -380
102 -491 l21 -70 -65 -130 c-77 -153 -86 -188 -62 -237 28 -59 56 -71 178 -77
l107 -5 58 -120 c70 -148 152 -298 209 -387 l43 -67 -300 -600 c-165 -330
-302 -617 -305 -638 -8 -49 19 -100 66 -125 32 -17 115 -18 2014 -18 1899 0
1982 1 2014 18 37 20 71 72 71 109 0 12 -138 298 -306 635 -296 592 -306 614
-291 638 8 14 38 63 66 110 29 47 93 167 143 268 l92 182 95 0 c74 0 104 4
130 18 36 20 71 72 71 108 0 12 -32 86 -71 165 l-71 144 16 60 c58 208 127
584 119 645 -27 216 -62 341 -135 482 -156 299 -446 511 -778 567 -36 6 -75
14 -88 16 -18 5 -105 172 -501 964 -363 726 -486 962 -506 975 -39 25 -85 29
-123 10z m446 -1180 l390 -780 -96 -27 c-123 -34 -305 -124 -389 -194 -36 -29
-68 -53 -72 -53 -4 0 -34 54 -66 121 -67 136 -95 164 -160 164 -66 0 -96 -30
-167 -170 l-63 -124 -75 60 c-92 73 -265 161 -384 194 -50 14 -91 27 -93 29
-2 2 172 356 387 786 215 430 393 781 394 779 2 -2 179 -355 394 -785z m-1143
-1052 c144 -44 282 -128 375 -227 l24 -26 -354 -710 -355 -709 -279 2 -278 3
-29 82 -29 82 385 770 384 770 38 -6 c21 -3 74 -17 118 -31z m2037 -735 l386
-774 -28 -79 -28 -79 -281 -3 -281 -2 -356 711 -355 711 23 25 c121 129 348
243 523 262 6 1 184 -347 397 -772z m-2775 167 c-156 -312 -286 -563 -290
-558 -3 5 -17 81 -32 169 -31 185 -29 249 11 377 86 271 284 480 539 568 28
10 51 16 53 15 2 -2 -125 -258 -281 -571z m2858 503 c137 -69 288 -222 358
-362 93 -187 115 -345 77 -561 -12 -71 -25 -134 -29 -141 -3 -7 -135 245 -293
562 l-287 574 52 -18 c29 -10 84 -34 122 -54z m-1346 -201 c-13 -25 -26 -46
-29 -46 -3 0 -15 20 -28 44 l-24 44 28 53 27 54 25 -52 25 -52 -24 -45z m1128
-2265 c-172 -251 -481 -569 -775 -800 -100 -78 -359 -251 -375 -251 -25 0
-221 130 -377 249 -275 211 -615 561 -783 808 l-28 41 494 988 c457 914 496
987 506 962 25 -66 42 -140 50 -229 5 -53 15 -106 22 -117 43 -69 175 -69 218
0 7 12 17 65 22 119 5 55 21 136 35 182 l26 82 498 -995 498 -995 -31 -44z
m-2414 454 c-43 -85 -80 -155 -83 -155 -8 0 -160 288 -160 304 0 3 72 6 160 6
l160 0 -77 -155z m2767 150 c0 -8 -64 -135 -118 -234 l-45 -84 -78 154 c-43
85 -78 157 -78 162 -1 4 71 7 159 7 88 0 160 -2 160 -5z m-2490 -1198 c178
-185 399 -375 555 -480 l40 -27 -683 0 c-375 0 -682 2 -682 5 0 3 99 203 220
445 l220 440 98 -122 c54 -68 158 -185 232 -261z m2519 -64 l221 -443 -682 0
-683 0 40 27 c241 163 589 491 787 744 51 65 94 117 94 116 1 -1 101 -201 223
-444z"/>
<path d="M1231 6082 c-19 -10 -43 -34 -53 -53 -17 -32 -18 -83 -18 -1006 l0
-973 -485 -970 c-269 -538 -487 -986 -490 -1007 -16 -104 101 -175 190 -117
20 13 134 232 467 898 l440 881 438 -874 c321 -643 445 -881 466 -898 78 -62
184 -20 201 81 4 27 -67 175 -486 1014 l-491 982 0 978 c0 927 -1 979 -18
1011 -19 36 -72 71 -107 71 -11 0 -36 -8 -54 -18z"/>
<path d="M10045 6087 c-63 -29 -89 -121 -51 -179 10 -15 68 -70 129 -122 349
-294 605 -686 732 -1119 122 -419 122 -875 0 -1294 -127 -433 -383 -825 -732
-1119 -61 -52 -119 -107 -129 -122 -24 -37 -22 -102 5 -140 32 -45 75 -55 200
-47 537 34 1007 241 1371 605 392 392 604 908 604 1470 0 562 -212 1078 -604
1470 -367 366 -850 578 -1380 605 -87 4 -122 2 -145 -8z m530 -301 c296 -75
579 -241 815 -476 246 -246 401 -519 485 -850 39 -155 49 -245 49 -440 0 -195
-10 -285 -49 -440 -84 -331 -239 -604 -485 -850 -204 -203 -406 -333 -670
-430 -89 -32 -232 -72 -238 -65 -2 1 25 34 61 72 155 166 343 462 445 701 154
358 228 787 203 1165 -28 410 -145 797 -341 1133 -90 153 -216 331 -294 414
-29 30 -59 64 -67 74 -13 17 -12 18 6 13 11 -3 47 -13 80 -21z"/>
<path d="M8581 5102 c-70 -37 -71 -45 -71 -436 l0 -350 -152 151 c-125 124
-160 153 -190 158 -64 12 -127 -31 -143 -98 -15 -59 10 -95 221 -307 l204
-205 -200 -200 c-209 -209 -240 -252 -226 -311 17 -68 80 -111 144 -99 30 5
65 34 190 158 l152 151 0 -350 c0 -391 1 -399 71 -436 42 -23 66 -23 108 0 70
37 71 46 71 431 l0 345 143 -141 c149 -147 187 -171 247 -158 39 8 87 56 95
95 13 60 -8 88 -225 305 l-210 210 214 215 c180 180 216 221 221 252 12 64
-31 127 -98 143 -55 14 -97 -13 -244 -158 l-143 -141 0 345 c0 314 -2 347 -18
378 -19 36 -72 71 -107 71 -11 0 -36 -8 -54 -18z"/>
</g>
</svg>
