<?xml version="1.0" standalone="no"?>
<!DOCTYPE svg PUBLIC "-//W3C//DTD SVG 20010904//EN"
 "http://www.w3.org/TR/2001/REC-SVG-20010904/DTD/svg10.dtd">
<svg version="1.0" xmlns="http://www.w3.org/2000/svg"
 width="1530pt" height="1000pt" viewBox="0 0 1530 1000"
 preserveAspectRatio="xMidYMid meet">
<metadata>
Created by potrace 1.9, written by Peter Selinger 2001-2010
</metadata>
<g transform="translate(0,1000) scale(0.100000,-0.100000)"
fill="#000000" stroke="none">
<path d="M1231 6082 c-19 -10 -43 -34 -53 -53 -17 -32 -18 -113 -18 -1941 l0
-1908 -438 0 c-404 0 -440 -1 -471 -18 -36 -19 -71 -72 -71 -107 0 -35 35 -88
71 -107 32 -17 84 -18 1034 -18 950 0 1002 1 1034 18 36 19 71 72 71 107 0 35
-35 88 -71 107 -31 17 -67 18 -471 18 l-438 0 0 1908 c0 1828 -1 1909 -18
1941 -19 36 -72 71 -107 71 -11 0 -36 -8 -54 -18z"/>
<path d="M3191 6082 c-19 -10 -43 -34 -53 -53 -17 -32 -18 -115 -18 -2014 0
-1904 1 -1982 18 -2015 25 -46 81 -74 130 -65 33 6 150 119 1040 1008 711 711
1005 1011 1013 1035 24 74 64 31 -999 1096 -583 584 -1010 1004 -1029 1012
-43 18 -61 18 -102 -4z m1007 -1245 l822 -822 -825 -825 -825 -825 0 1648 c0
906 1 1647 3 1647 1 0 372 -370 825 -823z"/>
<path d="M7995 6094 c-684 -55 -1279 -418 -1631 -994 -199 -327 -298 -686
-298 -1080 0 -477 143 -896 436 -1279 l80 -104 -250 -251 c-259 -261 -283
-292 -267 -353 16 -67 79 -110 143 -98 31 5 77 46 298 266 231 230 262 258
274 244 21 -26 206 -157 302 -214 280 -167 549 -247 968 -289 97 -10 166 -6
385 24 615 85 1155 440 1481 975 199 326 298 686 298 1079 0 475 -143 896
-434 1276 l-78 102 254 253 c262 262 282 288 269 349 -8 39 -56 87 -95 95 -66
15 -93 -5 -357 -268 l-253 -251 -27 26 c-46 42 -174 133 -274 194 -233 142
-488 233 -775 278 -102 16 -357 27 -449 20z m25 -1137 l0 -882 -628 -628 -628
-628 -20 23 c-39 43 -140 183 -178 245 -110 184 -201 440 -237 668 -7 44 -13
163 -13 265 0 102 6 221 13 265 36 228 127 484 237 668 146 242 399 495 641
641 218 130 561 241 761 245 l52 1 0 -883z m393 872 c215 -32 478 -126 660
-235 71 -43 236 -163 254 -185 10 -13 -77 -104 -522 -549 l-535 -535 0 758 0
757 36 0 c19 0 68 -5 107 -11z m1190 -716 c152 -203 250 -407 312 -653 39
-155 49 -245 49 -440 0 -195 -10 -285 -49 -440 -84 -332 -244 -610 -494 -859
-197 -196 -401 -325 -661 -421 -145 -53 -359 -100 -454 -100 l-36 0 0 882 0
883 622 622 c343 343 626 623 630 623 4 0 40 -44 81 -97z m-1583 -2158 l0
-755 -41 0 c-193 0 -553 115 -772 246 -73 44 -242 167 -252 184 -5 8 182 202
526 546 294 294 535 534 536 534 2 0 3 -340 3 -755z"/>
<path d="M12895 6094 c-684 -55 -1279 -418 -1631 -994 -143 -235 -234 -491
-279 -780 -21 -137 -25 -328 -7 -362 40 -74 167 -77 212 -5 7 12 18 90 26 178
15 182 18 201 50 329 82 329 238 604 484 850 246 246 519 401 850 485 155 39
245 49 440 49 195 0 285 -10 440 -49 331 -84 604 -239 850 -485 246 -246 402
-521 484 -850 32 -128 35 -147 50 -329 8 -88 19 -166 26 -178 45 -72 172 -69
212 5 18 34 14 225 -7 362 -71 458 -269 853 -585 1170 -378 377 -876 590
-1416 604 -82 2 -171 2 -199 0z"/>
<path d="M12985 4121 c-57 -27 -1988 -1962 -2010 -2013 -8 -21 -15 -45 -15
-55 0 -33 36 -86 71 -105 32 -17 115 -18 2014 -18 1904 0 1982 1 2015 18 46
25 74 81 65 130 -6 33 -119 150 -1003 1036 -583 583 -1010 1004 -1029 1012
-42 18 -60 17 -108 -5z m885 -1116 l825 -825 -1655 0 -1655 0 825 825 c454
454 827 825 830 825 3 0 376 -371 830 -825z"/>
</g>
</svg>
