<?xml version="1.0" standalone="no"?>
<!DOCTYPE svg PUBLIC "-//W3C//DTD SVG 20010904//EN"
 "http://www.w3.org/TR/2001/REC-SVG-20010904/DTD/svg10.dtd">
<svg version="1.0" xmlns="http://www.w3.org/2000/svg"
 width="256pt" height="1000pt" viewBox="0 0 256 1000"
 preserveAspectRatio="xMidYMid meet">
<metadata>
Created by potrace 1.9, written by Peter Selinger 2001-2010
</metadata>
<g transform="translate(0,1000) scale(0.100000,-0.100000)"
fill="#000000" stroke="none">
<path d="M251 6082 c-19 -10 -43 -34 -53 -53 -17 -32 -18 -84 -18 -1034 0
-950 1 -1002 18 -1034 10 -19 34 -43 53 -53 32 -17 84 -18 1034 -18 953 0
1002 1 1035 18 19 11 42 35 53 55 18 35 18 40 2 154 -10 65 -28 156 -42 203
-117 414 -450 708 -889 784 -160 28 -319 15 -498 -40 -169 -53 -381 -189 -480
-307 l-36 -42 0 640 c0 601 -1 642 -18 674 -19 36 -72 71 -107 71 -11 0 -36
-8 -54 -18z m1259 -1247 c292 -94 493 -294 584 -583 14 -46 26 -90 26 -98 0
-12 -113 -14 -840 -14 -727 0 -840 2 -840 14 0 8 12 52 26 98 89 281 290 486
565 577 106 35 147 40 274 37 97 -3 136 -9 205 -31z"/>
</g>
</svg>
