<?xml version="1.0" standalone="no"?>
<!DOCTYPE svg PUBLIC "-//W3C//DTD SVG 20010904//EN"
 "http://www.w3.org/TR/2001/REC-SVG-20010904/DTD/svg10.dtd">
<svg version="1.0" xmlns="http://www.w3.org/2000/svg"
 width="1530pt" height="1000pt" viewBox="0 0 1530 1000"
 preserveAspectRatio="xMidYMid meet">
<metadata>
Created by potrace 1.9, written by Peter Selinger 2001-2010
</metadata>
<g transform="translate(0,1000) scale(0.100000,-0.100000)"
fill="#000000" stroke="none">
<path d="M1232 8044 c-18 -9 -41 -29 -51 -43 -40 -56 -501 -992 -506 -1028
-11 -74 61 -150 132 -139 68 10 76 22 280 430 l195 391 193 -385 c200 -398
216 -423 282 -436 39 -7 95 18 118 53 41 62 45 53 -233 609 -194 389 -267 525
-287 538 -39 25 -85 29 -123 10z"/>
<path d="M7995 6094 c-684 -55 -1279 -418 -1631 -994 -143 -235 -234 -491
-279 -780 -21 -137 -25 -328 -7 -362 40 -74 167 -77 212 -5 7 12 18 90 26 178
15 182 18 201 50 329 82 329 238 604 484 850 242 241 519 401 835 481 44 11
89 22 100 26 11 3 -147 -163 -351 -368 -387 -389 -405 -412 -389 -476 16 -67
79 -110 143 -98 32 5 92 61 435 403 l397 397 0 -1820 c0 -1744 1 -1822 18
-1854 19 -36 72 -71 107 -71 35 0 88 35 107 71 17 32 18 110 18 1849 l0 1815
388 -387 c403 -402 425 -420 489 -403 67 16 110 79 98 143 -5 32 -60 90 -388
421 -210 210 -373 381 -362 378 11 -4 56 -15 100 -26 316 -80 593 -240 835
-481 246 -246 402 -521 484 -850 32 -128 35 -147 50 -329 8 -88 19 -166 26
-178 45 -72 172 -69 212 5 18 34 14 225 -7 362 -71 458 -269 853 -585 1170
-378 377 -876 590 -1416 604 -82 2 -171 2 -199 0z"/>
<path d="M11045 6092 c-99 -35 -118 -168 -32 -222 12 -7 90 -18 178 -26 182
-15 201 -18 329 -50 165 -41 358 -119 493 -200 242 -146 495 -399 641 -641
133 -221 246 -579 246 -777 0 -39 -3 -46 -22 -50 -179 -35 -281 -73 -405 -147
-181 -110 -291 -224 -394 -411 -108 -195 -160 -459 -129 -660 77 -505 427
-865 925 -952 291 -51 619 41 870 243 191 154 332 405 380 682 62 352 -102
779 -385 1004 -158 125 -307 192 -532 240 -26 5 -28 9 -28 51 0 198 113 556
246 777 146 242 399 495 641 641 135 81 328 159 493 200 128 32 147 35 329 50
88 8 166 19 178 26 72 45 69 172 -5 212 -34 18 -225 14 -362 -7 -629 -97
-1150 -442 -1476 -975 -63 -105 -145 -272 -165 -337 -6 -24 -15 -43 -19 -43
-4 0 -13 19 -19 43 -7 23 -34 87 -60 142 -207 436 -555 786 -986 991 -242 115
-526 185 -800 198 -60 3 -119 2 -130 -2z m2225 -2237 c83 -27 188 -75 242
-112 l27 -19 -252 -252 -252 -252 -250 250 -250 251 25 19 c39 31 179 96 245
115 149 44 329 43 465 0z m-664 -1064 c-285 -285 -251 -271 -319 -136 -142
283 -125 588 47 852 l21 33 250 -250 250 -250 -249 -249z m1131 732 c30 -39
93 -173 119 -258 26 -80 29 -104 29 -225 0 -121 -3 -145 -29 -225 -27 -86 -89
-219 -121 -260 -15 -19 -26 -9 -268 233 l-252 252 250 250 c137 137 252 250
254 250 2 0 10 -8 18 -17z m-225 -1186 c-53 -36 -158 -85 -242 -113 -77 -25
-98 -28 -230 -28 -132 0 -153 3 -230 28 -47 15 -119 46 -160 67 -134 70 -149
34 135 319 l250 250 252 -252 252 -252 -27 -19z"/>
<path d="M3191 5102 c-19 -10 -43 -34 -53 -53 -17 -32 -18 -84 -18 -1034 0
-950 1 -1002 18 -1034 10 -19 34 -43 53 -53 32 -17 84 -18 1034 -18 950 0
1002 1 1034 18 19 10 43 34 53 53 17 32 18 84 18 1034 0 950 -1 1002 -18 1034
-10 19 -34 43 -53 53 -32 17 -84 18 -1034 18 -950 0 -1002 -1 -1034 -18z
m1889 -1087 l0 -855 -855 0 -855 0 0 855 0 855 855 0 855 0 0 -855z"/>
<path d="M1232 4124 c-18 -9 -41 -29 -51 -43 -41 -57 -991 -1973 -996 -2008
-16 -104 101 -175 190 -117 20 13 134 232 467 898 l440 881 438 -874 c321
-643 445 -881 466 -898 78 -62 184 -20 201 81 4 27 -69 179 -500 1042 -384
769 -512 1015 -532 1028 -39 25 -85 29 -123 10z"/>
</g>
</svg>
