<?xml version="1.0" standalone="no"?>
<!DOCTYPE svg PUBLIC "-//W3C//DTD SVG 20010904//EN"
 "http://www.w3.org/TR/2001/REC-SVG-20010904/DTD/svg10.dtd">
<svg version="1.0" xmlns="http://www.w3.org/2000/svg"
 width="452pt" height="1000pt" viewBox="0 0 452 1000"
 preserveAspectRatio="xMidYMid meet">
<metadata>
Created by potrace 1.9, written by Peter Selinger 2001-2010
</metadata>
<g transform="translate(0,1000) scale(0.100000,-0.100000)"
fill="#000000" stroke="none">
<path d="M2115 6094 c-684 -55 -1279 -418 -1631 -994 -199 -327 -298 -686
-298 -1080 0 -204 15 -323 64 -520 166 -660 657 -1202 1300 -1433 l95 -34 5
-499 c6 -555 3 -534 75 -568 43 -21 63 -20 104 2 72 39 71 33 71 546 l0 459
48 -7 c205 -29 428 -30 604 -2 l78 13 0 -461 c0 -428 1 -464 18 -495 19 -36
72 -71 107 -71 35 0 88 35 107 71 17 31 18 68 18 524 l0 490 83 29 c271 95
550 270 758 477 398 396 613 914 613 1479 0 204 -15 323 -64 520 -165 656
-654 1197 -1290 1430 -108 39 -286 84 -416 104 -102 16 -357 27 -449 20z m418
-265 c215 -32 478 -126 660 -235 240 -145 495 -400 640 -641 111 -184 202
-440 238 -668 7 -44 13 -163 13 -265 0 -195 -10 -285 -49 -440 -84 -332 -244
-610 -494 -859 -240 -238 -514 -393 -841 -476 -155 -39 -245 -49 -440 -49
-195 0 -285 10 -440 49 -327 83 -601 238 -841 476 -207 206 -342 416 -439 679
-76 209 -104 374 -104 620 0 195 10 285 49 440 84 331 239 604 485 850 318
317 699 495 1150 534 73 6 334 -3 413 -15z"/>
<path d="M2211 5102 c-19 -10 -43 -34 -53 -53 -17 -32 -18 -82 -18 -961 l0
-928 -438 0 c-404 0 -440 -1 -471 -18 -36 -19 -71 -72 -71 -107 0 -35 35 -88
71 -107 32 -17 84 -18 1034 -18 950 0 1002 1 1034 18 36 19 71 72 71 107 0 35
-35 88 -71 107 -31 17 -67 18 -471 18 l-438 0 0 928 c0 879 -1 929 -18 961
-19 36 -72 71 -107 71 -11 0 -36 -8 -54 -18z"/>
<path d="M4165 2161 c-26 -12 -209 -188 -532 -512 -423 -425 -493 -500 -504
-536 -24 -84 -26 -81 514 -621 l493 -493 89 3 88 3 20 38 c41 80 54 64 -454
572 l-459 460 459 460 c503 504 493 491 456 568 -32 67 -102 91 -170 58z"/>
</g>
</svg>
