<?xml version="1.0" standalone="no"?>
<!DOCTYPE svg PUBLIC "-//W3C//DTD SVG 20010904//EN"
 "http://www.w3.org/TR/2001/REC-SVG-20010904/DTD/svg10.dtd">
<svg version="1.0" xmlns="http://www.w3.org/2000/svg"
 width="450pt" height="1000pt" viewBox="0 0 450 1000"
 preserveAspectRatio="xMidYMid meet">
<g transform="translate(0,1000) scale(0.100000,-0.100000)"
fill="#000000" stroke="none">
<path d="M2195 6081 c-28 -13 -345 -325 -1021 -1002 -792 -794 -984 -991 -994 -1022 -20 -64 6 -123 67 -152 80 -38 18 -93 1055 943 l948 947 942 -941 c761 -760 950 -944 981 -954 64 -20 123 6 152 67 38 80 98 14 -993 1107 -583 583 -1010 1004 -1029 1012 -42 18 -60 17 -108 -5z"/>
<path d="M1711 4612 c-36 -19 -71 -73 -71 -107 1 -51 46 -108 234 -295 l196 -195 -204 -205 c-211 -212 -236 -248 -221 -307 16 -67 79 -110 143 -98 30 5 65 34 190 158 l152 151 0 -105 c0 -121 15 -161 71 -191 42 -23 66 -23 108 0 55 30 71 71 71 186 l0 100 143 -141 c149 -147 187 -171 247 -158 39 8 87 56 95 95 13 60 -8 88 -225 305 l-210 210 214 215 c180 180 216 221 221 252 12 64 -31 127 -98 143 -55 14 -97 -13 -244 -158 l-143 -141 0 100 c0 115 -16 156 -71 186 -42 23 -66 23 -108 0 -56 -30 -71 -70 -71 -192 l0 -105 -147 147 c-175 174 -201 188 -272 150z"/>
</g>
</svg>

