<?xml version="1.0" standalone="no"?>
<!DOCTYPE svg PUBLIC "-//W3C//DTD SVG 20010904//EN"
 "http://www.w3.org/TR/2001/REC-SVG-20010904/DTD/svg10.dtd">
<svg version="1.0" xmlns="http://www.w3.org/2000/svg"
 width="448pt" height="1000pt" viewBox="0 0 448 1000"
 preserveAspectRatio="xMidYMid meet">
<g transform="translate(0,1000) scale(0.100000,-0.100000)"
fill="#000000" stroke="none">
<path d="M2097 6094 c-684 -55 -1279 -418 -1631 -994 -143 -235 -234 -491 -279 -780 -21 -137 -25 -328 -7 -362 40 -74 167 -77 212 -5 7 12 18 90 26 178 15 182 18 201 50 329 82 329 238 604 484 850 246 246 519 401 850 485 155 39 245 49 440 49 195 0 285 -10 440 -49 331 -84 604 -239 850 -485 246 -246 402 -521 484 -850 32 -128 35 -147 50 -329 8 -88 19 -166 26 -178 45 -72 172 -69 212 5 18 34 14 225 -7 362 -71 458 -269 853 -585 1170 -378 377 -876 590 -1416 604 -82 2 -171 2 -199 0z"/>
<path d="M2097 8054 c-684 -55 -1279 -418 -1631 -994 -143 -235 -234 -491 -279 -780 -21 -137 -25 -328 -7 -362 40 -74 167 -77 212 -5 7 12 18 90 26 178 15 182 18 201 50 329 82 329 238 604 484 850 246 246 519 401 850 485 155 39 245 49 440 49 195 0 285 -10 440 -49 331 -84 604 -239 850 -485 246 -246 402 -521 484 -850 32 -128 35 -147 50 -329 8 -88 19 -166 26 -178 45 -72 172 -69 212 5 18 34 14 225 -7 362 -71 458 -269 853 -585 1170 -378 377 -876 590 -1416 604 -82 2 -171 2 -199 0z"/>
<path d="M2193 5102 c-71 -38 -71 -35 -71 -524 l0 -438 -438 0 c-489 0 -486 0 -524 -71 -23 -42 -23 -66 0 -108 38 -71 35 -71 524 -71 l438 0 0 -438 c0 -489 0 -486 71 -524 42 -23 66 -23 108 0 71 38 71 35 71 524 l0 438 438 0 c489 0 486 0 524 71 23 42 23 66 0 108 -38 71 -35 71 -524 71 l-438 0 0 438 c0 404 -1 440 -18 471 -19 36 -72 71 -107 71 -11 0 -36 -8 -54 -18z"/>
</g>
</svg>

