<?xml version="1.0" standalone="no"?>
<!DOCTYPE svg PUBLIC "-//W3C//DTD SVG 20010904//EN"
 "http://www.w3.org/TR/2001/REC-SVG-20010904/DTD/svg10.dtd">
<svg version="1.0" xmlns="http://www.w3.org/2000/svg"
 width="632pt" height="1000pt" viewBox="0 0 632 1000"
 preserveAspectRatio="xMidYMid meet">
<g transform="translate(0,1000) scale(0.100000,-0.100000)"
fill="#000000" stroke="none">
<path d="M2176 7083 c-45 -9 -140 -122 -196 -233 -117 -232 -121 -477 -10 -732 7 -17 -15 -18 -369 -18 -308 0 -383 -3 -412 -15 -52 -21 -256 -198 -365 -316 -546 -592 -784 -1407 -644 -2199 105 -588 405 -1114 858 -1502 71 -61 141 -116 155 -124 23 -12 331 -14 2005 -14 1822 0 1982 1 2014 17 19 9 37 22 40 29 2 6 51 51 108 99 354 296 650 753 783 1210 142 486 142 984 0 1470 -106 362 -315 729 -577 1014 -96 103 -306 289 -358 316 -23 12 -108 15 -494 15 l-467 0 -31 35 c-74 85 -115 205 -115 340 0 145 37 244 142 379 68 86 66 167 -4 213 -33 21 -104 21 -135 0 -39 -28 -116 -127 -155 -200 -126 -241 -133 -487 -19 -749 7 -17 -13 -18 -328 -18 l-335 0 -31 35 c-74 85 -115 205 -115 340 0 145 37 244 142 379 68 86 66 167 -4 213 -33 21 -104 21 -135 0 -39 -28 -116 -127 -155 -200 -126 -241 -133 -487 -19 -749 7 -17 -13 -18 -328 -18 l-335 0 -31 35 c-74 85 -115 205 -115 340 0 145 37 244 142 379 29 36 46 69 49 94 12 86 -65 152 -156 135z m3026 -1317 c331 -283 584 -677 708 -1099 122 -419 122 -875 0 -1294 -124 -425 -378 -818 -714 -1104 l-104 -89 -1897 0 -1897 0 -104 89 c-336 286 -590 679 -714 1104 -122 419 -122 875 0 1294 124 422 377 816 708 1099 l98 84 1909 0 1909 0 98 -84z"/>
<path d="M5590 8041 c-26 -12 -208 -188 -531 -512 -535 -538 -529 -530 -504 -613 10 -35 85 -115 503 -535 519 -520 542 -540 613 -527 41 8 90 56 99 96 4 16 2 45 -4 62 -8 23 -151 173 -466 488 l-455 455 459 460 c503 504 493 491 456 568 -32 67 -102 91 -170 58z"/>
</g>
</svg>

