<?xml version="1.0" standalone="no"?>
<!DOCTYPE svg PUBLIC "-//W3C//DTD SVG 20010904//EN"
 "http://www.w3.org/TR/2001/REC-SVG-20010904/DTD/svg10.dtd">
<svg version="1.0" xmlns="http://www.w3.org/2000/svg"
 width="646pt" height="1000pt" viewBox="0 0 646 1000"
 preserveAspectRatio="xMidYMid meet">
<g transform="translate(0,1000) scale(0.100000,-0.100000)"
fill="#000000" stroke="none">
<path d="M6109 4123 c-44 -27 -51 -51 -65 -214 -15 -182 -18 -201 -50 -329 -82 -329 -238 -604 -484 -850 -204 -203 -406 -333 -670 -430 -172 -63 -284 -85 -520 -105 -146 -13 -488 -15 -2105 -15 -1850 0 -1932 -1 -1964 -18 -36 -19 -71 -72 -71 -107 0 -35 35 -88 71 -107 32 -17 115 -18 1994 -18 1977 0 2006 0 2270 36 615 84 1154 439 1481 974 143 235 234 491 279 780 21 137 25 328 7 362 -29 54 -118 75 -173 41z"/>
</g>
</svg>

