<?xml version="1.0" standalone="no"?>
<!DOCTYPE svg PUBLIC "-//W3C//DTD SVG 20010904//EN"
 "http://www.w3.org/TR/2001/REC-SVG-20010904/DTD/svg10.dtd">
<svg version="1.0" xmlns="http://www.w3.org/2000/svg"
 width="647pt" height="1000pt" viewBox="0 0 647 1000"
 preserveAspectRatio="xMidYMid meet">
<g transform="translate(0,1000) scale(0.100000,-0.100000)"
fill="#000000" stroke="none">
<path d="M6109 6083 c-44 -27 -51 -51 -65 -214 -15 -182 -18 -201 -50 -329 -82 -329 -238 -604 -484 -850 -204 -203 -406 -333 -670 -430 -264 -96 -480 -120 -1091 -120 l-397 0 -11 66 c-82 466 -437 814 -917 898 -359 63 -765 -91 -1008 -383 -112 -134 -206 -339 -237 -515 l-11 -66 -442 0 c-408 0 -444 -1 -475 -18 -35 -19 -71 -72 -71 -105 0 -31 30 -85 58 -104 26 -17 122 -18 2112 -24 1837 -5 2095 -7 2165 -21 412 -81 716 -239 995 -518 246 -246 402 -521 484 -850 32 -128 35 -147 50 -329 8 -88 19 -166 26 -178 45 -72 172 -69 212 5 18 34 14 225 -7 362 -97 629 -442 1150 -975 1476 -105 63 -272 145 -337 165 -24 6 -43 15 -43 19 0 4 19 13 43 19 23 7 87 34 142 60 436 207 786 555 991 986 118 250 192 555 197 816 2 127 -6 154 -53 182 -35 21 -97 21 -131 0z m-3619 -1248 c292 -94 493 -294 584 -583 14 -46 26 -90 26 -98 0 -12 -113 -14 -840 -14 -727 0 -840 2 -840 14 0 8 12 52 26 98 89 281 290 486 565 577 106 35 147 40 274 37 97 -3 136 -9 205 -31z"/>
</g>
</svg>

