<?xml version="1.0" standalone="no"?>
<!DOCTYPE svg PUBLIC "-//W3C//DTD SVG 20010904//EN"
 "http://www.w3.org/TR/2001/REC-SVG-20010904/DTD/svg10.dtd">
<svg version="1.0" xmlns="http://www.w3.org/2000/svg"
 width="445pt" height="1000pt" viewBox="0 0 445 1000"
 preserveAspectRatio="xMidYMid meet">
<g transform="translate(0,1000) scale(0.100000,-0.100000)"
fill="#000000" stroke="none">
<path d="M2074 8044 c-194 -35 -394 -125 -531 -240 -290 -242 -446 -650 -384 -1003 49 -279 185 -523 384 -685 138 -113 340 -206 514 -236 l67 -12 0 -436 c0 -239 -2 -433 -4 -431 -2 2 -29 47 -61 99 -209 345 -515 623 -880 796 -250 118 -555 192 -816 197 -128 2 -154 -5 -183 -55 -33 -55 -15 -135 37 -168 12 -7 90 -18 178 -26 182 -15 201 -18 329 -50 329 -82 604 -238 850 -484 241 -241 399 -516 481 -833 62 -244 69 -380 69 -1414 l0 -883 -438 0 c-404 0 -440 -1 -471 -18 -36 -19 -71 -72 -71 -107 0 -35 35 -88 71 -107 32 -17 84 -18 1034 -18 950 0 1002 1 1034 18 36 19 71 72 71 107 0 35 -35 88 -71 107 -31 17 -67 18 -472 18 l-438 0 4 1028 c3 872 6 1039 20 1107 78 409 238 716 517 995 246 246 521 402 850 484 128 32 147 35 329 50 88 8 166 19 178 26 72 45 69 172 -5 212 -60 31 -354 5 -582 -52 -526 -133 -990 -478 -1261 -940 l-44 -75 -3 424 c-1 233 -1 425 1 427 1 2 38 10 81 19 458 95 788 441 871 916 61 347 -93 758 -373 994 -241 203 -592 302 -882 249z m400 -269 c176 -56 318 -152 431 -291 68 -83 117 -178 155 -299 26 -80 29 -104 29 -225 0 -121 -3 -145 -29 -225 -93 -295 -290 -493 -586 -591 -77 -25 -98 -28 -230 -28 -132 0 -153 3 -230 28 -179 59 -319 154 -431 292 -68 82 -117 177 -155 299 -26 82 -29 103 -28 230 0 126 3 149 28 225 95 288 291 488 567 579 106 35 147 40 274 37 97 -3 137 -9 205 -31z"/>
</g>
</svg>

