<?xml version="1.0" standalone="no"?>
<!DOCTYPE svg PUBLIC "-//W3C//DTD SVG 20010904//EN"
 "http://www.w3.org/TR/2001/REC-SVG-20010904/DTD/svg10.dtd">
<svg version="1.0" xmlns="http://www.w3.org/2000/svg"
 width="256pt" height="1000pt" viewBox="0 0 256 1000"
 preserveAspectRatio="xMidYMid meet">
<g transform="translate(0,1000) scale(0.100000,-0.100000)"
fill="#000000" stroke="none">
<path d="M1226 6084 c-18 -9 -41 -29 -51 -43 -10 -14 -238 -465 -507 -1001 -448 -897 -488 -979 -488 -1025 0 -46 40 -129 497 -1042 541 -1080 517 -1038 602 -1038 22 0 53 9 68 20 23 14 136 232 533 1027 277 555 504 1019 504 1033 0 14 -227 478 -504 1033 -383 767 -511 1013 -531 1026 -39 25 -85 29 -123 10z m471 -2909 l-420 -840 -421 840 -420 840 420 840 421 840 419 -840 420 -840 -419 -840z"/>
</g>
</svg>

