<?xml version="1.0" standalone="no"?>
<!DOCTYPE svg PUBLIC "-//W3C//DTD SVG 20010904//EN"
 "http://www.w3.org/TR/2001/REC-SVG-20010904/DTD/svg10.dtd">
<svg version="1.0" xmlns="http://www.w3.org/2000/svg"
 width="645pt" height="1000pt" viewBox="0 0 645 1000"
 preserveAspectRatio="xMidYMid meet">
<g transform="translate(0,1000) scale(0.100000,-0.100000)"
fill="#000000" stroke="none">
<path d="M6109 6083 c-24 -12 -389 -370 -1032 -1012 -881 -882 -994 -999 -999 -1030 -3 -20 -8 -76 -11 -126 -17 -250 -70 -458 -175 -683 -142 -302 -420 -607 -717 -786 -184 -110 -440 -201 -668 -237 -44 -7 -163 -13 -265 -13 -102 0 -221 6 -265 13 -228 36 -484 127 -668 237 -240 145 -495 400 -640 641 -82 135 -160 327 -201 493 -32 128 -35 147 -50 329 -8 88 -19 166 -26 178 -45 72 -172 69 -212 -5 -31 -60 -5 -354 52 -582 184 -731 759 -1306 1490 -1490 197 -49 316 -64 520 -64 557 0 1074 211 1461 595 354 352 565 806 609 1312 l9 100 980 981 c1072 1074 1014 1009 976 1089 -31 66 -101 91 -168 60z"/>
</g>
</svg>

