<?xml version="1.0" standalone="no"?>
<!DOCTYPE svg PUBLIC "-//W3C//DTD SVG 20010904//EN"
 "http://www.w3.org/TR/2001/REC-SVG-20010904/DTD/svg10.dtd">
<svg version="1.0" xmlns="http://www.w3.org/2000/svg"
 width="354pt" height="1000pt" viewBox="0 0 354 1000"
 preserveAspectRatio="xMidYMid meet">
<g transform="translate(0,1000) scale(0.100000,-0.100000)"
fill="#000000" stroke="none">
<path d="M1226 6082 c-19 -10 -43 -34 -53 -53 -17 -32 -18 -83 -18 -1006 l0 -973 -485 -970 c-269 -538 -487 -986 -490 -1007 -8 -49 19 -100 66 -125 32 -17 84 -18 1034 -18 950 0 1002 1 1034 18 37 20 71 72 71 109 0 13 -220 464 -490 1003 l-490 980 0 978 c0 927 -1 979 -18 1011 -19 36 -72 71 -107 71 -11 0 -36 -8 -54 -18z m56 -3900 c-424 -1 -772 0 -774 2 -2 2 170 352 383 777 l387 774 387 -775 388 -775 -771 -3z"/>
<path d="M3180 4121 c-26 -12 -208 -188 -531 -512 -535 -538 -529 -530 -504 -613 10 -35 85 -115 503 -535 519 -520 542 -540 613 -527 41 8 90 56 99 96 4 16 2 45 -4 62 -8 23 -151 173 -466 488 l-455 455 459 460 c503 504 493 491 456 568 -32 67 -102 91 -170 58z"/>
</g>
</svg>

