<?xml version="1.0" standalone="no"?>
<!DOCTYPE svg PUBLIC "-//W3C//DTD SVG 20010904//EN"
 "http://www.w3.org/TR/2001/REC-SVG-20010904/DTD/svg10.dtd">
<svg version="1.0" xmlns="http://www.w3.org/2000/svg"
 width="646pt" height="1000pt" viewBox="0 0 646 1000"
 preserveAspectRatio="xMidYMid meet">
<g transform="translate(0,1000) scale(0.100000,-0.100000)"
fill="#000000" stroke="none">
<path d="M4065 6094 c-684 -55 -1279 -418 -1631 -994 -167 -275 -264 -576 -294 -915 l-10 -109 -969 -971 c-782 -783 -971 -977 -981 -1008 -20 -64 6 -123 67 -152 80 -38 23 -88 1004 892 493 492 899 891 901 887 3 -5 9 -31 12 -59 11 -78 62 -272 96 -365 102 -278 276 -548 493 -762 95 -94 268 -233 335 -267 21 -11 22 -18 22 -124 0 -129 14 -168 71 -199 32 -17 84 -18 1034 -18 950 0 1002 1 1034 18 58 31 71 69 71 204 0 65 4 118 9 118 24 0 242 172 338 267 401 398 617 915 617 1483 0 204 -15 323 -64 520 -165 656 -654 1197 -1290 1430 -108 39 -286 84 -416 104 -102 16 -357 27 -449 20z m418 -265 c215 -32 478 -126 660 -235 240 -145 495 -400 640 -641 111 -184 202 -440 238 -668 7 -44 13 -163 13 -265 0 -195 -10 -285 -49 -440 -84 -334 -244 -611 -498 -862 -59 -59 -121 -117 -137 -128 l-30 -21 0 733 c0 691 -1 735 -18 767 -38 71 -35 71 -524 71 l-438 0 0 850 0 850 36 0 c19 0 68 -5 107 -11z m-1338 -739 c-401 -401 -730 -728 -732 -727 -5 6 48 198 77 277 97 264 227 466 430 670 206 205 416 339 684 435 69 25 235 72 261 74 5 1 -318 -327 -720 -729z m945 -185 l0 -765 -438 0 c-489 0 -486 0 -524 -71 -17 -32 -18 -76 -18 -772 l0 -739 -42 34 c-135 107 -338 339 -431 495 -77 128 -159 324 -198 476 -29 114 -38 168 -49 292 l-10 110 853 853 c468 468 853 852 854 852 2 0 3 -344 3 -765z m980 -1759 l0 -743 -79 -36 c-167 -77 -345 -131 -516 -158 -103 -16 -427 -16 -530 0 -169 27 -354 83 -512 156 l-73 34 0 745 0 746 855 0 855 0 0 -744z"/>
</g>
</svg>

