<?xml version="1.0" standalone="no"?>
<!DOCTYPE svg PUBLIC "-//W3C//DTD SVG 20010904//EN"
 "http://www.w3.org/TR/2001/REC-SVG-20010904/DTD/svg10.dtd">
<svg version="1.0" xmlns="http://www.w3.org/2000/svg"
 width="305pt" height="1000pt" viewBox="0 0 305 1000"
 preserveAspectRatio="xMidYMid meet">
<g transform="translate(0,1000) scale(0.100000,-0.100000)"
fill="#000000" stroke="none">
<path d="M709 4133 c-256 -40 -449 -208 -510 -443 -21 -81 -24 -188 -7 -222 29 -54 115 -75 172 -41 38 22 48 43 64 139 17 99 43 152 107 216 74 74 144 103 249 103 106 0 175 -29 250 -105 76 -75 105 -144 105 -250 0 -105 -29 -175 -103 -249 -64 -64 -117 -90 -216 -107 -45 -8 -90 -19 -102 -25 -53 -27 -73 -119 -39 -177 24 -40 44 -49 141 -66 99 -17 152 -43 216 -107 74 -74 103 -144 103 -249 0 -106 -29 -175 -105 -250 -75 -76 -144 -105 -250 -105 -105 0 -175 29 -249 103 -64 64 -90 117 -107 216 -8 45 -19 90 -25 102 -26 50 -114 70 -169 37 -42 -24 -55 -58 -54 -132 6 -253 184 -481 433 -554 91 -27 251 -27 342 0 202 59 360 221 415 423 23 86 23 234 0 320 -27 98 -82 195 -153 266 l-62 64 62 64 c71 71 126 168 153 266 23 86 23 234 0 320 -55 202 -217 367 -415 422 -68 19 -194 30 -246 21z"/>
<path d="M2179 4133 c-256 -40 -444 -203 -512 -443 -17 -60 -18 -113 -18 -650 0 -537 1 -590 18 -650 58 -204 215 -364 416 -423 91 -27 251 -27 342 0 160 47 298 162 368 306 73 148 75 168 79 737 2 353 0 522 -8 560 -6 30 -18 84 -27 120 -45 198 -218 372 -420 424 -66 17 -189 27 -238 19z m220 -277 c64 -29 144 -105 175 -166 43 -85 49 -164 49 -650 0 -586 -7 -629 -120 -742 -74 -74 -144 -103 -249 -103 -71 0 -94 5 -142 27 -74 34 -152 112 -186 186 l-27 57 0 575 0 575 27 57 c46 98 146 183 245 208 61 15 167 4 228 -24z"/>
</g>
</svg>

