<?xml version="1.0" standalone="no"?>
<!DOCTYPE svg PUBLIC "-//W3C//DTD SVG 20010904//EN"
 "http://www.w3.org/TR/2001/REC-SVG-20010904/DTD/svg10.dtd">
<svg version="1.0" xmlns="http://www.w3.org/2000/svg"
 width="453pt" height="1000pt" viewBox="0 0 453 1000"
 preserveAspectRatio="xMidYMid meet">
<g transform="translate(0,1000) scale(0.100000,-0.100000)"
fill="#000000" stroke="none">
<path d="M251 6082 c-19 -10 -43 -34 -53 -53 -17 -32 -18 -115 -18 -2014 0 -1899 1 -1982 18 -2014 10 -19 34 -43 53 -53 32 -17 115 -18 2014 -18 1899 0 1982 1 2014 18 19 10 43 34 53 53 17 32 18 115 18 2014 0 1899 -1 1982 -18 2014 -10 19 -34 43 -53 53 -32 17 -115 18 -2014 18 -1899 0 -1982 -1 -2014 -18z m1889 -997 c0 -421 -1 -765 -3 -765 -1 0 -346 344 -767 765 l-765 765 768 0 767 0 0 -765z m1770 762 c0 -1 -342 -344 -760 -762 l-760 -760 0 763 0 762 760 0 c418 0 760 -1 760 -3z m190 -942 l0 -765 -767 0 -768 0 765 765 c421 421 766 765 767 765 2 0 3 -344 3 -765z m-2905 -5 l760 -760 -763 0 -762 0 0 760 c0 418 1 760 3 760 1 0 344 -342 762 -760z m755 -1013 c0 -1 -342 -344 -760 -762 l-760 -760 0 763 0 762 760 0 c418 0 760 -1 760 -3z m2150 -762 c0 -421 -1 -765 -3 -765 -1 0 -346 344 -767 765 l-765 765 768 0 767 0 0 -765z m-1960 -180 l0 -765 -767 0 -768 0 765 765 c421 421 766 765 767 765 2 0 3 -344 3 -765z m1015 -5 l760 -760 -763 0 -762 0 0 760 c0 418 1 760 3 760 1 0 344 -342 762 -760z"/>
</g>
</svg>

