<?xml version="1.0" standalone="no"?>
<!DOCTYPE svg PUBLIC "-//W3C//DTD SVG 20010904//EN"
 "http://www.w3.org/TR/2001/REC-SVG-20010904/DTD/svg10.dtd">
<svg version="1.0" xmlns="http://www.w3.org/2000/svg"
 width="256pt" height="1000pt" viewBox="0 0 256 1000"
 preserveAspectRatio="xMidYMid meet">
<g transform="translate(0,1000) scale(0.100000,-0.100000)"
fill="#000000" stroke="none">
<path d="M1230 6084 c-18 -9 -41 -29 -51 -43 -10 -14 -239 -465 -507 -1001 l-489 -975 -3 -1015 c-2 -970 -1 -1017 16 -1049 10 -19 34 -43 53 -53 32 -17 84 -18 1034 -18 950 0 1002 1 1034 18 19 10 43 34 53 53 17 32 18 84 18 1036 l0 1003 -504 1008 c-383 767 -511 1013 -531 1026 -39 25 -85 29 -123 10z m55 -1942 c-424 -1 -772 0 -774 2 -2 2 170 352 383 777 l387 774 387 -775 388 -775 -771 -3z m853 -1107 l0 -855 -855 0 -855 0 0 855 0 855 855 0 855 0 0 -855z"/>
</g>
</svg>

