<?xml version="1.0" standalone="no"?>
<!DOCTYPE svg PUBLIC "-//W3C//DTD SVG 20010904//EN"
 "http://www.w3.org/TR/2001/REC-SVG-20010904/DTD/svg10.dtd">
<svg version="1.0" xmlns="http://www.w3.org/2000/svg"
 width="451pt" height="1000pt" viewBox="0 0 451 1000"
 preserveAspectRatio="xMidYMid meet">
<g transform="translate(0,1000) scale(0.100000,-0.100000)"
fill="#000000" stroke="none">
<path d="M2207 6085 c-57 -25 -272 -217 -382 -341 -58 -65 -448 -463 -866 -884 -798 -801 -796 -800 -779 -867 16 -67 79 -110 143 -98 32 5 100 69 501 468 255 254 461 455 459 447 -28 -84 -61 -221 -83 -340 -159 -896 169 -1816 857 -2401 141 -120 181 -139 242 -119 71 23 103 119 62 182 -10 15 -68 70 -129 122 -349 294 -605 686 -732 1119 -122 419 -122 875 0 1294 72 245 210 526 344 701 33 42 138 156 235 252 l176 175 943 -942 c760 -759 949 -943 980 -953 64 -20 123 6 152 67 38 80 98 14 -993 1107 -583 583 -1010 1004 -1029 1012 -40 17 -59 17 -101 -1z"/>
<path d="M2180 5113 c-256 -40 -449 -208 -510 -443 -21 -81 -24 -188 -7 -222 29 -54 115 -75 172 -41 38 22 48 43 64 139 17 99 43 152 107 216 74 74 144 103 249 103 106 0 175 -29 250 -105 76 -75 105 -144 105 -250 0 -105 -29 -175 -103 -249 -64 -64 -117 -90 -216 -107 -96 -17 -117 -26 -140 -65 -15 -26 -17 -61 -16 -306 0 -228 3 -282 16 -309 44 -92 167 -94 216 -3 16 29 18 59 18 240 l0 207 48 12 c134 34 286 156 354 286 51 97 71 181 71 294 0 59 -6 120 -17 160 -55 202 -217 367 -415 422 -68 19 -194 30 -246 21z"/>
<path d="M2218 3173 c-33 -6 -79 -57 -86 -92 -26 -127 122 -210 212 -120 43 42 49 93 18 156 -20 42 -87 68 -144 56z"/>
</g>
</svg>

