<?xml version="1.0" standalone="no"?>
<!DOCTYPE svg PUBLIC "-//W3C//DTD SVG 20010904//EN"
 "http://www.w3.org/TR/2001/REC-SVG-20010904/DTD/svg10.dtd">
<svg version="1.0" xmlns="http://www.w3.org/2000/svg"
 width="506pt" height="1000pt" viewBox="0 0 506 1000"
 preserveAspectRatio="xMidYMid meet">
<g transform="translate(0,1000) scale(0.100000,-0.100000)"
fill="#000000" stroke="none">
<path d="M2353 4140 c-1645 -4 -1958 -7 -1975 -19 -36 -25 -138 -147 -198 -237 -342 -517 -339 -1167 8 -1689 66 -100 176 -224 218 -247 30 -17 145 -18 2012 -18 1890 0 1982 1 2014 18 18 10 43 34 55 53 11 20 44 64 71 98 72 89 168 250 210 350 84 200 118 372 119 596 0 390 -124 714 -393 1020 -61 70 -87 85 -141 82 -25 -1 -925 -4 -2000 -7z m2031 -338 c111 -139 195 -323 236 -514 24 -115 24 -370 -1 -488 -44 -209 -150 -425 -278 -565 l-50 -55 -1883 0 -1883 0 -50 55 c-131 143 -233 351 -279 567 -24 115 -24 370 1 488 43 208 156 436 279 568 l31 32 1905 -2 1906 -3 66 -83z"/>
<path d="M1384 5592 c-36 -19 -71 -73 -71 -107 1 -57 49 -111 531 -591 522 -520 527 -524 602 -509 25 6 137 112 545 518 358 358 515 522 523 544 6 18 8 47 4 63 -8 39 -56 87 -95 95 -70 15 -82 6 -558 -469 l-452 -451 -453 452 c-248 249 -465 457 -480 463 -39 14 -57 13 -96 -8z"/>
<path d="M2358 1671 c-27 -13 -201 -180 -531 -512 -513 -516 -526 -530 -509 -596 16 -67 79 -110 143 -98 32 5 98 68 494 463 l458 457 452 -452 c473 -470 490 -485 555 -468 67 16 110 79 98 143 -5 32 -74 104 -513 546 -290 290 -521 514 -539 522 -42 18 -60 17 -108 -5z"/>
</g>
</svg>

