<?xml version="1.0" standalone="no"?>
<!DOCTYPE svg PUBLIC "-//W3C//DTD SVG 20010904//EN"
 "http://www.w3.org/TR/2001/REC-SVG-20010904/DTD/svg10.dtd">
<svg version="1.0" xmlns="http://www.w3.org/2000/svg"
 width="453pt" height="1000pt" viewBox="0 0 453 1000"
 preserveAspectRatio="xMidYMid meet">
<g transform="translate(0,1000) scale(0.100000,-0.100000)"
fill="#000000" stroke="none">
<path d="M2205 6081 c-57 -27 -1988 -1962 -2010 -2013 -13 -33 -15 -161 -15 -1035 0 -948 1 -1000 18 -1032 10 -19 34 -43 53 -53 32 -17 115 -18 2014 -18 1899 0 1982 1 2014 18 19 10 43 34 53 53 17 32 18 84 18 1032 0 833 -2 1003 -14 1030 -8 18 -210 228 -465 482 l-451 450 459 460 c398 398 461 465 466 497 12 64 -31 127 -98 143 -65 17 -82 2 -555 -469 l-452 -451 -453 452 c-248 249 -465 457 -480 463 -39 14 -56 13 -102 -9z m458 -689 l397 -397 -1315 -1315 -1315 -1315 0 800 0 800 912 912 c502 502 915 913 918 913 3 0 184 -179 403 -398z m1009 -1009 l428 -428 0 -887 0 -888 -1747 0 -1748 0 1315 1315 c723 723 1317 1315 1320 1315 3 0 197 -192 432 -427z"/>
</g>
</svg>

