<?xml version="1.0" standalone="no"?>
<!DOCTYPE svg PUBLIC "-//W3C//DTD SVG 20010904//EN"
 "http://www.w3.org/TR/2001/REC-SVG-20010904/DTD/svg10.dtd">
<svg version="1.0" xmlns="http://www.w3.org/2000/svg"
 width="453pt" height="1000pt" viewBox="0 0 453 1000"
 preserveAspectRatio="xMidYMid meet">
<g transform="translate(0,1000) scale(0.100000,-0.100000)"
fill="#000000" stroke="none">
<path d="M2090 4124 c-270 -49 -508 -184 -674 -383 -152 -182 -256 -467 -256 -701 0 -291 155 -637 367 -819 l48 -40 -645 -1 c-606 0 -647 -1 -679 -18 -36 -19 -71 -72 -71 -107 0 -35 35 -88 71 -107 32 -17 115 -18 2014 -18 1899 0 1982 1 2014 18 36 19 71 72 71 107 0 35 -35 88 -71 107 -32 17 -73 18 -681 18 l-648 0 83 83 c175 175 272 375 318 655 18 108 18 123 4 221 -57 391 -248 683 -560 856 -221 122 -481 170 -705 129z m400 -269 c292 -93 496 -299 584 -586 14 -47 26 -90 26 -97 0 -9 -194 -12 -840 -12 -727 0 -840 2 -840 14 0 8 12 52 26 98 89 281 290 486 565 577 106 35 147 40 274 37 97 -3 137 -9 205 -31z m610 -952 c0 -4 -12 -45 -26 -92 -87 -287 -289 -490 -584 -587 -77 -25 -98 -28 -230 -28 -132 0 -153 3 -230 28 -295 97 -497 300 -584 587 -14 47 -26 88 -26 92 0 4 378 7 840 7 462 0 840 -3 840 -7z"/>
</g>
</svg>

