<?xml version="1.0" standalone="no"?>
<!DOCTYPE svg PUBLIC "-//W3C//DTD SVG 20010904//EN"
 "http://www.w3.org/TR/2001/REC-SVG-20010904/DTD/svg10.dtd">
<svg version="1.0" xmlns="http://www.w3.org/2000/svg"
 width="636pt" height="1000pt" viewBox="0 0 636 1000"
 preserveAspectRatio="xMidYMid meet">
<g transform="translate(0,1000) scale(0.100000,-0.100000)"
fill="#000000" stroke="none">
<path d="M246 6082 c-47 -25 -74 -76 -66 -125 3 -21 431 -889 990 -2006 839 -1679 989 -1972 1017 -1993 l33 -23 999 -3 c958 -2 1004 -1 1122 18 162 26 286 67 409 135 296 164 488 441 550 796 61 347 -93 758 -373 994 -147 124 -345 214 -547 249 -360 63 -765 -91 -1009 -383 -152 -182 -256 -467 -256 -701 0 -291 155 -637 367 -819 l48 -40 -597 -1 -598 0 -969 1938 c-743 1487 -976 1943 -996 1956 -41 27 -85 30 -124 8z m4199 -2227 c176 -56 318 -152 431 -291 68 -83 117 -178 155 -299 26 -80 29 -104 29 -225 0 -121 -3 -145 -29 -225 -93 -295 -290 -493 -586 -591 -77 -25 -98 -28 -230 -28 -132 0 -153 3 -230 28 -179 59 -319 154 -431 292 -68 82 -117 177 -155 299 -26 82 -29 103 -28 230 0 126 3 149 28 225 95 288 291 488 567 579 106 35 147 40 274 37 97 -3 137 -9 205 -31z"/>
<path d="M5580 4115 c-30 -31 -35 -42 -35 -83 0 -41 6 -54 43 -99 144 -176 180 -225 220 -302 54 -102 100 -230 124 -343 24 -115 24 -370 -1 -488 -44 -211 -175 -473 -291 -580 -55 -50 -85 -106 -85 -154 0 -39 5 -51 35 -81 30 -30 42 -35 81 -35 59 0 85 17 159 100 295 336 428 810 350 1253 -52 290 -173 538 -374 762 -63 70 -88 85 -143 85 -41 0 -52 -5 -83 -35z"/>
</g>
</svg>

