<?xml version="1.0" standalone="no"?>
<!DOCTYPE svg PUBLIC "-//W3C//DTD SVG 20010904//EN"
 "http://www.w3.org/TR/2001/REC-SVG-20010904/DTD/svg10.dtd">
<svg version="1.0" xmlns="http://www.w3.org/2000/svg"
 width="348pt" height="1000pt" viewBox="0 0 348 1000"
 preserveAspectRatio="xMidYMid meet">
<g transform="translate(0,1000) scale(0.100000,-0.100000)"
fill="#000000" stroke="none">
<path d="M3090 6094 c-169 -13 -419 -67 -575 -124 -565 -207 -1023 -665 -1230 -1230 -57 -158 -120 -449 -120 -559 l0 -41 -443 0 c-409 0 -445 -1 -476 -18 -47 -25 -74 -76 -66 -125 3 -21 224 -474 500 -1027 538 -1076 515 -1035 600 -1035 22 0 53 9 68 20 23 14 136 232 533 1027 277 555 504 1018 504 1031 0 37 -34 89 -71 109 -31 17 -66 18 -466 18 l-433 0 0 41 c0 100 46 310 100 459 97 264 227 466 430 670 246 246 521 402 850 484 128 32 147 35 329 50 88 8 166 19 178 26 70 44 69 166 -1 210 -22 14 -124 20 -211 14z m-1421 -2976 c-212 -425 -388 -775 -390 -777 -3 -3 -774 1534 -774 1544 0 3 349 5 775 5 l775 0 -386 -772z"/>
</g>
</svg>

