<?xml version="1.0" standalone="no"?>
<!DOCTYPE svg PUBLIC "-//W3C//DTD SVG 20010904//EN"
 "http://www.w3.org/TR/2001/REC-SVG-20010904/DTD/svg10.dtd">
<svg version="1.0" xmlns="http://www.w3.org/2000/svg"
 width="453pt" height="1000pt" viewBox="0 0 453 1000"
 preserveAspectRatio="xMidYMid meet">
<g transform="translate(0,1000) scale(0.100000,-0.100000)"
fill="#000000" stroke="none">
<path d="M251 6082 c-19 -10 -43 -34 -53 -53 -17 -32 -18 -115 -18 -2014 0 -1899 1 -1982 18 -2014 33 -61 67 -71 235 -71 l149 0 -39 -32 c-108 -91 -230 -271 -289 -428 -59 -155 -86 -376 -64 -522 45 -292 190 -555 397 -719 103 -81 276 -170 397 -204 81 -23 105 -25 296 -25 191 0 215 2 296 25 122 34 294 123 398 205 92 73 195 194 249 291 18 32 34 59 37 59 3 0 20 -28 39 -63 53 -95 154 -213 248 -288 103 -81 276 -170 397 -204 81 -23 105 -25 296 -25 191 0 215 2 296 25 122 34 294 123 398 205 289 229 454 654 391 1009 -22 128 -62 246 -117 352 -58 111 -170 259 -231 304 l-42 30 165 5 c184 6 205 12 234 75 14 30 16 226 16 2012 0 1897 -1 1980 -18 2012 -10 19 -34 43 -53 53 -32 17 -115 18 -2014 18 -1899 0 -1982 -1 -2014 -18z m3849 -2067 l0 -1835 -1835 0 -1835 0 0 1835 0 1835 1835 0 1835 0 0 -1835z m-2590 -2120 c83 -27 188 -75 242 -112 l27 -19 -252 -252 -252 -252 -250 250 -250 251 25 19 c39 31 179 96 245 115 149 44 329 43 465 0z m993 3 c-21 -18 -55 -51 -75 -73 -44 -49 -144 -195 -153 -224 -3 -11 -9 -21 -13 -21 -4 0 -21 27 -39 59 -43 78 -156 219 -204 254 -21 16 -39 31 -39 33 0 2 126 4 281 4 l281 0 -39 -32z m967 -3 c83 -27 188 -75 242 -112 l27 -19 -252 -252 -252 -252 -250 250 -250 251 25 19 c39 31 179 96 245 115 149 44 329 43 465 0z m-2624 -1064 c-285 -285 -251 -271 -319 -136 -142 283 -125 588 47 852 l21 33 250 -250 250 -250 -249 -249z m1131 732 c30 -39 93 -173 119 -258 26 -80 29 -104 29 -225 0 -121 -3 -145 -29 -225 -27 -86 -89 -219 -121 -260 -15 -19 -26 -9 -268 233 l-252 252 250 250 c137 137 252 250 254 250 2 0 10 -8 18 -17z m829 -732 c-285 -285 -251 -271 -319 -136 -142 283 -125 588 47 852 l21 33 250 -250 250 -250 -249 -249z m1131 732 c30 -39 93 -173 119 -258 26 -80 29 -104 29 -225 0 -121 -3 -145 -29 -225 -27 -86 -89 -219 -121 -260 -15 -19 -26 -9 -268 233 l-252 252 250 250 c137 137 252 250 254 250 2 0 10 -8 18 -17z m-2185 -1186 c-53 -36 -158 -85 -242 -113 -77 -25 -98 -28 -230 -28 -132 0 -153 3 -230 28 -47 15 -119 46 -160 67 -134 70 -149 34 135 319 l250 250 252 -252 252 -252 -27 -19z m1960 0 c-53 -36 -158 -85 -242 -113 -77 -25 -98 -28 -230 -28 -132 0 -153 3 -230 28 -47 15 -119 46 -160 67 -134 70 -149 34 135 319 l250 250 252 -252 252 -252 -27 -19z"/>
</g>
</svg>

