<?xml version="1.0" standalone="no"?>
<!DOCTYPE svg PUBLIC "-//W3C//DTD SVG 20010904//EN"
 "http://www.w3.org/TR/2001/REC-SVG-20010904/DTD/svg10.dtd">
<svg version="1.0" xmlns="http://www.w3.org/2000/svg"
 width="452pt" height="1000pt" viewBox="0 0 452 1000"
 preserveAspectRatio="xMidYMid meet">
<g transform="translate(0,1000) scale(0.100000,-0.100000)"
fill="#000000" stroke="none">
<path d="M2207 6084 c-18 -9 -41 -29 -51 -43 -41 -58 -1971 -3933 -1976 -3968 -8 -49 19 -100 66 -125 32 -17 115 -18 2014 -18 1899 0 1982 1 2014 18 37 20 71 72 71 109 0 13 -447 918 -994 2011 -764 1527 -1000 1993 -1021 2006 -39 25 -85 29 -123 10z m55 -3902 c-963 -1 -1752 0 -1754 2 -2 2 390 793 873 1757 l877 1754 877 -1755 878 -1755 -1751 -3z"/>
<path d="M2180 4623 c-256 -40 -449 -208 -510 -443 -21 -81 -24 -188 -7 -222 29 -54 115 -75 172 -41 38 22 48 43 64 139 17 99 43 152 107 216 74 74 144 103 249 103 106 0 175 -29 250 -105 76 -75 105 -144 105 -250 0 -105 -29 -175 -103 -249 -64 -64 -117 -90 -216 -107 -96 -17 -117 -26 -140 -65 -15 -26 -17 -61 -16 -306 0 -228 3 -282 16 -309 44 -92 167 -94 216 -3 16 29 18 59 18 240 l0 207 48 12 c134 34 286 156 354 286 51 97 71 181 71 294 0 59 -6 120 -17 160 -55 202 -217 367 -415 422 -68 19 -194 30 -246 21z"/>
<path d="M2218 2683 c-33 -6 -79 -57 -86 -92 -26 -127 122 -210 212 -120 43 42 49 93 18 156 -20 42 -87 68 -144 56z"/>
</g>
</svg>

