<?xml version="1.0" standalone="no"?>
<!DOCTYPE svg PUBLIC "-//W3C//DTD SVG 20010904//EN"
 "http://www.w3.org/TR/2001/REC-SVG-20010904/DTD/svg10.dtd">
<svg version="1.0" xmlns="http://www.w3.org/2000/svg"
 width="598pt" height="1000pt" viewBox="0 0 598 1000"
 preserveAspectRatio="xMidYMid meet">
<g transform="translate(0,1000) scale(0.100000,-0.100000)"
fill="#000000" stroke="none">
<path d="M2195 6081 c-28 -13 -346 -325 -1022 -1002 -1072 -1074 -1021 -1018 -993 -1105 10 -32 192 -220 994 -1023 739 -741 992 -988 1025 -1003 90 -41 11 -112 1119 995 711 711 1005 1011 1013 1035 24 74 64 31 -999 1096 -583 584 -1010 1004 -1029 1012 -42 18 -60 17 -108 -5z m948 -1179 l887 -887 -890 -890 -890 -890 -890 890 -890 890 887 887 c489 489 890 888 893 888 3 0 404 -399 893 -888z"/>
<path d="M5625 5101 c-26 -12 -208 -188 -531 -512 -535 -538 -529 -530 -504 -613 10 -35 85 -115 503 -535 519 -520 542 -540 613 -527 41 8 90 56 99 96 4 16 2 45 -4 62 -8 23 -151 173 -466 488 l-455 455 459 460 c503 504 493 491 456 568 -32 67 -102 91 -170 58z"/>
</g>
</svg>

