<?xml version="1.0" standalone="no"?>
<!DOCTYPE svg PUBLIC "-//W3C//DTD SVG 20010904//EN"
 "http://www.w3.org/TR/2001/REC-SVG-20010904/DTD/svg10.dtd">
<svg version="1.0" xmlns="http://www.w3.org/2000/svg"
 width="524pt" height="1000pt" viewBox="0 0 524 1000"
 preserveAspectRatio="xMidYMid meet">
<g transform="translate(0,1000) scale(0.100000,-0.100000)"
fill="#000000" stroke="none">
<path d="M1560 5102 c-35 -19 -71 -72 -71 -105 0 -55 41 -103 413 -474 l382 -383 -849 0 c-967 0 -863 11 -961 -100 -122 -139 -235 -337 -294 -515 -150 -454 -84 -927 184 -1330 66 -100 176 -224 218 -248 29 -16 90 -17 867 -17 l835 0 -387 -388 c-402 -403 -420 -425 -403 -489 16 -67 79 -110 143 -98 32 5 98 68 494 463 l458 457 452 -452 c473 -470 490 -485 555 -468 67 16 110 79 98 143 -5 32 -61 92 -403 435 l-397 397 840 0 c940 0 883 -4 929 71 11 20 44 64 71 98 72 89 168 250 210 350 84 200 118 372 119 596 0 390 -125 715 -392 1020 -25 27 -53 56 -64 64 -16 11 -161 13 -866 12 l-847 -2 397 398 c342 343 398 403 403 435 12 64 -31 127 -98 143 -65 17 -82 2 -555 -469 l-452 -451 -453 452 c-248 249 -465 457 -480 463 -39 14 -57 13 -96 -8z m3000 -1300 c111 -139 195 -323 236 -514 24 -115 24 -370 -1 -488 -44 -209 -150 -425 -278 -565 l-50 -55 -1883 0 -1883 0 -50 55 c-131 143 -233 351 -279 567 -24 115 -24 370 1 488 43 208 156 436 279 568 l31 32 1905 -2 1906 -3 66 -83z"/>
</g>
</svg>

