<?xml version="1.0" standalone="no"?>
<!DOCTYPE svg PUBLIC "-//W3C//DTD SVG 20010904//EN"
 "http://www.w3.org/TR/2001/REC-SVG-20010904/DTD/svg10.dtd">
<svg version="1.0" xmlns="http://www.w3.org/2000/svg"
 width="254pt" height="1000pt" viewBox="0 0 254 1000"
 preserveAspectRatio="xMidYMid meet">
<g transform="translate(0,1000) scale(0.100000,-0.100000)"
fill="#000000" stroke="none">
<path d="M1223 6090 c-12 -5 -79 -59 -150 -119 -529 -453 -845 -1089 -893 -1798 -25 -378 49 -807 203 -1165 148 -347 413 -709 677 -928 l91 -75 0 -965 c0 -923 1 -967 19 -1000 l18 -35 88 0 88 0 18 35 c18 33 19 77 20 1005 l0 970 85 70 c258 211 525 579 672 923 108 251 180 552 204 845 13 165 13 164 0 329 -57 715 -369 1339 -894 1789 -152 130 -181 144 -246 119z m-72 -1170 l0 -780 -362 0 -361 0 6 93 c26 380 193 821 437 1152 62 84 265 315 276 315 2 0 4 -351 4 -780z m507 480 c48 -63 115 -164 150 -223 161 -276 280 -650 300 -944 l6 -93 -356 0 -357 0 0 778 1 777 85 -90 c47 -49 124 -142 171 -205z m-507 -2287 l-1 -778 -90 95 c-113 119 -244 293 -326 433 -160 273 -279 646 -300 940 l-6 87 362 0 361 0 0 -777z m957 690 c-21 -294 -140 -667 -300 -940 -81 -137 -212 -313 -321 -428 l-85 -90 -1 773 0 772 356 0 357 0 -6 -87z"/>
</g>
</svg>

