<?xml version="1.0" standalone="no"?>
<!DOCTYPE svg PUBLIC "-//W3C//DTD SVG 20010904//EN"
 "http://www.w3.org/TR/2001/REC-SVG-20010904/DTD/svg10.dtd">
<svg version="1.0" xmlns="http://www.w3.org/2000/svg"
 width="1530pt" height="1000pt" viewBox="0 0 1530 1000"
 preserveAspectRatio="xMidYMid meet">
<metadata>
Created by potrace 1.9, written by Peter Selinger 2001-2010
</metadata>
<g transform="translate(0,1000) scale(0.100000,-0.100000)"
fill="#000000" stroke="none">
<path d="M9071 6082 c-19 -10 -43 -34 -53 -53 -17 -32 -18 -79 -18 -874 l0
-840 -397 397 c-343 342 -403 398 -435 403 -64 12 -127 -31 -143 -98 -17 -64
1 -86 403 -489 l387 -388 -1815 0 c-1739 0 -1817 -1 -1849 -18 -36 -19 -71
-72 -71 -107 0 -35 35 -88 71 -107 32 -17 110 -18 1849 -18 l1815 0 -387 -387
c-402 -404 -420 -426 -403 -490 16 -67 79 -110 143 -98 32 5 92 61 435 403
l397 397 0 -840 c0 -795 1 -842 18 -874 19 -36 72 -71 107 -71 35 0 88 35 107
71 17 32 18 115 18 2014 0 1899 -1 1982 -18 2014 -19 36 -72 71 -107 71 -11 0
-36 -8 -54 -18z"/>
<path d="M11915 6094 c-684 -55 -1279 -418 -1631 -994 -199 -327 -298 -686
-298 -1080 0 -204 15 -323 64 -520 184 -731 759 -1306 1490 -1490 197 -49 316
-64 520 -64 557 0 1074 211 1461 595 354 352 565 806 609 1312 l8 100 491 491
c425 426 491 496 496 528 12 64 -31 127 -98 143 -65 17 -85 0 -503 -417 -318
-316 -403 -397 -407 -382 -3 11 -9 39 -12 64 -11 77 -63 271 -95 360 -101 276
-275 546 -489 759 -372 369 -872 581 -1407 595 -82 2 -171 2 -199 0z m418
-265 c215 -32 478 -126 660 -235 240 -145 495 -400 640 -641 78 -129 159 -326
198 -478 11 -44 22 -89 26 -100 3 -11 -165 150 -373 357 -326 324 -384 378
-416 383 -64 12 -127 -31 -143 -98 -17 -66 -4 -81 491 -577 l474 -475 -10
-110 c-19 -222 -71 -411 -170 -623 -142 -302 -420 -607 -717 -786 -184 -110
-440 -201 -668 -237 -44 -7 -163 -13 -265 -13 -195 0 -285 10 -440 49 -327 83
-601 238 -841 476 -207 206 -342 416 -439 679 -76 209 -104 374 -104 620 0
195 10 285 49 440 84 331 239 604 485 850 318 317 699 495 1150 534 73 6 334
-3 413 -15z"/>
<path d="M2205 4127 c-63 -29 -89 -121 -51 -179 10 -15 68 -70 129 -122 201
-169 382 -384 514 -609 161 -276 280 -650 300 -944 l6 -93 -1409 0 c-1346 0
-1411 -1 -1443 -18 -36 -19 -71 -72 -71 -107 0 -35 35 -88 71 -107 32 -17 115
-18 2014 -18 1904 0 1982 1 2015 18 19 11 42 35 52 54 20 38 17 99 -18 353
-62 446 -265 856 -584 1175 -367 366 -850 578 -1380 605 -87 4 -122 2 -145 -8z
m530 -301 c133 -34 336 -119 458 -192 242 -146 495 -399 641 -641 131 -219
246 -579 246 -772 l0 -41 -363 0 -364 0 -6 93 c-16 237 -97 561 -199 799 -98
230 -292 539 -432 688 -29 30 -59 64 -67 74 -13 17 -12 18 6 13 11 -3 47 -13
80 -21z"/>
</g>
</svg>
