<?xml version="1.0" standalone="no"?>
<!DOCTYPE svg PUBLIC "-//W3C//DTD SVG 20010904//EN"
 "http://www.w3.org/TR/2001/REC-SVG-20010904/DTD/svg10.dtd">
<svg version="1.0" xmlns="http://www.w3.org/2000/svg"
 width="158pt" height="1000pt" viewBox="0 0 158 1000"
 preserveAspectRatio="xMidYMid meet">
<metadata>
Created by potrace 1.9, written by Peter Selinger 2001-2010
</metadata>
<g transform="translate(0,1000) scale(0.100000,-0.100000)"
fill="#000000" stroke="none">
<path d="M715 4133 c-256 -40 -447 -206 -511 -443 -23 -86 -23 -234 0 -320 55
-202 214 -364 415 -423 88 -26 242 -27 331 -3 36 10 98 35 138 57 l72 40 0
-228 c-1 -334 -20 -413 -121 -515 -74 -74 -144 -103 -249 -103 -105 0 -175 29
-249 103 -64 64 -90 117 -107 216 -8 45 -19 90 -25 102 -26 50 -114 70 -169
37 -42 -24 -55 -58 -54 -132 6 -253 184 -481 433 -554 91 -27 251 -27 342 0
160 47 298 162 368 306 73 148 75 168 79 737 2 353 0 522 -8 560 -30 144 -44
190 -78 254 -69 132 -213 247 -361 288 -68 19 -194 30 -246 21z m220 -277 c71
-32 149 -111 183 -184 22 -48 27 -71 27 -142 0 -106 -29 -175 -105 -250 -75
-76 -144 -105 -250 -105 -106 0 -175 29 -250 105 -76 75 -105 144 -105 250 0
71 5 94 27 142 45 98 146 183 245 208 61 15 167 4 228 -24z"/>
</g>
</svg>
