<?xml version="1.0" standalone="no"?>
<!DOCTYPE svg PUBLIC "-//W3C//DTD SVG 20010904//EN"
 "http://www.w3.org/TR/2001/REC-SVG-20010904/DTD/svg10.dtd">
<svg version="1.0" xmlns="http://www.w3.org/2000/svg"
 width="942pt" height="1000pt" viewBox="0 0 942 1000"
 preserveAspectRatio="xMidYMid meet">
<metadata>
Created by potrace 1.9, written by Peter Selinger 2001-2010
</metadata>
<g transform="translate(0,1000) scale(0.100000,-0.100000)"
fill="#000000" stroke="none">
<path d="M4172 6085 c-51 -22 -257 -202 -363 -316 -262 -285 -471 -652 -577
-1014 -85 -290 -121 -608 -103 -888 48 -709 364 -1345 894 -1799 71 -61 141
-116 155 -124 23 -12 331 -14 2005 -14 1822 0 1982 1 2014 17 19 9 37 22 40
29 2 6 51 51 108 99 354 296 650 753 783 1210 142 486 142 984 0 1470 -106
362 -315 729 -577 1014 -96 103 -306 289 -358 316 -42 22 -3971 22 -4021 0z
m4015 -319 c331 -283 584 -677 708 -1099 122 -419 122 -875 0 -1294 -124 -425
-378 -818 -714 -1104 l-104 -89 -1897 0 -1897 0 -104 89 c-336 286 -590 679
-714 1104 -122 419 -122 875 0 1294 124 422 377 816 708 1099 l98 84 1909 0
1909 0 98 -84z"/>
<path d="M5145 4121 c-27 -13 -201 -180 -531 -512 -513 -516 -526 -530 -509
-596 16 -67 79 -110 143 -98 32 5 98 68 494 463 l458 457 452 -452 c479 -476
487 -483 561 -468 25 6 127 102 489 463 l458 457 452 -452 c476 -474 488 -483
558 -468 39 8 87 56 95 95 4 16 2 45 -4 63 -8 22 -165 186 -523 544 -408 406
-520 512 -545 518 -74 15 -82 8 -561 -469 l-452 -451 -453 452 c-248 249 -465
457 -480 463 -39 14 -56 13 -102 -9z"/>
<path d="M1243 5123 c-33 -6 -79 -57 -86 -92 -26 -127 122 -210 212 -120 43
42 49 93 18 156 -20 42 -87 68 -144 56z"/>
<path d="M251 4122 c-36 -19 -71 -72 -71 -107 0 -35 35 -88 71 -107 32 -17 84
-18 1034 -18 950 0 1002 1 1034 18 36 19 71 72 71 107 0 35 -35 88 -71 107
-32 17 -84 18 -1034 18 -950 0 -1002 -1 -1034 -18z"/>
<path d="M1243 3163 c-33 -6 -79 -57 -86 -92 -26 -127 122 -210 212 -120 43
42 49 93 18 156 -20 42 -87 68 -144 56z"/>
</g>
</svg>
