<?xml version="1.0" standalone="no"?>
<!DOCTYPE svg PUBLIC "-//W3C//DTD SVG 20010904//EN"
 "http://www.w3.org/TR/2001/REC-SVG-20010904/DTD/svg10.dtd">
<svg version="1.0" xmlns="http://www.w3.org/2000/svg"
 width="1530pt" height="1000pt" viewBox="0 0 1530 1000"
 preserveAspectRatio="xMidYMid meet">
<metadata>
Created by potrace 1.9, written by Peter Selinger 2001-2010
</metadata>
<g transform="translate(0,1000) scale(0.100000,-0.100000)"
fill="#000000" stroke="none">
<path d="M251 6082 c-19 -10 -43 -34 -53 -53 -17 -32 -18 -115 -18 -2014 0
-1899 1 -1982 18 -2014 10 -19 34 -43 53 -53 32 -17 84 -18 1034 -18 950 0
1002 1 1034 18 36 19 71 72 71 107 0 35 -35 88 -71 107 -32 17 -82 18 -961 18
l-928 0 0 893 0 892 480 480 c333 333 483 490 491 513 6 17 8 46 4 62 -8 39
-56 87 -95 95 -70 15 -85 2 -492 -403 l-388 -387 0 835 c0 790 -1 837 -18 869
-19 36 -72 71 -107 71 -11 0 -36 -8 -54 -18z"/>
<path d="M11031 6082 c-19 -10 -43 -34 -53 -53 -17 -32 -18 -115 -18 -2014 0
-1899 1 -1982 18 -2014 10 -19 34 -43 53 -53 32 -17 115 -18 2014 -18 1899 0
1982 1 2014 18 19 10 43 34 53 53 17 32 18 115 18 2014 0 1899 -1 1982 -18
2014 -10 19 -34 43 -53 53 -32 17 -115 18 -2014 18 -1899 0 -1982 -1 -2014
-18z m3849 -2067 l0 -1835 -1835 0 -1835 0 0 1835 0 1835 1835 0 1835 0 0
-1835z"/>
<path d="M12870 5104 c-194 -35 -394 -125 -531 -240 -290 -242 -446 -650 -384
-1003 49 -279 185 -523 384 -685 145 -119 339 -206 536 -240 114 -20 216 -20
330 0 489 85 833 432 920 925 61 347 -93 758 -373 994 -241 203 -592 302 -882
249z m400 -269 c176 -56 318 -152 431 -291 68 -83 117 -178 155 -299 26 -80
29 -104 29 -225 0 -121 -3 -145 -29 -225 -93 -295 -290 -493 -586 -591 -77
-25 -98 -28 -230 -28 -132 0 -153 3 -230 28 -179 59 -319 154 -431 292 -68 82
-117 177 -155 299 -26 82 -29 103 -28 230 0 126 3 149 28 225 95 288 291 488
567 579 106 35 147 40 274 37 97 -3 137 -9 205 -31z"/>
<path d="M13003 4143 c-33 -6 -79 -57 -86 -92 -26 -127 122 -210 212 -120 43
42 49 93 18 156 -20 42 -87 68 -144 56z"/>
<path d="M10051 5102 c-19 -10 -43 -34 -53 -53 -17 -32 -18 -77 -18 -789 0
-712 1 -757 18 -789 19 -36 72 -71 107 -71 35 0 88 35 107 71 17 32 18 77 18
789 0 712 -1 757 -18 789 -19 36 -72 71 -107 71 -11 0 -36 -8 -54 -18z"/>
<path d="M6017 4619 c-341 -39 -646 -181 -880 -409 -76 -74 -97 -101 -97 -122
0 -22 -13 -38 -57 -73 -179 -142 -413 -235 -649 -257 -347 -33 -685 77 -942
305 -37 33 -82 66 -101 74 -97 41 -194 -51 -161 -152 30 -90 296 -282 514
-371 461 -188 991 -134 1410 143 100 67 215 165 240 205 9 14 16 35 16 46 0
35 143 152 270 221 92 49 240 104 346 127 110 24 388 24 498 0 106 -23 252
-77 347 -128 77 -41 230 -152 228 -166 -6 -40 7 -62 79 -130 261 -248 574
-390 931 -423 261 -25 543 28 786 146 113 54 251 146 337 222 37 32 78 66 93
76 39 27 59 77 51 123 -6 32 -25 56 -104 134 -150 147 -346 268 -542 334 -334
111 -659 111 -990 -1 -153 -52 -303 -133 -434 -235 -26 -21 -53 -35 -60 -31
-6 4 -29 21 -51 38 -119 94 -276 178 -425 228 -219 74 -444 101 -653 76z
m2367 -264 c176 -36 368 -123 501 -228 87 -67 88 -61 -14 -136 -129 -95 -319
-180 -486 -217 -98 -21 -377 -24 -475 -5 -104 20 -218 59 -325 111 -108 52
-265 161 -265 184 0 19 129 116 220 165 131 70 295 123 432 141 100 12 317 4
412 -15z"/>
<path d="M10063 3173 c-33 -6 -79 -57 -86 -92 -26 -127 122 -210 212 -120 43
42 49 93 18 156 -20 42 -87 68 -144 56z"/>
</g>
</svg>
