<?xml version="1.0" standalone="no"?>
<!DOCTYPE svg PUBLIC "-//W3C//DTD SVG 20010904//EN"
 "http://www.w3.org/TR/2001/REC-SVG-20010904/DTD/svg10.dtd">
<svg version="1.0" xmlns="http://www.w3.org/2000/svg"
 width="1040pt" height="1000pt" viewBox="0 0 1040 1000"
 preserveAspectRatio="xMidYMid meet">
<metadata>
Created by potrace 1.9, written by Peter Selinger 2001-2010
</metadata>
<g transform="translate(0,1000) scale(0.100000,-0.100000)"
fill="#000000" stroke="none">
<path d="M4050 6084 c-122 -22 -238 -62 -349 -121 -308 -161 -509 -452 -568
-819 -16 -100 -16 -107 6 -249 102 -668 339 -1249 727 -1787 213 -295 500
-591 784 -809 109 -84 285 -204 378 -259 39 -23 72 -46 72 -50 0 -19 73 -42
113 -36 42 7 67 21 307 178 525 342 962 812 1282 1383 236 419 387 861 467
1360 20 125 19 131 -5 283 -77 488 -428 840 -920 926 -359 63 -766 -92 -1007
-382 -35 -42 -79 -105 -98 -139 -19 -35 -36 -63 -39 -63 -3 1 -24 33 -47 73
-209 364 -689 586 -1103 511z m400 -269 c353 -114 585 -399 619 -764 5 -54 15
-107 22 -119 43 -69 175 -69 218 0 7 12 17 65 22 119 17 179 89 357 197 484
115 137 243 222 422 281 77 25 98 28 230 28 132 0 153 -3 230 -28 183 -61 317
-152 431 -292 66 -80 115 -175 155 -294 25 -76 28 -100 28 -220 0 -110 -5
-159 -27 -265 -86 -404 -225 -774 -424 -1130 -233 -414 -580 -812 -991 -1134
-100 -78 -359 -251 -375 -251 -25 0 -221 130 -377 249 -399 305 -780 745
-1005 1156 -227 415 -372 837 -440 1280 -20 130 -15 201 22 318 88 280 289
485 564 576 106 35 147 40 274 37 97 -3 136 -9 205 -31z"/>
<path d="M8950 6084 c-270 -49 -508 -184 -674 -383 -76 -91 -164 -253 -200
-368 -53 -171 -69 -347 -35 -401 43 -68 165 -68 208 0 7 12 17 65 22 119 34
365 263 647 619 765 77 25 98 28 230 28 132 0 153 -3 230 -28 183 -61 317
-152 431 -292 66 -80 115 -175 155 -294 25 -76 28 -100 28 -220 0 -110 -5
-159 -27 -265 -113 -532 -328 -1027 -628 -1446 -306 -428 -714 -805 -1150
-1063 -128 -75 -144 -94 -144 -159 0 -39 6 -60 24 -84 50 -67 -14 -63 1088
-63 948 0 1000 1 1032 18 36 19 71 72 71 107 0 35 -35 88 -71 107 -32 17 -78
18 -829 19 -751 0 -794 1 -770 17 80 55 238 180 344 272 553 485 996 1189
1196 1905 64 226 132 588 123 655 -31 253 -83 411 -188 575 -222 347 -685 552
-1085 479z"/>
<path d="M251 5102 c-19 -10 -43 -34 -53 -53 -17 -32 -18 -84 -18 -1034 0
-950 1 -1002 18 -1034 10 -19 34 -43 53 -53 32 -17 84 -18 1034 -18 950 0
1002 1 1034 18 19 10 43 34 53 53 17 32 18 84 18 1034 0 950 -1 1002 -18 1034
-10 19 -34 43 -53 53 -32 17 -84 18 -1034 18 -950 0 -1002 -1 -1034 -18z
m1889 -1087 l0 -855 -855 0 -855 0 0 855 0 855 855 0 855 0 0 -855z"/>
</g>
</svg>
