<?xml version="1.0" standalone="no"?>
<!DOCTYPE svg PUBLIC "-//W3C//DTD SVG 20010904//EN"
 "http://www.w3.org/TR/2001/REC-SVG-20010904/DTD/svg10.dtd">
<svg version="1.0" xmlns="http://www.w3.org/2000/svg"
 width="452pt" height="1000pt" viewBox="0 0 452 1000"
 preserveAspectRatio="xMidYMid meet">
<metadata>
Created by potrace 1.9, written by Peter Selinger 2001-2010
</metadata>
<g transform="translate(0,1000) scale(0.100000,-0.100000)"
fill="#000000" stroke="none">
<path d="M1721 8042 c-47 -25 -74 -76 -66 -125 3 -21 118 -263 255 -537 272
-544 273 -545 355 -545 78 1 77 -2 357 559 278 556 274 547 233 609 -23 35
-79 60 -118 53 -66 -13 -82 -38 -282 -436 l-193 -385 -195 391 c-143 286 -202
395 -222 408 -41 27 -85 30 -124 8z"/>
<path d="M4170 6085 c-22 -10 -260 -241 -630 -611 l-595 -594 -40 29 c-122 89
-310 166 -481 195 -223 39 -459 -2 -683 -121 -301 -158 -503 -444 -565 -799
-28 -160 -17 -307 40 -493 27 -90 118 -274 160 -325 l25 -29 -599 -601 c-632
-633 -633 -634 -617 -706 8 -39 56 -87 95 -95 16 -4 45 -2 62 4 23 8 213 191
633 611 330 330 604 600 608 600 5 0 23 -11 40 -24 58 -44 221 -124 303 -150
180 -55 338 -68 499 -40 489 85 833 432 920 925 44 248 -26 550 -179 778 -20
29 -36 56 -36 59 0 4 272 279 604 612 662 662 639 635 601 713 -30 64 -100 90
-165 62z m-1680 -1250 c80 -26 211 -88 255 -121 19 -14 -10 -44 -573 -606
-566 -567 -592 -592 -607 -573 -32 41 -94 174 -122 260 -25 82 -28 103 -27
230 0 126 3 149 28 225 95 288 291 488 567 579 106 35 147 40 274 37 97 -3
137 -9 205 -31z m523 -430 c19 -39 48 -111 63 -160 26 -80 29 -104 29 -225 0
-121 -3 -145 -29 -225 -93 -295 -290 -493 -586 -591 -77 -25 -98 -28 -230 -28
-132 0 -153 3 -230 28 -90 30 -157 61 -227 105 l-43 26 592 592 c586 586 592
591 608 570 10 -12 33 -54 53 -92z"/>
</g>
</svg>
