<?xml version="1.0" standalone="no"?>
<!DOCTYPE svg PUBLIC "-//W3C//DTD SVG 20010904//EN"
 "http://www.w3.org/TR/2001/REC-SVG-20010904/DTD/svg10.dtd">
<svg version="1.0" xmlns="http://www.w3.org/2000/svg"
 width="599pt" height="1000pt" viewBox="0 0 599 1000"
 preserveAspectRatio="xMidYMid meet">
<metadata>
Created by potrace 1.9, written by Peter Selinger 2001-2010
</metadata>
<g transform="translate(0,1000) scale(0.100000,-0.100000)"
fill="#000000" stroke="none">
<path d="M251 7062 c-36 -19 -71 -73 -71 -107 1 -57 49 -111 479 -540 l441
-440 -449 -450 c-468 -470 -483 -487 -466 -552 16 -67 79 -110 143 -98 32 5
105 74 550 518 358 358 515 522 523 544 24 73 30 65 -509 607 -290 290 -521
514 -539 522 -43 18 -61 18 -102 -4z"/>
<path d="M1721 6082 c-35 -19 -71 -72 -71 -105 0 -52 40 -101 276 -338 218
-218 243 -247 229 -259 -26 -21 -157 -206 -214 -302 -189 -316 -285 -673 -285
-1058 0 -204 15 -323 64 -520 184 -731 759 -1306 1490 -1490 197 -49 316 -64
520 -64 385 0 742 96 1058 285 96 57 281 188 302 214 12 14 43 -13 269 -238
266 -264 297 -288 358 -272 67 16 110 79 98 143 -5 31 -46 77 -267 298 l-260
261 80 104 c293 383 436 802 436 1279 0 204 -15 323 -64 520 -184 731 -759
1306 -1490 1490 -197 49 -316 64 -520 64 -393 0 -753 -99 -1079 -298 -100 -61
-228 -152 -274 -194 l-28 -26 -252 251 c-139 139 -265 257 -280 263 -39 14
-57 13 -96 -8z m2282 -253 c215 -32 478 -126 660 -235 240 -145 495 -400 640
-641 111 -184 202 -440 238 -668 7 -44 13 -163 13 -265 0 -102 -6 -221 -13
-265 -36 -228 -127 -484 -238 -668 -37 -63 -176 -251 -191 -261 -4 -3 -587
574 -1295 1282 l-1288 1288 28 26 c15 14 62 50 103 80 271 196 585 312 930
342 73 6 334 -3 413 -15z m-364 -1903 c830 -830 1281 -1288 1276 -1296 -10
-17 -179 -139 -252 -184 -184 -110 -440 -201 -668 -237 -103 -16 -427 -16
-530 0 -228 36 -484 127 -668 237 -240 145 -495 400 -640 641 -111 184 -202
440 -238 668 -7 44 -13 163 -13 265 0 102 6 221 13 265 50 316 178 613 373
864 27 34 51 61 56 61 4 0 585 -578 1291 -1284z"/>
</g>
</svg>
