<?xml version="1.0" standalone="no"?>
<!DOCTYPE svg PUBLIC "-//W3C//DTD SVG 20010904//EN"
 "http://www.w3.org/TR/2001/REC-SVG-20010904/DTD/svg10.dtd">
<svg version="1.0" xmlns="http://www.w3.org/2000/svg"
 width="1334pt" height="1000pt" viewBox="0 0 1334 1000"
 preserveAspectRatio="xMidYMid meet">
<metadata>
Created by potrace 1.9, written by Peter Selinger 2001-2010
</metadata>
<g transform="translate(0,1000) scale(0.100000,-0.100000)"
fill="#000000" stroke="none">
<path d="M2211 6082 c-19 -10 -43 -34 -53 -53 -17 -32 -18 -113 -18 -1941 l0
-1908 -928 0 c-879 0 -929 -1 -961 -18 -36 -19 -71 -72 -71 -107 0 -35 35 -88
71 -107 32 -17 115 -18 2014 -18 1899 0 1982 1 2014 18 36 19 71 72 71 107 0
35 -35 88 -71 107 -32 17 -82 18 -961 18 l-928 0 0 855 0 855 928 0 c879 0
929 1 961 18 19 10 43 34 53 53 17 32 18 84 18 1034 0 950 -1 1002 -18 1034
-10 19 -34 43 -53 53 -32 17 -84 18 -1034 18 -950 0 -1002 -1 -1034 -18z
m1889 -1087 l0 -855 -855 0 -855 0 0 855 0 855 855 0 855 0 0 -855z"/>
<path d="M12990 6084 c-23 -10 -701 -681 -1985 -1964 -1073 -1073 -1955 -1950
-1961 -1950 -6 0 -44 -29 -84 -65 -159 -143 -359 -244 -575 -291 -98 -21 -377
-24 -475 -5 -173 34 -372 120 -505 219 -67 49 -83 66 -93 99 -25 83 -249 269
-457 379 -224 119 -547 181 -802 156 -288 -29 -490 -101 -728 -258 -121 -80
-274 -227 -284 -274 -21 -96 61 -174 154 -149 22 6 66 39 118 87 150 142 262
212 438 276 158 57 233 69 424 69 191 0 266 -12 424 -69 120 -44 226 -100 316
-169 91 -69 120 -101 135 -149 15 -45 72 -102 185 -185 233 -169 474 -262 759
-291 378 -39 790 84 1089 325 l67 55 1958 0 c1877 0 1959 1 1991 18 19 10 43
34 53 53 17 32 18 115 18 2014 0 1899 -1 1982 -18 2014 -19 36 -73 71 -107 71
-11 -1 -36 -8 -55 -16z m-70 -2159 l0 -1745 -1747 0 -1748 0 1745 1745 c960
960 1746 1745 1747 1745 2 0 3 -785 3 -1745z"/>
</g>
</svg>
