<?xml version="1.0" standalone="no"?>
<!DOCTYPE svg PUBLIC "-//W3C//DTD SVG 20010904//EN"
 "http://www.w3.org/TR/2001/REC-SVG-20010904/DTD/svg10.dtd">
<svg version="1.0" xmlns="http://www.w3.org/2000/svg"
 width="1236pt" height="1000pt" viewBox="0 0 1236 1000"
 preserveAspectRatio="xMidYMid meet">
<metadata>
Created by potrace 1.9, written by Peter Selinger 2001-2010
</metadata>
<g transform="translate(0,1000) scale(0.100000,-0.100000)"
fill="#000000" stroke="none">
<path d="M2090 6084 c-270 -49 -508 -184 -674 -383 -113 -135 -208 -344 -237
-520 l-12 -68 -68 -12 c-176 -29 -385 -124 -520 -237 -290 -242 -446 -650
-384 -1003 49 -279 185 -523 384 -685 188 -154 467 -256 701 -256 239 0 523
106 712 265 280 236 434 647 373 994 -62 352 -254 632 -543 792 -125 69 -207
99 -374 134 -35 7 -35 21 -2 127 91 288 289 486 584 584 77 25 98 28 230 28
132 0 153 -3 230 -28 183 -61 317 -152 431 -292 66 -80 115 -175 155 -294 25
-76 28 -100 28 -220 0 -110 -5 -159 -27 -265 -116 -544 -340 -1056 -641 -1465
-324 -441 -698 -782 -1159 -1059 -93 -56 -127 -94 -127 -144 0 -76 66 -135
138 -123 39 6 169 80 347 200 768 512 1362 1337 1608 2232 66 241 129 576 120
644 -31 253 -83 411 -188 575 -222 347 -685 552 -1085 479z m-580 -1249 c176
-56 318 -152 431 -291 68 -83 117 -178 155 -299 26 -80 29 -104 29 -225 0
-121 -3 -145 -29 -225 -93 -295 -290 -493 -586 -591 -77 -25 -98 -28 -230 -28
-132 0 -153 3 -230 28 -179 59 -319 154 -431 292 -68 82 -117 177 -155 299
-26 82 -29 103 -28 230 0 126 3 149 28 225 95 288 291 488 567 579 106 35 147
40 274 37 97 -3 137 -9 205 -31z"/>
<path d="M12010 6084 c-23 -10 -701 -681 -1985 -1964 -1073 -1073 -1955 -1950
-1961 -1950 -6 0 -44 -29 -84 -65 -159 -143 -359 -244 -575 -291 -98 -21 -377
-24 -475 -5 -173 34 -372 120 -505 219 -67 49 -83 66 -93 99 -25 83 -249 269
-457 379 -224 119 -547 181 -802 156 -288 -29 -490 -101 -728 -258 -121 -80
-274 -227 -284 -274 -21 -96 61 -174 154 -149 22 6 66 39 118 87 150 142 262
212 438 276 158 57 233 69 424 69 191 0 266 -12 424 -69 120 -44 226 -100 316
-169 91 -69 120 -101 135 -149 15 -45 72 -102 185 -185 233 -169 474 -262 759
-291 378 -39 790 84 1089 325 l67 55 1958 0 c1877 0 1959 1 1991 18 19 10 43
34 53 53 17 32 18 115 18 2014 0 1899 -1 1982 -18 2014 -19 36 -73 71 -107 71
-11 -1 -36 -8 -55 -16z m-70 -2159 l0 -1745 -1747 0 -1748 0 1745 1745 c960
960 1746 1745 1747 1745 2 0 3 -785 3 -1745z"/>
</g>
</svg>
