<?xml version="1.0" standalone="no"?>
<!DOCTYPE svg PUBLIC "-//W3C//DTD SVG 20010904//EN"
 "http://www.w3.org/TR/2001/REC-SVG-20010904/DTD/svg10.dtd">
<svg version="1.0" xmlns="http://www.w3.org/2000/svg"
 width="1334pt" height="1000pt" viewBox="0 0 1334 1000"
 preserveAspectRatio="xMidYMid meet">
<metadata>
Created by potrace 1.9, written by Peter Selinger 2001-2010
</metadata>
<g transform="translate(0,1000) scale(0.100000,-0.100000)"
fill="#000000" stroke="none">
<path d="M2211 6082 c-19 -10 -43 -34 -53 -53 -17 -32 -18 -81 -18 -921 0
-489 -2 -888 -5 -888 -3 0 -410 203 -905 450 -495 248 -911 450 -923 450 -65
0 -133 -75 -123 -138 11 -76 -10 -64 1002 -570 l954 -477 0 -950 c0 -901 1
-952 18 -984 10 -19 34 -43 53 -53 32 -17 115 -18 2014 -18 1899 0 1982 1
2014 18 19 10 43 34 53 53 17 32 18 81 18 921 l0 888 890 -445 c492 -246 906
-447 927 -450 104 -16 175 101 117 190 -13 20 -249 143 -976 506 l-958 479 0
953 c0 903 -1 954 -18 986 -10 19 -34 43 -53 53 -32 17 -115 18 -2014 18
-1899 0 -1982 -1 -2014 -18z m1004 -245 c-11 -8 -60 -38 -110 -67 -248 -148
-502 -408 -667 -685 l-48 -80 0 423 0 422 422 0 c355 0 419 -2 403 -13z m1279
-8 c214 -32 477 -126 659 -235 240 -145 495 -400 640 -641 78 -128 158 -323
198 -478 21 -81 50 -237 44 -243 -1 -2 -404 197 -894 442 -490 246 -902 446
-914 446 -37 0 -89 -34 -109 -71 -17 -32 -18 -81 -18 -921 0 -489 -2 -888 -5
-888 -3 0 -386 190 -851 423 l-846 422 5 105 c12 209 89 467 205 686 192 360
525 666 902 826 178 76 397 131 565 142 92 6 339 -3 419 -15z m1566 -406 c0
-234 -2 -424 -4 -422 -2 2 -29 46 -60 98 -173 286 -426 537 -703 701 -40 23
-73 44 -73 46 0 2 189 4 420 4 l420 0 0 -427z m-17 -1535 c-17 -230 -73 -441
-173 -656 -142 -302 -420 -607 -717 -786 -184 -110 -440 -201 -668 -237 -103
-16 -427 -16 -530 0 -228 36 -484 127 -668 237 -240 145 -495 400 -640 641
-78 128 -158 323 -198 478 -22 82 -49 235 -43 235 2 0 400 -198 884 -440 486
-243 896 -442 917 -445 49 -8 100 19 125 66 17 32 18 81 18 921 l0 888 849
-424 848 -425 -4 -53z m14 -1705 c-2 -2 -196 -2 -431 -1 l-426 3 82 49 c294
174 551 431 724 724 l49 82 3 -426 c1 -235 1 -429 -1 -431z m-3617 765 c162
-276 416 -531 700 -703 52 -32 97 -59 99 -61 2 -2 -188 -4 -422 -4 l-427 0 0
420 c0 231 2 420 4 420 2 0 23 -33 46 -72z"/>
<path d="M10935 6094 c-684 -55 -1279 -418 -1631 -994 -199 -327 -298 -686
-298 -1080 0 -204 15 -323 64 -520 184 -731 761 -1308 1490 -1489 141 -35 223
-49 353 -61 l100 -8 486 -485 c507 -506 522 -519 588 -502 67 16 110 79 98
143 -5 32 -63 93 -417 448 -324 325 -407 413 -392 417 11 3 39 9 64 12 77 11
271 63 360 95 271 99 536 268 741 471 398 396 613 914 613 1479 0 204 -15 323
-64 520 -165 656 -654 1197 -1290 1430 -108 39 -286 84 -416 104 -102 16 -357
27 -449 20z m418 -265 c215 -32 478 -126 660 -235 240 -145 495 -400 640 -641
111 -184 202 -440 238 -668 7 -44 13 -163 13 -265 0 -195 -10 -285 -49 -440
-84 -332 -244 -610 -494 -859 -239 -238 -512 -392 -840 -476 l-94 -24 376 377
c323 325 377 382 382 414 12 64 -31 127 -98 143 -66 17 -81 4 -577 -491 l-476
-474 -115 10 c-432 38 -811 214 -1120 521 -207 206 -342 416 -439 679 -76 209
-104 374 -104 620 0 195 10 285 49 440 84 331 239 604 485 850 318 317 699
495 1150 534 73 6 334 -3 413 -15z"/>
<path d="M9561 4612 c-36 -19 -71 -73 -71 -107 1 -51 46 -108 234 -295 l196
-195 -204 -205 c-211 -212 -236 -248 -221 -307 16 -67 79 -110 143 -98 31 5
77 47 304 273 182 181 271 277 279 299 22 69 14 81 -265 362 -143 145 -275
269 -293 277 -43 18 -62 18 -102 -4z"/>
<path d="M11005 4623 c-144 -22 -261 -80 -355 -173 -116 -117 -173 -259 -173
-430 0 -168 57 -311 168 -425 118 -120 259 -177 435 -177 176 0 317 57 435
177 111 114 168 257 168 425 0 59 -6 120 -17 160 -55 202 -217 367 -415 422
-68 19 -194 30 -246 21z m220 -277 c71 -32 149 -111 183 -184 22 -48 27 -71
27 -142 0 -106 -29 -175 -105 -250 -75 -76 -144 -105 -250 -105 -106 0 -175
29 -250 105 -76 75 -105 144 -105 250 0 71 5 94 27 142 45 98 146 183 245 208
61 15 167 4 228 -24z"/>
</g>
</svg>
