<?xml version="1.0" standalone="no"?>
<!DOCTYPE svg PUBLIC "-//W3C//DTD SVG 20010904//EN"
 "http://www.w3.org/TR/2001/REC-SVG-20010904/DTD/svg10.dtd">
<svg version="1.0" xmlns="http://www.w3.org/2000/svg"
 width="746pt" height="1000pt" viewBox="0 0 746 1000"
 preserveAspectRatio="xMidYMid meet">
<metadata>
Created by potrace 1.9, written by Peter Selinger 2001-2010
</metadata>
<g transform="translate(0,1000) scale(0.100000,-0.100000)"
fill="#000000" stroke="none">
<path d="M5055 6094 c-684 -55 -1279 -418 -1631 -994 -199 -327 -298 -686
-298 -1080 0 -204 15 -323 64 -520 184 -731 761 -1308 1490 -1489 141 -35 223
-49 353 -61 l100 -8 486 -485 c507 -506 522 -519 588 -502 67 16 110 79 98
143 -5 32 -63 93 -417 448 -324 325 -407 413 -392 417 11 3 39 9 64 12 77 11
271 63 360 95 271 99 536 268 741 471 398 396 613 914 613 1479 0 204 -15 323
-64 520 -165 656 -654 1197 -1290 1430 -108 39 -286 84 -416 104 -102 16 -357
27 -449 20z m418 -265 c215 -32 478 -126 660 -235 240 -145 495 -400 640 -641
111 -184 202 -440 238 -668 7 -44 13 -163 13 -265 0 -195 -10 -285 -49 -440
-84 -332 -244 -610 -494 -859 -239 -238 -512 -392 -840 -476 l-94 -24 376 377
c323 325 377 382 382 414 12 64 -31 127 -98 143 -66 17 -81 4 -577 -491 l-476
-474 -115 10 c-432 38 -811 214 -1120 521 -207 206 -342 416 -439 679 -76 209
-104 374 -104 620 0 195 10 285 49 440 84 331 239 604 485 850 318 317 699
495 1150 534 73 6 334 -3 413 -15z"/>
<path d="M3681 4612 c-36 -19 -71 -73 -71 -107 1 -51 46 -108 234 -295 l196
-195 -204 -205 c-211 -212 -236 -248 -221 -307 16 -67 79 -110 143 -98 31 5
77 47 304 273 182 181 271 277 279 299 22 69 14 81 -265 362 -143 145 -275
269 -293 277 -43 18 -62 18 -102 -4z"/>
<path d="M5125 4623 c-144 -22 -261 -80 -355 -173 -116 -117 -173 -259 -173
-430 0 -168 57 -311 168 -425 118 -120 259 -177 435 -177 176 0 317 57 435
177 111 114 168 257 168 425 0 59 -6 120 -17 160 -55 202 -217 367 -415 422
-68 19 -194 30 -246 21z m220 -277 c71 -32 149 -111 183 -184 22 -48 27 -71
27 -142 0 -106 -29 -175 -105 -250 -75 -76 -144 -105 -250 -105 -106 0 -175
29 -250 105 -76 75 -105 144 -105 250 0 71 5 94 27 142 45 98 146 183 245 208
61 15 167 4 228 -24z"/>
<path d="M2223 4143 c-33 -6 -79 -57 -86 -92 -26 -127 122 -210 212 -120 43
42 49 93 18 156 -20 42 -87 68 -144 56z"/>
<path d="M263 2183 c-33 -6 -79 -57 -86 -92 -26 -127 122 -210 212 -120 43 42
49 93 18 156 -20 42 -87 68 -144 56z"/>
<path d="M2223 2183 c-33 -6 -79 -57 -86 -92 -26 -127 122 -210 212 -120 43
42 49 93 18 156 -20 42 -87 68 -144 56z"/>
</g>
</svg>
