<?xml version="1.0" standalone="no"?>
<!DOCTYPE svg PUBLIC "-//W3C//DTD SVG 20010904//EN"
 "http://www.w3.org/TR/2001/REC-SVG-20010904/DTD/svg10.dtd">
<svg version="1.0" xmlns="http://www.w3.org/2000/svg"
 width="1334pt" height="1000pt" viewBox="0 0 1334 1000"
 preserveAspectRatio="xMidYMid meet">
<metadata>
Created by potrace 1.9, written by Peter Selinger 2001-2010
</metadata>
<g transform="translate(0,1000) scale(0.100000,-0.100000)"
fill="#000000" stroke="none">
<path d="M2211 6082 c-72 -38 -71 -35 -71 -528 l0 -442 -66 -11 c-176 -31
-381 -125 -515 -237 -290 -242 -446 -650 -384 -1003 49 -279 185 -523 384
-685 138 -113 340 -206 514 -236 l67 -12 0 -286 0 -287 -888 887 c-971 970
-915 921 -995 883 -61 -29 -87 -88 -67 -152 10 -31 202 -228 994 -1022 967
-969 1021 -1020 1081 -1021 34 0 88 35 107 71 17 31 18 67 18 481 l0 447 38 6
c192 32 399 127 549 254 275 233 429 645 368 990 -78 447 -373 780 -790 895
-49 13 -107 27 -127 31 l-38 6 0 442 c0 409 -1 445 -18 476 -19 36 -72 71
-107 71 -11 0 -36 -8 -54 -18z m-71 -2062 c0 -727 -2 -840 -14 -840 -33 0
-186 54 -257 91 -144 75 -291 222 -362 364 -19 39 -48 111 -63 160 -26 82 -29
103 -28 230 0 126 3 149 28 225 16 47 44 117 63 155 70 140 221 293 358 363
71 36 225 91 258 92 16 0 17 -47 17 -840z m352 814 c173 -54 316 -151 429
-290 68 -83 117 -178 155 -299 26 -80 29 -104 29 -225 0 -121 -3 -145 -29
-225 -93 -295 -295 -498 -584 -589 -46 -14 -87 -26 -93 -26 -5 0 -9 317 -9
840 0 523 4 840 9 840 6 0 47 -12 93 -26z"/>
<path d="M11009 6083 c-44 -27 -51 -51 -65 -214 -15 -182 -18 -201 -50 -329
-82 -329 -238 -604 -484 -850 -246 -246 -521 -402 -850 -484 -128 -32 -147
-35 -329 -50 -88 -8 -166 -19 -178 -26 -73 -46 -70 -172 5 -212 60 -31 354 -5
582 52 530 134 985 474 1266 948 l49 82 5 -1492 c5 -1419 6 -1494 23 -1520 19
-27 72 -58 102 -58 30 0 83 31 102 58 17 26 18 101 23 1512 l5 1485 44 -75
c269 -460 737 -808 1261 -940 228 -57 522 -83 582 -52 74 40 77 167 5 212 -12
7 -90 18 -178 26 -182 15 -201 18 -329 50 -165 41 -358 119 -493 200 -240 145
-495 400 -640 641 -82 135 -160 327 -201 493 -32 128 -35 147 -50 329 -8 88
-19 166 -26 178 -32 51 -127 70 -181 36z"/>
<path d="M4171 2162 c-36 -19 -71 -72 -71 -107 0 -35 35 -88 71 -107 32 -17
115 -18 2014 -18 1899 0 1982 1 2014 18 36 19 71 72 71 107 0 35 -35 88 -71
107 -32 17 -115 18 -2014 18 -1899 0 -1982 -1 -2014 -18z"/>
<path d="M5163 1203 c-33 -6 -79 -57 -86 -92 -26 -127 122 -210 212 -120 43
42 49 93 18 156 -20 42 -87 68 -144 56z"/>
<path d="M7123 1203 c-33 -6 -79 -57 -86 -92 -26 -127 122 -210 212 -120 43
42 49 93 18 156 -20 42 -87 68 -144 56z"/>
</g>
</svg>
