<?xml version="1.0" standalone="no"?>
<!DOCTYPE svg PUBLIC "-//W3C//DTD SVG 20010904//EN"
 "http://www.w3.org/TR/2001/REC-SVG-20010904/DTD/svg10.dtd">
<svg version="1.0" xmlns="http://www.w3.org/2000/svg"
 width="155pt" height="1000pt" viewBox="0 0 155 1000"
 preserveAspectRatio="xMidYMid meet">
<g transform="translate(0,1000) scale(0.100000,-0.100000)"
fill="#000000" stroke="none">
<path d="M671 3360 c-240 -34 -421 -200 -486 -447 -28 -104 -30 -308 -5 -403 60 -228 217 -391 427 -447 85 -22 243 -22 328 0 156 42 294 149 364 284 59 113 79 205 79 358 0 153 -20 245 -79 358 -70 132 -209 243 -356 281 -74 19 -198 27 -272 16z m289 -178 c122 -57 207 -169 242 -319 23 -96 15 -294 -15 -378 -44 -122 -121 -208 -237 -262 -54 -26 -69 -28 -179 -28 -114 0 -123 2 -188 32 -41 20 -88 53 -121 86 -97 97 -136 208 -136 387 0 188 42 311 135 399 96 91 183 122 331 117 88 -2 109 -6 168 -34z"/>
</g>
</svg>

