<?xml version="1.0" standalone="no"?>
<!DOCTYPE svg PUBLIC "-//W3C//DTD SVG 20010904//EN"
 "http://www.w3.org/TR/2001/REC-SVG-20010904/DTD/svg10.dtd">
<svg version="1.0" xmlns="http://www.w3.org/2000/svg"
 width="942pt" height="1000pt" viewBox="0 0 942 1000"
 preserveAspectRatio="xMidYMid meet">
<metadata>
Created by potrace 1.9, written by Peter Selinger 2001-2010
</metadata>
<g transform="translate(0,1000) scale(0.100000,-0.100000)"
fill="#000000" stroke="none">
<path d="M7111 6082 c-19 -10 -43 -34 -53 -53 -17 -32 -18 -84 -18 -1034 0
-950 1 -1002 18 -1034 10 -19 34 -43 53 -53 32 -17 84 -18 1034 -18 950 0
1002 1 1034 18 36 19 71 72 71 107 0 35 -35 88 -71 107 -32 17 -82 18 -961 18
l-928 0 0 928 c0 879 -1 929 -18 961 -19 36 -72 71 -107 71 -11 0 -36 -8 -54
-18z"/>
<path d="M2115 4134 c-684 -55 -1279 -418 -1631 -994 -148 -244 -240 -508
-280 -800 -12 -88 -24 -139 -42 -174 -42 -83 -21 -141 78 -209 31 -22 99 -22
130 0 37 25 48 44 56 89 5 36 15 49 67 91 169 134 340 216 547 260 117 24 363
24 480 0 209 -45 380 -127 550 -263 55 -44 67 -60 78 -99 14 -53 63 -104 187
-194 173 -126 333 -202 531 -252 415 -104 849 -29 1209 209 78 52 150 109 232
183 28 26 36 79 28 187 -39 539 -244 1000 -605 1362 -378 377 -876 590 -1416
604 -82 2 -171 2 -199 0z m418 -265 c215 -32 478 -126 660 -235 242 -146 495
-399 641 -641 112 -188 208 -460 235 -668 24 -186 24 -189 -17 -227 -132 -125
-357 -238 -567 -284 -98 -21 -377 -24 -475 -5 -104 20 -218 59 -325 111 -111
54 -265 161 -265 185 0 108 -339 365 -615 468 -165 62 -338 92 -525 92 -187 0
-360 -31 -525 -92 -75 -28 -200 -89 -252 -124 -18 -11 -33 -18 -33 -14 0 20
43 171 70 245 97 264 227 466 430 670 318 317 699 495 1150 534 73 6 334 -3
413 -15z"/>
<path d="M5615 4133 c-256 -40 -447 -206 -511 -443 -23 -86 -23 -234 0 -320
27 -98 82 -195 153 -266 l62 -64 -62 -64 c-114 -115 -170 -257 -170 -426 0
-168 57 -311 168 -425 118 -120 259 -177 435 -177 176 0 317 57 435 177 111
114 168 257 168 425 0 169 -56 311 -170 426 l-62 64 62 64 c114 115 170 257
170 426 0 59 -6 120 -17 160 -55 202 -217 367 -415 422 -68 19 -194 30 -246
21z m220 -277 c71 -32 149 -111 183 -184 22 -48 27 -71 27 -142 0 -106 -29
-175 -105 -250 -75 -76 -144 -105 -250 -105 -106 0 -175 29 -250 105 -76 75
-105 144 -105 250 0 71 5 94 27 142 45 98 146 183 245 208 61 15 167 4 228
-24z m0 -980 c71 -32 149 -111 183 -184 22 -48 27 -71 27 -142 0 -106 -29
-175 -105 -250 -75 -76 -144 -105 -250 -105 -106 0 -175 29 -250 105 -76 75
-105 144 -105 250 0 71 5 94 27 142 45 98 146 183 245 208 61 15 167 4 228
-24z"/>
</g>
</svg>
