<?xml version="1.0" standalone="no"?>
<!DOCTYPE svg PUBLIC "-//W3C//DTD SVG 20010904//EN"
 "http://www.w3.org/TR/2001/REC-SVG-20010904/DTD/svg10.dtd">
<svg version="1.0" xmlns="http://www.w3.org/2000/svg"
 width="1138pt" height="1000pt" viewBox="0 0 1138 1000"
 preserveAspectRatio="xMidYMid meet">
<metadata>
Created by potrace 1.9, written by Peter Selinger 2001-2010
</metadata>
<g transform="translate(0,1000) scale(0.100000,-0.100000)"
fill="#000000" stroke="none">
<path d="M3095 6094 c-169 -13 -419 -67 -575 -124 -565 -207 -1023 -665 -1230
-1230 -57 -158 -120 -449 -120 -559 l0 -41 -443 0 c-409 0 -445 -1 -476 -18
-47 -25 -74 -76 -66 -125 3 -21 224 -474 500 -1027 538 -1076 515 -1035 600
-1035 22 0 53 9 68 20 23 14 136 232 533 1027 277 555 504 1018 504 1031 0 37
-34 89 -71 109 -31 17 -66 18 -466 18 l-433 0 0 41 c0 100 46 310 100 459 97
264 227 466 430 670 246 246 521 402 850 484 128 32 147 35 329 50 88 8 166
19 178 26 70 44 69 166 -1 210 -22 14 -124 20 -211 14z m-1421 -2976 c-212
-425 -388 -775 -390 -777 -3 -3 -774 1534 -774 1544 0 3 349 5 775 5 l775 0
-386 -772z"/>
<path d="M6131 6082 c-19 -10 -43 -34 -53 -53 -17 -32 -18 -110 -18 -1854 l0
-1820 -887 887 c-972 970 -916 921 -996 883 -61 -29 -87 -88 -67 -152 10 -31
202 -228 994 -1022 967 -969 1021 -1020 1081 -1021 34 0 88 35 107 71 17 32
18 115 18 2014 0 1899 -1 1982 -18 2014 -19 36 -72 71 -107 71 -11 0 -36 -8
-54 -18z"/>
<path d="M7099 4123 c-57 -35 -54 25 -57 -1058 -2 -550 0 -1014 3 -1032 7 -42
57 -91 99 -99 42 -7 98 17 123 54 17 25 18 66 23 532 l5 505 44 -75 c120 -204
334 -445 516 -580 385 -286 797 -424 1265 -424 204 0 323 15 520 64 528 133
988 477 1266 948 l49 82 5 -512 c5 -474 6 -515 23 -540 19 -28 73 -58 104 -58
33 0 86 36 105 71 17 32 18 84 18 1032 0 1107 4 1045 -65 1087 -58 36 -142 20
-175 -33 -7 -12 -18 -90 -26 -178 -15 -182 -18 -201 -50 -329 -41 -166 -119
-358 -201 -493 -145 -241 -400 -496 -640 -641 -184 -110 -440 -201 -668 -237
-103 -16 -427 -16 -530 0 -228 36 -484 127 -668 237 -240 145 -495 400 -640
641 -82 135 -160 327 -201 493 -32 128 -35 147 -50 329 -8 88 -19 166 -26 178
-32 50 -119 69 -171 36z"/>
</g>
</svg>
