<?xml version="1.0" standalone="no"?>
<!DOCTYPE svg PUBLIC "-//W3C//DTD SVG 20010904//EN"
 "http://www.w3.org/TR/2001/REC-SVG-20010904/DTD/svg10.dtd">
<svg version="1.0" xmlns="http://www.w3.org/2000/svg"
 width="844pt" height="1000pt" viewBox="0 0 844 1000"
 preserveAspectRatio="xMidYMid meet">
<metadata>
Created by potrace 1.9, written by Peter Selinger 2001-2010
</metadata>
<g transform="translate(0,1000) scale(0.100000,-0.100000)"
fill="#000000" stroke="none">
<path d="M4661 8042 c-47 -25 -74 -76 -66 -125 3 -21 118 -263 255 -537 272
-544 273 -545 355 -545 78 1 77 -2 357 559 278 556 274 547 233 609 -23 35
-79 60 -118 53 -66 -13 -82 -38 -282 -436 l-193 -385 -195 391 c-143 286 -202
395 -222 408 -41 27 -85 30 -124 8z"/>
<path d="M5055 6094 c-684 -55 -1279 -418 -1631 -994 -199 -327 -298 -686
-298 -1080 0 -204 15 -323 64 -520 184 -731 759 -1306 1490 -1490 197 -49 316
-64 520 -64 557 0 1074 211 1461 595 354 352 565 806 609 1312 l8 100 491 491
c425 426 491 496 496 528 12 64 -31 127 -98 143 -65 17 -85 0 -503 -417 -318
-316 -403 -397 -407 -382 -3 11 -9 39 -12 64 -11 77 -63 271 -95 360 -101 276
-275 546 -489 759 -372 369 -872 581 -1407 595 -82 2 -171 2 -199 0z m418
-265 c215 -32 478 -126 660 -235 240 -145 495 -400 640 -641 78 -129 159 -326
198 -478 11 -44 22 -89 26 -100 3 -11 -165 150 -373 357 -326 324 -384 378
-416 383 -64 12 -127 -31 -143 -98 -17 -66 -4 -81 491 -577 l474 -475 -10
-110 c-19 -222 -71 -411 -170 -623 -142 -302 -420 -607 -717 -786 -184 -110
-440 -201 -668 -237 -44 -7 -163 -13 -265 -13 -195 0 -285 10 -440 49 -327 83
-601 238 -841 476 -207 206 -342 416 -439 679 -76 209 -104 374 -104 620 0
195 10 285 49 440 84 331 239 604 485 850 318 317 699 495 1150 534 73 6 334
-3 413 -15z"/>
<path d="M251 4122 c-36 -19 -71 -73 -71 -107 1 -57 49 -111 479 -540 l441
-440 -449 -450 c-468 -470 -483 -487 -466 -552 16 -67 79 -110 143 -98 32 5
98 68 494 463 l458 457 452 -452 c473 -470 490 -485 555 -468 67 16 110 79 98
143 -5 32 -68 99 -466 497 l-459 460 455 455 c315 315 458 465 466 488 6 17 8
46 4 62 -8 39 -56 87 -95 95 -70 15 -82 6 -558 -469 l-452 -451 -453 452
c-248 249 -465 457 -480 463 -39 14 -57 13 -96 -8z"/>
</g>
</svg>
