<?xml version="1.0" standalone="no"?>
<!DOCTYPE svg PUBLIC "-//W3C//DTD SVG 20010904//EN"
 "http://www.w3.org/TR/2001/REC-SVG-20010904/DTD/svg10.dtd">
<svg version="1.0" xmlns="http://www.w3.org/2000/svg"
 width="305pt" height="1000pt" viewBox="0 0 305 1000"
 preserveAspectRatio="xMidYMid meet">
<metadata>
Created by potrace 1.9, written by Peter Selinger 2001-2010
</metadata>
<g transform="translate(0,1000) scale(0.100000,-0.100000)"
fill="#000000" stroke="none">
<path d="M2605 6094 c-169 -13 -419 -67 -575 -124 -565 -207 -1023 -665 -1230
-1230 -59 -163 -120 -449 -120 -567 0 -57 -23 -104 -95 -195 -76 -96 -169
-258 -214 -371 -76 -196 -105 -354 -105 -567 0 -286 66 -528 208 -763 68 -114
130 -197 204 -273 38 -40 59 -53 89 -59 55 -9 103 13 139 63 16 22 56 76 89
119 209 272 308 569 309 918 0 172 -14 274 -60 432 -50 174 -154 372 -270 516
l-55 68 6 77 c20 248 72 450 175 670 85 181 200 342 360 502 246 246 521 402
850 484 128 32 147 35 329 50 88 8 166 19 178 26 70 44 69 166 -1 210 -22 14
-124 20 -211 14z m-1688 -2471 c50 -96 97 -226 120 -335 21 -100 24 -368 4
-468 -32 -164 -119 -371 -207 -491 l-49 -67 -42 58 c-93 125 -173 311 -210
482 -24 115 -24 370 1 488 34 163 119 359 209 481 l42 57 46 -63 c25 -35 64
-99 86 -142z"/>
</g>
</svg>
