<?xml version="1.0" standalone="no"?>
<!DOCTYPE svg PUBLIC "-//W3C//DTD SVG 20010904//EN"
 "http://www.w3.org/TR/2001/REC-SVG-20010904/DTD/svg10.dtd">
<svg version="1.0" xmlns="http://www.w3.org/2000/svg"
 width="256pt" height="1000pt" viewBox="0 0 256 1000"
 preserveAspectRatio="xMidYMid meet">
<metadata>
Created by potrace 1.9, written by Peter Selinger 2001-2010
</metadata>
<g transform="translate(0,1000) scale(0.100000,-0.100000)"
fill="#000000" stroke="none">
<path d="M251 3142 c-35 -19 -71 -72 -71 -105 0 -55 41 -103 413 -474 l382
-383 -345 0 c-315 0 -348 -2 -379 -18 -36 -19 -71 -72 -71 -107 0 -35 35 -88
71 -107 32 -17 84 -18 1034 -18 950 0 1002 1 1034 18 36 19 71 72 71 107 0 35
-35 88 -71 107 -31 16 -64 18 -384 18 l-350 0 397 398 c342 342 398 402 403
434 12 64 -31 127 -98 143 -65 17 -82 2 -555 -469 l-452 -451 -453 452 c-248
249 -465 457 -480 463 -39 14 -57 13 -96 -8z"/>
</g>
</svg>
