<?xml version="1.0" standalone="no"?>
<!DOCTYPE svg PUBLIC "-//W3C//DTD SVG 20010904//EN"
 "http://www.w3.org/TR/2001/REC-SVG-20010904/DTD/svg10.dtd">
<svg version="1.0" xmlns="http://www.w3.org/2000/svg"
 width="109pt" height="1000pt" viewBox="0 0 109 1000"
 preserveAspectRatio="xMidYMid meet">
<g transform="translate(0,1000) scale(0.100000,-0.100000)"
fill="#000000" stroke="none">
<path d="M475 3141 c-58 -27 -279 -255 -295 -304 -39 -123 100 -214 200 -131 l30 26 0 -276 0 -276 -68 0 c-81 0 -127 -21 -154 -71 -23 -42 -23 -66 0 -108 36 -67 55 -71 352 -71 238 0 269 2 299 18 36 19 71 72 71 107 0 35 -35 88 -71 107 -24 13 -55 18 -106 18 l-73 0 0 438 c0 489 0 486 -71 524 -42 23 -64 22 -114 -1z"/>
</g>
</svg>

