<?xml version="1.0" standalone="no"?>
<!DOCTYPE svg PUBLIC "-//W3C//DTD SVG 20010904//EN"
 "http://www.w3.org/TR/2001/REC-SVG-20010904/DTD/svg10.dtd">
<svg version="1.0" xmlns="http://www.w3.org/2000/svg"
 width="354pt" height="1000pt" viewBox="0 0 354 1000"
 preserveAspectRatio="xMidYMid meet">
<metadata>
Created by potrace 1.9, written by Peter Selinger 2001-2010
</metadata>
<g transform="translate(0,1000) scale(0.100000,-0.100000)"
fill="#000000" stroke="none">
<path d="M3095 6094 c-169 -13 -419 -67 -575 -124 -565 -207 -1023 -665 -1230
-1230 -58 -161 -120 -449 -120 -563 l0 -45 -52 -7 c-384 -53 -725 -326 -864
-695 -59 -155 -86 -376 -64 -522 77 -504 428 -865 925 -952 364 -64 780 97
1017 394 190 237 282 571 233 849 -62 352 -254 632 -543 792 -125 69 -207 99
-374 134 -26 5 -28 9 -28 51 0 198 113 556 246 777 146 242 399 495 641 641
135 81 328 159 493 200 128 32 147 35 329 50 88 8 166 19 178 26 70 44 69 166
-1 210 -22 14 -124 20 -211 14z m-2179 -2366 c-146 -288 -197 -624 -141 -937
31 -176 85 -335 159 -463 24 -43 42 -78 39 -78 -22 0 -174 92 -229 139 -353
297 -414 788 -143 1156 38 53 129 142 191 188 27 21 164 97 175 97 0 0 -22
-46 -51 -102z m491 -105 c50 -96 97 -226 120 -335 21 -100 24 -368 4 -468 -32
-164 -119 -371 -207 -491 l-49 -67 -42 58 c-93 125 -173 311 -210 482 -24 115
-24 370 1 488 34 163 119 359 209 481 l42 57 46 -63 c25 -35 64 -99 86 -142z
m263 167 c146 -77 291 -223 363 -365 19 -39 48 -111 63 -160 26 -80 29 -104
29 -225 0 -121 -3 -145 -29 -225 -57 -180 -143 -311 -280 -426 -62 -53 -208
-139 -235 -139 -5 0 5 26 24 58 108 180 177 426 191 677 14 240 -53 539 -166
753 -28 50 -47 92 -44 92 3 0 41 -18 84 -40z"/>
</g>
</svg>
