<?xml version="1.0" standalone="no"?>
<!DOCTYPE svg PUBLIC "-//W3C//DTD SVG 20010904//EN"
 "http://www.w3.org/TR/2001/REC-SVG-20010904/DTD/svg10.dtd">
<svg version="1.0" xmlns="http://www.w3.org/2000/svg"
 width="648pt" height="1000pt" viewBox="0 0 648 1000"
 preserveAspectRatio="xMidYMid meet">
<metadata>
Created by potrace 1.9, written by Peter Selinger 2001-2010
</metadata>
<g transform="translate(0,1000) scale(0.100000,-0.100000)"
fill="#000000" stroke="none">
<path d="M1110 6084 c-194 -35 -394 -125 -531 -240 -290 -242 -446 -650 -384
-1003 49 -279 185 -523 384 -685 145 -119 339 -206 536 -240 114 -20 216 -20
330 0 489 85 833 432 920 925 61 347 -93 758 -373 994 -241 203 -592 302 -882
249z m400 -269 c176 -56 318 -152 431 -291 68 -83 117 -178 155 -299 26 -80
29 -104 29 -225 0 -121 -3 -145 -29 -225 -93 -295 -290 -493 -586 -591 -77
-25 -98 -28 -230 -28 -132 0 -153 3 -230 28 -179 59 -319 154 -431 292 -68 82
-117 177 -155 299 -26 82 -29 103 -28 230 0 126 3 149 28 225 95 288 291 488
567 579 106 35 147 40 274 37 97 -3 137 -9 205 -31z"/>
<path d="M5055 6093 c-92 -6 -259 -34 -375 -63 -524 -132 -971 -463 -1256
-931 -199 -326 -298 -686 -298 -1079 0 -204 15 -323 64 -520 165 -656 654
-1197 1290 -1430 279 -102 668 -153 879 -116 496 88 839 430 925 922 73 415
-147 888 -511 1097 -40 23 -72 44 -72 47 0 3 32 24 72 47 263 151 453 437 511
769 20 113 20 215 0 328 -63 360 -264 644 -572 804 -206 107 -394 142 -657
125z m375 -278 c293 -94 488 -289 586 -585 25 -77 28 -98 28 -230 0 -132 -3
-153 -28 -230 -59 -179 -144 -307 -281 -422 -127 -108 -305 -180 -484 -197
-107 -10 -130 -19 -156 -64 -33 -56 -15 -144 37 -176 12 -7 65 -17 119 -22
179 -17 357 -89 484 -197 137 -115 222 -243 281 -422 25 -77 28 -98 28 -230 0
-132 -3 -153 -28 -230 -61 -183 -152 -317 -292 -431 -80 -65 -174 -115 -294
-155 -80 -27 -94 -28 -250 -28 -91 1 -201 6 -245 13 -225 35 -483 126 -668
237 -240 145 -495 400 -640 641 -111 184 -202 440 -238 668 -16 103 -16 427 0
530 27 174 84 358 161 523 168 358 504 694 862 862 272 127 525 182 813 175
98 -2 135 -8 205 -30z"/>
<path d="M251 4122 c-36 -19 -71 -73 -71 -107 1 -57 49 -111 479 -540 l441
-440 -449 -450 c-468 -470 -483 -487 -466 -552 16 -67 79 -110 143 -98 32 5
98 68 494 463 l458 457 452 -452 c473 -470 490 -485 555 -468 67 16 110 79 98
143 -5 32 -68 99 -466 497 l-459 460 455 455 c315 315 458 465 466 488 6 17 8
46 4 62 -8 39 -56 87 -95 95 -70 15 -82 6 -558 -469 l-452 -451 -453 452
c-248 249 -465 457 -480 463 -39 14 -57 13 -96 -8z"/>
</g>
</svg>
