<?xml version="1.0" standalone="no"?>
<!DOCTYPE svg PUBLIC "-//W3C//DTD SVG 20010904//EN"
 "http://www.w3.org/TR/2001/REC-SVG-20010904/DTD/svg10.dtd">
<svg version="1.0" xmlns="http://www.w3.org/2000/svg"
 width="1432pt" height="1000pt" viewBox="0 0 1432 1000"
 preserveAspectRatio="xMidYMid meet">
<metadata>
Created by potrace 1.9, written by Peter Selinger 2001-2010
</metadata>
<g transform="translate(0,1000) scale(0.100000,-0.100000)"
fill="#000000" stroke="none">
<path d="M1231 6082 c-19 -10 -43 -34 -53 -53 -17 -32 -18 -113 -18 -1941 l0
-1908 -438 0 c-404 0 -440 -1 -471 -18 -36 -19 -71 -72 -71 -107 0 -35 35 -88
71 -107 32 -17 84 -18 1034 -18 950 0 1002 1 1034 18 36 19 71 72 71 107 0 35
-35 88 -71 107 -31 17 -67 18 -471 18 l-438 0 0 1908 c0 1828 -1 1909 -18
1941 -19 36 -72 71 -107 71 -11 0 -36 -8 -54 -18z"/>
<path d="M3660 6083 c-39 -25 -138 -142 -203 -239 -250 -378 -318 -830 -191
-1272 51 -178 153 -371 280 -527 l64 -80 -1 -975 -2 -975 36 -37 c65 -67 153
-57 201 23 11 20 44 64 71 98 72 89 168 250 210 350 84 200 118 372 119 596 0
217 -36 400 -116 593 -39 93 -139 260 -212 351 l-56 70 0 966 c0 1064 3 1010
-60 1055 -34 24 -105 26 -140 3z m-50 -1080 l-1 -608 -28 55 c-39 76 -87 213
-108 312 -13 60 -18 127 -17 243 0 177 15 272 63 405 31 83 82 200 87 200 2 0
4 -273 4 -607z m319 -1545 c52 -149 66 -235 65 -413 0 -184 -15 -276 -71 -425
-66 -178 -62 -206 -62 425 0 560 0 569 18 535 10 -19 33 -74 50 -122z"/>
<path d="M6010 6084 c-270 -49 -508 -184 -674 -383 -76 -91 -164 -253 -200
-368 -53 -171 -69 -347 -35 -401 43 -68 165 -68 208 0 7 12 17 65 22 119 34
365 263 647 619 765 77 25 98 28 230 28 132 0 153 -3 230 -28 183 -61 317
-152 431 -292 66 -80 115 -175 155 -294 25 -76 28 -100 28 -220 0 -110 -5
-159 -27 -265 -116 -544 -340 -1056 -641 -1465 -324 -441 -698 -782 -1159
-1059 -93 -56 -127 -94 -127 -144 0 -76 66 -135 138 -123 39 6 169 80 347 200
768 512 1362 1337 1608 2232 66 241 129 576 120 644 -31 253 -83 411 -188 575
-222 347 -685 552 -1085 479z"/>
<path d="M9072 6083 c-18 -9 -41 -28 -51 -42 -41 -58 -1971 -3933 -1976 -3968
-8 -49 19 -100 66 -125 32 -17 84 -18 1034 -18 950 0 1002 1 1034 18 36 19 71
72 71 107 0 35 -35 88 -71 107 -32 17 -81 18 -921 18 -489 0 -888 2 -888 5 0
3 423 851 940 1885 517 1034 940 1890 940 1903 0 37 -34 89 -71 109 -41 22
-64 22 -107 1z"/>
<path d="M11915 6094 c-684 -55 -1279 -418 -1631 -994 -199 -327 -298 -686
-298 -1080 0 -204 15 -323 64 -520 166 -660 657 -1202 1300 -1433 l95 -34 5
-499 c6 -555 3 -534 75 -568 43 -21 63 -20 104 2 72 39 71 33 71 546 l0 459
48 -7 c205 -29 428 -30 604 -2 l78 13 0 -461 c0 -428 1 -464 18 -495 19 -36
72 -71 107 -71 35 0 88 35 107 71 17 31 18 68 18 524 l0 490 83 29 c271 95
550 270 758 477 398 396 613 914 613 1479 0 204 -15 323 -64 520 -165 656
-654 1197 -1290 1430 -108 39 -286 84 -416 104 -102 16 -357 27 -449 20z m418
-265 c215 -32 478 -126 660 -235 240 -145 495 -400 640 -641 111 -184 202
-440 238 -668 7 -44 13 -163 13 -265 0 -195 -10 -285 -49 -440 -84 -332 -244
-610 -494 -859 -240 -238 -514 -393 -841 -476 -155 -39 -245 -49 -440 -49
-195 0 -285 10 -440 49 -327 83 -601 238 -841 476 -207 206 -342 416 -439 679
-76 209 -104 374 -104 620 0 195 10 285 49 440 84 331 239 604 485 850 318
317 699 495 1150 534 73 6 334 -3 413 -15z"/>
<path d="M12011 5102 c-19 -10 -43 -34 -53 -53 -17 -32 -18 -82 -18 -961 l0
-928 -438 0 c-404 0 -440 -1 -471 -18 -36 -19 -71 -72 -71 -107 0 -35 35 -88
71 -107 32 -17 84 -18 1034 -18 950 0 1002 1 1034 18 36 19 71 72 71 107 0 35
-35 88 -71 107 -31 17 -67 18 -471 18 l-438 0 0 928 c0 879 -1 929 -18 961
-19 36 -72 71 -107 71 -11 0 -36 -8 -54 -18z"/>
<path d="M13965 2161 c-26 -12 -209 -188 -532 -512 -423 -425 -493 -500 -504
-536 -24 -84 -26 -81 514 -621 l493 -493 89 3 88 3 20 38 c41 80 54 64 -454
572 l-459 460 459 460 c503 504 493 491 456 568 -32 67 -102 91 -170 58z"/>
</g>
</svg>
