<?xml version="1.0" standalone="no"?>
<!DOCTYPE svg PUBLIC "-//W3C//DTD SVG 20010904//EN"
 "http://www.w3.org/TR/2001/REC-SVG-20010904/DTD/svg10.dtd">
<svg version="1.0" xmlns="http://www.w3.org/2000/svg"
 width="452pt" height="1000pt" viewBox="0 0 452 1000"
 preserveAspectRatio="xMidYMid meet">
<metadata>
Created by potrace 1.9, written by Peter Selinger 2001-2010
</metadata>
<g transform="translate(0,1000) scale(0.100000,-0.100000)"
fill="#000000" stroke="none">
<path d="M2205 8041 c-27 -13 -201 -180 -531 -512 -513 -516 -526 -530 -509
-596 16 -67 79 -110 143 -98 32 5 92 61 435 403 l397 397 0 -768 0 -767 -928
0 c-879 0 -929 -1 -961 -18 -19 -10 -43 -34 -53 -53 -17 -32 -18 -115 -18
-2014 0 -1899 1 -1982 18 -2014 10 -19 34 -43 53 -53 32 -17 115 -18 2014 -18
1899 0 1982 1 2014 18 19 10 43 34 53 53 17 32 18 115 18 2014 0 1899 -1 1982
-18 2014 -10 19 -34 43 -53 53 -32 17 -82 18 -961 18 l-928 0 0 762 0 763 388
-387 c403 -402 425 -420 489 -403 67 16 110 79 98 143 -5 32 -74 104 -513 546
-290 290 -521 514 -539 522 -42 18 -60 17 -108 -5z m-65 -3119 c0 -879 1 -929
18 -961 19 -36 72 -71 107 -71 35 0 88 35 107 71 17 32 18 82 18 961 l0 928
855 0 855 0 0 -1835 0 -1835 -1835 0 -1835 0 0 1835 0 1835 855 0 855 0 0
-928z"/>
</g>
</svg>
