<?xml version="1.0" standalone="no"?>
<!DOCTYPE svg PUBLIC "-//W3C//DTD SVG 20010904//EN"
 "http://www.w3.org/TR/2001/REC-SVG-20010904/DTD/svg10.dtd">
<svg version="1.0" xmlns="http://www.w3.org/2000/svg"
 width="452pt" height="1000pt" viewBox="0 0 452 1000"
 preserveAspectRatio="xMidYMid meet">
<metadata>
Created by potrace 1.9, written by Peter Selinger 2001-2010
</metadata>
<g transform="translate(0,1000) scale(0.100000,-0.100000)"
fill="#000000" stroke="none">
<path d="M251 6082 c-19 -10 -43 -34 -53 -53 -17 -32 -18 -115 -18 -2014 0
-1899 1 -1982 18 -2014 10 -19 34 -43 53 -53 32 -17 82 -18 961 -18 l928 0 0
-767 0 -768 -397 397 c-343 342 -403 398 -435 403 -64 12 -127 -31 -143 -98
-17 -66 -5 -80 513 -599 l497 -498 85 0 85 0 507 508 c440 440 508 512 513
544 12 64 -31 127 -98 143 -64 17 -86 -1 -489 -403 l-388 -387 0 763 0 762
928 0 c879 0 929 1 961 18 19 10 43 34 53 53 17 32 18 115 18 2014 0 1899 -1
1982 -18 2014 -10 19 -34 43 -53 53 -32 17 -115 18 -2014 18 -1899 0 -1982 -1
-2014 -18z m3849 -2067 l0 -1835 -855 0 -855 0 0 928 c0 879 -1 929 -18 961
-19 36 -72 71 -107 71 -35 0 -88 -35 -107 -71 -17 -32 -18 -82 -18 -961 l0
-928 -855 0 -855 0 0 1835 0 1835 1835 0 1835 0 0 -1835z"/>
</g>
</svg>
