<?xml version="1.0" standalone="no"?>
<!DOCTYPE svg PUBLIC "-//W3C//DTD SVG 20010904//EN"
 "http://www.w3.org/TR/2001/REC-SVG-20010904/DTD/svg10.dtd">
<svg version="1.0" xmlns="http://www.w3.org/2000/svg"
 width="1334pt" height="1000pt" viewBox="0 0 1334 1000"
 preserveAspectRatio="xMidYMid meet">
<metadata>
Created by potrace 1.9, written by Peter Selinger 2001-2010
</metadata>
<g transform="translate(0,1000) scale(0.100000,-0.100000)"
fill="#000000" stroke="none">
<path d="M2212 6084 c-18 -9 -41 -29 -51 -43 -41 -58 -1971 -3933 -1976 -3968
-8 -49 19 -100 66 -125 32 -17 84 -18 1034 -18 950 0 1002 1 1034 18 36 19 71
72 71 107 0 35 -35 88 -71 107 -32 17 -81 18 -921 18 -489 0 -888 2 -888 5 0
3 394 794 876 1757 l876 1753 929 -1857 c791 -1581 933 -1859 961 -1880 l33
-23 995 -3 c547 -1 1009 0 1027 3 42 8 91 57 99 100 8 46 -21 102 -66 127 -33
17 -81 18 -987 18 l-953 0 -969 1938 c-743 1487 -976 1943 -996 1956 -39 25
-85 29 -123 10z"/>
<path d="M7111 6082 c-19 -10 -43 -34 -53 -53 -17 -32 -18 -115 -18 -2014 0
-1899 1 -1982 18 -2014 10 -19 34 -43 53 -53 32 -17 115 -18 2014 -18 1899 0
1982 1 2014 18 19 10 43 34 53 53 17 32 18 82 18 961 l0 928 762 0 763 0 -387
-387 c-405 -408 -418 -423 -403 -493 8 -39 56 -87 95 -95 16 -4 45 -2 63 4 22
8 186 165 544 523 544 546 538 538 514 611 -8 22 -165 186 -523 544 -445 444
-518 513 -550 518 -64 12 -127 -31 -143 -98 -17 -64 1 -86 403 -489 l387 -388
-763 0 -762 0 0 928 c0 879 -1 929 -18 961 -10 19 -34 43 -53 53 -32 17 -115
18 -2014 18 -1899 0 -1982 -1 -2014 -18z m3849 -1087 l0 -855 -928 0 c-879 0
-929 -1 -961 -18 -36 -19 -71 -72 -71 -107 0 -35 35 -88 71 -107 32 -17 82
-18 961 -18 l928 0 0 -855 0 -855 -1835 0 -1835 0 0 1835 0 1835 1835 0 1835
0 0 -855z"/>
</g>
</svg>
