<?xml version="1.0" standalone="no"?>
<!DOCTYPE svg PUBLIC "-//W3C//DTD SVG 20010904//EN"
 "http://www.w3.org/TR/2001/REC-SVG-20010904/DTD/svg10.dtd">
<svg version="1.0" xmlns="http://www.w3.org/2000/svg"
 width="452pt" height="1000pt" viewBox="0 0 452 1000"
 preserveAspectRatio="xMidYMid meet">
<metadata>
Created by potrace 1.9, written by Peter Selinger 2001-2010
</metadata>
<g transform="translate(0,1000) scale(0.100000,-0.100000)"
fill="#000000" stroke="none">
<path d="M2075 4130 c-153 -11 -384 -54 -550 -102 -359 -105 -726 -313 -1009
-572 -135 -124 -323 -346 -332 -391 -10 -55 8 -86 124 -222 454 -530 1090
-846 1800 -894 377 -25 806 49 1164 203 342 146 695 402 915 662 42 50 94 108
114 128 41 41 56 88 41 129 -16 41 -232 287 -338 385 -430 394 -991 634 -1577
674 -148 10 -194 10 -352 0z m350 -250 c262 -18 499 -76 746 -181 246 -106
482 -261 679 -448 l95 -90 -1685 0 -1685 0 95 90 c119 113 293 244 433 326
285 167 655 281 977 303 158 11 193 11 345 0z m1420 -1056 c-261 -247 -594
-438 -938 -539 -419 -122 -875 -122 -1294 0 -344 101 -677 292 -938 539 l-90
85 1675 0 1675 0 -90 -85z"/>
<path d="M1160 1684 c-14 -2 -59 -9 -100 -15 -220 -31 -402 -100 -597 -225
-150 -97 -271 -203 -305 -268 -49 -95 25 -201 128 -182 26 5 58 28 113 79 118
111 206 173 326 232 208 101 330 129 555 129 217 0 340 -27 537 -119 100 -47
153 -81 253 -161 55 -44 67 -60 78 -99 14 -53 63 -104 187 -194 173 -126 333
-202 531 -252 414 -104 849 -30 1208 208 100 67 215 165 240 205 9 14 16 47
16 72 0 39 -5 51 -35 81 -30 30 -42 35 -81 35 -48 0 -104 -30 -154 -85 -106
-114 -365 -245 -575 -291 -98 -21 -377 -24 -475 -5 -104 20 -218 59 -325 111
-111 54 -265 161 -265 185 0 66 -131 195 -323 319 -189 121 -341 180 -572 222
-80 15 -318 27 -365 18z"/>
</g>
</svg>
