<?xml version="1.0" standalone="no"?>
<!DOCTYPE svg PUBLIC "-//W3C//DTD SVG 20010904//EN"
 "http://www.w3.org/TR/2001/REC-SVG-20010904/DTD/svg10.dtd">
<svg version="1.0" xmlns="http://www.w3.org/2000/svg"
 width="599pt" height="1000pt" viewBox="0 0 599 1000"
 preserveAspectRatio="xMidYMid meet">
<metadata>
Created by potrace 1.9, written by Peter Selinger 2001-2010
</metadata>
<g transform="translate(0,1000) scale(0.100000,-0.100000)"
fill="#000000" stroke="none">
<path d="M5640 6085 c-22 -10 -465 -445 -1217 -1198 l-1183 -1182 -212 212
c-229 227 -242 236 -315 213 -30 -10 -187 -161 -763 -735 l-725 -724 -50 -6
c-315 -39 -488 -98 -712 -241 -150 -97 -271 -203 -305 -268 -49 -95 25 -201
128 -182 26 5 58 28 113 79 149 140 274 220 446 286 l79 31 -116 -118 c-88
-89 -119 -127 -128 -158 -25 -83 -31 -75 504 -613 362 -364 502 -498 535 -513
86 -39 76 -47 483 359 l366 366 93 -38 c467 -189 993 -136 1413 142 100 67
215 165 240 205 9 14 16 47 16 72 0 39 -5 51 -35 81 -30 30 -42 35 -81 35 -48
0 -104 -30 -154 -85 -74 -80 -243 -180 -400 -238 -153 -57 -233 -70 -420 -70
-180 -1 -243 8 -389 55 l-94 30 546 546 c581 583 572 572 548 645 -7 21 -82
103 -221 242 l-210 210 1194 1195 c1308 1308 1230 1222 1191 1303 -30 64 -100
90 -165 62z m-2487 -2653 l397 -397 -513 -512 -512 -512 -52 40 c-29 22 -53
47 -53 55 0 65 -132 195 -323 318 -155 99 -285 156 -450 197 l-89 22 593 593
c327 327 596 594 599 594 3 0 184 -179 403 -398z m-1623 -1039 c193 -38 372
-124 540 -259 55 -44 67 -60 78 -99 12 -46 74 -114 158 -174 19 -13 34 -27 34
-30 0 -3 -128 -134 -285 -291 l-285 -285 -400 400 -400 400 183 183 182 182
60 -6 c33 -3 94 -13 135 -21z"/>
</g>
</svg>
