<?xml version="1.0" standalone="no"?>
<!DOCTYPE svg PUBLIC "-//W3C//DTD SVG 20010904//EN"
 "http://www.w3.org/TR/2001/REC-SVG-20010904/DTD/svg10.dtd">
<svg version="1.0" xmlns="http://www.w3.org/2000/svg"
 width="1236pt" height="1000pt" viewBox="0 0 1236 1000"
 preserveAspectRatio="xMidYMid meet">
<metadata>
Created by potrace 1.9, written by Peter Selinger 2001-2010
</metadata>
<g transform="translate(0,1000) scale(0.100000,-0.100000)"
fill="#000000" stroke="none">
<path d="M251 6082 c-19 -10 -43 -34 -53 -53 -17 -32 -18 -115 -18 -2014 0
-1899 1 -1982 18 -2014 10 -19 34 -43 53 -53 32 -17 115 -18 2014 -18 1899 0
1982 1 2014 18 19 10 43 34 53 53 17 32 18 115 18 2014 0 1899 -1 1982 -18
2014 -10 19 -34 43 -53 53 -32 17 -115 18 -2014 18 -1899 0 -1982 -1 -2014
-18z m3849 -2067 l0 -1835 -1835 0 -1835 0 0 1835 0 1835 1835 0 1835 0 0
-1835z"/>
<path d="M8975 4134 c-169 -13 -419 -67 -575 -124 -565 -207 -1023 -665 -1230
-1230 -57 -158 -120 -449 -120 -559 l0 -41 -933 0 c-884 0 -934 -1 -966 -18
-36 -19 -71 -72 -71 -107 0 -35 35 -88 71 -107 32 -17 115 -18 2014 -18 1899
0 1982 1 2014 18 36 19 71 72 71 107 0 35 -35 88 -71 107 -32 17 -82 18 -956
18 l-923 0 0 41 c0 100 46 310 100 459 97 264 227 466 430 670 246 246 521
402 850 484 128 32 147 35 329 50 88 8 166 19 178 26 70 44 69 166 -1 210 -22
14 -124 20 -211 14z"/>
<path d="M10051 4122 c-36 -19 -71 -72 -71 -107 0 -35 35 -88 71 -107 31 -17
67 -18 471 -18 l438 0 0 -855 0 -855 -438 0 c-404 0 -440 -1 -471 -18 -36 -19
-71 -72 -71 -107 0 -35 35 -88 71 -107 32 -17 84 -18 1034 -18 950 0 1002 1
1034 18 36 19 71 72 71 107 0 35 -35 88 -71 107 -31 17 -67 18 -471 18 l-438
0 0 855 0 855 438 0 c404 0 440 1 471 18 36 19 71 72 71 107 0 35 -35 88 -71
107 -32 17 -84 18 -1034 18 -950 0 -1002 -1 -1034 -18z"/>
</g>
</svg>
