<?xml version="1.0" standalone="no"?>
<!DOCTYPE svg PUBLIC "-//W3C//DTD SVG 20010904//EN"
 "http://www.w3.org/TR/2001/REC-SVG-20010904/DTD/svg10.dtd">
<svg version="1.0" xmlns="http://www.w3.org/2000/svg"
 width="452pt" height="1000pt" viewBox="0 0 452 1000"
 preserveAspectRatio="xMidYMid meet">
<metadata>
Created by potrace 1.9, written by Peter Selinger 2001-2010
</metadata>
<g transform="translate(0,1000) scale(0.100000,-0.100000)"
fill="#000000" stroke="none">
<path d="M1110 6084 c-270 -49 -508 -184 -674 -383 -76 -91 -164 -253 -200
-368 -53 -171 -69 -347 -35 -401 43 -68 165 -68 208 0 7 12 17 65 22 119 34
365 263 647 619 765 77 25 98 28 230 28 132 0 153 -3 230 -28 122 -41 225 -96
305 -164 186 -157 291 -361 315 -609 6 -68 10 -648 10 -1558 0 -1386 1 -1452
18 -1484 19 -35 72 -71 105 -71 31 0 85 30 104 58 17 26 18 103 23 1592 l5
1565 29 85 c62 184 152 318 292 431 80 66 174 115 294 155 77 25 98 28 230 28
132 0 153 -3 230 -28 183 -61 317 -152 431 -292 104 -127 171 -298 188 -473 5
-54 15 -107 22 -119 43 -68 165 -68 208 0 34 54 18 232 -35 401 -126 397 -453
677 -880 751 -359 63 -766 -92 -1007 -382 -35 -42 -79 -105 -98 -139 -19 -35
-36 -63 -39 -63 -3 1 -24 33 -47 73 -209 364 -689 586 -1103 511z"/>
</g>
</svg>
