<?xml version="1.0" standalone="no"?>
<!DOCTYPE svg PUBLIC "-//W3C//DTD SVG 20010904//EN"
 "http://www.w3.org/TR/2001/REC-SVG-20010904/DTD/svg10.dtd">
<svg version="1.0" xmlns="http://www.w3.org/2000/svg"
 width="1236pt" height="1000pt" viewBox="0 0 1236 1000"
 preserveAspectRatio="xMidYMid meet">
<metadata>
Created by potrace 1.9, written by Peter Selinger 2001-2010
</metadata>
<g transform="translate(0,1000) scale(0.100000,-0.100000)"
fill="#000000" stroke="none">
<path d="M2701 8042 c-19 -10 -43 -34 -53 -53 -17 -31 -18 -69 -18 -544 0
-475 1 -513 18 -544 10 -19 34 -43 53 -53 31 -17 69 -18 544 -18 475 0 513 1
544 18 19 10 43 34 53 53 17 31 18 69 18 544 0 475 -1 513 -18 544 -10 19 -34
43 -53 53 -31 17 -69 18 -544 18 -475 0 -513 -1 -544 -18z m909 -597 l0 -365
-365 0 -365 0 0 365 0 365 365 0 365 0 0 -365z"/>
<path d="M9955 8054 c-684 -55 -1279 -418 -1631 -994 -178 -294 -280 -628
-299 -990 -7 -132 5 -169 66 -202 32 -17 82 -18 961 -18 l928 0 0 -1747 0
-1748 -397 397 c-436 435 -430 430 -506 393 -61 -29 -87 -88 -67 -152 17 -53
973 -1015 1039 -1045 88 -40 61 -62 629 505 358 358 515 522 523 544 6 18 8
47 4 63 -8 39 -56 87 -95 95 -70 15 -85 2 -492 -403 l-388 -387 0 1743 0 1742
928 0 c882 0 929 1 962 18 19 11 42 35 52 54 20 38 17 99 -18 353 -85 616
-439 1154 -974 1481 -234 142 -489 233 -776 278 -102 16 -357 27 -449 20z
m418 -265 c215 -32 478 -126 660 -235 242 -146 495 -399 641 -641 131 -219
246 -579 246 -772 l0 -41 -1820 0 -1820 0 0 41 c0 148 74 422 170 627 168 359
503 694 862 862 210 98 418 154 648 174 73 6 334 -3 413 -15z"/>
<path d="M3191 6082 c-19 -10 -43 -34 -53 -53 -17 -32 -18 -115 -18 -2014 0
-1899 1 -1982 18 -2014 19 -36 72 -71 107 -71 35 0 88 35 107 71 17 32 18 115
18 2014 0 1899 -1 1982 -18 2014 -19 36 -72 71 -107 71 -11 0 -36 -8 -54 -18z"/>
<path d="M5030 5104 c-194 -35 -394 -125 -531 -240 -290 -242 -446 -650 -384
-1003 49 -279 185 -523 384 -685 188 -154 467 -256 701 -256 131 0 349 49 453
101 36 19 38 19 75 0 57 -29 189 -68 288 -85 113 -20 215 -20 329 0 489 85
833 432 920 925 61 347 -93 758 -373 994 -189 159 -473 265 -712 265 -131 0
-349 -49 -452 -101 -37 -19 -39 -19 -75 0 -21 10 -75 30 -119 44 -175 55 -349
69 -504 41z m324 -249 c38 -8 71 -16 73 -19 3 -2 -31 -45 -74 -95 -209 -245
-310 -587 -258 -881 38 -215 126 -406 258 -561 43 -50 77 -93 74 -95 -2 -3
-37 -12 -78 -20 -221 -47 -499 28 -685 185 -137 115 -223 246 -280 426 -26 82
-29 103 -28 230 0 126 3 149 28 225 59 179 144 307 281 422 101 86 258 160
396 187 70 14 218 12 293 -4z m1056 -20 c176 -56 318 -152 431 -291 68 -83
117 -178 155 -299 26 -80 29 -104 29 -225 0 -121 -3 -145 -29 -225 -93 -295
-293 -497 -586 -590 -111 -35 -271 -44 -379 -21 -41 8 -76 18 -78 20 -3 3 25
39 61 81 146 167 231 347 271 576 27 155 15 305 -41 487 -45 150 -119 281
-230 407 -36 42 -64 78 -61 81 2 3 33 11 68 19 102 23 283 14 389 -20z m-660
-175 c127 -110 211 -242 266 -415 26 -80 29 -104 29 -225 0 -121 -3 -145 -29
-225 -55 -174 -139 -305 -267 -416 l-59 -51 -59 51 c-128 111 -212 242 -267
416 -26 82 -29 103 -28 230 0 126 3 149 28 225 57 171 139 299 264 409 32 28
59 50 61 51 2 0 29 -23 61 -50z"/>
<path d="M251 4122 c-36 -19 -71 -73 -71 -107 1 -57 49 -111 479 -540 l441
-440 -449 -450 c-468 -470 -483 -487 -466 -552 16 -67 79 -110 143 -98 32 5
98 68 494 463 l458 457 452 -452 c473 -470 490 -485 555 -468 67 16 110 79 98
143 -5 32 -68 99 -466 497 l-459 460 455 455 c315 315 458 465 466 488 6 17 8
46 4 62 -8 39 -56 87 -95 95 -70 15 -82 6 -558 -469 l-452 -451 -453 452
c-248 249 -465 457 -480 463 -39 14 -57 13 -96 -8z"/>
</g>
</svg>
