<?xml version="1.0" standalone="no"?>
<!DOCTYPE svg PUBLIC "-//W3C//DTD SVG 20010904//EN"
 "http://www.w3.org/TR/2001/REC-SVG-20010904/DTD/svg10.dtd">
<svg version="1.0" xmlns="http://www.w3.org/2000/svg"
 width="1432pt" height="1000pt" viewBox="0 0 1432 1000"
 preserveAspectRatio="xMidYMid meet">
<metadata>
Created by potrace 1.9, written by Peter Selinger 2001-2010
</metadata>
<g transform="translate(0,1000) scale(0.100000,-0.100000)"
fill="#000000" stroke="none">
<path d="M1231 6082 c-19 -10 -43 -34 -53 -53 -17 -32 -18 -113 -18 -1941 l0
-1908 -438 0 c-404 0 -440 -1 -471 -18 -36 -19 -71 -72 -71 -107 0 -35 35 -88
71 -107 32 -17 84 -18 1034 -18 950 0 1002 1 1034 18 36 19 71 72 71 107 0 35
-35 88 -71 107 -31 17 -67 18 -471 18 l-438 0 0 1908 c0 1828 -1 1909 -18
1941 -19 36 -72 71 -107 71 -11 0 -36 -8 -54 -18z"/>
<path d="M5151 6082 c-35 -19 -71 -72 -71 -105 0 -56 42 -103 475 -537 l445
-445 -890 -890 -890 -890 -457 457 c-397 395 -463 458 -495 463 -64 12 -127
-31 -144 -99 -16 -65 5 -90 471 -556 l445 -445 -449 -450 c-468 -470 -483
-487 -466 -552 16 -67 79 -110 143 -98 32 5 98 68 494 463 l458 457 452 -452
c473 -470 490 -485 555 -468 67 16 110 79 98 143 -5 32 -68 99 -466 497 l-459
460 890 890 890 890 890 -890 890 -890 -449 -450 c-468 -470 -483 -487 -466
-552 16 -67 79 -110 143 -98 32 5 98 68 494 463 l458 457 452 -452 c473 -470
490 -485 555 -468 67 16 110 79 98 143 -5 32 -68 99 -466 497 l-459 460 455
455 c315 315 458 465 466 488 6 17 8 46 4 62 -8 39 -56 87 -95 95 -70 15 -82
6 -558 -469 l-452 -451 -890 890 -890 890 459 460 c398 398 461 465 466 497
12 64 -31 127 -98 143 -65 17 -82 2 -555 -469 l-452 -451 -453 452 c-248 249
-465 457 -480 463 -39 14 -57 13 -96 -8z"/>
<path d="M10051 6082 c-36 -19 -71 -72 -71 -107 0 -35 35 -88 71 -107 32 -17
82 -18 961 -18 l928 0 0 -1747 0 -1748 -397 397 c-436 435 -430 430 -506 393
-61 -29 -87 -88 -67 -152 17 -53 973 -1015 1039 -1045 88 -40 61 -62 629 505
358 358 515 522 523 544 6 18 8 47 4 63 -8 39 -56 87 -95 95 -70 15 -85 2
-492 -403 l-388 -387 0 1743 0 1742 928 0 c879 0 929 1 961 18 36 19 71 72 71
107 0 35 -35 88 -71 107 -32 17 -115 18 -2014 18 -1899 0 -1982 -1 -2014 -18z"/>
</g>
</svg>
