<?xml version="1.0" standalone="no"?>
<!DOCTYPE svg PUBLIC "-//W3C//DTD SVG 20010904//EN"
 "http://www.w3.org/TR/2001/REC-SVG-20010904/DTD/svg10.dtd">
<svg version="1.0" xmlns="http://www.w3.org/2000/svg"
 width="648pt" height="1000pt" viewBox="0 0 648 1000"
 preserveAspectRatio="xMidYMid meet">
<metadata>
Created by potrace 1.9, written by Peter Selinger 2001-2010
</metadata>
<g transform="translate(0,1000) scale(0.100000,-0.100000)"
fill="#000000" stroke="none">
<path d="M251 6082 c-19 -10 -43 -34 -53 -53 -17 -32 -18 -115 -18 -2014 0
-1899 1 -1982 18 -2014 10 -19 34 -43 53 -53 32 -17 146 -18 2994 -18 2848 0
2962 1 2994 18 19 10 43 34 53 53 17 32 18 115 18 2014 0 1899 -1 1982 -18
2014 -10 19 -34 43 -53 53 -32 17 -146 18 -2994 18 -2848 0 -2962 -1 -2994
-18z m4747 -1109 c-714 -716 -878 -885 -888 -917 -28 -87 -69 -40 888 -998
l877 -878 -2635 0 -2635 0 887 888 c954 955 916 912 888 987 -7 18 -358 377
-893 913 l-882 882 2635 0 2635 0 -877 -877z m1062 -960 l0 -1658 -830 830
-830 830 827 827 c456 456 829 828 830 828 2 0 3 -746 3 -1657z m-4802 824
l822 -822 -825 -825 -825 -825 0 1648 c0 906 1 1647 3 1647 1 0 372 -370 825
-823z"/>
</g>
</svg>
