<?xml version="1.0" standalone="no"?>
<!DOCTYPE svg PUBLIC "-//W3C//DTD SVG 20010904//EN"
 "http://www.w3.org/TR/2001/REC-SVG-20010904/DTD/svg10.dtd">
<svg version="1.0" xmlns="http://www.w3.org/2000/svg"
 width="1628pt" height="1000pt" viewBox="0 0 1628 1000"
 preserveAspectRatio="xMidYMid meet">
<metadata>
Created by potrace 1.9, written by Peter Selinger 2001-2010
</metadata>
<g transform="translate(0,1000) scale(0.100000,-0.100000)"
fill="#000000" stroke="none">
<path d="M11043 4143 c-33 -6 -79 -57 -86 -92 -26 -127 122 -210 212 -120 43
42 49 93 18 156 -20 42 -87 68 -144 56z"/>
<path d="M251 4122 c-36 -19 -71 -73 -71 -107 0 -11 9 -38 19 -60 27 -57 1962
-1988 2013 -2010 33 -13 260 -15 2013 -15 1671 0 1981 2 2008 14 19 8 446 429
1029 1012 1091 1093 1031 1027 993 1107 -18 39 -47 62 -89 73 -69 17 -62 24
-1076 -991 l-965 -965 -882 0 -883 0 0 41 c0 100 46 310 100 459 97 264 227
466 430 670 246 246 521 402 850 484 128 32 147 35 329 50 88 8 166 19 178 26
72 45 69 172 -5 212 -34 18 -225 14 -362 -7 -629 -97 -1150 -442 -1476 -975
-63 -105 -145 -272 -165 -337 -6 -24 -15 -43 -19 -43 -4 0 -13 19 -19 43 -7
23 -34 87 -60 142 -207 436 -555 786 -986 991 -250 118 -555 192 -816 197
-128 2 -154 -5 -183 -55 -33 -55 -15 -135 37 -168 12 -7 90 -18 178 -26 182
-15 201 -18 329 -50 329 -82 604 -238 850 -484 203 -204 333 -406 430 -670 54
-149 100 -359 100 -459 l0 -41 -883 0 -882 0 -965 966 c-562 563 -978 972
-997 980 -43 18 -61 18 -102 -4z"/>
<path d="M13875 4134 c-680 -53 -1280 -418 -1631 -994 -143 -235 -234 -491
-279 -780 -21 -137 -25 -328 -7 -362 40 -74 167 -77 212 -5 7 12 18 90 26 178
15 182 18 201 50 329 82 329 238 604 484 850 246 246 521 402 850 484 128 32
147 35 329 50 88 8 166 19 178 26 70 44 69 166 -1 210 -22 14 -124 20 -211 14z"/>
<path d="M15835 4134 c-680 -53 -1280 -418 -1631 -994 -143 -235 -234 -491
-279 -780 -21 -137 -25 -328 -7 -362 40 -74 167 -77 212 -5 7 12 18 90 26 178
15 182 18 201 50 329 82 329 238 604 484 850 246 246 521 402 850 484 128 32
147 35 329 50 88 8 166 19 178 26 70 44 69 166 -1 210 -22 14 -124 20 -211 14z"/>
<path d="M9083 2183 c-33 -6 -79 -57 -86 -92 -26 -127 122 -210 212 -120 43
42 49 93 18 156 -20 42 -87 68 -144 56z"/>
<path d="M11043 2183 c-33 -6 -79 -57 -86 -92 -26 -127 122 -210 212 -120 43
42 49 93 18 156 -20 42 -87 68 -144 56z"/>
</g>
</svg>
