<?xml version="1.0" standalone="no"?>
<!DOCTYPE svg PUBLIC "-//W3C//DTD SVG 20010904//EN"
 "http://www.w3.org/TR/2001/REC-SVG-20010904/DTD/svg10.dtd">
<svg version="1.0" xmlns="http://www.w3.org/2000/svg"
 width="746pt" height="1000pt" viewBox="0 0 746 1000"
 preserveAspectRatio="xMidYMid meet">
<metadata>
Created by potrace 1.9, written by Peter Selinger 2001-2010
</metadata>
<g transform="translate(0,1000) scale(0.100000,-0.100000)"
fill="#000000" stroke="none">
<path d="M2212 8044 c-18 -9 -41 -29 -51 -43 -40 -56 -501 -992 -506 -1028
-11 -74 61 -150 132 -139 68 10 76 22 280 430 l195 391 193 -385 c200 -398
216 -423 282 -436 39 -7 95 18 118 53 41 62 45 53 -233 609 -194 389 -267 525
-287 538 -39 25 -85 29 -123 10z"/>
<path d="M2205 6081 c-27 -13 -201 -180 -531 -512 -513 -516 -526 -530 -509
-596 16 -67 79 -110 143 -98 32 5 92 61 435 403 l397 397 0 -1738 0 -1737 -41
0 c-193 0 -553 115 -772 246 -240 145 -495 400 -640 641 -82 135 -160 327
-201 493 -32 128 -35 147 -50 329 -8 88 -19 166 -26 178 -45 72 -172 69 -212
-5 -31 -60 -5 -354 52 -582 204 -811 885 -1420 1715 -1534 277 -38 312 -38
590 0 615 85 1155 440 1481 975 143 234 234 490 279 779 21 137 25 328 7 362
-40 74 -167 77 -212 5 -7 -12 -18 -90 -26 -178 -15 -182 -18 -201 -50 -329
-82 -330 -242 -610 -493 -859 -197 -196 -401 -325 -661 -421 -145 -53 -359
-100 -454 -100 l-36 0 0 1732 0 1733 388 -387 c403 -402 425 -420 489 -403 67
16 110 79 98 143 -5 32 -74 104 -513 546 -290 290 -521 514 -539 522 -42 18
-60 17 -108 -5z"/>
<path d="M6010 6084 c-194 -35 -394 -125 -531 -240 -202 -168 -335 -405 -383
-680 -74 -419 156 -903 523 -1105 34 -19 61 -36 61 -39 0 -3 -28 -20 -63 -39
-361 -197 -595 -688 -522 -1100 50 -285 189 -528 395 -694 100 -79 275 -169
395 -202 50 -13 138 -31 196 -40 99 -14 112 -14 227 5 233 38 427 123 584 255
280 236 434 647 373 994 -59 338 -248 622 -512 774 -40 23 -73 44 -73 47 0 3
33 24 73 47 264 152 453 436 512 774 61 347 -93 758 -373 994 -241 203 -592
302 -882 249z m50 -1084 c0 -727 -2 -840 -14 -840 -33 0 -186 54 -257 91 -144
75 -291 222 -362 364 -19 39 -48 111 -63 160 -26 82 -29 103 -28 230 0 126 3
149 28 225 16 47 44 117 63 155 70 140 221 293 358 363 71 36 225 91 258 92
16 0 17 -47 17 -840z m352 814 c173 -54 316 -151 429 -290 68 -83 117 -178
155 -299 26 -80 29 -104 29 -225 0 -121 -3 -145 -29 -225 -93 -295 -295 -498
-584 -589 -46 -14 -87 -26 -93 -26 -5 0 -9 317 -9 840 0 523 4 840 9 840 6 0
47 -12 93 -26z m-352 -2774 c0 -727 -2 -840 -14 -840 -33 0 -186 54 -257 91
-144 75 -291 222 -362 364 -19 39 -48 111 -63 160 -26 82 -29 103 -28 230 0
126 3 149 28 225 16 47 44 117 63 155 70 140 221 293 358 363 71 36 225 91
258 92 16 0 17 -47 17 -840z m352 814 c173 -54 316 -151 429 -290 68 -83 117
-178 155 -299 26 -80 29 -104 29 -225 0 -121 -3 -145 -29 -225 -93 -295 -295
-498 -584 -589 -46 -14 -87 -26 -93 -26 -5 0 -9 317 -9 840 0 523 4 840 9 840
6 0 47 -12 93 -26z"/>
</g>
</svg>
