<?xml version="1.0" standalone="no"?>
<!DOCTYPE svg PUBLIC "-//W3C//DTD SVG 20010904//EN"
 "http://www.w3.org/TR/2001/REC-SVG-20010904/DTD/svg10.dtd">
<svg version="1.0" xmlns="http://www.w3.org/2000/svg"
 width="942pt" height="1000pt" viewBox="0 0 942 1000"
 preserveAspectRatio="xMidYMid meet">
<metadata>
Created by potrace 1.9, written by Peter Selinger 2001-2010
</metadata>
<g transform="translate(0,1000) scale(0.100000,-0.100000)"
fill="#000000" stroke="none">
<path d="M265 6092 c-99 -35 -118 -168 -32 -222 12 -7 90 -18 178 -26 182 -15
201 -18 329 -50 329 -82 604 -238 850 -484 328 -328 502 -714 535 -1186 l7
-90 -236 -472 c-130 -259 -238 -488 -241 -509 -11 -74 61 -150 132 -139 68 10
76 22 280 430 l195 391 193 -385 c200 -398 216 -423 282 -436 39 -7 95 18 118
53 41 62 44 55 -220 582 l-247 494 7 86 c18 252 71 456 175 679 85 181 200
342 360 502 246 246 521 402 850 484 128 32 147 35 329 50 88 8 166 19 178 26
72 45 69 172 -5 212 -34 18 -225 14 -362 -7 -629 -97 -1150 -442 -1476 -975
-63 -105 -145 -272 -165 -337 -6 -24 -15 -43 -19 -43 -4 0 -13 19 -19 43 -7
23 -34 87 -60 142 -207 436 -555 786 -986 991 -242 115 -526 185 -800 198 -60
3 -119 2 -130 -2z"/>
<path d="M7015 6094 c-172 -14 -419 -67 -575 -124 -565 -207 -1023 -665 -1230
-1230 -88 -241 -154 -660 -120 -766 10 -32 195 -223 994 -1023 739 -741 992
-988 1025 -1003 90 -41 12 -111 1115 990 580 580 1004 1010 1012 1029 15 35
10 114 -22 348 -85 616 -439 1154 -974 1481 -234 142 -489 233 -776 278 -102
16 -357 27 -449 20z m418 -265 c163 -24 351 -83 515 -159 359 -168 694 -503
862 -862 102 -219 156 -423 174 -668 l6 -75 -915 -915 -915 -915 -915 915
-915 915 6 75 c18 245 72 449 174 668 168 359 503 694 862 862 210 98 418 154
648 174 73 6 334 -3 413 -15z"/>
</g>
</svg>
