<?xml version="1.0" standalone="no"?>
<!DOCTYPE svg PUBLIC "-//W3C//DTD SVG 20010904//EN"
 "http://www.w3.org/TR/2001/REC-SVG-20010904/DTD/svg10.dtd">
<svg version="1.0" xmlns="http://www.w3.org/2000/svg"
 width="452pt" height="1000pt" viewBox="0 0 452 1000"
 preserveAspectRatio="xMidYMid meet">
<metadata>
Created by potrace 1.9, written by Peter Selinger 2001-2010
</metadata>
<g transform="translate(0,1000) scale(0.100000,-0.100000)"
fill="#000000" stroke="none">
<path d="M251 6082 c-36 -19 -71 -72 -71 -107 0 -35 35 -88 71 -107 28 -15 58
-18 184 -18 l150 0 -43 -36 c-125 -106 -265 -332 -316 -514 -38 -134 -52 -260
-38 -323 7 -28 21 -99 31 -157 115 -640 328 -1157 690 -1675 220 -315 546
-651 859 -884 l102 -76 -802 -5 c-753 -5 -805 -6 -830 -23 -28 -19 -58 -73
-58 -104 0 -33 36 -86 71 -105 32 -17 115 -18 2014 -18 1899 0 1982 1 2014 18
36 19 71 72 71 107 0 35 -35 88 -71 107 -32 17 -78 18 -829 18 l-795 0 40 27
c226 152 565 469 755 703 479 592 761 1223 879 1965 20 125 19 131 -5 283 -38
240 -141 448 -305 614 l-77 78 151 0 c128 0 158 3 186 18 36 19 71 72 71 107
0 35 -35 88 -71 107 -32 17 -115 18 -2014 18 -1899 0 -1982 -1 -2014 -18z
m1259 -267 c353 -114 585 -399 619 -764 5 -54 15 -107 22 -119 43 -69 175 -69
218 0 7 12 17 65 22 119 17 179 89 357 197 484 115 137 243 222 422 281 77 25
98 28 230 28 132 0 153 -3 230 -28 183 -61 317 -152 431 -292 66 -80 115 -175
155 -294 25 -76 28 -100 28 -220 0 -110 -5 -159 -27 -265 -86 -404 -225 -774
-424 -1130 -298 -531 -795 -1042 -1326 -1364 l-37 -23 -48 28 c-87 50 -266
176 -387 272 -163 130 -468 437 -599 602 -415 523 -672 1109 -781 1785 -28
175 -26 209 19 342 91 266 291 464 557 552 106 35 147 40 274 37 97 -3 136 -9
205 -31z m993 -1 c-60 -50 -164 -179 -204 -251 -19 -35 -36 -63 -39 -63 -3 0
-20 27 -38 60 -41 75 -139 197 -200 250 l-47 40 285 0 285 0 -42 -36z"/>
</g>
</svg>
