<?xml version="1.0" standalone="no"?>
<!DOCTYPE svg PUBLIC "-//W3C//DTD SVG 20010904//EN"
 "http://www.w3.org/TR/2001/REC-SVG-20010904/DTD/svg10.dtd">
<svg version="1.0" xmlns="http://www.w3.org/2000/svg"
 width="403pt" height="1000pt" viewBox="0 0 403 1000"
 preserveAspectRatio="xMidYMid meet">
<metadata>
Created by potrace 1.9, written by Peter Selinger 2001-2010
</metadata>
<g transform="translate(0,1000) scale(0.100000,-0.100000)"
fill="#000000" stroke="none">
<path d="M3585 8054 c-680 -53 -1280 -418 -1631 -994 -174 -287 -261 -567
-300 -970 l-5 -55 -90 -75 c-265 -220 -529 -582 -677 -928 -107 -250 -184
-570 -201 -833 l-7 -117 -48 -53 c-109 -121 -228 -331 -285 -504 -150 -454
-84 -927 184 -1330 66 -100 176 -224 218 -247 30 -17 98 -18 1032 -18 945 0
1002 1 1034 18 18 10 43 34 55 53 11 20 44 64 71 98 72 89 168 250 210 350 84
200 118 372 119 596 0 217 -36 400 -116 593 -40 97 -143 265 -219 360 l-62 75
-8 123 c-17 269 -93 585 -201 836 -147 345 -415 712 -672 923 l-85 70 5 75
c17 238 71 448 174 668 85 181 200 342 360 502 246 246 521 402 850 484 128
32 147 35 329 50 88 8 166 19 178 26 70 44 69 166 -1 210 -22 14 -124 20 -211
14z m-1738 -2313 c94 -81 235 -236 323 -356 274 -371 440 -850 441 -1274 l0
-128 42 -51 c143 -174 180 -224 220 -301 54 -102 100 -230 124 -343 24 -115
24 -370 -1 -488 -44 -209 -150 -425 -278 -565 l-50 -55 -903 0 -903 0 -50 55
c-131 143 -233 351 -279 567 -24 115 -24 370 1 488 48 228 153 431 312 604 71
76 70 72 84 281 35 529 243 1015 604 1409 91 98 219 216 236 216 5 0 39 -27
77 -59z"/>
</g>
</svg>
