<?xml version="1.0" standalone="no"?>
<!DOCTYPE svg PUBLIC "-//W3C//DTD SVG 20010904//EN"
 "http://www.w3.org/TR/2001/REC-SVG-20010904/DTD/svg10.dtd">
<svg version="1.0" xmlns="http://www.w3.org/2000/svg"
 width="354pt" height="1000pt" viewBox="0 0 354 1000"
 preserveAspectRatio="xMidYMid meet">
<metadata>
Created by potrace 1.9, written by Peter Selinger 2001-2010
</metadata>
<g transform="translate(0,1000) scale(0.100000,-0.100000)"
fill="#000000" stroke="none">
<path d="M1232 6085 c-51 -22 -257 -202 -363 -316 -546 -592 -784 -1407 -644
-2199 105 -588 409 -1120 857 -1501 141 -120 181 -139 242 -119 71 23 103 119
62 182 -10 15 -68 70 -129 122 -349 294 -605 686 -732 1119 -122 419 -122 875
0 1294 127 433 383 825 732 1119 61 52 119 107 129 122 39 59 12 151 -53 178
-40 17 -59 17 -101 -1z"/>
<path d="M2205 6086 c-63 -27 -89 -120 -51 -178 10 -15 68 -70 129 -122 349
-294 605 -686 732 -1119 122 -419 122 -875 0 -1294 -127 -433 -383 -825 -732
-1119 -128 -109 -146 -133 -146 -190 0 -85 77 -141 158 -114 20 7 93 60 163
120 448 380 752 913 857 1500 70 395 48 793 -67 1185 -135 462 -423 905 -790
1216 -150 127 -187 144 -253 115z"/>
<path d="M1695 5603 c-256 -40 -447 -206 -511 -443 -23 -86 -23 -234 0 -320
55 -202 213 -364 415 -423 47 -14 97 -19 171 -19 74 0 124 5 171 19 202 59
360 221 415 423 23 86 23 234 0 320 -55 202 -217 367 -415 422 -68 19 -194 30
-246 21z m220 -277 c71 -32 149 -111 183 -184 22 -48 27 -71 27 -142 0 -106
-29 -175 -105 -250 -75 -76 -144 -105 -250 -105 -106 0 -175 29 -250 105 -76
75 -105 144 -105 250 0 71 5 94 27 142 45 98 146 183 245 208 61 15 167 4 228
-24z"/>
<path d="M1695 3643 c-256 -40 -447 -206 -511 -443 -23 -86 -23 -234 0 -320
55 -202 213 -364 415 -423 91 -27 251 -27 342 0 202 59 360 221 415 423 23 86
23 234 0 320 -55 202 -217 367 -415 422 -68 19 -194 30 -246 21z m220 -277
c71 -32 149 -111 183 -184 22 -48 27 -71 27 -142 0 -106 -29 -175 -105 -250
-75 -76 -144 -105 -250 -105 -106 0 -175 29 -250 105 -76 75 -105 144 -105
250 0 71 5 94 27 142 45 98 146 183 245 208 61 15 167 4 228 -24z"/>
</g>
</svg>
