<?xml version="1.0" standalone="no"?>
<!DOCTYPE svg PUBLIC "-//W3C//DTD SVG 20010904//EN"
 "http://www.w3.org/TR/2001/REC-SVG-20010904/DTD/svg10.dtd">
<svg version="1.0" xmlns="http://www.w3.org/2000/svg"
 width="1432pt" height="1000pt" viewBox="0 0 1432 1000"
 preserveAspectRatio="xMidYMid meet">
<metadata>
Created by potrace 1.9, written by Peter Selinger 2001-2010
</metadata>
<g transform="translate(0,1000) scale(0.100000,-0.100000)"
fill="#000000" stroke="none">
<path d="M1721 8042 c-19 -10 -43 -34 -53 -53 -17 -31 -18 -69 -18 -544 0
-475 1 -513 18 -544 10 -19 34 -43 53 -53 31 -17 69 -18 544 -18 475 0 513 1
544 18 19 10 43 34 53 53 17 31 18 69 18 544 0 475 -1 513 -18 544 -10 19 -34
43 -53 53 -31 17 -69 18 -544 18 -475 0 -513 -1 -544 -18z m909 -597 l0 -365
-365 0 -365 0 0 365 0 365 365 0 365 0 0 -365z"/>
<path d="M2212 6083 c-18 -9 -41 -28 -51 -42 -41 -58 -1971 -3933 -1976 -3968
-16 -104 101 -175 190 -117 20 13 230 424 895 1753 l869 1736 0 -1632 1 -1633
-438 0 c-404 0 -440 -1 -471 -18 -36 -19 -71 -72 -71 -107 0 -35 35 -88 71
-107 32 -17 84 -18 1034 -18 950 0 1002 1 1034 18 36 19 71 72 71 107 0 35
-35 88 -71 107 -31 17 -67 18 -471 18 l-438 0 0 1908 c0 1828 -1 1909 -18
1941 -19 36 -73 71 -107 71 -11 0 -35 -8 -53 -17z"/>
<path d="M6132 6083 c-18 -9 -41 -28 -51 -42 -41 -58 -1971 -3933 -1976 -3968
-8 -49 19 -100 66 -125 32 -17 84 -18 1034 -18 950 0 1002 1 1034 18 36 19 71
72 71 107 0 35 -35 88 -71 107 -32 17 -81 18 -921 18 -489 0 -888 2 -888 5 0
3 423 851 940 1885 517 1034 940 1890 940 1903 0 37 -34 89 -71 109 -41 22
-64 22 -107 1z"/>
<path d="M10051 6082 c-19 -10 -43 -34 -53 -53 -17 -32 -18 -115 -18 -2014 0
-1899 1 -1982 18 -2014 10 -19 34 -43 53 -53 32 -17 115 -18 2014 -18 1899 0
1982 1 2014 18 19 10 43 34 53 53 17 32 18 115 18 2014 0 1899 -1 1982 -18
2014 -10 19 -34 43 -53 53 -32 17 -115 18 -2014 18 -1899 0 -1982 -1 -2014
-18z m719 -235 c0 -1 -121 -124 -270 -272 l-270 -270 0 273 0 272 270 0 c149
0 270 -1 270 -3z m2150 -1744 l0 -1748 -397 397 c-343 342 -403 398 -435 403
-64 12 -127 -31 -143 -98 -17 -64 1 -86 403 -489 l387 -388 -763 0 -762 0 0
1742 0 1743 388 -387 c403 -402 425 -420 489 -403 67 16 110 79 98 143 -5 32
-61 92 -403 435 l-397 397 768 0 767 0 0 -1747z m980 369 l0 -1377 -365 -365
-365 -365 0 1743 0 1742 365 0 365 0 0 -1378z m-2940 -547 l0 -1745 -365 0
-365 0 0 1382 0 1383 362 362 c200 200 364 363 365 363 2 0 3 -785 3 -1745z
m2940 -1470 l0 -275 -277 0 -278 0 275 275 c151 151 276 275 277 275 2 0 3
-124 3 -275z"/>
<path d="M7977 5104 c-456 -71 -810 -401 -907 -846 -28 -127 -35 -269 -20
-370 77 -504 428 -865 925 -952 364 -64 780 97 1017 394 190 237 282 571 233
849 -62 355 -254 632 -550 796 -221 122 -460 166 -698 129z m393 -269 c176
-56 318 -152 431 -291 68 -83 117 -178 155 -299 26 -80 29 -104 29 -225 0
-121 -3 -145 -29 -225 -93 -295 -290 -493 -586 -591 -77 -25 -98 -28 -230 -28
-132 0 -153 3 -230 28 -294 97 -494 298 -584 586 -123 394 93 845 482 1010
130 55 215 70 367 65 85 -2 129 -9 195 -30z"/>
</g>
</svg>
