<?xml version="1.0" standalone="no"?>
<!DOCTYPE svg PUBLIC "-//W3C//DTD SVG 20010904//EN"
 "http://www.w3.org/TR/2001/REC-SVG-20010904/DTD/svg10.dtd">
<svg version="1.0" xmlns="http://www.w3.org/2000/svg"
 width="354pt" height="1000pt" viewBox="0 0 354 1000"
 preserveAspectRatio="xMidYMid meet">
<metadata>
Created by potrace 1.9, written by Peter Selinger 2001-2010
</metadata>
<g transform="translate(0,1000) scale(0.100000,-0.100000)"
fill="#000000" stroke="none">
<path d="M3095 8054 c-169 -13 -419 -67 -575 -124 -631 -231 -1120 -769 -1286
-1415 -57 -220 -65 -295 -71 -671 l-5 -352 -72 38 c-39 21 -100 46 -136 56
-86 23 -234 23 -320 0 -204 -55 -364 -213 -426 -421 -17 -56 -18 -134 -22
-1115 -3 -786 0 -1077 9 -1140 70 -500 426 -867 924 -954 364 -64 780 97 1017
394 125 155 201 338 239 569 18 108 19 182 19 1098 0 604 -4 999 -10 1025 -5
24 -17 74 -25 113 -47 204 -215 374 -425 431 -86 23 -234 23 -319 0 -36 -10
-92 -32 -125 -49 -34 -18 -65 -34 -70 -36 -15 -6 1 682 17 774 72 397 238 715
517 995 246 246 521 402 850 484 128 32 147 35 329 50 88 8 166 19 178 26 70
44 69 166 -1 210 -22 14 -124 20 -211 14z m-2160 -2728 c64 -29 144 -105 175
-166 12 -24 28 -80 36 -124 18 -103 28 -121 79 -146 50 -24 67 -25 110 -4 47
22 65 55 77 138 13 95 46 165 108 226 75 76 144 105 250 105 71 0 94 -5 142
-27 67 -31 147 -106 178 -168 48 -93 49 -132 49 -1130 0 -526 -4 -978 -9
-1034 -36 -372 -263 -654 -620 -772 -77 -25 -98 -28 -230 -28 -132 0 -153 3
-230 28 -179 59 -319 154 -431 292 -68 82 -117 177 -155 299 l-29 90 0 1090 0
1090 27 57 c46 98 146 183 245 208 61 15 167 4 228 -24z"/>
</g>
</svg>
