<?xml version="1.0" standalone="no"?>
<!DOCTYPE svg PUBLIC "-//W3C//DTD SVG 20010904//EN"
 "http://www.w3.org/TR/2001/REC-SVG-20010904/DTD/svg10.dtd">
<svg version="1.0" xmlns="http://www.w3.org/2000/svg"
 width="256pt" height="1000pt" viewBox="0 0 256 1000"
 preserveAspectRatio="xMidYMid meet">
<metadata>
Created by potrace 1.9, written by Peter Selinger 2001-2010
</metadata>
<g transform="translate(0,1000) scale(0.100000,-0.100000)"
fill="#000000" stroke="none">
<path d="M715 6093 c-256 -40 -447 -206 -511 -443 -23 -86 -23 -234 0 -320 55
-202 213 -364 415 -423 47 -14 97 -19 171 -19 74 0 124 5 171 19 202 59 360
221 415 423 23 86 23 234 0 320 -55 202 -217 367 -415 422 -68 19 -194 30
-246 21z m220 -277 c71 -32 149 -111 183 -184 22 -48 27 -71 27 -142 0 -106
-29 -175 -105 -250 -75 -76 -144 -105 -250 -105 -106 0 -175 29 -250 105 -76
75 -105 144 -105 250 0 71 5 94 27 142 45 98 146 183 245 208 61 15 167 4 228
-24z"/>
<path d="M2212 6083 c-18 -9 -41 -28 -51 -42 -41 -58 -1971 -3933 -1976 -3968
-16 -104 101 -175 190 -117 21 13 257 479 1021 2006 547 1093 994 1998 994
2011 0 37 -34 89 -71 109 -41 22 -64 22 -107 1z"/>
<path d="M1695 3153 c-256 -40 -447 -206 -511 -443 -23 -86 -23 -234 0 -320
55 -202 213 -364 415 -423 91 -27 251 -27 342 0 202 59 360 221 415 423 23 86
23 234 0 320 -55 202 -217 367 -415 422 -68 19 -194 30 -246 21z m220 -277
c71 -32 149 -111 183 -184 22 -48 27 -71 27 -142 0 -106 -29 -175 -105 -250
-75 -76 -144 -105 -250 -105 -106 0 -175 29 -250 105 -76 75 -105 144 -105
250 0 71 5 94 27 142 45 98 146 183 245 208 61 15 167 4 228 -24z"/>
</g>
</svg>
