<?xml version="1.0" standalone="no"?>
<!DOCTYPE svg PUBLIC "-//W3C//DTD SVG 20010904//EN"
 "http://www.w3.org/TR/2001/REC-SVG-20010904/DTD/svg10.dtd">
<svg version="1.0" xmlns="http://www.w3.org/2000/svg"
 width="1040pt" height="1000pt" viewBox="0 0 1040 1000"
 preserveAspectRatio="xMidYMid meet">
<metadata>
Created by potrace 1.9, written by Peter Selinger 2001-2010
</metadata>
<g transform="translate(0,1000) scale(0.100000,-0.100000)"
fill="#000000" stroke="none">
<path d="M1232 8044 c-18 -9 -41 -29 -51 -43 -40 -56 -501 -992 -506 -1028
-11 -74 61 -150 132 -139 68 10 76 22 280 430 l195 391 193 -385 c200 -398
216 -423 282 -436 39 -7 95 18 118 53 41 62 45 53 -233 609 -194 389 -267 525
-287 538 -39 25 -85 29 -123 10z"/>
<path d="M5145 6081 c-57 -27 -1988 -1962 -2010 -2013 -13 -33 -15 -161 -15
-1035 0 -948 1 -1000 18 -1032 10 -19 34 -43 53 -53 32 -17 115 -18 2014 -18
1899 0 1982 1 2014 18 19 10 43 34 53 53 17 32 18 84 18 1032 0 834 -2 1003
-14 1030 -18 42 -1991 2013 -2029 2027 -39 14 -56 13 -102 -9z m977 -1208
l918 -918 0 -887 0 -888 -1835 0 -1835 0 0 892 0 893 912 912 c502 502 915
913 918 913 3 0 418 -413 922 -917z"/>
<path d="M8950 5104 c-194 -35 -394 -125 -531 -240 -290 -242 -446 -650 -384
-1003 49 -279 185 -523 384 -685 145 -119 339 -206 536 -240 114 -20 216 -20
330 0 489 85 833 432 920 925 61 347 -93 758 -373 994 -241 203 -592 302 -882
249z m400 -269 c176 -56 318 -152 431 -291 68 -83 117 -178 155 -299 26 -80
29 -104 29 -225 0 -121 -3 -145 -29 -225 -93 -295 -290 -493 -586 -591 -77
-25 -98 -28 -230 -28 -132 0 -153 3 -230 28 -179 59 -319 154 -431 292 -68 82
-117 177 -155 299 -26 82 -29 103 -28 230 0 126 3 149 28 225 95 288 291 488
567 579 106 35 147 40 274 37 97 -3 137 -9 205 -31z"/>
<path d="M9083 4143 c-33 -6 -79 -57 -86 -92 -26 -127 122 -210 212 -120 43
42 49 93 18 156 -20 42 -87 68 -144 56z"/>
<path d="M1232 4124 c-18 -9 -41 -29 -51 -43 -41 -57 -991 -1973 -996 -2008
-16 -104 101 -175 190 -117 20 13 134 232 467 898 l440 881 438 -874 c321
-643 445 -881 466 -898 78 -62 184 -20 201 81 4 27 -69 179 -500 1042 -384
769 -512 1015 -532 1028 -39 25 -85 29 -123 10z"/>
</g>
</svg>
