<?xml version="1.0" standalone="no"?>
<!DOCTYPE svg PUBLIC "-//W3C//DTD SVG 20010904//EN"
 "http://www.w3.org/TR/2001/REC-SVG-20010904/DTD/svg10.dtd">
<svg version="1.0" xmlns="http://www.w3.org/2000/svg"
 width="648pt" height="1000pt" viewBox="0 0 648 1000"
 preserveAspectRatio="xMidYMid meet">
<metadata>
Created by potrace 1.9, written by Peter Selinger 2001-2010
</metadata>
<g transform="translate(0,1000) scale(0.100000,-0.100000)"
fill="#000000" stroke="none">
<path d="M2212 8044 c-18 -9 -41 -29 -51 -43 -40 -56 -501 -992 -506 -1028
-11 -74 61 -150 132 -139 68 10 76 22 280 430 l195 391 193 -385 c200 -398
216 -423 282 -436 39 -7 95 18 118 53 41 62 45 53 -233 609 -194 389 -267 525
-287 538 -39 25 -85 29 -123 10z"/>
<path d="M2115 6094 c-684 -55 -1279 -418 -1631 -994 -143 -235 -234 -491
-279 -780 -21 -137 -25 -328 -7 -362 40 -74 167 -77 212 -5 7 12 18 90 26 178
15 182 18 201 50 329 82 329 238 604 484 850 246 246 519 401 850 485 155 39
245 49 440 49 195 0 285 -10 440 -49 331 -84 604 -239 850 -485 246 -246 402
-521 484 -850 32 -128 35 -147 50 -329 8 -94 19 -166 27 -179 8 -13 32 -31 55
-42 39 -19 65 -20 874 -20 l835 0 -387 -387 c-326 -327 -388 -394 -398 -429
-24 -82 -23 -84 398 -506 l387 -388 -835 0 c-790 0 -837 -1 -869 -18 -36 -19
-71 -72 -71 -107 0 -35 35 -88 71 -107 32 -17 79 -18 869 -18 l835 0 -387
-387 c-402 -404 -420 -426 -403 -490 16 -67 79 -110 143 -98 32 5 105 74 550
518 358 358 515 522 523 544 23 72 27 68 -462 558 l-459 460 455 455 c315 315
458 465 466 488 24 72 30 64 -514 610 -358 358 -522 515 -544 523 -18 6 -47 8
-63 4 -39 -8 -87 -56 -95 -95 -15 -70 -2 -85 403 -492 l387 -388 -773 0 -772
0 0 41 c0 110 -63 401 -120 559 -207 565 -665 1023 -1230 1230 -108 39 -286
84 -416 104 -102 16 -357 27 -449 20z"/>
</g>
</svg>
