<?xml version="1.0" standalone="no"?>
<!DOCTYPE svg PUBLIC "-//W3C//DTD SVG 20010904//EN"
 "http://www.w3.org/TR/2001/REC-SVG-20010904/DTD/svg10.dtd">
<svg version="1.0" xmlns="http://www.w3.org/2000/svg"
 width="942pt" height="1000pt" viewBox="0 0 942 1000"
 preserveAspectRatio="xMidYMid meet">
<metadata>
Created by potrace 1.9, written by Peter Selinger 2001-2010
</metadata>
<g transform="translate(0,1000) scale(0.100000,-0.100000)"
fill="#000000" stroke="none">
<path d="M2115 6094 c-172 -14 -419 -67 -575 -124 -631 -231 -1120 -769 -1286
-1415 -70 -271 -67 -205 -71 -1420 -4 -1057 -3 -1101 15 -1134 10 -19 34 -43
53 -53 32 -17 115 -18 2014 -18 1899 0 1982 1 2014 18 19 10 43 34 53 53 17
32 18 84 18 1014 0 975 -2 1051 -36 1300 -85 616 -439 1154 -974 1481 -234
142 -489 233 -776 278 -102 16 -357 27 -449 20z m418 -265 c215 -32 478 -126
660 -235 242 -146 495 -399 641 -641 77 -128 158 -324 197 -476 62 -244 69
-380 69 -1414 l0 -883 -1836 0 -1835 0 4 1028 c3 872 6 1039 20 1107 78 409
238 716 517 995 318 317 699 495 1150 534 73 6 334 -3 413 -15z"/>
<path d="M7015 6094 c-684 -55 -1279 -418 -1631 -994 -143 -235 -234 -491
-279 -780 -21 -137 -25 -328 -7 -362 40 -74 167 -77 212 -5 7 12 18 90 26 178
15 182 18 201 50 329 82 329 238 604 484 850 204 203 406 333 670 430 149 54
359 100 459 100 l41 0 0 -1903 c0 -1829 1 -1904 18 -1937 25 -46 81 -74 130
-65 33 6 150 119 1036 1003 580 580 1004 1010 1012 1029 15 35 10 114 -22 348
-85 616 -439 1154 -974 1481 -234 142 -489 233 -776 278 -102 16 -357 27 -449
20z m600 -303 c316 -80 593 -240 835 -481 203 -204 333 -406 430 -670 29 -79
82 -271 77 -277 -2 -1 -331 327 -732 728 -402 402 -721 728 -710 725 11 -3 56
-14 100 -25z m503 -954 l822 -822 -825 -825 -825 -825 0 1648 c0 906 1 1647 3
1647 1 0 372 -370 825 -823z"/>
</g>
</svg>
