<?xml version="1.0" standalone="no"?>
<!DOCTYPE svg PUBLIC "-//W3C//DTD SVG 20010904//EN"
 "http://www.w3.org/TR/2001/REC-SVG-20010904/DTD/svg10.dtd">
<svg version="1.0" xmlns="http://www.w3.org/2000/svg"
 width="942pt" height="1000pt" viewBox="0 0 942 1000"
 preserveAspectRatio="xMidYMid meet">
<metadata>
Created by potrace 1.9, written by Peter Selinger 2001-2010
</metadata>
<g transform="translate(0,1000) scale(0.100000,-0.100000)"
fill="#000000" stroke="none">
<path d="M2115 6094 c-684 -55 -1279 -418 -1631 -994 -143 -235 -234 -491
-279 -780 -21 -137 -25 -328 -7 -362 40 -74 167 -77 212 -5 7 12 18 90 26 178
15 182 18 201 50 329 82 329 238 604 484 850 241 241 514 398 835 481 81 21
237 50 243 44 2 -1 -416 -840 -927 -1864 -527 -1052 -933 -1877 -936 -1898 -8
-49 19 -100 66 -125 32 -17 115 -18 2014 -18 1899 0 1982 1 2014 18 37 20 71
72 71 109 0 13 -423 869 -940 1904 -649 1296 -935 1879 -923 1876 10 -3 41 -8
68 -12 180 -24 463 -126 638 -231 242 -146 495 -399 641 -641 81 -135 159
-328 200 -493 32 -128 35 -147 50 -329 8 -88 19 -166 26 -178 45 -72 172 -69
212 5 18 34 14 225 -7 362 -71 458 -269 853 -585 1170 -378 377 -876 590
-1416 604 -82 2 -171 2 -199 0z m152 -3912 c-963 -1 -1752 0 -1754 2 -2 2 390
793 873 1757 l877 1754 877 -1755 878 -1755 -1751 -3z"/>
<path d="M7015 6094 c-684 -55 -1279 -418 -1631 -994 -143 -235 -234 -491
-279 -780 -21 -137 -25 -328 -7 -362 40 -74 167 -77 212 -5 7 12 18 90 26 178
15 182 18 201 50 329 82 329 238 604 484 850 204 203 406 333 670 430 149 54
359 100 459 100 l41 0 0 -1903 c0 -1829 1 -1904 18 -1937 25 -46 81 -74 130
-65 33 6 150 119 1036 1003 580 580 1004 1010 1012 1029 15 35 10 114 -22 348
-85 616 -439 1154 -974 1481 -234 142 -489 233 -776 278 -102 16 -357 27 -449
20z m600 -303 c316 -80 593 -240 835 -481 203 -204 333 -406 430 -670 29 -79
82 -271 77 -277 -2 -1 -331 327 -732 728 -402 402 -721 728 -710 725 11 -3 56
-14 100 -25z m503 -954 l822 -822 -825 -825 -825 -825 0 1648 c0 906 1 1647 3
1647 1 0 372 -370 825 -823z"/>
</g>
</svg>
