<?xml version="1.0" standalone="no"?>
<!DOCTYPE svg PUBLIC "-//W3C//DTD SVG 20010904//EN"
 "http://www.w3.org/TR/2001/REC-SVG-20010904/DTD/svg10.dtd">
<svg version="1.0" xmlns="http://www.w3.org/2000/svg"
 width="1334pt" height="1000pt" viewBox="0 0 1334 1000"
 preserveAspectRatio="xMidYMid meet">
<metadata>
Created by potrace 1.9, written by Peter Selinger 2001-2010
</metadata>
<g transform="translate(0,1000) scale(0.100000,-0.100000)"
fill="#000000" stroke="none">
<path d="M2115 6094 c-684 -55 -1279 -418 -1631 -994 -143 -235 -234 -491
-279 -780 -21 -137 -25 -328 -7 -362 40 -74 167 -77 212 -5 7 12 18 90 26 178
15 182 18 201 50 329 82 329 238 604 484 850 241 241 514 398 835 481 81 21
237 50 243 44 2 -1 -416 -840 -927 -1864 -527 -1052 -933 -1877 -936 -1898 -8
-49 19 -100 66 -125 32 -17 115 -18 2014 -18 1899 0 1982 1 2014 18 37 20 71
72 71 109 0 13 -423 869 -940 1904 -649 1296 -935 1879 -923 1876 10 -3 41 -8
68 -12 180 -24 463 -126 638 -231 242 -146 495 -399 641 -641 81 -135 159
-328 200 -493 32 -128 35 -147 50 -329 8 -88 19 -166 26 -178 45 -72 172 -69
212 5 18 34 14 225 -7 362 -71 458 -269 853 -585 1170 -378 377 -876 590
-1416 604 -82 2 -171 2 -199 0z m152 -3912 c-963 -1 -1752 0 -1754 2 -2 2 390
793 873 1757 l877 1754 877 -1755 878 -1755 -1751 -3z"/>
<path d="M8975 6094 c-684 -55 -1279 -418 -1631 -994 -108 -179 -182 -356
-234 -560 -23 -92 -60 -292 -60 -324 0 -3 -410 199 -910 449 -501 250 -920
455 -933 455 -65 0 -133 -75 -123 -138 11 -76 -10 -64 999 -569 524 -261 955
-481 959 -487 4 -6 8 -33 8 -60 0 -70 27 -233 60 -366 184 -730 759 -1306
1490 -1490 197 -49 316 -64 520 -64 557 0 1074 211 1461 595 314 312 523 721
589 1149 6 41 13 87 16 102 l5 27 899 -449 c498 -249 916 -452 937 -455 104
-16 175 101 117 190 -13 20 -250 143 -978 507 -529 264 -963 482 -965 484 -2
2 -7 45 -12 96 -56 668 -420 1256 -989 1604 -234 142 -489 233 -776 278 -102
16 -357 27 -449 20z m418 -265 c215 -32 478 -126 660 -235 240 -145 495 -400
640 -641 78 -128 158 -323 198 -478 21 -81 50 -237 44 -243 -1 -2 -404 197
-894 442 -490 246 -902 446 -914 446 -37 0 -89 -34 -109 -71 -17 -32 -18 -81
-18 -921 0 -489 -2 -888 -5 -888 -3 0 -387 191 -854 425 l-850 424 5 58 c20
244 73 444 174 661 168 359 503 694 862 862 210 98 418 154 648 174 73 6 334
-3 413 -15z m1550 -1941 c-17 -230 -73 -441 -173 -656 -142 -302 -420 -607
-717 -786 -184 -110 -440 -201 -668 -237 -103 -16 -427 -16 -530 0 -228 36
-484 127 -668 237 -240 145 -495 400 -640 641 -78 128 -158 323 -198 478 -22
82 -49 235 -43 235 2 0 400 -198 884 -440 486 -243 896 -442 917 -445 49 -8
100 19 125 66 17 32 18 81 18 921 l0 888 849 -424 848 -425 -4 -53z"/>
</g>
</svg>
