<?xml version="1.0" standalone="no"?>
<!DOCTYPE svg PUBLIC "-//W3C//DTD SVG 20010904//EN"
 "http://www.w3.org/TR/2001/REC-SVG-20010904/DTD/svg10.dtd">
<svg version="1.0" xmlns="http://www.w3.org/2000/svg"
 width="942pt" height="1000pt" viewBox="0 0 942 1000"
 preserveAspectRatio="xMidYMid meet">
<metadata>
Created by potrace 1.9, written by Peter Selinger 2001-2010
</metadata>
<g transform="translate(0,1000) scale(0.100000,-0.100000)"
fill="#000000" stroke="none">
<path d="M7111 6082 c-19 -10 -43 -34 -53 -53 -17 -32 -18 -82 -18 -961 l0
-928 -936 0 c-856 0 -938 -1 -964 -17 -47 -28 -55 -55 -53 -182 5 -261 79
-566 197 -816 78 -164 213 -367 323 -487 24 -26 43 -51 43 -57 0 -5 -17 -15
-37 -21 -117 -37 -342 -181 -463 -297 l-88 -83 -356 0 -356 0 0 928 c0 879 -1
929 -18 961 -10 19 -34 43 -53 53 -32 17 -115 18 -2014 18 -1899 0 -1982 -1
-2014 -18 -19 -10 -43 -34 -53 -53 -17 -32 -18 -84 -18 -1034 0 -950 1 -1002
18 -1034 19 -36 72 -71 107 -71 35 0 88 35 107 71 17 32 18 82 18 961 l0 928
1835 0 1835 0 0 -928 c0 -879 1 -929 18 -961 10 -19 34 -43 53 -53 31 -17 69
-18 544 -18 475 0 513 1 544 18 39 21 71 73 71 114 0 22 15 40 73 87 114 95
287 184 430 223 43 11 43 11 113 -39 309 -222 655 -348 1054 -383 105 -10 117
-13 145 -39 86 -81 281 -201 419 -257 461 -188 991 -134 1410 143 100 67 215
165 240 205 9 14 16 47 16 72 0 39 -5 51 -35 81 -30 30 -42 35 -81 35 -48 0
-104 -30 -154 -85 -106 -114 -365 -245 -575 -291 -98 -21 -377 -24 -475 -5
-99 20 -216 59 -320 108 -110 52 -113 47 65 88 596 138 1114 557 1381 1120
112 236 163 438 203 808 13 115 2 152 -54 187 -32 20 -47 20 -964 20 l-931 0
0 928 c0 879 -1 929 -18 961 -19 36 -72 71 -107 71 -11 0 -36 -8 -54 -18z
m1869 -2228 c0 -143 -76 -420 -170 -622 -142 -302 -420 -607 -717 -786 -222
-133 -579 -246 -779 -246 -44 0 -50 4 -125 74 -229 215 -527 347 -875 387 -92
10 -287 6 -341 -7 -19 -5 -38 9 -113 86 -195 198 -326 405 -420 660 -53 145
-100 359 -100 454 l0 36 1820 0 1820 0 0 -36z m-2553 -1460 c42 -8 119 -31
171 -50 108 -39 262 -117 239 -122 -43 -9 -325 82 -462 148 -92 44 -77 51 52
24z"/>
</g>
</svg>
