<?xml version="1.0" standalone="no"?>
<!DOCTYPE svg PUBLIC "-//W3C//DTD SVG 20010904//EN"
 "http://www.w3.org/TR/2001/REC-SVG-20010904/DTD/svg10.dtd">
<svg version="1.0" xmlns="http://www.w3.org/2000/svg"
 width="1530pt" height="1000pt" viewBox="0 0 1530 1000"
 preserveAspectRatio="xMidYMid meet">
<metadata>
Created by potrace 1.9, written by Peter Selinger 2001-2010
</metadata>
<g transform="translate(0,1000) scale(0.100000,-0.100000)"
fill="#000000" stroke="none">
<path d="M7015 6094 c-684 -55 -1279 -418 -1631 -994 -199 -327 -298 -686
-298 -1080 0 -204 15 -323 64 -520 184 -731 759 -1306 1490 -1490 197 -49 316
-64 520 -64 557 0 1074 211 1461 595 324 322 531 737 593 1184 38 278 38 313
0 590 -114 830 -724 1511 -1534 1715 -63 15 -161 36 -216 44 -102 16 -357 27
-449 20z m25 -1177 c0 -874 1 -924 18 -956 10 -19 34 -43 53 -53 32 -17 82
-18 951 -18 l918 0 0 -36 c0 -143 -76 -420 -170 -622 -142 -302 -420 -607
-717 -786 -184 -110 -440 -201 -668 -237 -103 -16 -427 -16 -530 0 -228 36
-484 127 -668 237 -240 145 -495 400 -640 641 -111 184 -202 440 -238 668 -7
44 -13 163 -13 265 0 102 6 221 13 265 36 228 127 484 237 668 146 242 399
495 641 641 218 130 561 241 761 245 l52 1 0 -923z m393 912 c215 -32 478
-126 660 -235 297 -179 575 -484 717 -786 96 -205 170 -479 170 -627 l0 -41
-845 0 -845 0 0 850 0 850 36 0 c19 0 68 -5 107 -11z"/>
<path d="M14440 6083 c-39 -25 -138 -142 -203 -239 -250 -378 -318 -830 -191
-1272 51 -178 153 -371 280 -527 l64 -80 -1 -975 -2 -975 36 -37 c65 -67 153
-57 201 23 11 20 44 64 71 98 72 89 168 250 210 350 84 200 118 372 119 596 0
217 -36 400 -116 593 -39 93 -139 260 -212 351 l-56 70 0 966 c0 1064 3 1010
-60 1055 -34 24 -105 26 -140 3z m-50 -1080 l-1 -608 -28 55 c-39 76 -87 213
-108 312 -13 60 -18 127 -17 243 0 177 15 272 63 405 31 83 82 200 87 200 2 0
4 -273 4 -607z m319 -1545 c52 -149 66 -235 65 -413 0 -184 -15 -276 -71 -425
-66 -178 -62 -206 -62 425 0 560 0 569 18 535 10 -19 33 -74 50 -122z"/>
<path d="M12445 4115 c-30 -31 -35 -42 -35 -83 0 -41 6 -54 43 -99 144 -176
180 -225 220 -302 54 -102 100 -230 124 -343 24 -115 24 -370 -1 -488 -44
-211 -175 -473 -291 -580 -55 -50 -85 -106 -85 -154 0 -39 5 -51 35 -81 30
-30 42 -35 81 -35 59 0 85 17 159 100 295 336 428 810 350 1253 -52 290 -173
538 -374 762 -63 70 -88 85 -143 85 -41 0 -52 -5 -83 -35z"/>
<path d="M238 4123 c-46 -29 -53 -56 -51 -182 9 -506 237 -1027 612 -1400 387
-384 904 -595 1461 -595 557 0 1074 211 1461 595 322 320 523 719 594 1179 21
137 25 328 7 362 -40 74 -167 77 -212 5 -7 -12 -18 -90 -26 -178 -15 -182 -18
-201 -50 -329 -41 -166 -119 -358 -201 -493 -145 -241 -400 -496 -640 -641
-184 -110 -440 -201 -668 -237 -103 -16 -427 -16 -530 0 -228 36 -484 127
-668 237 -240 145 -495 400 -640 641 -82 135 -160 327 -201 493 -32 128 -35
147 -50 329 -8 88 -19 166 -26 178 -32 51 -119 69 -172 36z"/>
<path d="M10910 4124 c-194 -35 -394 -125 -531 -240 -290 -242 -446 -650 -384
-1003 49 -279 185 -523 384 -685 145 -119 339 -206 536 -240 114 -20 216 -20
330 0 489 85 833 432 920 925 61 347 -93 758 -373 994 -241 203 -592 302 -882
249z m400 -269 c176 -56 318 -152 431 -291 68 -83 117 -178 155 -299 26 -80
29 -104 29 -225 0 -121 -3 -145 -29 -225 -93 -295 -290 -493 -586 -591 -77
-25 -98 -28 -230 -28 -132 0 -153 3 -230 28 -179 59 -319 154 -431 292 -68 82
-117 177 -155 299 -26 82 -29 103 -28 230 0 126 3 149 28 225 95 288 291 488
567 579 106 35 147 40 274 37 97 -3 137 -9 205 -31z"/>
</g>
</svg>
