<?xml version="1.0" standalone="no"?>
<!DOCTYPE svg PUBLIC "-//W3C//DTD SVG 20010904//EN"
 "http://www.w3.org/TR/2001/REC-SVG-20010904/DTD/svg10.dtd">
<svg version="1.0" xmlns="http://www.w3.org/2000/svg"
 width="452pt" height="1000pt" viewBox="0 0 452 1000"
 preserveAspectRatio="xMidYMid meet">
<metadata>
Created by potrace 1.9, written by Peter Selinger 2001-2010
</metadata>
<g transform="translate(0,1000) scale(0.100000,-0.100000)"
fill="#000000" stroke="none">
<path d="M265 8052 c-99 -35 -118 -168 -32 -222 12 -7 90 -18 178 -26 182 -15
201 -18 329 -50 165 -41 358 -119 493 -200 242 -146 495 -399 641 -641 133
-221 246 -579 246 -777 0 -39 -3 -46 -22 -50 -163 -34 -245 -62 -367 -127
-293 -157 -494 -444 -555 -795 -23 -130 -24 -2155 -1 -2283 49 -279 185 -523
384 -685 145 -119 339 -206 536 -240 364 -64 780 97 1017 394 125 155 201 338
239 569 18 108 19 182 19 1095 0 825 -2 995 -15 1085 -47 325 -181 574 -405
754 -129 103 -332 198 -475 222 -75 13 -75 13 -75 61 0 198 114 556 246 777
146 242 399 495 641 641 135 81 328 159 493 200 128 32 147 35 329 50 88 8
166 19 178 26 72 45 69 172 -5 212 -60 31 -354 5 -582 -52 -526 -133 -990
-478 -1261 -940 l-44 -75 -5 500 c-5 461 -6 502 -23 527 -19 27 -72 58 -102
58 -30 0 -83 -31 -102 -58 -17 -25 -18 -66 -23 -535 l-5 -507 -49 82 c-281
474 -736 815 -1266 948 -194 48 -497 82 -555 62z m2225 -2237 c118 -38 213
-88 294 -154 191 -155 302 -365 326 -618 13 -139 13 -1912 0 -2047 -36 -372
-263 -654 -620 -772 -77 -25 -98 -28 -230 -28 -132 0 -153 3 -230 28 -179 59
-319 154 -431 292 -68 82 -117 177 -155 299 l-29 90 0 1120 0 1120 29 85 c98
290 292 488 567 579 106 35 147 40 274 37 97 -3 136 -9 205 -31z"/>
</g>
</svg>
