<?xml version="1.0" standalone="no"?>
<!DOCTYPE svg PUBLIC "-//W3C//DTD SVG 20010904//EN"
 "http://www.w3.org/TR/2001/REC-SVG-20010904/DTD/svg10.dtd">
<svg version="1.0" xmlns="http://www.w3.org/2000/svg"
 width="795pt" height="1000pt" viewBox="0 0 795 1000"
 preserveAspectRatio="xMidYMid meet">
<metadata>
Created by potrace 1.9, written by Peter Selinger 2001-2010
</metadata>
<g transform="translate(0,1000) scale(0.100000,-0.100000)"
fill="#000000" stroke="none">
<path d="M5095 6075 c-30 -31 -35 -42 -35 -83 0 -41 6 -54 43 -99 144 -176
180 -225 220 -302 54 -102 100 -230 124 -343 24 -115 24 -370 -1 -488 -44
-210 -150 -425 -279 -566 -28 -31 -67 -78 -86 -104 -20 -27 -58 -77 -86 -112
-154 -193 -259 -436 -306 -708 -19 -108 -17 -364 4 -477 42 -227 99 -370 229
-580 l20 -33 -296 0 -296 0 0 928 c0 879 -1 929 -18 961 -19 36 -72 71 -107
71 -35 0 -88 -35 -107 -71 -17 -32 -18 -82 -18 -961 l0 -928 -1065 0 -1065 0
83 83 c167 166 268 367 312 618 61 347 -93 758 -373 994 -189 159 -473 265
-712 265 -234 0 -519 -104 -701 -256 -290 -242 -446 -650 -384 -1003 50 -285
189 -528 395 -694 100 -79 275 -169 395 -202 211 -58 85 -55 2761 -55 2363 0
2461 1 2493 18 19 10 43 34 53 53 17 32 18 84 18 1034 0 950 -1 1002 -18 1034
-19 36 -72 71 -107 71 -35 0 -88 -35 -107 -71 -17 -32 -18 -82 -18 -961 l0
-928 -394 0 -394 0 -50 55 c-131 143 -233 351 -279 567 -24 115 -24 370 1 488
44 210 150 425 279 566 28 31 67 78 86 104 20 27 59 77 86 112 76 96 169 258
214 371 76 196 105 354 105 567 -1 387 -131 723 -393 1015 -63 70 -88 85 -143
85 -41 0 -52 -5 -83 -35z m-3585 -2220 c176 -56 318 -152 431 -291 68 -83 117
-178 155 -299 26 -80 29 -104 29 -225 0 -121 -3 -145 -29 -225 -93 -295 -290
-493 -586 -591 -77 -25 -98 -28 -230 -28 -132 0 -153 3 -230 28 -179 59 -319
154 -431 292 -68 82 -117 177 -155 299 -26 82 -29 103 -28 230 0 126 3 149 28
225 95 288 291 488 567 579 106 35 147 40 274 37 97 -3 137 -9 205 -31z"/>
<path d="M7595 4121 c-26 -12 -208 -188 -531 -512 -535 -538 -529 -530 -504
-613 10 -35 85 -115 503 -535 519 -520 542 -540 613 -527 41 8 90 56 99 96 4
16 2 45 -4 62 -8 23 -151 173 -466 488 l-455 455 459 460 c503 504 493 491
456 568 -32 67 -102 91 -170 58z"/>
</g>
</svg>
