<?xml version="1.0" standalone="no"?>
<!DOCTYPE svg PUBLIC "-//W3C//DTD SVG 20010904//EN"
 "http://www.w3.org/TR/2001/REC-SVG-20010904/DTD/svg10.dtd">
<svg version="1.0" xmlns="http://www.w3.org/2000/svg"
 width="550pt" height="1000pt" viewBox="0 0 550 1000"
 preserveAspectRatio="xMidYMid meet">
<metadata>
Created by potrace 1.9, written by Peter Selinger 2001-2010
</metadata>
<g transform="translate(0,1000) scale(0.100000,-0.100000)"
fill="#000000" stroke="none">
<path d="M251 6082 c-36 -19 -71 -73 -71 -107 1 -60 52 -114 999 -1060 l961
-960 0 -960 c0 -911 1 -962 18 -994 10 -19 34 -43 53 -53 32 -17 84 -18 1034
-18 950 0 1002 1 1034 18 72 38 71 34 71 534 l0 447 38 6 c20 4 78 17 127 31
415 113 712 449 789 890 71 403 -132 857 -482 1082 -119 75 -298 144 -434 167
l-38 6 0 442 c0 409 -1 445 -18 476 -49 91 -172 89 -216 -4 -15 -30 -16 -217
-16 -1939 l0 -1906 -855 0 -855 0 0 1908 c0 1828 -1 1909 -18 1941 -19 36 -72
71 -107 71 -35 0 -88 -35 -107 -71 -17 -32 -18 -79 -18 -874 l0 -840 -882 882
c-497 497 -895 887 -911 893 -39 14 -57 13 -96 -8z m4201 -1248 c177 -56 315
-149 429 -290 66 -80 115 -174 155 -294 25 -77 28 -98 28 -230 0 -132 -3 -153
-28 -230 -98 -295 -295 -493 -584 -584 -46 -14 -87 -26 -93 -26 -5 0 -9 317
-9 840 0 523 4 840 9 840 6 0 47 -12 93 -26z"/>
</g>
</svg>
