<?xml version="1.0" standalone="no"?>
<!DOCTYPE svg PUBLIC "-//W3C//DTD SVG 20010904//EN"
 "http://www.w3.org/TR/2001/REC-SVG-20010904/DTD/svg10.dtd">
<svg version="1.0" xmlns="http://www.w3.org/2000/svg"
 width="746pt" height="1000pt" viewBox="0 0 746 1000"
 preserveAspectRatio="xMidYMid meet">
<metadata>
Created by potrace 1.9, written by Peter Selinger 2001-2010
</metadata>
<g transform="translate(0,1000) scale(0.100000,-0.100000)"
fill="#000000" stroke="none">
<path d="M5055 6094 c-684 -55 -1279 -418 -1631 -994 -199 -327 -298 -686
-298 -1080 0 -204 15 -323 64 -520 204 -811 885 -1420 1715 -1534 277 -38 312
-38 590 0 615 85 1155 440 1481 975 199 326 298 686 298 1079 0 204 -15 323
-64 520 -165 656 -654 1197 -1290 1430 -108 39 -286 84 -416 104 -102 16 -357
27 -449 20z m25 -1016 l0 -763 -540 540 c-450 450 -537 541 -527 554 18 22
183 142 254 185 218 130 561 241 761 245 l52 1 0 -762z m393 751 c302 -45 607
-178 856 -371 34 -27 61 -51 61 -56 0 -4 -238 -246 -530 -537 l-530 -530 0
753 0 752 36 0 c19 0 68 -5 107 -11z m1190 -717 c152 -202 250 -406 312 -652
39 -155 49 -245 49 -440 0 -102 -6 -221 -13 -265 -36 -228 -127 -484 -238
-668 -37 -63 -176 -251 -191 -261 -5 -3 -278 265 -608 595 l-599 599 599 599
c330 330 603 598 608 595 5 -3 41 -49 81 -102z m-2243 -497 l595 -595 -595
-595 c-327 -327 -598 -595 -602 -595 -10 0 -148 184 -191 257 -111 184 -202
440 -238 668 -7 44 -13 163 -13 265 0 102 6 221 13 265 50 316 178 613 373
864 27 34 51 61 56 61 4 0 275 -268 602 -595z m660 -1655 l0 -760 -41 0 c-193
0 -554 115 -772 246 -73 44 -200 136 -240 172 l-28 26 538 538 c296 296 539
538 540 538 2 0 3 -342 3 -760z m1310 -322 c0 -10 -101 -89 -193 -151 -87 -59
-261 -145 -377 -187 -147 -53 -360 -100 -454 -100 l-36 0 0 752 0 753 530
-530 c292 -291 530 -533 530 -537z"/>
<path d="M1110 5104 c-194 -35 -394 -125 -531 -240 -290 -242 -446 -650 -384
-1003 49 -279 185 -523 384 -685 145 -119 339 -206 536 -240 114 -20 216 -20
330 0 489 85 833 432 920 925 61 347 -93 758 -373 994 -241 203 -592 302 -882
249z m400 -269 c176 -56 318 -152 431 -291 68 -83 117 -178 155 -299 26 -80
29 -104 29 -225 0 -121 -3 -145 -29 -225 -93 -295 -290 -493 -586 -591 -77
-25 -98 -28 -230 -28 -132 0 -153 3 -230 28 -179 59 -319 154 -431 292 -68 82
-117 177 -155 299 -26 82 -29 103 -28 230 0 126 3 149 28 225 95 288 291 488
567 579 106 35 147 40 274 37 97 -3 137 -9 205 -31z"/>
<path d="M251 2162 c-36 -19 -71 -72 -71 -107 0 -35 35 -88 71 -107 32 -17 84
-18 1034 -18 950 0 1002 1 1034 18 36 19 71 72 71 107 0 35 -35 88 -71 107
-32 17 -84 18 -1034 18 -950 0 -1002 -1 -1034 -18z"/>
</g>
</svg>
