<?xml version="1.0" standalone="no"?>
<!DOCTYPE svg PUBLIC "-//W3C//DTD SVG 20010904//EN"
 "http://www.w3.org/TR/2001/REC-SVG-20010904/DTD/svg10.dtd">
<svg version="1.0" xmlns="http://www.w3.org/2000/svg"
 width="452pt" height="1000pt" viewBox="0 0 452 1000"
 preserveAspectRatio="xMidYMid meet">
<metadata>
Created by potrace 1.9, written by Peter Selinger 2001-2010
</metadata>
<g transform="translate(0,1000) scale(0.100000,-0.100000)"
fill="#000000" stroke="none">
<path d="M1107 6084 c-487 -92 -826 -436 -912 -925 -62 -352 98 -769 384
-1003 147 -121 340 -206 542 -241 l94 -16 432 -432 433 -432 -449 -450 c-468
-470 -483 -487 -466 -552 16 -67 79 -110 143 -98 32 5 98 68 494 463 l458 457
452 -452 c473 -470 490 -485 555 -468 67 16 110 79 98 143 -5 32 -68 99 -466
497 l-459 460 433 432 432 432 94 16 c430 74 759 353 884 751 56 178 69 338
41 498 -86 494 -432 837 -930 922 -102 17 -187 15 -222 -7 -51 -32 -69 -113
-37 -167 26 -44 49 -53 156 -63 179 -17 357 -89 484 -197 137 -115 222 -243
281 -422 25 -77 28 -98 28 -230 0 -132 -3 -153 -28 -230 -59 -179 -144 -307
-281 -422 -127 -108 -305 -180 -486 -197 -55 -5 -104 -12 -107 -16 -4 -3 -213
-211 -464 -463 l-458 -457 -458 457 c-251 252 -460 460 -464 463 -3 4 -52 11
-107 16 -245 23 -459 137 -612 325 -68 83 -117 178 -155 299 -26 80 -29 104
-29 225 0 121 3 145 29 225 38 121 87 216 155 299 152 188 367 302 610 325 54
5 107 15 119 22 69 43 68 165 -2 209 -30 19 -149 21 -239 4z"/>
</g>
</svg>
