<?xml version="1.0" standalone="no"?>
<!DOCTYPE svg PUBLIC "-//W3C//DTD SVG 20010904//EN"
 "http://www.w3.org/TR/2001/REC-SVG-20010904/DTD/svg10.dtd">
<svg version="1.0" xmlns="http://www.w3.org/2000/svg"
 width="893pt" height="1000pt" viewBox="0 0 893 1000"
 preserveAspectRatio="xMidYMid meet">
<metadata>
Created by potrace 1.9, written by Peter Selinger 2001-2010
</metadata>
<g transform="translate(0,1000) scale(0.100000,-0.100000)"
fill="#000000" stroke="none">
<path d="M4172 8044 c-18 -9 -41 -29 -51 -43 -40 -56 -501 -992 -506 -1028
-11 -74 61 -150 132 -139 68 10 76 22 280 430 l195 391 193 -385 c200 -398
216 -423 282 -436 39 -7 95 18 118 53 41 62 45 53 -233 609 -194 389 -267 525
-287 538 -39 25 -85 29 -123 10z"/>
<path d="M2211 6082 c-19 -10 -43 -34 -53 -53 -17 -32 -18 -82 -18 -961 l0
-928 -928 0 c-879 0 -929 -1 -961 -18 -36 -19 -71 -72 -71 -107 0 -35 35 -88
71 -107 32 -17 82 -18 961 -18 l928 0 0 -928 c0 -879 1 -929 18 -961 10 -19
34 -43 53 -53 32 -17 115 -18 2014 -18 1899 0 1982 1 2014 18 19 10 43 34 53
53 17 32 18 115 18 2014 0 1899 -1 1982 -18 2014 -10 19 -34 43 -53 53 -32 17
-115 18 -2014 18 -1899 0 -1982 -1 -2014 -18z m3849 -2067 l0 -1835 -1835 0
-1835 0 0 855 0 855 762 0 763 0 -387 -387 c-405 -408 -418 -423 -403 -493 8
-39 56 -87 95 -95 16 -4 45 -2 63 4 22 8 186 165 544 523 544 546 538 538 514
611 -8 22 -165 186 -523 544 -445 444 -518 513 -550 518 -64 12 -127 -31 -143
-98 -17 -64 1 -86 403 -489 l387 -388 -763 0 -762 0 0 855 0 855 1835 0 1835
0 0 -1835z"/>
<path d="M7601 5102 c-19 -10 -43 -34 -53 -53 -17 -31 -18 -69 -18 -544 0
-475 1 -513 18 -544 19 -36 72 -71 107 -71 35 0 88 35 107 71 17 31 18 69 18
544 0 475 -1 513 -18 544 -19 36 -72 71 -107 71 -11 0 -36 -8 -54 -18z"/>
<path d="M7575 3643 c-144 -22 -261 -80 -355 -173 -116 -117 -173 -259 -173
-430 0 -168 57 -311 168 -425 118 -120 259 -177 435 -177 176 0 317 57 435
177 111 114 168 257 168 425 0 59 -6 120 -17 160 -55 202 -217 367 -415 422
-68 19 -194 30 -246 21z m220 -277 c71 -32 149 -111 183 -184 22 -48 27 -71
27 -142 0 -106 -29 -175 -105 -250 -75 -76 -144 -105 -250 -105 -106 0 -175
29 -250 105 -76 75 -105 144 -105 250 0 71 5 94 27 142 45 98 146 183 245 208
61 15 167 4 228 -24z"/>
</g>
</svg>
