<?xml version="1.0" standalone="no"?>
<!DOCTYPE svg PUBLIC "-//W3C//DTD SVG 20010904//EN"
 "http://www.w3.org/TR/2001/REC-SVG-20010904/DTD/svg10.dtd">
<svg version="1.0" xmlns="http://www.w3.org/2000/svg"
 width="1432pt" height="1000pt" viewBox="0 0 1432 1000"
 preserveAspectRatio="xMidYMid meet">
<metadata>
Created by potrace 1.9, written by Peter Selinger 2001-2010
</metadata>
<g transform="translate(0,1000) scale(0.100000,-0.100000)"
fill="#000000" stroke="none">
<path d="M3095 6094 c-172 -14 -419 -67 -575 -124 -565 -207 -1023 -665 -1230
-1230 -57 -158 -120 -449 -120 -559 l0 -41 -443 0 c-494 0 -491 1 -529 -71
-23 -42 -23 -66 0 -108 38 -72 35 -71 529 -71 l443 0 0 -36 c0 -59 29 -230 60
-354 184 -730 759 -1306 1490 -1490 197 -49 316 -64 520 -64 204 0 323 15 520
64 656 165 1197 654 1430 1290 56 155 120 448 120 554 l0 36 448 0 c500 0 496
-1 534 71 23 42 23 66 0 108 -38 72 -34 71 -534 71 l-448 0 0 41 c0 110 -63
401 -120 559 -101 276 -275 546 -489 759 -372 369 -872 581 -1407 595 -82 2
-171 2 -199 0z m418 -265 c215 -32 478 -126 660 -235 297 -179 575 -484 717
-786 96 -205 170 -479 170 -627 l0 -41 -1820 0 -1820 0 0 41 c0 148 74 422
170 627 168 359 503 694 862 862 210 98 418 154 648 174 73 6 334 -3 413 -15z
m1547 -1975 c0 -143 -76 -420 -170 -622 -142 -302 -420 -607 -717 -786 -184
-110 -440 -201 -668 -237 -103 -16 -427 -16 -530 0 -228 36 -484 127 -668 237
-297 179 -575 484 -717 786 -94 202 -170 479 -170 622 l0 36 1820 0 1820 0 0
-36z"/>
<path d="M11031 5102 c-64 -34 -71 -62 -71 -283 l0 -196 -59 -6 c-313 -33
-631 -182 -859 -402 -70 -67 -95 -99 -101 -125 -21 -96 61 -174 154 -149 22 6
66 39 118 87 104 99 173 150 267 201 132 71 356 141 450 141 l30 0 0 -678 c0
-637 1 -679 18 -711 10 -19 34 -43 53 -53 32 -17 84 -18 1034 -18 950 0 1002
1 1034 18 67 36 71 57 71 333 l0 246 83 12 c299 45 591 183 798 376 68 63 79
83 79 137 0 41 -5 52 -35 83 -30 30 -42 35 -81 35 -48 0 -104 -30 -154 -85
-39 -42 -148 -120 -230 -163 -130 -69 -355 -142 -440 -142 -20 0 -20 2 -20
628 0 588 -1 629 -18 661 -10 19 -34 43 -53 53 -32 17 -84 18 -1034 18 -950 0
-1002 -1 -1034 -18z m1889 -787 l0 -555 -32 0 c-143 1 -425 111 -583 228 -67
49 -83 66 -93 99 -9 31 -35 63 -105 130 -222 212 -501 347 -814 394 l-83 12 0
124 0 123 855 0 855 0 0 -555z m-1593 39 c168 -35 358 -120 488 -219 91 -69
120 -101 135 -149 29 -90 294 -283 514 -372 106 -43 285 -90 384 -99 l72 -8 0
-173 0 -174 -855 0 -855 0 0 605 c0 602 0 605 20 605 12 0 55 -7 97 -16z"/>
<path d="M7111 4122 c-36 -19 -71 -72 -71 -107 0 -35 35 -88 71 -107 31 -17
67 -18 471 -18 l438 0 0 -855 0 -855 -438 0 c-404 0 -440 -1 -471 -18 -36 -19
-71 -72 -71 -107 0 -35 35 -88 71 -107 32 -17 84 -18 1034 -18 950 0 1002 1
1034 18 36 19 71 72 71 107 0 35 -35 88 -71 107 -31 17 -67 18 -471 18 l-438
0 0 855 0 855 438 0 c404 0 440 1 471 18 36 19 71 72 71 107 0 35 -35 88 -71
107 -32 17 -84 18 -1034 18 -950 0 -1002 -1 -1034 -18z"/>
</g>
</svg>
