<?xml version="1.0" standalone="no"?>
<!DOCTYPE svg PUBLIC "-//W3C//DTD SVG 20010904//EN"
 "http://www.w3.org/TR/2001/REC-SVG-20010904/DTD/svg10.dtd">
<svg version="1.0" xmlns="http://www.w3.org/2000/svg"
 width="942pt" height="1000pt" viewBox="0 0 942 1000"
 preserveAspectRatio="xMidYMid meet">
<metadata>
Created by potrace 1.9, written by Peter Selinger 2001-2010
</metadata>
<g transform="translate(0,1000) scale(0.100000,-0.100000)"
fill="#000000" stroke="none">
<path d="M6131 6082 c-71 -38 -71 -35 -71 -524 l0 -438 -438 0 c-404 0 -440
-1 -471 -18 -36 -19 -71 -72 -71 -107 0 -35 35 -88 71 -107 31 -16 64 -18 379
-18 l345 0 -387 -387 c-402 -404 -420 -426 -403 -490 16 -67 79 -110 143 -98
32 5 92 61 435 403 l397 397 0 -768 0 -767 -438 0 c-489 0 -486 0 -524 -71
-23 -42 -23 -66 0 -108 38 -71 35 -71 524 -71 l438 0 0 -438 c0 -404 1 -440
18 -471 19 -36 72 -71 107 -71 35 0 88 35 107 71 17 31 18 67 18 471 l0 438
855 0 855 0 0 -438 c0 -489 0 -486 71 -524 42 -23 66 -23 108 0 71 38 71 35
71 524 l0 438 438 0 c489 0 486 0 524 71 23 42 23 66 0 108 -38 71 -35 71
-524 71 l-438 0 0 762 0 763 388 -387 c403 -402 425 -420 489 -403 67 16 110
79 98 143 -5 32 -61 92 -403 435 l-397 397 350 0 c320 0 353 2 384 18 36 19
71 72 71 107 0 35 -35 88 -71 107 -31 17 -67 18 -471 18 l-438 0 0 438 c0 404
-1 440 -18 471 -19 36 -72 71 -107 71 -35 0 -88 -35 -107 -71 -16 -31 -18 -64
-18 -384 l0 -350 -397 397 c-314 312 -405 397 -430 403 -73 15 -86 4 -495
-403 l-388 -387 0 345 c0 315 -2 348 -18 379 -19 36 -72 71 -107 71 -11 0 -36
-8 -54 -18z m1369 -627 l335 -335 -675 0 -675 0 335 335 c184 184 337 335 340
335 3 0 156 -151 340 -335z m520 -1440 l0 -855 -855 0 -855 0 0 855 0 855 855
0 855 0 0 -855z"/>
<path d="M238 4123 c-46 -29 -53 -56 -51 -182 9 -506 237 -1027 612 -1400 387
-384 904 -595 1461 -595 557 0 1074 211 1461 595 322 320 523 719 594 1179 21
137 25 328 7 362 -40 74 -167 77 -212 5 -7 -12 -18 -90 -26 -178 -15 -182 -18
-201 -50 -329 -41 -166 -119 -358 -201 -493 -145 -241 -400 -496 -640 -641
-184 -110 -440 -201 -668 -237 -103 -16 -427 -16 -530 0 -228 36 -484 127
-668 237 -240 145 -495 400 -640 641 -82 135 -160 327 -201 493 -32 128 -35
147 -50 329 -8 88 -19 166 -26 178 -32 51 -119 69 -172 36z"/>
</g>
</svg>
