<?xml version="1.0" standalone="no"?>
<!DOCTYPE svg PUBLIC "-//W3C//DTD SVG 20010904//EN"
 "http://www.w3.org/TR/2001/REC-SVG-20010904/DTD/svg10.dtd">
<svg version="1.0" xmlns="http://www.w3.org/2000/svg"
 width="1628pt" height="1000pt" viewBox="0 0 1628 1000"
 preserveAspectRatio="xMidYMid meet">
<metadata>
Created by potrace 1.9, written by Peter Selinger 2001-2010
</metadata>
<g transform="translate(0,1000) scale(0.100000,-0.100000)"
fill="#000000" stroke="none">
<path d="M1231 6082 c-19 -10 -43 -34 -53 -53 -17 -32 -18 -113 -18 -1941 l0
-1908 -438 0 c-404 0 -440 -1 -471 -18 -36 -19 -71 -72 -71 -107 0 -35 35 -88
71 -107 32 -17 84 -18 1034 -18 950 0 1002 1 1034 18 36 19 71 72 71 107 0 35
-35 88 -71 107 -31 17 -67 18 -471 18 l-438 0 0 1908 c0 1828 -1 1909 -18
1941 -19 36 -72 71 -107 71 -11 0 -36 -8 -54 -18z"/>
<path d="M6131 6083 c-19 -9 -46 -36 -60 -59 -14 -23 -453 -897 -976 -1943
l-950 -1901 -460 0 c-427 0 -463 -1 -494 -18 -36 -19 -71 -72 -71 -107 0 -35
35 -88 71 -107 32 -17 84 -18 1034 -18 950 0 1002 1 1034 18 36 19 71 72 71
107 0 35 -35 88 -71 107 -31 17 -65 18 -431 18 -219 0 -398 2 -398 5 0 3 394
794 876 1757 l877 1753 877 -1755 878 -1755 -407 -5 c-370 -5 -408 -7 -433
-23 -28 -19 -58 -73 -58 -104 0 -33 36 -86 71 -105 32 -17 84 -18 1034 -18
950 0 1002 1 1034 18 36 19 71 72 71 107 0 35 -35 88 -71 107 -31 17 -67 18
-496 18 l-463 0 -969 1938 c-743 1487 -976 1943 -996 1956 -39 26 -85 29 -124
9z"/>
<path d="M12012 6084 c-18 -9 -41 -29 -51 -43 -41 -58 -1971 -3933 -1976
-3968 -8 -49 19 -100 66 -125 32 -17 84 -18 1034 -18 950 0 1002 1 1034 18 36
19 71 72 71 107 0 35 -35 88 -71 107 -32 17 -81 18 -921 18 -489 0 -888 2
-888 5 0 3 394 794 876 1757 l876 1753 929 -1857 c791 -1581 933 -1859 961
-1880 l33 -23 995 -3 c547 -1 1009 0 1027 3 42 8 91 57 99 100 8 46 -21 102
-66 127 -33 17 -81 18 -987 18 l-953 0 -969 1938 c-743 1487 -976 1943 -996
1956 -39 25 -85 29 -123 10z"/>
<path d="M13971 3632 c-36 -19 -71 -73 -71 -107 1 -57 49 -111 531 -591 522
-520 527 -524 602 -509 25 6 137 112 545 518 358 358 515 522 523 544 6 18 8
47 4 63 -8 39 -56 87 -95 95 -70 15 -82 6 -558 -469 l-452 -451 -453 452
c-248 249 -465 457 -480 463 -39 14 -57 13 -96 -8z"/>
</g>
</svg>
