<?xml version="1.0" standalone="no"?>
<!DOCTYPE svg PUBLIC "-//W3C//DTD SVG 20010904//EN"
 "http://www.w3.org/TR/2001/REC-SVG-20010904/DTD/svg10.dtd">
<svg version="1.0" xmlns="http://www.w3.org/2000/svg"
 width="1628pt" height="1000pt" viewBox="0 0 1628 1000"
 preserveAspectRatio="xMidYMid meet">
<metadata>
Created by potrace 1.9, written by Peter Selinger 2001-2010
</metadata>
<g transform="translate(0,1000) scale(0.100000,-0.100000)"
fill="#000000" stroke="none">
<path d="M251 6082 c-19 -10 -43 -34 -53 -53 -17 -32 -18 -84 -18 -1034 0
-950 1 -1002 18 -1034 38 -71 40 -71 484 -71 l398 0 -445 -890 c-246 -492
-447 -906 -450 -927 -16 -104 101 -175 190 -117 20 13 134 232 467 898 l440
881 438 -874 c321 -643 445 -881 466 -898 63 -50 148 -33 186 37 17 33 18 111
18 2015 0 1899 -1 1982 -18 2014 -19 36 -72 71 -107 71 -35 0 -88 -35 -107
-71 -17 -32 -18 -82 -18 -961 l0 -928 -855 0 -855 0 0 928 c0 879 -1 929 -18
961 -19 36 -72 71 -107 71 -11 0 -36 -8 -54 -18z m1888 -2844 l0 -653 -324
645 c-178 355 -324 648 -324 653 -1 4 145 7 324 7 l325 0 -1 -652z"/>
<path d="M9065 6081 c-27 -13 -340 -320 -1000 -980 l-960 -961 -1940 0 c-1860
0 -1942 -1 -1974 -18 -36 -19 -71 -72 -71 -107 0 -35 35 -88 71 -107 31 -17
65 -18 431 -18 l398 0 -445 -890 c-246 -492 -447 -906 -450 -927 -16 -104 101
-175 190 -117 20 13 134 232 467 898 l440 881 439 -877 c478 -955 459 -923
544 -923 22 0 53 9 68 19 23 15 124 209 469 900 l440 881 438 -874 c321 -643
445 -881 466 -898 78 -62 184 -20 201 81 4 27 -61 164 -446 934 -248 496 -451
904 -451 907 0 3 177 5 394 5 250 0 405 4 423 10 16 6 439 422 970 953 l943
942 452 -451 c473 -471 490 -486 555 -469 67 16 110 79 98 143 -5 32 -74 104
-513 546 -290 290 -521 514 -539 522 -42 18 -60 17 -108 -5z m-3471 -2963
c-212 -425 -388 -775 -390 -777 -3 -3 -774 1534 -774 1544 0 3 349 5 775 5
l775 0 -386 -772z"/>
<path d="M11031 6082 c-47 -25 -74 -76 -66 -125 3 -21 431 -889 990 -2006 839
-1679 989 -1972 1017 -1993 l33 -23 999 -3 c958 -2 1004 -1 1122 18 162 26
286 67 409 135 308 170 493 448 556 833 18 108 18 123 4 221 -77 533 -420 896
-930 985 -360 63 -765 -91 -1009 -383 -152 -182 -256 -467 -256 -701 0 -291
155 -637 367 -819 l48 -40 -597 -1 -598 0 -969 1938 c-743 1487 -976 1943
-996 1956 -41 27 -85 30 -124 8z m4199 -2227 c292 -93 496 -299 584 -586 14
-47 26 -90 26 -97 0 -9 -194 -12 -840 -12 -727 0 -840 2 -840 14 0 8 12 52 26
98 89 281 290 486 565 577 106 35 147 40 274 37 97 -3 137 -9 205 -31z m610
-952 c0 -4 -12 -45 -26 -92 -87 -287 -289 -490 -584 -587 -77 -25 -98 -28
-230 -28 -132 0 -153 3 -230 28 -295 97 -497 300 -584 587 -14 47 -26 88 -26
92 0 4 378 7 840 7 462 0 840 -3 840 -7z"/>
</g>
</svg>
