<?xml version="1.0" standalone="no"?>
<!DOCTYPE svg PUBLIC "-//W3C//DTD SVG 20010904//EN"
 "http://www.w3.org/TR/2001/REC-SVG-20010904/DTD/svg10.dtd">
<svg version="1.0" xmlns="http://www.w3.org/2000/svg"
 width="452pt" height="1000pt" viewBox="0 0 452 1000"
 preserveAspectRatio="xMidYMid meet">
<metadata>
Created by potrace 1.9, written by Peter Selinger 2001-2010
</metadata>
<g transform="translate(0,1000) scale(0.100000,-0.100000)"
fill="#000000" stroke="none">
<path d="M1160 4624 c-14 -2 -59 -9 -100 -15 -220 -31 -402 -100 -597 -225
-150 -97 -271 -203 -305 -268 -23 -45 -20 -106 6 -135 14 -16 16 -116 16 -982
0 -915 1 -966 18 -998 10 -19 34 -43 53 -53 32 -17 115 -18 2014 -18 1899 0
1982 1 2014 18 19 10 43 34 53 53 17 32 18 84 18 1032 0 1107 4 1040 -65 1093
-62 47 -146 24 -225 -61 -106 -114 -365 -245 -575 -291 -98 -21 -377 -24 -475
-5 -104 20 -218 59 -325 111 -111 54 -265 161 -265 185 0 66 -131 195 -323
319 -189 121 -341 180 -572 222 -80 15 -318 27 -365 18z m365 -269 c203 -42
376 -125 545 -261 55 -44 67 -60 78 -99 14 -53 63 -104 187 -194 383 -279 834
-365 1295 -246 138 35 279 99 438 197 l32 20 0 -796 0 -796 -1835 0 -1835 0 0
933 0 933 63 50 c190 152 395 242 623 273 96 14 313 6 409 -14z"/>
</g>
</svg>
