<?xml version="1.0" standalone="no"?>
<!DOCTYPE svg PUBLIC "-//W3C//DTD SVG 20010904//EN"
 "http://www.w3.org/TR/2001/REC-SVG-20010904/DTD/svg10.dtd">
<svg version="1.0" xmlns="http://www.w3.org/2000/svg"
 width="746pt" height="1000pt" viewBox="0 0 746 1000"
 preserveAspectRatio="xMidYMid meet">
<metadata>
Created by potrace 1.9, written by Peter Selinger 2001-2010
</metadata>
<g transform="translate(0,1000) scale(0.100000,-0.100000)"
fill="#000000" stroke="none">
<path d="M1110 6084 c-194 -35 -394 -125 -531 -240 -202 -168 -335 -405 -383
-680 -23 -130 -24 -2155 -1 -2283 49 -279 185 -523 384 -685 145 -119 339
-206 536 -240 364 -64 780 97 1017 394 125 155 201 338 239 569 18 108 19 182
19 1095 0 825 -2 995 -15 1085 -57 391 -247 683 -560 856 -221 122 -481 170
-705 129z m400 -269 c176 -56 318 -152 431 -291 68 -83 117 -178 155 -299 26
-80 29 -104 29 -225 0 -121 -3 -145 -29 -225 -93 -295 -290 -493 -586 -591
-77 -25 -98 -28 -230 -28 -132 0 -153 3 -230 28 -179 59 -319 154 -431 292
-68 82 -117 177 -155 299 -26 82 -29 103 -28 230 0 126 3 149 28 225 95 288
291 488 567 579 106 35 147 40 274 37 97 -3 137 -9 205 -31z m620 -2805 c-34
-384 -257 -666 -620 -786 -77 -25 -98 -28 -230 -28 -132 0 -153 3 -230 28
-293 97 -488 291 -586 586 l-28 85 -3 705 -3 705 39 -46 c177 -205 525 -359
811 -359 289 0 639 156 814 363 l41 49 3 -593 c2 -352 -1 -641 -8 -709z"/>
<path d="M4171 5102 c-64 -34 -71 -62 -71 -283 l0 -196 -59 -6 c-313 -33 -631
-182 -859 -402 -70 -67 -95 -99 -101 -125 -21 -96 61 -174 154 -149 22 6 66
39 118 87 104 99 173 150 267 201 132 71 356 141 450 141 l30 0 0 -678 c0
-637 1 -679 18 -711 10 -19 34 -43 53 -53 32 -17 84 -18 1034 -18 950 0 1002
1 1034 18 67 36 71 57 71 333 l0 246 83 12 c299 45 591 183 798 376 68 63 79
83 79 137 0 41 -5 52 -35 83 -30 30 -42 35 -81 35 -48 0 -104 -30 -154 -85
-39 -42 -148 -120 -230 -163 -130 -69 -355 -142 -440 -142 -20 0 -20 2 -20
628 0 588 -1 629 -18 661 -10 19 -34 43 -53 53 -32 17 -84 18 -1034 18 -950 0
-1002 -1 -1034 -18z m1889 -787 l0 -555 -32 0 c-143 1 -425 111 -583 228 -67
49 -83 66 -93 99 -9 31 -35 63 -105 130 -222 212 -501 347 -814 394 l-83 12 0
124 0 123 855 0 855 0 0 -555z m-1593 39 c168 -35 358 -120 488 -219 91 -69
120 -101 135 -149 29 -90 294 -283 514 -372 106 -43 285 -90 384 -99 l72 -8 0
-173 0 -174 -855 0 -855 0 0 605 c0 602 0 605 20 605 12 0 55 -7 97 -16z"/>
</g>
</svg>
