<?xml version="1.0" standalone="no"?>
<!DOCTYPE svg PUBLIC "-//W3C//DTD SVG 20010904//EN"
 "http://www.w3.org/TR/2001/REC-SVG-20010904/DTD/svg10.dtd">
<svg version="1.0" xmlns="http://www.w3.org/2000/svg"
 width="942pt" height="1000pt" viewBox="0 0 942 1000"
 preserveAspectRatio="xMidYMid meet">
<metadata>
Created by potrace 1.9, written by Peter Selinger 2001-2010
</metadata>
<g transform="translate(0,1000) scale(0.100000,-0.100000)"
fill="#000000" stroke="none">
<path d="M251 5102 c-35 -19 -71 -72 -71 -105 0 -55 41 -103 413 -474 l382
-383 -345 0 c-386 0 -395 -1 -432 -71 -23 -42 -23 -66 0 -108 38 -71 40 -71
484 -71 l398 0 -445 -890 c-246 -492 -447 -906 -450 -927 -16 -104 101 -175
190 -117 20 13 134 232 467 898 l440 881 439 -877 c478 -955 459 -923 544
-923 22 0 53 9 68 19 23 15 124 209 469 900 l440 881 438 -874 c321 -643 445
-881 466 -898 78 -62 184 -20 201 81 4 27 -61 164 -446 934 -248 496 -451 904
-451 907 0 3 179 5 398 5 444 0 446 0 484 71 23 42 23 66 0 108 -39 72 -31 71
-562 71 l-475 0 -480 480 c-333 333 -490 483 -513 491 -17 6 -46 8 -62 4 -39
-8 -87 -56 -95 -95 -15 -70 -2 -85 403 -492 l387 -388 -310 0 -310 0 -480 480
c-333 333 -490 483 -513 491 -17 6 -46 8 -62 4 -39 -8 -87 -56 -95 -95 -15
-70 -2 -85 403 -492 l387 -388 -310 0 -310 0 -475 476 c-269 269 -489 482
-507 490 -43 18 -61 18 -102 -4z m2403 -1984 c-212 -425 -388 -775 -390 -777
-3 -3 -774 1534 -774 1544 0 3 349 5 775 5 l775 0 -386 -772z"/>
<path d="M5151 4122 c-47 -25 -74 -76 -66 -125 3 -21 224 -474 500 -1027 538
-1076 515 -1035 600 -1035 22 0 53 9 68 19 23 15 124 209 469 900 l440 881
439 -877 c478 -955 459 -923 544 -923 22 0 53 9 68 20 23 14 136 232 533 1027
277 555 504 1018 504 1031 0 37 -34 89 -71 109 -32 17 -115 18 -2014 18 -1899
0 -1982 -1 -2014 -18z m1423 -1004 c-212 -425 -388 -775 -390 -777 -3 -3 -774
1534 -774 1544 0 3 349 5 775 5 l775 0 -386 -772z m1960 0 c-212 -425 -388
-775 -390 -777 -3 -3 -774 1534 -774 1544 0 3 349 5 775 5 l775 0 -386 -772z"/>
</g>
</svg>
