<?xml version="1.0" standalone="no"?>
<!DOCTYPE svg PUBLIC "-//W3C//DTD SVG 20010904//EN"
 "http://www.w3.org/TR/2001/REC-SVG-20010904/DTD/svg10.dtd">
<svg version="1.0" xmlns="http://www.w3.org/2000/svg"
 width="942pt" height="1000pt" viewBox="0 0 942 1000"
 preserveAspectRatio="xMidYMid meet">
<metadata>
Created by potrace 1.9, written by Peter Selinger 2001-2010
</metadata>
<g transform="translate(0,1000) scale(0.100000,-0.100000)"
fill="#000000" stroke="none">
<path d="M3180 6083 c-14 -9 -30 -24 -37 -33 -21 -27 -26 -102 -13 -195 40
-286 183 -551 389 -719 140 -115 345 -208 520 -237 l69 -12 7 -51 c14 -96 66
-251 122 -356 105 -199 260 -350 466 -454 229 -115 365 -136 891 -136 l386 0
-445 -890 c-246 -492 -447 -906 -450 -927 -16 -104 101 -175 190 -117 20 13
134 232 467 898 l440 881 439 -877 c478 -955 459 -923 544 -923 22 0 53 9 68
19 23 15 124 209 469 900 l440 881 438 -874 c321 -643 445 -881 466 -898 78
-62 184 -20 201 81 4 27 -61 164 -446 934 -248 496 -451 904 -451 907 0 3 179
5 398 5 366 0 400 1 431 18 36 19 71 72 71 107 0 35 -35 88 -71 107 -32 17
-114 18 -1974 18 -1243 0 -1979 4 -2048 10 -374 36 -664 269 -771 621 -33 107
-33 117 2 124 167 35 249 65 374 134 289 160 481 440 543 792 45 256 -9 309
-270 263 -197 -34 -391 -121 -536 -240 -195 -159 -326 -391 -384 -676 -7 -35
-21 -35 -127 -2 -173 54 -316 151 -429 290 -103 126 -171 299 -188 476 -5 53
-15 105 -22 116 -31 50 -121 68 -169 35z m1876 -260 c-3 -10 -15 -49 -27 -88
-83 -271 -296 -481 -578 -569 -46 -15 -85 -25 -87 -23 -2 2 8 41 22 88 87 283
289 487 574 580 102 34 103 34 96 12z m2498 -2705 c-212 -425 -388 -775 -390
-777 -3 -3 -774 1534 -774 1544 0 3 349 5 775 5 l775 0 -386 -772z"/>
<path d="M1110 5104 c-194 -35 -394 -125 -531 -240 -290 -242 -446 -650 -384
-1003 49 -279 185 -523 384 -685 145 -119 339 -206 536 -240 114 -20 216 -20
330 0 489 85 833 432 920 925 61 347 -93 758 -373 994 -241 203 -592 302 -882
249z m400 -269 c176 -56 318 -152 431 -291 68 -83 117 -178 155 -299 26 -80
29 -104 29 -225 0 -121 -3 -145 -29 -225 -93 -295 -290 -493 -586 -591 -77
-25 -98 -28 -230 -28 -132 0 -153 3 -230 28 -179 59 -319 154 -431 292 -68 82
-117 177 -155 299 -26 82 -29 103 -28 230 0 126 3 149 28 225 95 288 291 488
567 579 106 35 147 40 274 37 97 -3 137 -9 205 -31z"/>
<path d="M251 2162 c-36 -19 -71 -72 -71 -107 0 -35 35 -88 71 -107 32 -17 84
-18 1034 -18 950 0 1002 1 1034 18 36 19 71 72 71 107 0 35 -35 88 -71 107
-32 17 -84 18 -1034 18 -950 0 -1002 -1 -1034 -18z"/>
</g>
</svg>
