<?xml version="1.0" standalone="no"?>
<!DOCTYPE svg PUBLIC "-//W3C//DTD SVG 20010904//EN"
 "http://www.w3.org/TR/2001/REC-SVG-20010904/DTD/svg10.dtd">
<svg version="1.0" xmlns="http://www.w3.org/2000/svg"
 width="1334pt" height="1000pt" viewBox="0 0 1334 1000"
 preserveAspectRatio="xMidYMid meet">
<metadata>
Created by potrace 1.9, written by Peter Selinger 2001-2010
</metadata>
<g transform="translate(0,1000) scale(0.100000,-0.100000)"
fill="#000000" stroke="none">
<path d="M251 4122 c-36 -19 -71 -73 -71 -107 0 -11 9 -38 19 -60 27 -57 1962
-1988 2013 -2010 33 -13 260 -15 2013 -15 1671 0 1981 2 2008 14 19 8 446 429
1029 1012 1091 1093 1031 1027 993 1107 -29 61 -88 87 -152 67 -31 -10 -211
-185 -929 -902 -702 -701 -893 -887 -897 -872 -3 11 -9 39 -12 64 -11 77 -63
271 -95 360 -184 503 -569 925 -1055 1156 -280 133 -574 198 -895 198 -204 0
-323 -15 -520 -64 -657 -165 -1197 -653 -1430 -1290 -32 -89 -84 -283 -95
-360 -3 -25 -9 -53 -12 -64 -4 -15 -194 170 -897 872 -502 502 -903 896 -919
902 -39 14 -57 13 -96 -8z m4242 -253 c215 -32 478 -126 660 -235 242 -146
495 -399 641 -641 131 -219 246 -579 246 -772 l0 -41 -1820 0 -1820 0 0 41 c0
148 74 422 170 627 168 359 503 694 862 862 210 98 418 154 648 174 73 6 334
-3 413 -15z"/>
<path d="M10935 4134 c-680 -53 -1280 -418 -1631 -994 -143 -235 -234 -491
-279 -780 -21 -137 -25 -328 -7 -362 40 -74 167 -77 212 -5 7 12 18 90 26 178
15 182 18 201 50 329 82 329 238 604 484 850 246 246 521 402 850 484 128 32
147 35 329 50 88 8 166 19 178 26 70 44 69 166 -1 210 -22 14 -124 20 -211 14z"/>
<path d="M12895 4134 c-680 -53 -1280 -418 -1631 -994 -143 -235 -234 -491
-279 -780 -21 -137 -25 -328 -7 -362 40 -74 167 -77 212 -5 7 12 18 90 26 178
15 182 18 201 50 329 82 329 238 604 484 850 246 246 521 402 850 484 128 32
147 35 329 50 88 8 166 19 178 26 70 44 69 166 -1 210 -22 14 -124 20 -211 14z"/>
</g>
</svg>
