<?xml version="1.0" standalone="no"?>
<!DOCTYPE svg PUBLIC "-//W3C//DTD SVG 20010904//EN"
 "http://www.w3.org/TR/2001/REC-SVG-20010904/DTD/svg10.dtd">
<svg version="1.0" xmlns="http://www.w3.org/2000/svg"
 width="648pt" height="1000pt" viewBox="0 0 648 1000"
 preserveAspectRatio="xMidYMid meet">
<metadata>
Created by potrace 1.9, written by Peter Selinger 2001-2010
</metadata>
<g transform="translate(0,1000) scale(0.100000,-0.100000)"
fill="#000000" stroke="none">
<path d="M1107 6084 c-483 -88 -826 -436 -912 -925 -62 -352 98 -769 384
-1003 138 -113 340 -206 514 -236 l67 -12 0 -937 c0 -888 1 -938 18 -970 10
-19 34 -43 53 -53 32 -17 115 -18 2014 -18 1899 0 1982 1 2014 18 19 10 43 34
53 53 17 32 18 82 18 971 l0 937 38 6 c20 4 78 17 127 31 415 113 712 449 789
890 70 401 -133 858 -479 1079 -177 113 -454 197 -600 182 -61 -6 -86 -20
-109 -58 -15 -25 -16 -191 -16 -1943 l0 -1916 -1835 0 -1835 0 0 1908 c0 1828
-1 1909 -18 1941 -38 70 -116 85 -285 55z m53 -1084 c0 -727 -2 -840 -14 -840
-33 0 -186 54 -257 91 -144 75 -291 222 -362 364 -19 39 -48 111 -63 160 -26
80 -29 104 -29 225 0 121 3 145 29 225 92 292 289 493 576 586 47 16 93 28
103 29 16 0 17 -47 17 -840z m4272 814 c177 -56 315 -149 429 -290 66 -80 115
-174 155 -294 25 -77 28 -98 28 -230 0 -132 -3 -153 -28 -230 -98 -295 -295
-493 -584 -584 -46 -14 -87 -26 -93 -26 -5 0 -9 317 -9 840 0 523 4 840 9 840
6 0 47 -12 93 -26z"/>
</g>
</svg>
