<?xml version="1.0" standalone="no"?>
<!DOCTYPE svg PUBLIC "-//W3C//DTD SVG 20010904//EN"
 "http://www.w3.org/TR/2001/REC-SVG-20010904/DTD/svg10.dtd">
<svg version="1.0" xmlns="http://www.w3.org/2000/svg"
 width="648pt" height="1000pt" viewBox="0 0 648 1000"
 preserveAspectRatio="xMidYMid meet">
<metadata>
Created by potrace 1.9, written by Peter Selinger 2001-2010
</metadata>
<g transform="translate(0,1000) scale(0.100000,-0.100000)"
fill="#000000" stroke="none">
<path d="M6125 6081 c-57 -27 -1989 -1962 -2010 -2013 -13 -33 -15 -154 -15
-963 l0 -925 -1835 0 -1835 0 0 928 c0 879 -1 929 -18 961 -19 36 -72 71 -107
71 -35 0 -88 -35 -107 -71 -17 -32 -18 -84 -18 -1034 0 -950 1 -1002 18 -1034
10 -19 34 -43 53 -53 32 -17 115 -18 2014 -18 1899 0 1982 1 2014 18 19 10 43
34 53 53 17 32 18 83 18 999 l0 965 974 975 c1067 1067 1009 1003 971 1083
-32 67 -102 91 -170 58z"/>
</g>
</svg>
