<?xml version="1.0" standalone="no"?>
<!DOCTYPE svg PUBLIC "-//W3C//DTD SVG 20010904//EN"
 "http://www.w3.org/TR/2001/REC-SVG-20010904/DTD/svg10.dtd">
<svg version="1.0" xmlns="http://www.w3.org/2000/svg"
 width="501pt" height="1000pt" viewBox="0 0 501 1000"
 preserveAspectRatio="xMidYMid meet">
<metadata>
Created by potrace 1.9, written by Peter Selinger 2001-2010
</metadata>
<g transform="translate(0,1000) scale(0.100000,-0.100000)"
fill="#000000" stroke="none">
<path d="M238 4123 c-46 -29 -53 -56 -51 -182 9 -506 237 -1027 612 -1400 387
-384 904 -595 1461 -595 204 0 323 15 520 64 528 133 988 477 1266 948 47 80
49 81 56 54 18 -67 84 -99 176 -87 157 22 273 77 372 175 116 117 173 259 173
430 0 331 -229 574 -570 606 -76 7 -116 -6 -143 -49 -7 -12 -18 -90 -26 -178
-15 -182 -18 -201 -50 -329 -41 -166 -119 -358 -201 -493 -145 -241 -400 -496
-640 -641 -184 -110 -440 -201 -668 -237 -103 -16 -427 -16 -530 0 -228 36
-484 127 -668 237 -240 145 -495 400 -640 641 -82 135 -160 327 -201 493 -32
128 -35 147 -50 329 -8 88 -19 166 -26 178 -32 51 -119 69 -172 36z m4144
-274 c60 -30 135 -111 166 -177 22 -48 27 -71 27 -142 0 -106 -29 -175 -105
-250 -61 -62 -130 -95 -229 -110 -41 -6 -78 -13 -83 -16 -5 -3 -2 11 7 33 72
168 126 365 152 557 10 69 19 126 21 126 1 0 21 -9 44 -21z"/>
</g>
</svg>
