<?xml version="1.0" standalone="no"?>
<!DOCTYPE svg PUBLIC "-//W3C//DTD SVG 20010904//EN"
 "http://www.w3.org/TR/2001/REC-SVG-20010904/DTD/svg10.dtd">
<svg version="1.0" xmlns="http://www.w3.org/2000/svg"
 width="305pt" height="1000pt" viewBox="0 0 305 1000"
 preserveAspectRatio="xMidYMid meet">
<metadata>
Created by potrace 1.9, written by Peter Selinger 2001-2010
</metadata>
<g transform="translate(0,1000) scale(0.100000,-0.100000)"
fill="#000000" stroke="none">
<path d="M1162 5319 c-133 -17 -301 -90 -404 -176 -97 -81 -90 -33 -88 -548
l1 -455 -193 0 c-218 0 -246 -7 -280 -71 -23 -42 -23 -66 0 -108 34 -64 62
-71 279 -71 l193 0 0 -928 c0 -879 1 -929 18 -961 10 -19 34 -43 53 -53 32
-17 72 -18 799 -15 860 3 841 2 998 78 148 72 263 214 308 379 23 86 23 234 0
320 -56 207 -221 372 -426 425 -81 21 -188 24 -222 7 -56 -30 -76 -113 -42
-170 23 -40 43 -49 140 -66 99 -17 152 -43 216 -107 74 -74 103 -144 103 -249
0 -71 -5 -94 -27 -142 -31 -67 -106 -147 -168 -178 -90 -46 -151 -49 -847 -50
l-653 0 0 855 0 855 193 0 c217 0 245 7 279 71 23 42 23 66 0 108 -34 64 -62
71 -279 71 l-193 0 0 403 0 404 23 20 c28 26 105 64 177 89 39 13 84 18 155
18 150 0 240 -36 389 -152 45 -36 63 -44 99 -44 50 -1 91 22 113 63 33 65 11
122 -74 192 -128 105 -278 169 -432 187 -95 11 -118 11 -208 -1z"/>
</g>
</svg>
