<?xml version="1.0" standalone="no"?>
<!DOCTYPE svg PUBLIC "-//W3C//DTD SVG 20010904//EN"
 "http://www.w3.org/TR/2001/REC-SVG-20010904/DTD/svg10.dtd">
<svg version="1.0" xmlns="http://www.w3.org/2000/svg"
 width="1726pt" height="1000pt" viewBox="0 0 1726 1000"
 preserveAspectRatio="xMidYMid meet">
<metadata>
Created by potrace 1.9, written by Peter Selinger 2001-2010
</metadata>
<g transform="translate(0,1000) scale(0.100000,-0.100000)"
fill="#000000" stroke="none">
<path d="M1231 6082 c-47 -25 -74 -76 -66 -125 3 -21 431 -889 990 -2006 1072
-2145 1002 -2016 1090 -2016 22 0 53 9 68 19 23 16 232 426 1024 2010 855
1710 994 1995 990 2022 -17 101 -123 143 -201 81 -22 -18 -261 -488 -956
-1878 l-928 -1854 -930 1861 c-713 1426 -937 1865 -957 1878 -41 27 -85 30
-124 8z"/>
<path d="M7995 6094 c-684 -55 -1279 -418 -1631 -994 -143 -235 -234 -491
-279 -780 -21 -137 -25 -328 -7 -362 40 -74 167 -77 212 -5 7 12 18 90 26 178
15 182 18 201 50 329 82 329 238 604 484 850 246 246 519 401 850 485 155 39
245 49 440 49 195 0 285 -10 440 -49 331 -84 604 -239 850 -485 246 -246 402
-521 484 -850 32 -128 35 -147 50 -329 8 -94 19 -166 27 -179 8 -13 32 -31 55
-42 39 -19 65 -20 874 -20 l835 0 -387 -387 c-405 -408 -418 -423 -403 -493 8
-39 56 -87 95 -95 16 -4 45 -2 63 4 22 8 186 165 544 523 544 546 538 538 514
611 -8 22 -165 186 -523 544 -445 444 -518 513 -550 518 -64 12 -127 -31 -143
-98 -17 -64 1 -86 403 -489 l387 -388 -773 0 -772 0 0 41 c0 110 -63 401 -120
559 -184 503 -569 925 -1055 1156 -177 84 -381 145 -591 178 -102 16 -357 27
-449 20z"/>
<path d="M12991 6082 c-19 -10 -43 -34 -53 -53 -17 -32 -18 -115 -18 -2014 0
-1899 1 -1982 18 -2014 19 -36 72 -71 107 -71 35 0 88 35 107 71 17 32 18 115
18 2014 0 1899 -1 1982 -18 2014 -19 36 -72 71 -107 71 -11 0 -36 -8 -54 -18z"/>
<path d="M16911 6082 c-19 -10 -43 -34 -53 -53 -17 -32 -18 -115 -18 -2014 0
-1899 1 -1982 18 -2014 19 -36 72 -71 107 -71 35 0 88 35 107 71 17 32 18 115
18 2014 0 1899 -1 1982 -18 2014 -19 36 -72 71 -107 71 -11 0 -36 -8 -54 -18z"/>
<path d="M263 4143 c-33 -6 -79 -57 -86 -92 -26 -127 122 -210 212 -120 43 42
49 93 18 156 -20 42 -87 68 -144 56z"/>
</g>
</svg>
