<?xml version="1.0" standalone="no"?>
<!DOCTYPE svg PUBLIC "-//W3C//DTD SVG 20010904//EN"
 "http://www.w3.org/TR/2001/REC-SVG-20010904/DTD/svg10.dtd">
<svg version="1.0" xmlns="http://www.w3.org/2000/svg"
 width="844pt" height="1000pt" viewBox="0 0 844 1000"
 preserveAspectRatio="xMidYMid meet">
<metadata>
Created by potrace 1.9, written by Peter Selinger 2001-2010
</metadata>
<g transform="translate(0,1000) scale(0.100000,-0.100000)"
fill="#000000" stroke="none">
<path d="M4172 6084 c-18 -9 -41 -29 -51 -43 -10 -14 -269 -527 -575 -1138
l-556 -1113 -1330 665 c-732 366 -1340 665 -1353 665 -65 0 -133 -75 -123
-138 12 -77 -35 -51 1371 -754 l1323 -662 -364 -728 c-200 -400 -366 -744
-369 -765 -11 -74 61 -150 132 -139 71 10 67 4 454 778 203 406 371 738 374
738 3 0 243 -119 535 -265 291 -145 546 -267 567 -270 49 -8 100 19 125 66 17
32 18 81 18 921 l0 888 216 -108 216 -107 649 -1297 c689 -1377 664 -1332 741
-1344 63 -10 138 58 138 123 0 13 -259 540 -575 1173 -316 632 -573 1150 -570
1150 3 0 662 -328 1465 -730 821 -410 1476 -732 1497 -735 104 -16 175 101
117 190 -13 20 -400 218 -1646 841 l-1628 814 -324 648 c-243 486 -331 653
-351 666 -39 25 -85 29 -123 10z m417 -1126 c1 -4 -76 31 -170 77 -94 47 -181
85 -193 85 -36 0 -88 -34 -108 -71 -17 -32 -18 -81 -18 -921 0 -489 -2 -888
-5 -888 -13 0 -875 436 -875 442 0 5 226 459 501 1010 l501 1003 184 -365
c100 -201 183 -368 183 -372z"/>
</g>
</svg>
