<?xml version="1.0" standalone="no"?>
<!DOCTYPE svg PUBLIC "-//W3C//DTD SVG 20010904//EN"
 "http://www.w3.org/TR/2001/REC-SVG-20010904/DTD/svg10.dtd">
<svg version="1.0" xmlns="http://www.w3.org/2000/svg"
 width="1040pt" height="1000pt" viewBox="0 0 1040 1000"
 preserveAspectRatio="xMidYMid meet">
<metadata>
Created by potrace 1.9, written by Peter Selinger 2001-2010
</metadata>
<g transform="translate(0,1000) scale(0.100000,-0.100000)"
fill="#000000" stroke="none">
<path d="M4661 8042 c-47 -25 -74 -76 -66 -125 3 -21 118 -263 255 -537 272
-544 273 -545 355 -545 78 1 77 -2 357 559 278 556 274 547 233 609 -23 35
-79 60 -118 53 -66 -13 -82 -38 -282 -436 l-193 -385 -195 391 c-143 286 -202
395 -222 408 -41 27 -85 30 -124 8z"/>
<path d="M5055 6094 c-684 -55 -1279 -418 -1631 -994 -67 -111 -139 -262 -179
-375 -15 -44 -31 -83 -34 -87 -3 -3 -52 -11 -109 -17 -281 -30 -483 -102 -717
-257 -122 -80 -274 -227 -284 -274 -5 -28 -21 -46 -81 -92 -136 -104 -336
-193 -520 -229 -84 -17 -356 -17 -440 0 -222 44 -427 143 -590 286 -85 75
-118 95 -158 95 -95 0 -154 -99 -110 -184 32 -61 230 -211 399 -301 228 -120
544 -182 802 -157 207 21 403 76 556 157 180 97 379 249 401 309 7 17 16 41
20 53 12 30 141 134 229 184 140 81 322 142 465 157 l78 8 -6 -45 c-41 -286
-27 -546 44 -831 184 -730 759 -1306 1490 -1490 197 -49 316 -64 520 -64 557
0 1074 211 1461 595 398 396 613 914 613 1479 0 204 -15 323 -64 520 -165 656
-654 1197 -1290 1430 -108 39 -286 84 -416 104 -102 16 -357 27 -449 20z m418
-265 c215 -32 478 -126 660 -235 240 -145 495 -400 640 -641 111 -184 202
-440 238 -668 7 -44 13 -163 13 -265 0 -195 -10 -285 -49 -440 -84 -332 -244
-610 -494 -859 -240 -238 -514 -393 -841 -476 -155 -39 -245 -49 -440 -49
-102 0 -221 6 -265 13 -228 36 -484 127 -668 237 -240 145 -495 400 -640 641
-111 184 -202 440 -238 668 -17 106 -17 417 0 528 l13 88 37 -7 c126 -21 299
-83 413 -148 78 -44 208 -142 207 -154 -6 -40 7 -62 79 -130 261 -248 574
-390 931 -423 261 -25 543 28 786 146 113 54 251 146 337 222 37 32 78 66 93
76 39 27 59 77 51 123 -6 32 -25 56 -104 134 -150 147 -346 268 -542 334 -334
111 -659 111 -990 -1 -149 -50 -306 -134 -425 -228 -22 -17 -45 -34 -51 -38
-7 -4 -34 10 -60 31 -195 152 -400 243 -671 298 l-22 4 19 55 c140 406 514
814 922 1005 210 98 418 154 648 174 73 6 334 -3 413 -15z m-29 -1474 c176
-36 368 -123 501 -228 87 -67 88 -61 -14 -136 -129 -95 -319 -180 -486 -217
-98 -21 -377 -24 -475 -5 -104 20 -218 59 -325 111 -108 52 -265 161 -265 184
0 19 129 116 220 165 131 70 295 123 432 141 100 12 317 4 412 -15z"/>
<path d="M9071 6082 c-19 -10 -43 -34 -53 -53 -17 -32 -18 -83 -18 -1006 l0
-973 -485 -970 c-269 -538 -487 -986 -490 -1007 -8 -49 19 -100 66 -125 32
-17 84 -18 1034 -18 950 0 1002 1 1034 18 37 20 71 72 71 109 0 13 -220 464
-490 1003 l-490 980 0 978 c0 927 -1 979 -18 1011 -19 36 -72 71 -107 71 -11
0 -36 -8 -54 -18z m56 -3900 c-424 -1 -772 0 -774 2 -2 2 170 352 383 777
l387 774 387 -775 388 -775 -771 -3z"/>
</g>
</svg>
