<?xml version="1.0" standalone="no"?>
<!DOCTYPE svg PUBLIC "-//W3C//DTD SVG 20010904//EN"
 "http://www.w3.org/TR/2001/REC-SVG-20010904/DTD/svg10.dtd">
<svg version="1.0" xmlns="http://www.w3.org/2000/svg"
 width="452pt" height="1000pt" viewBox="0 0 452 1000"
 preserveAspectRatio="xMidYMid meet">
<metadata>
Created by potrace 1.9, written by Peter Selinger 2001-2010
</metadata>
<g transform="translate(0,1000) scale(0.100000,-0.100000)"
fill="#000000" stroke="none">
<path d="M251 6082 c-19 -10 -43 -34 -53 -53 -17 -32 -18 -115 -18 -2014 0
-1899 1 -1982 18 -2014 10 -19 34 -43 53 -53 32 -17 115 -18 2014 -18 1899 0
1982 1 2014 18 19 10 43 34 53 53 17 32 18 115 18 2014 0 1899 -1 1982 -18
2014 -10 19 -34 43 -53 53 -32 17 -115 18 -2014 18 -1899 0 -1982 -1 -2014
-18z m719 -235 c0 -1 -121 -124 -270 -272 l-270 -270 0 273 0 272 270 0 c149
0 270 -1 270 -3z m2150 -1744 l0 -1748 -397 397 c-343 342 -403 398 -435 403
-64 12 -127 -31 -143 -98 -17 -64 1 -86 403 -489 l387 -388 -763 0 -762 0 0
1742 0 1743 388 -387 c403 -402 425 -420 489 -403 67 16 110 79 98 143 -5 32
-61 92 -403 435 l-397 397 768 0 767 0 0 -1747z m980 369 l0 -1377 -365 -365
-365 -365 0 1743 0 1742 365 0 365 0 0 -1378z m-2940 -547 l0 -1745 -365 0
-365 0 0 1382 0 1383 362 362 c200 200 364 363 365 363 2 0 3 -785 3 -1745z
m2940 -1470 l0 -275 -277 0 -278 0 275 275 c151 151 276 275 277 275 2 0 3
-124 3 -275z"/>
</g>
</svg>
