<?xml version="1.0" standalone="no"?>
<!DOCTYPE svg PUBLIC "-//W3C//DTD SVG 20010904//EN"
 "http://www.w3.org/TR/2001/REC-SVG-20010904/DTD/svg10.dtd">
<svg version="1.0" xmlns="http://www.w3.org/2000/svg"
 width="746pt" height="1000pt" viewBox="0 0 746 1000"
 preserveAspectRatio="xMidYMid meet">
<metadata>
Created by potrace 1.9, written by Peter Selinger 2001-2010
</metadata>
<g transform="translate(0,1000) scale(0.100000,-0.100000)"
fill="#000000" stroke="none">
<path d="M1110 6084 c-194 -35 -394 -125 -531 -240 -290 -242 -446 -650 -384
-1003 50 -285 189 -528 395 -694 101 -80 275 -169 400 -203 52 -15 96 -28 98
-29 2 -2 -200 -408 -447 -904 -250 -498 -453 -917 -456 -938 -16 -104 101
-175 190 -117 20 13 134 232 467 898 l440 881 438 -874 c321 -643 445 -881
466 -898 78 -62 184 -20 201 81 4 27 -63 167 -455 953 l-461 921 64 16 c165
41 332 126 457 231 280 236 434 647 373 994 -62 355 -254 632 -550 796 -221
122 -481 170 -705 129z m400 -269 c176 -56 318 -152 431 -291 68 -83 117 -178
155 -299 26 -80 29 -104 29 -225 0 -121 -3 -145 -29 -225 -93 -295 -290 -493
-586 -591 -77 -25 -98 -28 -230 -28 -132 0 -153 3 -230 28 -179 59 -319 154
-431 292 -68 82 -117 177 -155 299 -26 82 -29 103 -28 230 0 126 3 149 28 225
95 288 291 488 567 579 106 35 147 40 274 37 97 -3 137 -9 205 -31z"/>
<path d="M3191 6082 c-19 -10 -43 -34 -53 -53 -17 -32 -18 -84 -18 -1034 0
-950 1 -1002 18 -1034 10 -19 34 -43 53 -53 32 -17 115 -18 2014 -18 1899 0
1982 1 2014 18 19 10 43 34 53 53 17 32 18 84 18 1034 0 950 -1 1002 -18 1034
-19 35 -72 71 -105 71 -56 0 -103 -42 -539 -478 l-448 -447 -457 457 c-363
361 -465 457 -490 463 -74 15 -82 8 -561 -469 l-452 -451 -453 452 c-248 249
-465 457 -480 463 -39 14 -57 13 -96 -8z m2454 -733 c322 -323 452 -446 484
-461 86 -40 72 -50 514 390 l397 397 0 -768 0 -767 -1835 0 -1835 0 0 762 0
763 388 -387 c418 -417 425 -422 501 -399 28 8 136 110 486 461 247 247 452
450 455 450 3 0 203 -198 445 -441z"/>
</g>
</svg>
