<?xml version="1.0" standalone="no"?>
<!DOCTYPE svg PUBLIC "-//W3C//DTD SVG 20010904//EN"
 "http://www.w3.org/TR/2001/REC-SVG-20010904/DTD/svg10.dtd">
<svg version="1.0" xmlns="http://www.w3.org/2000/svg"
 width="746pt" height="1000pt" viewBox="0 0 746 1000"
 preserveAspectRatio="xMidYMid meet">
<metadata>
Created by potrace 1.9, written by Peter Selinger 2001-2010
</metadata>
<g transform="translate(0,1000) scale(0.100000,-0.100000)"
fill="#000000" stroke="none">
<path d="M1231 6082 c-19 -10 -43 -34 -53 -53 -17 -32 -18 -113 -18 -1941 l0
-1908 -438 0 c-404 0 -440 -1 -471 -18 -36 -19 -71 -72 -71 -107 0 -35 35 -88
71 -107 32 -17 84 -18 1034 -18 950 0 1002 1 1034 18 36 19 71 72 71 107 0 35
-35 88 -71 107 -31 17 -67 18 -471 18 l-438 0 0 1908 c0 1828 -1 1909 -18
1941 -19 36 -72 71 -107 71 -11 0 -36 -8 -54 -18z"/>
<path d="M3191 6082 c-19 -10 -43 -34 -53 -53 -17 -32 -18 -115 -18 -2014 0
-1899 1 -1982 18 -2014 10 -19 34 -43 53 -53 32 -17 115 -18 2014 -18 1899 0
1982 1 2014 18 19 10 43 34 53 53 17 32 18 115 18 2014 0 1899 -1 1982 -18
2014 -10 19 -34 43 -53 53 -32 17 -115 18 -2014 18 -1899 0 -1982 -1 -2014
-18z m909 -597 l0 -365 -365 0 -365 0 0 365 0 365 365 0 365 0 0 -365z m1960
0 l0 -365 -855 0 -855 0 0 365 0 365 855 0 855 0 0 -365z m980 0 l0 -365 -365
0 -365 0 0 365 0 365 365 0 365 0 0 -365z m-2940 -1470 l0 -855 -365 0 -365 0
0 855 0 855 365 0 365 0 0 -855z m1960 0 l0 -855 -855 0 -855 0 0 855 0 855
855 0 855 0 0 -855z m980 0 l0 -855 -365 0 -365 0 0 855 0 855 365 0 365 0 0
-855z m-2940 -1470 l0 -365 -365 0 -365 0 0 365 0 365 365 0 365 0 0 -365z
m1960 0 l0 -365 -855 0 -855 0 0 365 0 365 855 0 855 0 0 -365z m980 0 l0
-365 -365 0 -365 0 0 365 0 365 365 0 365 0 0 -365z"/>
</g>
</svg>
