<?xml version="1.0" standalone="no"?>
<!DOCTYPE svg PUBLIC "-//W3C//DTD SVG 20010904//EN"
 "http://www.w3.org/TR/2001/REC-SVG-20010904/DTD/svg10.dtd">
<svg version="1.0" xmlns="http://www.w3.org/2000/svg"
 width="1040pt" height="1000pt" viewBox="0 0 1040 1000"
 preserveAspectRatio="xMidYMid meet">
<metadata>
Created by potrace 1.9, written by Peter Selinger 2001-2010
</metadata>
<g transform="translate(0,1000) scale(0.100000,-0.100000)"
fill="#000000" stroke="none">
<path d="M251 6082 c-19 -10 -43 -34 -53 -53 -17 -32 -18 -115 -18 -2014 0
-1899 1 -1982 18 -2014 19 -35 72 -71 105 -71 31 0 85 30 104 58 17 25 18 66
23 532 l5 505 44 -75 c120 -204 334 -445 516 -580 385 -286 797 -424 1265
-424 204 0 323 15 520 64 528 133 988 477 1266 948 l49 82 5 -512 c5 -474 6
-515 23 -540 19 -28 73 -58 104 -58 33 0 86 36 105 71 17 32 18 115 18 2014 0
1899 -1 1982 -18 2014 -19 35 -72 71 -105 71 -31 0 -85 -30 -104 -58 -17 -25
-18 -66 -23 -535 l-5 -507 -49 82 c-278 471 -738 815 -1266 948 -197 49 -316
64 -520 64 -204 0 -323 -15 -520 -64 -526 -133 -990 -478 -1261 -940 l-44 -75
-5 500 c-6 556 -3 535 -75 569 -43 21 -63 20 -104 -2z m1889 -1165 c0 -874 1
-924 18 -956 10 -19 34 -43 53 -53 32 -17 82 -18 951 -18 l918 0 0 -36 c0
-143 -76 -420 -170 -622 -142 -302 -420 -607 -717 -786 -184 -110 -440 -201
-668 -237 -103 -16 -427 -16 -530 0 -228 36 -484 127 -668 237 -240 145 -495
400 -640 641 -111 184 -202 440 -238 668 -16 103 -16 427 0 530 36 228 127
484 237 668 146 242 399 495 641 641 218 130 561 241 761 245 l52 1 0 -923z
m393 912 c215 -32 478 -126 660 -235 297 -179 575 -484 717 -786 96 -205 170
-479 170 -627 l0 -41 -845 0 -845 0 0 850 0 850 36 0 c19 0 68 -5 107 -11z"/>
<path d="M8950 6084 c-270 -49 -508 -184 -674 -383 -76 -91 -164 -253 -200
-368 -53 -171 -69 -347 -35 -401 43 -68 165 -68 208 0 7 12 17 65 22 119 34
365 263 647 619 765 77 25 98 28 230 28 132 0 153 -3 230 -28 183 -61 317
-152 431 -292 66 -80 115 -175 155 -294 25 -76 28 -100 28 -220 0 -110 -5
-159 -27 -265 -113 -532 -328 -1027 -628 -1446 -306 -428 -714 -805 -1150
-1063 -128 -76 -144 -93 -144 -161 0 -62 25 -97 82 -116 47 -15 72 -7 198 68
656 392 1159 928 1515 1616 198 382 327 779 399 1232 20 125 19 131 -5 283
-57 358 -262 649 -572 810 -218 113 -466 155 -682 116z"/>
<path d="M6010 5104 c-194 -35 -394 -125 -531 -240 -290 -242 -446 -650 -384
-1003 49 -279 185 -523 384 -685 145 -119 339 -206 536 -240 114 -20 216 -20
330 0 489 85 833 432 920 925 61 347 -93 758 -373 994 -241 203 -592 302 -882
249z m400 -269 c176 -56 318 -152 431 -291 68 -83 117 -178 155 -299 26 -80
29 -104 29 -225 0 -121 -3 -145 -29 -225 -93 -295 -290 -493 -586 -591 -77
-25 -98 -28 -230 -28 -132 0 -153 3 -230 28 -179 59 -319 154 -431 292 -68 82
-117 177 -155 299 -26 82 -29 103 -28 230 0 126 3 149 28 225 95 288 291 488
567 579 106 35 147 40 274 37 97 -3 137 -9 205 -31z"/>
<path d="M6143 4143 c-33 -6 -79 -57 -86 -92 -26 -127 122 -210 212 -120 43
42 49 93 18 156 -20 42 -87 68 -144 56z"/>
</g>
</svg>
