<?xml version="1.0" standalone="no"?>
<!DOCTYPE svg PUBLIC "-//W3C//DTD SVG 20010904//EN"
 "http://www.w3.org/TR/2001/REC-SVG-20010904/DTD/svg10.dtd">
<svg version="1.0" xmlns="http://www.w3.org/2000/svg"
 width="550pt" height="1000pt" viewBox="0 0 550 1000"
 preserveAspectRatio="xMidYMid meet">
<metadata>
Created by potrace 1.9, written by Peter Selinger 2001-2010
</metadata>
<g transform="translate(0,1000) scale(0.100000,-0.100000)"
fill="#000000" stroke="none">
<path d="M695 3149 c-242 -41 -429 -208 -491 -439 -23 -86 -23 -234 0 -320 57
-211 232 -382 436 -426 41 -8 91 -20 111 -25 20 -5 100 -9 179 -9 l142 0 -39
-32 c-108 -91 -230 -271 -289 -428 -59 -155 -86 -376 -64 -522 45 -292 190
-555 397 -719 103 -81 276 -170 397 -204 81 -23 105 -25 296 -25 191 0 215 2
296 25 122 34 294 123 398 205 92 73 195 194 249 291 18 32 34 59 37 59 3 0
20 -28 39 -63 53 -95 154 -213 248 -288 103 -81 276 -170 397 -204 81 -23 105
-25 296 -25 191 0 215 2 296 25 122 34 294 123 398 205 201 159 341 408 391
691 50 281 -41 608 -237 855 -38 48 -88 102 -111 119 l-42 30 165 6 c196 7
285 25 398 80 148 72 263 214 308 379 23 86 23 234 0 320 -55 204 -213 363
-421 426 -57 18 -161 19 -2095 20 -1119 1 -2057 -2 -2085 -7z m4157 -271 c74
-34 152 -112 186 -186 22 -48 27 -71 27 -142 0 -105 -29 -175 -103 -249 -63
-63 -117 -90 -211 -107 -112 -20 -3890 -20 -4002 0 -94 17 -148 44 -211 107
-74 74 -103 144 -103 249 0 71 5 94 27 142 46 98 147 184 245 207 22 5 903 8
2063 8 l2025 -2 57 -27z m-2852 -983 c83 -27 188 -75 242 -112 l27 -19 -252
-252 -252 -252 -250 250 -250 251 25 19 c39 31 179 96 245 115 149 44 329 43
465 0z m993 3 c-21 -18 -55 -51 -75 -73 -44 -49 -144 -195 -153 -224 -3 -11
-9 -21 -13 -21 -4 0 -21 27 -39 59 -43 78 -156 219 -204 254 -21 16 -39 31
-39 33 0 2 126 4 281 4 l281 0 -39 -32z m967 -3 c83 -27 188 -75 242 -112 l27
-19 -252 -252 -252 -252 -250 250 -250 251 25 19 c39 31 179 96 245 115 149
44 329 43 465 0z m-2624 -1064 c-285 -285 -251 -271 -319 -136 -142 283 -125
588 47 852 l21 33 250 -250 250 -250 -249 -249z m1131 732 c30 -39 93 -173
119 -258 26 -80 29 -104 29 -225 0 -121 -3 -145 -29 -225 -27 -86 -89 -219
-121 -260 -15 -19 -26 -9 -268 233 l-252 252 250 250 c137 137 252 250 254
250 2 0 10 -8 18 -17z m829 -732 c-285 -285 -251 -271 -319 -136 -142 283
-125 588 47 852 l21 33 250 -250 250 -250 -249 -249z m1131 732 c30 -39 93
-173 119 -258 26 -80 29 -104 29 -225 0 -121 -3 -145 -29 -225 -27 -86 -89
-219 -121 -260 -15 -19 -26 -9 -268 233 l-252 252 250 250 c137 137 252 250
254 250 2 0 10 -8 18 -17z m-2185 -1186 c-53 -36 -158 -85 -242 -113 -77 -25
-98 -28 -230 -28 -132 0 -153 3 -230 28 -47 15 -119 46 -160 67 -134 70 -149
34 135 319 l250 250 252 -252 252 -252 -27 -19z m1960 0 c-53 -36 -158 -85
-242 -113 -77 -25 -98 -28 -230 -28 -132 0 -153 3 -230 28 -47 15 -119 46
-160 67 -134 70 -149 34 135 319 l250 250 252 -252 252 -252 -27 -19z"/>
</g>
</svg>
