<?xml version="1.0" standalone="no"?>
<!DOCTYPE svg PUBLIC "-//W3C//DTD SVG 20010904//EN"
 "http://www.w3.org/TR/2001/REC-SVG-20010904/DTD/svg10.dtd">
<svg version="1.0" xmlns="http://www.w3.org/2000/svg"
 width="648pt" height="1000pt" viewBox="0 0 648 1000"
 preserveAspectRatio="xMidYMid meet">
<metadata>
Created by potrace 1.9, written by Peter Selinger 2001-2010
</metadata>
<g transform="translate(0,1000) scale(0.100000,-0.100000)"
fill="#000000" stroke="none">
<path d="M1232 6085 c-51 -22 -257 -202 -363 -316 -546 -592 -784 -1407 -644
-2199 105 -588 405 -1114 858 -1502 71 -61 141 -116 155 -124 22 -11 100 -14
401 -14 351 0 373 -1 366 -18 -125 -308 -82 -614 122 -864 70 -85 127 -107
192 -74 41 22 64 63 63 113 0 36 -8 54 -44 99 -116 149 -152 239 -152 389 0
106 13 162 61 260 51 103 19 95 406 95 319 0 339 -1 332 -17 -125 -309 -82
-615 122 -865 70 -85 127 -107 192 -74 41 22 64 63 63 113 0 36 -8 54 -44 99
-116 149 -152 239 -152 389 0 106 13 162 61 260 51 103 19 95 406 95 319 0
339 -1 332 -17 -125 -309 -82 -615 122 -865 70 -85 127 -107 192 -74 41 22 64
63 63 113 0 36 -8 54 -44 99 -116 149 -152 239 -152 389 0 71 5 116 18 155 25
72 63 149 89 177 l20 23 475 0 c421 0 478 2 509 17 19 9 37 22 40 29 2 6 51
51 108 99 354 296 650 753 783 1210 142 486 142 984 0 1470 -106 362 -315 729
-577 1014 -96 103 -306 289 -358 316 -42 22 -3971 22 -4021 0z m4015 -319
c331 -283 584 -677 708 -1099 122 -419 122 -875 0 -1294 -124 -425 -378 -818
-714 -1104 l-104 -89 -1897 0 -1897 0 -104 89 c-336 286 -590 679 -714 1104
-122 419 -122 875 0 1294 124 422 377 816 708 1099 l98 84 1909 0 1909 0 98
-84z"/>
<path d="M5635 2161 c-26 -12 -209 -188 -532 -512 -423 -425 -493 -500 -504
-536 -24 -84 -26 -81 514 -621 l493 -493 89 3 88 3 20 38 c41 80 54 64 -454
572 l-459 460 459 460 c503 504 493 491 456 568 -32 67 -102 91 -170 58z"/>
</g>
</svg>
