<?xml version="1.0" standalone="no"?>
<!DOCTYPE svg PUBLIC "-//W3C//DTD SVG 20010904//EN"
 "http://www.w3.org/TR/2001/REC-SVG-20010904/DTD/svg10.dtd">
<svg version="1.0" xmlns="http://www.w3.org/2000/svg"
 width="648pt" height="1000pt" viewBox="0 0 648 1000"
 preserveAspectRatio="xMidYMid meet">
<metadata>
Created by potrace 1.9, written by Peter Selinger 2001-2010
</metadata>
<g transform="translate(0,1000) scale(0.100000,-0.100000)"
fill="#000000" stroke="none">
<path d="M3191 5102 c-35 -19 -71 -72 -71 -105 0 -55 41 -103 413 -474 l382
-383 -1815 0 c-1739 0 -1817 -1 -1849 -18 -36 -19 -71 -72 -71 -107 0 -35 35
-88 71 -107 32 -17 110 -18 1849 -18 l1815 0 -387 -387 c-402 -404 -420 -426
-403 -490 16 -67 79 -110 143 -98 32 5 92 61 435 403 l397 397 0 -350 c0 -392
1 -400 71 -437 32 -17 84 -18 1034 -18 950 0 1002 1 1034 18 19 10 43 34 53
53 17 32 18 84 18 1034 0 950 -1 1002 -18 1034 -10 19 -34 43 -53 53 -32 17
-84 18 -1034 18 -950 0 -1002 -1 -1034 -18 -70 -37 -71 -45 -71 -437 l0 -350
-392 392 c-216 216 -406 397 -421 403 -39 14 -57 13 -96 -8z m2869 -1087 l0
-855 -855 0 -855 0 0 855 0 855 855 0 855 0 0 -855z"/>
</g>
</svg>
