<?xml version="1.0" standalone="no"?>
<!DOCTYPE svg PUBLIC "-//W3C//DTD SVG 20010904//EN"
 "http://www.w3.org/TR/2001/REC-SVG-20010904/DTD/svg10.dtd">
<svg version="1.0" xmlns="http://www.w3.org/2000/svg"
 width="648pt" height="1000pt" viewBox="0 0 648 1000"
 preserveAspectRatio="xMidYMid meet">
<metadata>
Created by potrace 1.9, written by Peter Selinger 2001-2010
</metadata>
<g transform="translate(0,1000) scale(0.100000,-0.100000)"
fill="#000000" stroke="none">
<path d="M2212 6083 c-18 -9 -41 -28 -51 -42 -41 -58 -1971 -3933 -1976 -3968
-8 -49 19 -100 66 -125 32 -17 115 -18 2012 -18 1673 0 1983 2 2010 14 19 8
446 429 1029 1012 1097 1100 1033 1028 991 1111 -18 37 -73 66 -2011 1036
-1096 548 -2002 997 -2015 997 -12 0 -37 -8 -55 -17z m55 -3901 c-963 -1
-1752 0 -1754 2 -2 2 390 793 873 1757 l877 1754 877 -1755 878 -1755 -1751
-3z m3693 1802 c2 -3 -380 -389 -850 -859 l-855 -855 -852 1702 c-469 937
-852 1706 -852 1711 -1 6 3395 -1687 3409 -1699z"/>
</g>
</svg>
