<?xml version="1.0" standalone="no"?>
<!DOCTYPE svg PUBLIC "-//W3C//DTD SVG 20010904//EN"
 "http://www.w3.org/TR/2001/REC-SVG-20010904/DTD/svg10.dtd">
<svg version="1.0" xmlns="http://www.w3.org/2000/svg"
 width="942pt" height="1000pt" viewBox="0 0 942 1000"
 preserveAspectRatio="xMidYMid meet">
<metadata>
Created by potrace 1.9, written by Peter Selinger 2001-2010
</metadata>
<g transform="translate(0,1000) scale(0.100000,-0.100000)"
fill="#000000" stroke="none">
<path d="M251 6082 c-47 -25 -74 -76 -66 -125 3 -21 431 -889 990 -2006 1072
-2145 1002 -2016 1090 -2016 22 0 53 9 68 19 23 16 232 426 1024 2010 855
1710 994 1995 990 2022 -17 101 -123 143 -201 81 -22 -18 -261 -488 -956
-1878 l-928 -1854 -930 1861 c-713 1426 -937 1865 -957 1878 -41 27 -85 30
-124 8z"/>
<path d="M7015 6094 c-684 -55 -1279 -418 -1631 -994 -143 -235 -234 -491
-279 -780 -21 -137 -25 -328 -7 -362 40 -74 167 -77 212 -5 7 12 18 90 26 178
15 182 18 201 50 329 82 329 238 604 484 850 246 246 519 401 850 485 155 39
245 49 440 49 195 0 285 -10 440 -49 331 -84 604 -239 850 -485 246 -246 402
-521 484 -850 32 -128 35 -147 50 -329 8 -88 19 -166 26 -178 45 -72 172 -69
212 5 18 34 14 225 -7 362 -71 458 -269 853 -585 1170 -378 377 -876 590
-1416 604 -82 2 -171 2 -199 0z"/>
<path d="M7123 5123 c-33 -6 -79 -57 -86 -92 -26 -127 122 -210 212 -120 43
42 49 93 18 156 -20 42 -87 68 -144 56z"/>
<path d="M6131 4122 c-36 -19 -71 -72 -71 -107 0 -35 35 -88 71 -107 32 -17
84 -18 1034 -18 950 0 1002 1 1034 18 36 19 71 72 71 107 0 35 -35 88 -71 107
-32 17 -84 18 -1034 18 -950 0 -1002 -1 -1034 -18z"/>
<path d="M7123 3163 c-33 -6 -79 -57 -86 -92 -26 -127 122 -210 212 -120 43
42 49 93 18 156 -20 42 -87 68 -144 56z"/>
</g>
</svg>
