<?xml version="1.0" standalone="no"?>
<!DOCTYPE svg PUBLIC "-//W3C//DTD SVG 20010904//EN"
 "http://www.w3.org/TR/2001/REC-SVG-20010904/DTD/svg10.dtd">
<svg version="1.0" xmlns="http://www.w3.org/2000/svg"
 width="452pt" height="1000pt" viewBox="0 0 452 1000"
 preserveAspectRatio="xMidYMid meet">
<metadata>
Created by potrace 1.9, written by Peter Selinger 2001-2010
</metadata>
<g transform="translate(0,1000) scale(0.100000,-0.100000)"
fill="#000000" stroke="none">
<path d="M735 6081 c-61 -29 -529 -504 -545 -554 -20 -64 6 -123 67 -152 68
-33 91 -20 261 148 l152 151 0 -767 0 -767 -193 0 c-167 0 -197 -2 -226 -18
-36 -19 -71 -72 -71 -107 0 -35 35 -88 71 -107 31 -17 69 -18 544 -18 475 0
513 1 544 18 36 19 71 72 71 107 0 35 -35 88 -71 107 -29 16 -59 18 -226 18
l-193 0 0 928 c0 879 -1 929 -18 961 -19 36 -73 71 -107 71 -11 0 -38 -9 -60
-19z"/>
<path d="M3192 6083 c-18 -9 -41 -28 -51 -42 -41 -58 -1971 -3933 -1976 -3968
-16 -104 101 -175 190 -117 21 13 257 479 1021 2006 547 1093 994 1998 994
2011 0 37 -34 89 -71 109 -41 22 -64 22 -107 1z"/>
<path d="M3191 4122 c-19 -10 -43 -34 -53 -53 -17 -31 -18 -69 -18 -544 0
-475 1 -513 18 -544 38 -71 35 -71 524 -71 l438 0 0 -438 c0 -404 1 -440 18
-471 19 -36 72 -71 107 -71 35 0 88 35 107 71 17 32 18 84 18 1034 0 950 -1
1002 -18 1034 -19 36 -72 71 -107 71 -35 0 -88 -35 -107 -71 -17 -31 -18 -67
-18 -471 l0 -438 -365 0 -365 0 0 438 c0 404 -1 440 -18 471 -19 36 -72 71
-107 71 -11 0 -36 -8 -54 -18z"/>
</g>
</svg>
