<?xml version="1.0" standalone="no"?>
<!DOCTYPE svg PUBLIC "-//W3C//DTD SVG 20010904//EN"
 "http://www.w3.org/TR/2001/REC-SVG-20010904/DTD/svg10.dtd">
<svg version="1.0" xmlns="http://www.w3.org/2000/svg"
 width="256pt" height="1000pt" viewBox="0 0 256 1000"
 preserveAspectRatio="xMidYMid meet">
<metadata>
Created by potrace 1.9, written by Peter Selinger 2001-2010
</metadata>
<g transform="translate(0,1000) scale(0.100000,-0.100000)"
fill="#000000" stroke="none">
<path d="M1110 6084 c-270 -49 -508 -184 -674 -383 -76 -91 -164 -253 -200
-368 -53 -171 -69 -347 -35 -401 43 -68 165 -68 208 0 7 12 17 65 22 119 34
365 263 647 619 765 77 25 98 28 230 28 132 0 153 -3 230 -28 183 -61 317
-152 431 -292 66 -80 115 -174 155 -294 25 -77 28 -98 28 -230 0 -132 -3 -153
-28 -230 -59 -179 -144 -307 -281 -422 -127 -108 -305 -180 -484 -197 -106
-10 -130 -19 -155 -62 -15 -25 -17 -83 -16 -550 0 -453 2 -526 16 -555 44 -92
167 -94 216 -3 17 31 18 67 18 481 l0 447 38 6 c20 4 78 17 127 31 415 113
712 449 789 890 44 250 -18 534 -169 769 -222 347 -685 552 -1085 479z"/>
<path d="M1243 2183 c-33 -6 -79 -57 -86 -92 -26 -127 122 -210 212 -120 43
42 49 93 18 156 -20 42 -87 68 -144 56z"/>
</g>
</svg>
