<?xml version="1.0" standalone="no"?>
<!DOCTYPE svg PUBLIC "-//W3C//DTD SVG 20010904//EN"
 "http://www.w3.org/TR/2001/REC-SVG-20010904/DTD/svg10.dtd">
<svg version="1.0" xmlns="http://www.w3.org/2000/svg"
 width="147pt" height="1000pt" viewBox="0 0 147 1000"
 preserveAspectRatio="xMidYMid meet">
<g transform="translate(0,1000) scale(0.100000,-0.100000)"
fill="#000000" stroke="none">
<path d="M180 2705 l0 -645 85 0 85 0 0 285 0 285 143 0 c135 0 146 -2 196 -26 68 -34 129 -110 287 -358 l119 -186 97 0 98 0 -112 178 c-62 97 -131 202 -154 232 -51 67 -133 145 -162 154 -31 10 -20 22 25 29 111 15 231 95 272 180 67 139 39 318 -66 419 -86 84 -174 98 -615 98 l-298 0 0 -645z m707 480 c62 -19 128 -85 139 -140 18 -100 -24 -189 -111 -234 -49 -26 -54 -26 -307 -29 l-258 -3 0 210 0 211 243 0 c187 0 255 -3 294 -15z"/>
</g>
</svg>

