<?xml version="1.0" standalone="no"?>
<!DOCTYPE svg PUBLIC "-//W3C//DTD SVG 20010904//EN"
 "http://www.w3.org/TR/2001/REC-SVG-20010904/DTD/svg10.dtd">
<svg version="1.0" xmlns="http://www.w3.org/2000/svg"
 width="1236pt" height="1000pt" viewBox="0 0 1236 1000"
 preserveAspectRatio="xMidYMid meet">
<metadata>
Created by potrace 1.9, written by Peter Selinger 2001-2010
</metadata>
<g transform="translate(0,1000) scale(0.100000,-0.100000)"
fill="#000000" stroke="none">
<path d="M10910 6084 c-270 -49 -508 -184 -674 -383 -76 -91 -164 -253 -200
-368 -53 -171 -69 -347 -35 -401 43 -68 165 -68 208 0 7 12 17 65 22 119 34
365 263 647 619 765 77 25 98 28 230 28 132 0 153 -3 230 -28 183 -61 317
-152 431 -292 66 -80 115 -175 155 -294 25 -76 28 -100 28 -220 0 -110 -5
-159 -27 -265 -113 -532 -328 -1027 -628 -1446 -306 -428 -714 -805 -1150
-1063 -128 -76 -144 -93 -144 -161 0 -62 25 -97 82 -116 47 -15 72 -7 198 68
656 392 1159 928 1515 1616 198 382 327 779 399 1232 20 125 19 131 -5 283
-57 358 -262 649 -572 810 -218 113 -466 155 -682 116z"/>
<path d="M251 4122 c-36 -19 -71 -72 -71 -107 0 -35 35 -88 71 -107 31 -17 65
-18 431 -18 l398 0 -445 -890 c-246 -492 -447 -906 -450 -927 -16 -104 101
-175 190 -117 20 13 134 232 467 898 l440 881 439 -877 c478 -955 459 -923
544 -923 22 0 53 9 68 19 23 15 124 209 469 900 l440 881 438 -874 c321 -643
445 -881 466 -898 78 -62 184 -20 201 81 4 27 -61 164 -446 934 -248 496 -451
904 -451 907 0 3 179 5 398 5 366 0 400 1 431 18 36 19 71 72 71 107 0 35 -35
88 -71 107 -32 17 -115 18 -2014 18 -1899 0 -1982 -1 -2014 -18z m2403 -1004
c-212 -425 -388 -775 -390 -777 -3 -3 -774 1534 -774 1544 0 3 349 5 775 5
l775 0 -386 -772z"/>
<path d="M5151 4122 c-47 -25 -74 -76 -66 -125 3 -21 224 -474 500 -1027 538
-1076 515 -1035 600 -1035 22 0 53 9 68 19 23 15 124 209 469 900 l440 881
439 -877 c478 -955 459 -923 544 -923 22 0 53 9 68 20 23 14 136 232 533 1027
277 555 504 1018 504 1031 0 37 -34 89 -71 109 -32 17 -115 18 -2014 18 -1899
0 -1982 -1 -2014 -18z m1423 -1004 c-212 -425 -388 -775 -390 -777 -3 -3 -774
1534 -774 1544 0 3 349 5 775 5 l775 0 -386 -772z m1960 0 c-212 -425 -388
-775 -390 -777 -3 -3 -774 1534 -774 1544 0 3 349 5 775 5 l775 0 -386 -772z"/>
</g>
</svg>
