<?xml version="1.0" standalone="no"?>
<!DOCTYPE svg PUBLIC "-//W3C//DTD SVG 20010904//EN"
 "http://www.w3.org/TR/2001/REC-SVG-20010904/DTD/svg10.dtd">
<svg version="1.0" xmlns="http://www.w3.org/2000/svg"
 width="1432pt" height="1000pt" viewBox="0 0 1432 1000"
 preserveAspectRatio="xMidYMid meet">
<metadata>
Created by potrace 1.9, written by Peter Selinger 2001-2010
</metadata>
<g transform="translate(0,1000) scale(0.100000,-0.100000)"
fill="#000000" stroke="none">
<path d="M2205 4121 c-28 -13 -345 -325 -1021 -1002 -792 -794 -984 -991 -994
-1022 -20 -64 6 -123 67 -152 80 -38 18 -93 1056 943 l947 947 938 -937 c923
-923 971 -968 1029 -968 33 0 86 36 105 71 17 32 18 84 18 1034 0 950 -1 1002
-18 1034 -19 36 -72 71 -107 71 -35 0 -88 -35 -107 -71 -17 -32 -18 -79 -18
-874 l0 -840 -882 882 c-497 497 -895 887 -911 893 -39 14 -56 13 -102 -9z"/>
<path d="M5151 4122 c-36 -19 -71 -72 -71 -107 0 -35 35 -88 71 -107 31 -17
65 -18 431 -18 l398 0 -445 -890 c-246 -492 -447 -906 -450 -927 -16 -104 101
-175 190 -117 20 13 134 232 467 898 l440 881 439 -877 c478 -955 459 -923
544 -923 22 0 53 9 68 19 23 15 124 209 469 900 l440 881 438 -874 c321 -643
445 -881 466 -898 78 -62 184 -20 201 81 4 27 -61 164 -446 934 -248 496 -451
904 -451 907 0 3 179 5 398 5 366 0 400 1 431 18 36 19 71 72 71 107 0 35 -35
88 -71 107 -32 17 -115 18 -2014 18 -1899 0 -1982 -1 -2014 -18z m2403 -1004
c-212 -425 -388 -775 -390 -777 -3 -3 -774 1534 -774 1544 0 3 349 5 775 5
l775 0 -386 -772z"/>
<path d="M10051 4122 c-47 -25 -74 -76 -66 -125 3 -21 224 -474 500 -1027 538
-1076 515 -1035 600 -1035 22 0 53 9 68 19 23 15 124 209 469 900 l440 881
439 -877 c478 -955 459 -923 544 -923 22 0 53 9 68 20 23 14 136 232 533 1027
277 555 504 1018 504 1031 0 37 -34 89 -71 109 -32 17 -115 18 -2014 18 -1899
0 -1982 -1 -2014 -18z m1423 -1004 c-212 -425 -388 -775 -390 -777 -3 -3 -774
1534 -774 1544 0 3 349 5 775 5 l775 0 -386 -772z m1960 0 c-212 -425 -388
-775 -390 -777 -3 -3 -774 1534 -774 1544 0 3 349 5 775 5 l775 0 -386 -772z"/>
</g>
</svg>
