<?xml version="1.0" standalone="no"?>
<!DOCTYPE svg PUBLIC "-//W3C//DTD SVG 20010904//EN"
 "http://www.w3.org/TR/2001/REC-SVG-20010904/DTD/svg10.dtd">
<svg version="1.0" xmlns="http://www.w3.org/2000/svg"
 width="942pt" height="1000pt" viewBox="0 0 942 1000"
 preserveAspectRatio="xMidYMid meet">
<metadata>
Created by potrace 1.9, written by Peter Selinger 2001-2010
</metadata>
<g transform="translate(0,1000) scale(0.100000,-0.100000)"
fill="#000000" stroke="none">
<path d="M7015 6094 c-684 -55 -1279 -418 -1631 -994 -148 -244 -241 -509
-280 -800 -9 -69 -19 -130 -23 -136 -3 -6 -14 -23 -24 -37 -26 -36 -25 -102 2
-138 17 -23 24 -52 31 -137 45 -508 254 -958 609 -1311 387 -384 904 -595
1461 -595 557 0 1074 211 1461 595 354 352 564 803 609 1310 7 79 15 116 31
143 25 43 21 94 -11 138 -11 15 -20 41 -20 59 0 54 -30 229 -60 349 -165 656
-654 1197 -1290 1430 -108 39 -286 84 -416 104 -102 16 -357 27 -449 20z m418
-265 c215 -32 478 -126 660 -235 240 -145 495 -400 640 -641 49 -80 107 -206
147 -313 30 -84 74 -240 68 -245 -2 -1 -41 19 -87 46 -353 203 -809 241 -1221
102 -153 -52 -303 -133 -434 -235 -26 -21 -53 -35 -60 -31 -6 4 -29 21 -51 38
-119 94 -276 178 -425 228 -408 138 -864 101 -1214 -98 -44 -25 -81 -44 -82
-42 -6 5 36 153 66 237 97 264 227 466 430 670 318 317 699 495 1150 534 73 6
334 -3 413 -15z m-1009 -1474 c176 -36 368 -123 501 -228 87 -67 88 -61 -14
-136 -128 -95 -323 -182 -481 -215 -183 -37 -416 -29 -588 20 -165 47 -346
142 -458 238 l-37 32 67 53 c160 128 391 225 597 250 101 13 318 6 413 -14z
m1960 0 c176 -36 368 -123 501 -228 87 -67 88 -61 -14 -136 -129 -95 -319
-180 -486 -217 -98 -21 -377 -24 -475 -5 -104 20 -218 59 -325 111 -108 52
-265 161 -265 184 0 19 129 116 220 165 131 70 295 123 432 141 100 12 317 4
412 -15z m-1019 -640 c469 -284 1074 -282 1553 6 l53 31 -6 -38 c-35 -201
-130 -458 -232 -627 -145 -241 -400 -496 -640 -641 -184 -110 -440 -201 -668
-237 -44 -7 -163 -13 -265 -13 -195 0 -285 10 -440 49 -327 83 -601 238 -841
476 -207 206 -342 416 -439 679 -41 113 -98 340 -85 340 3 0 40 -20 83 -45
166 -96 381 -163 596 -185 367 -38 755 73 1061 303 l59 45 61 -44 c33 -24 101
-69 150 -99z"/>
<path d="M6143 4143 c-33 -6 -79 -57 -86 -92 -26 -127 122 -210 212 -120 43
42 49 93 18 156 -20 42 -87 68 -144 56z"/>
<path d="M8103 4143 c-33 -6 -79 -57 -86 -92 -26 -127 122 -210 212 -120 43
42 49 93 18 156 -20 42 -87 68 -144 56z"/>
<path d="M251 4122 c-36 -19 -71 -72 -71 -107 0 -35 35 -88 71 -107 31 -17 65
-18 431 -18 l398 0 -445 -890 c-246 -492 -447 -906 -450 -927 -16 -104 101
-175 190 -117 20 13 134 232 467 898 l440 881 439 -877 c478 -955 459 -923
544 -923 22 0 53 9 68 19 23 15 124 209 469 900 l440 881 438 -874 c321 -643
445 -881 466 -898 78 -62 184 -20 201 81 4 27 -61 164 -446 934 -248 496 -451
904 -451 907 0 3 179 5 398 5 366 0 400 1 431 18 36 19 71 72 71 107 0 35 -35
88 -71 107 -32 17 -115 18 -2014 18 -1899 0 -1982 -1 -2014 -18z m2403 -1004
c-212 -425 -388 -775 -390 -777 -3 -3 -774 1534 -774 1544 0 3 349 5 775 5
l775 0 -386 -772z"/>
</g>
</svg>
