<?xml version="1.0" standalone="no"?>
<!DOCTYPE svg PUBLIC "-//W3C//DTD SVG 20010904//EN"
 "http://www.w3.org/TR/2001/REC-SVG-20010904/DTD/svg10.dtd">
<svg version="1.0" xmlns="http://www.w3.org/2000/svg"
 width="452pt" height="1000pt" viewBox="0 0 452 1000"
 preserveAspectRatio="xMidYMid meet">
<metadata>
Created by potrace 1.9, written by Peter Selinger 2001-2010
</metadata>
<g transform="translate(0,1000) scale(0.100000,-0.100000)"
fill="#000000" stroke="none">
<path d="M3070 6084 c-194 -35 -394 -125 -531 -240 -202 -168 -335 -405 -383
-680 -28 -160 -17 -307 40 -493 27 -90 118 -274 160 -325 l26 -29 -1090 -1091
c-881 -882 -1092 -1098 -1102 -1129 -20 -64 6 -123 67 -152 80 -38 4 -107
1206 1093 970 970 1099 1095 1115 1085 166 -117 345 -186 563 -218 99 -14 112
-14 227 5 160 26 285 68 407 135 308 170 493 448 556 833 18 108 18 123 4 221
-57 391 -248 683 -560 856 -221 122 -481 170 -705 129z m50 -604 l0 -360 -360
0 c-308 0 -360 2 -360 14 0 30 53 183 87 251 70 140 221 293 358 363 71 36
225 91 258 92 16 0 17 -24 17 -360z m352 334 c287 -90 495 -298 582 -585 14
-47 26 -90 26 -97 0 -9 -86 -12 -355 -12 l-355 0 0 360 c0 220 4 360 9 360 6
0 47 -12 93 -26z m-352 -1299 c0 -303 -2 -355 -14 -355 -33 0 -186 54 -256 91
-84 44 -162 102 -181 137 -7 13 -25 30 -39 39 -38 23 -103 109 -143 188 -29
59 -87 223 -87 248 0 4 162 7 360 7 l360 0 0 -355z m960 348 c0 -25 -58 -189
-87 -248 -71 -142 -218 -289 -362 -364 -66 -34 -224 -91 -252 -91 -5 0 -9 138
-9 355 l0 355 355 0 c195 0 355 -3 355 -7z"/>
</g>
</svg>
