<?xml version="1.0" standalone="no"?>
<!DOCTYPE svg PUBLIC "-//W3C//DTD SVG 20010904//EN"
 "http://www.w3.org/TR/2001/REC-SVG-20010904/DTD/svg10.dtd">
<svg version="1.0" xmlns="http://www.w3.org/2000/svg"
 width="452pt" height="1000pt" viewBox="0 0 452 1000"
 preserveAspectRatio="xMidYMid meet">
<metadata>
Created by potrace 1.9, written by Peter Selinger 2001-2010
</metadata>
<g transform="translate(0,1000) scale(0.100000,-0.100000)"
fill="#000000" stroke="none">
<path d="M2213 6084 c-18 -9 -40 -28 -50 -43 -17 -24 -18 -78 -23 -854 l-5
-828 -63 41 c-229 148 -500 225 -792 225 -239 0 -460 -51 -662 -151 -190 -95
-414 -269 -460 -358 -49 -95 25 -201 128 -182 26 5 58 28 113 79 118 111 206
173 326 232 208 101 330 129 555 129 217 0 340 -27 537 -119 100 -47 153 -81
256 -163 l67 -54 0 -841 0 -842 -397 397 c-436 435 -430 430 -506 393 -61 -29
-87 -88 -67 -152 17 -53 973 -1015 1039 -1045 88 -40 61 -62 629 505 358 358
515 522 523 544 6 18 8 47 4 63 -8 39 -56 87 -95 95 -70 15 -85 2 -492 -403
l-388 -387 0 697 0 698 76 -47 c546 -331 1281 -263 1764 162 83 74 100 100
100 159 0 39 -5 51 -35 81 -30 30 -42 35 -81 35 -48 0 -104 -30 -154 -85 -106
-114 -365 -245 -575 -291 -98 -21 -377 -24 -475 -5 -246 48 -562 215 -600 317
-12 33 -15 190 -20 984 -5 890 -6 947 -23 972 -19 28 -73 58 -104 58 -10 0
-32 -8 -50 -16z"/>
</g>
</svg>
