<?xml version="1.0" standalone="no"?>
<!DOCTYPE svg PUBLIC "-//W3C//DTD SVG 20010904//EN"
 "http://www.w3.org/TR/2001/REC-SVG-20010904/DTD/svg10.dtd">
<svg version="1.0" xmlns="http://www.w3.org/2000/svg"
 width="942pt" height="1000pt" viewBox="0 0 942 1000"
 preserveAspectRatio="xMidYMid meet">
<metadata>
Created by potrace 1.9, written by Peter Selinger 2001-2010
</metadata>
<g transform="translate(0,1000) scale(0.100000,-0.100000)"
fill="#000000" stroke="none">
<path d="M4075 6094 c-876 -68 -1599 -651 -1851 -1492 -2 -8 -19 9 -39 39
-163 242 -430 409 -740 463 -224 39 -459 -2 -684 -121 -301 -158 -503 -444
-565 -799 -63 -357 95 -772 383 -1008 188 -154 467 -256 701 -256 87 0 221 22
316 51 37 11 74 23 83 25 9 3 3 -2 -14 -12 -16 -9 -65 -46 -107 -81 -289 -240
-445 -649 -383 -1002 49 -279 185 -523 384 -685 188 -154 467 -256 701 -256
239 0 523 106 712 265 280 236 434 647 373 994 -56 318 -218 578 -466 747 -30
21 -47 35 -38 31 205 -72 386 -92 564 -61 489 85 833 432 920 925 61 347 -93
758 -373 994 -189 159 -473 265 -712 265 -159 0 -355 -50 -508 -130 l-93 -49
22 37 c133 219 395 477 626 616 135 81 328 159 493 200 128 32 147 35 329 50
88 8 166 19 178 26 70 44 69 166 -1 210 -22 14 -124 20 -211 14z m-2565 -1259
c176 -56 318 -152 431 -291 68 -83 117 -178 155 -299 26 -80 29 -104 29 -225
0 -121 -3 -145 -29 -225 -93 -295 -290 -493 -586 -591 -77 -25 -98 -28 -230
-28 -132 0 -153 3 -230 28 -179 59 -319 154 -431 292 -68 82 -117 177 -155
299 -26 82 -29 103 -28 230 0 126 3 149 28 225 95 288 291 488 567 579 106 35
147 40 274 37 97 -3 137 -9 205 -31z m1960 0 c176 -56 318 -152 431 -291 68
-83 117 -178 155 -299 26 -80 29 -104 29 -225 0 -121 -3 -145 -29 -225 -93
-295 -290 -493 -586 -591 -77 -25 -98 -28 -230 -28 -132 0 -153 3 -230 28
-179 59 -319 154 -431 292 -68 82 -117 177 -155 299 -26 82 -29 103 -28 230 0
126 3 149 28 225 95 288 291 488 567 579 106 35 147 40 274 37 97 -3 137 -9
205 -31z m-1171 -1378 c65 -119 192 -254 323 -344 29 -20 46 -34 37 -30 -132
47 -289 77 -399 77 -110 0 -267 -30 -399 -77 -9 -4 8 10 38 31 131 89 256 223
323 346 18 33 35 60 38 60 3 0 20 -28 39 -63z m191 -582 c176 -56 318 -152
431 -291 68 -83 117 -178 155 -299 26 -80 29 -104 29 -225 0 -121 -3 -145 -29
-225 -93 -295 -290 -493 -586 -591 -77 -25 -98 -28 -230 -28 -132 0 -153 3
-230 28 -179 59 -319 154 -431 292 -68 82 -117 177 -155 299 -26 82 -29 103
-28 230 0 126 3 149 28 225 95 288 291 488 567 579 106 35 147 40 274 37 97
-3 137 -9 205 -31z"/>
<path d="M9065 6081 c-27 -13 -341 -320 -954 -934 l-914 -915 -71 57 c-144
116 -292 199 -456 254 -331 112 -656 112 -990 1 -192 -65 -389 -185 -538 -329
-70 -67 -95 -99 -101 -125 -21 -96 61 -174 154 -149 22 6 66 39 118 87 45 43
107 96 137 119 117 88 309 172 476 209 110 24 388 24 498 0 105 -23 254 -78
346 -127 72 -39 205 -134 231 -165 11 -13 -124 -152 -943 -972 -1009 -1010
-989 -989 -973 -1062 8 -39 56 -87 95 -95 16 -4 45 -2 62 4 23 8 310 287 978
956 520 520 948 945 953 945 4 0 38 -22 75 -49 161 -116 326 -193 518 -242
414 -104 849 -30 1208 208 100 67 215 165 240 205 9 14 16 47 16 72 0 39 -5
51 -35 81 -30 30 -42 35 -81 35 -48 0 -104 -30 -154 -85 -106 -114 -365 -245
-575 -291 -99 -21 -377 -24 -475 -5 -165 32 -370 119 -497 211 l-62 45 944
945 c1033 1034 978 973 940 1053 -32 67 -102 91 -170 58z"/>
</g>
</svg>
