<?xml version="1.0" standalone="no"?>
<!DOCTYPE svg PUBLIC "-//W3C//DTD SVG 20010904//EN"
 "http://www.w3.org/TR/2001/REC-SVG-20010904/DTD/svg10.dtd">
<svg version="1.0" xmlns="http://www.w3.org/2000/svg"
 width="942pt" height="1000pt" viewBox="0 0 942 1000"
 preserveAspectRatio="xMidYMid meet">
<metadata>
Created by potrace 1.9, written by Peter Selinger 2001-2010
</metadata>
<g transform="translate(0,1000) scale(0.100000,-0.100000)"
fill="#000000" stroke="none">
<path d="M6990 6084 c-194 -35 -394 -125 -531 -240 -290 -242 -446 -650 -384
-1003 49 -279 185 -523 384 -685 138 -113 340 -206 514 -236 l67 -12 0 -864 0
-864 -928 0 c-879 0 -929 -1 -961 -18 -36 -19 -71 -72 -71 -107 0 -35 35 -88
71 -107 32 -17 115 -18 2014 -18 1899 0 1982 1 2014 18 36 19 71 72 71 107 0
35 -35 88 -71 107 -32 17 -82 18 -961 18 l-928 0 0 865 0 864 38 6 c20 4 78
18 127 31 417 115 712 448 790 895 61 347 -93 758 -373 994 -241 203 -592 302
-882 249z m400 -269 c176 -56 318 -152 431 -291 68 -83 117 -178 155 -299 26
-80 29 -104 29 -225 0 -121 -3 -145 -29 -225 -93 -295 -290 -493 -586 -591
-77 -25 -98 -28 -230 -28 -132 0 -153 3 -230 28 -179 59 -319 154 -431 292
-68 82 -117 177 -155 299 -26 82 -29 103 -28 230 0 126 3 149 28 225 95 288
291 488 567 579 106 35 147 40 274 37 97 -3 137 -9 205 -31z"/>
<path d="M251 4122 c-19 -10 -43 -34 -53 -53 -17 -32 -18 -84 -18 -1034 0
-950 1 -1002 18 -1034 10 -19 34 -43 53 -53 32 -17 115 -18 2014 -18 1899 0
1982 1 2014 18 19 10 43 34 53 53 17 32 18 84 18 1034 0 950 -1 1002 -18 1034
-19 36 -72 71 -107 71 -35 0 -88 -35 -107 -71 -17 -32 -18 -82 -18 -961 l0
-928 -855 0 -855 0 0 928 c0 879 -1 929 -18 961 -19 36 -72 71 -107 71 -35 0
-88 -35 -107 -71 -17 -32 -18 -82 -18 -961 l0 -928 -855 0 -855 0 0 928 c0
879 -1 929 -18 961 -19 36 -72 71 -107 71 -11 0 -36 -8 -54 -18z"/>
</g>
</svg>
