<?xml version="1.0" standalone="no"?>
<!DOCTYPE svg PUBLIC "-//W3C//DTD SVG 20010904//EN"
 "http://www.w3.org/TR/2001/REC-SVG-20010904/DTD/svg10.dtd">
<svg version="1.0" xmlns="http://www.w3.org/2000/svg"
 width="1824pt" height="1000pt" viewBox="0 0 1824 1000"
 preserveAspectRatio="xMidYMid meet">
<metadata>
Created by potrace 1.9, written by Peter Selinger 2001-2010
</metadata>
<g transform="translate(0,1000) scale(0.100000,-0.100000)"
fill="#000000" stroke="none">
<path d="M2115 6094 c-684 -55 -1279 -418 -1631 -994 -178 -294 -280 -628
-299 -990 -7 -132 5 -169 66 -202 32 -17 110 -18 1849 -18 l1815 0 -387 -387
c-402 -404 -420 -426 -403 -490 16 -67 79 -110 143 -98 32 5 92 61 435 403
l397 397 0 -840 c0 -795 1 -842 18 -874 19 -36 72 -71 107 -71 35 0 88 35 107
71 17 32 18 115 18 2014 0 1899 -1 1982 -18 2014 -19 35 -72 71 -105 71 -31 0
-85 -30 -104 -58 -17 -25 -18 -66 -23 -535 l-5 -507 -49 82 c-242 408 -624
726 -1066 888 -108 39 -286 84 -416 104 -102 16 -357 27 -449 20z m418 -265
c215 -32 478 -126 660 -235 242 -146 495 -399 641 -641 77 -130 158 -326 197
-478 11 -44 22 -89 26 -100 3 -11 -165 150 -373 357 -326 324 -384 378 -416
383 -64 12 -127 -31 -143 -98 -17 -64 1 -86 403 -489 l387 -388 -1738 0 -1737
0 0 41 c0 148 74 422 170 627 168 359 503 694 862 862 210 98 418 154 648 174
73 6 334 -3 413 -15z"/>
<path d="M11045 6092 c-33 -12 -51 -26 -68 -53 -16 -24 -17 -178 -17 -2019 0
-1982 0 -1993 20 -2025 11 -18 36 -40 54 -49 37 -17 86 -14 341 20 615 84
1154 439 1481 974 199 327 298 686 298 1080 0 562 -212 1078 -604 1470 -316
315 -715 515 -1165 584 -118 18 -312 28 -340 18z m308 -263 c215 -32 478 -126
660 -235 242 -146 495 -399 641 -641 110 -184 201 -440 237 -668 7 -44 13
-163 13 -265 0 -195 -10 -285 -49 -440 -84 -331 -239 -604 -485 -850 -204
-203 -406 -333 -670 -430 -145 -53 -359 -100 -454 -100 l-36 0 0 1820 0 1820
36 0 c19 0 68 -5 107 -11z"/>
<path d="M15925 6087 c-63 -29 -89 -121 -51 -179 10 -15 68 -70 129 -122 349
-294 605 -686 732 -1119 122 -419 122 -875 0 -1294 -127 -433 -383 -825 -732
-1119 -61 -52 -119 -107 -129 -122 -24 -37 -22 -102 5 -140 32 -45 75 -55 200
-47 537 34 1007 241 1371 605 392 392 604 908 604 1470 0 562 -212 1078 -604
1470 -367 366 -850 578 -1380 605 -87 4 -122 2 -145 -8z m530 -301 c296 -75
579 -241 815 -476 246 -246 401 -519 485 -850 39 -155 49 -245 49 -440 0 -195
-10 -285 -49 -440 -84 -331 -239 -604 -485 -850 -204 -203 -406 -333 -670
-430 -89 -32 -232 -72 -238 -65 -2 1 25 34 61 72 155 166 343 462 445 701 154
358 228 787 203 1165 -28 410 -145 797 -341 1133 -90 153 -216 331 -294 414
-29 30 -59 64 -67 74 -13 17 -12 18 6 13 11 -3 47 -13 80 -21z"/>
<path d="M8950 5104 c-194 -35 -394 -125 -531 -240 -290 -242 -446 -650 -384
-1003 49 -279 185 -523 384 -685 145 -119 339 -206 536 -240 114 -20 216 -20
330 0 489 85 833 432 920 925 61 347 -93 758 -373 994 -241 203 -592 302 -882
249z m400 -269 c176 -56 318 -152 431 -291 68 -83 117 -178 155 -299 26 -80
29 -104 29 -225 0 -121 -3 -145 -29 -225 -93 -295 -290 -493 -586 -591 -77
-25 -98 -28 -230 -28 -132 0 -153 3 -230 28 -179 59 -319 154 -431 292 -68 82
-117 177 -155 299 -26 82 -29 103 -28 230 0 126 3 149 28 225 95 288 291 488
567 579 106 35 147 40 274 37 97 -3 137 -9 205 -31z"/>
<path d="M14461 5102 c-70 -37 -71 -45 -71 -436 l0 -350 -152 151 c-125 124
-160 153 -190 158 -64 12 -127 -31 -143 -98 -15 -59 10 -95 221 -307 l204
-205 -200 -200 c-209 -209 -240 -252 -226 -311 17 -68 80 -111 144 -99 30 5
65 34 190 158 l152 151 0 -350 c0 -391 1 -399 71 -436 42 -23 66 -23 108 0 70
37 71 46 71 431 l0 345 143 -141 c149 -147 187 -171 247 -158 39 8 87 56 95
95 13 60 -8 88 -225 305 l-210 210 214 215 c180 180 216 221 221 252 12 64
-31 127 -98 143 -55 14 -97 -13 -244 -158 l-143 -141 0 345 c0 314 -2 347 -18
378 -19 36 -72 71 -107 71 -11 0 -36 -8 -54 -18z"/>
<path d="M5151 4122 c-36 -19 -71 -72 -71 -107 0 -35 35 -88 71 -107 32 -17
84 -18 1034 -18 950 0 1002 1 1034 18 36 19 71 72 71 107 0 35 -35 88 -71 107
-32 17 -84 18 -1034 18 -950 0 -1002 -1 -1034 -18z"/>
<path d="M8091 2162 c-36 -19 -71 -72 -71 -107 0 -35 35 -88 71 -107 32 -17
84 -18 1034 -18 950 0 1002 1 1034 18 36 19 71 72 71 107 0 35 -35 88 -71 107
-32 17 -84 18 -1034 18 -950 0 -1002 -1 -1034 -18z"/>
</g>
</svg>
