<?xml version="1.0" standalone="no"?>
<!DOCTYPE svg PUBLIC "-//W3C//DTD SVG 20010904//EN"
 "http://www.w3.org/TR/2001/REC-SVG-20010904/DTD/svg10.dtd">
<svg version="1.0" xmlns="http://www.w3.org/2000/svg"
 width="1236pt" height="1000pt" viewBox="0 0 1236 1000"
 preserveAspectRatio="xMidYMid meet">
<metadata>
Created by potrace 1.9, written by Peter Selinger 2001-2010
</metadata>
<g transform="translate(0,1000) scale(0.100000,-0.100000)"
fill="#000000" stroke="none">
<path d="M251 6082 c-19 -10 -43 -34 -53 -53 -17 -32 -18 -84 -18 -1034 0
-950 1 -1002 18 -1034 10 -19 34 -43 53 -53 32 -17 82 -18 961 -18 l928 0 0
-928 c0 -879 1 -929 18 -961 19 -36 72 -71 107 -71 35 0 88 35 107 71 17 32
18 113 18 1936 l0 1903 36 0 c95 0 309 -47 454 -100 264 -97 466 -227 670
-430 246 -246 402 -521 484 -850 32 -128 35 -147 50 -329 8 -88 19 -166 26
-178 45 -72 172 -69 212 5 18 34 14 225 -7 362 -71 458 -269 853 -585 1170
-392 392 -908 604 -1470 604 -204 0 -323 -15 -520 -64 -526 -133 -990 -478
-1261 -940 l-44 -75 -5 500 c-6 556 -3 535 -75 569 -43 21 -63 20 -104 -2z
m1889 -1092 l0 -850 -850 0 -850 0 0 41 c0 193 115 553 246 772 146 242 399
495 641 641 218 130 561 241 761 245 l52 1 0 -850z"/>
<path d="M10051 6082 c-19 -10 -43 -34 -53 -53 -17 -32 -18 -115 -18 -2014 0
-1899 1 -1982 18 -2014 10 -19 34 -43 53 -53 32 -17 84 -18 1034 -18 950 0
1002 1 1034 18 36 19 71 72 71 107 0 35 -35 88 -71 107 -32 17 -82 18 -961 18
l-928 0 0 1908 c0 1828 -1 1909 -18 1941 -19 36 -72 71 -107 71 -11 0 -36 -8
-54 -18z"/>
<path d="M5151 5102 c-19 -10 -43 -34 -53 -53 -17 -32 -18 -77 -18 -789 0
-712 1 -757 18 -789 19 -36 72 -71 107 -71 35 0 88 35 107 71 17 32 18 77 18
789 0 712 -1 757 -18 789 -19 36 -72 71 -107 71 -11 0 -36 -8 -54 -18z"/>
<path d="M6990 5104 c-194 -35 -394 -125 -531 -240 -290 -242 -446 -650 -384
-1003 49 -279 185 -523 384 -685 188 -154 467 -256 701 -256 131 0 349 49 453
101 36 19 38 19 75 0 57 -29 189 -68 288 -85 113 -20 215 -20 329 0 489 85
833 432 920 925 61 347 -93 758 -373 994 -189 159 -473 265 -712 265 -131 0
-349 -49 -452 -101 -37 -19 -39 -19 -75 0 -21 10 -75 30 -119 44 -175 55 -349
69 -504 41z m324 -249 c38 -8 71 -16 73 -19 3 -2 -31 -45 -74 -95 -209 -245
-310 -587 -258 -881 38 -215 126 -406 258 -561 43 -50 77 -93 74 -95 -2 -3
-37 -12 -78 -20 -221 -47 -499 28 -685 185 -137 115 -223 246 -280 426 -26 82
-29 103 -28 230 0 126 3 149 28 225 59 179 144 307 281 422 101 86 258 160
396 187 70 14 218 12 293 -4z m1056 -20 c176 -56 318 -152 431 -291 68 -83
117 -178 155 -299 26 -80 29 -104 29 -225 0 -121 -3 -145 -29 -225 -93 -295
-293 -497 -586 -590 -111 -35 -271 -44 -379 -21 -41 8 -76 18 -78 20 -3 3 25
39 61 81 146 167 231 347 271 576 27 155 15 305 -41 487 -45 150 -119 281
-230 407 -36 42 -64 78 -61 81 2 3 33 11 68 19 102 23 283 14 389 -20z m-660
-175 c127 -110 211 -242 266 -415 26 -80 29 -104 29 -225 0 -121 -3 -145 -29
-225 -55 -174 -139 -305 -267 -416 l-59 -51 -59 51 c-128 111 -212 242 -267
416 -26 82 -29 103 -28 230 0 126 3 149 28 225 57 171 139 299 264 409 32 28
59 50 61 51 2 0 29 -23 61 -50z"/>
<path d="M11515 5101 c-26 -12 -208 -188 -531 -512 -535 -538 -529 -530 -504
-613 10 -35 85 -115 503 -535 519 -520 542 -540 613 -527 41 8 90 56 99 96 4
16 2 45 -4 62 -8 23 -151 173 -466 488 l-455 455 459 460 c503 504 493 491
456 568 -32 67 -102 91 -170 58z"/>
<path d="M5163 3173 c-33 -6 -79 -57 -86 -92 -26 -127 122 -210 212 -120 43
42 49 93 18 156 -20 42 -87 68 -144 56z"/>
</g>
</svg>
