<?xml version="1.0" standalone="no"?>
<!DOCTYPE svg PUBLIC "-//W3C//DTD SVG 20010904//EN"
 "http://www.w3.org/TR/2001/REC-SVG-20010904/DTD/svg10.dtd">
<svg version="1.0" xmlns="http://www.w3.org/2000/svg"
 width="746pt" height="1000pt" viewBox="0 0 746 1000"
 preserveAspectRatio="xMidYMid meet">
<metadata>
Created by potrace 1.9, written by Peter Selinger 2001-2010
</metadata>
<g transform="translate(0,1000) scale(0.100000,-0.100000)"
fill="#000000" stroke="none">
<path d="M251 6082 c-19 -10 -43 -34 -53 -53 -17 -32 -18 -116 -18 -2039 0
-2180 -3 -2065 56 -2259 36 -119 123 -280 204 -376 167 -199 404 -332 675
-379 364 -64 780 97 1017 394 125 155 201 338 239 569 18 111 19 201 19 2086
0 1889 -1 1972 -18 2004 -19 36 -72 71 -107 71 -35 0 -88 -35 -107 -71 -17
-32 -18 -104 -18 -1659 l0 -1625 -45 51 c-107 123 -303 249 -470 303 -240 78
-440 79 -679 5 -169 -53 -381 -189 -480 -307 l-36 -42 0 1620 c0 1550 -1 1622
-18 1654 -19 36 -72 71 -107 71 -11 0 -36 -8 -54 -18z m1259 -3207 c176 -56
318 -152 431 -291 68 -83 117 -178 155 -299 26 -80 29 -104 29 -225 0 -121 -3
-145 -29 -225 -93 -295 -290 -493 -586 -591 -77 -25 -98 -28 -230 -28 -132 0
-153 3 -230 28 -179 59 -319 154 -431 292 -68 82 -117 177 -155 299 -26 82
-29 103 -28 230 0 126 3 149 28 225 95 288 291 488 567 579 106 35 147 40 274
37 97 -3 137 -9 205 -31z"/>
<path d="M5129 6083 c-44 -27 -51 -51 -65 -214 -15 -182 -18 -201 -50 -329
-82 -329 -238 -604 -484 -850 -246 -246 -521 -402 -850 -484 -128 -32 -147
-35 -329 -50 -88 -8 -166 -19 -178 -26 -73 -46 -70 -172 5 -212 60 -31 354 -5
582 52 530 134 985 474 1266 948 l49 82 5 -1492 c5 -1419 6 -1494 23 -1520 19
-27 72 -58 102 -58 30 0 83 31 102 58 17 26 18 101 23 1512 l5 1485 44 -75
c269 -460 737 -808 1261 -940 228 -57 522 -83 582 -52 74 40 77 167 5 212 -12
7 -90 18 -178 26 -182 15 -201 18 -329 50 -165 41 -358 119 -493 200 -240 145
-495 400 -640 641 -82 135 -160 327 -201 493 -32 128 -35 147 -50 329 -8 88
-19 166 -26 178 -32 51 -127 70 -181 36z"/>
<path d="M1243 5123 c-33 -6 -79 -57 -86 -92 -26 -127 122 -210 212 -120 43
42 49 93 18 156 -20 42 -87 68 -144 56z"/>
<path d="M1243 4143 c-33 -6 -79 -57 -86 -92 -26 -127 122 -210 212 -120 43
42 49 93 18 156 -20 42 -87 68 -144 56z"/>
</g>
</svg>
