<?xml version="1.0" standalone="no"?>
<!DOCTYPE svg PUBLIC "-//W3C//DTD SVG 20010904//EN"
 "http://www.w3.org/TR/2001/REC-SVG-20010904/DTD/svg10.dtd">
<svg version="1.0" xmlns="http://www.w3.org/2000/svg"
 width="1285pt" height="1000pt" viewBox="0 0 1285 1000"
 preserveAspectRatio="xMidYMid meet">
<metadata>
Created by potrace 1.9, written by Peter Selinger 2001-2010
</metadata>
<g transform="translate(0,1000) scale(0.100000,-0.100000)"
fill="#000000" stroke="none">
<path d="M3191 6082 c-19 -10 -43 -34 -53 -53 -17 -32 -18 -88 -18 -1167 l0
-1133 -72 74 c-40 41 -101 94 -134 119 -125 91 -333 178 -486 203 l-38 6 0
442 c0 494 1 491 -71 529 -32 17 -84 18 -1034 18 -950 0 -1002 -1 -1034 -18
-19 -10 -43 -34 -53 -53 -17 -32 -18 -84 -18 -1034 0 -950 1 -1002 18 -1034
38 -72 35 -71 529 -71 l442 0 6 -37 c17 -99 70 -256 122 -353 158 -300 445
-502 798 -564 364 -64 780 97 1017 394 125 155 201 338 239 569 18 110 19 192
19 1596 0 1415 -1 1482 -18 1514 -19 36 -72 71 -107 71 -11 0 -36 -8 -54 -18z
m-1051 -1581 l0 -369 -66 -11 c-251 -44 -496 -185 -658 -380 -112 -134 -206
-339 -237 -515 l-11 -66 -369 0 -369 0 0 855 0 855 855 0 855 0 0 -369z m0
-981 l0 -360 -360 0 c-308 0 -360 2 -360 14 0 30 53 183 87 251 70 140 221
293 358 363 71 36 225 91 258 92 16 0 17 -24 17 -360z m352 334 c173 -54 316
-151 429 -290 68 -83 117 -178 155 -299 26 -80 29 -104 29 -225 0 -121 -3
-145 -29 -225 -93 -295 -290 -493 -586 -591 -77 -25 -98 -28 -230 -28 -132 0
-153 3 -230 28 -295 97 -497 300 -584 587 -14 47 -26 88 -26 92 0 4 195 7 433
7 483 0 481 0 519 71 17 31 18 66 18 466 0 266 4 433 9 433 6 0 47 -12 93 -26z"/>
<path d="M6109 6083 c-44 -27 -51 -51 -65 -214 -15 -182 -18 -201 -50 -329
-82 -329 -238 -604 -484 -850 -246 -246 -521 -402 -850 -484 -128 -32 -147
-35 -329 -50 -88 -8 -166 -19 -178 -26 -73 -46 -70 -172 5 -212 60 -31 354 -5
582 52 530 134 985 474 1266 948 l49 82 5 -1492 c5 -1419 6 -1494 23 -1520 19
-27 72 -58 102 -58 30 0 83 31 102 58 17 26 18 101 23 1512 l5 1485 44 -75
c269 -460 737 -808 1261 -940 228 -57 522 -83 582 -52 74 40 77 167 5 212 -12
7 -90 18 -178 26 -182 15 -201 18 -329 50 -165 41 -358 119 -493 200 -240 145
-495 400 -640 641 -82 135 -160 327 -201 493 -32 128 -35 147 -50 329 -8 88
-19 166 -26 178 -32 51 -127 70 -181 36z"/>
<path d="M9071 6082 c-36 -19 -71 -72 -71 -107 0 -35 35 -88 71 -107 32 -17
84 -18 1034 -18 950 0 1002 1 1034 18 36 19 71 72 71 107 0 35 -35 88 -71 107
-32 17 -84 18 -1034 18 -950 0 -1002 -1 -1034 -18z"/>
<path d="M12495 6081 c-26 -12 -208 -188 -531 -512 -535 -538 -529 -530 -504
-613 10 -35 85 -115 503 -535 519 -520 542 -540 613 -527 41 8 90 56 99 96 4
16 2 45 -4 62 -8 23 -151 173 -466 488 l-455 455 459 460 c503 504 493 491
456 568 -32 67 -102 91 -170 58z"/>
<path d="M9071 5102 c-36 -19 -71 -72 -71 -107 0 -35 35 -88 71 -107 32 -17
84 -18 1034 -18 950 0 1002 1 1034 18 36 19 71 72 71 107 0 35 -35 88 -71 107
-32 17 -84 18 -1034 18 -950 0 -1002 -1 -1034 -18z"/>
<path d="M9071 4122 c-36 -19 -71 -72 -71 -107 0 -35 35 -88 71 -107 32 -17
84 -18 1034 -18 950 0 1002 1 1034 18 36 19 71 72 71 107 0 35 -35 88 -71 107
-32 17 -84 18 -1034 18 -950 0 -1002 -1 -1034 -18z"/>
<path d="M9071 3142 c-36 -19 -71 -72 -71 -107 0 -35 35 -88 71 -107 32 -17
84 -18 1034 -18 950 0 1002 1 1034 18 36 19 71 72 71 107 0 35 -35 88 -71 107
-32 17 -84 18 -1034 18 -950 0 -1002 -1 -1034 -18z"/>
<path d="M9071 2162 c-36 -19 -71 -72 -71 -107 0 -35 35 -88 71 -107 32 -17
84 -18 1034 -18 950 0 1002 1 1034 18 36 19 71 72 71 107 0 35 -35 88 -71 107
-32 17 -84 18 -1034 18 -950 0 -1002 -1 -1034 -18z"/>
</g>
</svg>
