<?xml version="1.0" standalone="no"?>
<!DOCTYPE svg PUBLIC "-//W3C//DTD SVG 20010904//EN"
 "http://www.w3.org/TR/2001/REC-SVG-20010904/DTD/svg10.dtd">
<svg version="1.0" xmlns="http://www.w3.org/2000/svg"
 width="354pt" height="1000pt" viewBox="0 0 354 1000"
 preserveAspectRatio="xMidYMid meet">
<metadata>
Created by potrace 1.9, written by Peter Selinger 2001-2010
</metadata>
<g transform="translate(0,1000) scale(0.100000,-0.100000)"
fill="#000000" stroke="none">
<path d="M2115 4133 c-159 -10 -418 -66 -575 -123 -276 -101 -539 -270 -750
-480 -366 -367 -576 -845 -605 -1380 -6 -102 -4 -119 13 -149 40 -73 27 -71
597 -71 475 0 513 1 544 18 53 29 67 66 75 199 16 262 68 469 176 701 168 359
503 694 862 862 232 108 439 160 701 176 80 5 127 12 149 24 33 18 68 71 68
105 0 35 -35 88 -71 107 -32 17 -68 18 -584 16 -302 -1 -572 -3 -600 -5z m125
-247 c0 -2 -33 -23 -72 -46 -394 -232 -718 -623 -878 -1060 -57 -158 -120
-449 -120 -559 l0 -41 -365 0 -365 0 0 41 c0 193 115 553 246 772 146 242 399
495 641 641 187 112 456 207 668 235 112 15 245 24 245 17z"/>
</g>
</svg>
