<?xml version="1.0" standalone="no"?>
<!DOCTYPE svg PUBLIC "-//W3C//DTD SVG 20010904//EN"
 "http://www.w3.org/TR/2001/REC-SVG-20010904/DTD/svg10.dtd">
<svg version="1.0" xmlns="http://www.w3.org/2000/svg"
 width="452pt" height="1000pt" viewBox="0 0 452 1000"
 preserveAspectRatio="xMidYMid meet">
<metadata>
Created by potrace 1.9, written by Peter Selinger 2001-2010
</metadata>
<g transform="translate(0,1000) scale(0.100000,-0.100000)"
fill="#000000" stroke="none">
<path d="M2212 8044 c-18 -9 -41 -29 -51 -43 -40 -56 -501 -992 -506 -1028
-11 -74 61 -150 132 -139 68 10 76 22 280 430 l195 391 193 -385 c200 -398
216 -423 282 -436 39 -7 95 18 118 53 41 62 45 53 -233 609 -194 389 -267 525
-287 538 -39 25 -85 29 -123 10z"/>
<path d="M251 6082 c-35 -19 -71 -72 -71 -105 0 -52 40 -101 276 -338 218
-218 243 -247 229 -259 -26 -21 -157 -206 -214 -302 -133 -224 -222 -478 -266
-758 -21 -137 -25 -328 -7 -362 40 -74 167 -77 212 -5 7 12 18 90 26 178 15
182 18 201 50 329 62 249 176 483 336 689 27 34 51 61 56 61 4 0 276 -269 605
-598 l597 -597 -825 -825 -825 -825 0 345 c0 315 -2 348 -18 379 -19 36 -72
71 -107 71 -35 0 -88 -35 -107 -71 -17 -31 -18 -69 -18 -544 0 -475 1 -513 18
-544 10 -19 34 -43 53 -53 31 -17 69 -18 544 -18 475 0 513 1 544 18 35 19 71
72 71 105 0 31 -30 85 -58 104 -24 16 -61 18 -385 23 l-357 5 765 765 765 765
0 -840 c0 -795 1 -842 18 -874 19 -36 72 -71 107 -71 35 0 88 35 107 71 17 32
18 113 18 1936 l0 1903 36 0 c95 0 309 -47 454 -100 264 -97 466 -227 670
-430 246 -246 402 -521 484 -850 32 -128 35 -147 50 -329 8 -88 19 -166 26
-178 45 -72 172 -69 212 5 18 34 14 225 -7 362 -71 458 -269 853 -585 1170
-392 392 -908 604 -1470 604 -393 0 -753 -99 -1079 -298 -100 -61 -228 -152
-274 -194 l-28 -26 -252 251 c-139 139 -265 257 -280 263 -39 14 -57 13 -96
-8z m1889 -1004 l0 -763 -540 540 c-450 450 -537 541 -527 554 18 22 183 142
254 185 218 130 561 241 761 245 l52 1 0 -762z"/>
</g>
</svg>
