<?xml version="1.0" standalone="no"?>
<!DOCTYPE svg PUBLIC "-//W3C//DTD SVG 20010904//EN"
 "http://www.w3.org/TR/2001/REC-SVG-20010904/DTD/svg10.dtd">
<svg version="1.0" xmlns="http://www.w3.org/2000/svg"
 width="1138pt" height="1000pt" viewBox="0 0 1138 1000"
 preserveAspectRatio="xMidYMid meet">
<metadata>
Created by potrace 1.9, written by Peter Selinger 2001-2010
</metadata>
<g transform="translate(0,1000) scale(0.100000,-0.100000)"
fill="#000000" stroke="none">
<path d="M251 6082 c-19 -10 -43 -34 -53 -53 -17 -32 -18 -115 -18 -2014 0
-1899 1 -1982 18 -2014 10 -19 34 -43 53 -53 32 -17 115 -18 2014 -18 1899 0
1982 1 2014 18 19 10 43 34 53 53 17 32 18 115 18 2014 0 1899 -1 1982 -18
2014 -10 19 -34 43 -53 53 -32 17 -115 18 -2014 18 -1899 0 -1982 -1 -2014
-18z m1889 -2067 l0 -1835 -855 0 -855 0 0 1835 0 1835 855 0 855 0 0 -1835z
m1960 0 l0 -1835 -855 0 -855 0 0 1835 0 1835 855 0 855 0 0 -1835z"/>
<path d="M1243 4143 c-33 -6 -79 -57 -86 -92 -26 -127 122 -210 212 -120 43
42 49 93 18 156 -20 42 -87 68 -144 56z"/>
<path d="M3203 4143 c-33 -6 -79 -57 -86 -92 -26 -127 122 -210 212 -120 43
42 49 93 18 156 -20 42 -87 68 -144 56z"/>
<path d="M6125 5101 c-26 -12 -208 -188 -531 -512 -535 -538 -529 -530 -504
-613 10 -35 85 -115 503 -535 519 -520 542 -540 613 -527 41 8 90 56 99 96 4
16 2 45 -4 62 -8 23 -151 173 -466 488 l-455 455 459 460 c503 504 493 491
456 568 -32 67 -102 91 -170 58z"/>
<path d="M7111 5102 c-64 -34 -71 -62 -71 -283 l0 -196 -59 -6 c-313 -33 -631
-182 -859 -402 -70 -67 -95 -99 -101 -125 -21 -96 61 -174 154 -149 22 6 66
39 118 87 104 99 173 150 267 201 132 71 356 141 450 141 l30 0 0 -678 c0
-637 1 -679 18 -711 10 -19 34 -43 53 -53 32 -17 84 -18 1034 -18 950 0 1002
1 1034 18 67 36 71 57 71 333 l0 246 83 12 c299 45 591 183 798 376 68 63 79
83 79 137 0 41 -5 52 -35 83 -30 30 -42 35 -81 35 -48 0 -104 -30 -154 -85
-39 -42 -148 -120 -230 -163 -130 -69 -355 -142 -440 -142 -20 0 -20 2 -20
628 0 588 -1 629 -18 661 -10 19 -34 43 -53 53 -32 17 -84 18 -1034 18 -950 0
-1002 -1 -1034 -18z m1889 -787 l0 -555 -32 0 c-143 1 -425 111 -583 228 -67
49 -83 66 -93 99 -9 31 -35 63 -105 130 -222 212 -501 347 -814 394 l-83 12 0
124 0 123 855 0 855 0 0 -555z m-1593 39 c168 -35 358 -120 488 -219 91 -69
120 -101 135 -149 29 -90 294 -283 514 -372 106 -43 285 -90 384 -99 l72 -8 0
-173 0 -174 -855 0 -855 0 0 605 c0 602 0 605 20 605 12 0 55 -7 97 -16z"/>
<path d="M10051 5102 c-36 -19 -71 -73 -71 -107 1 -57 49 -111 479 -540 l441
-440 -449 -450 c-468 -470 -483 -487 -466 -552 16 -67 79 -110 143 -98 32 5
105 74 550 518 358 358 515 522 523 544 24 73 30 65 -509 607 -290 290 -521
514 -539 522 -43 18 -61 18 -102 -4z"/>
</g>
</svg>
