<?xml version="1.0" standalone="no"?>
<!DOCTYPE svg PUBLIC "-//W3C//DTD SVG 20010904//EN"
 "http://www.w3.org/TR/2001/REC-SVG-20010904/DTD/svg10.dtd">
<svg version="1.0" xmlns="http://www.w3.org/2000/svg"
 width="844pt" height="1000pt" viewBox="0 0 844 1000"
 preserveAspectRatio="xMidYMid meet">
<metadata>
Created by potrace 1.9, written by Peter Selinger 2001-2010
</metadata>
<g transform="translate(0,1000) scale(0.100000,-0.100000)"
fill="#000000" stroke="none">
<path d="M2205 6081 c-28 -13 -345 -325 -1021 -1002 -792 -794 -984 -991 -994
-1022 -20 -64 6 -123 67 -152 80 -38 18 -93 1056 943 l947 947 920 -920 920
-920 0 -887 0 -888 -438 0 c-404 0 -440 -1 -471 -18 -36 -19 -71 -72 -71 -107
0 -35 35 -88 71 -107 32 -17 84 -18 1034 -18 950 0 1002 1 1034 18 36 19 71
72 71 107 0 35 -35 88 -71 107 -31 17 -67 18 -471 18 l-438 0 0 893 0 892 915
915 915 915 942 -941 c995 -994 975 -975 1048 -959 39 8 87 56 95 95 4 16 2
45 -4 62 -8 24 -302 324 -1013 1035 -808 806 -1009 1002 -1035 1008 -77 16
-56 35 -985 -893 l-878 -877 0 835 c0 790 -1 837 -18 869 -19 36 -72 71 -107
71 -35 0 -88 -35 -107 -71 -17 -32 -18 -79 -18 -874 l0 -840 -882 882 c-497
497 -895 887 -911 893 -39 14 -56 13 -102 -9z"/>
</g>
</svg>
