<?xml version="1.0" standalone="no"?>
<!DOCTYPE svg PUBLIC "-//W3C//DTD SVG 20010904//EN"
 "http://www.w3.org/TR/2001/REC-SVG-20010904/DTD/svg10.dtd">
<svg version="1.0" xmlns="http://www.w3.org/2000/svg"
 width="1236pt" height="1000pt" viewBox="0 0 1236 1000"
 preserveAspectRatio="xMidYMid meet">
<metadata>
Created by potrace 1.9, written by Peter Selinger 2001-2010
</metadata>
<g transform="translate(0,1000) scale(0.100000,-0.100000)"
fill="#000000" stroke="none">
<path d="M5055 6094 c-684 -55 -1279 -418 -1631 -994 -143 -235 -234 -491
-279 -780 -21 -137 -25 -328 -7 -362 40 -74 167 -77 212 -5 7 12 18 90 26 178
15 182 18 201 50 329 82 329 238 604 484 850 246 246 519 401 850 485 155 39
245 49 440 49 195 0 285 -10 440 -49 331 -84 604 -239 850 -485 246 -246 402
-521 484 -850 32 -128 35 -147 50 -329 8 -88 19 -166 26 -178 45 -72 172 -69
212 5 18 34 14 225 -7 362 -71 458 -269 853 -585 1170 -378 377 -876 590
-1416 604 -82 2 -171 2 -199 0z"/>
<path d="M8950 6084 c-122 -22 -238 -62 -349 -121 -308 -161 -509 -452 -568
-819 -16 -100 -16 -107 6 -249 85 -558 284 -1107 548 -1517 l43 -67 -300 -600
c-165 -330 -302 -617 -305 -638 -8 -49 19 -100 66 -125 32 -17 115 -18 2014
-18 1899 0 1982 1 2014 18 36 19 71 72 71 107 1 11 -137 297 -306 635 l-307
616 72 118 c264 438 435 915 520 1451 20 125 19 131 -5 283 -77 488 -428 840
-920 926 -160 28 -319 15 -498 -40 -106 -33 -274 -122 -349 -185 -32 -27 -62
-49 -66 -49 -4 0 -34 54 -66 121 -67 136 -95 164 -160 164 -66 0 -96 -30 -167
-170 l-63 -124 -73 58 c-233 186 -574 276 -852 225z m400 -269 c151 -49 287
-131 380 -230 l24 -26 -494 -989 c-272 -545 -497 -990 -500 -990 -7 0 -42 64
-121 222 -173 345 -295 728 -354 1113 -20 130 -15 201 22 318 88 280 289 485
564 576 106 35 147 40 274 37 97 -3 136 -9 205 -31z m1960 0 c293 -94 488
-290 586 -585 25 -76 28 -100 28 -220 0 -110 -5 -159 -27 -265 -83 -390 -211
-736 -405 -1094 l-45 -84 -499 998 -499 997 23 25 c86 92 225 178 359 222 106
35 147 40 274 37 97 -3 136 -9 205 -31z m-1181 -269 c-13 -25 -26 -46 -29 -46
-3 0 -15 20 -28 44 l-24 44 28 53 27 54 25 -52 25 -52 -24 -45z m1128 -2266
c-120 -174 -381 -462 -565 -623 -249 -217 -560 -435 -603 -422 -27 9 -256 165
-359 244 -279 215 -615 562 -783 808 l-28 41 494 988 c457 914 496 987 506
962 25 -66 42 -140 50 -229 5 -53 15 -106 22 -117 43 -69 175 -69 218 0 7 12
17 65 22 119 5 55 21 136 35 182 l26 82 498 -995 498 -995 -31 -45z m-2137
-593 c178 -185 399 -375 555 -480 l40 -27 -683 0 c-375 0 -682 2 -682 5 0 3
99 203 220 445 l220 440 98 -122 c54 -68 158 -185 232 -261z m2519 -64 l221
-443 -682 1 c-646 0 -682 1 -658 17 266 181 583 479 798 749 53 66 98 120 98
120 1 -1 101 -201 223 -444z"/>
<path d="M1110 5104 c-194 -35 -394 -125 -531 -240 -290 -242 -446 -650 -384
-1003 50 -285 189 -528 395 -694 100 -79 275 -169 395 -202 50 -13 138 -31
196 -40 99 -14 112 -14 227 5 160 26 285 68 407 135 296 164 488 441 550 796
61 347 -93 758 -373 994 -241 203 -592 302 -882 249z m50 -1084 c0 -727 -2
-840 -14 -840 -33 0 -186 54 -257 91 -144 75 -291 222 -362 364 -19 39 -48
111 -63 160 -26 82 -29 103 -28 230 0 126 3 149 28 225 16 47 44 117 63 155
70 140 221 293 358 363 71 36 225 91 258 92 16 0 17 -47 17 -840z m352 814
c173 -54 316 -151 429 -290 68 -83 117 -178 155 -299 26 -80 29 -104 29 -225
0 -121 -3 -145 -29 -225 -93 -295 -295 -498 -584 -589 -46 -14 -87 -26 -93
-26 -5 0 -9 317 -9 840 0 523 4 840 9 840 6 0 47 -12 93 -26z"/>
<path d="M5145 4121 c-57 -27 -1988 -1962 -2010 -2013 -8 -21 -15 -45 -15 -55
0 -33 36 -86 71 -105 32 -17 115 -18 2014 -18 1904 0 1982 1 2015 18 46 25 74
81 65 130 -6 33 -119 150 -1003 1036 -583 583 -1010 1004 -1029 1012 -42 18
-60 17 -108 -5z m885 -1116 l825 -825 -1655 0 -1655 0 825 825 c454 454 827
825 830 825 3 0 376 -371 830 -825z"/>
<path d="M251 2162 c-36 -19 -71 -72 -71 -107 0 -35 35 -88 71 -107 32 -17 84
-18 1034 -18 950 0 1002 1 1034 18 36 19 71 72 71 107 0 35 -35 88 -71 107
-32 17 -84 18 -1034 18 -950 0 -1002 -1 -1034 -18z"/>
</g>
</svg>
