<?xml version="1.0" standalone="no"?>
<!DOCTYPE svg PUBLIC "-//W3C//DTD SVG 20010904//EN"
 "http://www.w3.org/TR/2001/REC-SVG-20010904/DTD/svg10.dtd">
<svg version="1.0" xmlns="http://www.w3.org/2000/svg"
 width="1824pt" height="1000pt" viewBox="0 0 1824 1000"
 preserveAspectRatio="xMidYMid meet">
<metadata>
Created by potrace 1.9, written by Peter Selinger 2001-2010
</metadata>
<g transform="translate(0,1000) scale(0.100000,-0.100000)"
fill="#000000" stroke="none">
<path d="M15932 8044 c-18 -9 -41 -29 -51 -43 -10 -14 -229 -447 -486 -961
-257 -514 -468 -936 -470 -938 -1 -1 -42 -9 -90 -18 -354 -62 -641 -264 -798
-565 -65 -122 -101 -233 -124 -375 -16 -100 -16 -107 6 -249 24 -161 70 -380
102 -491 l21 -70 -65 -130 c-77 -153 -86 -188 -62 -237 28 -59 56 -71 178 -77
l107 -5 58 -120 c70 -148 152 -298 209 -387 l43 -67 -300 -600 c-165 -330
-302 -617 -305 -638 -8 -49 19 -100 66 -125 32 -17 115 -18 2014 -18 1899 0
1982 1 2014 18 36 19 71 72 71 107 1 11 -137 297 -306 635 l-307 616 73 119
c39 66 110 198 158 293 l85 172 96 0 c74 0 104 4 130 18 36 20 71 72 71 108 0
12 -32 86 -71 165 l-71 144 16 60 c58 208 127 584 119 645 -27 216 -62 341
-135 482 -156 299 -446 511 -778 567 -36 6 -75 14 -88 16 -18 5 -105 172 -501
964 -363 726 -486 962 -506 975 -39 25 -85 29 -123 10z m446 -1180 l390 -780
-96 -27 c-123 -34 -305 -124 -389 -194 -36 -29 -68 -53 -72 -53 -4 0 -34 54
-66 121 -67 136 -95 164 -160 164 -66 0 -96 -30 -167 -170 l-63 -124 -75 60
c-92 73 -265 161 -384 194 -50 14 -91 27 -93 29 -2 2 172 356 387 786 215 430
393 781 394 779 2 -2 179 -355 394 -785z m-1143 -1052 c144 -44 282 -128 375
-227 l24 -26 -354 -710 -355 -709 -279 2 -278 3 -29 82 -29 82 385 770 384
770 38 -6 c21 -3 74 -17 118 -31z m2036 -734 l386 -773 -27 -80 -27 -80 -281
-3 -282 -2 -356 711 -355 711 23 25 c121 129 348 243 523 262 6 1 184 -347
396 -771z m-2774 166 c-156 -312 -286 -563 -290 -558 -3 5 -17 81 -32 169 -31
185 -29 249 11 377 86 271 284 480 539 568 28 10 51 16 53 15 2 -2 -125 -258
-281 -571z m2858 503 c137 -69 288 -222 358 -362 93 -187 115 -345 77 -561
-12 -71 -25 -134 -29 -141 -3 -7 -135 245 -293 562 l-287 574 52 -18 c29 -10
84 -34 122 -54z m-1346 -201 c-13 -25 -26 -46 -29 -46 -3 0 -15 20 -28 44
l-24 44 28 53 27 54 25 -52 25 -52 -24 -45z m1128 -2266 c-120 -174 -381 -462
-565 -623 -249 -217 -560 -435 -603 -422 -27 9 -256 165 -359 244 -279 215
-615 562 -783 808 l-28 41 494 988 c457 914 496 987 506 962 25 -66 42 -140
50 -229 5 -53 15 -106 22 -117 43 -69 175 -69 218 0 7 12 17 65 22 119 5 55
21 136 35 182 l26 82 498 -995 498 -995 -31 -45z m-2414 455 c-43 -85 -80
-155 -83 -155 -8 0 -160 288 -160 304 0 3 72 6 160 6 l160 0 -77 -155z m2767
150 c0 -8 -64 -135 -118 -234 l-45 -84 -78 154 c-43 85 -78 157 -78 162 -1 4
71 7 159 7 88 0 160 -2 160 -5z m-2490 -1198 c178 -185 399 -375 555 -480 l40
-27 -683 0 c-375 0 -682 2 -682 5 0 3 99 203 220 445 l220 440 98 -122 c54
-68 158 -185 232 -261z m2519 -64 l221 -443 -682 1 c-646 0 -682 1 -658 17
266 181 583 479 798 749 53 66 98 120 98 120 1 -1 101 -201 223 -444z"/>
<path d="M1231 6082 c-19 -10 -43 -34 -53 -53 -17 -32 -18 -113 -18 -1941 l0
-1908 -438 0 c-404 0 -440 -1 -471 -18 -36 -19 -71 -72 -71 -107 0 -35 35 -88
71 -107 32 -17 84 -18 1034 -18 950 0 1002 1 1034 18 36 19 71 72 71 107 0 35
-35 88 -71 107 -31 17 -67 18 -471 18 l-438 0 0 1908 c0 1828 -1 1909 -18
1941 -19 36 -72 71 -107 71 -11 0 -36 -8 -54 -18z"/>
<path d="M4050 6084 c-122 -22 -238 -62 -349 -121 -308 -161 -509 -452 -568
-819 -16 -100 -16 -107 6 -249 102 -668 339 -1249 727 -1787 213 -295 500
-591 784 -809 109 -84 285 -204 378 -259 39 -23 72 -46 72 -50 0 -19 73 -42
113 -36 42 7 67 21 307 178 525 342 962 812 1282 1383 236 419 387 861 467
1360 20 125 19 131 -5 283 -77 488 -428 840 -920 926 -359 63 -766 -92 -1007
-382 -35 -42 -79 -105 -98 -139 -19 -35 -36 -63 -39 -63 -3 1 -24 33 -47 73
-209 364 -689 586 -1103 511z m400 -269 c353 -114 585 -399 619 -764 5 -54 15
-107 22 -119 43 -69 175 -69 218 0 7 12 17 65 22 119 17 179 89 357 197 484
115 137 243 222 422 281 77 25 98 28 230 28 132 0 153 -3 230 -28 183 -61 317
-152 431 -292 66 -80 115 -175 155 -294 25 -76 28 -100 28 -220 0 -110 -5
-159 -27 -265 -86 -404 -225 -774 -424 -1130 -233 -414 -580 -812 -991 -1134
-100 -78 -359 -251 -375 -251 -25 0 -221 130 -377 249 -399 305 -780 745
-1005 1156 -227 415 -372 837 -440 1280 -20 130 -15 201 22 318 88 280 289
485 564 576 106 35 147 40 274 37 97 -3 136 -9 205 -31z"/>
<path d="M9955 6094 c-684 -55 -1279 -418 -1631 -994 -143 -235 -234 -491
-279 -780 -21 -137 -25 -328 -7 -362 40 -74 167 -77 212 -5 7 12 18 90 26 178
15 182 18 201 50 329 82 329 238 604 484 850 246 246 519 401 850 485 155 39
245 49 440 49 195 0 285 -10 440 -49 331 -84 604 -239 850 -485 246 -246 402
-521 484 -850 32 -128 35 -147 50 -329 8 -88 19 -166 26 -178 45 -72 172 -69
212 5 18 34 14 225 -7 362 -71 458 -269 853 -585 1170 -378 377 -876 590
-1416 604 -82 2 -171 2 -199 0z"/>
<path d="M9561 5102 c-19 -10 -43 -34 -53 -53 -17 -32 -18 -77 -18 -789 0
-712 1 -757 18 -789 19 -36 72 -71 107 -71 35 0 88 35 107 71 17 32 18 77 18
789 0 712 -1 757 -18 789 -19 36 -72 71 -107 71 -11 0 -36 -8 -54 -18z"/>
<path d="M10541 5102 c-19 -10 -43 -34 -53 -53 -17 -32 -18 -77 -18 -789 0
-712 1 -757 18 -789 19 -36 72 -71 107 -71 35 0 88 35 107 71 17 32 18 77 18
789 0 712 -1 757 -18 789 -19 36 -72 71 -107 71 -11 0 -36 -8 -54 -18z"/>
<path d="M12991 5102 c-19 -10 -43 -34 -53 -53 -17 -32 -18 -77 -18 -789 0
-712 1 -757 18 -789 19 -36 72 -71 107 -71 35 0 88 35 107 71 17 32 18 77 18
789 0 712 -1 757 -18 789 -19 36 -72 71 -107 71 -11 0 -36 -8 -54 -18z"/>
<path d="M9573 3173 c-33 -6 -79 -57 -86 -92 -26 -127 122 -210 212 -120 43
42 49 93 18 156 -20 42 -87 68 -144 56z"/>
<path d="M10553 3173 c-33 -6 -79 -57 -86 -92 -26 -127 122 -210 212 -120 43
42 49 93 18 156 -20 42 -87 68 -144 56z"/>
<path d="M13003 3173 c-33 -6 -79 -57 -86 -92 -26 -127 122 -210 212 -120 43
42 49 93 18 156 -20 42 -87 68 -144 56z"/>
</g>
</svg>
