<?xml version="1.0" standalone="no"?>
<!DOCTYPE svg PUBLIC "-//W3C//DTD SVG 20010904//EN"
 "http://www.w3.org/TR/2001/REC-SVG-20010904/DTD/svg10.dtd">
<svg version="1.0" xmlns="http://www.w3.org/2000/svg"
 width="1138pt" height="1000pt" viewBox="0 0 1138 1000"
 preserveAspectRatio="xMidYMid meet">
<metadata>
Created by potrace 1.9, written by Peter Selinger 2001-2010
</metadata>
<g transform="translate(0,1000) scale(0.100000,-0.100000)"
fill="#000000" stroke="none">
<path d="M9072 8044 c-18 -9 -41 -29 -51 -43 -10 -14 -229 -447 -486 -961
-257 -514 -468 -936 -470 -938 -1 -1 -42 -9 -90 -18 -354 -62 -641 -264 -798
-565 -65 -122 -101 -233 -124 -375 -16 -100 -16 -107 6 -249 24 -161 70 -380
102 -491 l21 -70 -65 -130 c-77 -153 -86 -188 -62 -237 28 -59 56 -71 178 -77
l107 -5 58 -120 c70 -148 152 -298 209 -387 l43 -67 -300 -600 c-165 -330
-302 -617 -305 -638 -8 -49 19 -100 66 -125 32 -17 115 -18 2014 -18 1899 0
1982 1 2014 18 36 19 71 72 71 107 1 11 -137 297 -306 635 l-307 616 73 119
c39 66 110 198 158 293 l85 172 96 0 c74 0 104 4 130 18 36 20 71 72 71 108 0
12 -32 86 -71 165 l-71 144 16 60 c58 208 127 584 119 645 -27 216 -62 341
-135 482 -156 299 -446 511 -778 567 -36 6 -75 14 -88 16 -18 5 -105 172 -501
964 -363 726 -486 962 -506 975 -39 25 -85 29 -123 10z m446 -1180 l390 -780
-96 -27 c-123 -34 -305 -124 -389 -194 -36 -29 -68 -53 -72 -53 -4 0 -34 54
-66 121 -67 136 -95 164 -160 164 -66 0 -96 -30 -167 -170 l-63 -124 -75 60
c-92 73 -265 161 -384 194 -50 14 -91 27 -93 29 -2 2 172 356 387 786 215 430
393 781 394 779 2 -2 179 -355 394 -785z m-1143 -1052 c144 -44 282 -128 375
-227 l24 -26 -354 -710 -355 -709 -279 2 -278 3 -29 82 -29 82 385 770 384
770 38 -6 c21 -3 74 -17 118 -31z m2036 -734 l386 -773 -27 -80 -27 -80 -281
-3 -282 -2 -356 711 -355 711 23 25 c121 129 348 243 523 262 6 1 184 -347
396 -771z m-2774 166 c-156 -312 -286 -563 -290 -558 -3 5 -17 81 -32 169 -31
185 -29 249 11 377 86 271 284 480 539 568 28 10 51 16 53 15 2 -2 -125 -258
-281 -571z m2858 503 c137 -69 288 -222 358 -362 93 -187 115 -345 77 -561
-12 -71 -25 -134 -29 -141 -3 -7 -135 245 -293 562 l-287 574 52 -18 c29 -10
84 -34 122 -54z m-1346 -201 c-13 -25 -26 -46 -29 -46 -3 0 -15 20 -28 44
l-24 44 28 53 27 54 25 -52 25 -52 -24 -45z m1128 -2266 c-120 -174 -381 -462
-565 -623 -249 -217 -560 -435 -603 -422 -27 9 -256 165 -359 244 -279 215
-615 562 -783 808 l-28 41 494 988 c457 914 496 987 506 962 25 -66 42 -140
50 -229 5 -53 15 -106 22 -117 43 -69 175 -69 218 0 7 12 17 65 22 119 5 55
21 136 35 182 l26 82 498 -995 498 -995 -31 -45z m-2414 455 c-43 -85 -80
-155 -83 -155 -8 0 -160 288 -160 304 0 3 72 6 160 6 l160 0 -77 -155z m2767
150 c0 -8 -64 -135 -118 -234 l-45 -84 -78 154 c-43 85 -78 157 -78 162 -1 4
71 7 159 7 88 0 160 -2 160 -5z m-2490 -1198 c178 -185 399 -375 555 -480 l40
-27 -683 0 c-375 0 -682 2 -682 5 0 3 99 203 220 445 l220 440 98 -122 c54
-68 158 -185 232 -261z m2519 -64 l221 -443 -682 1 c-646 0 -682 1 -658 17
266 181 583 479 798 749 53 66 98 120 98 120 1 -1 101 -201 223 -444z"/>
<path d="M2115 6094 c-684 -55 -1279 -418 -1631 -994 -143 -235 -234 -491
-279 -780 -21 -137 -25 -328 -7 -362 40 -74 167 -77 212 -5 7 12 18 90 26 178
15 182 18 201 50 329 82 329 238 604 484 850 204 203 406 333 670 430 149 54
359 100 459 100 l41 0 0 -1830 0 -1830 -438 0 c-404 0 -440 -1 -471 -18 -36
-19 -71 -72 -71 -107 0 -35 35 -88 71 -107 32 -17 84 -18 1034 -18 950 0 1002
1 1034 18 36 19 71 72 71 107 0 35 -35 88 -71 107 -31 17 -67 18 -471 18
l-438 0 0 1830 0 1830 36 0 c95 0 309 -47 454 -100 264 -97 466 -227 670 -430
246 -246 402 -521 484 -850 32 -128 35 -147 50 -329 8 -94 19 -166 27 -179 8
-13 32 -31 55 -42 39 -19 65 -20 874 -20 l835 0 -387 -387 c-405 -408 -418
-423 -403 -493 8 -39 56 -87 95 -95 16 -4 45 -2 63 4 22 8 186 165 544 523
544 546 538 538 514 611 -8 22 -165 186 -523 544 -445 444 -518 513 -550 518
-64 12 -127 -31 -143 -98 -17 -64 1 -86 403 -489 l387 -388 -773 0 -772 0 0
41 c0 110 -63 401 -120 559 -207 565 -665 1023 -1230 1230 -108 39 -286 84
-416 104 -102 16 -357 27 -449 20z"/>
</g>
</svg>
