<?xml version="1.0" standalone="no"?>
<!DOCTYPE svg PUBLIC "-//W3C//DTD SVG 20010904//EN"
 "http://www.w3.org/TR/2001/REC-SVG-20010904/DTD/svg10.dtd">
<svg version="1.0" xmlns="http://www.w3.org/2000/svg"
 width="1236pt" height="1000pt" viewBox="0 0 1236 1000"
 preserveAspectRatio="xMidYMid meet">
<metadata>
Created by potrace 1.9, written by Peter Selinger 2001-2010
</metadata>
<g transform="translate(0,1000) scale(0.100000,-0.100000)"
fill="#000000" stroke="none">
<path d="M1231 6082 c-19 -10 -43 -34 -53 -53 -17 -32 -18 -113 -18 -1941 l0
-1908 -438 0 c-404 0 -440 -1 -471 -18 -36 -19 -71 -72 -71 -107 0 -35 35 -88
71 -107 32 -17 84 -18 1034 -18 950 0 1002 1 1034 18 36 19 71 72 71 107 0 35
-35 88 -71 107 -31 17 -67 18 -471 18 l-438 0 0 1908 c0 1828 -1 1909 -18
1941 -19 36 -72 71 -107 71 -11 0 -36 -8 -54 -18z"/>
<path d="M5055 6094 c-172 -14 -419 -67 -575 -124 -631 -231 -1120 -769 -1286
-1415 -70 -271 -67 -205 -71 -1420 -4 -1057 -3 -1101 15 -1134 10 -19 34 -43
53 -53 32 -17 115 -18 2014 -18 1899 0 1982 1 2014 18 19 10 43 34 53 53 17
32 18 84 18 1014 0 975 -2 1051 -36 1300 -85 616 -439 1154 -974 1481 -234
142 -489 233 -776 278 -102 16 -357 27 -449 20z m418 -265 c215 -32 478 -126
660 -235 242 -146 495 -399 641 -641 77 -128 158 -324 197 -476 62 -244 69
-380 69 -1414 l0 -883 -1836 0 -1835 0 4 1028 c3 872 6 1039 20 1107 78 409
238 716 517 995 318 317 699 495 1150 534 73 6 334 -3 413 -15z"/>
<path d="M8950 6084 c-122 -22 -238 -62 -349 -121 -308 -161 -509 -452 -568
-819 -16 -100 -16 -107 6 -249 85 -558 284 -1107 548 -1517 l43 -67 -300 -600
c-165 -330 -302 -617 -305 -638 -8 -49 19 -100 66 -125 32 -17 115 -18 2014
-18 1899 0 1982 1 2014 18 36 19 71 72 71 107 1 11 -137 297 -306 635 l-307
616 72 118 c264 438 435 915 520 1451 20 125 19 131 -5 283 -77 488 -428 840
-920 926 -160 28 -319 15 -498 -40 -106 -33 -274 -122 -349 -185 -32 -27 -62
-49 -66 -49 -4 0 -34 54 -66 121 -67 136 -95 164 -160 164 -66 0 -96 -30 -167
-170 l-63 -124 -73 58 c-233 186 -574 276 -852 225z m400 -269 c151 -49 287
-131 380 -230 l24 -26 -494 -989 c-272 -545 -497 -990 -500 -990 -7 0 -42 64
-121 222 -173 345 -295 728 -354 1113 -20 130 -15 201 22 318 88 280 289 485
564 576 106 35 147 40 274 37 97 -3 136 -9 205 -31z m1960 0 c293 -94 488
-290 586 -585 25 -76 28 -100 28 -220 0 -110 -5 -159 -27 -265 -83 -390 -211
-736 -405 -1094 l-45 -84 -499 998 -499 997 23 25 c86 92 225 178 359 222 106
35 147 40 274 37 97 -3 136 -9 205 -31z m-1181 -269 c-13 -25 -26 -46 -29 -46
-3 0 -15 20 -28 44 l-24 44 28 53 27 54 25 -52 25 -52 -24 -45z m1128 -2266
c-120 -174 -381 -462 -565 -623 -249 -217 -560 -435 -603 -422 -27 9 -256 165
-359 244 -279 215 -615 562 -783 808 l-28 41 494 988 c457 914 496 987 506
962 25 -66 42 -140 50 -229 5 -53 15 -106 22 -117 43 -69 175 -69 218 0 7 12
17 65 22 119 5 55 21 136 35 182 l26 82 498 -995 498 -995 -31 -45z m-2137
-593 c178 -185 399 -375 555 -480 l40 -27 -683 0 c-375 0 -682 2 -682 5 0 3
99 203 220 445 l220 440 98 -122 c54 -68 158 -185 232 -261z m2519 -64 l221
-443 -682 1 c-646 0 -682 1 -658 17 266 181 583 479 798 749 53 66 98 120 98
120 1 -1 101 -201 223 -444z"/>
</g>
</svg>
