<?xml version="1.0" standalone="no"?>
<!DOCTYPE svg PUBLIC "-//W3C//DTD SVG 20010904//EN"
 "http://www.w3.org/TR/2001/REC-SVG-20010904/DTD/svg10.dtd">
<svg version="1.0" xmlns="http://www.w3.org/2000/svg"
 width="452pt" height="1000pt" viewBox="0 0 452 1000"
 preserveAspectRatio="xMidYMid meet">
<metadata>
Created by potrace 1.9, written by Peter Selinger 2001-2010
</metadata>
<g transform="translate(0,1000) scale(0.100000,-0.100000)"
fill="#000000" stroke="none">
<path d="M1110 6084 c-360 -65 -649 -275 -803 -585 -92 -185 -144 -413 -119
-522 7 -28 21 -99 31 -157 98 -547 282 -1038 541 -1448 l34 -54 -302 -604
c-166 -332 -304 -620 -307 -641 -8 -49 19 -100 66 -125 32 -17 115 -18 2014
-18 1899 0 1982 1 2014 18 37 20 71 72 71 109 0 12 -138 298 -306 635 -295
590 -306 614 -292 638 9 14 35 57 58 95 24 39 81 142 126 230 195 377 321 770
393 1220 20 125 19 131 -5 283 -77 488 -428 840 -920 926 -160 28 -319 15
-498 -40 -106 -33 -274 -122 -349 -185 -32 -27 -62 -49 -66 -49 -4 0 -34 54
-66 121 -67 136 -95 164 -160 164 -66 0 -96 -30 -167 -170 l-63 -124 -73 58
c-233 186 -574 276 -852 225z m400 -269 c151 -49 287 -131 380 -230 l24 -26
-494 -989 -494 -988 -20 31 c-37 60 -164 322 -204 422 -125 308 -194 554 -247
880 -28 175 -26 209 19 342 91 266 291 464 557 552 106 35 147 40 274 37 97
-3 136 -9 205 -31z m1960 0 c293 -94 488 -290 586 -585 25 -76 28 -100 28
-220 0 -110 -5 -159 -27 -265 -84 -395 -209 -733 -405 -1094 l-45 -84 -499
998 -499 997 23 25 c86 92 225 178 359 222 106 35 147 40 274 37 97 -3 136 -9
205 -31z m-1181 -269 c-13 -25 -26 -46 -29 -46 -3 0 -15 20 -28 44 l-24 44 28
53 27 54 25 -52 25 -52 -24 -45z m1128 -2265 c-67 -97 -231 -293 -343 -410
-227 -237 -505 -461 -767 -620 l-37 -23 -48 28 c-87 50 -266 176 -387 272
-226 180 -575 549 -722 763 l-31 44 493 985 c456 910 494 983 504 958 25 -66
42 -140 50 -229 5 -53 15 -106 22 -117 43 -69 175 -69 218 0 7 12 17 65 22
119 5 55 21 136 35 182 l26 82 498 -995 498 -995 -31 -44z m-2356 -336 c185
-233 463 -502 707 -684 l102 -76 -677 -3 c-372 -1 -678 0 -680 2 -2 2 96 204
219 449 122 245 223 445 224 444 1 -1 48 -60 105 -132z m2738 -322 l221 -443
-682 0 -683 0 40 27 c241 163 589 491 787 744 51 65 94 117 94 116 1 -1 101
-201 223 -444z"/>
</g>
</svg>
