<?xml version="1.0" standalone="no"?>
<!DOCTYPE svg PUBLIC "-//W3C//DTD SVG 20010904//EN"
 "http://www.w3.org/TR/2001/REC-SVG-20010904/DTD/svg10.dtd">
<svg version="1.0" xmlns="http://www.w3.org/2000/svg"
 width="1432pt" height="1000pt" viewBox="0 0 1432 1000"
 preserveAspectRatio="xMidYMid meet">
<metadata>
Created by potrace 1.9, written by Peter Selinger 2001-2010
</metadata>
<g transform="translate(0,1000) scale(0.100000,-0.100000)"
fill="#000000" stroke="none">
<path d="M2115 6094 c-684 -55 -1279 -418 -1631 -994 -199 -327 -298 -686
-298 -1080 0 -204 15 -323 64 -520 133 -529 475 -986 948 -1266 l82 -49 -507
-5 c-469 -5 -510 -6 -535 -23 -28 -19 -58 -73 -58 -104 0 -33 36 -86 71 -105
32 -17 115 -18 2014 -18 1899 0 1982 1 2014 18 35 19 71 72 71 105 0 31 -30
85 -58 104 -25 17 -66 18 -540 23 l-512 5 82 49 c473 280 815 737 948 1266 49
197 64 316 64 520 0 204 -15 323 -64 520 -165 656 -654 1197 -1290 1430 -108
39 -286 84 -416 104 -102 16 -357 27 -449 20z m418 -265 c215 -32 478 -126
660 -235 240 -145 495 -400 640 -641 111 -184 202 -440 238 -668 7 -44 13
-163 13 -265 0 -195 -10 -285 -49 -440 -84 -332 -244 -610 -494 -859 -240
-238 -514 -393 -841 -476 -155 -39 -245 -49 -440 -49 -195 0 -285 10 -440 49
-327 83 -601 238 -841 476 -207 206 -342 416 -439 679 -76 209 -104 374 -104
620 0 195 10 285 49 440 84 331 239 604 485 850 318 317 699 495 1150 534 73
6 334 -3 413 -15z"/>
<path d="M6125 6081 c-27 -13 -201 -180 -531 -512 -513 -516 -526 -530 -509
-596 16 -67 79 -110 143 -98 32 5 92 61 435 403 l397 397 0 -1820 c0 -1749 1
-1822 18 -1855 25 -46 81 -74 130 -65 32 6 100 69 550 518 358 358 515 522
523 544 6 18 8 47 4 63 -8 39 -56 87 -95 95 -70 15 -85 2 -492 -403 l-388
-387 0 1815 c0 1739 -1 1817 -18 1849 -19 36 -73 71 -107 71 -11 0 -38 -9 -60
-19z"/>
<path d="M9955 6094 c-172 -14 -419 -67 -575 -124 -631 -231 -1120 -769 -1286
-1415 -70 -271 -67 -205 -71 -1420 -4 -1057 -3 -1101 15 -1134 10 -19 34 -43
53 -53 32 -17 115 -18 2014 -18 1899 0 1982 1 2014 18 19 10 43 34 53 53 17
32 18 82 18 961 l0 928 762 0 763 0 -387 -387 c-405 -408 -418 -423 -403 -493
8 -39 56 -87 95 -95 16 -4 45 -2 63 4 22 8 186 165 544 523 544 546 538 538
514 611 -8 22 -165 186 -523 544 -445 444 -518 513 -550 518 -64 12 -127 -31
-143 -98 -17 -64 1 -86 403 -489 l387 -388 -773 0 -772 0 0 41 c0 110 -63 401
-120 559 -207 565 -665 1023 -1230 1230 -108 39 -286 84 -416 104 -102 16
-357 27 -449 20z m418 -265 c215 -32 478 -126 660 -235 242 -146 495 -399 641
-641 131 -219 246 -579 246 -772 l0 -41 -918 0 c-869 0 -919 -1 -951 -18 -36
-19 -71 -72 -71 -107 0 -35 35 -88 71 -107 32 -17 82 -18 961 -18 l928 0 0
-855 0 -855 -1836 0 -1835 0 4 1028 c3 872 6 1039 20 1107 78 409 238 716 517
995 318 317 699 495 1150 534 73 6 334 -3 413 -15z"/>
</g>
</svg>
