<?xml version="1.0" standalone="no"?>
<!DOCTYPE svg PUBLIC "-//W3C//DTD SVG 20010904//EN"
 "http://www.w3.org/TR/2001/REC-SVG-20010904/DTD/svg10.dtd">
<svg version="1.0" xmlns="http://www.w3.org/2000/svg"
 width="1334pt" height="1000pt" viewBox="0 0 1334 1000"
 preserveAspectRatio="xMidYMid meet">
<metadata>
Created by potrace 1.9, written by Peter Selinger 2001-2010
</metadata>
<g transform="translate(0,1000) scale(0.100000,-0.100000)"
fill="#000000" stroke="none">
<path d="M1110 6084 c-194 -35 -394 -125 -531 -240 -202 -168 -335 -405 -383
-680 -74 -419 156 -903 523 -1105 34 -19 61 -36 61 -39 0 -3 -28 -20 -63 -39
-361 -197 -595 -688 -522 -1100 50 -285 189 -528 395 -694 100 -79 275 -169
395 -202 50 -13 138 -31 196 -40 99 -14 112 -14 227 5 233 38 427 123 584 255
280 236 434 647 373 994 -59 338 -248 622 -512 774 -40 23 -73 44 -73 47 0 3
33 24 73 47 361 207 584 683 512 1092 -62 355 -254 632 -550 796 -221 122
-481 170 -705 129z m50 -1084 c0 -727 -2 -840 -14 -840 -33 0 -186 54 -257 91
-144 75 -291 222 -362 364 -19 39 -48 111 -63 160 -26 82 -29 103 -28 230 0
126 3 149 28 225 16 47 44 117 63 155 70 140 221 293 358 363 71 36 225 91
258 92 16 0 17 -47 17 -840z m352 814 c173 -54 316 -151 429 -290 68 -83 117
-178 155 -299 26 -80 29 -104 29 -225 0 -121 -3 -145 -29 -225 -93 -295 -295
-498 -584 -589 -46 -14 -87 -26 -93 -26 -5 0 -9 317 -9 840 0 523 4 840 9 840
6 0 47 -12 93 -26z m-352 -2774 c0 -727 -2 -840 -14 -840 -33 0 -186 54 -257
91 -144 75 -291 222 -362 364 -19 39 -48 111 -63 160 -26 82 -29 103 -28 230
0 126 3 149 28 225 16 47 44 117 63 155 70 140 221 293 358 363 71 36 225 91
258 92 16 0 17 -47 17 -840z m352 814 c173 -54 316 -151 429 -290 68 -83 117
-178 155 -299 26 -80 29 -104 29 -225 0 -121 -3 -145 -29 -225 -93 -295 -295
-498 -584 -589 -46 -14 -87 -26 -93 -26 -5 0 -9 317 -9 840 0 523 4 840 9 840
6 0 47 -12 93 -26z"/>
<path d="M4165 6081 c-27 -13 -201 -180 -531 -512 -513 -516 -526 -530 -509
-596 16 -67 79 -110 143 -98 32 5 98 68 494 463 l458 457 452 -452 c473 -470
490 -485 555 -468 67 16 110 79 98 143 -5 32 -74 104 -513 546 -290 290 -521
514 -539 522 -42 18 -60 17 -108 -5z"/>
<path d="M9071 6082 c-19 -10 -43 -34 -53 -53 -17 -32 -18 -115 -18 -2014 0
-1899 1 -1982 18 -2014 19 -35 72 -71 105 -71 31 0 85 30 104 58 17 25 18 66
23 532 l5 505 44 -75 c120 -204 334 -445 516 -580 385 -286 797 -424 1265
-424 204 0 323 15 520 64 528 133 988 477 1266 948 l49 82 5 -512 c5 -474 6
-515 23 -540 19 -28 73 -58 104 -58 33 0 86 36 105 71 17 32 18 115 18 2014 0
1899 -1 1982 -18 2014 -19 35 -72 71 -105 71 -31 0 -85 -30 -104 -58 -17 -25
-18 -66 -23 -535 l-5 -507 -49 82 c-278 471 -738 815 -1266 948 -197 49 -316
64 -520 64 -204 0 -323 -15 -520 -64 -526 -133 -990 -478 -1261 -940 l-44 -75
-5 500 c-6 556 -3 535 -75 569 -43 21 -63 20 -104 -2z m1889 -1165 c0 -874 1
-924 18 -956 10 -19 34 -43 53 -53 32 -17 82 -18 951 -18 l918 0 0 -36 c0
-143 -76 -420 -170 -622 -142 -302 -420 -607 -717 -786 -184 -110 -440 -201
-668 -237 -103 -16 -427 -16 -530 0 -228 36 -484 127 -668 237 -240 145 -495
400 -640 641 -111 184 -202 440 -238 668 -7 44 -13 163 -13 265 0 102 6 221
13 265 36 228 127 484 237 668 146 242 399 495 641 641 218 130 561 241 761
245 l52 1 0 -923z m393 912 c215 -32 478 -126 660 -235 297 -179 575 -484 717
-786 96 -205 170 -479 170 -627 l0 -41 -845 0 -845 0 0 850 0 850 36 0 c19 0
68 -5 107 -11z"/>
<path d="M6131 5102 c-19 -10 -43 -34 -53 -53 -17 -32 -18 -84 -18 -1034 0
-950 1 -1002 18 -1034 10 -19 34 -43 53 -53 32 -17 84 -18 1034 -18 950 0
1002 1 1034 18 19 10 43 34 53 53 17 32 18 84 18 1034 0 950 -1 1002 -18 1034
-10 19 -34 43 -53 53 -32 17 -84 18 -1034 18 -950 0 -1002 -1 -1034 -18z
m1889 -1087 l0 -855 -855 0 -855 0 0 855 0 855 855 0 855 0 0 -855z"/>
<path d="M3191 3142 c-36 -19 -71 -73 -71 -107 1 -57 49 -111 531 -591 522
-520 527 -524 602 -509 25 6 137 112 545 518 358 358 515 522 523 544 6 18 8
47 4 63 -8 39 -56 87 -95 95 -70 15 -82 6 -558 -469 l-452 -451 -453 452
c-248 249 -465 457 -480 463 -39 14 -57 13 -96 -8z"/>
</g>
</svg>
