<?xml version="1.0" standalone="no"?>
<!DOCTYPE svg PUBLIC "-//W3C//DTD SVG 20010904//EN"
 "http://www.w3.org/TR/2001/REC-SVG-20010904/DTD/svg10.dtd">
<svg version="1.0" xmlns="http://www.w3.org/2000/svg"
 width="1530pt" height="1000pt" viewBox="0 0 1530 1000"
 preserveAspectRatio="xMidYMid meet">
<metadata>
Created by potrace 1.9, written by Peter Selinger 2001-2010
</metadata>
<g transform="translate(0,1000) scale(0.100000,-0.100000)"
fill="#000000" stroke="none">
<path d="M5055 6094 c-684 -55 -1279 -418 -1631 -994 -67 -111 -139 -262 -179
-375 -15 -44 -31 -83 -34 -87 -3 -3 -52 -11 -109 -17 -281 -30 -483 -102 -717
-257 -122 -80 -274 -227 -284 -274 -5 -28 -21 -46 -81 -92 -136 -104 -336
-193 -520 -229 -84 -17 -356 -17 -440 0 -222 44 -427 143 -590 286 -85 75
-118 95 -158 95 -95 0 -154 -99 -110 -184 32 -61 230 -211 399 -301 228 -120
544 -182 802 -157 207 21 403 76 556 157 180 97 379 249 401 309 7 17 16 41
20 53 12 30 141 134 229 184 140 81 322 142 465 157 l78 8 -6 -45 c-41 -286
-27 -546 44 -831 184 -730 759 -1306 1490 -1490 197 -49 316 -64 520 -64 557
0 1074 211 1461 595 398 396 613 914 613 1479 0 204 -15 323 -64 520 -165 656
-654 1197 -1290 1430 -108 39 -286 84 -416 104 -102 16 -357 27 -449 20z m418
-265 c215 -32 478 -126 660 -235 240 -145 495 -400 640 -641 111 -184 202
-440 238 -668 7 -44 13 -163 13 -265 0 -195 -10 -285 -49 -440 -84 -332 -244
-610 -494 -859 -240 -238 -514 -393 -841 -476 -155 -39 -245 -49 -440 -49
-102 0 -221 6 -265 13 -228 36 -484 127 -668 237 -240 145 -495 400 -640 641
-111 184 -202 440 -238 668 -17 106 -17 417 0 528 l13 88 37 -7 c126 -21 299
-83 413 -148 78 -44 208 -142 207 -154 -6 -40 7 -62 79 -130 261 -248 574
-390 931 -423 261 -25 543 28 786 146 113 54 251 146 337 222 37 32 78 66 93
76 39 27 59 77 51 123 -6 32 -25 56 -104 134 -150 147 -346 268 -542 334 -334
111 -659 111 -990 -1 -149 -50 -306 -134 -425 -228 -22 -17 -45 -34 -51 -38
-7 -4 -34 10 -60 31 -195 152 -400 243 -671 298 l-22 4 19 55 c140 406 514
814 922 1005 210 98 418 154 648 174 73 6 334 -3 413 -15z m-29 -1474 c176
-36 368 -123 501 -228 87 -67 88 -61 -14 -136 -129 -95 -319 -180 -486 -217
-98 -21 -377 -24 -475 -5 -104 20 -218 59 -325 111 -108 52 -265 161 -265 184
0 19 129 116 220 165 131 70 295 123 432 141 100 12 317 4 412 -15z"/>
<path d="M8091 6082 c-19 -10 -43 -34 -53 -53 -17 -32 -18 -115 -18 -2014 0
-1904 1 -1982 18 -2015 25 -46 81 -74 130 -65 33 6 150 119 1040 1008 711 711
1005 1011 1013 1035 24 74 64 31 -999 1096 -583 584 -1010 1004 -1029 1012
-43 18 -61 18 -102 -4z m1007 -1245 l822 -822 -825 -825 -825 -825 0 1648 c0
906 1 1647 3 1647 1 0 372 -370 825 -823z"/>
<path d="M11890 4124 c-194 -35 -394 -125 -531 -240 -290 -242 -446 -650 -384
-1003 49 -279 185 -523 384 -685 188 -154 467 -256 701 -256 290 0 631 153
815 364 l45 51 0 -160 c0 -181 9 -214 71 -247 42 -23 66 -23 108 0 71 38 71
35 71 524 l0 438 855 0 855 0 0 -438 c0 -404 1 -440 18 -471 19 -36 72 -71
107 -71 35 0 88 35 107 71 17 32 18 84 18 1034 0 950 -1 1002 -18 1034 -19 36
-72 71 -107 71 -35 0 -88 -35 -107 -71 -17 -31 -18 -67 -18 -471 l0 -438 -855
0 -855 0 0 438 c0 489 0 486 -71 524 -42 23 -66 23 -108 0 -61 -33 -71 -66
-71 -242 l0 -155 -45 51 c-227 261 -647 410 -985 348z m400 -269 c176 -56 318
-152 431 -291 68 -83 117 -178 155 -299 26 -80 29 -104 29 -225 0 -121 -3
-145 -29 -225 -93 -295 -290 -493 -586 -591 -77 -25 -98 -28 -230 -28 -132 0
-153 3 -230 28 -179 59 -319 154 -431 292 -68 82 -117 177 -155 299 -26 82
-29 103 -28 230 0 126 3 149 28 225 95 288 291 488 567 579 106 35 147 40 274
37 97 -3 137 -9 205 -31z"/>
</g>
</svg>
