<?xml version="1.0" standalone="no"?>
<!DOCTYPE svg PUBLIC "-//W3C//DTD SVG 20010904//EN"
 "http://www.w3.org/TR/2001/REC-SVG-20010904/DTD/svg10.dtd">
<svg version="1.0" xmlns="http://www.w3.org/2000/svg"
 width="1726pt" height="1000pt" viewBox="0 0 1726 1000"
 preserveAspectRatio="xMidYMid meet">
<metadata>
Created by potrace 1.9, written by Peter Selinger 2001-2010
</metadata>
<g transform="translate(0,1000) scale(0.100000,-0.100000)"
fill="#000000" stroke="none">
<path d="M2205 6081 c-57 -27 -1988 -1962 -2010 -2013 -13 -33 -15 -161 -15
-1035 0 -948 1 -1000 18 -1032 10 -19 34 -43 53 -53 32 -17 115 -18 2014 -18
1899 0 1982 1 2014 18 19 10 43 34 53 53 17 32 18 84 18 1032 0 834 -2 1003
-14 1030 -18 42 -1991 2013 -2029 2027 -39 14 -56 13 -102 -9z m977 -1208
l918 -918 0 -887 0 -888 -1835 0 -1835 0 0 892 0 893 912 912 c502 502 915
913 918 913 3 0 418 -413 922 -917z"/>
<path d="M10045 6081 c-27 -13 -201 -180 -531 -512 -513 -516 -526 -530 -509
-596 16 -67 79 -110 143 -98 32 5 92 61 435 403 l397 397 0 -1660 0 -1660
-397 397 c-343 342 -403 398 -435 403 -64 12 -127 -31 -143 -98 -16 -64 2 -87
383 -469 l365 -367 -94 24 c-167 43 -358 121 -492 201 -240 145 -495 400 -640
641 -82 135 -160 327 -201 493 -32 128 -35 147 -50 329 -8 88 -19 166 -26 178
-45 72 -172 69 -212 -5 -31 -60 -5 -354 52 -582 204 -811 885 -1420 1715
-1534 277 -38 312 -38 590 0 615 85 1155 440 1481 975 143 234 234 490 279
779 21 137 25 328 7 362 -40 74 -167 77 -212 5 -7 -12 -18 -90 -26 -178 -15
-182 -18 -201 -50 -329 -82 -330 -242 -610 -493 -859 -239 -238 -512 -392
-840 -476 l-94 -24 376 377 c323 325 377 382 382 414 12 64 -31 127 -98 143
-64 17 -86 -1 -489 -403 l-388 -387 0 1650 0 1650 388 -387 c403 -402 425
-420 489 -403 67 16 110 79 98 143 -5 32 -74 104 -513 546 -290 290 -521 514
-539 522 -42 18 -60 17 -108 -5z"/>
<path d="M14855 6094 c-172 -14 -419 -67 -575 -124 -631 -231 -1120 -769
-1286 -1415 -70 -271 -67 -205 -71 -1420 -4 -1057 -3 -1101 15 -1134 10 -19
34 -43 53 -53 32 -17 115 -18 2014 -18 1899 0 1982 1 2014 18 19 10 43 34 53
53 17 32 18 84 18 1014 0 975 -2 1051 -36 1300 -85 616 -439 1154 -974 1481
-234 142 -489 233 -776 278 -102 16 -357 27 -449 20z m418 -265 c215 -32 478
-126 660 -235 242 -146 495 -399 641 -641 77 -128 158 -324 197 -476 62 -244
69 -380 69 -1414 l0 -883 -1836 0 -1835 0 4 1028 c3 872 6 1039 20 1107 78
409 238 716 517 995 318 317 699 495 1150 534 73 6 334 -3 413 -15z"/>
<path d="M5151 5102 c-36 -19 -71 -73 -71 -107 1 -57 49 -111 479 -540 l441
-440 -449 -450 c-468 -470 -483 -487 -466 -552 16 -67 79 -110 143 -98 32 5
105 74 550 518 358 358 515 522 523 544 24 73 30 65 -509 607 -290 290 -521
514 -539 522 -43 18 -61 18 -102 -4z"/>
<path d="M6131 5102 c-36 -19 -71 -73 -71 -107 1 -57 49 -111 479 -540 l441
-440 -449 -450 c-468 -470 -483 -487 -466 -552 16 -67 79 -110 143 -98 32 5
105 74 550 518 358 358 515 522 523 544 24 73 30 65 -509 607 -290 290 -521
514 -539 522 -43 18 -61 18 -102 -4z"/>
</g>
</svg>
