<?xml version="1.0" standalone="no"?>
<!DOCTYPE svg PUBLIC "-//W3C//DTD SVG 20010904//EN"
 "http://www.w3.org/TR/2001/REC-SVG-20010904/DTD/svg10.dtd">
<svg version="1.0" xmlns="http://www.w3.org/2000/svg"
 width="1040pt" height="1000pt" viewBox="0 0 1040 1000"
 preserveAspectRatio="xMidYMid meet">
<metadata>
Created by potrace 1.9, written by Peter Selinger 2001-2010
</metadata>
<g transform="translate(0,1000) scale(0.100000,-0.100000)"
fill="#000000" stroke="none">
<path d="M7112 6083 c-18 -9 -41 -28 -51 -42 -41 -58 -1971 -3933 -1976 -3968
-8 -49 19 -100 66 -125 32 -17 84 -18 1034 -18 950 0 1002 1 1034 18 36 19 71
72 71 107 0 35 -35 88 -71 107 -32 17 -81 18 -921 18 -489 0 -888 2 -888 5 0
3 423 851 940 1885 517 1034 940 1890 940 1903 0 37 -34 89 -71 109 -41 22
-64 22 -107 1z"/>
<path d="M8950 5104 c-194 -35 -394 -125 -531 -240 -290 -242 -446 -650 -384
-1003 49 -279 185 -523 384 -685 145 -119 339 -206 536 -240 114 -20 216 -20
330 0 489 85 833 432 920 925 61 347 -93 758 -373 994 -241 203 -592 302 -882
249z m400 -269 c176 -56 318 -152 431 -291 68 -83 117 -178 155 -299 26 -80
29 -104 29 -225 0 -121 -3 -145 -29 -225 -93 -295 -290 -493 -586 -591 -77
-25 -98 -28 -230 -28 -132 0 -153 3 -230 28 -179 59 -319 154 -431 292 -68 82
-117 177 -155 299 -26 82 -29 103 -28 230 0 126 3 149 28 225 95 288 291 488
567 579 106 35 147 40 274 37 97 -3 137 -9 205 -31z"/>
<path d="M2205 4121 c-28 -13 -345 -325 -1021 -1002 -792 -794 -984 -991 -994
-1022 -20 -64 6 -123 67 -152 80 -38 18 -93 1056 943 l947 947 938 -937 c923
-923 971 -968 1029 -968 33 0 86 36 105 71 17 32 18 84 18 1034 0 950 -1 1002
-18 1034 -19 36 -72 71 -107 71 -35 0 -88 -35 -107 -71 -17 -32 -18 -79 -18
-874 l0 -840 -882 882 c-497 497 -895 887 -911 893 -39 14 -56 13 -102 -9z"/>
</g>
</svg>
