<?xml version="1.0" standalone="no"?>
<!DOCTYPE svg PUBLIC "-//W3C//DTD SVG 20010904//EN"
 "http://www.w3.org/TR/2001/REC-SVG-20010904/DTD/svg10.dtd">
<svg version="1.0" xmlns="http://www.w3.org/2000/svg"
 width="452pt" height="1000pt" viewBox="0 0 452 1000"
 preserveAspectRatio="xMidYMid meet">
<metadata>
Created by potrace 1.9, written by Peter Selinger 2001-2010
</metadata>
<g transform="translate(0,1000) scale(0.100000,-0.100000)"
fill="#000000" stroke="none">
<path d="M1690 9980 c-30 -30 -42 -70 -35 -109 4 -19 119 -258 256 -532 271
-542 272 -544 354 -544 78 0 79 1 359 562 235 471 258 523 252 555 -3 20 -17
47 -31 62 -21 23 -32 26 -88 26 -48 0 -71 -5 -87 -18 -13 -10 -109 -191 -215
-402 l-193 -385 -196 392 c-117 235 -203 396 -215 403 -11 5 -47 10 -80 10
-48 0 -65 -4 -81 -20z"/>
<path d="M2115 8054 c-684 -55 -1279 -418 -1631 -994 -143 -235 -234 -491
-279 -780 -21 -137 -25 -328 -7 -362 40 -74 167 -77 212 -5 7 12 18 90 26 178
15 182 18 201 50 329 82 329 238 604 484 850 246 246 519 401 850 485 155 39
245 49 440 49 195 0 285 -10 440 -49 331 -84 604 -239 850 -485 246 -246 402
-521 484 -850 32 -128 35 -147 50 -329 8 -88 19 -166 26 -178 45 -72 172 -69
212 5 18 34 14 225 -7 362 -71 458 -269 853 -585 1170 -378 377 -876 590
-1416 604 -82 2 -171 2 -199 0z"/>
<path d="M2115 6094 c-684 -55 -1279 -418 -1631 -994 -143 -235 -234 -491
-279 -780 -21 -137 -25 -328 -7 -362 40 -74 167 -77 212 -5 7 12 18 90 26 178
15 182 18 201 50 329 82 329 238 604 484 850 204 203 406 333 670 430 149 54
359 100 459 100 l41 0 0 -1903 c0 -1823 1 -1904 18 -1936 19 -36 72 -71 107
-71 35 0 88 35 107 71 17 32 18 113 18 1936 l0 1903 36 0 c188 0 551 -117 767
-246 242 -146 495 -399 641 -641 111 -185 206 -454 235 -663 16 -117 24 -263
15 -259 -5 2 -36 18 -70 36 -33 17 -89 39 -125 49 -85 23 -233 23 -319 0 -254
-69 -438 -299 -444 -557 -1 -74 12 -108 54 -132 55 -33 143 -13 169 37 6 12
17 57 25 102 17 99 43 152 107 216 74 74 144 103 249 103 71 0 94 -5 142 -27
111 -51 206 -178 211 -280 2 -41 -16 -70 -472 -753 -261 -390 -479 -726 -485
-746 -12 -47 16 -104 64 -131 32 -17 68 -18 545 -18 475 0 513 1 544 18 35 19
71 72 71 105 0 31 -30 85 -58 104 -25 16 -62 18 -420 23 l-392 5 426 638 c234
351 430 651 435 665 18 46 -29 242 -81 338 l-38 72 27 5 c40 8 78 52 86 98 14
84 -18 351 -65 539 -149 593 -560 1092 -1115 1356 -177 84 -381 145 -591 178
-102 16 -357 27 -449 20z"/>
</g>
</svg>
