<?xml version="1.0" standalone="no"?>
<!DOCTYPE svg PUBLIC "-//W3C//DTD SVG 20010904//EN"
 "http://www.w3.org/TR/2001/REC-SVG-20010904/DTD/svg10.dtd">
<svg version="1.0" xmlns="http://www.w3.org/2000/svg"
 width="550pt" height="1000pt" viewBox="0 0 550 1000"
 preserveAspectRatio="xMidYMid meet">
<metadata>
Created by potrace 1.9, written by Peter Selinger 2001-2010
</metadata>
<g transform="translate(0,1000) scale(0.100000,-0.100000)"
fill="#000000" stroke="none">
<path d="M3095 4134 c-169 -13 -419 -67 -575 -124 -569 -208 -1027 -669 -1233
-1240 l-34 -95 -59 -7 c-339 -43 -503 -98 -731 -244 -150 -97 -271 -203 -305
-268 -49 -95 25 -201 128 -182 26 5 58 28 113 79 220 206 459 324 720 355 l73
9 -6 -41 c-15 -103 -27 -293 -21 -330 7 -45 18 -64 55 -89 49 -34 138 -15 170
36 7 12 18 89 26 176 7 86 16 175 20 199 7 42 7 42 43 36 218 -37 411 -125
591 -270 55 -44 67 -60 78 -99 14 -53 63 -104 187 -194 173 -126 333 -202 531
-252 414 -104 849 -30 1208 208 100 67 215 165 240 205 9 14 16 47 16 72 0 39
-5 51 -35 81 -30 30 -42 35 -81 35 -48 0 -104 -30 -154 -85 -106 -114 -365
-245 -575 -291 -98 -21 -377 -24 -475 -5 -104 20 -218 59 -325 111 -111 54
-265 161 -265 185 0 108 -338 365 -615 468 -59 22 -182 55 -272 73 l-22 4 19
55 c140 406 514 814 922 1005 113 53 235 96 348 124 128 32 147 35 329 50 88
8 166 19 178 26 70 44 69 166 -1 210 -22 14 -124 20 -211 14z"/>
<path d="M5055 4134 c-680 -53 -1280 -418 -1631 -994 -143 -235 -234 -491
-279 -780 -21 -137 -25 -328 -7 -362 40 -74 167 -77 212 -5 7 12 18 90 26 178
15 182 18 201 50 329 82 329 238 604 484 850 246 246 521 402 850 484 128 32
147 35 329 50 88 8 166 19 178 26 70 44 69 166 -1 210 -22 14 -124 20 -211 14z"/>
</g>
</svg>
