<?xml version="1.0" standalone="no"?>
<!DOCTYPE svg PUBLIC "-//W3C//DTD SVG 20010904//EN"
 "http://www.w3.org/TR/2001/REC-SVG-20010904/DTD/svg10.dtd">
<svg version="1.0" xmlns="http://www.w3.org/2000/svg"
 width="844pt" height="1000pt" viewBox="0 0 844 1000"
 preserveAspectRatio="xMidYMid meet">
<metadata>
Created by potrace 1.9, written by Peter Selinger 2001-2010
</metadata>
<g transform="translate(0,1000) scale(0.100000,-0.100000)"
fill="#000000" stroke="none">
<path d="M2223 4143 c-33 -6 -79 -57 -86 -92 -26 -127 122 -210 212 -120 43
42 49 93 18 156 -20 42 -87 68 -144 56z"/>
<path d="M6035 4134 c-680 -53 -1279 -418 -1631 -994 -67 -111 -139 -262 -179
-375 -15 -44 -31 -83 -34 -87 -3 -3 -52 -11 -109 -17 -281 -30 -483 -102 -717
-257 -121 -80 -274 -227 -284 -274 -21 -96 61 -174 154 -149 22 6 66 39 118
87 45 43 107 96 137 119 148 111 378 201 565 221 l77 8 -6 -40 c-15 -103 -27
-293 -21 -330 7 -45 18 -64 55 -89 49 -34 138 -15 170 36 7 12 18 89 26 176 7
86 16 175 20 199 7 42 7 42 43 36 188 -32 393 -120 536 -229 91 -69 120 -101
135 -149 29 -90 294 -283 514 -372 461 -188 991 -134 1410 143 100 67 215 165
240 205 9 14 16 47 16 72 0 39 -5 51 -35 81 -30 30 -42 35 -81 35 -48 0 -104
-30 -154 -85 -106 -114 -365 -245 -575 -291 -98 -21 -377 -24 -475 -5 -173 34
-372 120 -505 219 -67 49 -83 66 -93 99 -24 81 -244 265 -447 374 -109 59
-262 110 -432 145 l-22 4 19 55 c140 406 514 814 922 1005 113 53 235 96 348
124 128 32 147 35 329 50 88 8 166 19 178 26 70 44 69 166 -1 210 -22 14 -124
20 -211 14z"/>
<path d="M7995 4134 c-680 -53 -1280 -418 -1631 -994 -143 -235 -234 -491
-279 -780 -21 -137 -25 -328 -7 -362 40 -74 167 -77 212 -5 7 12 18 90 26 178
15 182 18 201 50 329 82 329 238 604 484 850 246 246 521 402 850 484 128 32
147 35 329 50 88 8 166 19 178 26 70 44 69 166 -1 210 -22 14 -124 20 -211 14z"/>
<path d="M263 2183 c-33 -6 -79 -57 -86 -92 -26 -127 122 -210 212 -120 43 42
49 93 18 156 -20 42 -87 68 -144 56z"/>
<path d="M2223 2183 c-33 -6 -79 -57 -86 -92 -26 -127 122 -210 212 -120 43
42 49 93 18 156 -20 42 -87 68 -144 56z"/>
</g>
</svg>
