<?xml version="1.0" standalone="no"?>
<!DOCTYPE svg PUBLIC "-//W3C//DTD SVG 20010904//EN"
 "http://www.w3.org/TR/2001/REC-SVG-20010904/DTD/svg10.dtd">
<svg version="1.0" xmlns="http://www.w3.org/2000/svg"
 width="1334pt" height="1000pt" viewBox="0 0 1334 1000"
 preserveAspectRatio="xMidYMid meet">
<metadata>
Created by potrace 1.9, written by Peter Selinger 2001-2010
</metadata>
<g transform="translate(0,1000) scale(0.100000,-0.100000)"
fill="#000000" stroke="none">
<path d="M251 4122 c-36 -19 -71 -73 -71 -107 0 -11 9 -38 19 -60 27 -57 1962
-1988 2013 -2010 33 -13 260 -15 2013 -15 1671 0 1981 2 2008 14 19 8 446 429
1029 1012 1091 1093 1031 1027 993 1107 -29 61 -88 87 -152 67 -31 -10 -211
-185 -929 -902 -702 -701 -893 -887 -897 -872 -3 11 -9 39 -12 64 -11 77 -63
271 -95 360 -184 503 -569 925 -1055 1156 -280 133 -574 198 -895 198 -204 0
-323 -15 -520 -64 -657 -165 -1197 -653 -1430 -1290 -32 -89 -84 -283 -95
-360 -3 -25 -9 -53 -12 -64 -4 -15 -194 170 -897 872 -502 502 -903 896 -919
902 -39 14 -57 13 -96 -8z m4242 -253 c215 -32 478 -126 660 -235 242 -146
495 -399 641 -641 131 -219 246 -579 246 -772 l0 -41 -1820 0 -1820 0 0 41 c0
148 74 422 170 627 168 359 503 694 862 862 210 98 418 154 648 174 73 6 334
-3 413 -15z"/>
<path d="M10935 4134 c-680 -53 -1279 -418 -1631 -994 -67 -111 -139 -262
-179 -375 -15 -44 -31 -83 -34 -87 -3 -3 -52 -11 -109 -17 -281 -30 -483 -102
-717 -257 -121 -80 -274 -227 -284 -274 -21 -96 61 -174 154 -149 22 6 66 39
118 87 45 43 107 96 137 119 148 111 378 201 565 221 l77 8 -6 -40 c-15 -103
-27 -293 -21 -330 7 -45 18 -64 55 -89 49 -34 138 -15 170 36 7 12 18 89 26
176 7 86 16 175 20 199 7 42 7 42 43 36 188 -32 393 -120 536 -229 91 -69 120
-101 135 -149 29 -90 294 -283 514 -372 461 -188 991 -134 1410 143 100 67
215 165 240 205 9 14 16 47 16 72 0 39 -5 51 -35 81 -30 30 -42 35 -81 35 -48
0 -104 -30 -154 -85 -106 -114 -365 -245 -575 -291 -98 -21 -377 -24 -475 -5
-173 34 -372 120 -505 219 -67 49 -83 66 -93 99 -24 81 -244 265 -447 374
-109 59 -262 110 -432 145 l-22 4 19 55 c140 406 514 814 922 1005 113 53 235
96 348 124 128 32 147 35 329 50 88 8 166 19 178 26 70 44 69 166 -1 210 -22
14 -124 20 -211 14z"/>
<path d="M12895 4134 c-680 -53 -1280 -418 -1631 -994 -143 -235 -234 -491
-279 -780 -21 -137 -25 -328 -7 -362 40 -74 167 -77 212 -5 7 12 18 90 26 178
15 182 18 201 50 329 82 329 238 604 484 850 246 246 521 402 850 484 128 32
147 35 329 50 88 8 166 19 178 26 70 44 69 166 -1 210 -22 14 -124 20 -211 14z"/>
</g>
</svg>
