<?xml version="1.0" standalone="no"?>
<!DOCTYPE svg PUBLIC "-//W3C//DTD SVG 20010904//EN"
 "http://www.w3.org/TR/2001/REC-SVG-20010904/DTD/svg10.dtd">
<svg version="1.0" xmlns="http://www.w3.org/2000/svg"
 width="1824pt" height="1000pt" viewBox="0 0 1824 1000"
 preserveAspectRatio="xMidYMid meet">
<metadata>
Created by potrace 1.9, written by Peter Selinger 2001-2010
</metadata>
<g transform="translate(0,1000) scale(0.100000,-0.100000)"
fill="#000000" stroke="none">
<path d="M2205 6081 c-28 -13 -345 -325 -1021 -1002 -792 -794 -984 -991 -994
-1022 -20 -64 6 -123 67 -152 80 -38 18 -93 1055 943 l948 947 942 -941 c761
-760 950 -944 981 -954 64 -20 123 6 152 67 38 80 98 14 -993 1107 -583 583
-1010 1004 -1029 1012 -42 18 -60 17 -108 -5z"/>
<path d="M7995 6094 c-684 -55 -1279 -418 -1631 -994 -199 -327 -298 -686
-298 -1080 0 -204 15 -323 64 -520 184 -731 759 -1306 1490 -1490 197 -49 316
-64 520 -64 557 0 1074 211 1461 595 398 396 613 914 613 1479 0 204 -15 323
-64 520 -165 656 -654 1197 -1290 1430 -108 39 -286 84 -416 104 -102 16 -357
27 -449 20z m418 -265 c215 -32 478 -126 660 -235 240 -145 495 -400 640 -641
111 -184 202 -440 238 -668 7 -44 13 -163 13 -265 0 -195 -10 -285 -49 -440
-84 -332 -244 -610 -494 -859 -240 -238 -514 -393 -841 -476 -155 -39 -245
-49 -440 -49 -195 0 -285 10 -440 49 -327 83 -601 238 -841 476 -207 206 -342
416 -439 679 -76 209 -104 374 -104 620 0 195 10 285 49 440 84 331 239 604
485 850 318 317 699 495 1150 534 73 6 334 -3 413 -15z"/>
<path d="M8091 5102 c-19 -10 -43 -34 -53 -53 -17 -32 -18 -82 -18 -961 l0
-928 -438 0 c-404 0 -440 -1 -471 -18 -36 -19 -71 -72 -71 -107 0 -35 35 -88
71 -107 32 -17 84 -18 1034 -18 950 0 1002 1 1034 18 36 19 71 72 71 107 0 35
-35 88 -71 107 -31 17 -67 18 -471 18 l-438 0 0 928 c0 879 -1 929 -18 961
-19 36 -72 71 -107 71 -11 0 -36 -8 -54 -18z"/>
<path d="M16905 6081 c-27 -13 -340 -320 -1000 -980 l-960 -961 -1940 0
c-1860 0 -1942 -1 -1974 -18 -36 -19 -71 -72 -71 -107 0 -35 35 -88 71 -107
31 -17 65 -18 431 -18 l398 0 -445 -890 c-246 -492 -447 -906 -450 -927 -16
-104 101 -175 190 -117 20 13 134 232 467 898 l440 881 439 -877 c478 -955
459 -923 544 -923 22 0 53 9 68 19 23 15 124 209 469 900 l440 881 438 -874
c321 -643 445 -881 466 -898 78 -62 184 -20 201 81 4 27 -61 164 -446 934
-248 496 -451 904 -451 907 0 3 177 5 394 5 250 0 405 4 423 10 16 6 439 422
970 953 l943 942 452 -451 c473 -471 490 -486 555 -469 67 16 110 79 98 143
-5 32 -74 104 -513 546 -290 290 -521 514 -539 522 -42 18 -60 17 -108 -5z
m-3471 -2963 c-212 -425 -388 -775 -390 -777 -3 -3 -774 1534 -774 1544 0 3
349 5 775 5 l775 0 -386 -772z"/>
<path d="M5151 5102 c-19 -10 -43 -34 -53 -53 -17 -32 -18 -77 -18 -789 0
-712 1 -757 18 -789 19 -36 72 -71 107 -71 35 0 88 35 107 71 17 32 18 77 18
789 0 712 -1 757 -18 789 -19 36 -72 71 -107 71 -11 0 -36 -8 -54 -18z"/>
<path d="M5163 3173 c-33 -6 -79 -57 -86 -92 -26 -127 122 -210 212 -120 43
42 49 93 18 156 -20 42 -87 68 -144 56z"/>
</g>
</svg>
