<?xml version="1.0" standalone="no"?>
<!DOCTYPE svg PUBLIC "-//W3C//DTD SVG 20010904//EN"
 "http://www.w3.org/TR/2001/REC-SVG-20010904/DTD/svg10.dtd">
<svg version="1.0" xmlns="http://www.w3.org/2000/svg"
 width="1432pt" height="1000pt" viewBox="0 0 1432 1000"
 preserveAspectRatio="xMidYMid meet">
<metadata>
Created by potrace 1.9, written by Peter Selinger 2001-2010
</metadata>
<g transform="translate(0,1000) scale(0.100000,-0.100000)"
fill="#000000" stroke="none">
<path d="M265 6092 c-99 -35 -118 -168 -32 -222 12 -7 90 -18 178 -26 182 -15
201 -18 329 -50 329 -82 604 -238 850 -484 328 -328 502 -714 535 -1186 l7
-90 -236 -472 c-130 -259 -238 -488 -241 -509 -11 -74 61 -150 132 -139 68 10
76 22 280 430 l195 391 193 -385 c200 -398 216 -423 282 -436 39 -7 95 18 118
53 41 62 44 55 -220 582 l-247 494 7 86 c18 252 71 456 175 679 85 181 200
342 360 502 246 246 521 402 850 484 128 32 147 35 329 50 88 8 166 19 178 26
72 45 69 172 -5 212 -34 18 -225 14 -362 -7 -629 -97 -1150 -442 -1476 -975
-63 -105 -145 -272 -165 -337 -6 -24 -15 -43 -19 -43 -4 0 -13 19 -19 43 -7
23 -34 87 -60 142 -207 436 -555 786 -986 991 -242 115 -526 185 -800 198 -60
3 -119 2 -130 -2z"/>
<path d="M7112 6084 c-18 -9 -41 -29 -51 -43 -41 -58 -1971 -3933 -1976 -3968
-8 -49 19 -100 66 -125 32 -17 84 -18 1034 -18 950 0 1002 1 1034 18 36 19 71
72 71 107 0 35 -35 88 -71 107 -32 17 -81 18 -921 18 -489 0 -888 2 -888 5 0
3 394 794 876 1757 l876 1753 929 -1857 c791 -1581 933 -1859 961 -1880 l33
-23 995 -3 c547 -1 1009 0 1027 3 42 8 91 57 99 100 8 46 -21 102 -66 127 -33
17 -81 18 -987 18 l-953 0 -969 1938 c-743 1487 -976 1943 -996 1956 -39 25
-85 29 -123 10z"/>
<path d="M12011 4122 c-36 -19 -71 -72 -71 -107 0 -35 35 -88 71 -107 31 -17
67 -18 471 -18 l438 0 0 -855 0 -855 -438 0 c-404 0 -440 -1 -471 -18 -36 -19
-71 -72 -71 -107 0 -35 35 -88 71 -107 32 -17 84 -18 1034 -18 950 0 1002 1
1034 18 36 19 71 72 71 107 0 35 -35 88 -71 107 -31 17 -67 18 -471 18 l-438
0 0 855 0 855 438 0 c404 0 440 1 471 18 36 19 71 72 71 107 0 35 -35 88 -71
107 -32 17 -84 18 -1034 18 -950 0 -1002 -1 -1034 -18z"/>
</g>
</svg>
