<?xml version="1.0" standalone="no"?>
<!DOCTYPE svg PUBLIC "-//W3C//DTD SVG 20010904//EN"
 "http://www.w3.org/TR/2001/REC-SVG-20010904/DTD/svg10.dtd">
<svg version="1.0" xmlns="http://www.w3.org/2000/svg"
 width="1236pt" height="1000pt" viewBox="0 0 1236 1000"
 preserveAspectRatio="xMidYMid meet">
<metadata>
Created by potrace 1.9, written by Peter Selinger 2001-2010
</metadata>
<g transform="translate(0,1000) scale(0.100000,-0.100000)"
fill="#000000" stroke="none">
<path d="M5055 6094 c-684 -55 -1279 -418 -1631 -994 -143 -235 -234 -491
-279 -780 -21 -137 -25 -328 -7 -362 40 -74 167 -77 212 -5 7 12 18 90 26 178
15 182 18 201 50 329 82 329 238 604 484 850 242 241 519 401 835 481 44 11
89 22 100 26 11 3 -147 -163 -351 -368 -387 -389 -405 -412 -389 -476 16 -67
79 -110 143 -98 32 5 92 61 435 403 l397 397 0 -1820 c0 -1744 1 -1822 18
-1854 19 -36 72 -71 107 -71 35 0 88 35 107 71 17 32 18 110 18 1849 l0 1815
388 -387 c403 -402 425 -420 489 -403 67 16 110 79 98 143 -5 32 -60 90 -388
421 -210 210 -373 381 -362 378 11 -4 56 -15 100 -26 316 -80 593 -240 835
-481 246 -246 402 -521 484 -850 32 -128 35 -147 50 -329 8 -88 19 -166 26
-178 45 -72 172 -69 212 5 18 34 14 225 -7 362 -71 458 -269 853 -585 1170
-378 377 -876 590 -1416 604 -82 2 -171 2 -199 0z"/>
<path d="M251 5102 c-19 -10 -43 -34 -53 -53 -17 -32 -18 -84 -18 -1034 0
-950 1 -1002 18 -1034 10 -19 34 -43 53 -53 32 -17 84 -18 1034 -18 950 0
1002 1 1034 18 19 10 43 34 53 53 17 32 18 84 18 1034 0 950 -1 1002 -18 1034
-10 19 -34 43 -53 53 -32 17 -84 18 -1034 18 -950 0 -1002 -1 -1034 -18z
m1889 -1087 l0 -855 -855 0 -855 0 0 855 0 855 855 0 855 0 0 -855z"/>
<path d="M8091 4122 c-36 -19 -71 -72 -71 -107 0 -35 35 -88 71 -107 28 -15
57 -18 182 -18 l149 0 -39 -32 c-108 -91 -230 -271 -289 -428 -59 -155 -86
-376 -64 -522 77 -505 427 -865 925 -952 290 -51 619 41 870 242 84 68 187
191 238 283 18 32 34 59 37 59 3 0 20 -28 39 -63 145 -263 443 -463 776 -521
291 -51 619 41 870 243 191 154 332 405 380 682 50 281 -41 608 -237 855 -38
48 -88 102 -111 119 l-42 30 165 5 c137 4 170 8 192 23 28 19 58 73 58 104 0
33 -36 86 -71 105 -32 17 -115 18 -2014 18 -1899 0 -1982 -1 -2014 -18z m1259
-267 c83 -27 188 -75 242 -112 l27 -19 -252 -252 -252 -252 -250 250 -250 251
25 19 c39 31 179 96 245 115 149 44 329 43 465 0z m993 3 c-21 -18 -55 -51
-75 -73 -44 -49 -144 -195 -153 -224 -3 -11 -9 -21 -13 -21 -4 0 -21 27 -39
59 -43 78 -156 219 -204 254 -21 16 -39 31 -39 33 0 2 126 4 281 4 l281 0 -39
-32z m967 -3 c83 -27 188 -75 242 -112 l27 -19 -252 -252 -252 -252 -250 250
-250 251 25 19 c39 31 179 96 245 115 149 44 329 43 465 0z m-2624 -1064
c-285 -285 -251 -271 -319 -136 -142 283 -125 588 47 852 l21 33 250 -250 250
-250 -249 -249z m1131 732 c30 -39 93 -173 119 -258 26 -80 29 -104 29 -225 0
-121 -3 -145 -29 -225 -27 -86 -89 -219 -121 -260 -15 -19 -26 -9 -268 233
l-252 252 250 250 c137 137 252 250 254 250 2 0 10 -8 18 -17z m829 -732
c-285 -285 -251 -271 -319 -136 -142 283 -125 588 47 852 l21 33 250 -250 250
-250 -249 -249z m1131 732 c30 -39 93 -173 119 -258 26 -80 29 -104 29 -225 0
-121 -3 -145 -29 -225 -27 -86 -89 -219 -121 -260 -15 -19 -26 -9 -268 233
l-252 252 250 250 c137 137 252 250 254 250 2 0 10 -8 18 -17z m-2185 -1186
c-53 -36 -158 -85 -242 -113 -77 -25 -98 -28 -230 -28 -132 0 -153 3 -230 28
-47 15 -119 46 -160 67 -134 70 -149 34 135 319 l250 250 252 -252 252 -252
-27 -19z m1960 0 c-53 -36 -158 -85 -242 -113 -77 -25 -98 -28 -230 -28 -132
0 -153 3 -230 28 -47 15 -119 46 -160 67 -134 70 -149 34 135 319 l250 250
252 -252 252 -252 -27 -19z"/>
</g>
</svg>
