<?xml version="1.0" standalone="no"?>
<!DOCTYPE svg PUBLIC "-//W3C//DTD SVG 20010904//EN"
 "http://www.w3.org/TR/2001/REC-SVG-20010904/DTD/svg10.dtd">
<svg version="1.0" xmlns="http://www.w3.org/2000/svg"
 width="1530pt" height="1000pt" viewBox="0 0 1530 1000"
 preserveAspectRatio="xMidYMid meet">
<metadata>
Created by potrace 1.9, written by Peter Selinger 2001-2010
</metadata>
<g transform="translate(0,1000) scale(0.100000,-0.100000)"
fill="#000000" stroke="none">
<path d="M1232 8044 c-18 -9 -41 -29 -51 -43 -40 -56 -501 -992 -506 -1028
-11 -74 61 -150 132 -139 68 10 76 22 280 430 l195 391 193 -385 c200 -398
216 -423 282 -436 39 -7 95 18 118 53 41 62 45 53 -233 609 -194 389 -267 525
-287 538 -39 25 -85 29 -123 10z"/>
<path d="M14455 8041 c-26 -12 -208 -188 -531 -512 -535 -538 -529 -530 -504
-613 10 -35 85 -115 503 -535 519 -520 542 -540 613 -527 41 8 90 56 99 96 4
16 2 45 -4 62 -8 23 -151 173 -466 488 l-455 455 459 460 c503 504 493 491
456 568 -32 67 -102 91 -170 58z"/>
<path d="M11041 7083 c-45 -9 -140 -122 -196 -233 -117 -232 -121 -477 -10
-732 7 -17 -15 -18 -369 -18 -308 0 -383 -3 -412 -15 -52 -21 -256 -198 -365
-316 -546 -592 -784 -1407 -644 -2199 105 -588 405 -1114 858 -1502 71 -61
141 -116 155 -124 23 -12 331 -14 2005 -14 1822 0 1982 1 2014 17 19 9 37 22
40 29 2 6 51 51 108 99 354 296 650 753 783 1210 142 486 142 984 0 1470 -106
362 -315 729 -577 1014 -96 103 -306 289 -358 316 -23 12 -108 15 -494 15
l-467 0 -31 35 c-74 85 -115 205 -115 340 0 145 37 244 142 379 68 86 66 167
-4 213 -33 21 -104 21 -135 0 -39 -28 -116 -127 -155 -200 -126 -241 -133
-487 -19 -749 7 -17 -13 -18 -328 -18 l-335 0 -31 35 c-74 85 -115 205 -115
340 0 145 37 244 142 379 68 86 66 167 -4 213 -33 21 -104 21 -135 0 -39 -28
-116 -127 -155 -200 -126 -241 -133 -487 -19 -749 7 -17 -13 -18 -328 -18
l-335 0 -31 35 c-74 85 -115 205 -115 340 0 145 37 244 142 379 29 36 46 69
49 94 12 86 -65 152 -156 135z m3026 -1317 c331 -283 584 -677 708 -1099 122
-419 122 -875 0 -1294 -124 -425 -378 -818 -714 -1104 l-104 -89 -1897 0
-1897 0 -104 89 c-336 286 -590 679 -714 1104 -122 419 -122 875 0 1294 124
422 377 816 708 1099 l98 84 1909 0 1909 0 98 -84z"/>
<path d="M1110 5104 c-194 -35 -394 -125 -531 -240 -290 -242 -446 -650 -384
-1003 49 -279 185 -523 384 -685 145 -119 339 -206 536 -240 114 -20 216 -20
330 0 489 85 833 432 920 925 61 347 -93 758 -373 994 -241 203 -592 302 -882
249z m400 -269 c176 -56 318 -152 431 -291 68 -83 117 -178 155 -299 26 -80
29 -104 29 -225 0 -121 -3 -145 -29 -225 -93 -295 -290 -493 -586 -591 -77
-25 -98 -28 -230 -28 -132 0 -153 3 -230 28 -179 59 -319 154 -431 292 -68 82
-117 177 -155 299 -26 82 -29 103 -28 230 0 126 3 149 28 225 95 288 291 488
567 579 106 35 147 40 274 37 97 -3 137 -9 205 -31z"/>
<path d="M3191 4122 c-36 -19 -71 -72 -71 -107 0 -35 35 -88 71 -107 31 -17
65 -18 431 -18 l398 0 -339 -677 c-306 -612 -345 -684 -395 -737 -93 -99 -147
-225 -161 -376 -5 -53 -3 -71 13 -99 24 -44 77 -74 119 -67 64 9 81 31 183
236 l99 197 53 23 c42 19 71 24 138 24 105 1 175 -28 249 -102 64 -64 90 -117
107 -216 16 -96 26 -117 64 -139 57 -34 143 -13 172 41 17 34 14 141 -7 222
-65 251 -274 420 -552 446 l-72 7 266 531 265 531 439 -877 c478 -955 459
-923 544 -923 71 1 88 21 195 235 l99 197 53 23 c42 19 71 24 138 24 105 1
175 -28 249 -102 64 -64 90 -117 107 -216 16 -96 26 -117 64 -139 57 -34 143
-13 172 41 17 34 14 141 -7 222 -65 251 -274 420 -552 446 l-72 7 266 531 265
531 438 -874 c321 -643 445 -881 466 -898 41 -32 84 -38 127 -18 49 23 67 55
79 139 13 95 46 165 108 226 75 76 144 105 250 105 105 0 175 -29 249 -103 64
-64 90 -117 107 -216 8 -45 19 -90 25 -102 26 -50 114 -70 169 -37 42 24 55
58 54 132 -6 258 -190 488 -444 557 -86 23 -234 23 -319 0 -127 -34 -250 -115
-321 -210 l-34 -47 -373 743 c-204 409 -372 746 -372 751 -1 4 178 7 397 7
366 0 400 1 431 18 36 19 71 72 71 107 0 35 -35 88 -71 107 -32 17 -115 18
-2014 18 -1899 0 -1982 -1 -2014 -18z m2448 -914 c-198 -396 -350 -689 -364
-699 -12 -10 -40 -41 -61 -69 l-39 -51 -372 743 c-204 409 -372 746 -372 751
-1 4 348 7 774 7 l775 0 -341 -682z"/>
</g>
</svg>
