<?xml version="1.0" standalone="no"?>
<!DOCTYPE svg PUBLIC "-//W3C//DTD SVG 20010904//EN"
 "http://www.w3.org/TR/2001/REC-SVG-20010904/DTD/svg10.dtd">
<svg version="1.0" xmlns="http://www.w3.org/2000/svg"
 width="403pt" height="1000pt" viewBox="0 0 403 1000"
 preserveAspectRatio="xMidYMid meet">
<metadata>
Created by potrace 1.9, written by Peter Selinger 2001-2010
</metadata>
<g transform="translate(0,1000) scale(0.100000,-0.100000)"
fill="#000000" stroke="none">
<path d="M1710 4140 c-809 -4 -978 -7 -995 -19 -36 -25 -138 -147 -198 -237
-342 -517 -339 -1167 8 -1689 66 -100 176 -224 218 -247 30 -17 98 -18 1032
-18 945 0 1002 1 1034 18 18 10 43 34 55 53 11 20 44 64 71 98 72 89 168 250
210 350 84 200 118 372 119 596 0 390 -124 714 -393 1020 -61 70 -87 85 -141
83 -25 -2 -484 -5 -1020 -8z m1051 -338 c111 -139 195 -323 236 -514 24 -115
24 -370 -1 -488 -44 -209 -150 -425 -278 -565 l-50 -55 -903 0 -903 0 -50 55
c-131 143 -233 351 -279 567 -24 115 -24 370 1 488 43 208 156 436 279 568
l31 32 925 -2 926 -3 66 -83z"/>
</g>
</svg>
