<?xml version="1.0" standalone="no"?>
<!DOCTYPE svg PUBLIC "-//W3C//DTD SVG 20010904//EN"
 "http://www.w3.org/TR/2001/REC-SVG-20010904/DTD/svg10.dtd">
<svg version="1.0" xmlns="http://www.w3.org/2000/svg"
 width="648pt" height="1000pt" viewBox="0 0 648 1000"
 preserveAspectRatio="xMidYMid meet">
<metadata>
Created by potrace 1.9, written by Peter Selinger 2001-2010
</metadata>
<g transform="translate(0,1000) scale(0.100000,-0.100000)"
fill="#000000" stroke="none">
<path d="M2212 8044 c-18 -9 -41 -29 -51 -43 -40 -56 -501 -992 -506 -1028
-11 -74 61 -150 132 -139 68 10 76 22 280 430 l195 391 193 -385 c200 -398
216 -423 282 -436 39 -7 95 18 118 53 41 62 45 53 -233 609 -194 389 -267 525
-287 538 -39 25 -85 29 -123 10z"/>
<path d="M2212 6084 c-18 -9 -41 -29 -51 -43 -41 -58 -1971 -3933 -1976 -3968
-8 -49 19 -100 66 -125 28 -15 57 -18 182 -18 l149 0 -39 -32 c-108 -91 -230
-271 -289 -428 -59 -155 -86 -376 -64 -522 45 -292 190 -555 397 -719 103 -81
276 -170 397 -204 81 -23 105 -25 296 -25 191 0 215 2 296 25 122 34 294 123
398 205 289 229 454 654 391 1009 -22 128 -62 246 -117 352 -58 111 -170 259
-231 304 l-42 30 165 5 c137 4 170 8 192 23 28 19 58 73 58 104 0 33 -36 86
-71 105 -32 17 -81 18 -921 18 -489 0 -888 2 -888 5 0 3 394 794 876 1757
l876 1753 929 -1857 c791 -1581 933 -1859 961 -1880 31 -21 44 -23 191 -26
l157 -3 -38 -32 c-107 -90 -229 -271 -288 -427 -59 -155 -86 -376 -64 -522 45
-292 190 -555 397 -719 103 -81 276 -170 397 -204 81 -23 105 -25 296 -25 191
0 215 2 296 25 122 34 294 123 398 205 289 229 454 654 391 1009 -22 128 -62
246 -117 352 -58 111 -170 259 -231 304 l-42 30 165 5 c137 4 170 8 192 23 28
19 58 73 58 104 0 33 -36 86 -71 105 -32 17 -83 18 -986 18 l-953 0 -969 1938
c-743 1487 -976 1943 -996 1956 -39 25 -85 29 -123 10z m-702 -4189 c83 -27
188 -75 242 -112 l27 -19 -252 -252 -252 -252 -250 250 -250 251 25 19 c39 31
179 96 245 115 149 44 329 43 465 0z m3920 0 c83 -27 188 -75 242 -112 l27
-19 -252 -252 -252 -252 -250 250 -250 251 25 19 c39 31 179 96 245 115 149
44 329 43 465 0z m-4584 -1064 c-285 -285 -251 -271 -319 -136 -142 283 -125
588 47 852 l21 33 250 -250 250 -250 -249 -249z m1131 732 c30 -39 93 -173
119 -258 26 -80 29 -104 29 -225 0 -121 -3 -145 -29 -225 -27 -86 -89 -219
-121 -260 -15 -19 -26 -9 -268 233 l-252 252 250 250 c137 137 252 250 254
250 2 0 10 -8 18 -17z m2789 -732 c-285 -285 -251 -271 -319 -136 -142 283
-125 588 47 852 l21 33 250 -250 250 -250 -249 -249z m1131 732 c30 -39 93
-173 119 -258 26 -80 29 -104 29 -225 0 -121 -3 -145 -29 -225 -27 -86 -89
-219 -121 -260 -15 -19 -26 -9 -268 233 l-252 252 250 250 c137 137 252 250
254 250 2 0 10 -8 18 -17z m-4145 -1186 c-53 -36 -158 -85 -242 -113 -77 -25
-98 -28 -230 -28 -132 0 -153 3 -230 28 -47 15 -119 46 -160 67 -134 70 -149
34 135 319 l250 250 252 -252 252 -252 -27 -19z m3920 0 c-53 -36 -158 -85
-242 -113 -77 -25 -98 -28 -230 -28 -132 0 -153 3 -230 28 -47 15 -119 46
-160 67 -134 70 -149 34 135 319 l250 250 252 -252 252 -252 -27 -19z"/>
</g>
</svg>
