<?xml version="1.0" standalone="no"?>
<!DOCTYPE svg PUBLIC "-//W3C//DTD SVG 20010904//EN"
 "http://www.w3.org/TR/2001/REC-SVG-20010904/DTD/svg10.dtd">
<svg version="1.0" xmlns="http://www.w3.org/2000/svg"
 width="1383pt" height="1000pt" viewBox="0 0 1383 1000"
 preserveAspectRatio="xMidYMid meet">
<metadata>
Created by potrace 1.9, written by Peter Selinger 2001-2010
</metadata>
<g transform="translate(0,1000) scale(0.100000,-0.100000)"
fill="#000000" stroke="none">
<path d="M2090 6084 c-270 -49 -508 -184 -674 -383 -113 -135 -208 -344 -237
-520 l-12 -68 -68 -12 c-176 -29 -385 -124 -520 -237 -290 -242 -446 -650
-384 -1003 49 -279 185 -523 384 -685 188 -154 467 -256 701 -256 239 0 523
106 712 265 280 236 434 647 373 994 -62 352 -254 632 -543 792 -125 69 -207
99 -374 134 -35 7 -35 21 -2 127 91 288 289 486 584 584 77 25 98 28 230 28
132 0 153 -3 230 -28 183 -61 317 -152 431 -292 66 -80 115 -175 155 -294 25
-76 28 -100 28 -220 0 -110 -5 -159 -27 -265 -116 -544 -340 -1056 -641 -1465
-324 -441 -698 -782 -1159 -1059 -93 -56 -127 -94 -127 -144 0 -76 66 -135
138 -123 39 6 169 80 347 200 768 512 1362 1337 1608 2232 66 241 129 576 120
644 -31 253 -83 411 -188 575 -222 347 -685 552 -1085 479z m-580 -1249 c176
-56 318 -152 431 -291 68 -83 117 -178 155 -299 26 -80 29 -104 29 -225 0
-121 -3 -145 -29 -225 -93 -295 -290 -493 -586 -591 -77 -25 -98 -28 -230 -28
-132 0 -153 3 -230 28 -179 59 -319 154 -431 292 -68 82 -117 177 -155 299
-26 82 -29 103 -28 230 0 126 3 149 28 225 95 288 291 488 567 579 106 35 147
40 274 37 97 -3 137 -9 205 -31z"/>
<path d="M6131 6082 c-19 -10 -43 -34 -53 -53 -17 -32 -18 -113 -18 -1941 l0
-1908 -928 0 c-879 0 -929 -1 -961 -18 -36 -19 -71 -72 -71 -107 0 -35 35 -88
71 -107 32 -17 115 -18 2014 -18 1899 0 1982 1 2014 18 36 19 71 72 71 107 0
35 -35 88 -71 107 -32 17 -82 18 -961 18 l-928 0 0 855 0 855 928 0 c879 0
929 1 961 18 19 10 43 34 53 53 17 32 18 84 18 1034 0 950 -1 1002 -18 1034
-10 19 -34 43 -53 53 -32 17 -84 18 -1034 18 -950 0 -1002 -1 -1034 -18z
m1889 -1087 l0 -855 -855 0 -855 0 0 855 0 855 855 0 855 0 0 -855z"/>
<path d="M11015 3360 c-240 -34 -421 -200 -486 -447 -28 -104 -30 -308 -5
-403 60 -228 217 -391 427 -447 85 -22 243 -22 328 0 156 42 294 149 364 284
59 113 79 205 79 358 0 153 -20 245 -79 358 -70 132 -209 243 -356 281 -74 19
-198 27 -272 16z m289 -178 c122 -57 207 -169 242 -319 23 -96 15 -294 -15
-378 -44 -122 -121 -208 -237 -262 -54 -26 -69 -28 -179 -28 -114 0 -123 2
-188 32 -41 20 -88 53 -121 86 -97 97 -136 208 -136 387 0 188 42 311 135 399
96 91 183 122 331 117 88 -2 109 -6 168 -34z"/>
<path d="M9270 2705 l0 -645 85 0 85 0 0 285 0 285 143 0 c135 0 146 -2 196
-26 68 -34 129 -110 287 -358 l119 -186 97 0 98 0 -112 178 c-62 97 -131 202
-154 232 -51 67 -133 145 -162 154 -31 10 -20 22 25 29 111 15 231 95 272 180
67 139 39 318 -66 419 -86 84 -174 98 -615 98 l-298 0 0 -645z m707 480 c62
-19 128 -85 139 -140 18 -100 -24 -189 -111 -234 -49 -26 -54 -26 -307 -29
l-258 -3 0 210 0 211 243 0 c187 0 255 -3 294 -15z"/>
<path d="M11973 2898 c4 -369 7 -466 20 -522 48 -205 160 -299 388 -327 240
-29 444 53 524 212 53 104 57 147 62 637 l5 452 -86 0 -85 0 -3 -457 c-4 -519
-5 -528 -80 -609 -53 -57 -134 -84 -253 -84 -180 0 -281 73 -314 228 -7 35
-11 204 -11 487 l0 435 -86 0 -86 0 5 -452z"/>
</g>
</svg>
