<?xml version="1.0" standalone="no"?>
<!DOCTYPE svg PUBLIC "-//W3C//DTD SVG 20010904//EN"
 "http://www.w3.org/TR/2001/REC-SVG-20010904/DTD/svg10.dtd">
<svg version="1.0" xmlns="http://www.w3.org/2000/svg"
 width="452pt" height="1000pt" viewBox="0 0 452 1000"
 preserveAspectRatio="xMidYMid meet">
<metadata>
Created by potrace 1.9, written by Peter Selinger 2001-2010
</metadata>
<g transform="translate(0,1000) scale(0.100000,-0.100000)"
fill="#000000" stroke="none">
<path d="M251 2162 c-36 -19 -71 -72 -71 -107 0 -35 35 -88 71 -107 32 -17 82
-18 951 -18 l918 0 0 -36 c0 -95 -47 -309 -100 -454 -97 -264 -227 -466 -430
-670 -246 -246 -521 -402 -850 -484 -128 -32 -147 -35 -329 -50 -88 -8 -166
-19 -178 -26 -47 -30 -70 -110 -44 -158 27 -51 32 -52 214 -52 181 0 260 10
432 54 585 149 1081 563 1346 1121 26 55 53 119 60 143 6 23 15 42 19 42 4 0
13 -19 19 -42 20 -66 101 -233 165 -337 282 -462 730 -797 1241 -927 172 -44
251 -54 430 -54 94 0 175 4 181 8 61 42 56 161 -9 202 -12 7 -90 18 -178 26
-182 15 -201 18 -329 50 -325 80 -601 237 -841 475 -207 206 -342 416 -439
679 -53 145 -100 359 -100 454 l0 36 923 0 c874 0 924 1 956 18 36 19 71 72
71 107 0 35 -35 88 -71 107 -32 17 -115 18 -2014 18 -1899 0 -1982 -1 -2014
-18z"/>
</g>
</svg>
