<?xml version="1.0" standalone="no"?>
<!DOCTYPE svg PUBLIC "-//W3C//DTD SVG 20010904//EN"
 "http://www.w3.org/TR/2001/REC-SVG-20010904/DTD/svg10.dtd">
<svg version="1.0" xmlns="http://www.w3.org/2000/svg"
 width="844pt" height="1000pt" viewBox="0 0 844 1000"
 preserveAspectRatio="xMidYMid meet">
<metadata>
Created by potrace 1.9, written by Peter Selinger 2001-2010
</metadata>
<g transform="translate(0,1000) scale(0.100000,-0.100000)"
fill="#000000" stroke="none">
<path d="M2205 6081 c-57 -27 -1988 -1962 -2010 -2013 -13 -33 -15 -161 -15
-1035 0 -948 1 -1000 18 -1032 10 -19 34 -43 53 -53 32 -17 177 -18 3974 -18
3797 0 3942 1 3974 18 19 10 43 34 53 53 17 32 18 84 18 1032 0 833 -2 1003
-14 1030 -8 19 -428 446 -1012 1029 -804 802 -1005 997 -1031 1003 -77 16 -52
39 -1051 -959 l-942 -941 -943 942 c-531 531 -954 947 -970 953 -39 14 -56 13
-102 -9z m-65 -2156 l0 -1745 -855 0 -855 0 0 892 0 893 852 852 c469 469 854
853 855 853 2 0 3 -785 3 -1745z m3920 0 l0 -1745 -855 0 -855 0 0 892 0 893
852 852 c469 469 854 853 855 853 2 0 3 -785 3 -1745z m-1960 -857 l0 -888
-855 0 -855 0 0 1742 0 1743 855 -855 855 -855 0 -887z m3920 0 l0 -888 -855
0 -855 0 0 1742 0 1743 855 -855 855 -855 0 -887z"/>
</g>
</svg>
