<?xml version="1.0" standalone="no"?>
<!DOCTYPE svg PUBLIC "-//W3C//DTD SVG 20010904//EN"
 "http://www.w3.org/TR/2001/REC-SVG-20010904/DTD/svg10.dtd">
<svg version="1.0" xmlns="http://www.w3.org/2000/svg"
 width="1579pt" height="1000pt" viewBox="0 0 1579 1000"
 preserveAspectRatio="xMidYMid meet">
<metadata>
Created by potrace 1.9, written by Peter Selinger 2001-2010
</metadata>
<g transform="translate(0,1000) scale(0.100000,-0.100000)"
fill="#000000" stroke="none">
<path d="M251 6082 c-19 -10 -43 -34 -53 -53 -17 -32 -18 -84 -18 -1034 0
-950 1 -1002 18 -1034 38 -71 40 -71 484 -71 l398 0 -445 -890 c-246 -492
-447 -906 -450 -927 -16 -104 101 -175 190 -117 20 13 134 232 467 898 l440
881 438 -874 c321 -643 445 -881 466 -898 63 -50 148 -33 186 37 17 33 18 111
18 2015 0 1899 -1 1982 -18 2014 -19 36 -72 71 -107 71 -35 0 -88 -35 -107
-71 -17 -32 -18 -82 -18 -961 l0 -928 -855 0 -855 0 0 928 c0 879 -1 929 -18
961 -19 36 -72 71 -107 71 -11 0 -36 -8 -54 -18z m1888 -2844 l0 -653 -324
645 c-178 355 -324 648 -324 653 -1 4 145 7 324 7 l325 0 -1 -652z"/>
<path d="M5151 6082 c-19 -10 -43 -34 -53 -53 -17 -32 -18 -82 -18 -961 l0
-928 -936 0 c-856 0 -938 -1 -964 -17 -47 -28 -55 -55 -53 -182 9 -506 237
-1027 612 -1400 387 -384 904 -595 1461 -595 204 0 323 15 520 64 592 149
1093 561 1356 1115 112 236 163 438 203 808 13 115 2 152 -54 187 -32 20 -47
20 -964 20 l-931 0 0 928 c0 879 -1 929 -18 961 -19 36 -72 71 -107 71 -11 0
-36 -8 -54 -18z m1869 -2228 c0 -143 -76 -420 -170 -622 -142 -302 -420 -607
-717 -786 -184 -110 -440 -201 -668 -237 -103 -16 -427 -16 -530 0 -228 36
-484 127 -668 237 -297 179 -575 484 -717 786 -94 202 -170 479 -170 622 l0
36 1820 0 1820 0 0 -36z"/>
<path d="M15440 6085 c-22 -10 -465 -445 -1217 -1198 l-1183 -1182 -212 212
c-229 227 -242 236 -315 213 -30 -10 -187 -160 -763 -736 l-725 -723 -94 -11
c-353 -40 -652 -176 -889 -405 -70 -67 -95 -99 -101 -125 -21 -96 61 -174 154
-149 22 6 66 39 118 87 147 139 260 211 427 272 l85 31 -116 -118 c-89 -90
-120 -128 -129 -159 -25 -83 -31 -75 504 -613 362 -364 502 -498 535 -513 86
-39 76 -47 483 359 l366 366 93 -38 c467 -189 993 -136 1413 142 100 67 215
165 240 205 9 14 16 47 16 72 0 39 -5 51 -35 81 -30 30 -42 35 -81 35 -48 0
-104 -30 -154 -85 -74 -80 -243 -180 -400 -238 -153 -57 -233 -70 -420 -70
-180 -1 -243 8 -389 55 l-94 30 546 546 c581 583 572 572 548 645 -7 21 -82
103 -221 242 l-210 210 1194 1195 c1308 1308 1230 1222 1191 1303 -30 64 -100
90 -165 62z m-2487 -2653 l397 -397 -513 -512 -512 -512 -51 38 c-36 28 -53
50 -62 79 -9 30 -36 63 -105 129 -186 177 -425 308 -676 368 l-73 18 593 593
c327 327 596 594 599 594 3 0 184 -179 403 -398z m-1630 -1038 c165 -31 360
-118 492 -219 90 -69 118 -100 139 -155 15 -41 82 -110 171 -174 19 -14 6 -29
-267 -303 l-288 -288 -400 400 -400 400 182 182 182 183 56 -6 c30 -3 90 -12
133 -20z"/>
<path d="M8555 4133 c-256 -40 -449 -208 -510 -443 -21 -81 -24 -188 -7 -222
29 -54 115 -75 172 -41 38 22 48 43 64 139 17 99 43 152 107 216 74 74 144
103 249 103 71 0 94 -5 142 -27 111 -51 206 -178 211 -280 2 -41 -16 -70 -472
-753 -261 -390 -479 -726 -485 -746 -12 -47 16 -104 64 -131 32 -17 68 -18
545 -18 475 0 513 1 544 18 35 19 71 72 71 105 0 31 -30 85 -58 104 -25 16
-62 18 -420 23 l-392 5 426 638 c234 351 430 651 435 665 11 27 8 46 -28 202
-45 198 -218 372 -420 424 -66 17 -189 27 -238 19z"/>
</g>
</svg>
