<?xml version="1.0" standalone="no"?>
<!DOCTYPE svg PUBLIC "-//W3C//DTD SVG 20010904//EN"
 "http://www.w3.org/TR/2001/REC-SVG-20010904/DTD/svg10.dtd">
<svg version="1.0" xmlns="http://www.w3.org/2000/svg"
 width="452pt" height="1000pt" viewBox="0 0 452 1000"
 preserveAspectRatio="xMidYMid meet">
<metadata>
Created by potrace 1.9, written by Peter Selinger 2001-2010
</metadata>
<g transform="translate(0,1000) scale(0.100000,-0.100000)"
fill="#000000" stroke="none">
<path d="M1721 8042 c-47 -25 -74 -76 -66 -125 3 -21 118 -263 255 -537 272
-544 273 -545 355 -545 78 1 77 -2 357 559 278 556 274 547 233 609 -23 35
-79 60 -118 53 -66 -13 -82 -38 -282 -436 l-193 -385 -195 391 c-143 286 -202
395 -222 408 -41 27 -85 30 -124 8z"/>
<path d="M251 6082 c-19 -10 -43 -34 -53 -53 -17 -32 -18 -84 -18 -1034 0
-950 1 -1002 18 -1034 10 -19 34 -43 53 -53 32 -17 115 -18 2014 -18 1899 0
1982 1 2014 18 19 10 43 34 53 53 17 32 18 84 18 1034 0 950 -1 1002 -18 1034
-19 35 -72 71 -105 71 -56 0 -103 -42 -539 -478 l-448 -447 -457 457 c-363
361 -465 457 -490 463 -74 15 -82 8 -561 -469 l-452 -451 -453 452 c-248 249
-465 457 -480 463 -39 14 -57 13 -96 -8z m2454 -733 c322 -323 452 -446 484
-461 86 -40 72 -50 514 390 l397 397 0 -768 0 -767 -1835 0 -1835 0 0 762 0
763 387 -387 c419 -417 426 -422 502 -399 28 8 136 110 486 461 247 247 452
450 455 450 3 0 203 -198 445 -441z"/>
</g>
</svg>
