<?xml version="1.0" standalone="no"?>
<!DOCTYPE svg PUBLIC "-//W3C//DTD SVG 20010904//EN"
 "http://www.w3.org/TR/2001/REC-SVG-20010904/DTD/svg10.dtd">
<svg version="1.0" xmlns="http://www.w3.org/2000/svg"
 width="452pt" height="1000pt" viewBox="0 0 452 1000"
 preserveAspectRatio="xMidYMid meet">
<metadata>
Created by potrace 1.9, written by Peter Selinger 2001-2010
</metadata>
<g transform="translate(0,1000) scale(0.100000,-0.100000)"
fill="#000000" stroke="none">
<path d="M2211 6082 c-19 -10 -43 -34 -53 -53 -17 -32 -18 -82 -18 -961 l0
-928 -936 0 c-844 0 -939 -2 -963 -16 -59 -35 -56 28 -59 -1059 -2 -550 0
-1014 3 -1032 7 -42 57 -91 99 -99 42 -7 98 17 123 54 17 25 18 66 23 532 l5
505 44 -75 c120 -204 334 -445 516 -580 385 -286 797 -424 1265 -424 204 0
323 15 520 64 592 149 1093 561 1356 1115 112 236 163 438 203 808 13 115 2
152 -54 187 -32 20 -47 20 -964 20 l-931 0 0 928 c0 879 -1 929 -18 961 -19
36 -72 71 -107 71 -11 0 -36 -8 -54 -18z m1869 -2228 c0 -143 -76 -420 -170
-622 -142 -302 -420 -607 -717 -786 -184 -110 -440 -201 -668 -237 -103 -16
-427 -16 -530 0 -228 36 -484 127 -668 237 -297 179 -575 484 -717 786 -94
202 -170 479 -170 622 l0 36 1820 0 1820 0 0 -36z"/>
</g>
</svg>
