<?xml version="1.0" standalone="no"?>
<!DOCTYPE svg PUBLIC "-//W3C//DTD SVG 20010904//EN"
 "http://www.w3.org/TR/2001/REC-SVG-20010904/DTD/svg10.dtd">
<svg version="1.0" xmlns="http://www.w3.org/2000/svg"
 width="1432pt" height="1000pt" viewBox="0 0 1432 1000"
 preserveAspectRatio="xMidYMid meet">
<metadata>
Created by potrace 1.9, written by Peter Selinger 2001-2010
</metadata>
<g transform="translate(0,1000) scale(0.100000,-0.100000)"
fill="#000000" stroke="none">
<path d="M251 6082 c-19 -10 -43 -34 -53 -53 -17 -32 -18 -84 -18 -1034 0
-950 1 -1002 18 -1034 38 -71 40 -71 484 -71 l398 0 -445 -890 c-246 -492
-447 -906 -450 -927 -16 -104 101 -175 190 -117 20 13 134 232 467 898 l440
881 438 -874 c321 -643 445 -881 466 -898 63 -50 148 -33 186 37 17 33 18 111
18 2015 0 1899 -1 1982 -18 2014 -19 36 -72 71 -107 71 -35 0 -88 -35 -107
-71 -17 -32 -18 -82 -18 -961 l0 -928 -855 0 -855 0 0 928 c0 879 -1 929 -18
961 -19 36 -72 71 -107 71 -11 0 -36 -8 -54 -18z m1888 -2844 l0 -653 -324
645 c-178 355 -324 648 -324 653 -1 4 145 7 324 7 l325 0 -1 -652z"/>
<path d="M10052 6084 c-18 -9 -41 -29 -51 -43 -41 -58 -1971 -3933 -1976
-3968 -8 -49 19 -100 66 -125 32 -17 84 -18 1034 -18 950 0 1002 1 1034 18 36
19 71 72 71 107 0 35 -35 88 -71 107 -32 17 -81 18 -921 18 -489 0 -888 2
-888 5 0 3 394 794 876 1757 l876 1753 929 -1857 c791 -1581 933 -1859 961
-1880 l33 -23 995 -3 c547 -1 1009 0 1027 3 42 8 91 57 99 100 8 46 -21 102
-66 127 -33 17 -81 18 -987 18 l-953 0 -969 1938 c-743 1487 -976 1943 -996
1956 -39 25 -85 29 -123 10z"/>
<path d="M5015 4130 c-153 -11 -384 -54 -550 -102 -359 -105 -726 -313 -1009
-572 -135 -124 -323 -346 -332 -391 -10 -55 8 -86 124 -222 454 -530 1090
-846 1800 -894 377 -25 806 49 1164 203 342 146 695 402 915 662 42 50 94 108
114 128 41 41 56 88 41 129 -16 41 -232 287 -338 385 -430 394 -991 634 -1577
674 -148 10 -194 10 -352 0z m350 -250 c262 -18 499 -76 746 -181 246 -106
482 -261 679 -448 l95 -90 -1685 0 -1685 0 95 90 c119 113 293 244 433 326
285 167 655 281 977 303 158 11 193 11 345 0z m1420 -1056 c-261 -247 -594
-438 -938 -539 -419 -122 -875 -122 -1294 0 -344 101 -677 292 -938 539 l-90
85 1675 0 1675 0 -90 -85z"/>
</g>
</svg>
