<?xml version="1.0" standalone="no"?>
<!DOCTYPE svg PUBLIC "-//W3C//DTD SVG 20010904//EN"
 "http://www.w3.org/TR/2001/REC-SVG-20010904/DTD/svg10.dtd">
<svg version="1.0" xmlns="http://www.w3.org/2000/svg"
 width="1187pt" height="1000pt" viewBox="0 0 1187 1000"
 preserveAspectRatio="xMidYMid meet">
<metadata>
Created by potrace 1.9, written by Peter Selinger 2001-2010
</metadata>
<g transform="translate(0,1000) scale(0.100000,-0.100000)"
fill="#000000" stroke="none">
<path d="M5635 6086 c-63 -27 -89 -120 -51 -178 10 -15 68 -70 129 -122 349
-294 605 -686 732 -1119 122 -419 122 -875 0 -1294 -127 -433 -383 -825 -732
-1119 -128 -109 -146 -133 -146 -190 0 -85 77 -141 158 -114 20 7 93 60 163
120 448 380 752 913 857 1500 70 395 48 793 -67 1185 -135 462 -423 905 -790
1216 -150 127 -187 144 -253 115z"/>
<path d="M9465 6094 c-684 -55 -1279 -418 -1631 -994 -199 -327 -298 -686
-298 -1080 0 -204 15 -323 64 -520 184 -731 759 -1306 1490 -1490 197 -49 316
-64 520 -64 557 0 1074 211 1461 595 398 396 613 914 613 1479 0 204 -15 323
-64 520 -165 656 -654 1197 -1290 1430 -108 39 -286 84 -416 104 -102 16 -357
27 -449 20z m418 -265 c215 -32 478 -126 660 -235 240 -145 495 -400 640 -641
111 -184 202 -440 238 -668 7 -44 13 -163 13 -265 0 -195 -10 -285 -49 -440
-84 -332 -244 -610 -494 -859 -240 -238 -514 -393 -841 -476 -155 -39 -245
-49 -440 -49 -195 0 -285 10 -440 49 -327 83 -601 238 -841 476 -207 206 -342
416 -439 679 -76 209 -104 374 -104 620 0 195 10 285 49 440 84 331 239 604
485 850 318 317 699 495 1150 534 73 6 334 -3 413 -15z"/>
<path d="M9555 5591 c-27 -13 -201 -180 -531 -512 -513 -516 -526 -530 -509
-596 16 -67 79 -110 143 -98 32 5 98 68 494 463 l458 457 452 -452 c473 -470
490 -485 555 -468 67 16 110 79 98 143 -5 32 -74 104 -513 546 -290 290 -521
514 -539 522 -42 18 -60 17 -108 -5z"/>
<path d="M1980 3030 l0 -970 115 0 115 0 0 92 0 91 35 -45 c67 -85 164 -140
282 -158 282 -44 560 160 638 467 42 168 40 400 -6 551 -87 284 -282 436 -554
435 -148 -1 -245 -42 -345 -146 l-40 -41 0 347 0 347 -120 0 -120 0 0 -970z
m725 249 c33 -12 77 -41 110 -71 99 -91 145 -228 145 -438 0 -210 -40 -332
-144 -436 -82 -82 -148 -108 -261 -102 -60 4 -92 11 -130 30 -62 32 -149 123
-176 183 -31 71 -49 186 -49 318 0 211 39 327 144 433 43 42 78 67 116 82 74
28 171 29 245 1z"/>
<path d="M945 3489 c-162 -17 -321 -87 -392 -173 -37 -45 -75 -122 -96 -192
l-15 -51 119 -15 c80 -9 119 -11 119 -3 0 5 13 37 29 71 64 135 157 179 361
172 110 -4 122 -6 186 -39 103 -51 138 -116 132 -247 l-3 -67 -84 -22 c-46
-12 -181 -36 -300 -53 -250 -35 -272 -40 -364 -87 -289 -145 -300 -551 -20
-691 84 -42 154 -56 278 -56 178 1 313 49 449 160 60 48 60 48 71 -20 4 -22
13 -57 22 -78 l15 -38 114 0 c63 0 114 2 114 5 0 2 -12 40 -27 82 l-27 78 -7
475 c-5 393 -9 484 -22 525 -50 158 -177 241 -399 265 -105 11 -140 11 -253
-1z m445 -821 c0 -197 -57 -307 -201 -391 -99 -58 -279 -75 -382 -37 -57 21
-119 77 -136 123 -18 47 -13 119 12 167 43 86 116 115 399 159 75 12 171 32
215 45 43 13 81 24 86 25 4 0 7 -41 7 -91z"/>
<path d="M3950 3491 c-199 -29 -357 -133 -438 -289 -78 -150 -113 -352 -93
-548 17 -172 48 -267 120 -372 95 -139 235 -220 419 -242 321 -39 574 128 651
433 17 66 18 72 2 75 -9 1 -62 8 -118 15 l-101 13 -6 -38 c-19 -116 -94 -226
-190 -276 -46 -24 -61 -27 -156 -27 -126 0 -172 17 -254 95 -96 91 -136 218
-136 435 0 246 54 386 184 474 92 63 226 79 330 40 70 -26 146 -106 175 -184
12 -31 21 -59 21 -63 0 -5 53 -1 119 6 l118 15 -14 55 c-47 180 -184 321 -354
366 -71 18 -209 26 -279 17z"/>
</g>
</svg>
