<?xml version="1.0" standalone="no"?>
<!DOCTYPE svg PUBLIC "-//W3C//DTD SVG 20010904//EN"
 "http://www.w3.org/TR/2001/REC-SVG-20010904/DTD/svg10.dtd">
<svg version="1.0" xmlns="http://www.w3.org/2000/svg"
 width="183pt" height="1000pt" viewBox="0 0 183 1000"
 preserveAspectRatio="xMidYMid meet">
<g transform="translate(0,1000) scale(0.100000,-0.100000)"
fill="#000000" stroke="none">
<path d="M812 4020 c-241 -28 -430 -141 -509 -304 -91 -190 -62 -392 78 -531 105 -105 216 -151 601 -251 298 -77 381 -118 427 -212 35 -73 37 -175 5 -245 -64 -141 -219 -217 -443 -217 -227 0 -423 95 -497 242 -25 51 -57 155 -57 188 0 13 -17 15 -117 12 -65 -2 -119 -5 -120 -6 -1 -1 2 -34 7 -73 33 -258 200 -462 442 -538 115 -36 197 -47 353 -48 111 0 159 4 228 21 89 22 206 74 262 116 225 171 288 488 140 710 -91 138 -244 216 -584 297 -284 69 -401 111 -455 165 -89 90 -89 234 1 335 77 84 180 119 359 119 188 0 307 -44 384 -141 36 -46 80 -154 80 -198 0 -15 13 -16 128 -13 70 2 128 5 130 7 1 1 -4 38 -12 82 -52 298 -283 468 -661 486 -55 3 -131 2 -170 -3z"/>
</g>
</svg>

