<?xml version="1.0" standalone="no"?>
<!DOCTYPE svg PUBLIC "-//W3C//DTD SVG 20010904//EN"
 "http://www.w3.org/TR/2001/REC-SVG-20010904/DTD/svg10.dtd">
<svg version="1.0" xmlns="http://www.w3.org/2000/svg"
 width="452pt" height="1000pt" viewBox="0 0 452 1000"
 preserveAspectRatio="xMidYMid meet">
<metadata>
Created by potrace 1.9, written by Peter Selinger 2001-2010
</metadata>
<g transform="translate(0,1000) scale(0.100000,-0.100000)"
fill="#000000" stroke="none">
<path d="M251 6082 c-19 -10 -43 -34 -53 -53 -18 -33 -19 -76 -15 -1129 4
-1210 1 -1144 71 -1415 185 -720 762 -1293 1486 -1475 197 -49 316 -64 520
-64 557 0 1074 211 1461 595 324 322 531 737 593 1184 35 255 36 313 36 1290
0 930 -1 982 -18 1014 -19 36 -72 71 -107 71 -35 0 -88 -35 -107 -71 -17 -32
-18 -83 -18 -984 0 -1108 -6 -1235 -69 -1482 -39 -152 -121 -348 -198 -476
-145 -241 -400 -496 -640 -641 -184 -110 -440 -201 -668 -237 -103 -16 -427
-16 -530 0 -228 36 -484 127 -668 237 -240 145 -495 400 -640 641 -78 128
-158 323 -198 478 -53 204 -51 163 -58 1345 -6 1044 -7 1106 -24 1132 -19 28
-73 58 -104 58 -10 0 -34 -8 -52 -18z"/>
</g>
</svg>
