<?xml version="1.0" standalone="no"?>
<!DOCTYPE svg PUBLIC "-//W3C//DTD SVG 20010904//EN"
 "http://www.w3.org/TR/2001/REC-SVG-20010904/DTD/svg10.dtd">
<svg version="1.0" xmlns="http://www.w3.org/2000/svg"
 width="1334pt" height="1000pt" viewBox="0 0 1334 1000"
 preserveAspectRatio="xMidYMid meet">
<metadata>
Created by potrace 1.9, written by Peter Selinger 2001-2010
</metadata>
<g transform="translate(0,1000) scale(0.100000,-0.100000)"
fill="#000000" stroke="none">
<path d="M7545 6075 c-30 -31 -35 -42 -35 -83 0 -41 6 -54 43 -99 144 -176
180 -225 220 -302 54 -102 100 -230 124 -343 24 -115 24 -370 -1 -488 -44
-211 -175 -473 -291 -580 -55 -50 -85 -106 -85 -154 0 -39 5 -51 35 -81 30
-30 42 -35 81 -35 59 0 85 17 159 100 295 336 428 810 350 1253 -52 290 -173
538 -374 762 -63 70 -88 85 -143 85 -41 0 -52 -5 -83 -35z"/>
<path d="M4171 6082 c-71 -38 -71 -35 -71 -524 l0 -438 -438 0 c-404 0 -440
-1 -471 -18 -36 -19 -71 -72 -71 -107 0 -35 35 -88 71 -107 31 -17 67 -18 471
-18 l438 0 0 -1418 c0 -1354 1 -1419 18 -1451 19 -36 72 -71 107 -71 35 0 88
35 107 71 17 32 18 97 18 1451 l0 1418 438 0 c489 0 486 0 524 71 23 42 23 66
0 108 -38 71 -35 71 -524 71 l-438 0 0 438 c0 404 -1 440 -18 471 -19 36 -72
71 -107 71 -11 0 -36 -8 -54 -18z"/>
<path d="M6600 6083 c-39 -25 -138 -142 -203 -239 -343 -518 -339 -1167 9
-1690 73 -111 169 -215 217 -237 71 -33 146 -1 168 72 17 56 0 95 -82 186
-152 171 -247 360 -296 587 -24 115 -24 370 1 488 44 211 175 473 291 580 55
50 85 106 85 154 0 39 -5 51 -35 81 -31 30 -42 35 -83 35 -26 0 -58 -8 -72
-17z"/>
<path d="M11025 6081 c-28 -13 -345 -325 -1021 -1002 -792 -794 -984 -991
-994 -1022 -20 -64 6 -123 67 -152 80 -38 18 -93 1055 943 l948 947 942 -941
c761 -760 950 -944 981 -954 64 -20 123 6 152 67 38 80 98 14 -993 1107 -583
583 -1010 1004 -1029 1012 -42 18 -60 17 -108 -5z"/>
<path d="M1110 5104 c-194 -35 -394 -125 -531 -240 -290 -242 -446 -650 -384
-1003 50 -285 189 -528 395 -694 100 -79 275 -169 395 -202 50 -13 138 -31
196 -40 99 -14 112 -14 227 5 160 26 285 68 407 135 296 164 488 441 550 796
61 347 -93 758 -373 994 -241 203 -592 302 -882 249z m50 -1084 c0 -727 -2
-840 -14 -840 -33 0 -186 54 -257 91 -144 75 -291 222 -362 364 -19 39 -48
111 -63 160 -26 82 -29 103 -28 230 0 126 3 149 28 225 16 47 44 117 63 155
70 140 221 293 358 363 71 36 225 91 258 92 16 0 17 -47 17 -840z m352 814
c173 -54 316 -151 429 -290 68 -83 117 -178 155 -299 26 -80 29 -104 29 -225
0 -121 -3 -145 -29 -225 -93 -295 -295 -498 -584 -589 -46 -14 -87 -26 -93
-26 -5 0 -9 317 -9 840 0 523 4 840 9 840 6 0 47 -12 93 -26z"/>
<path d="M10420 4124 c-194 -35 -394 -125 -531 -240 -290 -242 -446 -650 -384
-1003 49 -279 185 -523 384 -685 188 -154 467 -256 701 -256 131 0 349 49 453
101 36 19 38 19 75 0 57 -29 189 -68 288 -85 113 -20 215 -20 329 0 489 85
833 432 920 925 61 347 -93 758 -373 994 -189 159 -473 265 -712 265 -131 0
-349 -49 -452 -101 -37 -19 -39 -19 -75 0 -21 10 -75 30 -119 44 -175 55 -349
69 -504 41z m324 -249 c38 -8 71 -16 73 -19 3 -2 -31 -45 -74 -95 -209 -245
-310 -587 -258 -881 38 -215 126 -406 258 -561 43 -50 77 -93 74 -95 -2 -3
-37 -12 -78 -20 -221 -47 -499 28 -685 185 -137 115 -223 246 -280 426 -26 82
-29 103 -28 230 0 126 3 149 28 225 59 179 144 307 281 422 101 86 258 160
396 187 70 14 218 12 293 -4z m1056 -20 c176 -56 318 -152 431 -291 68 -83
117 -178 155 -299 26 -80 29 -104 29 -225 0 -121 -3 -145 -29 -225 -93 -295
-293 -497 -586 -590 -111 -35 -271 -44 -379 -21 -41 8 -76 18 -78 20 -3 3 25
39 61 81 146 167 231 347 271 576 27 155 15 305 -41 487 -45 150 -119 281
-230 407 -36 42 -64 78 -61 81 2 3 33 11 68 19 102 23 283 14 389 -20z m-660
-175 c127 -110 211 -242 266 -415 26 -80 29 -104 29 -225 0 -121 -3 -145 -29
-225 -55 -174 -139 -305 -267 -416 l-59 -51 -59 51 c-128 111 -212 242 -267
416 -26 82 -29 103 -28 230 0 126 3 149 28 225 57 171 139 299 264 409 32 28
59 50 61 51 2 0 29 -23 61 -50z"/>
<path d="M251 2162 c-36 -19 -71 -72 -71 -107 0 -35 35 -88 71 -107 32 -17 84
-18 1034 -18 950 0 1002 1 1034 18 36 19 71 72 71 107 0 35 -35 88 -71 107
-32 17 -84 18 -1034 18 -950 0 -1002 -1 -1034 -18z"/>
</g>
</svg>
