<?xml version="1.0" standalone="no"?>
<!DOCTYPE svg PUBLIC "-//W3C//DTD SVG 20010904//EN"
 "http://www.w3.org/TR/2001/REC-SVG-20010904/DTD/svg10.dtd">
<svg version="1.0" xmlns="http://www.w3.org/2000/svg"
 width="1628pt" height="1000pt" viewBox="0 0 1628 1000"
 preserveAspectRatio="xMidYMid meet">
<metadata>
Created by potrace 1.9, written by Peter Selinger 2001-2010
</metadata>
<g transform="translate(0,1000) scale(0.100000,-0.100000)"
fill="#000000" stroke="none">
<path d="M9072 8044 c-18 -9 -41 -29 -51 -43 -41 -58 -1971 -3933 -1976 -3968
-8 -49 19 -100 66 -125 31 -17 65 -18 431 -18 l398 0 -445 -890 c-246 -492
-447 -906 -450 -927 -8 -49 19 -100 66 -125 32 -17 115 -18 2014 -18 1899 0
1982 1 2014 18 37 20 71 72 71 109 0 12 -202 428 -450 923 -247 495 -450 902
-450 905 0 3 179 5 398 5 366 0 400 1 431 18 37 20 71 72 71 109 0 13 -447
918 -994 2011 -764 1527 -1000 1993 -1021 2006 -39 25 -85 29 -123 10z m932
-2151 l876 -1753 -350 0 -350 0 -479 958 c-377 753 -485 963 -508 978 -15 10
-46 19 -68 19 -85 0 -63 38 -583 -1001 l-477 -954 -347 0 c-192 0 -348 2 -348
5 0 10 1751 3507 1754 3504 2 -2 398 -793 880 -1756z m-877 -3711 c-963 -1
-1752 0 -1754 2 -2 2 390 793 873 1757 l877 1754 877 -1755 878 -1755 -1751
-3z"/>
<path d="M240 6083 c-14 -9 -30 -24 -37 -33 -21 -27 -26 -102 -13 -195 40
-286 183 -551 389 -719 140 -115 345 -208 520 -237 l69 -12 7 -51 c14 -96 66
-251 122 -356 105 -199 260 -350 466 -454 229 -115 365 -136 891 -136 l386 0
-445 -890 c-246 -492 -447 -906 -450 -927 -16 -104 101 -175 190 -117 20 13
134 232 467 898 l440 881 439 -877 c478 -955 459 -923 544 -923 22 0 53 9 68
19 23 15 124 209 469 900 l440 881 438 -874 c321 -643 445 -881 466 -898 78
-62 184 -20 201 81 4 27 -61 164 -446 934 -248 496 -451 904 -451 907 0 3 179
5 398 5 366 0 400 1 431 18 36 19 71 72 71 107 0 35 -35 88 -71 107 -32 17
-114 18 -1974 18 -1243 0 -1979 4 -2048 10 -374 36 -664 269 -771 621 -33 107
-33 117 2 124 167 35 249 65 374 134 289 160 481 440 543 792 45 256 -9 309
-270 263 -197 -34 -391 -121 -536 -240 -195 -159 -326 -391 -384 -676 -7 -35
-21 -35 -127 -2 -173 54 -316 151 -429 290 -103 126 -171 299 -188 476 -5 53
-15 105 -22 116 -31 50 -121 68 -169 35z m1876 -260 c-3 -10 -15 -49 -27 -88
-83 -271 -296 -481 -578 -569 -46 -15 -85 -25 -87 -23 -2 2 8 41 22 88 87 283
289 487 574 580 102 34 103 34 96 12z m2498 -2705 c-212 -425 -388 -775 -390
-777 -3 -3 -774 1534 -774 1544 0 3 349 5 775 5 l775 0 -386 -772z"/>
<path d="M13875 6094 c-684 -55 -1279 -418 -1631 -994 -199 -327 -298 -686
-298 -1080 0 -204 15 -323 64 -520 184 -731 759 -1306 1490 -1490 197 -49 316
-64 520 -64 557 0 1074 211 1461 595 398 396 613 914 613 1479 0 204 -15 323
-64 520 -165 656 -654 1197 -1290 1430 -108 39 -286 84 -416 104 -102 16 -357
27 -449 20z m418 -265 c215 -32 478 -126 660 -235 240 -145 495 -400 640 -641
111 -184 202 -440 238 -668 7 -44 13 -163 13 -265 0 -195 -10 -285 -49 -440
-84 -332 -244 -610 -494 -859 -240 -238 -514 -393 -841 -476 -155 -39 -245
-49 -440 -49 -195 0 -285 10 -440 49 -327 83 -601 238 -841 476 -207 206 -342
416 -439 679 -76 209 -104 374 -104 620 0 195 10 285 49 440 84 331 239 604
485 850 318 317 699 495 1150 534 73 6 334 -3 413 -15z"/>
<path d="M13965 5591 c-27 -13 -201 -180 -531 -512 -513 -516 -526 -530 -509
-596 16 -67 79 -110 143 -98 32 5 98 68 494 463 l458 457 452 -452 c473 -470
490 -485 555 -468 67 16 110 79 98 143 -5 32 -74 104 -513 546 -290 290 -521
514 -539 522 -42 18 -60 17 -108 -5z"/>
</g>
</svg>
