<?xml version="1.0" standalone="no"?>
<!DOCTYPE svg PUBLIC "-//W3C//DTD SVG 20010904//EN"
 "http://www.w3.org/TR/2001/REC-SVG-20010904/DTD/svg10.dtd">
<svg version="1.0" xmlns="http://www.w3.org/2000/svg"
 width="452pt" height="1000pt" viewBox="0 0 452 1000"
 preserveAspectRatio="xMidYMid meet">
<metadata>
Created by potrace 1.9, written by Peter Selinger 2001-2010
</metadata>
<g transform="translate(0,1000) scale(0.100000,-0.100000)"
fill="#000000" stroke="none">
<path d="M2205 6081 c-28 -13 -346 -326 -1027 -1007 -1115 -1118 -1006 -991
-993 -1162 39 -542 247 -1006 614 -1371 387 -384 904 -595 1461 -595 204 0
323 15 520 64 592 149 1093 561 1356 1115 112 236 163 438 203 808 13 115 2
152 -54 187 -32 20 -47 20 -964 20 l-931 0 0 928 c0 879 -1 929 -18 961 -19
36 -73 71 -107 71 -11 0 -38 -9 -60 -19z m-65 -1176 l0 -765 -767 0 -768 0
765 765 c421 421 766 765 767 765 2 0 3 -344 3 -765z m1940 -1051 c0 -143 -76
-420 -170 -622 -142 -302 -420 -607 -717 -786 -184 -110 -440 -201 -668 -237
-103 -16 -427 -16 -530 0 -228 36 -484 127 -668 237 -297 179 -575 484 -717
786 -94 202 -170 479 -170 622 l0 36 1820 0 1820 0 0 -36z"/>
</g>
</svg>
