<?xml version="1.0" standalone="no"?>
<!DOCTYPE svg PUBLIC "-//W3C//DTD SVG 20010904//EN"
 "http://www.w3.org/TR/2001/REC-SVG-20010904/DTD/svg10.dtd">
<svg version="1.0" xmlns="http://www.w3.org/2000/svg"
 width="1236pt" height="1000pt" viewBox="0 0 1236 1000"
 preserveAspectRatio="xMidYMid meet">
<metadata>
Created by potrace 1.9, written by Peter Selinger 2001-2010
</metadata>
<g transform="translate(0,1000) scale(0.100000,-0.100000)"
fill="#000000" stroke="none">
<path d="M251 6082 c-19 -10 -43 -34 -53 -53 -17 -32 -18 -115 -18 -2014 0
-1904 1 -1982 18 -2015 25 -46 81 -74 130 -65 33 6 150 119 1040 1008 711 711
1005 1011 1013 1035 24 74 64 31 -999 1096 -583 584 -1010 1004 -1029 1012
-43 18 -61 18 -102 -4z m1007 -1245 l822 -822 -825 -825 -825 -825 0 1648 c0
906 1 1647 3 1647 1 0 372 -370 825 -823z"/>
<path d="M3191 6082 c-19 -10 -43 -34 -53 -53 -17 -32 -18 -115 -18 -2014 0
-1899 1 -1982 18 -2014 10 -19 34 -43 53 -53 32 -17 115 -18 2014 -18 1899 0
1982 1 2014 18 19 10 43 34 53 53 17 32 18 115 18 2014 0 1899 -1 1982 -18
2014 -19 36 -72 71 -107 71 -35 0 -88 -35 -107 -71 -15 -28 -18 -58 -18 -186
l0 -153 -82 83 c-167 166 -369 268 -614 311 -359 63 -766 -92 -1007 -382 -35
-42 -79 -105 -98 -139 -19 -35 -36 -63 -39 -63 -3 1 -24 33 -47 73 -151 263
-437 453 -769 511 -160 28 -319 15 -498 -40 -169 -53 -381 -189 -480 -307
l-36 -42 0 150 c0 126 -3 156 -18 184 -19 36 -72 71 -107 71 -11 0 -36 -8 -54
-18z m1259 -267 c353 -114 585 -399 619 -764 5 -54 15 -107 22 -119 43 -69
175 -69 218 0 7 12 17 65 22 119 17 179 89 357 197 484 115 137 243 222 422
281 77 25 98 28 230 28 132 0 153 -3 230 -28 183 -61 317 -152 431 -292 66
-80 115 -175 155 -294 25 -76 28 -100 28 -220 0 -110 -5 -159 -27 -265 -86
-404 -225 -774 -424 -1130 -233 -414 -580 -812 -991 -1134 -100 -78 -359 -251
-375 -251 -25 0 -221 130 -377 249 -399 305 -780 745 -1005 1156 -227 415
-372 837 -440 1280 -20 130 -15 201 22 318 88 280 289 485 564 576 106 35 147
40 274 37 97 -3 136 -9 205 -31z m-1042 -1895 c122 -306 358 -697 603 -1001
194 -240 537 -560 764 -712 l40 -27 -723 0 -722 0 0 912 c0 501 2 909 4 907 2
-2 18 -38 34 -79z m3632 -830 l0 -910 -722 0 -723 0 40 27 c226 152 565 469
755 703 253 314 482 692 610 1008 19 45 35 82 37 82 2 0 3 -409 3 -910z"/>
<path d="M8950 6084 c-122 -22 -238 -62 -349 -121 -308 -161 -509 -452 -568
-819 -16 -100 -16 -107 6 -249 85 -558 284 -1107 548 -1517 l43 -67 -300 -600
c-165 -330 -302 -617 -305 -638 -8 -49 19 -100 66 -125 32 -17 115 -18 2014
-18 1899 0 1982 1 2014 18 36 19 71 72 71 107 1 11 -137 297 -306 635 l-307
616 72 118 c264 438 435 915 520 1451 20 125 19 131 -5 283 -77 488 -428 840
-920 926 -160 28 -319 15 -498 -40 -106 -33 -274 -122 -349 -185 -32 -27 -62
-49 -66 -49 -4 0 -34 54 -66 121 -67 136 -95 164 -160 164 -66 0 -96 -30 -167
-170 l-63 -124 -73 58 c-233 186 -574 276 -852 225z m400 -269 c151 -49 287
-131 380 -230 l24 -26 -494 -989 c-272 -545 -497 -990 -500 -990 -7 0 -42 64
-121 222 -173 345 -295 728 -354 1113 -20 130 -15 201 22 318 88 280 289 485
564 576 106 35 147 40 274 37 97 -3 136 -9 205 -31z m1960 0 c293 -94 488
-290 586 -585 25 -76 28 -100 28 -220 0 -110 -5 -159 -27 -265 -83 -390 -211
-736 -405 -1094 l-45 -84 -499 998 -499 997 23 25 c86 92 225 178 359 222 106
35 147 40 274 37 97 -3 136 -9 205 -31z m-1181 -269 c-13 -25 -26 -46 -29 -46
-3 0 -15 20 -28 44 l-24 44 28 53 27 54 25 -52 25 -52 -24 -45z m1128 -2266
c-120 -174 -381 -462 -565 -623 -249 -217 -560 -435 -603 -422 -27 9 -256 165
-359 244 -279 215 -615 562 -783 808 l-28 41 494 988 c457 914 496 987 506
962 25 -66 42 -140 50 -229 5 -53 15 -106 22 -117 43 -69 175 -69 218 0 7 12
17 65 22 119 5 55 21 136 35 182 l26 82 498 -995 498 -995 -31 -45z m-2137
-593 c178 -185 399 -375 555 -480 l40 -27 -683 0 c-375 0 -682 2 -682 5 0 3
99 203 220 445 l220 440 98 -122 c54 -68 158 -185 232 -261z m2519 -64 l221
-443 -682 1 c-646 0 -682 1 -658 17 266 181 583 479 798 749 53 66 98 120 98
120 1 -1 101 -201 223 -444z"/>
</g>
</svg>
