<?xml version="1.0" standalone="no"?>
<!DOCTYPE svg PUBLIC "-//W3C//DTD SVG 20010904//EN"
 "http://www.w3.org/TR/2001/REC-SVG-20010904/DTD/svg10.dtd">
<svg version="1.0" xmlns="http://www.w3.org/2000/svg"
 width="1285pt" height="1000pt" viewBox="0 0 1285 1000"
 preserveAspectRatio="xMidYMid meet">
<metadata>
Created by potrace 1.9, written by Peter Selinger 2001-2010
</metadata>
<g transform="translate(0,1000) scale(0.100000,-0.100000)"
fill="#000000" stroke="none">
<path d="M1231 6082 c-19 -10 -43 -34 -53 -53 -17 -32 -18 -83 -18 -1006 l0
-973 -485 -970 c-269 -538 -487 -986 -490 -1007 -16 -104 101 -175 190 -117
20 13 134 232 467 898 l440 881 438 -874 c321 -643 445 -881 466 -898 78 -62
184 -20 201 81 4 27 -67 175 -486 1014 l-491 982 0 978 c0 927 -1 979 -18
1011 -19 36 -72 71 -107 71 -11 0 -36 -8 -54 -18z"/>
<path d="M5055 6094 c-684 -55 -1279 -418 -1631 -994 -199 -327 -298 -686
-298 -1080 0 -204 15 -323 64 -520 132 -524 479 -990 938 -1260 73 -43 88 -60
52 -60 -39 0 -139 -118 -195 -230 -151 -298 -112 -640 102 -902 70 -85 127
-107 192 -74 41 22 64 63 63 113 0 36 -8 54 -44 99 -116 149 -152 239 -152
389 0 143 38 247 134 367 54 67 69 115 52 160 -12 33 -12 33 36 12 152 -65
359 -123 514 -145 l87 -13 -16 -30 c-87 -167 -102 -417 -38 -605 49 -146 172
-328 237 -350 92 -32 172 22 170 116 0 36 -8 54 -44 99 -116 149 -152 239
-152 389 0 108 13 163 64 265 45 90 62 100 178 110 191 17 399 63 562 125 143
55 140 55 98 6 -20 -24 -53 -74 -73 -112 -162 -308 -128 -652 92 -921 70 -85
127 -107 192 -74 41 22 64 63 63 113 0 36 -8 54 -44 99 -116 149 -152 239
-152 389 0 145 37 244 143 379 56 72 64 124 29 176 -14 21 -38 40 -58 46 l-34
11 25 16 c13 8 56 34 94 57 260 158 501 402 671 681 199 326 298 686 298 1079
0 204 -15 323 -64 520 -165 656 -654 1197 -1290 1430 -108 39 -286 84 -416
104 -102 16 -357 27 -449 20z m418 -265 c215 -32 478 -126 660 -235 240 -145
495 -400 640 -641 111 -184 202 -440 238 -668 7 -44 13 -163 13 -265 0 -195
-10 -285 -49 -440 -84 -332 -244 -610 -494 -859 -240 -238 -514 -393 -841
-476 -155 -39 -245 -49 -440 -49 -195 0 -285 10 -440 49 -327 83 -601 238
-841 476 -207 206 -342 416 -439 679 -76 209 -104 374 -104 620 0 195 10 285
49 440 84 331 239 604 485 850 318 317 699 495 1150 534 73 6 334 -3 413 -15z"/>
<path d="M4183 5123 c-33 -6 -79 -57 -86 -92 -26 -127 122 -210 212 -120 43
42 49 93 18 156 -20 42 -87 68 -144 56z"/>
<path d="M6143 5123 c-33 -6 -79 -57 -86 -92 -26 -127 122 -210 212 -120 43
42 49 93 18 156 -20 42 -87 68 -144 56z"/>
<path d="M5151 5102 c-19 -10 -43 -34 -53 -53 -17 -32 -18 -82 -18 -961 l0
-928 -438 0 c-404 0 -440 -1 -471 -18 -36 -19 -71 -72 -71 -107 0 -35 35 -88
71 -107 32 -17 84 -18 1034 -18 950 0 1002 1 1034 18 36 19 71 72 71 107 0 35
-35 88 -71 107 -31 17 -67 18 -471 18 l-438 0 0 928 c0 879 -1 929 -18 961
-19 36 -72 71 -107 71 -11 0 -36 -8 -54 -18z"/>
<path d="M10519 6083 c-44 -27 -51 -51 -65 -214 -15 -182 -18 -201 -50 -329
-82 -329 -238 -604 -484 -850 -246 -246 -521 -402 -850 -484 -128 -32 -147
-35 -329 -50 -88 -8 -166 -19 -178 -26 -73 -46 -70 -172 5 -212 60 -31 354 -5
582 52 525 132 990 478 1260 938 23 39 44 72 47 72 6 0 -5 -153 -18 -250 -29
-209 -124 -478 -235 -663 -146 -242 -399 -495 -641 -641 -135 -81 -328 -159
-493 -200 -128 -32 -147 -35 -329 -50 -88 -8 -166 -19 -178 -26 -73 -46 -70
-172 5 -212 60 -31 354 -5 582 52 530 134 985 474 1266 948 l49 82 5 -1002 c5
-946 6 -1005 23 -1030 19 -27 72 -58 102 -58 30 0 83 31 102 58 17 25 18 83
23 1022 l5 995 44 -75 c269 -459 737 -808 1261 -940 228 -57 522 -83 582 -52
74 40 77 167 5 212 -12 7 -90 18 -178 26 -182 15 -201 18 -329 50 -165 41
-358 119 -493 200 -240 145 -495 400 -640 641 -111 184 -207 454 -236 663 -13
97 -24 250 -18 250 3 0 24 -33 47 -72 118 -202 334 -444 515 -578 298 -221
602 -349 965 -405 137 -21 328 -25 362 -7 74 40 77 167 5 212 -12 7 -90 18
-178 26 -182 15 -201 18 -329 50 -165 41 -358 119 -493 200 -240 145 -495 400
-640 641 -82 135 -160 327 -201 493 -32 128 -35 147 -50 329 -8 88 -19 166
-26 178 -32 51 -127 70 -181 36z"/>
<path d="M7595 2161 c-26 -12 -209 -188 -532 -512 -423 -425 -493 -500 -504
-536 -24 -84 -26 -81 514 -621 l493 -493 89 3 88 3 20 38 c41 80 54 64 -454
572 l-459 460 459 460 c503 504 493 491 456 568 -32 67 -102 91 -170 58z"/>
</g>
</svg>
