<?xml version="1.0" standalone="no"?>
<!DOCTYPE svg PUBLIC "-//W3C//DTD SVG 20010904//EN"
 "http://www.w3.org/TR/2001/REC-SVG-20010904/DTD/svg10.dtd">
<svg version="1.0" xmlns="http://www.w3.org/2000/svg"
 width="452pt" height="1000pt" viewBox="0 0 452 1000"
 preserveAspectRatio="xMidYMid meet">
<metadata>
Created by potrace 1.9, written by Peter Selinger 2001-2010
</metadata>
<g transform="translate(0,1000) scale(0.100000,-0.100000)"
fill="#000000" stroke="none">
<path d="M2090 5104 c-270 -49 -508 -184 -674 -383 -112 -134 -206 -339 -237
-515 l-11 -66 -442 0 c-408 0 -444 -1 -475 -18 -36 -19 -71 -72 -71 -107 0
-35 35 -88 71 -107 31 -17 67 -18 476 -18 l442 0 6 -37 c17 -99 70 -256 122
-353 158 -300 445 -502 798 -564 364 -64 780 97 1017 394 110 137 204 348 233
523 l6 37 447 0 c500 0 496 -1 534 71 23 42 23 66 0 108 -38 72 -34 71 -534
71 l-447 0 -7 48 c-24 166 -120 383 -232 522 -237 297 -660 460 -1022 394z
m400 -269 c292 -93 496 -299 584 -586 14 -47 26 -90 26 -97 0 -9 -194 -12
-840 -12 -727 0 -840 2 -840 14 0 8 12 52 26 98 89 281 290 486 565 577 106
35 147 40 274 37 97 -3 137 -9 205 -31z m610 -952 c0 -4 -12 -45 -26 -92 -87
-287 -289 -490 -584 -587 -77 -25 -98 -28 -230 -28 -132 0 -153 3 -230 28
-295 97 -497 300 -584 587 -14 47 -26 88 -26 92 0 4 378 7 840 7 462 0 840 -3
840 -7z"/>
</g>
</svg>
