<?xml version="1.0" standalone="no"?>
<!DOCTYPE svg PUBLIC "-//W3C//DTD SVG 20010904//EN"
 "http://www.w3.org/TR/2001/REC-SVG-20010904/DTD/svg10.dtd">
<svg version="1.0" xmlns="http://www.w3.org/2000/svg"
 width="1432pt" height="1000pt" viewBox="0 0 1432 1000"
 preserveAspectRatio="xMidYMid meet">
<metadata>
Created by potrace 1.9, written by Peter Selinger 2001-2010
</metadata>
<g transform="translate(0,1000) scale(0.100000,-0.100000)"
fill="#000000" stroke="none">
<path d="M3095 6094 c-172 -14 -419 -67 -575 -124 -565 -207 -1023 -665 -1230
-1230 -57 -158 -120 -449 -120 -559 l0 -41 -443 0 c-494 0 -491 1 -529 -71
-23 -42 -23 -66 0 -108 38 -72 35 -71 529 -71 l443 0 0 -36 c0 -59 29 -230 60
-354 184 -730 759 -1306 1490 -1490 197 -49 316 -64 520 -64 204 0 323 15 520
64 656 165 1197 654 1430 1290 56 155 120 448 120 554 l0 36 448 0 c500 0 496
-1 534 71 23 42 23 66 0 108 -38 72 -34 71 -534 71 l-448 0 0 41 c0 110 -63
401 -120 559 -101 276 -275 546 -489 759 -372 369 -872 581 -1407 595 -82 2
-171 2 -199 0z m418 -265 c215 -32 478 -126 660 -235 297 -179 575 -484 717
-786 96 -205 170 -479 170 -627 l0 -41 -1820 0 -1820 0 0 41 c0 148 74 422
170 627 168 359 503 694 862 862 210 98 418 154 648 174 73 6 334 -3 413 -15z
m1547 -1975 c0 -143 -76 -420 -170 -622 -142 -302 -420 -607 -717 -786 -184
-110 -440 -201 -668 -237 -103 -16 -427 -16 -530 0 -228 36 -484 127 -668 237
-297 179 -575 484 -717 786 -94 202 -170 479 -170 622 l0 36 1820 0 1820 0 0
-36z"/>
<path d="M8085 6081 c-27 -13 -201 -180 -531 -512 -513 -516 -526 -530 -509
-596 16 -67 79 -110 143 -98 32 5 92 61 435 403 l397 397 0 -282 0 -281 -66
-11 c-176 -31 -381 -125 -515 -237 -290 -242 -446 -650 -384 -1003 49 -279
185 -523 384 -685 138 -113 340 -206 514 -236 l67 -12 0 -447 c0 -499 -1 -495
71 -533 42 -23 66 -23 108 0 72 38 71 34 71 534 l0 447 38 6 c20 4 78 18 127
31 417 115 712 448 790 895 61 345 -93 757 -368 990 -150 127 -357 222 -549
254 l-38 6 0 277 0 277 388 -387 c403 -402 425 -420 489 -403 67 16 110 79 98
143 -5 32 -74 104 -513 546 -290 290 -521 514 -539 522 -42 18 -60 17 -108 -5z
m-65 -2061 c0 -727 -2 -840 -14 -840 -33 0 -186 54 -257 91 -144 75 -291 222
-362 364 -19 39 -48 111 -63 160 -26 82 -29 103 -28 230 0 126 3 149 28 225
16 47 44 117 63 155 70 140 221 293 358 363 71 36 225 91 258 92 16 0 17 -47
17 -840z m352 814 c173 -54 316 -151 429 -290 68 -83 117 -178 155 -299 26
-80 29 -104 29 -225 0 -121 -3 -145 -29 -225 -93 -295 -295 -498 -584 -589
-46 -14 -87 -26 -93 -26 -5 0 -9 317 -9 840 0 523 4 840 9 840 6 0 47 -12 93
-26z"/>
<path d="M11915 6094 c-684 -55 -1279 -418 -1631 -994 -199 -327 -298 -686
-298 -1080 0 -204 15 -323 64 -520 184 -731 759 -1306 1490 -1490 197 -49 316
-64 520 -64 557 0 1074 211 1461 595 398 396 613 914 613 1479 0 204 -15 323
-64 520 -165 656 -654 1197 -1290 1430 -108 39 -286 84 -416 104 -102 16 -357
27 -449 20z m418 -265 c215 -32 478 -126 660 -235 240 -145 495 -400 640 -641
111 -184 202 -440 238 -668 7 -44 13 -163 13 -265 0 -195 -10 -285 -49 -440
-84 -332 -244 -610 -494 -859 -240 -238 -514 -393 -841 -476 -155 -39 -245
-49 -440 -49 -195 0 -285 10 -440 49 -327 83 -601 238 -841 476 -207 206 -342
416 -439 679 -76 209 -104 374 -104 620 0 195 10 285 49 440 84 331 239 604
485 850 318 317 699 495 1150 534 73 6 334 -3 413 -15z"/>
<path d="M11890 5104 c-194 -35 -394 -125 -531 -240 -290 -242 -446 -650 -384
-1003 49 -279 185 -523 384 -685 145 -119 339 -206 536 -240 114 -20 216 -20
330 0 489 85 833 432 920 925 61 347 -93 758 -373 994 -241 203 -592 302 -882
249z m400 -269 c176 -56 318 -152 431 -291 68 -83 117 -178 155 -299 26 -80
29 -104 29 -225 0 -121 -3 -145 -29 -225 -93 -295 -290 -493 -586 -591 -77
-25 -98 -28 -230 -28 -132 0 -153 3 -230 28 -179 59 -319 154 -431 292 -68 82
-117 177 -155 299 -26 82 -29 103 -28 230 0 126 3 149 28 225 95 288 291 488
567 579 106 35 147 40 274 37 97 -3 137 -9 205 -31z"/>
</g>
</svg>
