<?xml version="1.0" standalone="no"?>
<!DOCTYPE svg PUBLIC "-//W3C//DTD SVG 20010904//EN"
 "http://www.w3.org/TR/2001/REC-SVG-20010904/DTD/svg10.dtd">
<svg version="1.0" xmlns="http://www.w3.org/2000/svg"
 width="746pt" height="1000pt" viewBox="0 0 746 1000"
 preserveAspectRatio="xMidYMid meet">
<metadata>
Created by potrace 1.9, written by Peter Selinger 2001-2010
</metadata>
<g transform="translate(0,1000) scale(0.100000,-0.100000)"
fill="#000000" stroke="none">
<path d="M251 6082 c-19 -10 -43 -34 -53 -53 -17 -32 -18 -115 -18 -2014 0
-1899 1 -1982 18 -2014 10 -19 34 -43 53 -53 32 -17 84 -18 1034 -18 950 0
1002 1 1034 18 19 10 43 34 53 53 17 32 18 115 18 2014 0 1899 -1 1982 -18
2014 -10 19 -34 43 -53 53 -32 17 -84 18 -1034 18 -950 0 -1002 -1 -1034 -18z
m1889 -2067 l0 -1835 -855 0 -855 0 0 1835 0 1835 855 0 855 0 0 -1835z"/>
<path d="M5055 6094 c-684 -55 -1279 -418 -1631 -994 -199 -327 -298 -686
-298 -1080 0 -204 15 -323 64 -520 184 -731 759 -1306 1490 -1490 197 -49 316
-64 520 -64 557 0 1074 211 1461 595 324 322 531 737 593 1184 38 278 38 313
0 590 -114 830 -724 1511 -1534 1715 -63 15 -161 36 -216 44 -102 16 -357 27
-449 20z m25 -1177 c0 -874 1 -924 18 -956 10 -19 34 -43 53 -53 32 -17 82
-18 951 -18 l918 0 0 -36 c0 -143 -76 -420 -170 -622 -142 -302 -420 -607
-717 -786 -184 -110 -440 -201 -668 -237 -103 -16 -427 -16 -530 0 -228 36
-484 127 -668 237 -240 145 -495 400 -640 641 -111 184 -202 440 -238 668 -7
44 -13 163 -13 265 0 102 6 221 13 265 36 228 127 484 237 668 146 242 399
495 641 641 218 130 561 241 761 245 l52 1 0 -923z m393 912 c215 -32 478
-126 660 -235 297 -179 575 -484 717 -786 96 -205 170 -479 170 -627 l0 -41
-845 0 -845 0 0 850 0 850 36 0 c19 0 68 -5 107 -11z"/>
</g>
</svg>
