<?xml version="1.0" standalone="no"?>
<!DOCTYPE svg PUBLIC "-//W3C//DTD SVG 20010904//EN"
 "http://www.w3.org/TR/2001/REC-SVG-20010904/DTD/svg10.dtd">
<svg version="1.0" xmlns="http://www.w3.org/2000/svg"
 width="1187pt" height="1000pt" viewBox="0 0 1187 1000"
 preserveAspectRatio="xMidYMid meet">
<metadata>
Created by potrace 1.9, written by Peter Selinger 2001-2010
</metadata>
<g transform="translate(0,1000) scale(0.100000,-0.100000)"
fill="#000000" stroke="none">
<path d="M2205 6081 c-28 -13 -346 -326 -1027 -1007 -1115 -1118 -1006 -991
-993 -1162 39 -542 247 -1006 614 -1371 387 -384 904 -595 1461 -595 204 0
323 15 520 64 592 149 1093 561 1356 1115 112 236 163 438 203 808 13 115 2
152 -54 187 -32 20 -47 20 -964 20 l-931 0 0 928 c0 879 -1 929 -18 961 -19
36 -73 71 -107 71 -11 0 -38 -9 -60 -19z m-65 -1176 l0 -765 -767 0 -768 0
765 765 c421 421 766 765 767 765 2 0 3 -344 3 -765z m1940 -1051 c0 -143 -76
-420 -170 -622 -142 -302 -420 -607 -717 -786 -184 -110 -440 -201 -668 -237
-103 -16 -427 -16 -530 0 -228 36 -484 127 -668 237 -297 179 -575 484 -717
786 -94 202 -170 479 -170 622 l0 36 1820 0 1820 0 0 -36z"/>
<path d="M10045 6081 c-57 -27 -1988 -1962 -2010 -2013 -8 -21 -15 -45 -15
-55 0 -33 36 -86 71 -105 32 -17 82 -18 961 -18 l928 0 0 -928 c0 -879 1 -929
18 -961 19 -36 72 -71 107 -71 35 0 88 35 107 71 17 32 18 115 18 2014 0 1899
-1 1982 -18 2014 -19 36 -73 71 -107 71 -11 0 -38 -9 -60 -19z m-65 -1176 l0
-765 -767 0 -768 0 765 765 c421 421 766 765 767 765 2 0 3 -344 3 -765z"/>
<path d="M5151 4122 c-36 -19 -71 -73 -71 -107 1 -57 49 -111 479 -540 l441
-440 -449 -450 c-468 -470 -483 -487 -466 -552 16 -67 79 -110 143 -98 32 5
98 68 494 463 l458 457 452 -452 c473 -470 490 -485 555 -468 67 16 110 79 98
143 -5 32 -68 99 -466 497 l-459 460 455 455 c315 315 458 465 466 488 6 17 8
46 4 62 -8 39 -56 87 -95 95 -70 15 -82 6 -558 -469 l-452 -451 -453 452
c-248 249 -465 457 -480 463 -39 14 -57 13 -96 -8z"/>
<path d="M11515 4121 c-26 -12 -208 -188 -531 -512 -535 -538 -529 -530 -504
-613 10 -35 85 -115 503 -535 519 -520 542 -540 613 -527 41 8 90 56 99 96 4
16 2 45 -4 62 -8 23 -151 173 -466 488 l-455 455 459 460 c503 504 493 491
456 568 -32 67 -102 91 -170 58z"/>
</g>
</svg>
