<?xml version="1.0" standalone="no"?>
<!DOCTYPE svg PUBLIC "-//W3C//DTD SVG 20010904//EN"
 "http://www.w3.org/TR/2001/REC-SVG-20010904/DTD/svg10.dtd">
<svg version="1.0" xmlns="http://www.w3.org/2000/svg"
 width="746pt" height="1000pt" viewBox="0 0 746 1000"
 preserveAspectRatio="xMidYMid meet">
<metadata>
Created by potrace 1.9, written by Peter Selinger 2001-2010
</metadata>
<g transform="translate(0,1000) scale(0.100000,-0.100000)"
fill="#000000" stroke="none">
<path d="M7105 6081 c-57 -27 -1989 -1962 -2010 -2013 -8 -21 -15 -45 -15 -55
0 -33 36 -86 71 -105 32 -17 79 -18 869 -18 l835 0 -877 -877 c-924 -926 -909
-910 -893 -983 8 -39 56 -87 95 -95 16 -4 45 -2 62 4 24 8 324 302 1035 1013
889 890 1002 1007 1008 1040 9 49 -19 105 -65 130 -33 17 -78 18 -875 18
l-840 0 887 888 c970 971 921 915 883 995 -32 67 -102 91 -170 58z"/>
<path d="M715 4133 c-256 -40 -449 -208 -510 -443 -21 -81 -24 -188 -7 -222
29 -54 115 -75 172 -41 38 22 48 43 64 139 17 99 43 152 107 216 74 74 144
103 249 103 106 0 175 -29 250 -105 76 -75 105 -144 105 -250 0 -105 -29 -175
-103 -249 -64 -64 -117 -90 -216 -107 -45 -8 -90 -19 -102 -25 -53 -27 -73
-119 -39 -177 24 -40 44 -49 141 -66 99 -17 152 -43 216 -107 74 -74 103 -144
103 -249 0 -106 -29 -175 -105 -250 -75 -76 -144 -105 -250 -105 -105 0 -175
29 -249 103 -64 64 -90 117 -107 216 -8 45 -19 90 -25 102 -26 50 -114 70
-169 37 -42 -24 -55 -58 -54 -132 6 -253 184 -481 433 -554 91 -27 251 -27
342 0 202 59 360 221 415 423 23 86 23 234 0 320 -27 98 -82 195 -153 266
l-62 64 62 64 c71 71 126 168 153 266 23 86 23 234 0 320 -55 202 -217 367
-415 422 -68 19 -194 30 -246 21z"/>
<path d="M3078 4125 c-159 -25 -271 -65 -405 -147 -180 -108 -291 -223 -394
-410 -108 -195 -160 -459 -129 -660 77 -505 427 -865 925 -952 291 -51 619 41
870 243 191 154 332 405 380 682 49 279 -41 608 -235 853 -158 199 -409 342
-685 390 -107 19 -208 19 -327 1z m392 -270 c83 -27 188 -75 242 -112 l27 -19
-252 -252 -252 -252 -250 250 -250 251 25 19 c39 31 179 96 245 115 149 44
329 43 465 0z m-664 -1064 c-285 -285 -251 -271 -319 -136 -142 283 -125 588
47 852 l21 33 250 -250 250 -250 -249 -249z m1131 732 c30 -39 93 -173 119
-258 26 -80 29 -104 29 -225 0 -121 -3 -145 -29 -225 -27 -86 -89 -219 -121
-260 -15 -19 -26 -9 -268 233 l-252 252 250 250 c137 137 252 250 254 250 2 0
10 -8 18 -17z m-225 -1186 c-53 -36 -158 -85 -242 -113 -77 -25 -98 -28 -230
-28 -132 0 -153 3 -230 28 -47 15 -119 46 -160 67 -134 70 -149 34 135 319
l250 250 252 -252 252 -252 -27 -19z"/>
</g>
</svg>
