<?xml version="1.0" standalone="no"?>
<!DOCTYPE svg PUBLIC "-//W3C//DTD SVG 20010904//EN"
 "http://www.w3.org/TR/2001/REC-SVG-20010904/DTD/svg10.dtd">
<svg version="1.0" xmlns="http://www.w3.org/2000/svg"
 width="1579pt" height="1000pt" viewBox="0 0 1579 1000"
 preserveAspectRatio="xMidYMid meet">
<metadata>
Created by potrace 1.9, written by Peter Selinger 2001-2010
</metadata>
<g transform="translate(0,1000) scale(0.100000,-0.100000)"
fill="#000000" stroke="none">
<path d="M15435 7061 c-26 -12 -208 -188 -531 -512 -535 -538 -529 -530 -504
-613 10 -35 85 -115 503 -535 519 -520 542 -540 613 -527 41 8 90 56 99 96 4
16 2 45 -4 62 -8 23 -151 173 -466 488 l-455 455 459 460 c503 504 493 491
456 568 -32 67 -102 91 -170 58z"/>
<path d="M13970 6085 c-22 -10 -550 -531 -1462 -1443 l-1428 -1427 -457 457
c-397 395 -463 458 -495 463 -64 12 -127 -31 -144 -99 -16 -65 5 -90 471 -556
l445 -445 -449 -450 c-468 -470 -483 -487 -466 -552 16 -67 79 -110 143 -98
32 5 98 68 494 463 l458 457 452 -452 c476 -474 488 -483 558 -468 39 8 87 56
95 95 4 16 2 45 -4 62 -8 23 -151 173 -466 488 l-455 455 1439 1440 c1576
1576 1475 1467 1436 1548 -30 64 -100 90 -165 62z"/>
<path d="M3681 5102 c-70 -37 -71 -45 -71 -436 l0 -350 -152 151 c-125 124
-160 153 -190 158 -64 12 -127 -31 -143 -98 -15 -59 10 -95 221 -307 l204
-205 -200 -200 c-209 -209 -240 -252 -226 -311 17 -68 80 -111 144 -99 30 5
65 34 190 158 l152 151 0 -350 c0 -391 1 -399 71 -436 42 -23 66 -23 108 0 70
37 71 46 71 431 l0 345 143 -141 c149 -147 187 -171 247 -158 39 8 87 56 95
95 13 60 -8 88 -225 305 l-210 210 214 215 c180 180 216 221 221 252 12 64
-31 127 -98 143 -55 14 -97 -13 -244 -158 l-143 -141 0 345 c0 314 -2 347 -18
378 -19 36 -72 71 -107 71 -11 0 -36 -8 -54 -18z"/>
<path d="M6990 5104 c-270 -49 -508 -184 -674 -383 -165 -198 -267 -499 -253
-746 3 -55 9 -109 12 -120 5 -15 -2 -25 -27 -39 -91 -53 -251 -180 -353 -282
-320 -318 -519 -714 -590 -1174 -21 -137 -25 -328 -7 -362 40 -74 167 -77 212
-5 7 12 18 90 26 178 15 182 18 201 50 329 82 329 238 604 484 850 97 97 259
230 278 230 4 0 27 -39 52 -87 55 -107 162 -238 258 -317 252 -205 613 -298
907 -234 l61 14 -8 -75 c-20 -187 -110 -411 -228 -571 -27 -36 -60 -76 -75
-90 -55 -50 -85 -106 -85 -154 0 -39 5 -51 35 -81 30 -30 42 -35 81 -35 59 0
85 17 159 100 122 139 235 337 294 515 40 122 59 216 73 366 l12 127 60 35
c145 84 294 243 377 402 24 47 47 85 51 85 19 0 181 -133 278 -230 246 -246
402 -521 484 -850 32 -128 35 -147 50 -329 8 -88 19 -166 26 -178 45 -72 172
-69 212 5 18 34 14 225 -7 362 -71 460 -270 856 -590 1174 -102 102 -262 229
-353 282 -25 14 -32 24 -27 39 3 11 9 63 12 116 15 243 -82 536 -245 739 -237
297 -660 460 -1022 394z m400 -269 c357 -114 597 -415 617 -774 6 -100 5 -104
-13 -96 -232 97 -424 141 -765 176 -88 9 -124 9 -149 0 -18 -6 -53 -11 -78
-11 -150 0 -465 -77 -676 -165 -18 -8 -19 -4 -13 96 18 349 257 656 598 768
106 35 147 40 274 37 97 -3 137 -9 205 -31z m-232 -1015 c123 -150 227 -381
256 -566 l6 -41 -63 -19 c-48 -15 -93 -19 -202 -18 -125 0 -149 3 -225 28
-234 77 -424 234 -524 434 l-37 72 48 21 c198 85 404 137 603 152 78 6 82 4
138 -63z m442 14 c93 -23 208 -62 303 -103 l48 -21 -37 -72 c-43 -87 -124
-189 -204 -258 l-58 -50 -17 72 c-37 154 -98 301 -172 416 l-33 53 37 -7 c21
-3 81 -17 133 -30z"/>
<path d="M251 4122 c-36 -19 -71 -73 -71 -107 1 -57 49 -111 479 -540 l441
-440 -449 -450 c-468 -470 -483 -487 -466 -552 16 -67 79 -110 143 -98 32 5
98 68 494 463 l458 457 452 -452 c473 -470 490 -485 555 -468 67 16 110 79 98
143 -5 32 -68 99 -466 497 l-459 460 455 455 c315 315 458 465 466 488 6 17 8
46 4 62 -8 39 -56 87 -95 95 -70 15 -82 6 -558 -469 l-452 -451 -453 452
c-248 249 -465 457 -480 463 -39 14 -57 13 -96 -8z"/>
</g>
</svg>
