<?xml version="1.0" standalone="no"?>
<!DOCTYPE svg PUBLIC "-//W3C//DTD SVG 20010904//EN"
 "http://www.w3.org/TR/2001/REC-SVG-20010904/DTD/svg10.dtd">
<svg version="1.0" xmlns="http://www.w3.org/2000/svg"
 width="1089pt" height="1000pt" viewBox="0 0 1089 1000"
 preserveAspectRatio="xMidYMid meet">
<metadata>
Created by potrace 1.9, written by Peter Selinger 2001-2010
</metadata>
<g transform="translate(0,1000) scale(0.100000,-0.100000)"
fill="#000000" stroke="none">
<path d="M10535 7061 c-26 -12 -208 -188 -531 -512 -535 -538 -529 -530 -504
-613 10 -35 85 -115 503 -535 519 -520 542 -540 613 -527 41 8 90 56 99 96 4
16 2 45 -4 62 -8 23 -151 173 -466 488 l-455 455 459 460 c503 504 493 491
456 568 -32 67 -102 91 -170 58z"/>
<path d="M9070 6085 c-22 -10 -550 -531 -1462 -1443 l-1428 -1427 -457 457
c-397 395 -463 458 -495 463 -64 12 -127 -31 -144 -99 -16 -65 5 -90 471 -556
l445 -445 -449 -450 c-468 -470 -483 -487 -466 -552 16 -67 79 -110 143 -98
32 5 98 68 494 463 l458 457 452 -452 c476 -474 488 -483 558 -468 39 8 87 56
95 95 4 16 2 45 -4 62 -8 23 -151 173 -466 488 l-455 455 1439 1440 c1576
1576 1475 1467 1436 1548 -30 64 -100 90 -165 62z"/>
<path d="M2090 5104 c-270 -49 -508 -184 -674 -383 -165 -198 -267 -499 -253
-746 3 -55 9 -109 12 -120 5 -15 -2 -25 -27 -39 -91 -53 -251 -180 -353 -282
-320 -318 -519 -714 -590 -1174 -21 -137 -25 -328 -7 -362 40 -74 167 -77 212
-5 7 12 18 90 26 178 15 182 18 201 50 329 82 329 238 604 484 850 97 97 259
230 278 230 4 0 27 -39 52 -87 55 -107 162 -238 258 -317 252 -205 613 -298
907 -234 l61 14 -8 -76 c-23 -218 -138 -473 -293 -650 -75 -85 -95 -118 -95
-158 0 -95 99 -154 184 -110 68 36 233 262 316 433 81 169 122 322 142 536
l12 127 60 35 c145 84 294 243 377 402 24 47 47 85 51 85 19 0 181 -133 278
-230 246 -246 402 -521 484 -850 32 -128 35 -147 50 -329 8 -88 19 -166 26
-178 45 -72 172 -69 212 5 18 34 14 225 -7 362 -71 460 -270 856 -590 1174
-102 102 -262 229 -353 282 -25 14 -32 24 -27 39 3 11 9 63 12 116 15 243 -82
536 -245 739 -237 297 -660 460 -1022 394z m400 -269 c357 -114 597 -415 617
-774 6 -100 5 -104 -13 -96 -219 91 -435 144 -675 165 -64 6 -129 14 -145 19
-18 5 -47 3 -79 -5 -28 -7 -70 -13 -94 -14 -153 -1 -466 -78 -675 -165 -18 -8
-19 -4 -13 96 18 349 257 656 598 768 106 35 147 40 274 37 97 -3 137 -9 205
-31z m-263 -977 c133 -141 249 -388 287 -609 l6 -36 -62 -19 c-49 -15 -94 -19
-203 -18 -125 0 -149 3 -225 28 -234 77 -424 234 -524 434 l-37 72 48 21 c198
85 407 138 603 152 25 2 52 4 61 5 8 1 29 -13 46 -30z m473 -24 c93 -23 208
-62 303 -103 l48 -21 -37 -72 c-43 -86 -124 -189 -204 -258 l-57 -49 -26 97
c-35 134 -77 241 -137 345 -27 48 -50 89 -50 92 0 6 48 -3 160 -31z"/>
</g>
</svg>
