<?xml version="1.0" standalone="no"?>
<!DOCTYPE svg PUBLIC "-//W3C//DTD SVG 20010904//EN"
 "http://www.w3.org/TR/2001/REC-SVG-20010904/DTD/svg10.dtd">
<svg version="1.0" xmlns="http://www.w3.org/2000/svg"
 width="1138pt" height="1000pt" viewBox="0 0 1138 1000"
 preserveAspectRatio="xMidYMid meet">
<metadata>
Created by potrace 1.9, written by Peter Selinger 2001-2010
</metadata>
<g transform="translate(0,1000) scale(0.100000,-0.100000)"
fill="#000000" stroke="none">
<path d="M2115 6094 c-172 -14 -419 -67 -575 -124 -631 -231 -1120 -769 -1286
-1415 -70 -271 -67 -205 -71 -1420 -4 -1057 -3 -1101 15 -1134 10 -19 34 -43
53 -53 32 -17 115 -18 2014 -18 1899 0 1982 1 2014 18 19 10 43 34 53 53 17
32 18 84 18 1014 0 975 -2 1051 -36 1300 -85 616 -439 1154 -974 1481 -234
142 -489 233 -776 278 -102 16 -357 27 -449 20z m418 -265 c215 -32 478 -126
660 -235 242 -146 495 -399 641 -641 77 -128 158 -324 197 -476 62 -244 69
-380 69 -1414 l0 -883 -1836 0 -1835 0 4 1028 c3 872 6 1039 20 1107 78 409
238 716 517 995 318 317 699 495 1150 534 73 6 334 -3 413 -15z"/>
<path d="M10052 6083 c-18 -9 -41 -28 -51 -42 -41 -58 -1971 -3933 -1976
-3968 -16 -104 101 -175 190 -117 20 13 230 424 895 1753 l869 1736 0 -1632 1
-1633 -438 0 c-404 0 -440 -1 -471 -18 -36 -19 -71 -72 -71 -107 0 -35 35 -88
71 -107 32 -17 84 -18 1034 -18 950 0 1002 1 1034 18 36 19 71 72 71 107 0 35
-35 88 -71 107 -31 17 -67 18 -471 18 l-438 0 0 1908 c0 1828 -1 1909 -18
1941 -19 36 -73 71 -107 71 -11 0 -35 -8 -53 -17z"/>
<path d="M6132 4124 c-18 -9 -41 -29 -51 -43 -41 -57 -991 -1973 -996 -2008
-16 -104 101 -175 190 -117 20 13 134 232 467 898 l440 881 438 -874 c321
-643 445 -881 466 -898 78 -62 184 -20 201 81 4 27 -69 179 -500 1042 -384
769 -512 1015 -532 1028 -39 25 -85 29 -123 10z"/>
</g>
</svg>
