<?xml version="1.0" standalone="no"?>
<!DOCTYPE svg PUBLIC "-//W3C//DTD SVG 20010904//EN"
 "http://www.w3.org/TR/2001/REC-SVG-20010904/DTD/svg10.dtd">
<svg version="1.0" xmlns="http://www.w3.org/2000/svg"
 width="893pt" height="1000pt" viewBox="0 0 893 1000"
 preserveAspectRatio="xMidYMid meet">
<metadata>
Created by potrace 1.9, written by Peter Selinger 2001-2010
</metadata>
<g transform="translate(0,1000) scale(0.100000,-0.100000)"
fill="#000000" stroke="none">
<path d="M1232 8044 c-18 -9 -41 -29 -51 -43 -40 -56 -501 -992 -506 -1028
-11 -74 61 -150 132 -139 68 10 76 22 280 430 l195 391 193 -385 c200 -398
216 -423 282 -436 39 -7 95 18 118 53 41 62 45 53 -233 609 -194 389 -267 525
-287 538 -39 25 -85 29 -123 10z"/>
<path d="M3675 7061 c-26 -12 -208 -188 -531 -512 -535 -538 -529 -530 -504
-613 10 -35 85 -115 503 -535 519 -520 542 -540 613 -527 41 8 90 56 99 96 4
16 2 45 -4 62 -8 23 -151 173 -466 488 l-455 455 459 460 c503 504 493 491
456 568 -32 67 -102 91 -170 58z"/>
<path d="M2211 6082 c-19 -10 -43 -34 -53 -53 -17 -32 -18 -110 -18 -1854 l0
-1820 -888 887 c-971 970 -915 921 -995 883 -61 -29 -87 -88 -67 -152 10 -31
202 -228 994 -1022 967 -969 1021 -1020 1081 -1021 34 0 88 35 107 71 17 32
18 115 18 2014 0 1899 -1 1982 -18 2014 -19 36 -72 71 -107 71 -11 0 -36 -8
-54 -18z"/>
<path d="M7601 5102 c-35 -19 -71 -72 -71 -105 0 -55 41 -103 413 -474 l382
-383 -1815 0 c-1739 0 -1817 -1 -1849 -18 -36 -19 -71 -72 -71 -107 0 -35 35
-88 71 -107 32 -17 110 -18 1849 -18 l1815 0 -387 -387 c-402 -404 -420 -426
-403 -490 16 -67 79 -110 143 -98 32 5 105 74 550 518 358 358 515 522 523
544 24 73 30 65 -509 607 -290 290 -521 514 -539 522 -43 18 -61 18 -102 -4z"/>
<path d="M5635 3141 c-26 -12 -209 -188 -532 -512 -545 -548 -533 -533 -500
-621 24 -62 994 -1030 1050 -1048 64 -20 123 6 152 67 37 76 42 70 -393 506
l-397 397 1820 0 c1744 0 1822 1 1854 18 36 19 71 72 71 107 0 35 -35 88 -71
107 -32 17 -110 18 -1854 18 l-1820 0 397 398 c435 435 430 429 393 505 -32
67 -102 91 -170 58z"/>
</g>
</svg>
