<?xml version="1.0" standalone="no"?>
<!DOCTYPE svg PUBLIC "-//W3C//DTD SVG 20010904//EN"
 "http://www.w3.org/TR/2001/REC-SVG-20010904/DTD/svg10.dtd">
<svg version="1.0" xmlns="http://www.w3.org/2000/svg"
 width="1334pt" height="1000pt" viewBox="0 0 1334 1000"
 preserveAspectRatio="xMidYMid meet">
<metadata>
Created by potrace 1.9, written by Peter Selinger 2001-2010
</metadata>
<g transform="translate(0,1000) scale(0.100000,-0.100000)"
fill="#000000" stroke="none">
<path d="M5585 6075 c-30 -31 -35 -42 -35 -83 0 -41 6 -54 43 -99 144 -176
180 -225 220 -302 54 -102 100 -230 124 -343 24 -115 24 -370 -1 -488 -44
-210 -150 -425 -279 -566 -28 -31 -67 -78 -86 -104 -20 -27 -58 -77 -86 -112
-115 -144 -226 -365 -270 -538 -114 -441 -41 -868 211 -1246 73 -111 169 -215
217 -237 71 -33 146 -1 168 72 17 56 0 95 -82 186 -152 171 -247 360 -296 587
-24 115 -24 370 1 488 44 210 150 425 279 566 28 31 67 78 86 104 20 27 59 77
86 112 76 96 169 258 214 371 76 196 105 354 105 567 -1 387 -131 723 -393
1015 -63 70 -88 85 -143 85 -41 0 -52 -5 -83 -35z"/>
<path d="M2115 6094 c-684 -55 -1279 -418 -1631 -994 -199 -327 -298 -686
-298 -1080 0 -204 15 -323 64 -520 184 -731 759 -1306 1490 -1490 197 -49 316
-64 520 -64 557 0 1074 211 1461 595 398 396 613 914 613 1479 0 204 -15 323
-64 520 -165 656 -654 1197 -1290 1430 -108 39 -286 84 -416 104 -102 16 -357
27 -449 20z m418 -265 c215 -32 478 -126 660 -235 240 -145 495 -400 640 -641
111 -184 202 -440 238 -668 7 -44 13 -163 13 -265 0 -195 -10 -285 -49 -440
-84 -332 -244 -610 -494 -859 -240 -238 -514 -393 -841 -476 -155 -39 -245
-49 -440 -49 -195 0 -285 10 -440 49 -327 83 -601 238 -841 476 -207 206 -342
416 -439 679 -76 209 -104 374 -104 620 0 195 10 285 49 440 84 331 239 604
485 850 318 317 699 495 1150 534 73 6 334 -3 413 -15z"/>
<path d="M2097 4619 c-338 -39 -643 -180 -875 -404 -141 -136 -142 -176 -11
-296 270 -245 565 -377 918 -410 261 -25 543 28 786 146 113 54 251 146 337
222 37 32 78 66 93 76 39 27 59 77 51 123 -6 32 -25 56 -104 134 -150 147
-346 268 -542 334 -221 74 -445 100 -653 75z m407 -264 c176 -36 368 -123 501
-228 87 -67 88 -61 -14 -136 -128 -95 -323 -182 -481 -215 -183 -37 -416 -29
-588 20 -165 47 -346 142 -458 238 l-37 32 67 53 c160 128 391 225 597 250
101 13 318 6 413 -14z"/>
<path d="M8975 6094 c-684 -55 -1279 -418 -1631 -994 -143 -235 -234 -491
-279 -780 -21 -137 -25 -328 -7 -362 40 -74 167 -77 212 -5 7 12 18 90 26 178
15 182 18 201 50 329 82 329 238 604 484 850 246 246 519 401 850 485 155 39
245 49 440 49 195 0 285 -10 440 -49 331 -84 604 -239 850 -485 241 -242 401
-519 481 -835 11 -44 22 -89 26 -100 3 -11 -165 150 -373 357 -415 413 -411
409 -487 373 -61 -29 -87 -88 -67 -152 17 -53 973 -1015 1039 -1045 88 -40 61
-62 629 505 358 358 515 522 523 544 6 18 8 47 4 63 -8 39 -56 87 -95 95 -70
15 -85 3 -506 -417 -318 -316 -403 -397 -407 -382 -3 11 -9 39 -12 64 -11 77
-63 271 -95 360 -184 503 -569 925 -1055 1156 -177 84 -381 145 -591 178 -102
16 -357 27 -449 20z"/>
<path d="M9044 4111 c-21 -16 -256 -246 -520 -512 -503 -505 -516 -520 -499
-586 16 -67 79 -110 143 -98 32 5 93 62 443 412 224 223 409 401 411 397 3 -5
9 -31 12 -59 4 -27 20 -102 36 -165 184 -731 759 -1306 1490 -1490 197 -49
316 -64 520 -64 557 0 1074 211 1461 595 322 320 523 719 594 1179 21 137 25
328 7 362 -40 74 -167 77 -212 5 -7 -12 -18 -90 -26 -178 -15 -182 -18 -201
-50 -329 -41 -166 -119 -358 -201 -493 -145 -241 -400 -496 -640 -641 -184
-110 -440 -201 -668 -237 -103 -16 -427 -16 -530 0 -228 36 -484 127 -668 237
-240 145 -495 400 -640 641 -81 133 -159 325 -202 492 l-24 94 372 -370 c391
-389 408 -403 477 -388 40 9 88 58 95 99 4 18 1 46 -7 64 -11 28 -978 1008
-1033 1048 -34 24 -97 18 -141 -15z"/>
</g>
</svg>
