<?xml version="1.0" standalone="no"?>
<!DOCTYPE svg PUBLIC "-//W3C//DTD SVG 20010904//EN"
 "http://www.w3.org/TR/2001/REC-SVG-20010904/DTD/svg10.dtd">
<svg version="1.0" xmlns="http://www.w3.org/2000/svg"
 width="1138pt" height="1000pt" viewBox="0 0 1138 1000"
 preserveAspectRatio="xMidYMid meet">
<metadata>
Created by potrace 1.9, written by Peter Selinger 2001-2010
</metadata>
<g transform="translate(0,1000) scale(0.100000,-0.100000)"
fill="#000000" stroke="none">
<path d="M2115 6094 c-684 -55 -1279 -418 -1631 -994 -143 -235 -234 -491
-279 -780 -21 -137 -25 -328 -7 -362 40 -74 167 -77 212 -5 7 12 18 90 26 178
15 182 18 201 50 329 82 329 238 604 484 850 204 203 406 333 670 430 149 54
359 100 459 100 l41 0 0 -1830 0 -1830 -438 0 c-404 0 -440 -1 -471 -18 -36
-19 -71 -72 -71 -107 0 -35 35 -88 71 -107 32 -17 84 -18 1034 -18 950 0 1002
1 1034 18 36 19 71 72 71 107 0 35 -35 88 -71 107 -31 17 -67 18 -471 18
l-438 0 0 1830 0 1830 36 0 c95 0 309 -47 454 -100 264 -97 466 -227 670 -430
246 -246 402 -521 484 -850 32 -128 35 -147 50 -329 8 -94 19 -166 27 -179 8
-13 32 -31 55 -42 39 -19 65 -20 874 -20 l835 0 -387 -387 c-405 -408 -418
-423 -403 -493 8 -39 56 -87 95 -95 16 -4 45 -2 63 4 22 8 186 165 544 523
544 546 538 538 514 611 -8 22 -165 186 -523 544 -445 444 -518 513 -550 518
-64 12 -127 -31 -143 -98 -17 -64 1 -86 403 -489 l387 -388 -773 0 -772 0 0
41 c0 110 -63 401 -120 559 -207 565 -665 1023 -1230 1230 -108 39 -286 84
-416 104 -102 16 -357 27 -449 20z"/>
<path d="M9071 6082 c-19 -10 -43 -34 -53 -53 -17 -32 -18 -82 -18 -961 l0
-928 -936 0 c-856 0 -938 -1 -964 -17 -47 -28 -55 -55 -53 -182 9 -506 237
-1027 612 -1400 387 -384 904 -595 1461 -595 204 0 323 15 520 64 592 149
1093 561 1356 1115 112 236 163 438 203 808 13 115 2 152 -54 187 -32 20 -47
20 -964 20 l-931 0 0 928 c0 879 -1 929 -18 961 -19 36 -72 71 -107 71 -11 0
-36 -8 -54 -18z m1869 -2228 c0 -143 -76 -420 -170 -622 -142 -302 -420 -607
-717 -786 -184 -110 -440 -201 -668 -237 -103 -16 -427 -16 -530 0 -228 36
-484 127 -668 237 -297 179 -575 484 -717 786 -94 202 -170 479 -170 622 l0
36 1820 0 1820 0 0 -36z"/>
</g>
</svg>
