<?xml version="1.0" standalone="no"?>
<!DOCTYPE svg PUBLIC "-//W3C//DTD SVG 20010904//EN"
 "http://www.w3.org/TR/2001/REC-SVG-20010904/DTD/svg10.dtd">
<svg version="1.0" xmlns="http://www.w3.org/2000/svg"
 width="844pt" height="1000pt" viewBox="0 0 844 1000"
 preserveAspectRatio="xMidYMid meet">
<metadata>
Created by potrace 1.9, written by Peter Selinger 2001-2010
</metadata>
<g transform="translate(0,1000) scale(0.100000,-0.100000)"
fill="#000000" stroke="none">
<path d="M5651 5123 c-45 -9 -140 -122 -196 -233 -151 -298 -112 -640 102
-902 70 -85 127 -107 192 -74 41 22 64 63 63 113 0 36 -8 54 -44 99 -116 149
-152 239 -152 389 0 145 37 244 142 379 29 36 46 69 49 94 12 86 -65 152 -156
135z"/>
<path d="M6631 5123 c-45 -9 -140 -122 -196 -233 -151 -298 -112 -640 102
-902 70 -85 127 -107 192 -74 41 22 64 63 63 113 0 36 -8 54 -44 99 -116 149
-152 239 -152 389 0 145 37 244 142 379 29 36 46 69 49 94 12 86 -65 152 -156
135z"/>
<path d="M7611 5123 c-45 -9 -140 -122 -196 -233 -151 -298 -112 -640 102
-902 70 -85 127 -107 192 -74 41 22 64 63 63 113 0 36 -8 54 -44 99 -116 149
-152 239 -152 389 0 145 37 244 142 379 29 36 46 69 49 94 12 86 -65 152 -156
135z"/>
<path d="M3095 4134 c-880 -71 -1599 -651 -1851 -1492 -2 -8 -19 9 -39 39
-166 246 -432 411 -751 465 -102 17 -187 15 -222 -7 -51 -32 -69 -113 -37
-167 26 -44 49 -53 156 -63 179 -17 357 -89 484 -197 139 -117 225 -248 281
-426 24 -79 26 -92 15 -123 -18 -48 -16 -99 4 -129 21 -32 14 -93 -22 -209
-108 -345 -399 -580 -762 -614 -107 -10 -130 -19 -156 -63 -32 -54 -14 -135
37 -167 54 -34 230 -18 401 35 180 57 377 185 494 322 150 177 231 366 268
627 10 75 23 127 33 138 32 36 159 126 232 166 92 49 241 104 346 127 110 24
388 24 498 0 177 -39 361 -122 491 -221 91 -69 120 -101 135 -149 29 -90 294
-283 514 -372 211 -86 479 -127 693 -106 374 38 656 166 950 433 28 26 36 79
28 187 -39 539 -244 1000 -605 1362 -378 377 -876 590 -1416 604 -82 2 -171 2
-199 0z m418 -265 c215 -32 478 -126 660 -235 242 -146 495 -399 641 -641 112
-188 208 -460 235 -668 24 -186 24 -189 -17 -227 -132 -125 -357 -238 -567
-284 -98 -21 -377 -24 -475 -5 -173 34 -372 120 -505 219 -67 49 -83 66 -93
99 -16 53 -164 196 -288 278 -231 152 -430 224 -710 256 -272 31 -621 -40
-858 -176 -44 -25 -81 -44 -82 -42 -6 5 36 153 66 237 97 264 227 466 430 670
318 317 699 495 1150 534 73 6 334 -3 413 -15z"/>
</g>
</svg>
