<?xml version="1.0" standalone="no"?>
<!DOCTYPE svg PUBLIC "-//W3C//DTD SVG 20010904//EN"
 "http://www.w3.org/TR/2001/REC-SVG-20010904/DTD/svg10.dtd">
<svg version="1.0" xmlns="http://www.w3.org/2000/svg"
 width="452pt" height="1000pt" viewBox="0 0 452 1000"
 preserveAspectRatio="xMidYMid meet">
<metadata>
Created by potrace 1.9, written by Peter Selinger 2001-2010
</metadata>
<g transform="translate(0,1000) scale(0.100000,-0.100000)"
fill="#000000" stroke="none">
<path d="M4075 4134 c-680 -53 -1280 -418 -1631 -994 -132 -218 -204 -409
-271 -723 l-8 -37 -79 51 c-247 158 -507 234 -806 234 -239 0 -460 -51 -662
-151 -190 -95 -414 -269 -460 -358 -49 -95 25 -201 128 -182 26 5 58 28 113
79 118 111 206 173 326 232 208 101 330 129 555 129 217 0 340 -27 537 -119
100 -47 153 -81 255 -162 56 -46 67 -60 73 -94 8 -48 67 -109 190 -198 174
-126 333 -202 531 -252 414 -104 849 -30 1208 208 100 67 215 165 240 205 9
14 16 47 16 72 0 39 -5 51 -35 81 -30 30 -42 35 -81 35 -48 0 -104 -30 -154
-85 -106 -114 -365 -245 -575 -291 -98 -21 -377 -24 -475 -5 -173 34 -372 120
-505 218 -67 50 -82 66 -92 101 -48 159 69 591 233 865 146 242 399 495 641
641 135 81 328 159 493 200 128 32 147 35 329 50 88 8 166 19 178 26 70 44 69
166 -1 210 -22 14 -124 20 -211 14z"/>
</g>
</svg>
