<?xml version="1.0" standalone="no"?>
<!DOCTYPE svg PUBLIC "-//W3C//DTD SVG 20010904//EN"
 "http://www.w3.org/TR/2001/REC-SVG-20010904/DTD/svg10.dtd">
<svg version="1.0" xmlns="http://www.w3.org/2000/svg"
 width="1138pt" height="1000pt" viewBox="0 0 1138 1000"
 preserveAspectRatio="xMidYMid meet">
<metadata>
Created by potrace 1.9, written by Peter Selinger 2001-2010
</metadata>
<g transform="translate(0,1000) scale(0.100000,-0.100000)"
fill="#000000" stroke="none">
<path d="M1160 4624 c-14 -2 -59 -9 -100 -15 -220 -31 -402 -100 -597 -225
-150 -97 -271 -203 -305 -268 -49 -95 25 -201 128 -182 26 5 58 28 113 79 118
111 206 173 326 232 208 101 330 129 555 129 217 0 340 -27 537 -119 100 -47
153 -81 253 -161 55 -44 67 -60 78 -99 14 -53 63 -104 187 -194 173 -126 333
-202 531 -252 414 -104 849 -30 1208 208 100 67 215 165 240 205 9 14 16 47
16 72 0 39 -5 51 -35 81 -30 30 -42 35 -81 35 -48 0 -104 -30 -154 -85 -106
-114 -365 -245 -575 -291 -98 -21 -377 -24 -475 -5 -104 20 -218 59 -325 111
-111 54 -265 161 -265 185 0 66 -131 195 -323 319 -189 121 -341 180 -572 222
-80 15 -318 27 -365 18z"/>
<path d="M7977 4619 c-341 -39 -646 -181 -880 -409 -76 -74 -97 -101 -97 -122
0 -22 -13 -38 -57 -73 -179 -142 -413 -235 -649 -257 -347 -33 -685 77 -942
305 -37 33 -82 66 -101 74 -97 41 -194 -51 -161 -152 30 -90 296 -282 514
-371 461 -188 991 -134 1410 143 100 67 215 165 240 205 9 14 16 35 16 46 0
35 143 152 270 221 92 49 240 104 346 127 110 24 388 24 498 0 106 -23 252
-77 347 -128 77 -41 230 -152 228 -166 -6 -40 7 -62 79 -130 261 -248 574
-390 931 -423 261 -25 543 28 786 146 113 54 251 146 337 222 37 32 78 66 93
76 39 27 59 77 51 123 -6 32 -25 56 -104 134 -150 147 -346 268 -542 334 -334
111 -659 111 -990 -1 -153 -52 -303 -133 -434 -235 -26 -21 -53 -35 -60 -31
-6 4 -29 21 -51 38 -119 94 -276 178 -425 228 -219 74 -444 101 -653 76z
m2367 -264 c176 -36 368 -123 501 -228 87 -67 88 -61 -14 -136 -129 -95 -319
-180 -486 -217 -98 -21 -377 -24 -475 -5 -104 20 -218 59 -325 111 -108 52
-265 161 -265 184 0 19 129 116 220 165 131 70 295 123 432 141 100 12 317 4
412 -15z"/>
</g>
</svg>
