<?xml version="1.0" standalone="no"?>
<!DOCTYPE svg PUBLIC "-//W3C//DTD SVG 20010904//EN"
 "http://www.w3.org/TR/2001/REC-SVG-20010904/DTD/svg10.dtd">
<svg version="1.0" xmlns="http://www.w3.org/2000/svg"
 width="452pt" height="1000pt" viewBox="0 0 452 1000"
 preserveAspectRatio="xMidYMid meet">
<metadata>
Created by potrace 1.9, written by Peter Selinger 2001-2010
</metadata>
<g transform="translate(0,1000) scale(0.100000,-0.100000)"
fill="#000000" stroke="none">
<path d="M265 6092 c-33 -12 -51 -26 -68 -53 -16 -24 -17 -178 -17 -2019 0
-1982 0 -1993 20 -2025 11 -18 36 -40 54 -49 37 -17 86 -14 341 20 615 84
1154 439 1481 974 199 327 298 686 298 1080 0 562 -212 1078 -604 1470 -316
315 -715 515 -1165 584 -118 18 -312 28 -340 18z m308 -263 c215 -32 478 -126
660 -235 242 -146 495 -399 641 -641 110 -184 201 -440 237 -668 16 -103 16
-427 0 -530 -36 -228 -127 -484 -237 -668 -146 -242 -399 -495 -641 -641 -216
-129 -579 -246 -767 -246 l-36 0 0 1820 0 1820 36 0 c19 0 68 -5 107 -11z"/>
<path d="M3655 4133 c-144 -22 -261 -80 -355 -173 -116 -117 -173 -259 -173
-430 0 -168 57 -311 168 -425 117 -118 258 -177 430 -178 121 -1 201 19 303
74 l72 40 0 -228 c-1 -334 -20 -413 -121 -515 -74 -74 -144 -103 -249 -103
-105 0 -175 29 -249 103 -64 64 -90 117 -107 216 -8 45 -19 90 -25 102 -26 50
-114 70 -169 37 -42 -24 -55 -58 -54 -132 6 -253 184 -481 433 -554 91 -27
251 -27 342 0 160 47 298 162 368 306 73 148 75 168 79 737 2 353 0 522 -8
560 -30 144 -44 190 -78 254 -69 132 -213 247 -361 288 -68 19 -194 30 -246
21z m220 -277 c71 -32 149 -111 183 -184 22 -48 27 -71 27 -142 0 -106 -29
-175 -105 -250 -75 -76 -144 -105 -250 -105 -106 0 -175 29 -250 105 -76 75
-105 144 -105 250 0 71 5 94 27 142 45 98 146 183 245 208 61 15 167 4 228
-24z"/>
</g>
</svg>
