<?xml version="1.0" standalone="no"?>
<!DOCTYPE svg PUBLIC "-//W3C//DTD SVG 20010904//EN"
 "http://www.w3.org/TR/2001/REC-SVG-20010904/DTD/svg10.dtd">
<svg version="1.0" xmlns="http://www.w3.org/2000/svg"
 width="158pt" height="1000pt" viewBox="0 0 158 1000"
 preserveAspectRatio="xMidYMid meet">
<metadata>
Created by potrace 1.9, written by Peter Selinger 2001-2010
</metadata>
<g transform="translate(0,1000) scale(0.100000,-0.100000)"
fill="#000000" stroke="none">
<path d="M251 4122 c-36 -19 -71 -72 -71 -107 0 -35 35 -88 71 -107 31 -17 66
-18 451 -18 269 0 418 -4 418 -10 0 -5 -102 -416 -226 -912 -163 -654 -224
-912 -219 -935 8 -42 57 -91 99 -99 39 -7 98 17 120 48 8 11 128 475 267 1032
l253 1012 -20 39 c-40 77 -24 75 -599 75 -475 0 -513 -1 -544 -18z"/>
</g>
</svg>
