<?xml version="1.0" standalone="no"?>
<!DOCTYPE svg PUBLIC "-//W3C//DTD SVG 20010904//EN"
 "http://www.w3.org/TR/2001/REC-SVG-20010904/DTD/svg10.dtd">
<svg version="1.0" xmlns="http://www.w3.org/2000/svg"
 width="1040pt" height="1000pt" viewBox="0 0 1040 1000"
 preserveAspectRatio="xMidYMid meet">
<metadata>
Created by potrace 1.9, written by Peter Selinger 2001-2010
</metadata>
<g transform="translate(0,1000) scale(0.100000,-0.100000)"
fill="#000000" stroke="none">
<path d="M251 6082 c-19 -10 -43 -34 -53 -53 -17 -32 -18 -84 -18 -1034 0
-950 1 -1002 18 -1034 10 -19 34 -43 53 -53 32 -17 82 -18 961 -18 l928 0 0
-928 c0 -879 1 -929 18 -961 19 -36 72 -71 107 -71 35 0 88 35 107 71 17 32
18 113 18 1936 l0 1903 36 0 c95 0 309 -47 454 -100 264 -97 466 -227 670
-430 246 -246 402 -521 484 -850 32 -128 35 -147 50 -329 8 -88 19 -166 26
-178 45 -72 172 -69 212 5 18 34 14 225 -7 362 -71 458 -269 853 -585 1170
-392 392 -908 604 -1470 604 -204 0 -323 -15 -520 -64 -526 -133 -990 -478
-1261 -940 l-44 -75 -5 500 c-6 556 -3 535 -75 569 -43 21 -63 20 -104 -2z
m1889 -1092 l0 -850 -850 0 -850 0 0 41 c0 193 115 553 246 772 146 242 399
495 641 641 218 130 561 241 761 245 l52 1 0 -850z"/>
<path d="M5151 5102 c-19 -10 -43 -34 -53 -53 -17 -32 -18 -77 -18 -789 0
-712 1 -757 18 -789 19 -36 72 -71 107 -71 35 0 88 35 107 71 17 32 18 77 18
789 0 712 -1 757 -18 789 -19 36 -72 71 -107 71 -11 0 -36 -8 -54 -18z"/>
<path d="M7112 4124 c-18 -9 -41 -29 -51 -43 -41 -57 -991 -1973 -996 -2008
-16 -104 101 -175 190 -117 20 13 134 232 467 898 l440 881 439 -877 c368
-736 444 -880 471 -900 l33 -23 1010 -3 c964 -2 1012 -1 1044 16 37 20 71 72
71 109 0 13 -227 476 -504 1031 -397 795 -510 1013 -533 1027 -15 11 -46 20
-68 20 -85 0 -66 32 -544 -923 l-439 -877 -440 881 c-333 666 -447 885 -467
898 -39 25 -85 29 -123 10z m2015 -1942 c-424 -1 -772 0 -774 2 -2 2 170 352
383 777 l387 774 387 -775 388 -775 -771 -3z"/>
<path d="M5163 3173 c-33 -6 -79 -57 -86 -92 -26 -127 122 -210 212 -120 43
42 49 93 18 156 -20 42 -87 68 -144 56z"/>
</g>
</svg>
