<?xml version="1.0" standalone="no"?>
<!DOCTYPE svg PUBLIC "-//W3C//DTD SVG 20010904//EN"
 "http://www.w3.org/TR/2001/REC-SVG-20010904/DTD/svg10.dtd">
<svg version="1.0" xmlns="http://www.w3.org/2000/svg"
 width="1236pt" height="1000pt" viewBox="0 0 1236 1000"
 preserveAspectRatio="xMidYMid meet">
<metadata>
Created by potrace 1.9, written by Peter Selinger 2001-2010
</metadata>
<g transform="translate(0,1000) scale(0.100000,-0.100000)"
fill="#000000" stroke="none">
<path d="M3191 6082 c-36 -19 -71 -72 -71 -107 0 -35 35 -88 71 -107 28 -15
58 -18 184 -18 l150 0 -42 -36 c-73 -61 -170 -187 -226 -295 -65 -122 -101
-233 -124 -375 -16 -100 -16 -107 6 -249 76 -498 225 -943 456 -1360 86 -157
252 -409 343 -523 l35 -44 -411 -411 c-400 -401 -442 -449 -442 -504 0 -33 36
-86 71 -105 32 -17 115 -18 2014 -18 1899 0 1982 1 2014 18 36 19 71 72 71
107 0 35 -35 88 -71 107 -32 17 -78 18 -829 18 l-795 0 40 27 c150 101 398
316 559 484 453 473 800 1079 969 1695 66 241 129 576 120 644 -32 259 -89
428 -197 589 -20 29 -36 56 -36 59 0 3 51 58 114 121 92 93 116 123 121 153 9
49 -19 105 -65 130 -33 17 -111 18 -2015 18 -1899 0 -1982 -1 -2014 -18z
m1259 -267 c353 -114 585 -399 619 -764 5 -54 15 -107 22 -119 43 -69 175 -69
218 0 7 12 17 65 22 119 17 179 89 357 197 484 115 137 243 222 422 281 77 25
98 28 230 28 132 0 153 -3 230 -28 84 -28 216 -91 255 -121 19 -15 -36 -71
-1245 -1280 -1011 -1011 -1267 -1262 -1278 -1253 -17 15 -165 221 -223 313
-216 338 -406 808 -494 1220 -63 295 -66 388 -18 538 88 280 289 485 564 576
106 35 147 40 274 37 97 -3 136 -9 205 -31z m993 -1 c-60 -50 -164 -179 -204
-251 -19 -35 -36 -63 -39 -63 -3 0 -20 27 -38 60 -41 75 -139 197 -200 250
l-47 40 285 0 285 0 -42 -36z m1489 -429 c20 -38 48 -108 64 -155 25 -76 28
-100 28 -220 0 -110 -5 -159 -27 -265 -86 -404 -225 -774 -424 -1130 -233
-414 -580 -812 -991 -1134 -100 -78 -359 -251 -375 -251 -25 0 -221 130 -377
249 -122 94 -278 233 -405 360 l-110 111 1274 1274 c1261 1261 1275 1274 1291
1253 10 -12 33 -53 52 -92z m-2437 -2961 c78 -67 219 -177 280 -217 l40 -27
-635 0 -635 0 295 295 295 295 145 -143 c80 -79 177 -170 215 -203z"/>
<path d="M251 4122 c-36 -19 -71 -73 -71 -107 1 -57 49 -111 479 -540 l441
-440 -449 -450 c-468 -470 -483 -487 -466 -552 16 -67 79 -110 143 -98 32 5
98 68 494 463 l458 457 452 -452 c473 -470 490 -485 555 -468 67 16 110 79 98
143 -5 32 -68 99 -466 497 l-459 460 455 455 c315 315 458 465 466 488 6 17 8
46 4 62 -8 39 -56 87 -95 95 -70 15 -82 6 -558 -469 l-452 -451 -453 452
c-248 249 -465 457 -480 463 -39 14 -57 13 -96 -8z"/>
<path d="M9072 4124 c-18 -9 -41 -29 -51 -43 -41 -57 -991 -1973 -996 -2008
-16 -104 101 -175 190 -117 20 13 134 232 467 898 l440 881 439 -877 c368
-736 444 -880 471 -900 l33 -23 1010 -3 c964 -2 1012 -1 1044 16 37 20 71 72
71 109 0 13 -227 476 -504 1031 -397 795 -510 1013 -533 1027 -15 11 -46 20
-68 20 -85 0 -66 32 -544 -923 l-439 -877 -440 881 c-333 666 -447 885 -467
898 -39 25 -85 29 -123 10z m2015 -1942 c-424 -1 -772 0 -774 2 -2 2 170 352
383 777 l387 774 387 -775 388 -775 -771 -3z"/>
</g>
</svg>
