<?xml version="1.0" standalone="no"?>
<!DOCTYPE svg PUBLIC "-//W3C//DTD SVG 20010904//EN"
 "http://www.w3.org/TR/2001/REC-SVG-20010904/DTD/svg10.dtd">
<svg version="1.0" xmlns="http://www.w3.org/2000/svg"
 width="991pt" height="1000pt" viewBox="0 0 991 1000"
 preserveAspectRatio="xMidYMid meet">
<metadata>
Created by potrace 1.9, written by Peter Selinger 2001-2010
</metadata>
<g transform="translate(0,1000) scale(0.100000,-0.100000)"
fill="#000000" stroke="none">
<path d="M2212 8044 c-18 -9 -41 -29 -51 -43 -40 -56 -501 -992 -506 -1028
-11 -74 61 -150 132 -139 68 10 76 22 280 430 l195 391 193 -385 c200 -398
216 -423 282 -436 39 -7 95 18 118 53 41 62 45 53 -233 609 -194 389 -267 525
-287 538 -39 25 -85 29 -123 10z"/>
<path d="M4170 6085 c-22 -10 -550 -531 -1462 -1443 l-1428 -1427 -457 457
c-397 395 -463 458 -495 463 -64 12 -127 -31 -144 -99 -16 -65 5 -90 471 -556
l445 -445 -449 -450 c-468 -470 -483 -487 -466 -552 16 -67 79 -110 143 -98
32 5 98 68 494 463 l458 457 452 -452 c476 -474 488 -483 558 -468 39 8 87 56
95 95 4 16 2 45 -4 62 -8 23 -151 173 -466 488 l-455 455 1439 1440 c1576
1576 1475 1467 1436 1548 -30 64 -100 90 -165 62z"/>
<path d="M7015 6094 c-684 -55 -1279 -418 -1631 -994 -199 -327 -298 -686
-298 -1080 0 -204 15 -323 64 -520 132 -524 479 -990 938 -1260 73 -43 88 -60
52 -60 -39 0 -139 -118 -195 -230 -151 -298 -112 -640 102 -902 70 -85 127
-107 192 -74 41 22 64 63 63 113 0 36 -8 54 -44 99 -116 149 -152 239 -152
389 0 143 38 247 134 367 54 67 69 115 52 160 -12 33 -12 33 36 12 152 -65
359 -123 514 -145 l87 -13 -16 -30 c-87 -167 -102 -417 -38 -605 49 -146 172
-328 237 -350 92 -32 172 22 170 116 0 36 -8 54 -44 99 -116 149 -152 239
-152 389 0 108 13 163 64 265 45 90 62 100 178 110 191 17 399 63 562 125 143
55 140 55 98 6 -20 -24 -53 -74 -73 -112 -162 -308 -128 -652 92 -921 70 -85
127 -107 192 -74 41 22 64 63 63 113 0 36 -8 54 -44 99 -116 149 -152 239
-152 389 0 145 37 244 143 379 56 72 64 124 29 176 -14 21 -38 40 -58 46 l-34
11 25 16 c13 8 56 34 94 57 260 158 501 402 671 681 199 326 298 686 298 1079
0 204 -15 323 -64 520 -165 656 -654 1197 -1290 1430 -108 39 -286 84 -416
104 -102 16 -357 27 -449 20z m418 -265 c215 -32 478 -126 660 -235 240 -145
495 -400 640 -641 111 -184 202 -440 238 -668 7 -44 13 -163 13 -265 0 -195
-10 -285 -49 -440 -84 -332 -244 -610 -494 -859 -240 -238 -514 -393 -841
-476 -155 -39 -245 -49 -440 -49 -195 0 -285 10 -440 49 -327 83 -601 238
-841 476 -207 206 -342 416 -439 679 -76 209 -104 374 -104 620 0 195 10 285
49 440 84 331 239 604 485 850 318 317 699 495 1150 534 73 6 334 -3 413 -15z"/>
<path d="M6143 5123 c-33 -6 -79 -57 -86 -92 -26 -127 122 -210 212 -120 43
42 49 93 18 156 -20 42 -87 68 -144 56z"/>
<path d="M8103 5123 c-33 -6 -79 -57 -86 -92 -26 -127 122 -210 212 -120 43
42 49 93 18 156 -20 42 -87 68 -144 56z"/>
<path d="M7111 5102 c-19 -10 -43 -34 -53 -53 -17 -32 -18 -82 -18 -961 l0
-928 -438 0 c-404 0 -440 -1 -471 -18 -36 -19 -71 -72 -71 -107 0 -35 35 -88
71 -107 32 -17 84 -18 1034 -18 950 0 1002 1 1034 18 36 19 71 72 71 107 0 35
-35 88 -71 107 -31 17 -67 18 -471 18 l-438 0 0 928 c0 879 -1 929 -18 961
-19 36 -72 71 -107 71 -11 0 -36 -8 -54 -18z"/>
<path d="M9555 2161 c-26 -12 -209 -188 -532 -512 -423 -425 -493 -500 -504
-536 -24 -84 -26 -81 514 -621 l493 -493 89 3 88 3 20 38 c41 80 54 64 -454
572 l-459 460 459 460 c503 504 493 491 456 568 -32 67 -102 91 -170 58z"/>
</g>
</svg>
