<?xml version="1.0" standalone="no"?>
<!DOCTYPE svg PUBLIC "-//W3C//DTD SVG 20010904//EN"
 "http://www.w3.org/TR/2001/REC-SVG-20010904/DTD/svg10.dtd">
<svg version="1.0" xmlns="http://www.w3.org/2000/svg"
 width="746pt" height="1000pt" viewBox="0 0 746 1000"
 preserveAspectRatio="xMidYMid meet">
<metadata>
Created by potrace 1.9, written by Peter Selinger 2001-2010
</metadata>
<g transform="translate(0,1000) scale(0.100000,-0.100000)"
fill="#000000" stroke="none">
<path d="M2212 8044 c-18 -9 -41 -29 -51 -43 -40 -56 -501 -992 -506 -1028
-11 -74 61 -150 132 -139 68 10 76 22 280 430 l195 391 193 -385 c200 -398
216 -423 282 -436 39 -7 95 18 118 53 41 62 45 53 -233 609 -194 389 -267 525
-287 538 -39 25 -85 29 -123 10z"/>
<path d="M4170 6085 c-22 -10 -550 -531 -1462 -1443 l-1428 -1427 -457 457
c-397 395 -463 458 -495 463 -64 12 -127 -31 -144 -99 -16 -65 5 -90 471 -556
l445 -445 -449 -450 c-468 -470 -483 -487 -466 -552 16 -67 79 -110 143 -98
32 5 98 68 494 463 l458 457 452 -452 c476 -474 488 -483 558 -468 39 8 87 56
95 95 4 16 2 45 -4 62 -8 23 -151 173 -466 488 l-455 455 1439 1440 c1576
1576 1475 1467 1436 1548 -30 64 -100 90 -165 62z"/>
<path d="M4671 5123 c-45 -9 -140 -122 -196 -233 -151 -298 -112 -640 102
-902 70 -85 127 -107 192 -74 41 22 64 63 63 113 0 36 -8 54 -44 99 -116 149
-152 239 -152 389 0 145 37 244 142 379 29 36 46 69 49 94 12 86 -65 152 -156
135z"/>
<path d="M5651 5123 c-45 -9 -140 -122 -196 -233 -151 -298 -112 -640 102
-902 70 -85 127 -107 192 -74 41 22 64 63 63 113 0 36 -8 54 -44 99 -116 149
-152 239 -152 389 0 145 37 244 142 379 29 36 46 69 49 94 12 86 -65 152 -156
135z"/>
<path d="M6631 5123 c-45 -9 -140 -122 -196 -233 -151 -298 -112 -640 102
-902 70 -85 127 -107 192 -74 41 22 64 63 63 113 0 36 -8 54 -44 99 -116 149
-152 239 -152 389 0 145 37 244 142 379 29 36 46 69 49 94 12 86 -65 152 -156
135z"/>
</g>
</svg>
