<?xml version="1.0" standalone="no"?>
<!DOCTYPE svg PUBLIC "-//W3C//DTD SVG 20010904//EN"
 "http://www.w3.org/TR/2001/REC-SVG-20010904/DTD/svg10.dtd">
<svg version="1.0" xmlns="http://www.w3.org/2000/svg"
 width="452pt" height="1000pt" viewBox="0 0 452 1000"
 preserveAspectRatio="xMidYMid meet">
<metadata>
Created by potrace 1.9, written by Peter Selinger 2001-2010
</metadata>
<g transform="translate(0,1000) scale(0.100000,-0.100000)"
fill="#000000" stroke="none">
<path d="M1231 6082 c-19 -10 -43 -34 -53 -53 -17 -32 -18 -83 -18 -1006 l0
-973 -485 -970 c-269 -538 -487 -986 -490 -1007 -8 -49 19 -100 66 -125 32
-17 84 -18 1034 -18 950 0 1002 1 1034 18 37 20 71 72 71 109 0 13 -220 464
-490 1003 l-490 980 0 978 c0 927 -1 979 -18 1011 -19 36 -72 71 -107 71 -11
0 -36 -8 -54 -18z m56 -3900 c-424 -1 -772 0 -774 2 -2 2 170 352 383 777
l387 774 387 -775 388 -775 -771 -3z"/>
<path d="M3655 4133 c-256 -40 -449 -208 -510 -443 -21 -81 -24 -188 -7 -222
29 -54 115 -75 172 -41 38 22 48 43 64 139 17 99 43 152 107 216 74 74 144
103 249 103 106 0 175 -29 250 -105 76 -75 105 -144 105 -250 0 -105 -29 -175
-103 -249 -64 -64 -117 -90 -216 -107 -97 -17 -117 -26 -141 -66 -34 -58 -14
-150 39 -177 12 -6 57 -17 102 -25 99 -17 152 -43 216 -107 74 -74 103 -144
103 -249 0 -106 -29 -175 -105 -250 -75 -76 -144 -105 -250 -105 -105 0 -175
29 -249 103 -64 64 -90 117 -107 216 -8 45 -19 90 -25 102 -26 50 -114 70
-169 37 -42 -24 -55 -58 -54 -132 6 -253 184 -481 433 -554 91 -27 251 -27
342 0 202 59 360 221 415 423 23 86 23 234 0 320 -27 98 -82 195 -153 266
l-62 64 62 64 c114 115 170 257 170 426 0 59 -6 120 -17 160 -55 202 -217 367
-415 422 -68 19 -194 30 -246 21z"/>
</g>
</svg>
