<?xml version="1.0" standalone="no"?>
<!DOCTYPE svg PUBLIC "-//W3C//DTD SVG 20010904//EN"
 "http://www.w3.org/TR/2001/REC-SVG-20010904/DTD/svg10.dtd">
<svg version="1.0" xmlns="http://www.w3.org/2000/svg"
 width="452pt" height="1000pt" viewBox="0 0 452 1000"
 preserveAspectRatio="xMidYMid meet">
<metadata>
Created by potrace 1.9, written by Peter Selinger 2001-2010
</metadata>
<g transform="translate(0,1000) scale(0.100000,-0.100000)"
fill="#000000" stroke="none">
<path d="M251 6082 c-19 -10 -43 -34 -53 -53 -18 -33 -19 -76 -15 -1129 4
-1053 5 -1099 24 -1205 42 -225 94 -393 175 -567 l41 -88 -41 -87 c-118 -256
-190 -556 -195 -814 -2 -127 6 -154 53 -182 54 -33 138 -15 170 36 7 12 18 90
26 178 15 182 18 201 50 329 21 86 74 244 93 277 5 9 22 -8 56 -54 70 -95 250
-272 359 -353 386 -286 797 -424 1266 -424 469 0 880 138 1266 424 109 81 289
258 359 353 34 46 51 63 56 54 19 -33 72 -191 93 -277 32 -128 35 -147 50
-329 8 -88 19 -166 26 -178 32 -51 116 -69 170 -36 47 28 55 55 53 182 -5 258
-77 558 -195 814 l-41 87 41 88 c112 241 162 442 201 807 7 64 11 450 11 1080
0 930 -1 982 -18 1014 -19 36 -72 71 -107 71 -35 0 -88 -35 -107 -71 -17 -32
-18 -83 -18 -984 0 -1108 -6 -1234 -69 -1482 -18 -69 -46 -153 -83 -245 l-10
-28 -50 66 c-73 96 -256 275 -362 354 -386 286 -797 424 -1266 424 -469 0
-880 -138 -1266 -424 -106 -79 -289 -258 -362 -354 l-50 -66 -10 28 c-37 92
-65 176 -83 246 -53 206 -51 164 -58 1346 -6 1044 -7 1106 -24 1132 -19 28
-73 58 -104 58 -10 0 -34 -8 -52 -18z m2282 -2213 c215 -32 478 -126 660 -235
117 -71 245 -173 357 -284 105 -105 250 -285 250 -310 0 -24 -159 -219 -259
-319 -240 -238 -514 -393 -841 -476 -155 -39 -245 -49 -440 -49 -195 0 -285
10 -440 49 -327 83 -601 238 -841 476 -100 100 -259 295 -259 319 0 25 145
205 250 310 318 317 699 495 1150 534 73 6 334 -3 413 -15z"/>
</g>
</svg>
