<?xml version="1.0" standalone="no"?>
<!DOCTYPE svg PUBLIC "-//W3C//DTD SVG 20010904//EN"
 "http://www.w3.org/TR/2001/REC-SVG-20010904/DTD/svg10.dtd">
<svg version="1.0" xmlns="http://www.w3.org/2000/svg"
 width="1334pt" height="1000pt" viewBox="0 0 1334 1000"
 preserveAspectRatio="xMidYMid meet">
<metadata>
Created by potrace 1.9, written by Peter Selinger 2001-2010
</metadata>
<g transform="translate(0,1000) scale(0.100000,-0.100000)"
fill="#000000" stroke="none">
<path d="M9085 6092 c-32 -11 -51 -25 -69 -53 -15 -24 -16 -111 -16 -1050 0
-593 4 -1070 10 -1134 24 -262 86 -499 192 -727 l41 -88 -41 -87 c-118 -256
-190 -556 -195 -814 -2 -127 6 -154 53 -182 54 -33 138 -15 170 36 7 12 18 90
26 178 15 182 18 201 50 329 21 86 74 244 93 277 5 9 22 -8 56 -54 70 -95 250
-272 359 -353 386 -286 797 -424 1266 -424 469 0 880 138 1266 424 109 81 289
258 359 353 34 46 51 63 56 54 19 -33 72 -191 93 -277 32 -128 35 -147 50
-329 8 -88 19 -166 26 -178 32 -51 116 -69 170 -36 47 28 55 55 53 182 -5 258
-77 558 -195 814 l-41 87 41 88 c112 241 162 442 201 807 7 64 11 450 11 1080
0 930 -1 982 -18 1014 -38 71 -109 85 -277 55 -489 -85 -833 -432 -920 -925
-62 -352 98 -769 384 -1003 129 -106 341 -206 486 -231 75 -13 75 -13 75 -61
0 -128 -53 -347 -132 -546 l-10 -28 -50 66 c-73 96 -256 275 -362 354 -386
286 -797 424 -1266 424 -469 0 -880 -138 -1266 -424 -106 -79 -289 -258 -362
-354 l-50 -66 -10 28 c-79 199 -132 418 -132 546 0 48 0 48 75 61 79 13 202
58 297 107 308 160 509 444 572 804 20 113 20 215 0 328 -85 490 -430 835
-920 920 -91 16 -164 19 -199 8z m267 -278 c177 -56 315 -149 429 -290 66 -80
115 -174 155 -294 25 -77 28 -98 28 -230 0 -132 -3 -153 -28 -230 -98 -295
-295 -493 -584 -584 -46 -14 -87 -26 -93 -26 -5 0 -9 317 -9 840 0 523 4 840
9 840 6 0 47 -12 93 -26z m3568 -814 c0 -727 -2 -840 -14 -840 -33 0 -186 54
-257 91 -144 75 -291 222 -362 364 -19 39 -48 111 -63 160 -26 80 -29 104 -29
225 0 121 3 145 29 225 92 292 289 493 576 586 47 16 93 28 103 29 16 0 17
-47 17 -840z m-1567 -1131 c215 -32 478 -126 660 -235 117 -71 245 -173 357
-284 105 -105 250 -285 250 -310 0 -24 -159 -219 -259 -319 -240 -238 -514
-393 -841 -476 -155 -39 -245 -49 -440 -49 -195 0 -285 10 -440 49 -327 83
-601 238 -841 476 -100 100 -259 295 -259 319 0 25 145 205 250 310 318 317
699 495 1150 534 73 6 334 -3 413 -15z"/>
<path d="M251 4122 c-36 -19 -71 -73 -71 -107 0 -11 9 -38 19 -60 27 -57 1962
-1988 2013 -2010 33 -13 260 -15 2013 -15 1671 0 1981 2 2008 14 19 8 446 429
1029 1012 1091 1093 1031 1027 993 1107 -18 39 -47 62 -89 73 -69 17 -62 24
-1076 -991 l-965 -965 -882 0 -883 0 0 41 c0 100 46 310 100 459 97 264 227
466 430 670 246 246 521 402 850 484 128 32 147 35 329 50 88 8 166 19 178 26
72 45 69 172 -5 212 -34 18 -225 14 -362 -7 -629 -97 -1150 -442 -1476 -975
-63 -105 -145 -272 -165 -337 -6 -24 -15 -43 -19 -43 -4 0 -13 19 -19 43 -7
23 -34 87 -60 142 -207 436 -555 786 -986 991 -250 118 -555 192 -816 197
-128 2 -154 -5 -183 -55 -33 -55 -15 -135 37 -168 12 -7 90 -18 178 -26 182
-15 201 -18 329 -50 329 -82 604 -238 850 -484 203 -204 333 -406 430 -670 54
-149 100 -359 100 -459 l0 -41 -883 0 -882 0 -965 966 c-562 563 -978 972
-997 980 -43 18 -61 18 -102 -4z"/>
</g>
</svg>
