<?xml version="1.0" standalone="no"?>
<!DOCTYPE svg PUBLIC "-//W3C//DTD SVG 20010904//EN"
 "http://www.w3.org/TR/2001/REC-SVG-20010904/DTD/svg10.dtd">
<svg version="1.0" xmlns="http://www.w3.org/2000/svg"
 width="256pt" height="1000pt" viewBox="0 0 256 1000"
 preserveAspectRatio="xMidYMid meet">
<metadata>
Created by potrace 1.9, written by Peter Selinger 2001-2010
</metadata>
<g transform="translate(0,1000) scale(0.100000,-0.100000)"
fill="#000000" stroke="none">
<path d="M741 8042 c-47 -25 -74 -76 -66 -125 3 -21 118 -263 255 -537 272
-544 273 -545 355 -545 78 1 77 -2 357 559 278 556 274 547 233 609 -23 35
-79 60 -118 53 -66 -13 -82 -38 -282 -436 l-193 -385 -195 391 c-143 286 -202
395 -222 408 -41 27 -85 30 -124 8z"/>
<path d="M251 6082 c-19 -10 -43 -34 -53 -53 -17 -31 -18 -69 -18 -544 0 -475
1 -513 18 -544 19 -35 72 -71 105 -71 31 0 85 30 104 58 16 24 18 61 23 380
l5 352 823 -822 822 -823 -825 -825 -825 -825 0 345 c0 315 -2 348 -18 379
-19 36 -72 71 -107 71 -35 0 -88 -35 -107 -71 -17 -31 -18 -69 -18 -544 0
-475 1 -513 18 -544 10 -19 34 -43 53 -53 31 -17 69 -18 544 -18 475 0 513 1
544 18 35 19 71 72 71 105 0 31 -30 85 -58 104 -24 16 -61 18 -385 23 l-357 5
765 765 765 765 0 -840 c0 -795 1 -842 18 -874 19 -36 72 -71 107 -71 35 0 88
35 107 71 17 32 18 115 18 2014 0 1899 -1 1982 -18 2014 -19 36 -72 71 -107
71 -35 0 -88 -35 -107 -71 -17 -32 -18 -79 -18 -874 l0 -840 -765 765 -765
765 357 5 c324 5 361 7 385 23 28 19 58 73 58 104 0 33 -36 86 -71 105 -31 17
-69 18 -544 18 -475 0 -513 -1 -544 -18z"/>
</g>
</svg>
