<?xml version="1.0" standalone="no"?>
<!DOCTYPE svg PUBLIC "-//W3C//DTD SVG 20010904//EN"
 "http://www.w3.org/TR/2001/REC-SVG-20010904/DTD/svg10.dtd">
<svg version="1.0" xmlns="http://www.w3.org/2000/svg"
 width="1432pt" height="1000pt" viewBox="0 0 1432 1000"
 preserveAspectRatio="xMidYMid meet">
<metadata>
Created by potrace 1.9, written by Peter Selinger 2001-2010
</metadata>
<g transform="translate(0,1000) scale(0.100000,-0.100000)"
fill="#000000" stroke="none">
<path d="M4172 6085 c-18 -8 -85 -59 -150 -114 -446 -377 -752 -915 -857
-1501 -159 -897 169 -1816 857 -2401 141 -120 181 -139 242 -119 71 23 103
119 62 182 -10 15 -68 70 -129 122 -349 294 -605 686 -732 1119 -122 419 -122
875 0 1294 127 433 383 825 732 1119 61 52 119 107 129 122 39 59 12 151 -53
178 -40 17 -59 17 -101 -1z"/>
<path d="M7015 6094 c-684 -55 -1279 -418 -1631 -994 -148 -244 -241 -509
-280 -800 -9 -69 -19 -130 -23 -136 -3 -6 -14 -23 -24 -37 -26 -36 -25 -102 2
-138 17 -23 24 -52 31 -137 30 -335 127 -638 294 -911 326 -535 865 -890 1481
-975 277 -38 312 -38 590 0 615 85 1155 440 1481 975 199 326 298 686 298
1079 0 204 -15 323 -64 520 -165 656 -654 1197 -1290 1430 -108 39 -286 84
-416 104 -102 16 -357 27 -449 20z m25 -994 c0 -407 -2 -740 -5 -740 -2 0 -35
20 -72 44 -183 118 -391 187 -649 217 -272 31 -621 -40 -858 -176 -44 -25 -81
-44 -82 -42 -2 1 6 36 16 77 39 150 120 346 196 473 146 242 399 495 641 641
218 130 561 241 761 245 l52 1 0 -740z m393 729 c215 -32 478 -126 660 -235
297 -179 575 -484 717 -786 101 -216 154 -417 174 -659 4 -55 3 -58 -32 -91
-132 -125 -357 -238 -567 -284 -98 -21 -377 -24 -475 -5 -173 34 -372 120
-505 218 -125 93 -115 6 -115 1007 l0 846 36 0 c19 0 68 -5 107 -11z m-1009
-1474 c212 -44 423 -150 574 -288 l42 -40 0 -836 0 -836 -397 397 c-343 342
-403 398 -435 403 -64 12 -127 -31 -143 -98 -16 -64 2 -87 383 -469 l365 -367
-94 24 c-167 43 -358 121 -492 201 -297 179 -575 484 -717 786 -108 232 -160
439 -176 699 l-7 116 74 61 c162 134 398 235 610 261 101 13 318 6 413 -14z
m1105 -726 c444 -195 969 -161 1389 92 l53 31 -6 -38 c-35 -201 -130 -458
-232 -627 -145 -241 -400 -496 -640 -641 -134 -80 -325 -158 -492 -201 l-94
-24 376 377 c323 325 377 382 382 414 12 64 -31 127 -98 143 -64 17 -86 -1
-489 -403 l-388 -387 0 697 0 698 76 -47 c42 -25 115 -63 163 -84z"/>
<path d="M1110 5104 c-194 -35 -394 -125 -531 -240 -290 -242 -446 -650 -384
-1003 49 -279 185 -523 384 -685 145 -119 339 -206 536 -240 114 -20 216 -20
330 0 489 85 833 432 920 925 61 347 -93 758 -373 994 -241 203 -592 302 -882
249z m400 -269 c176 -56 318 -152 431 -291 68 -83 117 -178 155 -299 26 -80
29 -104 29 -225 0 -121 -3 -145 -29 -225 -93 -295 -290 -493 -586 -591 -77
-25 -98 -28 -230 -28 -132 0 -153 3 -230 28 -179 59 -319 154 -431 292 -68 82
-117 177 -155 299 -26 82 -29 103 -28 230 0 126 3 149 28 225 95 288 291 488
567 579 106 35 147 40 274 37 97 -3 137 -9 205 -31z"/>
<path d="M10917 2659 c-338 -39 -643 -180 -875 -404 -70 -67 -95 -99 -101
-125 -21 -96 61 -174 154 -149 22 6 66 39 118 87 150 142 262 212 438 276 158
57 233 69 424 69 191 0 266 -12 424 -69 120 -44 226 -100 316 -169 91 -69 120
-101 135 -149 29 -90 294 -283 514 -372 461 -188 991 -134 1410 143 100 67
215 165 240 205 9 14 16 47 16 72 0 39 -5 51 -35 81 -30 30 -42 35 -81 35 -48
0 -104 -30 -154 -85 -106 -114 -365 -245 -575 -291 -98 -21 -377 -24 -475 -5
-173 34 -372 120 -505 219 -67 49 -83 66 -93 99 -25 83 -249 269 -457 379
-234 124 -567 185 -838 153z"/>
</g>
</svg>
