<?xml version="1.0" standalone="no"?>
<!DOCTYPE svg PUBLIC "-//W3C//DTD SVG 20010904//EN"
 "http://www.w3.org/TR/2001/REC-SVG-20010904/DTD/svg10.dtd">
<svg version="1.0" xmlns="http://www.w3.org/2000/svg"
 width="1138pt" height="1000pt" viewBox="0 0 1138 1000"
 preserveAspectRatio="xMidYMid meet">
<metadata>
Created by potrace 1.9, written by Peter Selinger 2001-2010
</metadata>
<g transform="translate(0,1000) scale(0.100000,-0.100000)"
fill="#000000" stroke="none">
<path d="M1231 6082 c-71 -38 -71 -35 -71 -524 l0 -438 -438 0 c-489 0 -486 0
-524 -71 -23 -42 -23 -66 0 -108 37 -70 46 -71 432 -71 l345 0 -387 -387
c-402 -404 -420 -426 -403 -490 16 -67 79 -110 143 -98 32 5 92 61 435 403
l397 397 0 -768 0 -767 -438 0 c-489 0 -486 0 -524 -71 -23 -42 -23 -66 0
-108 38 -71 35 -71 524 -71 l438 0 0 -438 c0 -489 0 -486 71 -524 42 -23 66
-23 108 0 71 38 71 35 71 524 l0 438 855 0 855 0 0 -438 c0 -489 0 -486 71
-524 42 -23 66 -23 108 0 71 38 71 35 71 524 l0 438 438 0 c489 0 486 0 524
71 23 42 23 66 0 108 -38 71 -35 71 -524 71 l-438 0 0 762 0 763 388 -387
c403 -402 425 -420 489 -403 67 16 110 79 98 143 -5 32 -61 92 -403 435 l-397
397 350 0 c392 0 400 1 437 71 23 42 23 66 0 108 -38 71 -35 71 -524 71 l-438
0 0 438 c0 404 -1 440 -18 471 -19 36 -72 71 -107 71 -35 0 -88 -35 -107 -71
-16 -31 -18 -64 -18 -384 l0 -350 -397 397 c-314 312 -405 397 -430 403 -73
15 -86 4 -495 -403 l-388 -387 0 345 c0 315 -2 348 -18 379 -19 36 -72 71
-107 71 -11 0 -36 -8 -54 -18z m1369 -627 l335 -335 -675 0 -675 0 335 335
c184 184 337 335 340 335 3 0 156 -151 340 -335z m520 -1440 l0 -855 -855 0
-855 0 0 855 0 855 855 0 855 0 0 -855z"/>
<path d="M6132 6085 c-51 -22 -257 -202 -363 -316 -262 -285 -471 -652 -577
-1014 -85 -290 -121 -608 -103 -888 48 -709 364 -1345 894 -1799 71 -61 141
-116 155 -124 23 -12 331 -14 2005 -14 1822 0 1982 1 2014 17 19 9 37 22 40
29 2 6 51 51 108 99 354 296 650 753 783 1210 142 486 142 984 0 1470 -106
362 -315 729 -577 1014 -96 103 -306 289 -358 316 -42 22 -3971 22 -4021 0z
m4015 -319 c331 -283 584 -677 708 -1099 122 -419 122 -875 0 -1294 -124 -425
-378 -818 -714 -1104 l-104 -89 -1897 0 -1897 0 -104 89 c-336 286 -590 679
-714 1104 -122 419 -122 875 0 1294 124 422 377 816 708 1099 l98 84 1909 0
1909 0 98 -84z"/>
<path d="M8085 4121 c-27 -13 -201 -180 -531 -512 -513 -516 -526 -530 -509
-596 16 -67 79 -110 143 -98 32 5 98 68 494 463 l458 457 452 -452 c473 -470
490 -485 555 -468 67 16 110 79 98 143 -5 32 -74 104 -513 546 -290 290 -521
514 -539 522 -42 18 -60 17 -108 -5z"/>
</g>
</svg>
