<?xml version="1.0" standalone="no"?>
<!DOCTYPE svg PUBLIC "-//W3C//DTD SVG 20010904//EN"
 "http://www.w3.org/TR/2001/REC-SVG-20010904/DTD/svg10.dtd">
<svg version="1.0" xmlns="http://www.w3.org/2000/svg"
 width="942pt" height="1000pt" viewBox="0 0 942 1000"
 preserveAspectRatio="xMidYMid meet">
<metadata>
Created by potrace 1.9, written by Peter Selinger 2001-2010
</metadata>
<g transform="translate(0,1000) scale(0.100000,-0.100000)"
fill="#000000" stroke="none">
<path d="M251 6082 c-19 -10 -43 -34 -53 -53 -17 -32 -18 -84 -18 -1034 0
-950 1 -1002 18 -1034 38 -71 40 -71 484 -71 l398 0 -445 -890 c-246 -492
-447 -906 -450 -927 -16 -104 101 -175 190 -117 20 13 134 232 467 898 l440
881 438 -874 c321 -643 445 -881 466 -898 63 -50 148 -33 186 37 17 33 18 111
18 2015 0 1899 -1 1982 -18 2014 -19 36 -72 71 -107 71 -35 0 -88 -35 -107
-71 -17 -32 -18 -82 -18 -961 l0 -928 -855 0 -855 0 0 928 c0 879 -1 929 -18
961 -19 36 -72 71 -107 71 -11 0 -36 -8 -54 -18z m1888 -2844 l0 -653 -324
645 c-178 355 -324 648 -324 653 -1 4 145 7 324 7 l325 0 -1 -652z"/>
<path d="M3191 4122 c-36 -19 -71 -72 -71 -107 0 -35 35 -88 71 -107 31 -17
67 -18 476 -18 l442 0 6 -37 c17 -99 70 -256 122 -353 158 -300 445 -502 798
-564 364 -64 780 97 1017 394 110 137 204 348 233 523 l6 37 1427 0 c1363 0
1429 1 1461 18 36 19 71 72 71 107 0 35 -35 88 -71 107 -32 17 -146 18 -2994
18 -2848 0 -2962 -1 -2994 -18z m2849 -239 c0 -4 -12 -45 -26 -92 -87 -287
-289 -490 -584 -587 -77 -25 -98 -28 -230 -28 -132 0 -153 3 -230 28 -295 97
-497 300 -584 587 -14 47 -26 88 -26 92 0 4 378 7 840 7 462 0 840 -3 840 -7z"/>
</g>
</svg>
