<?xml version="1.0" standalone="no"?>
<!DOCTYPE svg PUBLIC "-//W3C//DTD SVG 20010904//EN"
 "http://www.w3.org/TR/2001/REC-SVG-20010904/DTD/svg10.dtd">
<svg version="1.0" xmlns="http://www.w3.org/2000/svg"
 width="1138pt" height="1000pt" viewBox="0 0 1138 1000"
 preserveAspectRatio="xMidYMid meet">
<metadata>
Created by potrace 1.9, written by Peter Selinger 2001-2010
</metadata>
<g transform="translate(0,1000) scale(0.100000,-0.100000)"
fill="#000000" stroke="none">
<path d="M7111 6082 c-36 -19 -71 -72 -71 -107 0 -35 35 -88 71 -107 32 -17
113 -18 1941 -18 l1908 0 0 -1835 0 -1835 -3868 0 c-3726 0 -3869 -1 -3901
-18 -36 -19 -71 -72 -71 -107 0 -35 35 -88 71 -107 32 -17 177 -18 3974 -18
3797 0 3942 1 3974 18 19 10 43 34 53 53 17 32 18 115 18 2014 0 1899 -1 1982
-18 2014 -10 19 -34 43 -53 53 -32 17 -115 18 -2014 18 -1899 0 -1982 -1
-2014 -18z"/>
<path d="M251 4122 c-36 -19 -71 -73 -71 -107 1 -57 49 -111 479 -540 l441
-440 -449 -450 c-468 -470 -483 -487 -466 -552 16 -67 79 -110 143 -98 32 5
98 68 494 463 l458 457 452 -452 c473 -470 490 -485 555 -468 67 16 110 79 98
143 -5 32 -68 99 -466 497 l-459 460 455 455 c315 315 458 465 466 488 6 17 8
46 4 62 -8 39 -56 87 -95 95 -70 15 -82 6 -558 -469 l-452 -451 -453 452
c-248 249 -465 457 -480 463 -39 14 -57 13 -96 -8z"/>
</g>
</svg>
