<?xml version="1.0" standalone="no"?>
<!DOCTYPE svg PUBLIC "-//W3C//DTD SVG 20010904//EN"
 "http://www.w3.org/TR/2001/REC-SVG-20010904/DTD/svg10.dtd">
<svg version="1.0" xmlns="http://www.w3.org/2000/svg"
 width="746pt" height="1000pt" viewBox="0 0 746 1000"
 preserveAspectRatio="xMidYMid meet">
<metadata>
Created by potrace 1.9, written by Peter Selinger 2001-2010
</metadata>
<g transform="translate(0,1000) scale(0.100000,-0.100000)"
fill="#000000" stroke="none">
<path d="M251 6082 c-19 -10 -43 -34 -53 -53 -17 -32 -18 -115 -18 -2014 0
-1899 1 -1982 18 -2014 19 -36 72 -71 107 -71 35 0 88 35 107 71 17 32 18 82
18 961 l0 928 855 0 855 0 0 -928 c0 -879 1 -929 18 -961 19 -36 72 -71 107
-71 35 0 88 35 107 71 17 32 18 84 18 1034 0 950 -1 1002 -18 1034 -10 19 -34
43 -53 53 -32 17 -82 18 -961 18 l-928 0 0 928 c0 879 -1 929 -18 961 -19 36
-72 71 -107 71 -11 0 -36 -8 -54 -18z"/>
<path d="M3191 6082 c-36 -19 -71 -72 -71 -107 0 -35 35 -88 71 -107 32 -17
82 -18 961 -18 l928 0 0 -745 c0 -410 -2 -745 -5 -745 -2 0 -35 20 -72 44
-254 163 -603 247 -906 218 -290 -28 -493 -100 -732 -258 -121 -80 -274 -227
-284 -274 -21 -96 61 -174 154 -149 22 6 66 39 118 87 150 142 262 212 438
276 158 57 233 69 424 69 191 0 266 -12 424 -69 157 -57 286 -133 399 -237
l42 -40 0 -836 0 -836 -397 397 c-343 342 -403 398 -435 403 -64 12 -127 -31
-143 -98 -17 -64 1 -86 403 -489 l387 -388 -835 0 c-790 0 -837 -1 -869 -18
-36 -19 -71 -72 -71 -107 0 -35 35 -88 71 -107 32 -17 115 -18 2014 -18 1899
0 1982 1 2014 18 19 10 43 34 53 53 17 32 18 115 18 2014 0 1899 -1 1982 -18
2014 -10 19 -34 43 -53 53 -32 17 -115 18 -2014 18 -1899 0 -1982 -1 -2014
-18z m3849 -1106 l0 -874 -55 -50 c-138 -126 -352 -232 -560 -278 -98 -21
-377 -24 -475 -5 -173 34 -372 120 -505 218 -125 93 -115 6 -115 1012 l0 851
855 0 855 0 0 -874z m0 -2001 l0 -795 -767 0 -768 0 397 398 c342 342 398 402
403 434 12 64 -31 127 -98 143 -64 17 -86 -1 -489 -403 l-388 -387 0 697 0
698 76 -47 c227 -137 481 -206 764 -207 284 -1 536 66 766 204 54 32 100 59
102 60 1 0 2 -358 2 -795z"/>
</g>
</svg>
