<?xml version="1.0" standalone="no"?>
<!DOCTYPE svg PUBLIC "-//W3C//DTD SVG 20010904//EN"
 "http://www.w3.org/TR/2001/REC-SVG-20010904/DTD/svg10.dtd">
<svg version="1.0" xmlns="http://www.w3.org/2000/svg"
 width="452pt" height="1000pt" viewBox="0 0 452 1000"
 preserveAspectRatio="xMidYMid meet">
<metadata>
Created by potrace 1.9, written by Peter Selinger 2001-2010
</metadata>
<g transform="translate(0,1000) scale(0.100000,-0.100000)"
fill="#000000" stroke="none">
<path d="M238 4123 c-46 -29 -53 -56 -51 -182 2 -136 23 -282 63 -441 165
-656 654 -1197 1290 -1430 158 -57 449 -120 559 -120 l41 0 0 -777 0 -778
-397 397 c-343 342 -403 398 -435 403 -64 12 -127 -31 -143 -98 -17 -66 -5
-80 513 -599 l497 -498 85 0 85 0 507 507 c440 441 508 513 513 545 12 64 -31
127 -98 143 -64 17 -86 -1 -489 -403 l-388 -387 0 773 0 772 36 0 c59 0 230
29 354 60 524 132 971 463 1256 931 143 234 234 490 279 779 21 137 25 328 7
362 -40 74 -167 77 -212 5 -7 -12 -18 -90 -26 -178 -15 -182 -18 -201 -50
-329 -82 -330 -242 -610 -493 -859 -197 -196 -401 -325 -661 -421 -145 -53
-359 -100 -454 -100 l-36 0 0 918 c0 869 -1 919 -18 951 -19 36 -72 71 -107
71 -35 0 -88 -35 -107 -71 -17 -32 -18 -82 -18 -951 l0 -918 -41 0 c-193 0
-553 115 -772 246 -240 145 -495 400 -640 641 -82 135 -160 327 -201 493 -32
128 -35 147 -50 329 -8 88 -19 166 -26 178 -32 51 -119 69 -172 36z"/>
</g>
</svg>
