<?xml version="1.0" standalone="no"?>
<!DOCTYPE svg PUBLIC "-//W3C//DTD SVG 20010904//EN"
 "http://www.w3.org/TR/2001/REC-SVG-20010904/DTD/svg10.dtd">
<svg version="1.0" xmlns="http://www.w3.org/2000/svg"
 width="697pt" height="1000pt" viewBox="0 0 697 1000"
 preserveAspectRatio="xMidYMid meet">
<metadata>
Created by potrace 1.9, written by Peter Selinger 2001-2010
</metadata>
<g transform="translate(0,1000) scale(0.100000,-0.100000)"
fill="#000000" stroke="none">
<path d="M1721 8042 c-19 -10 -43 -34 -53 -53 -17 -31 -18 -69 -18 -544 0
-475 1 -513 18 -544 10 -19 34 -43 53 -53 31 -17 69 -18 544 -18 475 0 513 1
544 18 19 10 43 34 53 53 17 31 18 69 18 544 0 475 -1 513 -18 544 -10 19 -34
43 -53 53 -31 17 -69 18 -544 18 -475 0 -513 -1 -544 -18z m909 -597 l0 -365
-365 0 -365 0 0 365 0 365 365 0 365 0 0 -365z"/>
<path d="M2211 6082 c-19 -10 -43 -34 -53 -53 -17 -32 -18 -110 -18 -1854 l0
-1820 -397 397 c-343 342 -403 398 -435 403 -64 12 -127 -31 -143 -98 -16 -64
2 -87 383 -469 l365 -367 -94 24 c-167 43 -358 121 -492 201 -240 145 -495
400 -640 641 -82 135 -160 327 -201 493 -32 128 -35 147 -50 329 -8 88 -19
166 -26 178 -45 72 -172 69 -212 -5 -31 -60 -5 -354 52 -582 204 -811 885
-1420 1715 -1534 277 -38 312 -38 590 0 615 85 1155 440 1481 975 143 234 234
490 279 779 21 137 25 328 7 362 -40 74 -167 77 -212 5 -7 -12 -18 -90 -26
-178 -15 -182 -18 -201 -50 -329 -82 -330 -242 -610 -493 -859 -239 -238 -512
-392 -840 -476 l-94 -24 376 377 c323 325 377 382 382 414 12 64 -31 127 -98
143 -64 17 -86 -1 -489 -403 l-388 -387 0 1815 c0 1739 -1 1817 -18 1849 -19
36 -72 71 -107 71 -11 0 -36 -8 -54 -18z"/>
<path d="M5635 6086 c-63 -27 -89 -120 -51 -178 10 -15 68 -70 129 -122 349
-294 605 -686 732 -1119 122 -419 122 -875 0 -1294 -127 -433 -383 -825 -732
-1119 -128 -109 -146 -133 -146 -190 0 -85 77 -141 158 -114 20 7 93 60 163
120 448 380 752 913 857 1500 70 395 48 793 -67 1185 -135 462 -423 905 -790
1216 -150 127 -187 144 -253 115z"/>
<path d="M5585 5095 c-30 -31 -35 -42 -35 -83 0 -41 6 -54 43 -99 144 -176
180 -225 220 -302 54 -102 100 -230 124 -343 24 -115 24 -370 -1 -488 -44
-211 -175 -473 -291 -580 -55 -50 -85 -106 -85 -154 0 -39 5 -51 35 -81 30
-30 42 -35 81 -35 59 0 85 17 159 100 295 336 428 810 350 1253 -52 290 -173
538 -374 762 -63 70 -88 85 -143 85 -41 0 -52 -5 -83 -35z"/>
<path d="M5150 4627 c-20 -7 -44 -27 -58 -47 -35 -52 -27 -104 29 -176 106
-135 143 -233 143 -379 0 -145 -37 -244 -142 -379 -68 -86 -66 -167 4 -213 33
-21 104 -21 135 0 39 28 116 127 155 200 134 255 134 529 0 784 -37 70 -115
172 -151 197 -31 21 -77 26 -115 13z"/>
</g>
</svg>
