<?xml version="1.0" standalone="no"?>
<!DOCTYPE svg PUBLIC "-//W3C//DTD SVG 20010904//EN"
 "http://www.w3.org/TR/2001/REC-SVG-20010904/DTD/svg10.dtd">
<svg version="1.0" xmlns="http://www.w3.org/2000/svg"
 width="1236pt" height="1000pt" viewBox="0 0 1236 1000"
 preserveAspectRatio="xMidYMid meet">
<metadata>
Created by potrace 1.9, written by Peter Selinger 2001-2010
</metadata>
<g transform="translate(0,1000) scale(0.100000,-0.100000)"
fill="#000000" stroke="none">
<path d="M2211 6082 c-71 -38 -71 -35 -71 -524 l0 -438 -438 0 c-489 0 -486 0
-524 -71 -17 -32 -18 -79 -18 -874 l0 -840 -398 397 c-342 342 -402 398 -434
403 -64 12 -127 -31 -143 -98 -18 -68 -31 -53 999 -1086 967 -969 1021 -1020
1081 -1021 34 0 88 35 107 71 17 31 18 67 18 471 l0 438 438 0 c489 0 486 0
524 71 17 32 18 84 18 1034 0 950 -1 1002 -18 1034 -38 71 -35 71 -524 71
l-438 0 0 438 c0 404 -1 440 -18 471 -19 36 -72 71 -107 71 -11 0 -36 -8 -54
-18z m-71 -2067 l0 -855 -365 0 -365 0 0 855 0 855 365 0 365 0 0 -855z m980
0 l0 -855 -365 0 -365 0 0 855 0 855 365 0 365 0 0 -855z m-980 -1380 c0 -151
-1 -275 -3 -275 -1 0 -126 124 -277 275 l-275 275 278 0 277 0 0 -275z"/>
<path d="M4171 6082 c-36 -19 -71 -73 -71 -107 0 -11 9 -38 19 -60 13 -28 614
-634 1982 -2001 2067 -2065 1996 -1997 2066 -1979 67 16 110 79 98 143 -5 33
-237 268 -1983 2015 -1170 1171 -1990 1985 -2009 1993 -43 18 -61 18 -102 -4z"/>
<path d="M8091 6082 c-36 -19 -71 -73 -71 -107 1 -58 50 -112 624 -685 322
-322 586 -589 586 -594 0 -5 -9 -19 -19 -30 -33 -36 -128 -228 -155 -312 -33
-109 -56 -242 -56 -334 0 -161 52 -359 137 -520 157 -299 445 -502 798 -564
161 -28 319 -15 499 40 82 26 245 106 303 150 17 13 35 24 40 24 4 0 276 -268
603 -595 624 -624 639 -637 706 -621 68 17 111 80 99 144 -5 32 -85 115 -616
647 l-609 610 35 49 c120 168 205 433 205 636 0 157 -52 357 -132 512 -159
305 -447 510 -803 572 -161 28 -319 15 -499 -40 -87 -28 -271 -120 -320 -160
l-29 -26 -601 601 c-334 333 -614 605 -629 611 -39 14 -57 13 -96 -8z m2239
-1247 c176 -56 318 -152 431 -291 68 -83 117 -178 155 -299 26 -80 29 -104 29
-225 0 -121 -3 -145 -29 -225 -27 -86 -89 -219 -121 -260 -15 -19 -41 6 -607
573 -567 566 -592 592 -573 607 35 27 168 91 236 114 106 35 147 40 274 37 97
-3 137 -9 205 -31z m242 -1518 c-53 -36 -158 -85 -242 -113 -77 -25 -98 -28
-230 -28 -132 0 -153 3 -230 28 -179 59 -319 154 -431 292 -68 82 -117 177
-155 299 -26 82 -29 103 -28 230 0 126 3 149 28 225 29 88 72 182 109 237 l22
33 592 -592 592 -592 -27 -19z"/>
</g>
</svg>
