<?xml version="1.0" standalone="no"?>
<!DOCTYPE svg PUBLIC "-//W3C//DTD SVG 20010904//EN"
 "http://www.w3.org/TR/2001/REC-SVG-20010904/DTD/svg10.dtd">
<svg version="1.0" xmlns="http://www.w3.org/2000/svg"
 width="107pt" height="1000pt" viewBox="0 0 107 1000"
 preserveAspectRatio="xMidYMid meet">
<g transform="translate(0,1000) scale(0.100000,-0.100000)"
fill="#000000" stroke="none">
<path d="M451 3144 c-134 -29 -238 -136 -267 -272 -18 -90 -21 -560 -4 -644 6 -29 30 -83 53 -119 51 -83 136 -141 234 -160 246 -47 470 176 423 422 -36 186 -230 327 -401 290 -28 -6 -55 -11 -60 -11 -6 0 -10 37 -10 84 0 70 4 88 23 117 64 95 177 65 207 -54 6 -23 15 -51 21 -63 25 -50 120 -71 169 -37 56 39 65 75 45 176 -30 139 -133 242 -275 272 -82 17 -75 17 -158 -1z m158 -764 c55 -55 55 -93 2 -150 -30 -31 -46 -40 -71 -40 -61 0 -121 56 -121 113 0 31 38 88 70 104 45 23 77 16 120 -27z"/>
</g>
</svg>

