<?xml version="1.0" standalone="no"?>
<!DOCTYPE svg PUBLIC "-//W3C//DTD SVG 20010904//EN"
 "http://www.w3.org/TR/2001/REC-SVG-20010904/DTD/svg10.dtd">
<svg version="1.0" xmlns="http://www.w3.org/2000/svg"
 width="158pt" height="1000pt" viewBox="0 0 158 1000"
 preserveAspectRatio="xMidYMid meet">
<metadata>
Created by potrace 1.9, written by Peter Selinger 2001-2010
</metadata>
<g transform="translate(0,1000) scale(0.100000,-0.100000)"
fill="#000000" stroke="none">
<path d="M715 4133 c-256 -40 -444 -203 -512 -443 -17 -60 -18 -113 -18 -650
0 -537 1 -590 18 -650 58 -204 215 -364 416 -423 91 -27 251 -27 342 0 202 59
360 221 415 423 23 86 23 234 0 320 -55 202 -214 364 -415 423 -88 26 -242 27
-330 3 -36 -10 -92 -32 -125 -49 -34 -18 -65 -33 -69 -35 -5 -2 -7 123 -5 279
l3 284 27 57 c34 74 112 152 186 186 48 22 71 27 142 27 105 0 175 -29 249
-103 64 -64 90 -117 107 -216 8 -45 19 -90 25 -102 26 -50 114 -70 169 -37 42
24 55 58 54 132 -6 256 -192 491 -441 555 -66 17 -189 27 -238 19z m220 -1257
c71 -32 149 -111 183 -184 22 -48 27 -71 27 -142 0 -106 -29 -175 -105 -250
-75 -76 -144 -105 -250 -105 -71 0 -94 5 -142 27 -74 34 -152 112 -186 186
-38 82 -38 202 0 284 45 98 146 183 245 208 61 15 167 4 228 -24z"/>
</g>
</svg>
