<?xml version="1.0" standalone="no"?>
<!DOCTYPE svg PUBLIC "-//W3C//DTD SVG 20010904//EN"
 "http://www.w3.org/TR/2001/REC-SVG-20010904/DTD/svg10.dtd">
<svg version="1.0" xmlns="http://www.w3.org/2000/svg"
 width="942pt" height="1000pt" viewBox="0 0 942 1000"
 preserveAspectRatio="xMidYMid meet">
<metadata>
Created by potrace 1.9, written by Peter Selinger 2001-2010
</metadata>
<g transform="translate(0,1000) scale(0.100000,-0.100000)"
fill="#000000" stroke="none">
<path d="M251 6082 c-19 -10 -43 -34 -53 -53 -17 -32 -18 -84 -18 -1034 0
-950 1 -1002 18 -1034 38 -71 40 -71 484 -71 l398 0 -445 -890 c-246 -492
-447 -906 -450 -927 -16 -104 101 -175 190 -117 20 13 134 232 467 898 l440
881 438 -874 c321 -643 445 -881 466 -898 63 -50 148 -33 186 37 17 33 18 111
18 2015 0 1899 -1 1982 -18 2014 -19 36 -72 71 -107 71 -35 0 -88 -35 -107
-71 -17 -32 -18 -82 -18 -961 l0 -928 -855 0 -855 0 0 928 c0 879 -1 929 -18
961 -19 36 -72 71 -107 71 -11 0 -36 -8 -54 -18z m1888 -2844 l0 -653 -324
645 c-178 355 -324 648 -324 653 -1 4 145 7 324 7 l325 0 -1 -652z"/>
<path d="M5152 6084 c-18 -9 -41 -29 -51 -43 -41 -58 -1971 -3933 -1976 -3968
-8 -49 19 -100 66 -125 32 -17 82 -18 951 -18 l918 0 0 -36 c0 -95 -47 -309
-100 -454 -97 -264 -227 -466 -430 -670 -246 -246 -521 -402 -850 -484 -128
-32 -147 -35 -329 -50 -88 -8 -166 -19 -178 -26 -47 -30 -70 -110 -44 -158 27
-51 32 -52 214 -52 181 0 260 10 432 54 580 148 1080 562 1341 1111 112 236
163 438 203 808 13 115 2 152 -54 187 -32 20 -47 20 -924 20 -490 0 -891 2
-891 5 0 3 394 794 876 1757 l876 1753 929 -1857 c791 -1581 933 -1859 961
-1880 l33 -23 928 -3 927 -2 0 -36 c0 -95 -47 -309 -100 -454 -97 -264 -227
-466 -430 -670 -246 -246 -521 -402 -850 -484 -128 -32 -147 -35 -329 -50 -88
-8 -166 -19 -178 -26 -47 -30 -70 -110 -44 -158 27 -51 32 -52 214 -52 181 0
260 10 432 54 580 148 1080 562 1341 1111 112 236 163 438 203 808 13 115 2
152 -54 187 -32 20 -47 20 -989 20 l-956 0 -969 1938 c-743 1487 -976 1943
-996 1956 -39 25 -85 29 -123 10z"/>
</g>
</svg>
