<?xml version="1.0" standalone="no"?>
<!DOCTYPE svg PUBLIC "-//W3C//DTD SVG 20010904//EN"
 "http://www.w3.org/TR/2001/REC-SVG-20010904/DTD/svg10.dtd">
<svg version="1.0" xmlns="http://www.w3.org/2000/svg"
 width="1432pt" height="1000pt" viewBox="0 0 1432 1000"
 preserveAspectRatio="xMidYMid meet">
<metadata>
Created by potrace 1.9, written by Peter Selinger 2001-2010
</metadata>
<g transform="translate(0,1000) scale(0.100000,-0.100000)"
fill="#000000" stroke="none">
<path d="M2205 6081 c-28 -13 -345 -325 -1021 -1002 -792 -794 -984 -991 -994
-1022 -20 -64 6 -123 67 -152 80 -38 18 -93 1055 943 l948 947 942 -941 c761
-760 950 -944 981 -954 64 -20 123 6 152 67 38 80 98 14 -993 1107 -583 583
-1010 1004 -1029 1012 -42 18 -60 17 -108 -5z"/>
<path d="M7015 6094 c-684 -55 -1279 -418 -1631 -994 -199 -327 -298 -686
-298 -1080 0 -204 15 -323 64 -520 184 -731 759 -1306 1490 -1490 197 -49 316
-64 520 -64 557 0 1074 211 1461 595 398 396 613 914 613 1479 0 204 -15 323
-64 520 -165 656 -654 1197 -1290 1430 -108 39 -286 84 -416 104 -102 16 -357
27 -449 20z m418 -265 c215 -32 478 -126 660 -235 240 -145 495 -400 640 -641
111 -184 202 -440 238 -668 7 -44 13 -163 13 -265 0 -195 -10 -285 -49 -440
-84 -332 -244 -610 -494 -859 -240 -238 -514 -393 -841 -476 -155 -39 -245
-49 -440 -49 -195 0 -285 10 -440 49 -327 83 -601 238 -841 476 -207 206 -342
416 -439 679 -76 209 -104 374 -104 620 0 195 10 285 49 440 84 331 239 604
485 850 318 317 699 495 1150 534 73 6 334 -3 413 -15z"/>
<path d="M7111 5102 c-19 -10 -43 -34 -53 -53 -17 -32 -18 -82 -18 -961 l0
-928 -438 0 c-404 0 -440 -1 -471 -18 -36 -19 -71 -72 -71 -107 0 -35 35 -88
71 -107 32 -17 84 -18 1034 -18 950 0 1002 1 1034 18 36 19 71 72 71 107 0 35
-35 88 -71 107 -31 17 -67 18 -471 18 l-438 0 0 928 c0 879 -1 929 -18 961
-19 36 -72 71 -107 71 -11 0 -36 -8 -54 -18z"/>
<path d="M12011 6083 c-19 -9 -46 -36 -60 -59 -14 -23 -123 -236 -241 -473
l-215 -431 -705 0 c-664 0 -707 -1 -739 -18 -47 -25 -74 -76 -66 -125 3 -21
164 -356 359 -745 l354 -707 -354 -707 c-195 -389 -356 -724 -359 -745 -8 -49
19 -100 66 -125 32 -17 75 -18 739 -18 l705 0 232 -464 c254 -507 257 -511
338 -511 78 1 79 2 331 507 l234 468 708 0 c666 0 709 1 741 18 37 20 71 72
71 109 0 12 -163 348 -361 745 l-361 723 361 725 c199 399 362 734 361 745 0
35 -35 88 -71 107 -32 17 -75 18 -741 18 l-708 0 -234 468 c-173 347 -241 473
-261 486 -39 26 -85 29 -124 9z m56 -961 c-154 -1 -282 0 -284 2 -2 2 60 131
138 287 l142 284 142 -285 143 -285 -281 -3z m-963 -784 l-266 -533 -264 525
c-144 289 -263 528 -263 533 -1 4 238 7 529 7 l530 0 -266 -532z m1707 -140
l336 -673 -336 -672 -336 -673 -412 0 -413 0 -336 672 -336 673 336 672 336
673 413 0 412 0 336 -672z m743 140 l-266 -533 -264 525 c-144 289 -263 528
-263 533 -1 4 238 7 529 7 l530 0 -266 -532z m-2449 -1628 l265 -530 -530 0
c-291 0 -530 2 -530 5 0 7 524 1055 527 1055 2 0 122 -238 268 -530z m2450 0
l265 -530 -530 0 c-291 0 -530 2 -530 5 0 7 524 1055 527 1055 2 0 122 -238
268 -530z m-1346 -1062 c-78 -156 -143 -285 -145 -287 -3 -3 -284 554 -284
564 0 3 128 5 285 5 l285 0 -141 -282z"/>
</g>
</svg>
