<?xml version="1.0" standalone="no"?>
<!DOCTYPE svg PUBLIC "-//W3C//DTD SVG 20010904//EN"
 "http://www.w3.org/TR/2001/REC-SVG-20010904/DTD/svg10.dtd">
<svg version="1.0" xmlns="http://www.w3.org/2000/svg"
 width="648pt" height="1000pt" viewBox="0 0 648 1000"
 preserveAspectRatio="xMidYMid meet">
<metadata>
Created by potrace 1.9, written by Peter Selinger 2001-2010
</metadata>
<g transform="translate(0,1000) scale(0.100000,-0.100000)"
fill="#000000" stroke="none">
<path d="M251 4122 c-19 -10 -43 -34 -53 -53 -17 -32 -18 -84 -18 -1034 0
-950 1 -1002 18 -1034 10 -19 34 -43 53 -53 32 -17 115 -18 1994 -18 1977 0
2006 0 2270 36 615 84 1154 439 1481 974 143 235 234 491 279 780 21 137 25
328 7 362 -40 74 -167 77 -212 5 -7 -12 -18 -90 -26 -178 -15 -182 -18 -201
-50 -329 -82 -329 -238 -604 -484 -850 -241 -241 -516 -399 -833 -481 -244
-62 -381 -69 -1409 -69 l-878 0 0 928 c0 879 -1 929 -18 961 -10 19 -34 43
-53 53 -32 17 -84 18 -1034 18 -950 0 -1002 -1 -1034 -18z m1889 -1087 l0
-855 -855 0 -855 0 0 855 0 855 855 0 855 0 0 -855z"/>
</g>
</svg>
