<?xml version="1.0" standalone="no"?>
<!DOCTYPE svg PUBLIC "-//W3C//DTD SVG 20010904//EN"
 "http://www.w3.org/TR/2001/REC-SVG-20010904/DTD/svg10.dtd">
<svg version="1.0" xmlns="http://www.w3.org/2000/svg"
 width="1236pt" height="1000pt" viewBox="0 0 1236 1000"
 preserveAspectRatio="xMidYMid meet">
<metadata>
Created by potrace 1.9, written by Peter Selinger 2001-2010
</metadata>
<g transform="translate(0,1000) scale(0.100000,-0.100000)"
fill="#000000" stroke="none">
<path d="M2212 8044 c-18 -9 -41 -29 -51 -43 -40 -56 -501 -992 -506 -1028
-11 -74 61 -150 132 -139 68 10 76 22 280 430 l195 391 193 -385 c200 -398
216 -423 282 -436 39 -7 95 18 118 53 41 62 45 53 -233 609 -194 389 -267 525
-287 538 -39 25 -85 29 -123 10z"/>
<path d="M1110 6084 c-360 -65 -649 -275 -803 -585 -92 -185 -144 -413 -119
-522 7 -28 21 -99 31 -157 131 -727 392 -1308 845 -1880 123 -156 432 -465
591 -592 121 -96 316 -232 433 -303 35 -20 66 -43 69 -50 9 -25 73 -48 113
-41 58 9 373 207 555 350 483 378 854 835 1139 1405 173 344 298 743 365 1166
20 125 19 131 -5 283 -77 488 -428 840 -920 926 -359 63 -766 -92 -1007 -382
-35 -42 -79 -105 -98 -139 -19 -35 -36 -63 -39 -63 -3 1 -24 33 -47 73 -209
364 -689 586 -1103 511z m400 -269 c353 -114 585 -399 619 -764 5 -54 15 -107
22 -119 43 -69 175 -69 218 0 7 12 17 65 22 119 17 179 89 357 197 484 115
137 243 222 422 281 77 25 98 28 230 28 132 0 153 -3 230 -28 183 -61 317
-152 431 -292 66 -80 115 -175 155 -294 25 -76 28 -100 28 -220 0 -110 -5
-159 -27 -265 -86 -404 -225 -774 -424 -1130 -298 -531 -795 -1042 -1326
-1364 l-37 -23 -48 28 c-87 50 -266 176 -387 272 -163 130 -468 437 -599 602
-415 523 -672 1109 -781 1785 -28 175 -26 209 19 342 91 266 291 464 557 552
106 35 147 40 274 37 97 -3 136 -9 205 -31z"/>
<path d="M6125 6081 c-27 -13 -201 -180 -531 -512 -513 -516 -526 -530 -509
-596 16 -67 79 -110 143 -98 32 5 92 61 435 403 l397 397 0 -1820 c0 -1744 1
-1822 18 -1854 19 -36 72 -71 107 -71 35 0 88 35 107 71 17 32 18 110 18 1849
l0 1815 388 -387 c403 -402 425 -420 489 -403 67 16 110 79 98 143 -5 32 -74
104 -513 546 -290 290 -521 514 -539 522 -42 18 -60 17 -108 -5z"/>
<path d="M9955 6094 c-684 -55 -1279 -418 -1631 -994 -199 -327 -298 -686
-298 -1080 0 -204 15 -323 64 -520 184 -731 759 -1306 1490 -1490 197 -49 316
-64 520 -64 557 0 1074 211 1461 595 398 396 613 914 613 1479 0 204 -15 323
-64 520 -165 656 -654 1197 -1290 1430 -108 39 -286 84 -416 104 -102 16 -357
27 -449 20z m418 -265 c215 -32 478 -126 660 -235 240 -145 495 -400 640 -641
111 -184 202 -440 238 -668 7 -44 13 -163 13 -265 0 -195 -10 -285 -49 -440
-84 -332 -244 -610 -494 -859 -240 -238 -514 -393 -841 -476 -155 -39 -245
-49 -440 -49 -195 0 -285 10 -440 49 -327 83 -601 238 -841 476 -207 206 -342
416 -439 679 -76 209 -104 374 -104 620 0 195 10 285 49 440 84 331 239 604
485 850 318 317 699 495 1150 534 73 6 334 -3 413 -15z"/>
<path d="M9083 5123 c-33 -6 -79 -57 -86 -92 -26 -127 122 -210 212 -120 43
42 49 93 18 156 -20 42 -87 68 -144 56z"/>
<path d="M11043 5123 c-33 -6 -79 -57 -86 -92 -26 -127 122 -210 212 -120 43
42 49 93 18 156 -20 42 -87 68 -144 56z"/>
<path d="M10051 5102 c-19 -10 -43 -34 -53 -53 -17 -32 -18 -82 -18 -961 l0
-928 -438 0 c-404 0 -440 -1 -471 -18 -36 -19 -71 -72 -71 -107 0 -35 35 -88
71 -107 32 -17 84 -18 1034 -18 950 0 1002 1 1034 18 36 19 71 72 71 107 0 35
-35 88 -71 107 -31 17 -67 18 -471 18 l-438 0 0 928 c0 879 -1 929 -18 961
-19 36 -72 71 -107 71 -11 0 -36 -8 -54 -18z"/>
</g>
</svg>
