<?xml version="1.0" standalone="no"?>
<!DOCTYPE svg PUBLIC "-//W3C//DTD SVG 20010904//EN"
 "http://www.w3.org/TR/2001/REC-SVG-20010904/DTD/svg10.dtd">
<svg version="1.0" xmlns="http://www.w3.org/2000/svg"
 width="1383pt" height="1000pt" viewBox="0 0 1383 1000"
 preserveAspectRatio="xMidYMid meet">
<metadata>
Created by potrace 1.9, written by Peter Selinger 2001-2010
</metadata>
<g transform="translate(0,1000) scale(0.100000,-0.100000)"
fill="#000000" stroke="none">
<path d="M12935 6075 c-30 -31 -35 -42 -35 -83 0 -41 6 -54 43 -99 144 -176
180 -225 220 -302 54 -102 100 -230 124 -343 24 -115 24 -370 -1 -488 -44
-210 -150 -425 -279 -566 -28 -31 -67 -78 -86 -104 -20 -27 -58 -77 -86 -112
-154 -193 -259 -436 -306 -708 -19 -108 -17 -364 4 -477 42 -227 99 -370 229
-580 l20 -33 -1486 0 -1486 0 83 83 c167 166 268 367 312 618 61 347 -93 758
-373 994 -189 159 -473 265 -712 265 -234 0 -519 -104 -701 -256 -290 -242
-446 -650 -384 -1003 50 -285 189 -528 395 -694 100 -79 275 -169 395 -202
209 -57 131 -55 2271 -55 1888 0 1971 1 2003 18 37 20 71 73 71 110 0 41 -26
86 -94 161 -148 164 -245 357 -293 583 -24 115 -24 370 1 488 44 210 150 425
279 566 28 31 67 78 86 104 20 27 59 77 86 112 76 96 169 258 214 371 76 196
105 354 105 567 -1 387 -131 723 -393 1015 -63 70 -88 85 -143 85 -41 0 -52
-5 -83 -35z m-3585 -2220 c176 -56 318 -152 431 -291 68 -83 117 -178 155
-299 26 -80 29 -104 29 -225 0 -121 -3 -145 -29 -225 -93 -295 -290 -493 -586
-591 -77 -25 -98 -28 -230 -28 -132 0 -153 3 -230 28 -179 59 -319 154 -431
292 -68 82 -117 177 -155 299 -26 82 -29 103 -28 230 0 126 3 149 28 225 95
288 291 488 567 579 106 35 147 40 274 37 97 -3 137 -9 205 -31z"/>
<path d="M3191 6083 c-19 -9 -46 -36 -60 -59 -14 -23 -453 -897 -976 -1943
l-950 -1901 -460 0 c-427 0 -463 -1 -494 -18 -36 -19 -71 -72 -71 -107 0 -35
35 -88 71 -107 32 -17 84 -18 1034 -18 950 0 1002 1 1034 18 36 19 71 72 71
107 0 35 -35 88 -71 107 -31 17 -65 18 -431 18 -219 0 -398 2 -398 5 0 3 423
851 940 1885 517 1034 940 1890 940 1903 0 37 -34 89 -71 109 -41 22 -64 22
-108 1z"/>
<path d="M7111 5102 c-19 -10 -43 -34 -53 -53 -17 -32 -18 -77 -18 -789 0
-712 1 -757 18 -789 19 -36 72 -71 107 -71 35 0 88 35 107 71 17 32 18 77 18
789 0 712 -1 757 -18 789 -19 36 -72 71 -107 71 -11 0 -36 -8 -54 -18z"/>
<path d="M4171 4122 c-36 -19 -71 -72 -71 -107 0 -35 35 -88 71 -107 32 -17
84 -18 1034 -18 950 0 1002 1 1034 18 36 19 71 72 71 107 0 35 -35 88 -71 107
-32 17 -84 18 -1034 18 -950 0 -1002 -1 -1034 -18z"/>
<path d="M7123 3173 c-33 -6 -79 -57 -86 -92 -26 -127 122 -210 212 -120 43
42 49 93 18 156 -20 42 -87 68 -144 56z"/>
</g>
</svg>
