<?xml version="1.0" standalone="no"?>
<!DOCTYPE svg PUBLIC "-//W3C//DTD SVG 20010904//EN"
 "http://www.w3.org/TR/2001/REC-SVG-20010904/DTD/svg10.dtd">
<svg version="1.0" xmlns="http://www.w3.org/2000/svg"
 width="648pt" height="1000pt" viewBox="0 0 648 1000"
 preserveAspectRatio="xMidYMid meet">
<metadata>
Created by potrace 1.9, written by Peter Selinger 2001-2010
</metadata>
<g transform="translate(0,1000) scale(0.100000,-0.100000)"
fill="#000000" stroke="none">
<path d="M1160 6584 c-14 -2 -59 -9 -100 -15 -308 -44 -599 -187 -833 -408
-103 -98 -113 -173 -32 -249 26 -24 58 -47 72 -53 14 -5 413 -9 992 -9 863 0
970 -2 981 -16 48 -56 290 -205 424 -260 503 -205 1094 -119 1517 221 34 28
78 60 98 71 80 48 90 136 23 201 l-37 36 -935 -2 -935 -2 -35 37 c-89 93 -280
229 -418 298 -189 94 -397 144 -627 151 -71 2 -141 2 -155 -1z m365 -269 c146
-30 325 -104 436 -178 l54 -37 -735 0 -735 0 45 31 c140 95 350 174 526 198
96 14 313 6 409 -14z m2255 -479 c-51 -28 -217 -85 -295 -102 -99 -21 -377
-24 -475 -5 -79 16 -227 64 -295 96 l-50 23 570 1 c482 0 566 -2 545 -13z"/>
<path d="M5585 6075 c-30 -31 -35 -42 -35 -83 0 -41 6 -54 43 -99 144 -176
180 -225 220 -302 54 -102 100 -230 124 -343 24 -115 24 -370 -1 -488 -44
-210 -150 -425 -279 -566 -28 -31 -67 -78 -86 -104 -20 -27 -58 -77 -86 -112
-115 -144 -226 -365 -270 -538 -114 -441 -41 -868 211 -1246 73 -111 169 -215
217 -237 71 -33 146 -1 168 72 17 56 0 95 -82 186 -152 171 -247 360 -296 587
-24 115 -24 370 1 488 44 210 150 425 279 566 28 31 67 78 86 104 20 27 59 77
86 112 76 96 169 258 214 371 76 196 105 354 105 567 -1 387 -131 723 -393
1015 -63 70 -88 85 -143 85 -41 0 -52 -5 -83 -35z"/>
</g>
</svg>
