<?xml version="1.0" standalone="no"?>
<!DOCTYPE svg PUBLIC "-//W3C//DTD SVG 20010904//EN"
 "http://www.w3.org/TR/2001/REC-SVG-20010904/DTD/svg10.dtd">
<svg version="1.0" xmlns="http://www.w3.org/2000/svg"
 width="648pt" height="1000pt" viewBox="0 0 648 1000"
 preserveAspectRatio="xMidYMid meet">
<metadata>
Created by potrace 1.9, written by Peter Selinger 2001-2010
</metadata>
<g transform="translate(0,1000) scale(0.100000,-0.100000)"
fill="#000000" stroke="none">
<path d="M6125 4121 c-27 -13 -333 -312 -929 -909 l-890 -891 -26 83 c-125
389 -453 666 -876 740 -359 63 -765 -91 -1008 -383 -112 -134 -206 -339 -237
-515 l-11 -66 -932 0 c-883 0 -933 -1 -965 -18 -36 -19 -71 -72 -71 -107 0
-35 35 -88 71 -107 32 -17 115 -18 2012 -18 1673 0 1983 2 2010 14 19 8 446
429 1029 1012 1091 1093 1031 1027 993 1107 -32 67 -102 91 -170 58z m-2655
-1246 c292 -94 493 -294 584 -583 14 -46 26 -90 26 -98 0 -12 -113 -14 -840
-14 -727 0 -840 2 -840 14 0 8 12 52 26 98 89 281 290 486 565 577 106 35 147
40 274 37 97 -3 136 -9 205 -31z"/>
</g>
</svg>
