<?xml version="1.0" standalone="no"?>
<!DOCTYPE svg PUBLIC "-//W3C//DTD SVG 20010904//EN"
 "http://www.w3.org/TR/2001/REC-SVG-20010904/DTD/svg10.dtd">
<svg version="1.0" xmlns="http://www.w3.org/2000/svg"
 width="1138pt" height="1000pt" viewBox="0 0 1138 1000"
 preserveAspectRatio="xMidYMid meet">
<metadata>
Created by potrace 1.9, written by Peter Selinger 2001-2010
</metadata>
<g transform="translate(0,1000) scale(0.100000,-0.100000)"
fill="#000000" stroke="none">
<path d="M1232 8044 c-18 -9 -41 -29 -51 -43 -40 -56 -501 -992 -506 -1028
-11 -74 61 -150 132 -139 68 10 76 22 280 430 l195 391 193 -385 c200 -398
216 -423 282 -436 39 -7 95 18 118 53 41 62 45 53 -233 609 -194 389 -267 525
-287 538 -39 25 -85 29 -123 10z"/>
<path d="M2212 6083 c-18 -9 -41 -28 -51 -42 -41 -58 -1971 -3933 -1976 -3968
-8 -49 19 -100 66 -125 32 -17 84 -18 1034 -18 950 0 1002 1 1034 18 36 19 71
72 71 107 0 35 -35 88 -71 107 -32 17 -81 18 -921 18 -489 0 -888 2 -888 5 0
3 423 851 940 1885 517 1034 940 1890 940 1903 0 37 -34 89 -71 109 -41 22
-64 22 -107 1z"/>
<path d="M3191 6082 c-36 -19 -71 -72 -71 -107 0 -35 35 -88 71 -107 32 -17
112 -18 1901 -18 l1868 0 -427 -855 -428 -855 -460 0 c-515 0 -508 1 -547 -71
-23 -42 -23 -66 0 -108 38 -71 40 -71 484 -71 l398 0 -445 -890 c-246 -492
-447 -906 -450 -927 -8 -49 19 -100 66 -125 32 -17 84 -18 1034 -18 950 0
1002 1 1034 18 36 19 71 72 71 107 0 35 -35 88 -71 107 -32 17 -81 18 -921 18
-489 0 -888 2 -888 5 0 3 191 388 425 855 l425 850 1277 0 1278 0 -387 -387
c-405 -408 -418 -423 -403 -493 8 -39 56 -87 95 -95 16 -4 45 -2 63 4 22 8
186 165 544 523 544 546 538 538 514 611 -8 22 -165 186 -523 544 -445 444
-518 513 -550 518 -64 12 -127 -31 -143 -98 -17 -64 1 -86 403 -489 l387 -388
-1213 0 c-666 0 -1212 2 -1212 5 0 3 203 410 450 905 248 495 450 911 450 923
0 37 -34 89 -71 109 -32 17 -115 18 -2014 18 -1899 0 -1982 -1 -2014 -18z"/>
<path d="M10051 5102 c-19 -10 -43 -34 -53 -53 -17 -32 -18 -77 -18 -789 0
-712 1 -757 18 -789 19 -36 72 -71 107 -71 35 0 88 35 107 71 17 32 18 77 18
789 0 712 -1 757 -18 789 -19 36 -72 71 -107 71 -11 0 -36 -8 -54 -18z"/>
<path d="M10063 3173 c-33 -6 -79 -57 -86 -92 -26 -127 122 -210 212 -120 43
42 49 93 18 156 -20 42 -87 68 -144 56z"/>
</g>
</svg>
