<?xml version="1.0" standalone="no"?>
<!DOCTYPE svg PUBLIC "-//W3C//DTD SVG 20010904//EN"
 "http://www.w3.org/TR/2001/REC-SVG-20010904/DTD/svg10.dtd">
<svg version="1.0" xmlns="http://www.w3.org/2000/svg"
 width="1530pt" height="1000pt" viewBox="0 0 1530 1000"
 preserveAspectRatio="xMidYMid meet">
<metadata>
Created by potrace 1.9, written by Peter Selinger 2001-2010
</metadata>
<g transform="translate(0,1000) scale(0.100000,-0.100000)"
fill="#000000" stroke="none">
<path d="M2090 8044 c-270 -49 -508 -184 -674 -383 -152 -182 -256 -467 -256
-701 0 -291 155 -637 367 -819 l48 -40 -645 -1 c-606 0 -647 -1 -679 -18 -36
-19 -71 -72 -71 -107 0 -35 35 -88 71 -107 32 -17 82 -18 961 -18 l928 0 0
-1835 0 -1835 -438 0 c-404 0 -440 -1 -471 -18 -36 -19 -71 -72 -71 -107 0
-35 35 -88 71 -107 32 -17 84 -18 1034 -18 950 0 1002 1 1034 18 36 19 71 72
71 107 0 35 -35 88 -71 107 -31 17 -67 18 -471 18 l-438 0 0 1835 0 1835 928
0 c879 0 929 1 961 18 36 19 71 72 71 107 0 35 -35 88 -71 107 -32 17 -73 18
-681 18 l-648 0 83 83 c167 166 268 367 312 618 61 347 -93 758 -373 994 -241
203 -592 302 -882 249z m50 -1084 c0 -727 -2 -840 -14 -840 -33 0 -186 54
-257 91 -144 75 -291 222 -362 364 -19 39 -48 111 -63 160 -26 82 -29 103 -28
230 0 126 3 149 28 225 16 47 44 117 63 155 70 140 221 293 358 363 71 36 225
91 258 92 16 0 17 -47 17 -840z m352 814 c173 -54 316 -151 429 -290 68 -83
117 -178 155 -299 26 -80 29 -104 29 -225 0 -121 -3 -145 -29 -225 -93 -295
-295 -498 -584 -589 -46 -14 -87 -26 -93 -26 -5 0 -9 317 -9 840 0 523 4 840
9 840 6 0 47 -12 93 -26z"/>
<path d="M6010 6084 c-122 -22 -238 -62 -349 -121 -308 -161 -509 -452 -568
-819 -16 -100 -16 -107 6 -249 102 -668 339 -1249 727 -1787 213 -295 496
-587 784 -809 106 -82 381 -267 494 -332 62 -36 87 -25 399 182 557 368 1004
871 1327 1494 198 382 327 779 399 1232 20 125 19 131 -5 283 -77 488 -428
840 -920 926 -359 63 -766 -92 -1007 -382 -35 -42 -79 -105 -98 -139 -19 -35
-36 -63 -39 -63 -3 1 -24 33 -47 73 -209 364 -689 586 -1103 511z m400 -269
c353 -114 585 -399 619 -764 5 -54 15 -107 22 -119 43 -69 175 -69 218 0 7 12
17 65 22 119 17 179 89 357 197 484 115 137 243 222 422 281 77 25 98 28 230
28 132 0 153 -3 230 -28 183 -61 317 -152 431 -292 66 -80 115 -175 155 -294
25 -76 28 -100 28 -220 0 -110 -5 -159 -27 -265 -113 -532 -328 -1027 -628
-1446 -257 -359 -581 -679 -944 -931 -139 -96 -215 -139 -236 -133 -27 9 -256
165 -359 244 -403 311 -780 745 -1005 1156 -227 415 -372 837 -440 1280 -20
130 -15 201 22 318 88 280 289 485 564 576 106 35 147 40 274 37 97 -3 136 -9
205 -31z"/>
<path d="M11031 6082 c-19 -10 -43 -34 -53 -53 -17 -32 -18 -110 -18 -1854 l0
-1820 -397 397 c-436 435 -430 430 -506 393 -61 -29 -87 -88 -67 -152 17 -53
973 -1015 1039 -1045 88 -40 61 -62 629 505 358 358 515 522 523 544 6 18 8
47 4 63 -8 39 -56 87 -95 95 -70 15 -85 2 -492 -403 l-388 -387 0 1815 c0
1739 -1 1817 -18 1849 -19 36 -72 71 -107 71 -11 0 -36 -8 -54 -18z"/>
<path d="M13972 6085 c-18 -8 -85 -59 -150 -114 -446 -377 -752 -915 -857
-1501 -159 -897 169 -1816 857 -2401 141 -120 181 -139 242 -119 71 23 103
119 62 182 -10 15 -68 70 -129 122 -349 294 -605 686 -732 1119 -122 419 -122
875 0 1294 127 433 383 825 732 1119 61 52 119 107 129 122 39 59 12 151 -53
178 -40 17 -59 17 -101 -1z"/>
<path d="M14435 5113 c-256 -40 -449 -208 -510 -443 -21 -81 -24 -188 -7 -222
29 -54 115 -75 172 -41 38 22 48 43 64 139 17 99 43 152 107 216 74 74 144
103 249 103 106 0 175 -29 250 -105 76 -75 105 -144 105 -250 0 -105 -29 -175
-103 -249 -64 -64 -117 -90 -216 -107 -96 -17 -117 -26 -140 -65 -15 -26 -17
-61 -16 -306 0 -228 3 -282 16 -309 44 -92 167 -94 216 -3 16 29 18 59 18 240
l0 207 48 12 c134 34 286 156 354 286 51 97 71 181 71 294 0 59 -6 120 -17
160 -55 202 -217 367 -415 422 -68 19 -194 30 -246 21z"/>
<path d="M14473 3173 c-33 -6 -79 -57 -86 -92 -26 -127 122 -210 212 -120 43
42 49 93 18 156 -20 42 -87 68 -144 56z"/>
</g>
</svg>
