<?xml version="1.0" standalone="no"?>
<!DOCTYPE svg PUBLIC "-//W3C//DTD SVG 20010904//EN"
 "http://www.w3.org/TR/2001/REC-SVG-20010904/DTD/svg10.dtd">
<svg version="1.0" xmlns="http://www.w3.org/2000/svg"
 width="1236pt" height="1000pt" viewBox="0 0 1236 1000"
 preserveAspectRatio="xMidYMid meet">
<metadata>
Created by potrace 1.9, written by Peter Selinger 2001-2010
</metadata>
<g transform="translate(0,1000) scale(0.100000,-0.100000)"
fill="#000000" stroke="none">
<path d="M251 6082 c-19 -10 -43 -34 -53 -53 -17 -32 -18 -84 -18 -1034 0
-950 1 -1002 18 -1034 38 -71 40 -71 484 -71 l398 0 -445 -890 c-246 -492
-447 -906 -450 -927 -16 -104 101 -175 190 -117 20 13 134 232 467 898 l440
881 438 -874 c321 -643 445 -881 466 -898 63 -50 148 -33 186 37 17 33 18 111
18 2015 0 1899 -1 1982 -18 2014 -19 36 -72 71 -107 71 -35 0 -88 -35 -107
-71 -17 -32 -18 -82 -18 -961 l0 -928 -855 0 -855 0 0 928 c0 879 -1 929 -18
961 -19 36 -72 71 -107 71 -11 0 -36 -8 -54 -18z m1888 -2844 l0 -653 -324
645 c-178 355 -324 648 -324 653 -1 4 145 7 324 7 l325 0 -1 -652z"/>
<path d="M8957 4619 c-338 -39 -643 -180 -875 -404 -70 -67 -95 -99 -101 -125
-21 -96 61 -174 154 -149 22 6 66 39 118 87 150 142 262 212 438 276 158 57
233 69 424 69 191 0 266 -12 424 -69 120 -44 226 -100 316 -169 91 -69 120
-101 135 -149 29 -90 294 -283 514 -372 461 -188 991 -134 1410 143 100 67
215 165 240 205 9 14 16 47 16 72 0 39 -5 51 -35 81 -30 30 -42 35 -81 35 -48
0 -104 -30 -154 -85 -106 -114 -365 -245 -575 -291 -98 -21 -377 -24 -475 -5
-173 34 -372 120 -505 219 -67 49 -83 66 -93 99 -25 83 -249 269 -457 379
-234 124 -567 185 -838 153z"/>
<path d="M3191 4122 c-36 -19 -71 -72 -71 -107 0 -35 35 -88 71 -107 32 -17
115 -18 2014 -18 1899 0 1982 1 2014 18 36 19 71 72 71 107 0 35 -35 88 -71
107 -32 17 -115 18 -2014 18 -1899 0 -1982 -1 -2014 -18z"/>
<path d="M5163 3163 c-33 -6 -79 -57 -86 -92 -26 -127 122 -210 212 -120 43
42 49 93 18 156 -20 42 -87 68 -144 56z"/>
</g>
</svg>
