<?xml version="1.0" standalone="no"?>
<!DOCTYPE svg PUBLIC "-//W3C//DTD SVG 20010904//EN"
 "http://www.w3.org/TR/2001/REC-SVG-20010904/DTD/svg10.dtd">
<svg version="1.0" xmlns="http://www.w3.org/2000/svg"
 width="1236pt" height="1000pt" viewBox="0 0 1236 1000"
 preserveAspectRatio="xMidYMid meet">
<metadata>
Created by potrace 1.9, written by Peter Selinger 2001-2010
</metadata>
<g transform="translate(0,1000) scale(0.100000,-0.100000)"
fill="#000000" stroke="none">
<path d="M10051 6082 c-19 -10 -43 -34 -53 -53 -17 -32 -18 -79 -18 -851 0
-450 -2 -818 -5 -818 -2 0 -35 20 -72 44 -254 163 -607 248 -910 218 -288 -29
-490 -101 -728 -258 -121 -80 -274 -227 -284 -274 -21 -96 61 -174 154 -149
22 6 66 39 118 87 150 142 262 212 438 276 158 57 233 69 424 69 191 0 266
-12 424 -69 157 -57 286 -133 399 -237 l42 -40 0 -835 0 -836 -152 151 c-125
124 -160 153 -190 158 -64 12 -127 -31 -144 -99 -14 -59 17 -102 226 -311
l200 -200 -204 -205 c-211 -212 -236 -248 -221 -307 16 -67 79 -110 143 -98
30 5 65 34 190 158 l152 151 0 -350 c0 -391 1 -399 71 -436 42 -23 66 -23 108
0 70 37 71 46 71 431 l0 345 143 -141 c147 -145 189 -172 244 -158 67 16 110
79 98 143 -5 31 -41 72 -221 252 l-214 215 210 210 c217 217 238 245 225 305
-8 39 -56 87 -95 95 -60 13 -98 -11 -247 -158 l-143 -141 0 697 0 697 76 -47
c546 -331 1281 -263 1764 162 83 74 100 100 100 159 0 39 -5 51 -35 81 -30 30
-42 35 -81 35 -48 0 -104 -30 -154 -85 -106 -114 -365 -245 -575 -291 -98 -21
-377 -24 -475 -5 -173 34 -372 120 -505 218 -125 93 -115 -5 -115 1084 0 876
-1 926 -18 958 -19 36 -72 71 -107 71 -11 0 -36 -8 -54 -18z"/>
<path d="M251 4122 c-36 -19 -71 -72 -71 -107 0 -35 35 -88 71 -107 28 -15 57
-18 182 -18 l149 0 -39 -32 c-108 -91 -230 -271 -289 -428 -59 -155 -86 -376
-64 -522 77 -505 427 -865 925 -952 290 -51 619 41 870 242 84 68 187 191 238
283 18 32 34 59 37 59 3 0 20 -28 39 -63 145 -263 443 -463 776 -521 291 -51
619 41 870 243 191 154 332 405 380 682 50 281 -41 608 -237 855 -38 48 -88
102 -111 119 l-42 30 165 5 c137 4 170 8 192 23 28 19 58 73 58 104 0 33 -36
86 -71 105 -32 17 -115 18 -2014 18 -1899 0 -1982 -1 -2014 -18z m1259 -267
c83 -27 188 -75 242 -112 l27 -19 -252 -252 -252 -252 -250 250 -250 251 25
19 c39 31 179 96 245 115 149 44 329 43 465 0z m993 3 c-21 -18 -55 -51 -75
-73 -44 -49 -144 -195 -153 -224 -3 -11 -9 -21 -13 -21 -4 0 -21 27 -39 59
-43 78 -156 219 -204 254 -21 16 -39 31 -39 33 0 2 126 4 281 4 l281 0 -39
-32z m967 -3 c83 -27 188 -75 242 -112 l27 -19 -252 -252 -252 -252 -250 250
-250 251 25 19 c39 31 179 96 245 115 149 44 329 43 465 0z m-2624 -1064
c-285 -285 -251 -271 -319 -136 -142 283 -125 588 47 852 l21 33 250 -250 250
-250 -249 -249z m1131 732 c30 -39 93 -173 119 -258 26 -80 29 -104 29 -225 0
-121 -3 -145 -29 -225 -27 -86 -89 -219 -121 -260 -15 -19 -26 -9 -268 233
l-252 252 250 250 c137 137 252 250 254 250 2 0 10 -8 18 -17z m829 -732
c-285 -285 -251 -271 -319 -136 -142 283 -125 588 47 852 l21 33 250 -250 250
-250 -249 -249z m1131 732 c30 -39 93 -173 119 -258 26 -80 29 -104 29 -225 0
-121 -3 -145 -29 -225 -27 -86 -89 -219 -121 -260 -15 -19 -26 -9 -268 233
l-252 252 250 250 c137 137 252 250 254 250 2 0 10 -8 18 -17z m-2185 -1186
c-53 -36 -158 -85 -242 -113 -77 -25 -98 -28 -230 -28 -132 0 -153 3 -230 28
-47 15 -119 46 -160 67 -134 70 -149 34 135 319 l250 250 252 -252 252 -252
-27 -19z m1960 0 c-53 -36 -158 -85 -242 -113 -77 -25 -98 -28 -230 -28 -132
0 -153 3 -230 28 -47 15 -119 46 -160 67 -134 70 -149 34 135 319 l250 250
252 -252 252 -252 -27 -19z"/>
<path d="M5151 4122 c-36 -19 -71 -72 -71 -107 0 -35 35 -88 71 -107 32 -17
84 -18 1034 -18 950 0 1002 1 1034 18 36 19 71 72 71 107 0 35 -35 88 -71 107
-32 17 -84 18 -1034 18 -950 0 -1002 -1 -1034 -18z"/>
</g>
</svg>
