<?xml version="1.0" standalone="no"?>
<!DOCTYPE svg PUBLIC "-//W3C//DTD SVG 20010904//EN"
 "http://www.w3.org/TR/2001/REC-SVG-20010904/DTD/svg10.dtd">
<svg version="1.0" xmlns="http://www.w3.org/2000/svg"
 width="1040pt" height="1000pt" viewBox="0 0 1040 1000"
 preserveAspectRatio="xMidYMid meet">
<metadata>
Created by potrace 1.9, written by Peter Selinger 2001-2010
</metadata>
<g transform="translate(0,1000) scale(0.100000,-0.100000)"
fill="#000000" stroke="none">
<path d="M8091 6082 c-19 -10 -43 -34 -53 -53 -17 -32 -18 -79 -18 -851 0
-450 -2 -818 -5 -818 -2 0 -35 20 -72 44 -254 163 -607 248 -910 218 -288 -29
-490 -101 -728 -258 -121 -80 -274 -227 -284 -274 -21 -96 61 -174 154 -149
22 6 66 39 118 87 150 142 262 212 438 276 158 57 233 69 424 69 191 0 266
-12 424 -69 157 -57 286 -133 399 -237 l42 -40 0 -835 0 -836 -152 151 c-125
124 -160 153 -190 158 -64 12 -127 -31 -144 -99 -14 -59 17 -102 226 -311
l200 -200 -204 -205 c-211 -212 -236 -248 -221 -307 16 -67 79 -110 143 -98
30 5 65 34 190 158 l152 151 0 -350 c0 -391 1 -399 71 -436 42 -23 66 -23 108
0 70 37 71 46 71 431 l0 345 143 -141 c147 -145 189 -172 244 -158 67 16 110
79 98 143 -5 31 -41 72 -221 252 l-214 215 210 210 c217 217 238 245 225 305
-8 39 -56 87 -95 95 -60 13 -98 -11 -247 -158 l-143 -141 0 697 0 697 76 -47
c546 -331 1281 -263 1764 162 83 74 100 100 100 159 0 39 -5 51 -35 81 -30 30
-42 35 -81 35 -48 0 -104 -30 -154 -85 -106 -114 -365 -245 -575 -291 -98 -21
-377 -24 -475 -5 -173 34 -372 120 -505 218 -125 93 -115 -5 -115 1084 0 876
-1 926 -18 958 -19 36 -72 71 -107 71 -11 0 -36 -8 -54 -18z"/>
<path d="M695 3149 c-242 -41 -429 -208 -491 -439 -23 -86 -23 -234 0 -320 42
-155 149 -292 287 -368 67 -38 107 -50 259 -82 40 -8 580 -10 2030 -8 2218 4
2040 -2 2208 79 148 72 263 214 308 379 23 86 23 234 0 320 -55 204 -213 363
-421 426 -57 18 -161 19 -2095 20 -1119 1 -2057 -2 -2085 -7z m4157 -271 c74
-34 152 -112 186 -186 22 -48 27 -71 27 -142 0 -105 -29 -175 -103 -249 -63
-63 -117 -90 -211 -107 -112 -20 -3890 -20 -4002 0 -94 17 -148 44 -211 107
-74 74 -103 144 -103 249 0 71 5 94 27 142 46 98 147 184 245 207 22 5 903 8
2063 8 l2025 -2 57 -27z"/>
</g>
</svg>
