<?xml version="1.0" standalone="no"?>
<!DOCTYPE svg PUBLIC "-//W3C//DTD SVG 20010904//EN"
 "http://www.w3.org/TR/2001/REC-SVG-20010904/DTD/svg10.dtd">
<svg version="1.0" xmlns="http://www.w3.org/2000/svg"
 width="1138pt" height="1000pt" viewBox="0 0 1138 1000"
 preserveAspectRatio="xMidYMid meet">
<metadata>
Created by potrace 1.9, written by Peter Selinger 2001-2010
</metadata>
<g transform="translate(0,1000) scale(0.100000,-0.100000)"
fill="#000000" stroke="none">
<path d="M2090 8044 c-270 -49 -508 -184 -674 -383 -152 -182 -256 -467 -256
-701 0 -291 155 -637 367 -819 l48 -40 -645 -1 c-606 0 -647 -1 -679 -18 -36
-19 -71 -72 -71 -107 0 -35 35 -88 71 -107 32 -17 82 -18 961 -18 l928 0 0
-1835 0 -1835 -438 0 c-404 0 -440 -1 -471 -18 -36 -19 -71 -72 -71 -107 0
-35 35 -88 71 -107 32 -17 84 -18 1034 -18 950 0 1002 1 1034 18 36 19 71 72
71 107 0 35 -35 88 -71 107 -31 17 -67 18 -471 18 l-438 0 0 1835 0 1835 928
0 c879 0 929 1 961 18 36 19 71 72 71 107 0 35 -35 88 -71 107 -32 17 -73 18
-681 18 l-648 0 83 83 c167 166 268 367 312 618 61 347 -93 758 -373 994 -241
203 -592 302 -882 249z m50 -1084 c0 -727 -2 -840 -14 -840 -33 0 -186 54
-257 91 -144 75 -291 222 -362 364 -19 39 -48 111 -63 160 -26 82 -29 103 -28
230 0 126 3 149 28 225 16 47 44 117 63 155 70 140 221 293 358 363 71 36 225
91 258 92 16 0 17 -47 17 -840z m352 814 c173 -54 316 -151 429 -290 68 -83
117 -178 155 -299 26 -80 29 -104 29 -225 0 -121 -3 -145 -29 -225 -93 -295
-295 -498 -584 -589 -46 -14 -87 -26 -93 -26 -5 0 -9 317 -9 840 0 523 4 840
9 840 6 0 47 -12 93 -26z"/>
<path d="M6010 6084 c-194 -35 -394 -125 -531 -240 -290 -242 -446 -650 -384
-1003 50 -285 189 -528 395 -694 101 -80 275 -169 400 -203 52 -15 96 -28 98
-29 2 -2 -200 -408 -447 -904 -250 -498 -453 -917 -456 -938 -16 -104 101
-175 190 -117 20 13 134 232 467 898 l440 881 438 -874 c321 -643 445 -881
466 -898 78 -62 184 -20 201 81 4 27 -63 167 -455 953 l-461 921 64 16 c103
26 187 59 287 115 289 160 481 440 543 792 61 347 -93 758 -373 994 -241 203
-592 302 -882 249z m400 -269 c176 -56 318 -152 431 -291 68 -83 117 -178 155
-299 26 -80 29 -104 29 -225 0 -121 -3 -145 -29 -225 -93 -295 -290 -493 -586
-591 -77 -25 -98 -28 -230 -28 -132 0 -153 3 -230 28 -179 59 -319 154 -431
292 -68 82 -117 177 -155 299 -26 82 -29 103 -28 230 0 126 3 149 28 225 95
288 291 488 567 579 106 35 147 40 274 37 97 -3 137 -9 205 -31z"/>
<path d="M11031 6082 c-19 -10 -43 -34 -53 -53 -17 -32 -18 -88 -18 -1167 l0
-1133 -72 74 c-40 41 -101 94 -134 119 -125 91 -333 178 -486 203 l-38 6 0
442 c0 494 1 491 -71 529 -32 17 -84 18 -1034 18 -950 0 -1002 -1 -1034 -18
-19 -10 -43 -34 -53 -53 -17 -32 -18 -84 -18 -1034 0 -950 1 -1002 18 -1034
38 -72 35 -71 529 -71 l442 0 6 -37 c17 -99 70 -256 122 -353 158 -300 445
-502 798 -564 364 -64 780 97 1017 394 125 155 201 338 239 569 18 110 19 192
19 1596 0 1415 -1 1482 -18 1514 -19 36 -72 71 -107 71 -11 0 -36 -8 -54 -18z
m-1051 -1581 l0 -369 -66 -11 c-176 -31 -381 -125 -515 -237 -195 -162 -336
-407 -380 -658 l-11 -66 -369 0 -369 0 0 855 0 855 855 0 855 0 0 -369z m0
-981 l0 -360 -360 0 c-308 0 -360 2 -360 14 0 30 53 183 87 251 70 140 221
293 358 363 71 36 225 91 258 92 16 0 17 -24 17 -360z m352 334 c173 -54 316
-151 429 -290 68 -83 117 -178 155 -299 26 -80 29 -104 29 -225 0 -121 -3
-145 -29 -225 -93 -295 -290 -493 -586 -591 -77 -25 -98 -28 -230 -28 -132 0
-153 3 -230 28 -295 97 -497 300 -584 587 -14 47 -26 88 -26 92 0 4 195 7 433
7 483 0 481 0 519 71 17 31 18 66 18 466 0 266 4 433 9 433 6 0 47 -12 93 -26z"/>
</g>
</svg>
