<?xml version="1.0" standalone="no"?>
<!DOCTYPE svg PUBLIC "-//W3C//DTD SVG 20010904//EN"
 "http://www.w3.org/TR/2001/REC-SVG-20010904/DTD/svg10.dtd">
<svg version="1.0" xmlns="http://www.w3.org/2000/svg"
 width="1040pt" height="1000pt" viewBox="0 0 1040 1000"
 preserveAspectRatio="xMidYMid meet">
<metadata>
Created by potrace 1.9, written by Peter Selinger 2001-2010
</metadata>
<g transform="translate(0,1000) scale(0.100000,-0.100000)"
fill="#000000" stroke="none">
<path d="M1232 6090 c-39 -16 -274 -224 -368 -326 -258 -282 -467 -650 -572
-1009 -142 -486 -142 -984 0 -1470 105 -358 313 -726 572 -1009 98 -106 344
-322 385 -338 41 -15 88 0 129 41 20 20 78 72 128 114 260 220 516 573 662
915 154 358 228 787 203 1165 -48 709 -364 1345 -893 1798 -152 130 -181 144
-246 119z m-72 -2072 l-1 -1683 -90 95 c-187 197 -342 433 -448 679 -107 251
-163 484 -182 759 -43 638 175 1250 614 1725 55 59 101 107 103 107 2 0 4
-757 4 -1682z m507 1382 c165 -219 292 -472 368 -733 122 -419 122 -875 0
-1294 -101 -344 -292 -677 -539 -938 l-85 -90 0 1675 0 1675 85 -90 c47 -49
124 -142 171 -205z"/>
<path d="M6125 6081 c-28 -13 -634 -614 -2001 -1982 -2065 -2067 -1997 -1996
-1979 -2066 16 -67 79 -110 143 -98 33 5 255 224 1905 1873 l1867 1867 0 -768
0 -767 -438 0 c-489 0 -486 0 -524 -71 -17 -32 -18 -84 -18 -1034 0 -950 1
-1002 18 -1034 10 -19 34 -43 53 -53 32 -17 84 -18 1034 -18 950 0 1002 1
1034 18 19 10 43 34 53 53 17 32 18 84 18 1034 0 950 -1 1002 -18 1034 -38 71
-35 71 -524 71 l-438 0 0 928 c0 879 -1 929 -18 961 -19 36 -73 71 -107 71
-11 0 -38 -9 -60 -19z m915 -3046 l0 -855 -855 0 -855 0 0 855 0 855 855 0
855 0 0 -855z"/>
<path d="M10052 6083 c-18 -9 -41 -28 -51 -42 -41 -58 -1971 -3933 -1976
-3968 -8 -49 19 -100 66 -125 32 -17 84 -18 1034 -18 950 0 1002 1 1034 18 36
19 71 72 71 107 0 35 -35 88 -71 107 -32 17 -81 18 -921 18 -489 0 -888 2
-888 5 0 3 423 851 940 1885 517 1034 940 1890 940 1903 0 37 -34 89 -71 109
-41 22 -64 22 -107 1z"/>
</g>
</svg>
