<?xml version="1.0" standalone="no"?>
<!DOCTYPE svg PUBLIC "-//W3C//DTD SVG 20010904//EN"
 "http://www.w3.org/TR/2001/REC-SVG-20010904/DTD/svg10.dtd">
<svg version="1.0" xmlns="http://www.w3.org/2000/svg"
 width="1040pt" height="1000pt" viewBox="0 0 1040 1000"
 preserveAspectRatio="xMidYMid meet">
<metadata>
Created by potrace 1.9, written by Peter Selinger 2001-2010
</metadata>
<g transform="translate(0,1000) scale(0.100000,-0.100000)"
fill="#000000" stroke="none">
<path d="M5151 6082 c-19 -10 -43 -34 -53 -53 -17 -32 -18 -110 -18 -1854 l0
-1820 -887 887 c-972 970 -916 921 -996 883 -61 -29 -87 -88 -67 -152 10 -31
202 -228 994 -1022 967 -969 1021 -1020 1081 -1021 34 0 88 35 107 71 17 32
18 115 18 2014 0 1899 -1 1982 -18 2014 -19 36 -72 71 -107 71 -11 0 -36 -8
-54 -18z"/>
<path d="M238 4123 c-46 -29 -53 -56 -51 -182 2 -136 23 -282 63 -441 204
-811 885 -1420 1715 -1534 254 -35 315 -38 353 -18 19 10 43 33 54 52 17 33
18 82 18 1035 0 950 -1 1002 -18 1034 -10 19 -34 43 -53 53 -32 17 -84 18
-1044 18 -924 -1 -1012 -2 -1037 -17z m1902 -1078 l0 -845 -41 0 c-148 0 -422
74 -627 170 -358 168 -694 504 -862 862 -94 202 -170 479 -170 622 l0 36 850
0 850 0 0 -845z"/>
<path d="M6119 4123 c-57 -35 -54 25 -57 -1058 -2 -550 0 -1014 3 -1032 7 -42
57 -91 99 -99 42 -7 98 17 123 54 17 25 18 66 23 532 l5 505 44 -75 c120 -204
334 -445 516 -580 385 -286 797 -424 1265 -424 204 0 323 15 520 64 528 133
988 477 1266 948 l49 82 5 -512 c5 -474 6 -515 23 -540 19 -28 73 -58 104 -58
33 0 86 36 105 71 17 32 18 84 18 1032 0 1107 4 1045 -65 1087 -58 36 -142 20
-175 -33 -7 -12 -18 -90 -26 -178 -15 -182 -18 -201 -50 -329 -41 -166 -119
-358 -201 -493 -145 -241 -400 -496 -640 -641 -184 -110 -440 -201 -668 -237
-103 -16 -427 -16 -530 0 -228 36 -484 127 -668 237 -240 145 -495 400 -640
641 -82 135 -160 327 -201 493 -32 128 -35 147 -50 329 -8 88 -19 166 -26 178
-32 50 -119 69 -171 36z"/>
</g>
</svg>
