<?xml version="1.0" standalone="no"?>
<!DOCTYPE svg PUBLIC "-//W3C//DTD SVG 20010904//EN"
 "http://www.w3.org/TR/2001/REC-SVG-20010904/DTD/svg10.dtd">
<svg version="1.0" xmlns="http://www.w3.org/2000/svg"
 width="1138pt" height="1000pt" viewBox="0 0 1138 1000"
 preserveAspectRatio="xMidYMid meet">
<metadata>
Created by potrace 1.9, written by Peter Selinger 2001-2010
</metadata>
<g transform="translate(0,1000) scale(0.100000,-0.100000)"
fill="#000000" stroke="none">
<path d="M251 6082 c-19 -10 -43 -34 -53 -53 -17 -32 -18 -115 -18 -2014 0
-1899 1 -1982 18 -2014 10 -19 34 -43 53 -53 32 -17 115 -18 2014 -18 1899 0
1982 1 2014 18 19 10 43 34 53 53 17 32 18 115 18 2014 0 1899 -1 1982 -18
2014 -10 19 -34 43 -53 53 -32 17 -115 18 -2014 18 -1899 0 -1982 -1 -2014
-18z m2836 -1059 l-827 -828 -827 828 -828 827 1655 0 1655 0 -828 -827z
m1013 -1010 l0 -1658 -830 830 -830 830 827 827 c456 456 829 828 830 828 2 0
3 -746 3 -1657z m-2842 824 l822 -822 -825 -825 -825 -825 0 1648 c0 906 1
1647 3 1647 1 0 372 -370 825 -823z m1832 -1832 l825 -825 -1655 0 -1655 0
825 825 c454 454 827 825 830 825 3 0 376 -371 830 -825z"/>
<path d="M7995 6094 c-172 -14 -419 -67 -575 -124 -565 -207 -1023 -665 -1230
-1230 -57 -158 -120 -449 -120 -559 l0 -41 -443 0 c-494 0 -491 1 -529 -71
-23 -42 -23 -66 0 -108 38 -72 35 -71 529 -71 l443 0 0 -36 c0 -59 29 -230 60
-354 184 -730 759 -1306 1490 -1490 197 -49 316 -64 520 -64 204 0 323 15 520
64 656 165 1197 654 1430 1290 56 155 120 448 120 554 l0 36 448 0 c500 0 496
-1 534 71 23 42 23 66 0 108 -38 72 -34 71 -534 71 l-448 0 0 41 c0 110 -63
401 -120 559 -101 276 -275 546 -489 759 -372 369 -872 581 -1407 595 -82 2
-171 2 -199 0z m418 -265 c215 -32 478 -126 660 -235 297 -179 575 -484 717
-786 96 -205 170 -479 170 -627 l0 -41 -1820 0 -1820 0 0 41 c0 148 74 422
170 627 168 359 503 694 862 862 210 98 418 154 648 174 73 6 334 -3 413 -15z
m1547 -1975 c0 -143 -76 -420 -170 -622 -142 -302 -420 -607 -717 -786 -184
-110 -440 -201 -668 -237 -103 -16 -427 -16 -530 0 -228 36 -484 127 -668 237
-297 179 -575 484 -717 786 -94 202 -170 479 -170 622 l0 36 1820 0 1820 0 0
-36z"/>
</g>
</svg>
