<?xml version="1.0" standalone="no"?>
<!DOCTYPE svg PUBLIC "-//W3C//DTD SVG 20010904//EN"
 "http://www.w3.org/TR/2001/REC-SVG-20010904/DTD/svg10.dtd">
<svg version="1.0" xmlns="http://www.w3.org/2000/svg"
 width="550pt" height="1000pt" viewBox="0 0 550 1000"
 preserveAspectRatio="xMidYMid meet">
<metadata>
Created by potrace 1.9, written by Peter Selinger 2001-2010
</metadata>
<g transform="translate(0,1000) scale(0.100000,-0.100000)"
fill="#000000" stroke="none">
<path d="M3205 6092 c-99 -35 -118 -168 -32 -222 12 -7 90 -18 178 -26 182
-15 201 -18 329 -50 329 -82 604 -238 850 -484 246 -246 401 -519 485 -850 39
-155 49 -245 49 -440 0 -102 -6 -221 -13 -265 -36 -228 -127 -484 -237 -668
-146 -242 -399 -495 -641 -641 -184 -110 -440 -201 -668 -237 -103 -16 -427
-16 -530 0 -228 36 -484 127 -668 237 -240 145 -495 400 -640 641 -81 133
-159 325 -202 492 l-24 94 372 -370 c391 -389 408 -403 477 -388 40 9 88 58
95 99 4 18 1 46 -7 64 -11 28 -978 1008 -1033 1048 -34 24 -97 18 -141 -15
-21 -16 -256 -246 -520 -512 -503 -505 -516 -520 -499 -586 16 -67 79 -110
143 -98 32 5 93 62 443 412 224 223 409 401 411 397 3 -5 9 -31 12 -59 11 -78
62 -272 96 -365 161 -441 481 -825 888 -1066 l82 -49 -507 -5 c-469 -5 -510
-6 -535 -23 -28 -19 -58 -73 -58 -104 0 -33 36 -86 71 -105 32 -17 115 -18
2014 -18 1899 0 1982 1 2014 18 35 19 71 72 71 105 0 31 -30 85 -58 104 -25
17 -66 18 -540 23 l-512 5 82 49 c474 281 814 736 948 1266 49 197 64 316 64
520 0 562 -212 1078 -604 1470 -316 315 -715 515 -1165 584 -118 18 -312 28
-340 18z"/>
</g>
</svg>
