<?xml version="1.0" standalone="no"?>
<!DOCTYPE svg PUBLIC "-//W3C//DTD SVG 20010904//EN"
 "http://www.w3.org/TR/2001/REC-SVG-20010904/DTD/svg10.dtd">
<svg version="1.0" xmlns="http://www.w3.org/2000/svg"
 width="452pt" height="1000pt" viewBox="0 0 452 1000"
 preserveAspectRatio="xMidYMid meet">
<metadata>
Created by potrace 1.9, written by Peter Selinger 2001-2010
</metadata>
<g transform="translate(0,1000) scale(0.100000,-0.100000)"
fill="#000000" stroke="none">
<path d="M251 6082 c-19 -10 -43 -34 -53 -53 -17 -32 -18 -115 -18 -2014 0
-1899 1 -1982 18 -2014 10 -19 34 -43 53 -53 32 -17 115 -18 2014 -18 1899 0
1982 1 2014 18 36 19 71 72 71 107 0 35 -35 88 -71 107 -32 17 -110 18 -1854
18 l-1820 0 887 888 c778 778 888 891 893 924 12 64 -31 127 -98 143 -68 17
-59 26 -979 -893 l-878 -877 0 1815 c0 1739 -1 1817 -18 1849 -19 36 -72 71
-107 71 -11 0 -36 -8 -54 -18z"/>
</g>
</svg>
