<?xml version="1.0" standalone="no"?>
<!DOCTYPE svg PUBLIC "-//W3C//DTD SVG 20010904//EN"
 "http://www.w3.org/TR/2001/REC-SVG-20010904/DTD/svg10.dtd">
<svg version="1.0" xmlns="http://www.w3.org/2000/svg"
 width="1530pt" height="1000pt" viewBox="0 0 1530 1000"
 preserveAspectRatio="xMidYMid meet">
<metadata>
Created by potrace 1.9, written by Peter Selinger 2001-2010
</metadata>
<g transform="translate(0,1000) scale(0.100000,-0.100000)"
fill="#000000" stroke="none">
<path d="M3191 6082 c-19 -10 -43 -34 -53 -53 -17 -32 -18 -84 -18 -1034 0
-950 1 -1002 18 -1034 10 -19 34 -43 53 -53 32 -17 84 -18 1034 -18 953 0
1002 1 1035 18 19 11 42 35 53 55 18 35 18 40 2 154 -10 65 -28 156 -42 203
-117 414 -450 708 -889 784 -160 28 -319 15 -498 -40 -169 -53 -381 -189 -480
-307 l-36 -42 0 640 c0 601 -1 642 -18 674 -19 36 -72 71 -107 71 -11 0 -36
-8 -54 -18z m1259 -1247 c292 -94 493 -294 584 -583 14 -46 26 -90 26 -98 0
-12 -113 -14 -840 -14 -727 0 -840 2 -840 14 0 8 12 52 26 98 89 281 290 486
565 577 106 35 147 40 274 37 97 -3 136 -9 205 -31z"/>
<path d="M7995 6094 c-684 -55 -1279 -418 -1631 -994 -199 -327 -298 -686
-298 -1080 0 -204 15 -323 64 -520 184 -731 759 -1306 1490 -1490 197 -49 316
-64 520 -64 557 0 1074 211 1461 595 324 322 531 737 593 1184 38 278 38 313
0 590 -114 830 -724 1511 -1534 1715 -63 15 -161 36 -216 44 -102 16 -357 27
-449 20z m25 -1177 c0 -874 1 -924 18 -956 10 -19 34 -43 53 -53 32 -17 82
-18 951 -18 l918 0 0 -36 c0 -143 -76 -420 -170 -622 -142 -302 -420 -607
-717 -786 -184 -110 -440 -201 -668 -237 -103 -16 -427 -16 -530 0 -228 36
-484 127 -668 237 -240 145 -495 400 -640 641 -111 184 -202 440 -238 668 -7
44 -13 163 -13 265 0 102 6 221 13 265 36 228 127 484 237 668 146 242 399
495 641 641 218 130 561 241 761 245 l52 1 0 -923z m393 912 c215 -32 478
-126 660 -235 297 -179 575 -484 717 -786 96 -205 170 -479 170 -627 l0 -41
-845 0 -845 0 0 850 0 850 36 0 c19 0 68 -5 107 -11z"/>
<path d="M11031 6082 c-36 -19 -71 -72 -71 -107 0 -35 35 -88 71 -107 32 -17
110 -18 1849 -18 l1815 0 -872 -872 c-859 -859 -903 -907 -903 -965 0 -33 36
-86 71 -105 32 -17 79 -18 869 -18 l835 0 -877 -877 c-924 -926 -909 -910
-893 -983 8 -39 56 -87 95 -95 16 -4 45 -2 62 4 24 8 324 302 1035 1013 889
890 1002 1007 1008 1040 9 49 -19 105 -65 130 -33 17 -78 18 -875 18 l-840 0
887 888 c786 786 887 891 893 924 9 49 -19 105 -65 130 -33 17 -111 18 -2015
18 -1899 0 -1982 -1 -2014 -18z"/>
<path d="M1232 4124 c-18 -9 -41 -29 -51 -43 -41 -57 -991 -1973 -996 -2008
-16 -104 101 -175 190 -117 20 13 134 232 467 898 l440 881 438 -874 c321
-643 445 -881 466 -898 78 -62 184 -20 201 81 4 27 -69 179 -500 1042 -384
769 -512 1015 -532 1028 -39 25 -85 29 -123 10z"/>
</g>
</svg>
