<?xml version="1.0" standalone="no"?>
<!DOCTYPE svg PUBLIC "-//W3C//DTD SVG 20010904//EN"
 "http://www.w3.org/TR/2001/REC-SVG-20010904/DTD/svg10.dtd">
<svg version="1.0" xmlns="http://www.w3.org/2000/svg"
 width="1138pt" height="1000pt" viewBox="0 0 1138 1000"
 preserveAspectRatio="xMidYMid meet">
<metadata>
Created by potrace 1.9, written by Peter Selinger 2001-2010
</metadata>
<g transform="translate(0,1000) scale(0.100000,-0.100000)"
fill="#000000" stroke="none">
<path d="M10051 6082 c-19 -10 -43 -34 -53 -53 -17 -32 -18 -113 -18 -1941 l0
-1908 -438 0 c-404 0 -440 -1 -471 -18 -36 -19 -71 -72 -71 -107 0 -35 35 -88
71 -107 32 -17 84 -18 1034 -18 950 0 1002 1 1034 18 36 19 71 72 71 107 0 35
-35 88 -71 107 -31 17 -67 18 -471 18 l-438 0 0 1908 c0 1828 -1 1909 -18
1941 -19 36 -72 71 -107 71 -11 0 -36 -8 -54 -18z"/>
<path d="M1110 5104 c-194 -35 -394 -125 -531 -240 -290 -242 -446 -650 -384
-1003 49 -279 185 -523 384 -685 145 -119 339 -206 536 -240 114 -20 216 -20
330 0 489 85 833 432 920 925 61 347 -93 758 -373 994 -241 203 -592 302 -882
249z m400 -269 c176 -56 318 -152 431 -291 68 -83 117 -178 155 -299 26 -80
29 -104 29 -225 0 -121 -3 -145 -29 -225 -93 -295 -290 -493 -586 -591 -77
-25 -98 -28 -230 -28 -132 0 -153 3 -230 28 -179 59 -319 154 -431 292 -68 82
-117 177 -155 299 -26 82 -29 103 -28 230 0 126 3 149 28 225 95 288 291 488
567 579 106 35 147 40 274 37 97 -3 137 -9 205 -31z"/>
<path d="M4050 5104 c-194 -35 -394 -125 -531 -240 -290 -242 -446 -650 -384
-1003 50 -285 189 -528 395 -694 100 -79 275 -169 395 -202 50 -13 138 -31
196 -40 99 -14 112 -14 227 5 160 26 285 68 407 135 296 164 488 441 550 796
61 347 -93 758 -373 994 -241 203 -592 302 -882 249z m50 -1084 c0 -727 -2
-840 -14 -840 -33 0 -186 54 -257 91 -144 75 -291 222 -362 364 -19 39 -48
111 -63 160 -26 82 -29 103 -28 230 0 126 3 149 28 225 16 47 44 117 63 155
70 140 221 293 358 363 71 36 225 91 258 92 16 0 17 -47 17 -840z m352 814
c173 -54 316 -151 429 -290 68 -83 117 -178 155 -299 26 -80 29 -104 29 -225
0 -121 -3 -145 -29 -225 -93 -295 -295 -498 -584 -589 -46 -14 -87 -26 -93
-26 -5 0 -9 317 -9 840 0 523 4 840 9 840 6 0 47 -12 93 -26z"/>
<path d="M6131 4122 c-36 -19 -71 -73 -71 -107 1 -57 49 -111 479 -540 l441
-440 -449 -450 c-468 -470 -483 -487 -466 -552 16 -67 79 -110 143 -98 32 5
98 68 494 463 l458 457 452 -452 c473 -470 490 -485 555 -468 67 16 110 79 98
143 -5 32 -68 99 -466 497 l-459 460 455 455 c315 315 458 465 466 488 6 17 8
46 4 62 -8 39 -56 87 -95 95 -70 15 -82 6 -558 -469 l-452 -451 -453 452
c-248 249 -465 457 -480 463 -39 14 -57 13 -96 -8z"/>
<path d="M3191 2162 c-36 -19 -71 -72 -71 -107 0 -35 35 -88 71 -107 32 -17
84 -18 1034 -18 950 0 1002 1 1034 18 36 19 71 72 71 107 0 35 -35 88 -71 107
-32 17 -84 18 -1034 18 -950 0 -1002 -1 -1034 -18z"/>
</g>
</svg>
