<?xml version="1.0" standalone="no"?>
<!DOCTYPE svg PUBLIC "-//W3C//DTD SVG 20010904//EN"
 "http://www.w3.org/TR/2001/REC-SVG-20010904/DTD/svg10.dtd">
<svg version="1.0" xmlns="http://www.w3.org/2000/svg"
 width="1334pt" height="1000pt" viewBox="0 0 1334 1000"
 preserveAspectRatio="xMidYMid meet">
<metadata>
Created by potrace 1.9, written by Peter Selinger 2001-2010
</metadata>
<g transform="translate(0,1000) scale(0.100000,-0.100000)"
fill="#000000" stroke="none">
<path d="M4165 6081 c-28 -13 -634 -614 -2001 -1982 -2065 -2067 -1997 -1996
-1979 -2066 16 -67 79 -110 143 -98 33 5 255 224 1905 1873 l1867 1867 0 -768
0 -767 -438 0 c-489 0 -486 0 -524 -71 -17 -32 -18 -84 -18 -1034 0 -950 1
-1002 18 -1034 10 -19 34 -43 53 -53 32 -17 84 -18 1034 -18 950 0 1002 1
1034 18 19 10 43 34 53 53 17 32 18 84 18 1034 0 950 -1 1002 -18 1034 -38 71
-35 71 -524 71 l-438 0 0 928 c0 879 -1 929 -18 961 -19 36 -73 71 -107 71
-11 0 -38 -9 -60 -19z m915 -3046 l0 -855 -855 0 -855 0 0 855 0 855 855 0
855 0 0 -855z"/>
<path d="M12990 6085 c-22 -10 -313 -293 -781 -761 l-746 -746 -74 16 c-269
57 -541 40 -809 -51 -153 -52 -303 -133 -434 -235 -26 -21 -53 -35 -60 -31 -6
4 -29 21 -51 38 -119 94 -276 178 -425 228 -331 112 -656 112 -990 1 -196 -66
-391 -186 -543 -334 -76 -74 -97 -101 -97 -122 0 -22 -13 -38 -57 -73 -179
-142 -413 -235 -649 -257 -347 -33 -685 77 -942 305 -37 33 -82 66 -101 74
-97 41 -194 -51 -161 -152 30 -90 296 -282 514 -371 461 -188 991 -134 1410
143 100 67 215 165 240 205 9 14 16 35 16 46 0 35 143 152 270 221 92 49 240
104 346 127 110 24 388 24 498 0 106 -23 252 -77 347 -128 77 -41 230 -152
228 -166 -6 -40 7 -62 79 -130 125 -119 349 -270 450 -303 l34 -11 -740 -742
c-775 -776 -774 -775 -757 -843 16 -67 79 -110 143 -98 32 5 136 105 833 801
l795 795 65 -10 c431 -70 904 67 1231 356 37 32 78 66 93 76 39 27 59 77 51
123 -14 75 -224 258 -430 375 l-58 32 715 716 c783 784 750 745 712 824 -30
64 -100 90 -165 62z m-1787 -1713 l47 -7 -278 -278 -279 -279 -79 32 c-43 17
-108 47 -143 66 -85 47 -211 141 -211 158 0 19 130 116 220 165 82 44 206 92
300 116 114 30 312 42 423 27z m458 -139 c48 -25 121 -72 163 -105 88 -68 89
-62 -13 -137 -129 -96 -323 -182 -484 -215 -43 -9 -136 -19 -205 -22 l-127 -6
270 271 c219 220 274 270 290 265 11 -3 59 -26 106 -51z"/>
</g>
</svg>
