<?xml version="1.0" standalone="no"?>
<!DOCTYPE svg PUBLIC "-//W3C//DTD SVG 20010904//EN"
 "http://www.w3.org/TR/2001/REC-SVG-20010904/DTD/svg10.dtd">
<svg version="1.0" xmlns="http://www.w3.org/2000/svg"
 width="648pt" height="1000pt" viewBox="0 0 648 1000"
 preserveAspectRatio="xMidYMid meet">
<metadata>
Created by potrace 1.9, written by Peter Selinger 2001-2010
</metadata>
<g transform="translate(0,1000) scale(0.100000,-0.100000)"
fill="#000000" stroke="none">
<path d="M3077 4619 c-338 -39 -642 -180 -875 -404 -71 -69 -95 -98 -101 -125
-14 -70 -246 -216 -441 -278 -145 -46 -211 -56 -380 -56 -169 0 -235 10 -380
56 -161 52 -302 131 -430 243 -85 75 -118 95 -158 95 -95 0 -154 -99 -110
-184 32 -61 230 -211 399 -301 153 -81 349 -136 556 -157 258 -25 574 37 802
157 181 97 379 249 401 309 24 65 38 83 117 146 134 108 322 195 509 236 110
24 388 24 498 0 106 -23 252 -77 347 -128 77 -41 230 -152 228 -166 -6 -40 7
-62 79 -130 261 -248 574 -390 931 -423 261 -25 543 28 786 146 113 54 251
146 337 222 37 32 78 66 93 76 39 27 59 77 51 123 -6 32 -25 56 -104 134 -150
147 -346 268 -542 334 -334 111 -659 111 -990 -1 -153 -52 -303 -133 -434
-235 -26 -21 -53 -35 -60 -31 -6 4 -29 21 -51 38 -119 94 -276 178 -425 228
-219 74 -444 101 -653 76z m2367 -264 c176 -36 368 -123 501 -228 87 -67 88
-61 -14 -136 -129 -95 -319 -180 -486 -217 -98 -21 -377 -24 -475 -5 -104 20
-218 59 -325 111 -108 52 -265 161 -265 184 0 19 129 116 220 165 131 70 295
123 432 141 100 12 317 4 412 -15z"/>
</g>
</svg>
