<?xml version="1.0" standalone="no"?>
<!DOCTYPE svg PUBLIC "-//W3C//DTD SVG 20010904//EN"
 "http://www.w3.org/TR/2001/REC-SVG-20010904/DTD/svg10.dtd">
<svg version="1.0" xmlns="http://www.w3.org/2000/svg"
 width="942pt" height="1000pt" viewBox="0 0 942 1000"
 preserveAspectRatio="xMidYMid meet">
<metadata>
Created by potrace 1.9, written by Peter Selinger 2001-2010
</metadata>
<g transform="translate(0,1000) scale(0.100000,-0.100000)"
fill="#000000" stroke="none">
<path d="M2090 8044 c-270 -49 -508 -184 -674 -383 -152 -182 -256 -467 -256
-701 0 -291 155 -637 367 -819 l48 -40 -645 -1 c-606 0 -647 -1 -679 -18 -36
-19 -71 -72 -71 -107 0 -35 35 -88 71 -107 32 -17 82 -18 961 -18 l928 0 0
-900 0 -900 -485 -970 c-269 -538 -487 -986 -490 -1007 -16 -104 101 -175 190
-117 20 13 134 232 467 898 l440 881 438 -874 c321 -643 445 -881 466 -898 78
-62 184 -20 201 81 4 27 -67 175 -486 1014 l-491 982 0 905 0 905 928 0 c879
0 929 1 961 18 36 19 71 72 71 107 0 35 -35 88 -71 107 -32 17 -73 18 -681 18
l-648 0 83 83 c167 166 268 367 312 618 61 347 -93 758 -373 994 -241 203
-592 302 -882 249z m50 -1084 c0 -727 -2 -840 -14 -840 -33 0 -186 54 -257 91
-144 75 -291 222 -362 364 -19 39 -48 111 -63 160 -26 82 -29 103 -28 230 0
126 3 149 28 225 16 47 44 117 63 155 70 140 221 293 358 363 71 36 225 91
258 92 16 0 17 -47 17 -840z m352 814 c173 -54 316 -151 429 -290 68 -83 117
-178 155 -299 26 -80 29 -104 29 -225 0 -121 -3 -145 -29 -225 -93 -295 -295
-498 -584 -589 -46 -14 -87 -26 -93 -26 -5 0 -9 317 -9 840 0 523 4 840 9 840
6 0 47 -12 93 -26z"/>
<path d="M6990 5104 c-270 -49 -508 -184 -674 -383 -165 -198 -267 -499 -253
-746 3 -55 9 -109 12 -120 5 -15 -2 -25 -27 -39 -91 -53 -251 -180 -353 -282
-320 -318 -519 -714 -590 -1174 -21 -137 -25 -328 -7 -362 40 -74 167 -77 212
-5 7 12 18 90 26 178 15 182 18 201 50 329 82 329 238 604 484 850 97 97 259
230 278 230 4 0 27 -39 52 -87 55 -107 162 -238 258 -317 252 -205 613 -298
907 -234 l61 14 -8 -75 c-20 -187 -110 -411 -228 -571 -27 -36 -60 -76 -75
-90 -55 -50 -85 -106 -85 -154 0 -39 5 -51 35 -81 30 -30 42 -35 81 -35 59 0
85 17 159 100 122 139 235 337 294 515 40 122 59 216 73 366 l12 127 60 35
c145 84 294 243 377 402 24 47 47 85 51 85 19 0 181 -133 278 -230 246 -246
402 -521 484 -850 32 -128 35 -147 50 -329 8 -88 19 -166 26 -178 45 -72 172
-69 212 5 18 34 14 225 -7 362 -71 460 -270 856 -590 1174 -102 102 -262 229
-353 282 -25 14 -32 24 -27 39 3 11 9 63 12 116 15 243 -82 536 -245 739 -237
297 -660 460 -1022 394z m400 -269 c357 -114 597 -415 617 -774 6 -100 5 -104
-13 -96 -232 97 -424 141 -765 176 -88 9 -124 9 -149 0 -18 -6 -53 -11 -78
-11 -150 0 -465 -77 -676 -165 -18 -8 -19 -4 -13 96 18 349 257 656 598 768
106 35 147 40 274 37 97 -3 137 -9 205 -31z m-232 -1015 c123 -150 227 -381
256 -566 l6 -41 -63 -19 c-48 -15 -93 -19 -202 -18 -125 0 -149 3 -225 28
-234 77 -424 234 -524 434 l-37 72 48 21 c198 85 404 137 603 152 78 6 82 4
138 -63z m442 14 c93 -23 208 -62 303 -103 l48 -21 -37 -72 c-43 -87 -124
-189 -204 -258 l-58 -50 -17 72 c-37 154 -98 301 -172 416 l-33 53 37 -7 c21
-3 81 -17 133 -30z"/>
</g>
</svg>
