<?xml version="1.0" standalone="no"?>
<!DOCTYPE svg PUBLIC "-//W3C//DTD SVG 20010904//EN"
 "http://www.w3.org/TR/2001/REC-SVG-20010904/DTD/svg10.dtd">
<svg version="1.0" xmlns="http://www.w3.org/2000/svg"
 width="1040pt" height="1000pt" viewBox="0 0 1040 1000"
 preserveAspectRatio="xMidYMid meet">
<metadata>
Created by potrace 1.9, written by Peter Selinger 2001-2010
</metadata>
<g transform="translate(0,1000) scale(0.100000,-0.100000)"
fill="#000000" stroke="none">
<path d="M6987 6084 c-487 -92 -826 -436 -912 -925 -62 -352 98 -769 384
-1003 140 -115 345 -208 520 -237 l69 -12 7 -51 c24 -171 128 -403 245 -541
162 -194 411 -335 659 -376 l69 -12 7 -51 c14 -96 66 -251 122 -356 158 -300
445 -502 798 -564 114 -20 216 -20 330 0 356 62 644 267 803 572 106 203 164
512 109 582 -52 67 -164 65 -206 -2 -7 -11 -17 -63 -22 -116 -34 -367 -263
-651 -619 -768 -77 -25 -98 -28 -230 -28 -132 0 -153 3 -230 28 -295 97 -497
300 -584 587 -33 107 -33 117 2 124 167 35 249 65 374 134 289 160 481 440
543 792 45 256 -9 309 -270 263 -197 -34 -391 -121 -536 -240 -195 -159 -326
-391 -384 -676 -7 -35 -21 -35 -127 -2 -287 90 -495 298 -582 585 -33 107 -33
117 2 124 167 35 249 65 374 134 289 160 481 440 543 792 45 256 -9 309 -270
263 -197 -34 -391 -121 -536 -240 -195 -159 -326 -391 -384 -676 -7 -35 -21
-35 -127 -2 -173 54 -316 151 -429 290 -68 83 -117 178 -155 299 -26 80 -29
104 -29 225 0 121 3 145 29 225 38 121 87 216 155 299 152 188 367 302 610
325 54 5 107 15 119 22 69 43 68 165 -2 209 -30 19 -149 21 -239 4z m1009
-1241 c-3 -10 -15 -49 -27 -88 -83 -271 -296 -481 -578 -569 -46 -15 -85 -25
-87 -23 -2 2 8 41 22 88 87 283 289 487 574 580 102 34 103 34 96 12z m980
-980 c-3 -10 -15 -49 -27 -88 -83 -271 -296 -481 -578 -569 -46 -15 -85 -25
-87 -23 -2 2 8 41 22 88 87 283 289 487 574 580 102 34 103 34 96 12z"/>
<path d="M1110 5104 c-194 -35 -394 -125 -531 -240 -290 -242 -446 -650 -384
-1003 49 -279 185 -523 384 -685 145 -119 339 -206 536 -240 114 -20 216 -20
330 0 489 85 833 432 920 925 61 347 -93 758 -373 994 -241 203 -592 302 -882
249z m400 -269 c176 -56 318 -152 431 -291 68 -83 117 -178 155 -299 26 -80
29 -104 29 -225 0 -121 -3 -145 -29 -225 -93 -295 -290 -493 -586 -591 -77
-25 -98 -28 -230 -28 -132 0 -153 3 -230 28 -179 59 -319 154 -431 292 -68 82
-117 177 -155 299 -26 82 -29 103 -28 230 0 126 3 149 28 225 95 288 291 488
567 579 106 35 147 40 274 37 97 -3 137 -9 205 -31z"/>
<path d="M1243 4143 c-33 -6 -79 -57 -86 -92 -26 -127 122 -210 212 -120 43
42 49 93 18 156 -20 42 -87 68 -144 56z"/>
<path d="M3191 5102 c-19 -10 -43 -34 -53 -53 -17 -32 -18 -84 -18 -1034 0
-950 1 -1002 18 -1034 10 -19 34 -43 53 -53 32 -17 84 -18 1034 -18 950 0
1002 1 1034 18 19 10 43 34 53 53 17 32 18 84 18 1034 0 950 -1 1002 -18 1034
-10 19 -34 43 -53 53 -32 17 -84 18 -1034 18 -950 0 -1002 -1 -1034 -18z
m1889 -1087 l0 -855 -855 0 -855 0 0 855 0 855 855 0 855 0 0 -855z"/>
</g>
</svg>
