<?xml version="1.0" standalone="no"?>
<!DOCTYPE svg PUBLIC "-//W3C//DTD SVG 20010904//EN"
 "http://www.w3.org/TR/2001/REC-SVG-20010904/DTD/svg10.dtd">
<svg version="1.0" xmlns="http://www.w3.org/2000/svg"
 width="1922pt" height="1000pt" viewBox="0 0 1922 1000"
 preserveAspectRatio="xMidYMid meet">
<metadata>
Created by potrace 1.9, written by Peter Selinger 2001-2010
</metadata>
<g transform="translate(0,1000) scale(0.100000,-0.100000)"
fill="#000000" stroke="none">
<path d="M1232 6085 c-51 -22 -257 -202 -363 -316 -546 -592 -784 -1407 -644
-2199 105 -588 405 -1114 858 -1502 71 -61 141 -116 155 -124 23 -12 190 -14
1025 -14 910 0 1002 1 1034 17 19 9 37 22 40 29 2 6 51 51 108 99 354 296 650
753 783 1210 142 486 142 984 0 1470 -106 362 -315 729 -577 1014 -96 103
-306 289 -358 316 -42 22 -2011 21 -2061 0z m2055 -319 c331 -283 584 -677
708 -1099 122 -419 122 -875 0 -1294 -124 -425 -378 -818 -714 -1104 l-104
-89 -917 0 -917 0 -104 89 c-336 286 -590 679 -714 1104 -122 419 -122 875 0
1294 124 422 377 816 708 1099 l98 84 929 0 929 0 98 -84z"/>
<path d="M2223 4143 c-33 -6 -79 -57 -86 -92 -26 -127 122 -210 212 -120 43
42 49 93 18 156 -20 42 -87 68 -144 56z"/>
<path d="M8085 6081 c-28 -13 -634 -614 -2001 -1982 -2065 -2067 -1997 -1996
-1979 -2066 16 -67 79 -110 143 -98 33 5 255 224 1905 1873 l1867 1867 0 -768
0 -767 -438 0 c-489 0 -486 0 -524 -71 -17 -32 -18 -84 -18 -1034 0 -950 1
-1002 18 -1034 10 -19 34 -43 53 -53 32 -17 84 -18 1034 -18 950 0 1002 1
1034 18 19 10 43 34 53 53 17 32 18 84 18 1034 0 950 -1 1002 -18 1034 -38 71
-35 71 -524 71 l-438 0 0 928 c0 879 -1 929 -18 961 -19 36 -73 71 -107 71
-11 0 -38 -9 -60 -19z m915 -3046 l0 -855 -855 0 -855 0 0 855 0 855 855 0
855 0 0 -855z"/>
<path d="M16815 6094 c-684 -55 -1279 -418 -1631 -994 -199 -327 -298 -686
-298 -1080 0 -204 15 -323 64 -520 204 -811 885 -1420 1715 -1534 277 -38 312
-38 590 0 615 85 1155 440 1481 975 199 326 298 686 298 1079 0 204 -15 323
-64 520 -165 656 -654 1197 -1290 1430 -108 39 -286 84 -416 104 -102 16 -357
27 -449 20z m25 -2074 l0 -1820 -41 0 c-193 0 -553 115 -772 246 -240 145
-495 400 -640 641 -111 184 -202 440 -238 668 -16 103 -16 427 0 530 36 228
127 484 237 668 146 242 399 495 641 641 218 130 561 241 761 245 l52 1 0
-1820z m393 1809 c215 -32 478 -126 660 -235 240 -145 495 -400 640 -641 111
-184 202 -440 238 -668 7 -44 13 -163 13 -265 0 -195 -10 -285 -49 -440 -84
-332 -244 -610 -494 -859 -197 -196 -401 -325 -661 -421 -145 -53 -359 -100
-454 -100 l-36 0 0 1820 0 1820 36 0 c19 0 68 -5 107 -11z"/>
<path d="M10917 4619 c-338 -39 -643 -180 -875 -404 -70 -67 -95 -99 -101
-125 -21 -96 61 -174 154 -149 22 6 66 39 118 87 150 142 262 212 438 276 158
57 233 69 424 69 191 0 266 -12 424 -69 120 -44 226 -100 316 -169 91 -69 120
-101 135 -149 29 -90 294 -283 514 -372 461 -188 991 -134 1410 143 100 67
215 165 240 205 9 14 16 47 16 72 0 39 -5 51 -35 81 -30 30 -42 35 -81 35 -48
0 -104 -30 -154 -85 -106 -114 -365 -245 -575 -291 -98 -21 -377 -24 -475 -5
-173 34 -372 120 -505 219 -67 49 -83 66 -93 99 -25 83 -249 269 -457 379
-234 124 -567 185 -838 153z"/>
</g>
</svg>
