<?xml version="1.0" standalone="no"?>
<!DOCTYPE svg PUBLIC "-//W3C//DTD SVG 20010904//EN"
 "http://www.w3.org/TR/2001/REC-SVG-20010904/DTD/svg10.dtd">
<svg version="1.0" xmlns="http://www.w3.org/2000/svg"
 width="452pt" height="1000pt" viewBox="0 0 452 1000"
 preserveAspectRatio="xMidYMid meet">
<metadata>
Created by potrace 1.9, written by Peter Selinger 2001-2010
</metadata>
<g transform="translate(0,1000) scale(0.100000,-0.100000)"
fill="#000000" stroke="none">
<path d="M251 6082 c-47 -25 -74 -76 -66 -125 3 -21 431 -889 990 -2006 839
-1679 989 -1972 1017 -1993 l33 -23 995 -3 c547 -1 1009 0 1027 3 42 8 91 57
99 100 8 46 -21 102 -66 127 -33 17 -81 18 -987 18 l-953 0 -969 1938 c-743
1487 -976 1943 -996 1956 -41 27 -85 30 -124 8z"/>
</g>
</svg>
