<?xml version="1.0" standalone="no"?>
<!DOCTYPE svg PUBLIC "-//W3C//DTD SVG 20010904//EN"
 "http://www.w3.org/TR/2001/REC-SVG-20010904/DTD/svg10.dtd">
<svg version="1.0" xmlns="http://www.w3.org/2000/svg"
 width="1236pt" height="1000pt" viewBox="0 0 1236 1000"
 preserveAspectRatio="xMidYMid meet">
<metadata>
Created by potrace 1.9, written by Peter Selinger 2001-2010
</metadata>
<g transform="translate(0,1000) scale(0.100000,-0.100000)"
fill="#000000" stroke="none">
<path d="M2205 6081 c-57 -27 -1988 -1962 -2010 -2013 -13 -33 -15 -161 -15
-1035 0 -948 1 -1000 18 -1032 10 -19 34 -43 53 -53 33 -17 239 -18 5934 -18
5695 0 5901 1 5934 18 19 10 43 34 53 53 17 32 18 84 18 1032 0 833 -2 1003
-14 1030 -8 19 -428 446 -1012 1029 -804 802 -1005 997 -1031 1003 -77 16 -49
41 -1092 -999 -677 -676 -989 -993 -1002 -1021 -18 -38 -19 -82 -19 -967 l0
-928 -767 0 -768 0 397 398 c342 342 398 402 403 434 12 64 -31 127 -98 143
-65 17 -82 2 -555 -468 l-452 -452 -458 457 c-396 395 -462 458 -494 463 -64
12 -127 -31 -143 -98 -17 -64 1 -86 403 -489 l387 -388 -763 0 -762 0 0 925
c0 772 -2 931 -14 958 -18 42 -1991 2013 -2029 2027 -39 14 -56 13 -102 -9z
m977 -1208 l918 -918 0 -887 0 -888 -1835 0 -1835 0 0 892 0 893 912 912 c502
502 915 913 918 913 3 0 418 -413 922 -917z m7840 0 l918 -918 0 -887 0 -888
-1835 0 -1835 0 0 892 0 893 912 912 c502 502 915 913 918 913 3 0 418 -413
922 -917z"/>
</g>
</svg>
