<?xml version="1.0" standalone="no"?>
<!DOCTYPE svg PUBLIC "-//W3C//DTD SVG 20010904//EN"
 "http://www.w3.org/TR/2001/REC-SVG-20010904/DTD/svg10.dtd">
<svg version="1.0" xmlns="http://www.w3.org/2000/svg"
 width="991pt" height="1000pt" viewBox="0 0 991 1000"
 preserveAspectRatio="xMidYMid meet">
<metadata>
Created by potrace 1.9, written by Peter Selinger 2001-2010
</metadata>
<g transform="translate(0,1000) scale(0.100000,-0.100000)"
fill="#000000" stroke="none">
<path d="M751 8072 c-84 -13 -128 -114 -82 -187 10 -16 46 -61 81 -100 110
-124 182 -247 239 -407 52 -149 66 -235 65 -413 -1 -225 -30 -354 -124 -550
-55 -115 -118 -203 -304 -423 -117 -139 -229 -337 -285 -507 -150 -454 -84
-927 184 -1330 66 -100 176 -224 218 -247 29 -16 69 -18 429 -18 l398 0 -445
-890 c-246 -492 -447 -906 -450 -927 -16 -104 101 -175 190 -117 20 13 134
232 467 898 l440 881 439 -877 c478 -955 459 -923 544 -923 22 0 53 9 68 19
23 15 124 209 469 900 l440 881 438 -874 c321 -643 445 -881 466 -898 78 -62
184 -20 201 81 4 27 -61 164 -446 934 -248 496 -451 904 -451 907 0 3 179 5
398 5 366 0 400 1 431 18 36 19 71 72 71 107 0 35 -35 88 -71 107 -32 17 -114
18 -1970 18 l-1937 0 -50 55 c-131 143 -233 351 -279 567 -24 115 -24 370 1
488 44 210 150 425 279 566 28 31 67 77 86 104 20 27 63 84 96 127 441 575
412 1377 -69 1922 -36 41 -73 79 -81 84 -27 15 -68 23 -94 19z m2393 -4954
c-212 -425 -388 -775 -390 -777 -3 -3 -774 1534 -774 1544 0 3 349 5 775 5
l775 0 -386 -772z"/>
<path d="M5641 4122 c-47 -25 -74 -76 -66 -125 3 -21 224 -474 500 -1027 538
-1076 515 -1035 600 -1035 22 0 53 9 68 19 23 15 124 209 469 900 l440 881
439 -877 c478 -955 459 -923 544 -923 22 0 53 9 68 20 23 14 136 232 533 1027
277 555 504 1018 504 1031 0 37 -34 89 -71 109 -32 17 -115 18 -2014 18 -1899
0 -1982 -1 -2014 -18z m1423 -1004 c-212 -425 -388 -775 -390 -777 -3 -3 -774
1534 -774 1544 0 3 349 5 775 5 l775 0 -386 -772z m1960 0 c-212 -425 -388
-775 -390 -777 -3 -3 -774 1534 -774 1544 0 3 349 5 775 5 l775 0 -386 -772z"/>
</g>
</svg>
