<?xml version="1.0" standalone="no"?>
<!DOCTYPE svg PUBLIC "-//W3C//DTD SVG 20010904//EN"
 "http://www.w3.org/TR/2001/REC-SVG-20010904/DTD/svg10.dtd">
<svg version="1.0" xmlns="http://www.w3.org/2000/svg"
 width="354pt" height="1000pt" viewBox="0 0 354 1000"
 preserveAspectRatio="xMidYMid meet">
<metadata>
Created by potrace 1.9, written by Peter Selinger 2001-2010
</metadata>
<g transform="translate(0,1000) scale(0.100000,-0.100000)"
fill="#000000" stroke="none">
<path d="M1231 6082 c-19 -10 -43 -34 -53 -53 -17 -32 -18 -82 -18 -965 l0
-932 -67 -12 c-282 -48 -536 -204 -697 -427 -127 -177 -196 -373 -212 -602
-22 -324 145 -697 403 -902 105 -82 277 -171 398 -204 198 -54 221 -55 1291
-55 939 0 991 1 1023 18 35 19 71 72 71 105 0 31 -30 85 -58 104 -25 17 -72
18 -687 23 l-660 5 47 36 c26 20 79 76 117 124 121 153 200 333 236 536 63
355 -102 780 -391 1009 -142 112 -353 206 -526 235 l-38 6 0 932 c0 884 -1
934 -18 966 -19 36 -72 71 -107 71 -11 0 -36 -8 -54 -18z m-71 -2474 l0 -273
-192 193 -193 193 25 19 c43 33 171 93 250 117 122 36 110 63 110 -249z m352
246 c81 -26 185 -74 240 -111 l27 -19 -184 -184 -185 -185 0 263 c0 158 4 262
9 262 6 0 47 -12 93 -26z m-666 -1063 c-285 -285 -251 -271 -319 -136 -142
283 -125 588 47 852 l21 33 250 -250 250 -250 -249 -249z m1131 732 c30 -39
93 -173 119 -258 26 -80 29 -104 29 -225 0 -121 -3 -145 -29 -225 -27 -86 -89
-219 -121 -260 -15 -19 -26 -9 -268 233 l-252 252 250 250 c137 137 252 250
254 250 2 0 10 -8 18 -17z m-822 -1321 c-11 -11 -162 39 -250 83 -151 75 -158
47 60 265 l190 190 3 -266 c1 -147 0 -269 -3 -272z m597 135 c-73 -49 -285
-137 -333 -137 -5 0 -9 104 -9 262 l0 263 185 -185 184 -184 -27 -19z"/>
</g>
</svg>
