<?xml version="1.0" standalone="no"?>
<!DOCTYPE svg PUBLIC "-//W3C//DTD SVG 20010904//EN"
 "http://www.w3.org/TR/2001/REC-SVG-20010904/DTD/svg10.dtd">
<svg version="1.0" xmlns="http://www.w3.org/2000/svg"
 width="648pt" height="1000pt" viewBox="0 0 648 1000"
 preserveAspectRatio="xMidYMid meet">
<metadata>
Created by potrace 1.9, written by Peter Selinger 2001-2010
</metadata>
<g transform="translate(0,1000) scale(0.100000,-0.100000)"
fill="#000000" stroke="none">
<path d="M5641 5102 c-70 -37 -71 -45 -71 -436 l0 -350 -152 151 c-125 124
-160 153 -190 158 -64 12 -127 -31 -143 -98 -15 -59 10 -95 221 -307 l204
-205 -200 -200 c-209 -209 -240 -252 -226 -311 17 -68 80 -111 144 -99 30 5
65 34 190 158 l152 151 0 -350 c0 -391 1 -399 71 -436 42 -23 66 -23 108 0 70
37 71 46 71 431 l0 345 143 -141 c149 -147 187 -171 247 -158 39 8 87 56 95
95 13 60 -8 88 -225 305 l-210 210 214 215 c180 180 216 221 221 252 12 64
-31 127 -98 143 -55 14 -97 -13 -244 -158 l-143 -141 0 345 c0 314 -2 347 -18
378 -19 36 -72 71 -107 71 -11 0 -36 -8 -54 -18z"/>
<path d="M2115 4134 c-684 -55 -1279 -418 -1631 -994 -148 -244 -240 -508
-280 -800 -12 -88 -24 -139 -42 -174 -42 -83 -21 -141 78 -209 31 -22 99 -22
130 0 37 25 48 44 56 89 5 36 15 49 67 91 169 134 340 216 547 260 117 24 363
24 480 0 209 -45 380 -127 550 -263 55 -44 67 -60 78 -99 14 -53 63 -104 187
-194 173 -126 333 -202 531 -252 415 -104 849 -29 1209 209 78 52 150 109 232
183 28 26 36 79 28 187 -39 539 -244 1000 -605 1362 -378 377 -876 590 -1416
604 -82 2 -171 2 -199 0z m418 -265 c215 -32 478 -126 660 -235 242 -146 495
-399 641 -641 112 -188 208 -460 235 -668 24 -186 24 -189 -17 -227 -132 -125
-357 -238 -567 -284 -98 -21 -377 -24 -475 -5 -104 20 -218 59 -325 111 -111
54 -265 161 -265 185 0 108 -339 365 -615 468 -165 62 -338 92 -525 92 -187 0
-360 -31 -525 -92 -75 -28 -200 -89 -252 -124 -18 -11 -33 -18 -33 -14 0 20
43 171 70 245 97 264 227 466 430 670 318 317 699 495 1150 534 73 6 334 -3
413 -15z"/>
</g>
</svg>
