<?xml version="1.0" standalone="no"?>
<!DOCTYPE svg PUBLIC "-//W3C//DTD SVG 20010904//EN"
 "http://www.w3.org/TR/2001/REC-SVG-20010904/DTD/svg10.dtd">
<svg version="1.0" xmlns="http://www.w3.org/2000/svg"
 width="452pt" height="1000pt" viewBox="0 0 452 1000"
 preserveAspectRatio="xMidYMid meet">
<metadata>
Created by potrace 1.9, written by Peter Selinger 2001-2010
</metadata>
<g transform="translate(0,1000) scale(0.100000,-0.100000)"
fill="#000000" stroke="none">
<path d="M251 6082 c-36 -19 -71 -72 -71 -107 0 -35 35 -88 71 -107 32 -17 79
-18 869 -18 l835 0 -387 -387 c-402 -404 -420 -426 -403 -490 16 -67 79 -110
143 -98 32 5 92 61 434 403 l398 397 0 -658 0 -658 -22 12 c-13 7 -41 24 -63
39 -95 65 -261 134 -400 169 -146 35 -229 46 -375 46 -239 0 -460 -51 -662
-151 -190 -95 -414 -269 -460 -358 -49 -95 25 -201 128 -182 26 5 58 28 113
79 118 111 206 173 326 232 208 101 330 129 555 129 217 0 340 -27 537 -119
100 -47 153 -81 256 -163 l67 -54 0 -929 0 -929 -928 0 c-879 0 -929 -1 -961
-18 -36 -19 -71 -72 -71 -107 0 -35 35 -88 71 -107 32 -17 115 -18 2014 -18
1899 0 1982 1 2014 18 19 10 43 34 53 53 17 32 18 115 18 2014 0 1899 -1 1982
-18 2014 -10 19 -34 43 -53 53 -32 17 -115 18 -2014 18 -1899 0 -1982 -1
-2014 -18z m3849 -1106 l0 -874 -55 -50 c-138 -126 -352 -232 -560 -278 -98
-21 -377 -24 -475 -5 -246 48 -562 215 -600 317 -12 33 -15 163 -17 809 l-3
770 387 -386 c404 -403 426 -421 490 -404 67 16 110 79 98 143 -5 32 -61 92
-403 435 l-397 397 768 0 767 0 0 -874z m0 -2001 l0 -795 -855 0 -855 0 0 790
0 790 76 -47 c227 -137 481 -206 764 -207 284 -1 536 66 766 204 54 32 100 59
102 60 1 0 2 -358 2 -795z"/>
</g>
</svg>
