<?xml version="1.0" standalone="no"?>
<!DOCTYPE svg PUBLIC "-//W3C//DTD SVG 20010904//EN"
 "http://www.w3.org/TR/2001/REC-SVG-20010904/DTD/svg10.dtd">
<svg version="1.0" xmlns="http://www.w3.org/2000/svg"
 width="452pt" height="1000pt" viewBox="0 0 452 1000"
 preserveAspectRatio="xMidYMid meet">
<metadata>
Created by potrace 1.9, written by Peter Selinger 2001-2010
</metadata>
<g transform="translate(0,1000) scale(0.100000,-0.100000)"
fill="#000000" stroke="none">
<path d="M2212 8044 c-18 -9 -41 -29 -51 -43 -40 -56 -501 -992 -506 -1028
-11 -74 61 -150 132 -139 68 10 76 22 280 430 l195 391 193 -385 c200 -398
216 -423 282 -436 39 -7 95 18 118 53 41 62 45 53 -233 609 -194 389 -267 525
-287 538 -39 25 -85 29 -123 10z"/>
<path d="M2205 6081 c-27 -13 -201 -180 -531 -512 -513 -516 -526 -530 -509
-596 16 -67 79 -110 143 -98 32 5 92 61 435 403 l397 397 0 -658 0 -658 -22
12 c-13 7 -41 24 -63 39 -95 65 -261 134 -400 169 -146 35 -229 46 -375 46
-239 0 -460 -51 -662 -151 -190 -95 -414 -269 -460 -358 -49 -95 25 -201 128
-182 26 5 58 28 113 79 118 111 206 173 326 232 208 101 330 129 555 129 217
0 340 -27 537 -119 100 -47 153 -81 256 -163 l67 -54 0 -1002 c0 -951 1 -1003
18 -1035 19 -36 72 -71 107 -71 35 0 88 35 107 71 17 32 18 80 18 896 l0 863
76 -47 c546 -331 1281 -263 1764 162 83 74 100 100 100 159 0 39 -5 51 -35 81
-30 30 -42 35 -81 35 -48 0 -104 -30 -154 -85 -106 -114 -365 -245 -575 -291
-98 -21 -377 -24 -475 -5 -246 48 -562 215 -600 317 -12 33 -15 163 -17 809
l-3 770 387 -386 c404 -403 426 -421 490 -404 67 16 110 79 98 143 -5 32 -74
104 -513 546 -290 290 -521 514 -539 522 -42 18 -60 17 -108 -5z"/>
</g>
</svg>
