<?xml version="1.0" standalone="no"?>
<!DOCTYPE svg PUBLIC "-//W3C//DTD SVG 20010904//EN"
 "http://www.w3.org/TR/2001/REC-SVG-20010904/DTD/svg10.dtd">
<svg version="1.0" xmlns="http://www.w3.org/2000/svg"
 width="942pt" height="1000pt" viewBox="0 0 942 1000"
 preserveAspectRatio="xMidYMid meet">
<metadata>
Created by potrace 1.9, written by Peter Selinger 2001-2010
</metadata>
<g transform="translate(0,1000) scale(0.100000,-0.100000)"
fill="#000000" stroke="none">
<path d="M2211 6082 c-19 -10 -43 -34 -53 -53 -17 -32 -18 -82 -18 -961 l0
-928 -936 0 c-856 0 -938 -1 -964 -17 -47 -28 -55 -55 -53 -182 9 -506 237
-1027 612 -1400 387 -384 904 -595 1461 -595 204 0 323 15 520 64 592 149
1093 561 1356 1115 112 236 163 438 203 808 13 115 2 152 -54 187 -32 20 -47
20 -964 20 l-931 0 0 928 c0 879 -1 929 -18 961 -19 36 -72 71 -107 71 -11 0
-36 -8 -54 -18z m1869 -2228 c0 -143 -76 -420 -170 -622 -142 -302 -420 -607
-717 -786 -184 -110 -440 -201 -668 -237 -103 -16 -427 -16 -530 0 -228 36
-484 127 -668 237 -297 179 -575 484 -717 786 -94 202 -170 479 -170 622 l0
36 1820 0 1820 0 0 -36z"/>
<path d="M7105 6081 c-27 -13 -201 -180 -531 -512 -513 -516 -526 -530 -509
-596 16 -67 79 -110 143 -98 32 5 92 61 435 403 l397 397 0 -658 c0 -361 -2
-657 -5 -657 -2 0 -35 20 -72 44 -254 163 -607 248 -910 218 -288 -29 -490
-101 -728 -258 -121 -80 -274 -227 -284 -274 -21 -96 61 -174 154 -149 22 6
66 39 118 87 150 142 262 212 438 276 158 57 233 69 424 69 191 0 266 -12 424
-69 157 -57 286 -133 399 -237 l42 -40 0 -996 c0 -946 1 -998 18 -1030 19 -36
72 -71 107 -71 35 0 88 35 107 71 17 32 18 80 18 896 l0 863 76 -47 c546 -331
1281 -263 1764 162 83 74 100 100 100 159 0 39 -5 51 -35 81 -30 30 -42 35
-81 35 -48 0 -104 -30 -154 -85 -106 -114 -365 -245 -575 -291 -98 -21 -377
-24 -475 -5 -173 34 -372 120 -505 218 -124 92 -115 19 -115 919 l0 759 388
-387 c403 -402 425 -420 489 -403 67 16 110 79 98 143 -5 32 -74 104 -513 546
-290 290 -521 514 -539 522 -42 18 -60 17 -108 -5z"/>
</g>
</svg>
