<?xml version="1.0" standalone="no"?>
<!DOCTYPE svg PUBLIC "-//W3C//DTD SVG 20010904//EN"
 "http://www.w3.org/TR/2001/REC-SVG-20010904/DTD/svg10.dtd">
<svg version="1.0" xmlns="http://www.w3.org/2000/svg"
 width="942pt" height="1000pt" viewBox="0 0 942 1000"
 preserveAspectRatio="xMidYMid meet">
<metadata>
Created by potrace 1.9, written by Peter Selinger 2001-2010
</metadata>
<g transform="translate(0,1000) scale(0.100000,-0.100000)"
fill="#000000" stroke="none">
<path d="M1231 6082 c-19 -10 -43 -34 -53 -53 -17 -32 -18 -83 -18 -1006 l0
-973 -485 -970 c-269 -538 -487 -986 -490 -1007 -16 -104 101 -175 190 -117
20 13 134 232 467 898 l440 881 437 -871 c240 -480 442 -879 449 -887 24 -28
82 -49 118 -43 44 9 91 58 100 103 6 34 -29 108 -472 995 l-479 958 903 903
902 902 942 -941 c999 -998 974 -975 1051 -959 26 6 206 181 920 893 l887 887
0 -813 0 -812 -485 -970 c-269 -538 -487 -986 -490 -1007 -8 -49 19 -100 66
-125 32 -17 84 -18 1034 -18 950 0 1002 1 1034 18 37 20 71 72 71 109 0 13
-221 464 -490 1003 l-490 980 0 813 0 812 878 -877 c925 -924 909 -909 982
-893 39 8 87 56 95 95 4 16 2 45 -4 62 -8 24 -302 324 -1013 1035 -808 806
-1009 1002 -1035 1008 -77 16 -52 39 -1051 -959 l-942 -941 -948 947 c-762
761 -953 947 -979 953 -77 16 -56 35 -985 -893 l-878 -877 0 835 c0 790 -1
837 -18 869 -19 36 -72 71 -107 71 -11 0 -36 -8 -54 -18z m5936 -3900 c-424
-1 -772 0 -774 2 -2 2 170 352 383 777 l387 774 387 -775 388 -775 -771 -3z"/>
</g>
</svg>
