<?xml version="1.0" standalone="no"?>
<!DOCTYPE svg PUBLIC "-//W3C//DTD SVG 20010904//EN"
 "http://www.w3.org/TR/2001/REC-SVG-20010904/DTD/svg10.dtd">
<svg version="1.0" xmlns="http://www.w3.org/2000/svg"
 width="1040pt" height="1000pt" viewBox="0 0 1040 1000"
 preserveAspectRatio="xMidYMid meet">
<metadata>
Created by potrace 1.9, written by Peter Selinger 2001-2010
</metadata>
<g transform="translate(0,1000) scale(0.100000,-0.100000)"
fill="#000000" stroke="none">
<path d="M9540 6083 c-39 -25 -138 -142 -203 -239 -250 -378 -318 -830 -191
-1272 51 -178 153 -371 280 -527 l64 -80 -1 -975 -2 -975 36 -37 c65 -67 153
-57 201 23 11 20 44 64 71 98 72 89 168 250 210 350 84 200 118 372 119 596 0
217 -36 400 -116 593 -39 93 -139 260 -212 351 l-56 70 0 966 c0 1064 3 1010
-60 1055 -34 24 -105 26 -140 3z m-50 -1080 l-1 -608 -28 55 c-39 76 -87 213
-108 312 -13 60 -18 127 -17 243 0 177 15 272 63 405 31 83 82 200 87 200 2 0
4 -273 4 -607z m319 -1545 c52 -149 66 -235 65 -413 0 -184 -15 -276 -71 -425
-66 -178 -62 -206 -62 425 0 560 0 569 18 535 10 -19 33 -74 50 -122z"/>
<path d="M251 2162 c-36 -19 -71 -72 -71 -107 0 -35 35 -88 71 -107 32 -17 82
-18 966 -18 l933 0 0 -36 c0 -59 29 -230 60 -354 182 -724 757 -1303 1475
-1486 189 -49 244 -54 535 -54 291 0 346 5 535 54 643 164 1185 656 1415 1286
56 155 120 448 120 554 l0 36 938 0 c889 0 939 1 971 18 36 19 71 72 71 107 0
35 -35 88 -71 107 -32 17 -85 18 -1047 18 -1102 0 -1047 3 -1082 -53 -7 -12
-18 -90 -26 -178 -15 -182 -18 -201 -50 -329 -41 -166 -119 -358 -201 -493
-145 -241 -400 -496 -640 -641 -184 -110 -440 -201 -668 -237 -103 -16 -427
-16 -530 0 -228 36 -484 127 -668 237 -240 145 -495 400 -640 641 -82 135
-160 327 -201 493 -32 128 -35 147 -50 329 -8 88 -19 166 -26 178 -35 56 19
53 -1077 53 -957 0 -1010 -1 -1042 -18z"/>
</g>
</svg>
