<?xml version="1.0" standalone="no"?>
<!DOCTYPE svg PUBLIC "-//W3C//DTD SVG 20010904//EN"
 "http://www.w3.org/TR/2001/REC-SVG-20010904/DTD/svg10.dtd">
<svg version="1.0" xmlns="http://www.w3.org/2000/svg"
 width="354pt" height="1000pt" viewBox="0 0 354 1000"
 preserveAspectRatio="xMidYMid meet">
<metadata>
Created by potrace 1.9, written by Peter Selinger 2001-2010
</metadata>
<g transform="translate(0,1000) scale(0.100000,-0.100000)"
fill="#000000" stroke="none">
<path d="M245 6086 c-63 -27 -89 -120 -51 -178 10 -15 68 -70 129 -122 349
-294 605 -686 732 -1119 122 -419 122 -875 0 -1294 -127 -433 -383 -825 -732
-1119 -128 -109 -146 -133 -146 -190 0 -85 77 -141 158 -114 50 16 268 204
381 326 259 283 467 651 572 1009 142 486 142 984 0 1470 -135 462 -423 905
-790 1216 -150 127 -187 144 -253 115z"/>
<path d="M3185 4121 c-57 -27 -1988 -1962 -2010 -2013 -8 -21 -15 -45 -15 -55
0 -33 36 -86 71 -105 32 -17 84 -18 1034 -18 950 0 1002 1 1034 18 19 10 43
34 53 53 17 32 18 84 18 1034 0 950 -1 1002 -18 1034 -19 36 -73 71 -107 71
-11 0 -38 -9 -60 -19z m-65 -1176 l0 -765 -767 0 -768 0 765 765 c421 421 766
765 767 765 2 0 3 -344 3 -765z"/>
</g>
</svg>
