<?xml version="1.0" standalone="no"?>
<!DOCTYPE svg PUBLIC "-//W3C//DTD SVG 20010904//EN"
 "http://www.w3.org/TR/2001/REC-SVG-20010904/DTD/svg10.dtd">
<svg version="1.0" xmlns="http://www.w3.org/2000/svg"
 width="844pt" height="1000pt" viewBox="0 0 844 1000"
 preserveAspectRatio="xMidYMid meet">
<metadata>
Created by potrace 1.9, written by Peter Selinger 2001-2010
</metadata>
<g transform="translate(0,1000) scale(0.100000,-0.100000)"
fill="#000000" stroke="none">
<path d="M4171 6082 c-36 -19 -71 -72 -71 -107 0 -35 35 -88 71 -107 32 -17
73 -18 674 -18 l640 0 -42 -36 c-73 -61 -170 -187 -226 -295 -62 -117 -98
-224 -121 -355 -74 -419 156 -903 523 -1105 34 -19 61 -36 61 -39 0 -3 -28
-20 -63 -39 -361 -197 -595 -688 -522 -1100 22 -127 62 -246 115 -349 l49 -93
-37 22 c-217 132 -477 396 -615 626 -82 135 -160 327 -201 493 -32 128 -35
147 -50 329 -8 88 -19 166 -26 178 -45 72 -172 69 -212 -5 -31 -60 -5 -354 52
-582 133 -529 475 -986 948 -1266 l82 -49 -2467 -5 c-2360 -5 -2469 -6 -2495
-23 -28 -19 -58 -73 -58 -104 0 -33 36 -86 71 -105 32 -17 177 -18 3974 -18
3797 0 3942 1 3974 18 19 10 43 34 53 53 17 32 18 115 18 2014 0 1899 -1 1982
-18 2014 -10 19 -34 43 -53 53 -32 17 -115 18 -2014 18 -1899 0 -1982 -1
-2014 -18z m3849 -1110 c0 -1028 -7 -1165 -69 -1409 -39 -152 -121 -348 -198
-476 -138 -230 -398 -494 -615 -626 l-37 -22 49 93 c110 210 152 456 115 667
-59 338 -248 622 -512 774 -40 23 -73 44 -73 47 0 3 33 24 73 47 264 152 453
436 512 774 56 318 -65 687 -306 931 l-77 78 569 0 569 0 0 -878z m-1960 28
c0 -727 -2 -840 -14 -840 -33 0 -186 54 -257 91 -144 75 -291 222 -362 364
-19 39 -48 111 -63 160 -26 82 -29 103 -28 230 0 126 3 149 28 225 16 47 44
117 63 155 70 140 221 293 358 363 71 36 225 91 258 92 16 0 17 -47 17 -840z
m352 814 c173 -54 316 -151 429 -290 68 -83 117 -178 155 -299 26 -80 29 -104
29 -225 0 -121 -3 -145 -29 -225 -93 -295 -295 -498 -584 -589 -46 -14 -87
-26 -93 -26 -5 0 -9 317 -9 840 0 523 4 840 9 840 6 0 47 -12 93 -26z m-352
-2774 c0 -727 -2 -840 -14 -840 -33 0 -186 54 -257 91 -144 75 -291 222 -362
364 -19 39 -48 111 -63 160 -26 82 -29 103 -28 230 0 126 3 149 28 225 16 47
44 117 63 155 70 140 221 293 358 363 71 36 225 91 258 92 16 0 17 -47 17
-840z m352 814 c173 -54 316 -151 429 -290 68 -83 117 -178 155 -299 26 -80
29 -104 29 -225 0 -121 -3 -145 -29 -225 -93 -295 -295 -498 -584 -589 -46
-14 -87 -26 -93 -26 -5 0 -9 317 -9 840 0 523 4 840 9 840 6 0 47 -12 93 -26z
m1605 -1671 c-2 -2 -196 -2 -431 -1 l-426 3 82 49 c294 174 551 431 724 724
l49 82 3 -426 c1 -235 1 -429 -1 -431z"/>
</g>
</svg>
