<?xml version="1.0" standalone="no"?>
<!DOCTYPE svg PUBLIC "-//W3C//DTD SVG 20010904//EN"
 "http://www.w3.org/TR/2001/REC-SVG-20010904/DTD/svg10.dtd">
<svg version="1.0" xmlns="http://www.w3.org/2000/svg"
 width="452pt" height="1000pt" viewBox="0 0 452 1000"
 preserveAspectRatio="xMidYMid meet">
<metadata>
Created by potrace 1.9, written by Peter Selinger 2001-2010
</metadata>
<g transform="translate(0,1000) scale(0.100000,-0.100000)"
fill="#000000" stroke="none">
<path d="M2215 6109 c-16 -4 -458 -7 -980 -8 -900 -1 -952 -2 -984 -19 -19
-10 -43 -34 -53 -53 -17 -32 -18 -115 -18 -2014 0 -1899 1 -1982 18 -2014 10
-19 34 -43 53 -53 32 -17 115 -18 2014 -18 1899 0 1982 1 2014 18 19 10 43 34
53 53 17 32 18 115 18 2014 0 1899 -1 1982 -18 2014 -10 19 -34 43 -53 53 -32
17 -83 18 -1004 18 -534 0 -984 4 -1000 8 -17 5 -43 5 -60 1z m12 -291 c88
-94 179 -250 231 -400 148 -421 58 -896 -233 -1228 -32 -36 -68 -81 -81 -100
-13 -19 -49 -64 -79 -100 -150 -180 -263 -431 -311 -693 -24 -126 -24 -380 -1
-504 43 -227 99 -370 229 -580 l20 -33 -786 0 -786 0 0 1835 0 1835 883 0 883
0 31 -32z m1873 -1803 l0 -1835 -884 0 -884 0 -50 55 c-131 143 -233 351 -279
567 -24 115 -24 370 1 488 44 210 150 425 279 566 28 31 67 77 86 104 20 27
63 84 96 127 208 272 308 569 309 918 0 283 -63 525 -199 754 l-54 91 790 0
789 0 0 -1835z"/>
</g>
</svg>
