<?xml version="1.0" standalone="no"?>
<!DOCTYPE svg PUBLIC "-//W3C//DTD SVG 20010904//EN"
 "http://www.w3.org/TR/2001/REC-SVG-20010904/DTD/svg10.dtd">
<svg version="1.0" xmlns="http://www.w3.org/2000/svg"
 width="844pt" height="1000pt" viewBox="0 0 844 1000"
 preserveAspectRatio="xMidYMid meet">
<metadata>
Created by potrace 1.9, written by Peter Selinger 2001-2010
</metadata>
<g transform="translate(0,1000) scale(0.100000,-0.100000)"
fill="#000000" stroke="none">
<path d="M6125 6081 c-57 -27 -1988 -1962 -2010 -2013 -13 -33 -15 -154 -15
-963 l0 -925 -767 0 -768 0 397 398 c342 342 398 402 403 434 12 64 -31 127
-98 143 -65 17 -82 2 -555 -468 l-452 -452 -458 457 c-396 395 -462 458 -494
463 -64 12 -127 -31 -143 -98 -17 -64 1 -86 403 -489 l387 -388 -835 0 c-790
0 -837 -1 -869 -18 -36 -19 -71 -72 -71 -107 0 -35 35 -88 71 -107 32 -17 177
-18 3974 -18 3797 0 3942 1 3974 18 19 10 43 34 53 53 17 32 18 84 18 1032 0
834 -2 1003 -14 1030 -18 42 -1991 2013 -2029 2027 -39 14 -56 13 -102 -9z
m977 -1208 l918 -918 0 -887 0 -888 -1835 0 -1835 0 0 892 0 893 912 912 c502
502 915 913 918 913 3 0 418 -413 922 -917z"/>
</g>
</svg>
