<?xml version="1.0" standalone="no"?>
<!DOCTYPE svg PUBLIC "-//W3C//DTD SVG 20010904//EN"
 "http://www.w3.org/TR/2001/REC-SVG-20010904/DTD/svg10.dtd">
<svg version="1.0" xmlns="http://www.w3.org/2000/svg"
 width="844pt" height="1000pt" viewBox="0 0 844 1000"
 preserveAspectRatio="xMidYMid meet">
<metadata>
Created by potrace 1.9, written by Peter Selinger 2001-2010
</metadata>
<g transform="translate(0,1000) scale(0.100000,-0.100000)"
fill="#000000" stroke="none">
<path d="M1232 6085 c-51 -22 -257 -202 -363 -316 -546 -592 -784 -1407 -644
-2199 105 -588 409 -1120 857 -1501 141 -120 181 -139 242 -119 71 23 103 119
62 182 -10 15 -68 70 -129 122 -349 294 -605 686 -732 1119 -122 419 -122 875
0 1294 127 433 383 825 732 1119 61 52 119 107 129 122 39 59 12 151 -53 178
-40 17 -59 17 -101 -1z"/>
<path d="M2205 6086 c-63 -27 -89 -120 -51 -178 10 -15 68 -70 129 -122 349
-294 605 -686 732 -1119 122 -419 122 -875 0 -1294 -127 -433 -383 -825 -732
-1119 -128 -109 -146 -133 -146 -190 0 -85 77 -141 158 -114 20 7 93 60 163
120 448 380 752 913 857 1500 70 395 48 793 -67 1185 -135 462 -423 905 -790
1216 -150 127 -187 144 -253 115z"/>
<path d="M1600 5104 c-194 -35 -394 -125 -531 -240 -290 -242 -446 -650 -384
-1003 49 -279 185 -523 384 -685 145 -119 339 -206 536 -240 114 -20 216 -20
330 0 489 85 833 432 920 925 61 347 -93 758 -373 994 -241 203 -592 302 -882
249z m400 -269 c176 -56 318 -152 431 -291 68 -83 117 -178 155 -299 26 -80
29 -104 29 -225 0 -121 -3 -145 -29 -225 -93 -295 -290 -493 -586 -591 -77
-25 -98 -28 -230 -28 -132 0 -153 3 -230 28 -179 59 -319 154 -431 292 -68 82
-117 177 -155 299 -26 82 -29 103 -28 230 0 126 3 149 28 225 95 288 291 488
567 579 106 35 147 40 274 37 97 -3 137 -9 205 -31z"/>
<path d="M4171 5102 c-19 -10 -43 -34 -53 -53 -17 -32 -18 -84 -18 -1034 0
-950 1 -1002 18 -1034 19 -36 72 -71 107 -71 35 0 88 35 107 71 17 31 18 67
18 471 l0 438 1835 0 1835 0 0 -438 c0 -404 1 -440 18 -471 19 -36 72 -71 107
-71 35 0 88 35 107 71 17 32 18 84 18 1034 0 950 -1 1002 -18 1034 -19 36 -72
71 -107 71 -35 0 -88 -35 -107 -71 -17 -31 -18 -67 -18 -471 l0 -438 -1835 0
-1835 0 0 438 c0 404 -1 440 -18 471 -19 36 -72 71 -107 71 -11 0 -36 -8 -54
-18z"/>
</g>
</svg>
