<?xml version="1.0" standalone="no"?>
<!DOCTYPE svg PUBLIC "-//W3C//DTD SVG 20010904//EN"
 "http://www.w3.org/TR/2001/REC-SVG-20010904/DTD/svg10.dtd">
<svg version="1.0" xmlns="http://www.w3.org/2000/svg"
 width="2069pt" height="1000pt" viewBox="0 0 2069 1000"
 preserveAspectRatio="xMidYMid meet">
<metadata>
Created by potrace 1.9, written by Peter Selinger 2001-2010
</metadata>
<g transform="translate(0,1000) scale(0.100000,-0.100000)"
fill="#000000" stroke="none">
<path d="M5545 6094 c-684 -55 -1279 -418 -1631 -994 -199 -327 -298 -686
-298 -1080 0 -204 15 -323 64 -520 133 -529 475 -986 948 -1266 l82 -49 -507
-5 c-469 -5 -510 -6 -535 -23 -28 -19 -58 -73 -58 -104 0 -33 36 -86 71 -105
32 -17 115 -18 2014 -18 1899 0 1982 1 2014 18 35 19 71 72 71 105 0 31 -30
85 -58 104 -25 17 -66 18 -540 23 l-512 5 82 49 c473 280 815 737 948 1266 49
197 64 316 64 520 0 204 -15 323 -64 520 -165 656 -654 1197 -1290 1430 -108
39 -286 84 -416 104 -102 16 -357 27 -449 20z m418 -265 c215 -32 478 -126
660 -235 240 -145 495 -400 640 -641 111 -184 202 -440 238 -668 7 -44 13
-163 13 -265 0 -195 -10 -285 -49 -440 -84 -332 -244 -610 -494 -859 -240
-238 -514 -393 -841 -476 -155 -39 -245 -49 -440 -49 -195 0 -285 10 -440 49
-327 83 -601 238 -841 476 -207 206 -342 416 -439 679 -76 209 -104 374 -104
620 0 195 10 285 49 440 84 331 239 604 485 850 318 317 699 495 1150 534 73
6 334 -3 413 -15z"/>
<path d="M9440 6084 c-122 -22 -238 -62 -349 -121 -308 -161 -509 -452 -568
-819 -16 -100 -16 -107 6 -249 102 -668 339 -1249 727 -1787 213 -295 496
-587 784 -809 106 -82 381 -267 494 -332 62 -36 87 -25 399 182 557 368 1004
871 1327 1494 198 382 327 779 399 1232 20 125 19 131 -5 283 -77 488 -428
840 -920 926 -359 63 -766 -92 -1007 -382 -35 -42 -79 -105 -98 -139 -19 -35
-36 -63 -39 -63 -3 1 -24 33 -47 73 -209 364 -689 586 -1103 511z m400 -269
c353 -114 585 -399 619 -764 5 -54 15 -107 22 -119 43 -69 175 -69 218 0 7 12
17 65 22 119 17 179 89 357 197 484 115 137 243 222 422 281 77 25 98 28 230
28 132 0 153 -3 230 -28 183 -61 317 -152 431 -292 66 -80 115 -175 155 -294
25 -76 28 -100 28 -220 0 -110 -5 -159 -27 -265 -113 -532 -328 -1027 -628
-1446 -257 -359 -581 -679 -944 -931 -139 -96 -215 -139 -236 -133 -27 9 -256
165 -359 244 -403 311 -780 745 -1005 1156 -227 415 -372 837 -440 1280 -20
130 -15 201 22 318 88 280 289 485 564 576 106 35 147 40 274 37 97 -3 136 -9
205 -31z"/>
<path d="M14455 6081 c-27 -13 -201 -180 -531 -512 -513 -516 -526 -530 -509
-596 16 -67 79 -110 143 -98 32 5 92 61 435 403 l397 397 0 -1820 c0 -1744 1
-1822 18 -1854 19 -36 72 -71 107 -71 35 0 88 35 107 71 17 32 18 110 18 1849
l0 1815 388 -387 c403 -402 425 -420 489 -403 67 16 110 79 98 143 -5 32 -74
104 -513 546 -290 290 -521 514 -539 522 -42 18 -60 17 -108 -5z"/>
<path d="M18285 6094 c-684 -55 -1279 -418 -1631 -994 -199 -327 -298 -686
-298 -1080 0 -204 15 -323 64 -520 184 -731 759 -1306 1490 -1490 197 -49 316
-64 520 -64 557 0 1074 211 1461 595 398 396 613 914 613 1479 0 204 -15 323
-64 520 -165 656 -654 1197 -1290 1430 -108 39 -286 84 -416 104 -102 16 -357
27 -449 20z m418 -265 c215 -32 478 -126 660 -235 240 -145 495 -400 640 -641
111 -184 202 -440 238 -668 7 -44 13 -163 13 -265 0 -195 -10 -285 -49 -440
-84 -332 -244 -610 -494 -859 -240 -238 -514 -393 -841 -476 -155 -39 -245
-49 -440 -49 -195 0 -285 10 -440 49 -327 83 -601 238 -841 476 -207 206 -342
416 -439 679 -76 209 -104 374 -104 620 0 195 10 285 49 440 84 331 239 604
485 850 318 317 699 495 1150 534 73 6 334 -3 413 -15z"/>
<path d="M18260 5104 c-194 -35 -394 -125 -531 -240 -290 -242 -446 -650 -384
-1003 49 -279 185 -523 384 -685 145 -119 339 -206 536 -240 114 -20 216 -20
330 0 489 85 833 432 920 925 61 347 -93 758 -373 994 -241 203 -592 302 -882
249z m400 -269 c176 -56 318 -152 431 -291 68 -83 117 -178 155 -299 26 -80
29 -104 29 -225 0 -121 -3 -145 -29 -225 -93 -295 -290 -493 -586 -591 -77
-25 -98 -28 -230 -28 -132 0 -153 3 -230 28 -179 59 -319 154 -431 292 -68 82
-117 177 -155 299 -26 82 -29 103 -28 230 0 126 3 149 28 225 95 288 291 488
567 579 106 35 147 40 274 37 97 -3 137 -9 205 -31z"/>
<path d="M18393 4143 c-33 -6 -79 -57 -86 -92 -26 -127 122 -210 212 -120 43
42 49 93 18 156 -20 42 -87 68 -144 56z"/>
<path d="M2645 4115 c-30 -31 -35 -42 -35 -83 0 -41 6 -54 43 -99 144 -176
180 -225 220 -302 54 -102 100 -230 124 -343 24 -115 24 -370 -1 -488 -44
-211 -175 -473 -291 -580 -55 -50 -85 -106 -85 -154 0 -39 5 -51 35 -81 30
-30 42 -35 81 -35 59 0 85 17 159 100 295 336 428 810 350 1253 -52 290 -173
538 -374 762 -63 70 -88 85 -143 85 -41 0 -52 -5 -83 -35z"/>
<path d="M1110 4124 c-194 -35 -394 -125 -531 -240 -290 -242 -446 -650 -384
-1003 49 -279 185 -523 384 -685 145 -119 339 -206 536 -240 114 -20 216 -20
330 0 489 85 833 432 920 925 61 347 -93 758 -373 994 -241 203 -592 302 -882
249z m400 -269 c176 -56 318 -152 431 -291 68 -83 117 -178 155 -299 26 -80
29 -104 29 -225 0 -121 -3 -145 -29 -225 -93 -295 -290 -493 -586 -591 -77
-25 -98 -28 -230 -28 -132 0 -153 3 -230 28 -179 59 -319 154 -431 292 -68 82
-117 177 -155 299 -26 82 -29 103 -28 230 0 126 3 149 28 225 95 288 291 488
567 579 106 35 147 40 274 37 97 -3 137 -9 205 -31z"/>
</g>
</svg>
