<?xml version="1.0" standalone="no"?>
<!DOCTYPE svg PUBLIC "-//W3C//DTD SVG 20010904//EN"
 "http://www.w3.org/TR/2001/REC-SVG-20010904/DTD/svg10.dtd">
<svg version="1.0" xmlns="http://www.w3.org/2000/svg"
 width="1726pt" height="1000pt" viewBox="0 0 1726 1000"
 preserveAspectRatio="xMidYMid meet">
<metadata>
Created by potrace 1.9, written by Peter Selinger 2001-2010
</metadata>
<g transform="translate(0,1000) scale(0.100000,-0.100000)"
fill="#000000" stroke="none">
<path d="M251 6082 c-19 -10 -43 -34 -53 -53 -17 -32 -18 -84 -18 -1034 0
-950 1 -1002 18 -1034 33 -61 67 -71 235 -71 l149 0 -39 -32 c-108 -91 -230
-271 -289 -428 -59 -155 -86 -376 -64 -522 77 -505 427 -865 925 -952 291 -51
619 41 870 243 191 154 332 405 380 682 50 281 -41 608 -237 855 -38 48 -88
102 -111 119 l-42 30 165 5 c184 6 205 12 234 75 14 29 16 92 16 469 l0 436
1742 0 1743 0 -387 -387 c-405 -408 -418 -423 -403 -493 8 -39 56 -87 95 -95
16 -4 45 -2 63 4 22 8 186 165 544 523 544 546 538 538 514 611 -8 22 -165
186 -523 544 -445 444 -518 513 -550 518 -64 12 -127 -31 -143 -98 -17 -64 1
-86 403 -489 l387 -388 -1743 0 -1742 0 0 438 c0 489 0 486 -71 524 -32 17
-84 18 -1034 18 -950 0 -1002 -1 -1034 -18z m1889 -1087 l0 -855 -855 0 -855
0 0 855 0 855 855 0 855 0 0 -855z m-630 -1140 c83 -27 188 -75 242 -112 l27
-19 -252 -252 -252 -252 -250 250 -250 251 25 19 c39 31 179 96 245 115 149
44 329 43 465 0z m-664 -1064 c-285 -285 -251 -271 -319 -136 -142 283 -125
588 47 852 l21 33 250 -250 250 -250 -249 -249z m1131 732 c30 -39 93 -173
119 -258 26 -80 29 -104 29 -225 0 -121 -3 -145 -29 -225 -27 -86 -89 -219
-121 -260 -15 -19 -26 -9 -268 233 l-252 252 250 250 c137 137 252 250 254
250 2 0 10 -8 18 -17z m-225 -1186 c-53 -36 -158 -85 -242 -113 -77 -25 -98
-28 -230 -28 -132 0 -153 3 -230 28 -47 15 -119 46 -160 67 -134 70 -149 34
135 319 l250 250 252 -252 252 -252 -27 -19z"/>
<path d="M15925 6081 c-27 -13 -340 -320 -1000 -980 l-960 -961 -1940 0
c-1860 0 -1942 -1 -1974 -18 -36 -19 -71 -72 -71 -107 0 -35 35 -88 71 -107
31 -17 65 -18 431 -18 l398 0 -445 -890 c-246 -492 -447 -906 -450 -927 -16
-104 101 -175 190 -117 20 13 134 232 467 898 l440 881 439 -877 c478 -955
459 -923 544 -923 22 0 53 9 68 19 23 15 124 209 469 900 l440 881 438 -874
c321 -643 445 -881 466 -898 78 -62 184 -20 201 81 4 27 -61 164 -446 934
-248 496 -451 904 -451 907 0 3 177 5 394 5 250 0 405 4 423 10 16 6 439 422
970 953 l943 942 452 -451 c473 -471 490 -486 555 -469 67 16 110 79 98 143
-5 32 -74 104 -513 546 -290 290 -521 514 -539 522 -42 18 -60 17 -108 -5z
m-3471 -2963 c-212 -425 -388 -775 -390 -777 -3 -3 -774 1534 -774 1544 0 3
349 5 775 5 l775 0 -386 -772z"/>
<path d="M7111 4122 c-36 -19 -71 -72 -71 -107 0 -35 35 -88 71 -107 31 -17
67 -18 471 -18 l438 0 0 -855 0 -855 -438 0 c-404 0 -440 -1 -471 -18 -36 -19
-71 -72 -71 -107 0 -35 35 -88 71 -107 32 -17 84 -18 1034 -18 950 0 1002 1
1034 18 36 19 71 72 71 107 0 35 -35 88 -71 107 -31 17 -67 18 -471 18 l-438
0 0 855 0 855 438 0 c404 0 440 1 471 18 36 19 71 72 71 107 0 35 -35 88 -71
107 -32 17 -84 18 -1034 18 -950 0 -1002 -1 -1034 -18z"/>
</g>
</svg>
