<?xml version="1.0" standalone="no"?>
<!DOCTYPE svg PUBLIC "-//W3C//DTD SVG 20010904//EN"
 "http://www.w3.org/TR/2001/REC-SVG-20010904/DTD/svg10.dtd">
<svg version="1.0" xmlns="http://www.w3.org/2000/svg"
 width="1236pt" height="1000pt" viewBox="0 0 1236 1000"
 preserveAspectRatio="xMidYMid meet">
<metadata>
Created by potrace 1.9, written by Peter Selinger 2001-2010
</metadata>
<g transform="translate(0,1000) scale(0.100000,-0.100000)"
fill="#000000" stroke="none">
<path d="M7015 6094 c-684 -55 -1279 -418 -1631 -994 -143 -235 -234 -491
-279 -780 -21 -137 -25 -328 -7 -362 40 -74 167 -77 212 -5 7 12 18 90 26 178
15 182 18 201 50 329 82 329 238 604 484 850 242 241 519 401 835 481 44 11
89 22 100 26 11 3 -147 -163 -351 -368 -387 -389 -405 -412 -389 -476 16 -67
79 -110 143 -98 32 5 92 61 435 403 l397 397 0 -1820 c0 -1744 1 -1822 18
-1854 19 -36 72 -71 107 -71 35 0 88 35 107 71 17 32 18 110 18 1849 l0 1815
388 -387 c403 -402 425 -420 489 -403 67 16 110 79 98 143 -5 32 -60 90 -388
421 -210 210 -373 381 -362 378 11 -4 56 -15 100 -26 316 -80 593 -240 835
-481 246 -246 402 -521 484 -850 32 -128 35 -147 50 -329 8 -88 19 -166 26
-178 45 -72 172 -69 212 5 18 34 14 225 -7 362 -71 458 -269 853 -585 1170
-378 377 -876 590 -1416 604 -82 2 -171 2 -199 0z"/>
<path d="M10051 5102 c-19 -10 -43 -34 -53 -53 -17 -32 -18 -84 -18 -1034 0
-950 1 -1002 18 -1034 19 -36 72 -71 107 -71 35 0 88 35 107 71 17 31 18 67
18 471 l0 438 855 0 855 0 0 -438 c0 -404 1 -440 18 -471 19 -36 72 -71 107
-71 35 0 88 35 107 71 17 32 18 84 18 1034 0 950 -1 1002 -18 1034 -19 36 -72
71 -107 71 -35 0 -88 -35 -107 -71 -17 -31 -18 -67 -18 -471 l0 -438 -855 0
-855 0 0 438 c0 404 -1 440 -18 471 -19 36 -72 71 -107 71 -11 0 -36 -8 -54
-18z"/>
<path d="M238 4123 c-46 -29 -53 -56 -51 -182 9 -506 237 -1027 612 -1400 387
-384 904 -595 1461 -595 204 0 323 15 520 64 592 149 1093 561 1356 1115 112
236 163 438 203 808 13 115 2 152 -54 187 -32 20 -44 20 -2026 20 -1842 -1
-1996 -2 -2021 -17z m3842 -269 c0 -143 -76 -420 -170 -622 -142 -302 -420
-607 -717 -786 -184 -110 -440 -201 -668 -237 -103 -16 -427 -16 -530 0 -228
36 -484 127 -668 237 -297 179 -575 484 -717 786 -94 202 -170 479 -170 622
l0 36 1820 0 1820 0 0 -36z"/>
</g>
</svg>
