<?xml version="1.0" standalone="no"?>
<!DOCTYPE svg PUBLIC "-//W3C//DTD SVG 20010904//EN"
 "http://www.w3.org/TR/2001/REC-SVG-20010904/DTD/svg10.dtd">
<svg version="1.0" xmlns="http://www.w3.org/2000/svg"
 width="942pt" height="1000pt" viewBox="0 0 942 1000"
 preserveAspectRatio="xMidYMid meet">
<metadata>
Created by potrace 1.9, written by Peter Selinger 2001-2010
</metadata>
<g transform="translate(0,1000) scale(0.100000,-0.100000)"
fill="#000000" stroke="none">
<path d="M2212 8044 c-18 -9 -41 -29 -51 -43 -40 -56 -501 -992 -506 -1028
-11 -74 61 -150 132 -139 68 10 76 22 280 430 l195 391 193 -385 c200 -398
216 -423 282 -436 39 -7 95 18 118 53 41 62 45 53 -233 609 -194 389 -267 525
-287 538 -39 25 -85 29 -123 10z"/>
<path d="M1110 6084 c-360 -65 -649 -275 -803 -585 -92 -185 -144 -413 -119
-522 7 -28 21 -99 31 -157 115 -640 328 -1157 690 -1675 220 -315 546 -651
859 -884 l102 -76 -802 -5 c-753 -5 -805 -6 -830 -23 -28 -19 -58 -73 -58
-104 0 -33 36 -86 71 -105 32 -17 115 -18 2014 -18 1899 0 1982 1 2014 18 36
19 71 72 71 107 0 35 -35 88 -71 107 -32 17 -78 18 -829 18 l-795 0 40 27
c226 152 565 469 755 703 479 592 761 1223 879 1965 20 125 19 131 -5 283 -77
488 -428 840 -920 926 -359 63 -766 -92 -1007 -382 -35 -42 -79 -105 -98 -139
-19 -35 -36 -63 -39 -63 -3 1 -24 33 -47 73 -209 364 -689 586 -1103 511z
m400 -269 c353 -114 585 -399 619 -764 5 -54 15 -107 22 -119 43 -69 175 -69
218 0 7 12 17 65 22 119 17 179 89 357 197 484 115 137 243 222 422 281 77 25
98 28 230 28 132 0 153 -3 230 -28 183 -61 317 -152 431 -292 66 -80 115 -175
155 -294 25 -76 28 -100 28 -220 0 -110 -5 -159 -27 -265 -86 -404 -225 -774
-424 -1130 -298 -531 -795 -1042 -1326 -1364 l-37 -23 -48 28 c-87 50 -266
176 -387 272 -163 130 -468 437 -599 602 -415 523 -672 1109 -781 1785 -28
175 -26 209 19 342 91 266 291 464 557 552 106 35 147 40 274 37 97 -3 136 -9
205 -31z"/>
<path d="M7015 6094 c-684 -55 -1279 -418 -1631 -994 -199 -327 -298 -686
-298 -1080 0 -204 15 -323 64 -520 184 -731 759 -1306 1490 -1490 197 -49 316
-64 520 -64 557 0 1074 211 1461 595 398 396 613 914 613 1479 0 204 -15 323
-64 520 -165 656 -654 1197 -1290 1430 -108 39 -286 84 -416 104 -102 16 -357
27 -449 20z m418 -265 c215 -32 478 -126 660 -235 240 -145 495 -400 640 -641
111 -184 202 -440 238 -668 7 -44 13 -163 13 -265 0 -195 -10 -285 -49 -440
-84 -332 -244 -610 -494 -859 -240 -238 -514 -393 -841 -476 -155 -39 -245
-49 -440 -49 -195 0 -285 10 -440 49 -327 83 -601 238 -841 476 -207 206 -342
416 -439 679 -76 209 -104 374 -104 620 0 195 10 285 49 440 84 331 239 604
485 850 318 317 699 495 1150 534 73 6 334 -3 413 -15z"/>
</g>
</svg>
