<?xml version="1.0" standalone="no"?>
<!DOCTYPE svg PUBLIC "-//W3C//DTD SVG 20010904//EN"
 "http://www.w3.org/TR/2001/REC-SVG-20010904/DTD/svg10.dtd">
<svg version="1.0" xmlns="http://www.w3.org/2000/svg"
 width="746pt" height="1000pt" viewBox="0 0 746 1000"
 preserveAspectRatio="xMidYMid meet">
<metadata>
Created by potrace 1.9, written by Peter Selinger 2001-2010
</metadata>
<g transform="translate(0,1000) scale(0.100000,-0.100000)"
fill="#000000" stroke="none">
<path d="M6131 6082 c-19 -10 -43 -34 -53 -53 -17 -32 -18 -110 -18 -1854 l0
-1820 -397 397 c-436 435 -430 430 -506 393 -61 -29 -87 -88 -67 -152 17 -53
973 -1015 1039 -1045 88 -40 61 -62 629 505 358 358 515 522 523 544 6 18 8
47 4 63 -8 39 -56 87 -95 95 -70 15 -85 2 -492 -403 l-388 -387 0 1815 c0
1739 -1 1817 -18 1849 -19 36 -72 71 -107 71 -11 0 -36 -8 -54 -18z"/>
<path d="M2115 4134 c-684 -55 -1279 -418 -1631 -994 -178 -294 -280 -628
-299 -990 -7 -132 5 -169 66 -202 32 -17 115 -18 2014 -18 1904 0 1982 1 2015
18 19 11 42 35 52 54 20 38 17 99 -18 353 -85 616 -439 1154 -974 1481 -234
142 -489 233 -776 278 -102 16 -357 27 -449 20z m418 -265 c215 -32 478 -126
660 -235 242 -146 495 -399 641 -641 131 -219 246 -579 246 -772 l0 -41 -1820
0 -1820 0 0 41 c0 148 74 422 170 627 168 359 503 694 862 862 210 98 418 154
648 174 73 6 334 -3 413 -15z"/>
</g>
</svg>
