<?xml version="1.0" standalone="no"?>
<!DOCTYPE svg PUBLIC "-//W3C//DTD SVG 20010904//EN"
 "http://www.w3.org/TR/2001/REC-SVG-20010904/DTD/svg10.dtd">
<svg version="1.0" xmlns="http://www.w3.org/2000/svg"
 width="1530pt" height="1000pt" viewBox="0 0 1530 1000"
 preserveAspectRatio="xMidYMid meet">
<metadata>
Created by potrace 1.9, written by Peter Selinger 2001-2010
</metadata>
<g transform="translate(0,1000) scale(0.100000,-0.100000)"
fill="#000000" stroke="none">
<path d="M2090 8044 c-270 -49 -508 -184 -674 -383 -152 -182 -256 -467 -256
-701 0 -291 155 -637 367 -819 l48 -40 -645 -1 c-606 0 -647 -1 -679 -18 -36
-19 -71 -72 -71 -107 0 -35 35 -88 71 -107 32 -17 82 -18 961 -18 l928 0 0
-900 0 -900 -485 -970 c-269 -538 -487 -986 -490 -1007 -16 -104 101 -175 190
-117 20 13 134 232 467 898 l440 881 438 -874 c321 -643 445 -881 466 -898 78
-62 184 -20 201 81 4 27 -67 175 -486 1014 l-491 982 0 905 0 905 928 0 c879
0 929 1 961 18 36 19 71 72 71 107 0 35 -35 88 -71 107 -32 17 -73 18 -681 18
l-648 0 83 83 c167 166 268 367 312 618 61 347 -93 758 -373 994 -241 203
-592 302 -882 249z m50 -1084 c0 -727 -2 -840 -14 -840 -33 0 -186 54 -257 91
-144 75 -291 222 -362 364 -19 39 -48 111 -63 160 -26 82 -29 103 -28 230 0
126 3 149 28 225 16 47 44 117 63 155 70 140 221 293 358 363 71 36 225 91
258 92 16 0 17 -47 17 -840z m352 814 c173 -54 316 -151 429 -290 68 -83 117
-178 155 -299 26 -80 29 -104 29 -225 0 -121 -3 -145 -29 -225 -93 -295 -295
-498 -584 -589 -46 -14 -87 -26 -93 -26 -5 0 -9 317 -9 840 0 523 4 840 9 840
6 0 47 -12 93 -26z"/>
<path d="M6010 6084 c-122 -22 -238 -62 -349 -121 -308 -161 -509 -452 -568
-819 -16 -100 -16 -107 6 -249 102 -668 339 -1249 727 -1787 213 -295 496
-587 784 -809 106 -82 381 -267 494 -332 62 -36 87 -25 399 182 557 368 1004
871 1327 1494 198 382 327 779 399 1232 20 125 19 131 -5 283 -77 488 -428
840 -920 926 -359 63 -766 -92 -1007 -382 -35 -42 -79 -105 -98 -139 -19 -35
-36 -63 -39 -63 -3 1 -24 33 -47 73 -209 364 -689 586 -1103 511z m400 -269
c353 -114 585 -399 619 -764 5 -54 15 -107 22 -119 43 -69 175 -69 218 0 7 12
17 65 22 119 17 179 89 357 197 484 115 137 243 222 422 281 77 25 98 28 230
28 132 0 153 -3 230 -28 183 -61 317 -152 431 -292 66 -80 115 -175 155 -294
25 -76 28 -100 28 -220 0 -110 -5 -159 -27 -265 -113 -532 -328 -1027 -628
-1446 -257 -359 -581 -679 -944 -931 -139 -96 -215 -139 -236 -133 -27 9 -256
165 -359 244 -403 311 -780 745 -1005 1156 -227 415 -372 837 -440 1280 -20
130 -15 201 22 318 88 280 289 485 564 576 106 35 147 40 274 37 97 -3 136 -9
205 -31z"/>
<path d="M10051 6082 c-19 -10 -43 -34 -53 -53 -17 -32 -18 -84 -18 -1034 0
-950 1 -1002 18 -1034 10 -19 34 -43 53 -53 32 -17 82 -18 961 -18 l928 0 0
-928 c0 -879 1 -929 18 -961 19 -36 72 -71 107 -71 35 0 88 35 107 71 17 32
18 115 18 2014 0 1899 -1 1982 -18 2014 -19 36 -72 71 -107 71 -35 0 -88 -35
-107 -71 -17 -32 -18 -73 -18 -676 l0 -643 -82 83 c-167 166 -369 268 -614
311 -160 28 -319 15 -498 -40 -169 -53 -381 -189 -480 -307 l-36 -42 0 640 c0
601 -1 642 -18 674 -19 36 -72 71 -107 71 -11 0 -36 -8 -54 -18z m1259 -1247
c292 -94 493 -294 584 -583 14 -46 26 -90 26 -98 0 -12 -113 -14 -840 -14
-727 0 -840 2 -840 14 0 8 12 52 26 98 89 281 290 486 565 577 106 35 147 40
274 37 97 -3 136 -9 205 -31z"/>
<path d="M13805 4020 c-241 -28 -430 -141 -509 -304 -91 -190 -62 -392 78
-531 105 -105 216 -151 601 -251 298 -77 381 -118 427 -212 35 -73 37 -175 5
-245 -64 -141 -219 -217 -443 -217 -227 0 -423 95 -497 242 -25 51 -57 155
-57 188 0 13 -17 15 -117 12 -65 -2 -119 -5 -120 -6 -1 -1 2 -34 7 -73 33
-258 200 -462 442 -538 115 -36 197 -47 353 -48 111 0 159 4 228 21 89 22 206
74 262 116 225 171 288 488 140 710 -91 138 -244 216 -584 297 -284 69 -401
111 -455 165 -89 90 -89 234 1 335 77 84 180 119 359 119 188 0 307 -44 384
-141 36 -46 80 -154 80 -198 0 -15 13 -16 128 -13 70 2 128 5 130 7 1 1 -4 38
-12 82 -52 298 -283 468 -661 486 -55 3 -131 2 -170 -3z"/>
</g>
</svg>
