<?xml version="1.0" standalone="no"?>
<!DOCTYPE svg PUBLIC "-//W3C//DTD SVG 20010904//EN"
 "http://www.w3.org/TR/2001/REC-SVG-20010904/DTD/svg10.dtd">
<svg version="1.0" xmlns="http://www.w3.org/2000/svg"
 width="942pt" height="1000pt" viewBox="0 0 942 1000"
 preserveAspectRatio="xMidYMid meet">
<metadata>
Created by potrace 1.9, written by Peter Selinger 2001-2010
</metadata>
<g transform="translate(0,1000) scale(0.100000,-0.100000)"
fill="#000000" stroke="none">
<path d="M2212 8044 c-18 -9 -41 -29 -51 -43 -40 -56 -501 -992 -506 -1028
-11 -74 61 -150 132 -139 68 10 76 22 280 430 l195 391 193 -385 c200 -398
216 -423 282 -436 39 -7 95 18 118 53 41 62 45 53 -233 609 -194 389 -267 525
-287 538 -39 25 -85 29 -123 10z"/>
<path d="M5151 7062 c-71 -38 -71 -35 -71 -524 l0 -438 -438 0 c-404 0 -440
-1 -471 -18 -36 -19 -71 -72 -71 -107 0 -35 35 -88 71 -107 31 -17 67 -18 471
-18 l438 0 0 -438 c0 -489 0 -486 71 -524 42 -23 66 -23 108 0 71 38 71 35 71
524 l0 438 438 0 c489 0 486 0 524 71 23 42 23 66 0 108 -38 71 -35 71 -524
71 l-438 0 0 438 c0 404 -1 440 -18 471 -19 36 -72 71 -107 71 -11 0 -36 -8
-54 -18z"/>
<path d="M2212 6083 c-18 -9 -41 -28 -51 -42 -41 -58 -1971 -3933 -1976 -3968
-16 -104 101 -175 190 -117 20 13 230 424 895 1753 l869 1736 0 -1632 1 -1633
-438 0 c-404 0 -440 -1 -471 -18 -36 -19 -71 -72 -71 -107 0 -35 35 -88 71
-107 32 -17 84 -18 1034 -18 950 0 1002 1 1034 18 36 19 71 72 71 107 0 35
-35 88 -71 107 -31 17 -67 18 -471 18 l-438 0 0 1908 c0 1828 -1 1909 -18
1941 -19 36 -73 71 -107 71 -11 0 -35 -8 -53 -17z"/>
<path d="M7970 6084 c-194 -35 -394 -125 -531 -240 -202 -168 -335 -405 -383
-680 -74 -419 156 -903 523 -1105 34 -19 61 -36 61 -39 0 -3 -28 -20 -63 -39
-361 -197 -595 -688 -522 -1100 50 -285 189 -528 395 -694 100 -79 275 -169
395 -202 50 -13 138 -31 196 -40 99 -14 112 -14 227 5 233 38 427 123 584 255
280 236 434 647 373 994 -59 338 -248 622 -512 774 -40 23 -73 44 -73 47 0 3
33 24 73 47 264 152 453 436 512 774 61 347 -93 758 -373 994 -241 203 -592
302 -882 249z m50 -1084 c0 -727 -2 -840 -14 -840 -33 0 -186 54 -257 91 -144
75 -291 222 -362 364 -19 39 -48 111 -63 160 -26 82 -29 103 -28 230 0 126 3
149 28 225 16 47 44 117 63 155 70 140 221 293 358 363 71 36 225 91 258 92
16 0 17 -47 17 -840z m352 814 c173 -54 316 -151 429 -290 68 -83 117 -178
155 -299 26 -80 29 -104 29 -225 0 -121 -3 -145 -29 -225 -93 -295 -295 -498
-584 -589 -46 -14 -87 -26 -93 -26 -5 0 -9 317 -9 840 0 523 4 840 9 840 6 0
47 -12 93 -26z m-352 -2774 c0 -727 -2 -840 -14 -840 -33 0 -186 54 -257 91
-144 75 -291 222 -362 364 -19 39 -48 111 -63 160 -26 82 -29 103 -28 230 0
126 3 149 28 225 16 47 44 117 63 155 70 140 221 293 358 363 71 36 225 91
258 92 16 0 17 -47 17 -840z m352 814 c173 -54 316 -151 429 -290 68 -83 117
-178 155 -299 26 -80 29 -104 29 -225 0 -121 -3 -145 -29 -225 -93 -295 -295
-498 -584 -589 -46 -14 -87 -26 -93 -26 -5 0 -9 317 -9 840 0 523 4 840 9 840
6 0 47 -12 93 -26z"/>
</g>
</svg>
