<?xml version="1.0" standalone="no"?>
<!DOCTYPE svg PUBLIC "-//W3C//DTD SVG 20010904//EN"
 "http://www.w3.org/TR/2001/REC-SVG-20010904/DTD/svg10.dtd">
<svg version="1.0" xmlns="http://www.w3.org/2000/svg"
 width="1040pt" height="1000pt" viewBox="0 0 1040 1000"
 preserveAspectRatio="xMidYMid meet">
<metadata>
Created by potrace 1.9, written by Peter Selinger 2001-2010
</metadata>
<g transform="translate(0,1000) scale(0.100000,-0.100000)"
fill="#000000" stroke="none">
<path d="M6131 4122 c-36 -19 -71 -73 -71 -107 1 -57 49 -111 531 -591 522
-520 527 -524 602 -509 25 6 137 112 545 518 358 358 515 522 523 544 6 18 8
47 4 63 -8 39 -56 87 -95 95 -70 15 -82 6 -558 -469 l-452 -451 -453 452
c-248 249 -465 457 -480 463 -39 14 -57 13 -96 -8z"/>
<path d="M695 3149 c-242 -41 -429 -208 -491 -439 -23 -86 -23 -234 0 -320 42
-155 149 -292 287 -368 67 -38 107 -50 259 -82 40 -8 580 -10 2030 -8 2218 4
2040 -2 2208 79 148 72 263 214 308 379 23 86 23 234 0 320 -55 204 -213 363
-421 426 -57 18 -161 19 -2095 20 -1119 1 -2057 -2 -2085 -7z m4157 -271 c74
-34 152 -112 186 -186 22 -48 27 -71 27 -142 0 -105 -29 -175 -103 -249 -63
-63 -117 -90 -211 -107 -112 -20 -3890 -20 -4002 0 -94 17 -148 44 -211 107
-74 74 -103 144 -103 249 0 71 5 94 27 142 46 98 147 184 245 207 22 5 903 8
2063 8 l2025 -2 57 -27z"/>
<path d="M6997 2659 c-338 -39 -643 -180 -875 -404 -70 -67 -95 -99 -101 -125
-21 -96 61 -174 154 -149 22 6 66 39 118 87 150 142 262 212 438 276 158 57
233 69 424 69 191 0 266 -12 424 -69 120 -44 226 -100 316 -169 91 -69 120
-101 135 -149 29 -90 294 -283 514 -372 461 -188 991 -134 1410 143 100 67
215 165 240 205 9 14 16 47 16 72 0 39 -5 51 -35 81 -30 30 -42 35 -81 35 -48
0 -104 -30 -154 -85 -106 -114 -365 -245 -575 -291 -98 -21 -377 -24 -475 -5
-173 34 -372 120 -505 219 -67 49 -83 66 -93 99 -25 83 -249 269 -457 379
-234 124 -567 185 -838 153z"/>
</g>
</svg>
