<?xml version="1.0" standalone="no"?>
<!DOCTYPE svg PUBLIC "-//W3C//DTD SVG 20010904//EN"
 "http://www.w3.org/TR/2001/REC-SVG-20010904/DTD/svg10.dtd">
<svg version="1.0" xmlns="http://www.w3.org/2000/svg"
 width="746pt" height="1000pt" viewBox="0 0 746 1000"
 preserveAspectRatio="xMidYMid meet">
<metadata>
Created by potrace 1.9, written by Peter Selinger 2001-2010
</metadata>
<g transform="translate(0,1000) scale(0.100000,-0.100000)"
fill="#000000" stroke="none">
<path d="M1232 8044 c-18 -9 -41 -29 -51 -43 -40 -56 -501 -992 -506 -1028
-11 -74 61 -150 132 -139 68 10 76 22 280 430 l195 391 193 -385 c200 -398
216 -423 282 -436 39 -7 95 18 118 53 41 62 45 53 -233 609 -194 389 -267 525
-287 538 -39 25 -85 29 -123 10z"/>
<path d="M1231 6082 c-19 -10 -43 -34 -53 -53 -17 -32 -18 -110 -18 -1854 l0
-1820 -397 397 c-436 435 -430 430 -506 393 -61 -29 -87 -88 -67 -152 17 -53
973 -1015 1039 -1045 88 -40 61 -62 629 505 358 358 515 522 523 544 6 18 8
47 4 63 -8 39 -56 87 -95 95 -70 15 -85 2 -492 -403 l-388 -387 0 1815 c0
1739 -1 1817 -18 1849 -19 36 -72 71 -107 71 -11 0 -36 -8 -54 -18z"/>
<path d="M5030 5104 c-275 -50 -519 -191 -681 -392 l-64 -81 -65 -1 c-389 -3
-769 -156 -1038 -415 -70 -67 -95 -99 -101 -125 -21 -96 61 -174 154 -149 22
6 66 39 118 87 45 43 107 96 137 119 106 80 276 158 427 197 59 16 234 38 240
32 3 -2 -3 -28 -12 -58 -25 -88 -45 -218 -45 -298 0 -161 52 -359 137 -520
157 -299 445 -502 798 -564 114 -20 216 -20 330 0 324 56 611 244 763 500 l36
60 125 12 c150 14 245 33 366 73 178 59 376 172 515 294 83 74 100 100 100
159 0 39 -5 51 -35 81 -30 30 -42 35 -81 35 -48 0 -104 -30 -154 -85 -14 -15
-54 -48 -90 -75 -160 -118 -384 -208 -571 -228 l-75 -8 13 61 c79 361 -73 793
-365 1040 -241 203 -592 302 -882 249z m400 -269 c176 -56 318 -152 431 -291
68 -83 117 -178 155 -299 25 -79 29 -105 29 -220 0 -98 -5 -147 -19 -197 l-19
-68 -41 6 c-64 10 -202 52 -280 85 -95 40 -167 81 -251 144 -57 42 -73 60 -83
92 -24 81 -244 265 -450 376 -75 40 -282 117 -316 117 -18 0 -18 2 5 26 87 93
225 179 360 223 106 35 147 40 274 37 97 -3 137 -9 205 -31z m-820 -521 c132
-45 244 -103 340 -175 95 -72 124 -104 140 -153 15 -45 72 -102 185 -185 167
-122 326 -199 513 -247 l101 -27 -42 -50 c-102 -122 -248 -217 -417 -273 -77
-25 -98 -28 -230 -28 -132 0 -153 3 -230 28 -179 59 -319 154 -431 292 -68 82
-117 177 -155 299 -26 82 -29 103 -28 230 0 131 2 147 33 239 l33 98 41 -6
c23 -4 89 -23 147 -42z"/>
<path d="M4171 2162 c-36 -19 -71 -72 -71 -107 0 -35 35 -88 71 -107 32 -17
84 -18 1034 -18 950 0 1002 1 1034 18 36 19 71 72 71 107 0 35 -35 88 -71 107
-32 17 -84 18 -1034 18 -950 0 -1002 -1 -1034 -18z"/>
</g>
</svg>
