<?xml version="1.0" standalone="no"?>
<!DOCTYPE svg PUBLIC "-//W3C//DTD SVG 20010904//EN"
 "http://www.w3.org/TR/2001/REC-SVG-20010904/DTD/svg10.dtd">
<svg version="1.0" xmlns="http://www.w3.org/2000/svg"
 width="452pt" height="1000pt" viewBox="0 0 452 1000"
 preserveAspectRatio="xMidYMid meet">
<metadata>
Created by potrace 1.9, written by Peter Selinger 2001-2010
</metadata>
<g transform="translate(0,1000) scale(0.100000,-0.100000)"
fill="#000000" stroke="none">
<path d="M1160 2664 c-14 -2 -59 -9 -100 -15 -308 -44 -599 -187 -833 -408
-103 -98 -113 -173 -32 -249 26 -24 58 -47 72 -53 14 -5 413 -9 992 -9 863 0
970 -2 981 -16 48 -56 290 -205 424 -260 461 -188 991 -134 1410 143 100 67
215 165 240 205 9 14 16 47 16 72 0 39 -5 51 -35 81 -30 30 -42 35 -81 35 -48
0 -104 -30 -154 -85 -106 -114 -365 -245 -575 -291 -98 -21 -377 -24 -475 -5
-104 20 -218 59 -325 111 -111 54 -265 161 -265 185 0 66 -131 195 -323 319
-189 121 -341 180 -572 222 -80 15 -318 27 -365 18z m365 -269 c146 -30 325
-104 436 -178 l54 -37 -735 0 -735 0 45 31 c140 95 350 174 526 198 96 14 313
6 409 -14z"/>
</g>
</svg>
