<?xml version="1.0" standalone="no"?>
<!DOCTYPE svg PUBLIC "-//W3C//DTD SVG 20010904//EN"
 "http://www.w3.org/TR/2001/REC-SVG-20010904/DTD/svg10.dtd">
<svg version="1.0" xmlns="http://www.w3.org/2000/svg"
 width="550pt" height="1000pt" viewBox="0 0 550 1000"
 preserveAspectRatio="xMidYMid meet">
<metadata>
Created by potrace 1.9, written by Peter Selinger 2001-2010
</metadata>
<g transform="translate(0,1000) scale(0.100000,-0.100000)"
fill="#000000" stroke="none">
<path d="M4150 6083 c-39 -25 -138 -142 -203 -239 -216 -326 -299 -718 -232
-1097 34 -192 92 -350 189 -510 66 -110 121 -184 328 -438 109 -135 194 -319
235 -511 24 -115 24 -370 -1 -488 -19 -93 -72 -243 -118 -333 -28 -56 -48 -67
-48 -26 0 34 -57 249 -90 339 -184 503 -569 925 -1055 1156 -280 133 -574 198
-895 198 -562 0 -1078 -212 -1470 -604 -323 -323 -524 -732 -586 -1190 -12
-88 -24 -139 -42 -174 -42 -83 -21 -141 78 -209 31 -22 99 -22 130 0 37 25 48
44 56 89 5 36 15 49 67 91 169 134 340 216 547 260 117 24 363 24 480 0 209
-45 380 -127 550 -263 55 -44 67 -60 78 -99 14 -53 63 -104 187 -194 173 -126
333 -202 531 -252 415 -104 850 -29 1209 209 73 49 187 138 228 179 41 41 130
155 179 228 216 326 300 718 233 1098 -58 327 -172 536 -506 932 -262 310
-340 796 -192 1195 52 139 107 240 188 345 15 18 36 -2 468 -432 475 -474 487
-483 557 -468 39 8 87 56 95 95 4 16 2 45 -4 63 -8 23 -166 187 -529 550
l-518 517 -49 0 c-29 0 -61 -7 -75 -17z m-1617 -2214 c215 -32 478 -126 660
-235 242 -146 495 -399 641 -641 112 -188 208 -460 235 -668 24 -186 24 -189
-17 -227 -132 -125 -357 -238 -567 -284 -98 -21 -377 -24 -475 -5 -104 20
-218 59 -325 111 -111 54 -265 161 -265 185 0 108 -339 365 -615 468 -165 62
-338 92 -525 92 -187 0 -360 -31 -525 -92 -75 -28 -200 -89 -252 -124 -18 -11
-33 -18 -33 -14 0 20 43 171 70 245 97 264 227 466 430 670 318 317 699 495
1150 534 73 6 334 -3 413 -15z"/>
</g>
</svg>
