<?xml version="1.0" standalone="no"?>
<!DOCTYPE svg PUBLIC "-//W3C//DTD SVG 20010904//EN"
 "http://www.w3.org/TR/2001/REC-SVG-20010904/DTD/svg10.dtd">
<svg version="1.0" xmlns="http://www.w3.org/2000/svg"
 width="1040pt" height="1000pt" viewBox="0 0 1040 1000"
 preserveAspectRatio="xMidYMid meet">
<metadata>
Created by potrace 1.9, written by Peter Selinger 2001-2010
</metadata>
<g transform="translate(0,1000) scale(0.100000,-0.100000)"
fill="#000000" stroke="none">
<path d="M7112 6083 c-18 -9 -41 -28 -51 -42 -10 -14 -127 -244 -260 -509
-185 -369 -245 -482 -257 -478 -90 35 -263 66 -364 66 -234 0 -519 -104 -701
-256 -290 -242 -446 -650 -384 -1003 49 -281 188 -527 386 -686 41 -32 80 -64
87 -70 11 -10 -33 -105 -232 -503 -135 -270 -248 -508 -251 -529 -8 -49 19
-100 66 -125 32 -17 84 -18 1034 -18 950 0 1002 1 1034 18 36 19 71 72 71 107
0 35 -35 88 -71 107 -32 17 -81 18 -921 18 -489 0 -888 2 -888 5 0 3 90 185
200 404 l199 399 60 -18 c89 -28 226 -50 311 -50 239 0 523 106 712 265 280
236 434 647 373 994 -54 310 -207 560 -450 738 l-30 22 253 508 c139 279 253
517 252 528 0 35 -35 88 -71 107 -41 22 -64 22 -107 1z m-729 -1239 c31 -9 57
-21 57 -25 0 -14 -739 -1489 -746 -1489 -15 0 -127 106 -177 168 -66 81 -115
176 -153 297 -26 82 -29 103 -28 230 0 126 3 149 28 225 59 179 144 307 281
422 101 86 253 158 396 188 67 14 274 5 342 -16z m460 -302 c66 -81 115 -176
153 -297 26 -80 29 -104 29 -225 0 -121 -3 -145 -29 -225 -93 -295 -290 -494
-586 -591 -76 -25 -100 -28 -225 -28 -109 -1 -154 3 -202 18 l-62 18 375 750
375 749 58 -50 c32 -28 83 -81 114 -119z"/>
<path d="M9065 6081 c-27 -13 -201 -180 -531 -512 -513 -516 -526 -530 -509
-596 16 -67 79 -110 143 -98 32 5 92 61 435 403 l397 397 0 -1820 c0 -1744 1
-1822 18 -1854 19 -36 72 -71 107 -71 35 0 88 35 107 71 17 32 18 110 18 1849
l0 1815 388 -387 c403 -402 425 -420 489 -403 67 16 110 79 98 143 -5 32 -74
104 -513 546 -290 290 -521 514 -539 522 -42 18 -60 17 -108 -5z"/>
<path d="M2090 5104 c-274 -49 -517 -189 -681 -391 l-64 -80 -115 -6 c-228
-13 -432 -64 -612 -153 -190 -95 -414 -269 -460 -358 -49 -95 25 -201 128
-182 26 5 58 28 113 79 183 171 370 277 586 331 64 16 226 38 232 32 2 -2 -3
-28 -12 -58 -25 -88 -45 -218 -45 -298 0 -161 52 -359 137 -520 157 -299 445
-502 798 -564 114 -20 216 -20 330 0 324 56 611 244 763 500 l36 60 125 12
c150 14 245 33 366 73 178 59 376 172 515 294 83 74 100 100 100 159 0 39 -5
51 -35 81 -30 30 -42 35 -81 35 -48 0 -104 -30 -154 -85 -14 -15 -54 -48 -90
-75 -160 -118 -384 -208 -571 -228 l-75 -8 13 61 c79 361 -73 793 -365 1040
-241 203 -592 302 -882 249z m400 -269 c176 -56 318 -152 431 -291 68 -83 117
-178 155 -299 25 -79 29 -105 29 -220 0 -98 -5 -147 -19 -197 l-19 -68 -41 6
c-111 17 -294 83 -406 146 -84 47 -200 136 -200 153 0 30 -39 90 -87 136 -182
172 -451 326 -649 370 l-54 12 22 25 c86 91 225 177 359 221 106 35 147 40
274 37 97 -3 137 -9 205 -31z m-916 -491 c184 -46 341 -125 496 -250 55 -44
67 -60 78 -99 14 -53 63 -104 187 -194 167 -122 326 -199 513 -247 l101 -27
-42 -50 c-102 -122 -248 -217 -417 -273 -77 -25 -98 -28 -230 -28 -132 0 -153
3 -230 28 -179 59 -319 154 -431 292 -68 82 -117 177 -155 299 -26 82 -29 103
-28 230 0 130 2 147 33 238 22 67 37 97 48 97 8 0 43 -7 77 -16z"/>
<path d="M1231 2162 c-36 -19 -71 -72 -71 -107 0 -35 35 -88 71 -107 32 -17
84 -18 1034 -18 950 0 1002 1 1034 18 36 19 71 72 71 107 0 35 -35 88 -71 107
-32 17 -84 18 -1034 18 -950 0 -1002 -1 -1034 -18z"/>
</g>
</svg>
