<?xml version="1.0" standalone="no"?>
<!DOCTYPE svg PUBLIC "-//W3C//DTD SVG 20010904//EN"
 "http://www.w3.org/TR/2001/REC-SVG-20010904/DTD/svg10.dtd">
<svg version="1.0" xmlns="http://www.w3.org/2000/svg"
 width="1138pt" height="1000pt" viewBox="0 0 1138 1000"
 preserveAspectRatio="xMidYMid meet">
<metadata>
Created by potrace 1.9, written by Peter Selinger 2001-2010
</metadata>
<g transform="translate(0,1000) scale(0.100000,-0.100000)"
fill="#000000" stroke="none">
<path d="M1231 6082 c-19 -10 -43 -34 -53 -53 -17 -32 -18 -113 -18 -1941 l0
-1908 -438 0 c-404 0 -440 -1 -471 -18 -36 -19 -71 -72 -71 -107 0 -35 35 -88
71 -107 32 -17 84 -18 1034 -18 950 0 1002 1 1034 18 36 19 71 72 71 107 0 35
-35 88 -71 107 -31 17 -67 18 -471 18 l-438 0 0 1908 c0 1828 -1 1909 -18
1941 -19 36 -72 71 -107 71 -11 0 -36 -8 -54 -18z"/>
<path d="M6010 6084 c-122 -22 -238 -62 -349 -121 -308 -161 -509 -452 -568
-819 -16 -100 -16 -107 6 -249 39 -253 113 -563 175 -727 l26 -68 -37 20 c-37
20 -57 20 -1038 20 -950 0 -1002 -1 -1034 -18 -36 -19 -71 -72 -71 -107 0 -35
35 -88 71 -107 32 -17 84 -18 1034 -18 950 0 1002 1 1034 18 19 10 42 33 52
51 25 46 24 46 44 -6 9 -27 45 -106 78 -177 272 -581 682 -1095 1177 -1477
106 -82 381 -267 494 -332 62 -36 87 -25 399 182 586 387 1053 928 1379 1597
l70 144 911 0 912 0 -387 -387 c-405 -408 -418 -423 -403 -493 8 -39 56 -87
95 -95 16 -4 45 -2 63 4 22 8 186 165 544 523 544 546 538 538 514 611 -8 22
-165 186 -523 544 -445 444 -518 513 -550 518 -64 12 -127 -31 -143 -98 -17
-64 1 -86 403 -489 l387 -388 -863 0 c-586 0 -862 3 -862 10 0 6 7 27 16 48
43 104 127 453 163 677 20 125 19 131 -5 283 -77 488 -428 840 -920 926 -359
63 -766 -92 -1007 -382 -35 -42 -79 -105 -98 -139 -19 -35 -36 -63 -39 -63 -3
1 -24 33 -47 73 -209 364 -689 586 -1103 511z m400 -269 c353 -114 585 -399
619 -764 5 -54 15 -107 22 -119 43 -69 175 -69 218 0 7 12 17 65 22 119 17
179 89 357 197 484 115 137 243 222 422 281 77 25 98 28 230 28 132 0 153 -3
230 -28 183 -61 317 -152 431 -292 66 -80 115 -175 155 -294 25 -76 28 -100
28 -220 0 -110 -5 -159 -27 -265 -33 -153 -94 -372 -141 -505 l-33 -95 -829
-5 c-779 -5 -831 -6 -856 -23 -28 -19 -58 -73 -58 -104 0 -33 36 -86 71 -105
32 -17 77 -18 796 -18 420 0 763 -3 763 -7 0 -13 -149 -292 -204 -380 -268
-434 -652 -837 -1081 -1135 -139 -96 -215 -139 -236 -133 -27 9 -256 165 -359
244 -403 311 -780 745 -1005 1156 -227 415 -372 837 -440 1280 -20 130 -15
201 22 318 88 280 289 485 564 576 106 35 147 40 274 37 97 -3 136 -9 205 -31z"/>
</g>
</svg>
