<?xml version="1.0" standalone="no"?>
<!DOCTYPE svg PUBLIC "-//W3C//DTD SVG 20010904//EN"
 "http://www.w3.org/TR/2001/REC-SVG-20010904/DTD/svg10.dtd">
<svg version="1.0" xmlns="http://www.w3.org/2000/svg"
 width="1432pt" height="1000pt" viewBox="0 0 1432 1000"
 preserveAspectRatio="xMidYMid meet">
<metadata>
Created by potrace 1.9, written by Peter Selinger 2001-2010
</metadata>
<g transform="translate(0,1000) scale(0.100000,-0.100000)"
fill="#000000" stroke="none">
<path d="M1231 6082 c-71 -38 -71 -35 -71 -524 l0 -438 -438 0 c-489 0 -486 0
-524 -71 -23 -42 -23 -66 0 -108 37 -70 46 -71 432 -71 l345 0 -387 -387
c-402 -404 -420 -426 -403 -490 16 -67 79 -110 143 -98 32 5 92 61 435 403
l397 397 0 -768 0 -767 -438 0 c-489 0 -486 0 -524 -71 -23 -42 -23 -66 0
-108 38 -71 35 -71 524 -71 l438 0 0 -438 c0 -489 0 -486 71 -524 42 -23 66
-23 108 0 71 38 71 35 71 524 l0 438 855 0 855 0 0 -438 c0 -489 0 -486 71
-524 42 -23 66 -23 108 0 71 38 71 35 71 524 l0 438 438 0 c489 0 486 0 524
71 23 42 23 66 0 108 -38 71 -35 71 -524 71 l-438 0 0 762 0 763 388 -387
c403 -402 425 -420 489 -403 67 16 110 79 98 143 -5 32 -61 92 -403 435 l-397
397 350 0 c392 0 400 1 437 71 23 42 23 66 0 108 -38 71 -35 71 -524 71 l-438
0 0 438 c0 404 -1 440 -18 471 -19 36 -72 71 -107 71 -35 0 -88 -35 -107 -71
-16 -31 -18 -64 -18 -384 l0 -350 -397 397 c-314 312 -405 397 -430 403 -73
15 -86 4 -495 -403 l-388 -387 0 345 c0 315 -2 348 -18 379 -19 36 -72 71
-107 71 -11 0 -36 -8 -54 -18z m1369 -627 l335 -335 -675 0 -675 0 335 335
c184 184 337 335 340 335 3 0 156 -151 340 -335z m520 -1440 l0 -855 -855 0
-855 0 0 855 0 855 855 0 855 0 0 -855z"/>
<path d="M7111 6082 c-19 -10 -43 -34 -53 -53 -17 -32 -18 -82 -18 -961 l0
-928 -928 0 c-879 0 -929 -1 -961 -18 -36 -19 -71 -72 -71 -107 0 -35 35 -88
71 -107 32 -17 82 -18 961 -18 l928 0 0 -928 c0 -879 1 -929 18 -961 19 -36
72 -71 107 -71 35 0 88 35 107 71 17 32 18 82 18 961 l0 928 762 0 763 0 -387
-387 c-405 -408 -418 -423 -403 -493 8 -39 56 -87 95 -95 16 -4 45 -2 63 4 22
8 186 165 544 523 544 546 538 538 514 611 -8 22 -165 186 -523 544 -445 444
-518 513 -550 518 -64 12 -127 -31 -143 -98 -17 -64 1 -86 403 -489 l387 -388
-763 0 -762 0 0 928 c0 879 -1 929 -18 961 -19 36 -72 71 -107 71 -11 0 -36
-8 -54 -18z"/>
<path d="M10917 4619 c-338 -39 -643 -180 -875 -404 -70 -67 -95 -99 -101
-125 -21 -96 61 -174 154 -149 22 6 66 39 118 87 150 142 262 212 438 276 158
57 233 69 424 69 191 0 266 -12 424 -69 120 -44 226 -100 316 -169 91 -69 120
-101 135 -149 29 -90 294 -283 514 -372 461 -188 991 -134 1410 143 100 67
215 165 240 205 9 14 16 47 16 72 0 39 -5 51 -35 81 -30 30 -42 35 -81 35 -48
0 -104 -30 -154 -85 -106 -114 -365 -245 -575 -291 -98 -21 -377 -24 -475 -5
-173 34 -372 120 -505 219 -67 49 -83 66 -93 99 -25 83 -249 269 -457 379
-234 124 -567 185 -838 153z"/>
</g>
</svg>
