<?xml version="1.0" standalone="no"?>
<!DOCTYPE svg PUBLIC "-//W3C//DTD SVG 20010904//EN"
 "http://www.w3.org/TR/2001/REC-SVG-20010904/DTD/svg10.dtd">
<svg version="1.0" xmlns="http://www.w3.org/2000/svg"
 width="648pt" height="1000pt" viewBox="0 0 648 1000"
 preserveAspectRatio="xMidYMid meet">
<metadata>
Created by potrace 1.9, written by Peter Selinger 2001-2010
</metadata>
<g transform="translate(0,1000) scale(0.100000,-0.100000)"
fill="#000000" stroke="none">
<path d="M3192 8044 c-18 -9 -41 -29 -51 -43 -40 -56 -501 -992 -506 -1028
-11 -74 61 -150 132 -139 68 10 76 22 280 430 l195 391 193 -385 c200 -398
216 -423 282 -436 39 -7 95 18 118 53 41 62 45 53 -233 609 -194 389 -267 525
-287 538 -39 25 -85 29 -123 10z"/>
<path d="M1204 4111 c-21 -16 -256 -246 -520 -512 -503 -505 -516 -520 -499
-586 16 -67 79 -110 143 -98 32 5 93 62 443 412 224 223 409 401 411 397 3 -5
9 -31 12 -59 4 -27 20 -102 36 -165 184 -731 759 -1306 1490 -1490 197 -49
316 -64 520 -64 204 0 323 15 520 64 656 165 1197 654 1430 1290 34 93 85 287
96 365 3 28 9 54 12 59 2 4 185 -172 406 -392 418 -417 438 -434 503 -417 67
16 110 79 98 143 -5 32 -73 104 -513 545 -279 280 -519 515 -534 523 -35 18
-98 18 -123 0 -11 -8 -240 -235 -510 -505 -306 -306 -497 -505 -508 -528 -31
-67 -6 -137 60 -168 76 -36 72 -40 485 372 l377 376 -24 -94 c-43 -167 -121
-359 -202 -492 -145 -241 -400 -496 -640 -641 -184 -110 -440 -201 -668 -237
-103 -16 -427 -16 -530 0 -228 36 -484 127 -668 237 -240 145 -495 400 -640
641 -81 133 -159 325 -202 492 l-24 94 372 -370 c391 -389 408 -403 477 -388
40 9 88 58 95 99 4 18 1 46 -7 64 -11 28 -978 1008 -1033 1048 -34 24 -97 18
-141 -15z"/>
</g>
</svg>
