<?xml version="1.0" standalone="no"?>
<!DOCTYPE svg PUBLIC "-//W3C//DTD SVG 20010904//EN"
 "http://www.w3.org/TR/2001/REC-SVG-20010904/DTD/svg10.dtd">
<svg version="1.0" xmlns="http://www.w3.org/2000/svg"
 width="942pt" height="1000pt" viewBox="0 0 942 1000"
 preserveAspectRatio="xMidYMid meet">
<metadata>
Created by potrace 1.9, written by Peter Selinger 2001-2010
</metadata>
<g transform="translate(0,1000) scale(0.100000,-0.100000)"
fill="#000000" stroke="none">
<path d="M2205 6081 c-57 -27 -1988 -1962 -2010 -2013 -13 -33 -15 -161 -15
-1035 0 -948 1 -1000 18 -1032 10 -19 34 -43 53 -53 32 -17 115 -18 2014 -18
1899 0 1982 1 2014 18 19 10 43 34 53 53 17 32 18 84 18 1032 0 834 -2 1003
-14 1030 -18 42 -1991 2013 -2029 2027 -39 14 -56 13 -102 -9z m977 -1208
l918 -918 0 -887 0 -888 -1835 0 -1835 0 0 892 0 893 912 912 c502 502 915
913 918 913 3 0 418 -413 922 -917z"/>
<path d="M6010 6084 c-270 -49 -508 -184 -674 -383 -76 -91 -164 -253 -200
-367 -58 -188 -56 -123 -56 -1779 0 -1453 1 -1522 18 -1554 10 -19 34 -43 53
-53 32 -17 115 -18 2014 -18 1899 0 1982 1 2014 18 19 10 43 34 53 53 17 32
18 99 18 1513 0 1606 1 1578 -56 1781 -115 417 -449 712 -890 789 -359 63
-766 -92 -1007 -382 -35 -42 -79 -105 -98 -139 -19 -35 -36 -63 -39 -63 -3 1
-24 33 -47 73 -209 364 -689 586 -1103 511z m400 -269 c118 -38 213 -88 294
-154 191 -155 302 -365 326 -618 6 -68 10 -625 10 -1485 l0 -1378 -855 0 -855
0 2 1483 3 1482 29 85 c98 290 292 488 567 579 106 35 147 40 274 37 97 -3
136 -9 205 -31z m1960 0 c118 -38 213 -88 294 -154 191 -155 302 -365 326
-618 6 -68 10 -625 10 -1485 l0 -1378 -855 0 -855 0 2 1483 3 1482 29 85 c98
290 292 488 567 579 106 35 147 40 274 37 97 -3 136 -9 205 -31z"/>
</g>
</svg>
