<?xml version="1.0" standalone="no"?>
<!DOCTYPE svg PUBLIC "-//W3C//DTD SVG 20010904//EN"
 "http://www.w3.org/TR/2001/REC-SVG-20010904/DTD/svg10.dtd">
<svg version="1.0" xmlns="http://www.w3.org/2000/svg"
 width="1432pt" height="1000pt" viewBox="0 0 1432 1000"
 preserveAspectRatio="xMidYMid meet">
<metadata>
Created by potrace 1.9, written by Peter Selinger 2001-2010
</metadata>
<g transform="translate(0,1000) scale(0.100000,-0.100000)"
fill="#000000" stroke="none">
<path d="M1721 8042 c-19 -10 -43 -34 -53 -53 -17 -31 -18 -69 -18 -544 0
-475 1 -513 18 -544 10 -19 34 -43 53 -53 31 -17 69 -18 544 -18 475 0 513 1
544 18 19 10 43 34 53 53 17 31 18 69 18 544 0 475 -1 513 -18 544 -10 19 -34
43 -53 53 -31 17 -69 18 -544 18 -475 0 -513 -1 -544 -18z m909 -597 l0 -365
-365 0 -365 0 0 365 0 365 365 0 365 0 0 -365z"/>
<path d="M2211 6082 c-19 -10 -43 -34 -53 -53 -17 -32 -18 -82 -18 -961 l0
-928 -928 0 c-879 0 -929 -1 -961 -18 -36 -19 -71 -72 -71 -107 0 -35 35 -88
71 -107 32 -17 82 -18 961 -18 l928 0 0 -928 c0 -879 1 -929 18 -961 19 -36
72 -71 107 -71 35 0 88 35 107 71 17 32 18 82 18 961 l0 928 928 0 c879 0 929
1 961 18 36 19 71 72 71 107 0 35 -35 88 -71 107 -32 17 -82 18 -961 18 l-928
0 0 928 c0 879 -1 929 -18 961 -19 36 -72 71 -107 71 -11 0 -36 -8 -54 -18z"/>
<path d="M11989 6083 c-44 -27 -51 -51 -65 -214 -15 -182 -18 -201 -50 -329
-82 -329 -238 -604 -484 -850 -246 -246 -521 -402 -850 -484 -128 -32 -147
-35 -329 -50 -88 -8 -166 -19 -178 -26 -73 -46 -70 -172 5 -212 60 -31 354 -5
582 52 530 134 985 474 1266 948 l49 82 5 -1492 c5 -1419 6 -1494 23 -1520 19
-27 72 -58 102 -58 30 0 83 31 102 58 17 26 18 101 23 1512 l5 1485 44 -75
c120 -204 334 -445 516 -580 168 -125 392 -249 533 -294 28 -10 52 -21 52 -24
0 -4 -198 -205 -440 -447 -483 -483 -485 -485 -461 -568 11 -36 81 -111 509
-540 521 -521 542 -539 608 -523 68 17 111 80 99 144 -5 32 -68 99 -466 497
l-459 460 453 452 452 452 93 -15 c124 -20 320 -23 354 -6 74 40 77 167 5 212
-12 7 -90 18 -178 26 -182 15 -201 18 -329 50 -165 41 -358 119 -493 200 -240
145 -495 400 -640 641 -82 135 -160 327 -201 493 -32 128 -35 147 -50 329 -8
88 -19 166 -26 178 -32 51 -127 70 -181 36z"/>
<path d="M6017 4619 c-338 -39 -643 -180 -875 -404 -70 -67 -95 -99 -101 -125
-21 -96 61 -174 154 -149 22 6 66 39 118 87 150 142 262 212 438 276 158 57
233 69 424 69 191 0 266 -12 424 -69 120 -44 226 -100 316 -169 91 -69 120
-101 135 -149 29 -90 294 -283 514 -372 461 -188 991 -134 1410 143 100 67
215 165 240 205 9 14 16 47 16 72 0 39 -5 51 -35 81 -30 30 -42 35 -81 35 -48
0 -104 -30 -154 -85 -106 -114 -365 -245 -575 -291 -98 -21 -377 -24 -475 -5
-173 34 -372 120 -505 219 -67 49 -83 66 -93 99 -25 83 -249 269 -457 379
-234 124 -567 185 -838 153z"/>
</g>
</svg>
