<?xml version="1.0" standalone="no"?>
<!DOCTYPE svg PUBLIC "-//W3C//DTD SVG 20010904//EN"
 "http://www.w3.org/TR/2001/REC-SVG-20010904/DTD/svg10.dtd">
<svg version="1.0" xmlns="http://www.w3.org/2000/svg"
 width="452pt" height="1000pt" viewBox="0 0 452 1000"
 preserveAspectRatio="xMidYMid meet">
<metadata>
Created by potrace 1.9, written by Peter Selinger 2001-2010
</metadata>
<g transform="translate(0,1000) scale(0.100000,-0.100000)"
fill="#000000" stroke="none">
<path d="M1160 4624 c-14 -2 -59 -9 -100 -15 -220 -31 -402 -100 -597 -225
-150 -97 -271 -203 -305 -268 -49 -95 25 -201 128 -182 26 5 58 28 113 79 118
111 206 173 326 232 208 101 330 129 555 129 162 0 260 -14 385 -56 84 -28
234 -100 292 -139 63 -43 143 -109 142 -117 -6 -40 7 -62 79 -130 261 -248
574 -390 931 -423 261 -25 543 28 786 146 113 54 251 146 337 222 37 32 78 66
93 76 39 27 59 77 51 123 -6 32 -25 56 -104 134 -150 147 -346 268 -542 334
-334 111 -659 111 -990 -1 -153 -52 -303 -133 -434 -235 l-48 -38 -27 21 c-58
45 -225 151 -289 182 -189 95 -397 145 -627 152 -71 2 -141 2 -155 -1z m2324
-269 c176 -36 368 -123 501 -228 87 -67 88 -61 -14 -136 -129 -95 -319 -180
-486 -217 -98 -21 -377 -24 -475 -5 -104 20 -218 59 -325 111 -108 52 -265
161 -265 184 0 19 129 116 220 165 131 70 295 123 432 141 100 12 317 4 412
-15z"/>
</g>
</svg>
