<?xml version="1.0" standalone="no"?>
<!DOCTYPE svg PUBLIC "-//W3C//DTD SVG 20010904//EN"
 "http://www.w3.org/TR/2001/REC-SVG-20010904/DTD/svg10.dtd">
<svg version="1.0" xmlns="http://www.w3.org/2000/svg"
 width="1236pt" height="1000pt" viewBox="0 0 1236 1000"
 preserveAspectRatio="xMidYMid meet">
<metadata>
Created by potrace 1.9, written by Peter Selinger 2001-2010
</metadata>
<g transform="translate(0,1000) scale(0.100000,-0.100000)"
fill="#000000" stroke="none">
<path d="M1231 6082 c-19 -10 -43 -34 -53 -53 -17 -32 -18 -113 -18 -1941 l0
-1908 -438 0 c-404 0 -440 -1 -471 -18 -36 -19 -71 -72 -71 -107 0 -35 35 -88
71 -107 32 -17 84 -18 1034 -18 950 0 1002 1 1034 18 36 19 71 72 71 107 0 35
-35 88 -71 107 -31 17 -67 18 -471 18 l-438 0 0 1908 c0 1828 -1 1909 -18
1941 -19 36 -72 71 -107 71 -11 0 -36 -8 -54 -18z"/>
<path d="M9071 6082 c-71 -38 -71 -35 -71 -524 l0 -438 -438 0 c-404 0 -440
-1 -471 -18 -36 -19 -71 -72 -71 -107 0 -35 35 -88 71 -107 31 -16 64 -18 379
-18 l345 0 -387 -387 c-402 -404 -420 -426 -403 -490 16 -67 79 -110 143 -98
32 5 92 61 435 403 l397 397 0 -768 0 -767 -438 0 c-489 0 -486 0 -524 -71
-23 -42 -23 -66 0 -108 38 -71 35 -71 524 -71 l438 0 0 -438 c0 -404 1 -440
18 -471 19 -36 72 -71 107 -71 35 0 88 35 107 71 17 31 18 67 18 471 l0 438
855 0 855 0 0 -438 c0 -489 0 -486 71 -524 42 -23 66 -23 108 0 71 38 71 35
71 524 l0 438 438 0 c489 0 486 0 524 71 23 42 23 66 0 108 -38 71 -35 71
-524 71 l-438 0 0 762 0 763 388 -387 c403 -402 425 -420 489 -403 67 16 110
79 98 143 -5 32 -61 92 -403 435 l-397 397 350 0 c320 0 353 2 384 18 36 19
71 72 71 107 0 35 -35 88 -71 107 -31 17 -67 18 -471 18 l-438 0 0 438 c0 404
-1 440 -18 471 -19 36 -72 71 -107 71 -35 0 -88 -35 -107 -71 -16 -31 -18 -64
-18 -384 l0 -350 -397 397 c-314 312 -405 397 -430 403 -73 15 -86 4 -495
-403 l-388 -387 0 345 c0 315 -2 348 -18 379 -19 36 -72 71 -107 71 -11 0 -36
-8 -54 -18z m1369 -627 l335 -335 -675 0 -675 0 335 335 c184 184 337 335 340
335 3 0 156 -151 340 -335z m520 -1440 l0 -855 -855 0 -855 0 0 855 0 855 855
0 855 0 0 -855z"/>
<path d="M5145 4121 c-57 -27 -1988 -1962 -2010 -2013 -8 -21 -15 -45 -15 -55
0 -33 36 -86 71 -105 32 -17 115 -18 2014 -18 1904 0 1982 1 2015 18 46 25 74
81 65 130 -6 33 -119 150 -1003 1036 -583 583 -1010 1004 -1029 1012 -42 18
-60 17 -108 -5z m885 -1116 l825 -825 -1655 0 -1655 0 825 825 c454 454 827
825 830 825 3 0 376 -371 830 -825z"/>
</g>
</svg>
