<?xml version="1.0" standalone="no"?>
<!DOCTYPE svg PUBLIC "-//W3C//DTD SVG 20010904//EN"
 "http://www.w3.org/TR/2001/REC-SVG-20010904/DTD/svg10.dtd">
<svg version="1.0" xmlns="http://www.w3.org/2000/svg"
 width="942pt" height="1000pt" viewBox="0 0 942 1000"
 preserveAspectRatio="xMidYMid meet">
<metadata>
Created by potrace 1.9, written by Peter Selinger 2001-2010
</metadata>
<g transform="translate(0,1000) scale(0.100000,-0.100000)"
fill="#000000" stroke="none">
<path d="M2212 8044 c-18 -9 -41 -29 -51 -43 -40 -56 -501 -992 -506 -1028
-11 -74 61 -150 132 -139 68 10 76 22 280 430 l195 391 193 -385 c200 -398
216 -423 282 -436 39 -7 95 18 118 53 41 62 45 53 -233 609 -194 389 -267 525
-287 538 -39 25 -85 29 -123 10z"/>
<path d="M2115 6094 c-172 -14 -419 -67 -575 -124 -565 -207 -1023 -665 -1230
-1230 -88 -241 -154 -660 -120 -766 10 -32 195 -223 994 -1023 967 -969 1021
-1020 1081 -1021 34 0 88 35 107 71 17 31 18 67 18 471 l0 438 438 0 c489 0
486 0 524 71 17 32 18 84 18 1034 0 950 -1 1002 -18 1034 -38 71 -35 71 -524
71 l-438 0 0 360 0 360 36 0 c95 0 309 -47 454 -100 264 -97 466 -227 670
-430 246 -246 402 -521 484 -850 32 -128 35 -147 50 -329 8 -88 19 -166 26
-178 45 -72 172 -69 212 5 18 34 14 225 -7 362 -71 458 -269 853 -585 1170
-378 377 -876 590 -1416 604 -82 2 -171 2 -199 0z m25 -614 l0 -360 -438 0
c-489 0 -486 0 -524 -71 -17 -32 -18 -79 -18 -874 l0 -840 -365 365 -365 365
6 75 c18 245 72 449 174 668 168 359 503 694 862 862 206 96 460 166 616 169
l52 1 0 -360z m0 -1465 l0 -855 -365 0 -365 0 0 855 0 855 365 0 365 0 0 -855z
m980 0 l0 -855 -365 0 -365 0 0 855 0 855 365 0 365 0 0 -855z m-980 -1380 c0
-151 -1 -275 -3 -275 -1 0 -126 124 -277 275 l-275 275 278 0 277 0 0 -275z"/>
<path d="M7015 6094 c-684 -55 -1279 -418 -1631 -994 -199 -327 -298 -686
-298 -1080 0 -204 15 -323 64 -520 184 -731 759 -1306 1490 -1490 197 -49 316
-64 520 -64 557 0 1074 211 1461 595 324 322 531 737 593 1184 38 278 38 313
0 590 -114 830 -724 1511 -1534 1715 -63 15 -161 36 -216 44 -102 16 -357 27
-449 20z m25 -1177 c0 -874 1 -924 18 -956 10 -19 34 -43 53 -53 32 -17 82
-18 951 -18 l918 0 0 -36 c0 -143 -76 -420 -170 -622 -142 -302 -420 -607
-717 -786 -184 -110 -440 -201 -668 -237 -103 -16 -427 -16 -530 0 -228 36
-484 127 -668 237 -240 145 -495 400 -640 641 -111 184 -202 440 -238 668 -7
44 -13 163 -13 265 0 102 6 221 13 265 36 228 127 484 237 668 146 242 399
495 641 641 218 130 561 241 761 245 l52 1 0 -923z m393 912 c215 -32 478
-126 660 -235 297 -179 575 -484 717 -786 96 -205 170 -479 170 -627 l0 -41
-845 0 -845 0 0 850 0 850 36 0 c19 0 68 -5 107 -11z"/>
</g>
</svg>
