<?xml version="1.0" standalone="no"?>
<!DOCTYPE svg PUBLIC "-//W3C//DTD SVG 20010904//EN"
 "http://www.w3.org/TR/2001/REC-SVG-20010904/DTD/svg10.dtd">
<svg version="1.0" xmlns="http://www.w3.org/2000/svg"
 width="795pt" height="1000pt" viewBox="0 0 795 1000"
 preserveAspectRatio="xMidYMid meet">
<metadata>
Created by potrace 1.9, written by Peter Selinger 2001-2010
</metadata>
<g transform="translate(0,1000) scale(0.100000,-0.100000)"
fill="#000000" stroke="none">
<path d="M4165 8041 c-58 -28 -3949 -3922 -3970 -3973 -8 -21 -15 -45 -15 -55
0 -33 36 -86 71 -105 32 -17 81 -18 917 -18 l884 0 -39 -32 c-108 -91 -230
-271 -289 -428 -59 -155 -86 -376 -64 -522 77 -505 427 -865 925 -952 290 -51
619 41 870 242 84 68 187 191 238 283 18 32 34 59 37 59 3 0 20 -28 39 -63
145 -263 443 -463 776 -521 290 -51 619 41 870 242 84 68 187 191 238 283 18
32 34 59 37 59 3 0 20 -28 39 -63 145 -263 443 -463 776 -521 291 -51 619 41
870 243 191 154 332 405 380 682 50 281 -41 608 -237 855 -38 48 -88 102 -111
119 l-42 30 165 5 c185 6 204 12 235 77 37 77 47 64 -456 568 l-459 460 210
210 c217 217 238 245 225 305 -9 40 -58 88 -99 96 -71 13 -94 -7 -612 -527
-513 -516 -526 -530 -509 -596 16 -67 79 -110 143 -98 31 5 71 41 250 218
l212 212 338 -338 337 -337 -1953 0 c-1073 0 -1952 2 -1952 5 0 2 20 19 45 38
24 19 76 74 114 122 195 246 286 574 236 854 -35 202 -115 383 -235 535 -202
255 -570 421 -890 402 -58 -4 -118 -9 -135 -12 -24 -5 156 180 867 892 981
984 931 927 893 1007 -32 67 -102 91 -170 58z m-1185 -2226 c83 -27 188 -75
242 -112 l27 -19 -252 -252 -252 -252 -250 250 -250 251 25 19 c39 31 179 96
245 115 149 44 329 43 465 0z m-664 -1064 c-285 -285 -251 -271 -319 -136
-142 283 -125 588 47 852 l21 33 250 -250 250 -250 -249 -249z m1131 732 c30
-39 93 -173 119 -258 26 -80 29 -104 29 -225 0 -121 -3 -145 -29 -225 -27 -86
-89 -219 -121 -260 -15 -19 -26 -9 -268 233 l-252 252 250 250 c137 137 252
250 254 250 2 0 10 -8 18 -17z m-1790 -401 c-13 -135 0 -244 45 -397 54 -183
198 -414 315 -503 24 -18 43 -35 43 -37 0 -3 -327 -5 -727 -5 l-728 0 530 530
c291 291 530 528 531 527 1 -1 -3 -53 -9 -115z m1565 -785 c-53 -36 -158 -85
-242 -113 -77 -25 -98 -28 -230 -28 -132 0 -153 3 -230 28 -47 15 -119 46
-160 67 -134 70 -149 34 135 319 l250 250 252 -252 252 -252 -27 -19z m-242
-442 c83 -27 188 -75 242 -112 l27 -19 -252 -252 -252 -252 -250 250 -250 251
25 19 c39 31 179 96 245 115 149 44 329 43 465 0z m993 3 c-21 -18 -55 -51
-75 -73 -44 -49 -144 -195 -153 -224 -3 -11 -9 -21 -13 -21 -4 0 -21 27 -39
59 -43 78 -156 219 -204 254 -21 16 -39 31 -39 33 0 2 126 4 281 4 l281 0 -39
-32z m967 -3 c83 -27 188 -75 242 -112 l27 -19 -252 -252 -252 -252 -250 250
-250 251 25 19 c39 31 179 96 245 115 149 44 329 43 465 0z m993 3 c-21 -18
-55 -51 -75 -73 -44 -49 -144 -195 -153 -224 -3 -11 -9 -21 -13 -21 -4 0 -21
27 -39 59 -43 78 -156 219 -204 254 -21 16 -39 31 -39 33 0 2 126 4 281 4
l281 0 -39 -32z m967 -3 c83 -27 188 -75 242 -112 l27 -19 -252 -252 -252
-252 -250 250 -250 251 25 19 c39 31 179 96 245 115 149 44 329 43 465 0z
m-4584 -1064 c-285 -285 -251 -271 -319 -136 -142 283 -125 588 47 852 l21 33
250 -250 250 -250 -249 -249z m1131 732 c30 -39 93 -173 119 -258 26 -80 29
-104 29 -225 0 -121 -3 -145 -29 -225 -27 -86 -89 -219 -121 -260 -15 -19 -26
-9 -268 233 l-252 252 250 250 c137 137 252 250 254 250 2 0 10 -8 18 -17z
m829 -732 c-285 -285 -251 -271 -319 -136 -142 283 -125 588 47 852 l21 33
250 -250 250 -250 -249 -249z m1131 732 c30 -39 93 -173 119 -258 26 -80 29
-104 29 -225 0 -121 -3 -145 -29 -225 -27 -86 -89 -219 -121 -260 -15 -19 -26
-9 -268 233 l-252 252 250 250 c137 137 252 250 254 250 2 0 10 -8 18 -17z
m829 -732 c-285 -285 -251 -271 -319 -136 -142 283 -125 588 47 852 l21 33
250 -250 250 -250 -249 -249z m1131 732 c30 -39 93 -173 119 -258 26 -80 29
-104 29 -225 0 -121 -3 -145 -29 -225 -27 -86 -89 -219 -121 -260 -15 -19 -26
-9 -268 233 l-252 252 250 250 c137 137 252 250 254 250 2 0 10 -8 18 -17z
m-4145 -1186 c-53 -36 -158 -85 -242 -113 -77 -25 -98 -28 -230 -28 -132 0
-153 3 -230 28 -47 15 -119 46 -160 67 -134 70 -149 34 135 319 l250 250 252
-252 252 -252 -27 -19z m1960 0 c-53 -36 -158 -85 -242 -113 -77 -25 -98 -28
-230 -28 -132 0 -153 3 -230 28 -47 15 -119 46 -160 67 -134 70 -149 34 135
319 l250 250 252 -252 252 -252 -27 -19z m1960 0 c-53 -36 -158 -85 -242 -113
-77 -25 -98 -28 -230 -28 -132 0 -153 3 -230 28 -47 15 -119 46 -160 67 -134
70 -149 34 135 319 l250 250 252 -252 252 -252 -27 -19z"/>
</g>
</svg>
