<?xml version="1.0" standalone="no"?>
<!DOCTYPE svg PUBLIC "-//W3C//DTD SVG 20010904//EN"
 "http://www.w3.org/TR/2001/REC-SVG-20010904/DTD/svg10.dtd">
<svg version="1.0" xmlns="http://www.w3.org/2000/svg"
 width="942pt" height="1000pt" viewBox="0 0 942 1000"
 preserveAspectRatio="xMidYMid meet">
<metadata>
Created by potrace 1.9, written by Peter Selinger 2001-2010
</metadata>
<g transform="translate(0,1000) scale(0.100000,-0.100000)"
fill="#000000" stroke="none">
<path d="M251 6082 c-19 -10 -43 -34 -53 -53 -18 -33 -19 -76 -15 -1129 4
-1210 1 -1144 71 -1415 185 -720 762 -1293 1486 -1475 197 -49 316 -64 520
-64 204 0 323 15 520 64 592 149 1093 561 1356 1115 112 236 163 438 203 808
13 115 2 152 -54 187 -32 20 -47 20 -964 20 l-931 0 0 928 c0 879 -1 929 -18
961 -10 19 -34 43 -53 53 -32 17 -84 18 -1034 18 -950 0 -1002 -1 -1034 -18z
m1889 -1087 l0 -855 -855 0 -855 0 0 855 0 855 855 0 855 0 0 -855z m1940
-1141 c0 -143 -76 -420 -170 -622 -142 -302 -420 -607 -717 -786 -184 -110
-440 -201 -668 -237 -103 -16 -427 -16 -530 0 -228 36 -484 127 -668 237 -297
179 -575 484 -717 786 -94 202 -170 479 -170 622 l0 36 1820 0 1820 0 0 -36z"/>
<path d="M6017 4619 c-338 -39 -643 -180 -875 -404 -70 -67 -95 -99 -101 -125
-21 -96 61 -174 154 -149 22 6 66 39 118 87 150 142 262 212 438 276 158 57
233 69 424 69 191 0 266 -12 424 -69 120 -44 226 -100 316 -169 91 -69 120
-101 135 -149 29 -90 294 -283 514 -372 461 -188 991 -134 1410 143 100 67
215 165 240 205 9 14 16 47 16 72 0 39 -5 51 -35 81 -30 30 -42 35 -81 35 -48
0 -104 -30 -154 -85 -106 -114 -365 -245 -575 -291 -98 -21 -377 -24 -475 -5
-173 34 -372 120 -505 219 -67 49 -83 66 -93 99 -25 83 -249 269 -457 379
-234 124 -567 185 -838 153z"/>
</g>
</svg>
