<?xml version="1.0" standalone="no"?>
<!DOCTYPE svg PUBLIC "-//W3C//DTD SVG 20010904//EN"
 "http://www.w3.org/TR/2001/REC-SVG-20010904/DTD/svg10.dtd">
<svg version="1.0" xmlns="http://www.w3.org/2000/svg"
 width="942pt" height="1000pt" viewBox="0 0 942 1000"
 preserveAspectRatio="xMidYMid meet">
<metadata>
Created by potrace 1.9, written by Peter Selinger 2001-2010
</metadata>
<g transform="translate(0,1000) scale(0.100000,-0.100000)"
fill="#000000" stroke="none">
<path d="M5151 6082 c-19 -10 -43 -34 -53 -53 -17 -32 -18 -115 -18 -2014 0
-1899 1 -1982 18 -2014 19 -35 72 -71 105 -71 31 0 85 30 104 58 17 25 18 66
23 532 l5 505 44 -75 c120 -204 334 -445 516 -580 385 -286 797 -424 1265
-424 204 0 323 15 520 64 528 133 988 477 1266 948 l49 82 5 -512 c5 -474 6
-515 23 -540 19 -28 73 -58 104 -58 33 0 86 36 105 71 17 32 18 115 18 2014 0
1899 -1 1982 -18 2014 -19 35 -72 71 -105 71 -31 0 -85 -30 -104 -58 -17 -25
-18 -66 -23 -535 l-5 -507 -49 82 c-278 471 -738 815 -1266 948 -197 49 -316
64 -520 64 -204 0 -323 -15 -520 -64 -526 -133 -990 -478 -1261 -940 l-44 -75
-5 500 c-6 556 -3 535 -75 569 -43 21 -63 20 -104 -2z m1889 -1165 c0 -874 1
-924 18 -956 10 -19 34 -43 53 -53 32 -17 82 -18 951 -18 l918 0 0 -36 c0
-143 -76 -420 -170 -622 -142 -302 -420 -607 -717 -786 -184 -110 -440 -201
-668 -237 -103 -16 -427 -16 -530 0 -228 36 -484 127 -668 237 -240 145 -495
400 -640 641 -111 184 -202 440 -238 668 -7 44 -13 163 -13 265 0 102 6 221
13 265 36 228 127 484 237 668 146 242 399 495 641 641 218 130 561 241 761
245 l52 1 0 -923z m393 912 c215 -32 478 -126 660 -235 297 -179 575 -484 717
-786 96 -205 170 -479 170 -627 l0 -41 -845 0 -845 0 0 850 0 850 36 0 c19 0
68 -5 107 -11z"/>
<path d="M3675 5591 c-26 -12 -208 -188 -531 -512 -513 -516 -526 -530 -509
-596 16 -67 79 -110 143 -98 31 5 71 41 250 218 l212 212 338 -338 337 -337
-1815 0 c-1739 0 -1817 -1 -1849 -18 -36 -19 -71 -72 -71 -107 0 -35 35 -88
71 -107 28 -15 57 -18 182 -18 l149 0 -39 -32 c-108 -91 -230 -271 -289 -428
-59 -155 -86 -376 -64 -522 77 -505 427 -865 925 -952 290 -51 619 41 870 242
84 68 187 191 238 283 18 32 34 59 37 59 3 0 20 -28 39 -63 145 -263 443 -463
776 -521 291 -51 619 41 870 243 191 154 332 405 380 682 50 281 -41 608 -237
855 -38 48 -88 102 -111 119 l-42 30 165 5 c185 6 204 12 235 77 37 77 47 64
-456 568 l-459 460 214 215 c236 237 245 251 211 323 -32 67 -102 91 -170 58z
m-2165 -1736 c83 -27 188 -75 242 -112 l27 -19 -252 -252 -252 -252 -250 250
-250 251 25 19 c39 31 179 96 245 115 149 44 329 43 465 0z m993 3 c-21 -18
-55 -51 -75 -73 -44 -49 -144 -195 -153 -224 -3 -11 -9 -21 -13 -21 -4 0 -21
27 -39 59 -43 78 -156 219 -204 254 -21 16 -39 31 -39 33 0 2 126 4 281 4
l281 0 -39 -32z m967 -3 c83 -27 188 -75 242 -112 l27 -19 -252 -252 -252
-252 -250 250 -250 251 25 19 c39 31 179 96 245 115 149 44 329 43 465 0z
m-2624 -1064 c-285 -285 -251 -271 -319 -136 -142 283 -125 588 47 852 l21 33
250 -250 250 -250 -249 -249z m1131 732 c30 -39 93 -173 119 -258 26 -80 29
-104 29 -225 0 -121 -3 -145 -29 -225 -27 -86 -89 -219 -121 -260 -15 -19 -26
-9 -268 233 l-252 252 250 250 c137 137 252 250 254 250 2 0 10 -8 18 -17z
m829 -732 c-285 -285 -251 -271 -319 -136 -142 283 -125 588 47 852 l21 33
250 -250 250 -250 -249 -249z m1131 732 c30 -39 93 -173 119 -258 26 -80 29
-104 29 -225 0 -121 -3 -145 -29 -225 -27 -86 -89 -219 -121 -260 -15 -19 -26
-9 -268 233 l-252 252 250 250 c137 137 252 250 254 250 2 0 10 -8 18 -17z
m-2185 -1186 c-53 -36 -158 -85 -242 -113 -77 -25 -98 -28 -230 -28 -132 0
-153 3 -230 28 -47 15 -119 46 -160 67 -134 70 -149 34 135 319 l250 250 252
-252 252 -252 -27 -19z m1960 0 c-53 -36 -158 -85 -242 -113 -77 -25 -98 -28
-230 -28 -132 0 -153 3 -230 28 -47 15 -119 46 -160 67 -134 70 -149 34 135
319 l250 250 252 -252 252 -252 -27 -19z"/>
</g>
</svg>
