<?xml version="1.0" standalone="no"?>
<!DOCTYPE svg PUBLIC "-//W3C//DTD SVG 20010904//EN"
 "http://www.w3.org/TR/2001/REC-SVG-20010904/DTD/svg10.dtd">
<svg version="1.0" xmlns="http://www.w3.org/2000/svg"
 width="1432pt" height="1000pt" viewBox="0 0 1432 1000"
 preserveAspectRatio="xMidYMid meet">
<metadata>
Created by potrace 1.9, written by Peter Selinger 2001-2010
</metadata>
<g transform="translate(0,1000) scale(0.100000,-0.100000)"
fill="#000000" stroke="none">
<path d="M251 6082 c-19 -10 -43 -34 -53 -53 -17 -32 -18 -115 -18 -2014 0
-1899 1 -1982 18 -2014 19 -35 72 -71 105 -71 31 0 85 30 104 58 17 25 18 66
23 532 l5 505 44 -75 c120 -204 334 -445 516 -580 385 -286 797 -424 1265
-424 204 0 323 15 520 64 528 133 988 477 1266 948 l49 82 5 -512 c5 -474 6
-515 23 -540 19 -28 73 -58 104 -58 33 0 86 36 105 71 17 32 18 115 18 2014 0
1899 -1 1982 -18 2014 -19 35 -72 71 -105 71 -31 0 -85 -30 -104 -58 -17 -25
-18 -66 -23 -535 l-5 -507 -49 82 c-278 471 -738 815 -1266 948 -197 49 -316
64 -520 64 -204 0 -323 -15 -520 -64 -526 -133 -990 -478 -1261 -940 l-44 -75
-5 500 c-6 556 -3 535 -75 569 -43 21 -63 20 -104 -2z m1889 -1165 c0 -874 1
-924 18 -956 10 -19 34 -43 53 -53 32 -17 82 -18 951 -18 l918 0 0 -36 c0
-143 -76 -420 -170 -622 -142 -302 -420 -607 -717 -786 -184 -110 -440 -201
-668 -237 -103 -16 -427 -16 -530 0 -228 36 -484 127 -668 237 -240 145 -495
400 -640 641 -111 184 -202 440 -238 668 -16 103 -16 427 0 530 36 228 127
484 237 668 146 242 399 495 641 641 218 130 561 241 761 245 l52 1 0 -923z
m393 912 c215 -32 478 -126 660 -235 297 -179 575 -484 717 -786 96 -205 170
-479 170 -627 l0 -41 -845 0 -845 0 0 850 0 850 36 0 c19 0 68 -5 107 -11z"/>
<path d="M6010 6084 c-122 -22 -238 -62 -349 -121 -308 -161 -509 -452 -568
-819 -16 -100 -16 -107 6 -249 115 -747 399 -1390 872 -1976 194 -240 537
-560 764 -712 l40 -27 -795 0 c-751 0 -797 -1 -829 -18 -36 -19 -71 -72 -71
-107 0 -35 35 -88 71 -107 32 -17 115 -18 2014 -18 1899 0 1982 1 2014 18 36
19 71 72 71 107 0 35 -35 88 -71 107 -32 17 -78 18 -829 19 -751 0 -794 1
-770 17 326 223 685 578 929 920 385 540 616 1105 720 1757 20 125 19 131 -5
283 -77 488 -428 840 -920 926 -359 63 -766 -92 -1007 -382 -35 -42 -79 -105
-98 -139 -19 -35 -36 -63 -39 -63 -3 1 -24 33 -47 73 -209 364 -689 586 -1103
511z m400 -269 c353 -114 585 -399 619 -764 5 -54 15 -107 22 -119 43 -69 175
-69 218 0 7 12 17 65 22 119 17 179 89 357 197 484 115 137 243 222 422 281
77 25 98 28 230 28 132 0 153 -3 230 -28 183 -61 317 -152 431 -292 66 -80
115 -175 155 -294 25 -76 28 -100 28 -220 0 -110 -5 -159 -27 -265 -113 -532
-328 -1027 -628 -1446 -257 -359 -581 -679 -944 -931 -139 -96 -215 -139 -236
-133 -27 9 -256 165 -359 244 -403 311 -780 745 -1005 1156 -227 415 -372 837
-440 1280 -20 130 -15 201 22 318 88 280 289 485 564 576 106 35 147 40 274
37 97 -3 136 -9 205 -31z"/>
<path d="M11890 5104 c-275 -50 -519 -191 -681 -392 l-64 -81 -65 -1 c-389 -3
-769 -156 -1038 -415 -70 -67 -95 -99 -101 -125 -21 -96 61 -174 154 -149 22
6 66 39 118 87 45 43 107 96 137 119 106 80 276 158 427 197 59 16 234 38 240
32 3 -2 -3 -28 -12 -58 -25 -88 -45 -218 -45 -298 0 -161 52 -359 137 -520
157 -299 445 -502 798 -564 114 -20 216 -20 330 0 324 56 611 244 763 500 l36
60 125 12 c150 14 245 33 366 73 178 59 376 172 515 294 83 74 100 100 100
159 0 39 -5 51 -35 81 -30 30 -42 35 -81 35 -48 0 -104 -30 -154 -85 -14 -15
-54 -48 -90 -75 -160 -118 -384 -208 -571 -228 l-75 -8 13 61 c79 361 -73 793
-365 1040 -241 203 -592 302 -882 249z m400 -269 c176 -56 318 -152 431 -291
68 -83 117 -178 155 -299 25 -79 29 -105 29 -220 0 -98 -5 -147 -19 -197 l-19
-68 -41 6 c-64 10 -202 52 -280 85 -95 40 -167 81 -251 144 -57 42 -73 60 -83
92 -24 81 -244 265 -450 376 -75 40 -282 117 -316 117 -18 0 -18 2 5 26 87 93
225 179 360 223 106 35 147 40 274 37 97 -3 137 -9 205 -31z m-820 -521 c132
-45 244 -103 340 -175 95 -72 124 -104 140 -153 15 -45 72 -102 185 -185 167
-122 326 -199 513 -247 l101 -27 -42 -50 c-102 -122 -248 -217 -417 -273 -77
-25 -98 -28 -230 -28 -132 0 -153 3 -230 28 -179 59 -319 154 -431 292 -68 82
-117 177 -155 299 -26 82 -29 103 -28 230 0 131 2 147 33 239 l33 98 41 -6
c23 -4 89 -23 147 -42z"/>
<path d="M11031 2162 c-36 -19 -71 -72 -71 -107 0 -35 35 -88 71 -107 32 -17
84 -18 1034 -18 950 0 1002 1 1034 18 36 19 71 72 71 107 0 35 -35 88 -71 107
-32 17 -84 18 -1034 18 -950 0 -1002 -1 -1034 -18z"/>
</g>
</svg>
