<?xml version="1.0" standalone="no"?>
<!DOCTYPE svg PUBLIC "-//W3C//DTD SVG 20010904//EN"
 "http://www.w3.org/TR/2001/REC-SVG-20010904/DTD/svg10.dtd">
<svg version="1.0" xmlns="http://www.w3.org/2000/svg"
 width="256pt" height="1000pt" viewBox="0 0 256 1000"
 preserveAspectRatio="xMidYMid meet">
<metadata>
Created by potrace 1.9, written by Peter Selinger 2001-2010
</metadata>
<g transform="translate(0,1000) scale(0.100000,-0.100000)"
fill="#000000" stroke="none">
<path d="M251 6082 c-36 -19 -71 -72 -71 -107 0 -35 35 -88 71 -107 28 -15 58
-18 184 -18 l150 0 -42 -36 c-118 -99 -254 -311 -307 -480 -73 -235 -73 -423
0 -663 52 -173 184 -380 311 -490 l48 -40 -155 -1 c-176 0 -209 -10 -242 -71
-23 -42 -23 -66 0 -108 38 -71 35 -71 524 -71 l438 0 0 -855 0 -855 -438 0
c-404 0 -440 -1 -471 -18 -36 -19 -71 -72 -71 -107 0 -35 35 -88 71 -107 32
-17 84 -18 1034 -18 950 0 1002 1 1034 18 36 19 71 72 71 107 0 35 -35 88 -71
107 -31 17 -67 18 -471 18 l-438 0 0 855 0 855 438 0 c489 0 486 0 524 71 23
42 23 66 0 108 -33 62 -66 71 -244 71 l-158 0 83 83 c167 166 268 367 312 618
56 318 -65 687 -306 931 l-77 78 151 0 c128 0 158 3 186 18 36 19 71 72 71
107 0 35 -35 88 -71 107 -32 17 -84 18 -1034 18 -950 0 -1002 -1 -1034 -18z
m1259 -267 c176 -56 318 -152 431 -291 68 -83 117 -178 155 -299 26 -80 29
-104 29 -225 0 -121 -3 -145 -29 -225 -93 -295 -290 -493 -586 -591 -77 -25
-98 -28 -230 -28 -132 0 -153 3 -230 28 -179 59 -319 154 -431 292 -68 82
-117 177 -155 299 -26 82 -29 103 -28 230 0 126 3 149 28 225 95 288 291 488
567 579 106 35 147 40 274 37 97 -3 137 -9 205 -31z"/>
</g>
</svg>
