<?xml version="1.0" standalone="no"?>
<!DOCTYPE svg PUBLIC "-//W3C//DTD SVG 20010904//EN"
 "http://www.w3.org/TR/2001/REC-SVG-20010904/DTD/svg10.dtd">
<svg version="1.0" xmlns="http://www.w3.org/2000/svg"
 width="1236pt" height="1000pt" viewBox="0 0 1236 1000"
 preserveAspectRatio="xMidYMid meet">
<metadata>
Created by potrace 1.9, written by Peter Selinger 2001-2010
</metadata>
<g transform="translate(0,1000) scale(0.100000,-0.100000)"
fill="#000000" stroke="none">
<path d="M2115 6094 c-684 -55 -1279 -418 -1631 -994 -178 -294 -280 -628
-299 -990 -7 -132 5 -169 66 -202 32 -17 110 -18 1849 -18 l1815 0 -387 -387
c-402 -404 -420 -426 -403 -490 16 -67 79 -110 143 -98 32 5 92 61 435 403
l397 397 0 -840 c0 -795 1 -842 18 -874 19 -36 72 -71 107 -71 35 0 88 35 107
71 17 32 18 115 18 2014 0 1899 -1 1982 -18 2014 -19 35 -72 71 -105 71 -31 0
-85 -30 -104 -58 -17 -25 -18 -66 -23 -535 l-5 -507 -49 82 c-242 408 -624
726 -1066 888 -108 39 -286 84 -416 104 -102 16 -357 27 -449 20z m418 -265
c215 -32 478 -126 660 -235 242 -146 495 -399 641 -641 77 -130 158 -326 197
-478 11 -44 22 -89 26 -100 3 -11 -165 150 -373 357 -326 324 -384 378 -416
383 -64 12 -127 -31 -143 -98 -17 -64 1 -86 403 -489 l387 -388 -1738 0 -1737
0 0 41 c0 148 74 422 170 627 168 359 503 694 862 862 210 98 418 154 648 174
73 6 334 -3 413 -15z"/>
<path d="M8091 6082 c-36 -19 -71 -73 -71 -107 1 -60 52 -114 999 -1060 l961
-960 0 -887 0 -888 -928 0 c-879 0 -929 -1 -961 -18 -36 -19 -71 -72 -71 -107
0 -35 35 -88 71 -107 32 -17 115 -18 2014 -18 1899 0 1982 1 2014 18 36 19 71
72 71 107 0 35 -35 88 -71 107 -32 17 -82 18 -961 18 l-928 0 0 893 0 892 970
970 c687 686 973 980 981 1003 6 17 8 46 4 62 -8 39 -56 87 -95 95 -73 16 -53
35 -1048 -959 l-942 -941 -943 942 c-531 531 -954 947 -970 953 -39 14 -57 13
-96 -8z"/>
<path d="M5151 4122 c-36 -19 -71 -72 -71 -107 0 -35 35 -88 71 -107 32 -17
84 -18 1034 -18 950 0 1002 1 1034 18 36 19 71 72 71 107 0 35 -35 88 -71 107
-32 17 -84 18 -1034 18 -950 0 -1002 -1 -1034 -18z"/>
</g>
</svg>
