<?xml version="1.0" standalone="no"?>
<!DOCTYPE svg PUBLIC "-//W3C//DTD SVG 20010904//EN"
 "http://www.w3.org/TR/2001/REC-SVG-20010904/DTD/svg10.dtd">
<svg version="1.0" xmlns="http://www.w3.org/2000/svg"
 width="1628pt" height="1000pt" viewBox="0 0 1628 1000"
 preserveAspectRatio="xMidYMid meet">
<metadata>
Created by potrace 1.9, written by Peter Selinger 2001-2010
</metadata>
<g transform="translate(0,1000) scale(0.100000,-0.100000)"
fill="#000000" stroke="none">
<path d="M4165 8041 c-57 -27 -1988 -1962 -2010 -2013 -13 -33 -15 -260 -15
-2015 0 -1897 1 -1980 18 -2012 10 -19 34 -43 53 -53 32 -17 115 -18 2011 -18
1350 0 1986 3 2005 10 38 14 2011 1985 2029 2027 12 27 14 336 14 2010 0 1897
-1 1980 -18 2012 -10 19 -34 43 -53 53 -32 17 -115 18 -2014 18 -1916 0 -1981
-1 -2020 -19z m2815 -1086 l-855 -855 -1780 0 -1780 0 855 855 855 855 1780 0
1780 0 -855 -855z m185 -3735 l-855 -855 0 1780 0 1780 853 853 852 852 3
-1777 2 -1778 -855 -855z m-1105 795 l0 -1835 -1835 0 -1835 0 0 1835 0 1835
1835 0 1835 0 0 -1835z"/>
<path d="M12991 7062 c-71 -38 -71 -35 -71 -524 l0 -438 -438 0 c-489 0 -486
0 -524 -71 -17 -32 -18 -115 -18 -2014 0 -1899 1 -1982 18 -2014 38 -71 35
-71 524 -71 l438 0 0 -438 c0 -489 0 -486 71 -524 42 -23 66 -23 108 0 71 38
71 35 71 524 l0 438 855 0 855 0 0 -438 c0 -404 1 -440 18 -471 19 -36 72 -71
107 -71 35 0 88 35 107 71 17 31 18 67 18 471 l0 438 438 0 c489 0 486 0 524
71 17 32 18 115 18 2014 0 1899 -1 1982 -18 2014 -38 71 -35 71 -524 71 l-438
0 0 438 c0 404 -1 440 -18 471 -19 36 -72 71 -107 71 -35 0 -88 -35 -107 -71
-17 -31 -18 -67 -18 -471 l0 -438 -855 0 -855 0 0 438 c0 404 -1 440 -18 471
-19 36 -72 71 -107 71 -11 0 -36 -8 -54 -18z m2869 -3047 l0 -1835 -1835 0
-1835 0 0 1835 0 1835 1835 0 1835 0 0 -1835z"/>
<path d="M10063 5123 c-33 -6 -79 -57 -86 -92 -26 -127 122 -210 212 -120 43
42 49 93 18 156 -20 42 -87 68 -144 56z"/>
<path d="M715 4133 c-256 -40 -449 -208 -510 -443 -21 -81 -24 -188 -7 -222
29 -54 115 -75 172 -41 38 22 48 43 64 139 17 99 43 152 107 216 74 74 144
103 249 103 71 0 94 -5 142 -27 111 -51 206 -178 211 -280 2 -41 -16 -70 -472
-753 -261 -390 -479 -726 -485 -746 -12 -47 16 -104 64 -131 32 -17 68 -18
545 -18 475 0 513 1 544 18 35 19 71 72 71 105 0 31 -30 85 -58 104 -25 16
-62 18 -420 23 l-392 5 426 638 c234 351 430 651 435 665 11 27 8 46 -28 202
-45 198 -218 372 -420 424 -66 17 -189 27 -238 19z"/>
<path d="M9071 4122 c-36 -19 -71 -72 -71 -107 0 -35 35 -88 71 -107 32 -17
84 -18 1034 -18 950 0 1002 1 1034 18 36 19 71 72 71 107 0 35 -35 88 -71 107
-32 17 -84 18 -1034 18 -950 0 -1002 -1 -1034 -18z"/>
<path d="M10063 3163 c-33 -6 -79 -57 -86 -92 -26 -127 122 -210 212 -120 43
42 49 93 18 156 -20 42 -87 68 -144 56z"/>
</g>
</svg>
