<?xml version="1.0" standalone="no"?>
<!DOCTYPE svg PUBLIC "-//W3C//DTD SVG 20010904//EN"
 "http://www.w3.org/TR/2001/REC-SVG-20010904/DTD/svg10.dtd">
<svg version="1.0" xmlns="http://www.w3.org/2000/svg"
 width="844pt" height="1000pt" viewBox="0 0 844 1000"
 preserveAspectRatio="xMidYMid meet">
<metadata>
Created by potrace 1.9, written by Peter Selinger 2001-2010
</metadata>
<g transform="translate(0,1000) scale(0.100000,-0.100000)"
fill="#000000" stroke="none">
<path d="M3070 6084 c-194 -35 -394 -125 -531 -240 -290 -242 -446 -650 -384
-1003 50 -285 189 -528 395 -694 100 -79 275 -169 395 -202 50 -13 138 -31
196 -40 99 -14 112 -14 226 5 66 11 158 31 204 46 85 26 248 106 306 150 17
13 35 24 40 24 4 0 254 -246 556 -548 l547 -547 -445 -445 c-466 -466 -487
-491 -471 -556 17 -68 80 -111 144 -99 32 5 98 68 494 463 l458 457 452 -452
c473 -470 490 -485 555 -468 67 16 110 79 98 143 -5 32 -68 99 -466 497 l-459
460 550 550 c486 486 552 548 567 538 167 -117 346 -186 564 -218 99 -14 112
-14 227 5 160 26 285 68 407 135 308 170 493 448 556 833 18 108 18 123 4 221
-77 533 -420 896 -930 985 -224 39 -459 -2 -684 -121 -301 -158 -503 -444
-565 -799 -28 -160 -17 -307 40 -493 27 -90 118 -274 161 -325 l25 -29 -551
-551 -551 -551 -550 550 -550 550 35 49 c96 135 163 311 196 514 18 108 18
123 4 221 -57 391 -248 683 -560 856 -221 122 -481 170 -705 129z m50 -604 l0
-360 -360 0 c-308 0 -360 2 -360 14 0 30 53 183 87 251 70 140 221 293 358
363 71 36 225 91 258 92 16 0 17 -24 17 -360z m352 334 c287 -90 495 -298 582
-585 14 -47 26 -90 26 -97 0 -9 -86 -12 -355 -12 l-355 0 0 360 c0 220 4 360
9 360 6 0 47 -12 93 -26z m3568 -334 l0 -360 -360 0 c-308 0 -360 2 -360 14 0
30 53 183 87 251 70 140 221 293 358 363 71 36 225 91 258 92 16 0 17 -24 17
-360z m352 334 c287 -90 495 -298 582 -585 14 -47 26 -90 26 -97 0 -9 -86 -12
-355 -12 l-355 0 0 360 c0 220 4 360 9 360 6 0 47 -12 93 -26z m-4272 -1299
c0 -303 -2 -355 -14 -355 -33 0 -186 54 -257 91 -144 75 -291 222 -362 364
-29 59 -87 223 -87 248 0 4 162 7 360 7 l360 0 0 -355z m960 348 c0 -25 -58
-189 -87 -248 -40 -79 -106 -167 -141 -186 -13 -7 -30 -25 -39 -39 -39 -65
-195 -158 -341 -204 -46 -14 -87 -26 -93 -26 -5 0 -9 138 -9 355 l0 355 355 0
c195 0 355 -3 355 -7z m2960 -348 c0 -303 -2 -355 -14 -355 -33 0 -186 54
-256 91 -84 44 -162 102 -181 137 -7 13 -25 30 -39 39 -38 23 -103 109 -143
188 -29 59 -87 223 -87 248 0 4 162 7 360 7 l360 0 0 -355z m960 348 c0 -25
-58 -189 -87 -248 -71 -142 -218 -289 -362 -364 -66 -34 -224 -91 -252 -91 -5
0 -9 138 -9 355 l0 355 355 0 c195 0 355 -3 355 -7z"/>
<path d="M1232 4124 c-18 -9 -41 -29 -51 -43 -41 -57 -991 -1973 -996 -2008
-16 -104 101 -175 190 -117 20 13 134 232 467 898 l440 881 438 -874 c321
-643 445 -881 466 -898 78 -62 184 -20 201 81 4 27 -69 179 -500 1042 -384
769 -512 1015 -532 1028 -39 25 -85 29 -123 10z"/>
</g>
</svg>
