<?xml version="1.0" standalone="no"?>
<!DOCTYPE svg PUBLIC "-//W3C//DTD SVG 20010904//EN"
 "http://www.w3.org/TR/2001/REC-SVG-20010904/DTD/svg10.dtd">
<svg version="1.0" xmlns="http://www.w3.org/2000/svg"
 width="1138pt" height="1000pt" viewBox="0 0 1138 1000"
 preserveAspectRatio="xMidYMid meet">
<metadata>
Created by potrace 1.9, written by Peter Selinger 2001-2010
</metadata>
<g transform="translate(0,1000) scale(0.100000,-0.100000)"
fill="#000000" stroke="none">
<path d="M9049 6083 c-44 -27 -51 -51 -65 -214 -15 -182 -18 -201 -50 -329
-82 -329 -238 -604 -484 -850 -246 -246 -521 -402 -850 -484 -128 -32 -147
-35 -329 -50 -88 -8 -166 -19 -178 -26 -73 -46 -70 -172 5 -212 60 -31 354 -5
582 52 530 134 985 474 1266 948 l49 82 3 -462 2 -463 -969 -970 c-782 -783
-971 -977 -981 -1008 -20 -64 6 -123 67 -152 80 -38 24 -87 996 883 l887 887
0 -840 c0 -795 1 -842 18 -874 19 -36 72 -71 107 -71 35 0 88 35 107 71 17 32
18 83 18 999 l0 965 228 228 c203 203 230 226 242 212 21 -26 206 -157 302
-214 224 -133 478 -222 758 -266 137 -21 328 -25 362 -7 74 40 77 167 5 212
-12 7 -90 18 -178 26 -182 15 -201 18 -329 50 -165 41 -358 119 -493 200 -73
44 -242 167 -252 184 -5 8 227 247 648 669 572 573 657 661 662 693 12 64 -31
127 -98 143 -67 17 -72 13 -752 -666 l-651 -650 -20 23 c-39 43 -140 183 -178
245 -81 135 -159 328 -200 493 -32 128 -35 147 -50 329 -8 88 -19 166 -26 178
-32 51 -127 70 -181 36z m256 -1183 c26 -44 85 -131 132 -192 l85 -111 -136
-136 -136 -136 0 328 c0 180 2 327 4 327 2 0 25 -36 51 -80z"/>
<path d="M1232 4124 c-18 -9 -41 -29 -51 -43 -41 -57 -991 -1973 -996 -2008
-16 -104 101 -175 190 -117 20 13 134 232 467 898 l440 881 439 -877 c478
-955 459 -923 544 -923 22 0 53 9 68 19 23 15 124 209 469 900 l440 881 439
-877 c478 -955 459 -923 544 -923 22 0 53 9 68 19 23 15 124 209 469 900 l440
881 438 -874 c321 -643 445 -881 466 -898 78 -62 184 -20 201 81 4 27 -69 179
-500 1042 -398 797 -511 1015 -534 1029 -15 11 -46 20 -68 20 -85 0 -66 32
-544 -923 l-439 -877 -440 881 c-345 691 -446 885 -469 900 -15 10 -46 19 -68
19 -85 0 -66 32 -544 -923 l-439 -877 -440 881 c-333 666 -447 885 -467 898
-39 25 -85 29 -123 10z"/>
</g>
</svg>
