<?xml version="1.0" standalone="no"?>
<!DOCTYPE svg PUBLIC "-//W3C//DTD SVG 20010904//EN"
 "http://www.w3.org/TR/2001/REC-SVG-20010904/DTD/svg10.dtd">
<svg version="1.0" xmlns="http://www.w3.org/2000/svg"
 width="991pt" height="1000pt" viewBox="0 0 991 1000"
 preserveAspectRatio="xMidYMid meet">
<metadata>
Created by potrace 1.9, written by Peter Selinger 2001-2010
</metadata>
<g transform="translate(0,1000) scale(0.100000,-0.100000)"
fill="#000000" stroke="none">
<path d="M2211 6082 c-19 -10 -43 -34 -53 -53 -17 -32 -18 -113 -18 -1941 l0
-1908 -928 0 c-879 0 -929 -1 -961 -18 -36 -19 -71 -72 -71 -107 0 -35 35 -88
71 -107 32 -17 115 -18 2014 -18 1899 0 1982 1 2014 18 36 19 71 72 71 107 0
35 -35 88 -71 107 -32 17 -82 18 -961 18 l-928 0 0 855 0 855 928 0 c879 0
929 1 961 18 19 10 43 34 53 53 17 32 18 84 18 1034 0 950 -1 1002 -18 1034
-10 19 -34 43 -53 53 -32 17 -84 18 -1034 18 -950 0 -1002 -1 -1034 -18z
m1889 -1087 l0 -855 -855 0 -855 0 0 855 0 855 855 0 855 0 0 -855z"/>
<path d="M5250 3275 l0 -75 210 0 210 0 0 -570 0 -570 85 0 85 0 0 570 0 570
210 0 210 0 0 75 0 75 -505 0 -505 0 0 -75z"/>
<path d="M6450 2705 l0 -645 85 0 85 0 0 305 0 305 330 0 330 0 0 -305 0 -305
85 0 85 0 0 645 0 645 -85 0 -85 0 0 -265 0 -265 -330 0 -330 0 0 265 0 265
-85 0 -85 0 0 -645z"/>
<path d="M8091 3328 c-5 -13 -115 -299 -245 -637 -130 -338 -236 -618 -236
-622 0 -5 38 -9 84 -9 l83 0 70 198 70 197 274 3 275 2 13 -37 c8 -21 41 -111
74 -200 l59 -163 88 0 88 0 -205 508 c-112 279 -229 569 -260 645 l-55 137
-84 0 c-78 0 -85 -2 -93 -22z m208 -419 l109 -294 -109 -3 c-60 -1 -158 -1
-218 0 l-109 3 73 190 c41 105 88 238 106 297 18 59 34 106 36 105 1 -2 52
-136 112 -298z"/>
</g>
</svg>
