<?xml version="1.0" standalone="no"?>
<!DOCTYPE svg PUBLIC "-//W3C//DTD SVG 20010904//EN"
 "http://www.w3.org/TR/2001/REC-SVG-20010904/DTD/svg10.dtd">
<svg version="1.0" xmlns="http://www.w3.org/2000/svg"
 width="942pt" height="1000pt" viewBox="0 0 942 1000"
 preserveAspectRatio="xMidYMid meet">
<metadata>
Created by potrace 1.9, written by Peter Selinger 2001-2010
</metadata>
<g transform="translate(0,1000) scale(0.100000,-0.100000)"
fill="#000000" stroke="none">
<path d="M1110 6084 c-360 -65 -649 -275 -803 -585 -92 -185 -144 -413 -119
-522 7 -28 21 -99 31 -157 131 -727 392 -1308 845 -1880 123 -156 432 -465
591 -592 121 -96 316 -232 433 -303 35 -20 66 -43 69 -50 9 -25 73 -48 113
-41 58 9 373 207 555 350 483 378 854 835 1139 1405 173 344 298 743 365 1166
20 125 19 131 -5 283 -77 488 -428 840 -920 926 -359 63 -766 -92 -1007 -382
-35 -42 -79 -105 -98 -139 -19 -35 -36 -63 -39 -63 -3 1 -24 33 -47 73 -209
364 -689 586 -1103 511z m400 -269 c353 -114 585 -399 619 -764 5 -54 15 -107
22 -119 43 -69 175 -69 218 0 7 12 17 65 22 119 17 179 89 357 197 484 115
137 243 222 422 281 77 25 98 28 230 28 132 0 153 -3 230 -28 183 -61 317
-152 431 -292 66 -80 115 -175 155 -294 25 -76 28 -100 28 -220 0 -110 -5
-159 -27 -265 -86 -404 -225 -774 -424 -1130 -298 -531 -795 -1042 -1326
-1364 l-37 -23 -48 28 c-87 50 -266 176 -387 272 -163 130 -468 437 -599 602
-415 523 -672 1109 -781 1785 -28 175 -26 209 19 342 91 266 291 464 557 552
106 35 147 40 274 37 97 -3 136 -9 205 -31z"/>
<path d="M7105 6081 c-27 -13 -201 -180 -531 -512 -513 -516 -526 -530 -509
-596 16 -67 79 -110 143 -98 32 5 92 61 435 403 l397 397 0 -1738 0 -1737 -41
0 c-193 0 -553 115 -772 246 -240 145 -495 400 -640 641 -82 135 -160 327
-201 493 -32 128 -35 147 -50 329 -8 88 -19 166 -26 178 -45 72 -172 69 -212
-5 -31 -60 -5 -354 52 -582 204 -811 885 -1420 1715 -1534 277 -38 312 -38
590 0 615 85 1155 440 1481 975 143 234 234 490 279 779 21 137 25 328 7 362
-40 74 -167 77 -212 5 -7 -12 -18 -90 -26 -178 -15 -182 -18 -201 -50 -329
-82 -330 -242 -610 -493 -859 -197 -196 -401 -325 -661 -421 -145 -53 -359
-100 -454 -100 l-36 0 0 1732 0 1733 388 -387 c403 -402 425 -420 489 -403 67
16 110 79 98 143 -5 32 -74 104 -513 546 -290 290 -521 514 -539 522 -42 18
-60 17 -108 -5z"/>
</g>
</svg>
