<?xml version="1.0" standalone="no"?>
<!DOCTYPE svg PUBLIC "-//W3C//DTD SVG 20010904//EN"
 "http://www.w3.org/TR/2001/REC-SVG-20010904/DTD/svg10.dtd">
<svg version="1.0" xmlns="http://www.w3.org/2000/svg"
 width="550pt" height="1000pt" viewBox="0 0 550 1000"
 preserveAspectRatio="xMidYMid meet">
<metadata>
Created by potrace 1.9, written by Peter Selinger 2001-2010
</metadata>
<g transform="translate(0,1000) scale(0.100000,-0.100000)"
fill="#000000" stroke="none">
<path d="M2702 8044 c-18 -9 -41 -29 -51 -43 -40 -56 -501 -992 -506 -1028
-11 -74 61 -150 132 -139 68 10 76 22 280 430 l195 391 193 -385 c200 -398
216 -423 282 -436 39 -7 95 18 118 53 41 62 45 53 -233 609 -194 389 -267 525
-287 538 -39 25 -85 29 -123 10z"/>
<path d="M251 5102 c-19 -10 -43 -34 -53 -53 -17 -32 -18 -84 -18 -1034 0
-950 1 -1002 18 -1034 10 -19 34 -43 53 -53 32 -17 84 -18 1034 -18 950 0
1002 1 1034 18 19 10 43 34 53 53 17 32 18 74 18 711 0 676 0 678 20 678 44 0
177 -33 269 -66 120 -44 226 -100 316 -169 91 -69 120 -101 135 -149 29 -90
294 -283 514 -372 461 -188 991 -134 1410 143 100 67 215 165 240 205 9 14 16
47 16 72 0 39 -5 51 -35 81 -30 30 -42 35 -81 35 -48 0 -104 -30 -154 -85
-106 -114 -365 -245 -575 -291 -98 -21 -377 -24 -475 -5 -173 34 -372 120
-505 219 -67 49 -83 66 -93 99 -9 31 -35 63 -105 130 -222 212 -501 347 -814
394 l-83 12 0 196 c0 221 -7 249 -71 283 -32 17 -84 18 -1034 18 -950 0 -1002
-1 -1034 -18z m1889 -356 l0 -123 -59 -6 c-313 -33 -631 -182 -859 -402 -70
-67 -95 -99 -101 -125 -21 -96 61 -174 154 -149 22 6 66 39 118 87 104 99 173
150 267 201 132 71 356 141 450 141 l30 0 0 -605 0 -605 -855 0 -855 0 0 855
0 855 855 0 855 0 0 -124z"/>
</g>
</svg>
