<?xml version="1.0" standalone="no"?>
<!DOCTYPE svg PUBLIC "-//W3C//DTD SVG 20010904//EN"
 "http://www.w3.org/TR/2001/REC-SVG-20010904/DTD/svg10.dtd">
<svg version="1.0" xmlns="http://www.w3.org/2000/svg"
 width="158pt" height="1000pt" viewBox="0 0 158 1000"
 preserveAspectRatio="xMidYMid meet">
<metadata>
Created by potrace 1.9, written by Peter Selinger 2001-2010
</metadata>
<g transform="translate(0,1000) scale(0.100000,-0.100000)"
fill="#000000" stroke="none">
<path d="M251 5102 c-19 -10 -43 -34 -53 -53 -17 -32 -18 -84 -18 -1034 0
-953 1 -1002 18 -1035 25 -46 81 -74 130 -65 32 6 100 69 550 518 358 358 515
522 523 544 24 73 30 65 -509 607 -290 290 -521 514 -539 522 -43 18 -61 18
-102 -4z m517 -755 l332 -332 -335 -335 -335 -335 0 668 c0 367 1 667 3 667 1
0 152 -150 335 -333z"/>
</g>
</svg>
