<?xml version="1.0" standalone="no"?>
<!DOCTYPE svg PUBLIC "-//W3C//DTD SVG 20010904//EN"
 "http://www.w3.org/TR/2001/REC-SVG-20010904/DTD/svg10.dtd">
<svg version="1.0" xmlns="http://www.w3.org/2000/svg"
 width="1138pt" height="1000pt" viewBox="0 0 1138 1000"
 preserveAspectRatio="xMidYMid meet">
<metadata>
Created by potrace 1.9, written by Peter Selinger 2001-2010
</metadata>
<g transform="translate(0,1000) scale(0.100000,-0.100000)"
fill="#000000" stroke="none">
<path d="M2205 6081 c-57 -27 -1988 -1962 -2010 -2013 -13 -33 -15 -161 -15
-1035 0 -948 1 -1000 18 -1032 10 -19 34 -43 53 -53 32 -17 115 -18 2014 -18
1899 0 1982 1 2014 18 19 10 43 34 53 53 17 32 18 84 18 1032 0 834 -2 1003
-14 1030 -18 42 -1991 2013 -2029 2027 -39 14 -56 13 -102 -9z m977 -1208
l918 -918 0 -887 0 -888 -1835 0 -1835 0 0 892 0 893 912 912 c502 502 915
913 918 913 3 0 418 -413 922 -917z"/>
<path d="M8091 6083 c-19 -9 -46 -36 -60 -59 -14 -23 -453 -897 -976 -1943
l-950 -1901 -460 0 c-427 0 -463 -1 -494 -18 -36 -19 -71 -72 -71 -107 0 -35
35 -88 71 -107 32 -17 84 -18 1034 -18 950 0 1002 1 1034 18 36 19 71 72 71
107 0 35 -35 88 -71 107 -31 17 -65 18 -431 18 -219 0 -398 2 -398 5 0 3 394
794 876 1757 l877 1753 877 -1755 878 -1755 -407 -5 c-370 -5 -408 -7 -433
-23 -28 -19 -58 -73 -58 -104 0 -33 36 -86 71 -105 32 -17 84 -18 1034 -18
950 0 1002 1 1034 18 36 19 71 72 71 107 0 35 -35 88 -71 107 -31 17 -67 18
-496 18 l-463 0 -969 1938 c-743 1487 -976 1943 -996 1956 -39 26 -85 29 -124
9z"/>
</g>
</svg>
