<?xml version="1.0" standalone="no"?>
<!DOCTYPE svg PUBLIC "-//W3C//DTD SVG 20010904//EN"
 "http://www.w3.org/TR/2001/REC-SVG-20010904/DTD/svg10.dtd">
<svg version="1.0" xmlns="http://www.w3.org/2000/svg"
 width="1236pt" height="1000pt" viewBox="0 0 1236 1000"
 preserveAspectRatio="xMidYMid meet">
<metadata>
Created by potrace 1.9, written by Peter Selinger 2001-2010
</metadata>
<g transform="translate(0,1000) scale(0.100000,-0.100000)"
fill="#000000" stroke="none">
<path d="M1721 8042 c-47 -25 -74 -76 -66 -125 3 -21 118 -263 255 -537 272
-544 273 -545 355 -545 78 1 77 -2 357 559 278 556 274 547 233 609 -23 35
-79 60 -118 53 -66 -13 -82 -38 -282 -436 l-193 -385 -195 391 c-143 286 -202
395 -222 408 -41 27 -85 30 -124 8z"/>
<path d="M1110 6084 c-360 -65 -649 -275 -803 -585 -92 -185 -144 -413 -119
-522 7 -28 21 -99 31 -157 131 -727 392 -1308 845 -1880 123 -156 432 -465
591 -592 121 -96 316 -232 433 -303 35 -20 66 -43 69 -50 9 -25 73 -48 113
-41 58 9 373 207 555 350 483 378 854 835 1139 1405 173 344 298 743 365 1166
20 125 19 131 -5 283 -77 488 -428 840 -920 926 -359 63 -766 -92 -1007 -382
-35 -42 -79 -105 -98 -139 -19 -35 -36 -63 -39 -63 -3 1 -24 33 -47 73 -209
364 -689 586 -1103 511z m400 -269 c353 -114 585 -399 619 -764 5 -54 15 -107
22 -119 43 -69 175 -69 218 0 7 12 17 65 22 119 17 179 89 357 197 484 115
137 243 222 422 281 77 25 98 28 230 28 132 0 153 -3 230 -28 183 -61 317
-152 431 -292 66 -80 115 -175 155 -294 25 -76 28 -100 28 -220 0 -110 -5
-159 -27 -265 -86 -404 -225 -774 -424 -1130 -298 -531 -795 -1042 -1326
-1364 l-37 -23 -48 28 c-87 50 -266 176 -387 272 -163 130 -468 437 -599 602
-415 523 -672 1109 -781 1785 -28 175 -26 209 19 342 91 266 291 464 557 552
106 35 147 40 274 37 97 -3 136 -9 205 -31z"/>
<path d="M9930 5104 c-275 -50 -519 -191 -681 -392 l-64 -81 -65 -1 c-389 -3
-769 -156 -1038 -415 -70 -67 -95 -99 -101 -125 -21 -96 61 -174 154 -149 22
6 66 39 118 87 45 43 107 96 137 119 106 80 276 158 427 197 59 16 234 38 240
32 3 -2 -3 -28 -12 -58 -25 -88 -45 -218 -45 -298 0 -161 52 -359 137 -520
157 -299 445 -502 798 -564 114 -20 216 -20 330 0 324 56 611 244 763 500 l36
60 125 12 c150 14 245 33 366 73 178 59 376 172 515 294 83 74 100 100 100
159 0 39 -5 51 -35 81 -30 30 -42 35 -81 35 -48 0 -104 -30 -154 -85 -14 -15
-54 -48 -90 -75 -160 -118 -384 -208 -571 -228 l-75 -8 13 61 c79 361 -73 793
-365 1040 -241 203 -592 302 -882 249z m400 -269 c176 -56 318 -152 431 -291
68 -83 117 -178 155 -299 25 -79 29 -105 29 -220 0 -98 -5 -147 -19 -197 l-19
-68 -41 6 c-64 10 -202 52 -280 85 -95 40 -167 81 -251 144 -57 42 -73 60 -83
92 -24 81 -244 265 -450 376 -75 40 -282 117 -316 117 -18 0 -18 2 5 26 87 93
225 179 360 223 106 35 147 40 274 37 97 -3 137 -9 205 -31z m-820 -521 c132
-45 244 -103 340 -175 95 -72 124 -104 140 -153 15 -45 72 -102 185 -185 167
-122 326 -199 513 -247 l101 -27 -42 -50 c-102 -122 -248 -217 -417 -273 -77
-25 -98 -28 -230 -28 -132 0 -153 3 -230 28 -179 59 -319 154 -431 292 -68 82
-117 177 -155 299 -26 82 -29 103 -28 230 0 131 2 147 33 239 l33 98 41 -6
c23 -4 89 -23 147 -42z"/>
<path d="M5151 4122 c-36 -19 -71 -72 -71 -107 0 -35 35 -88 71 -107 32 -17
84 -18 1034 -18 950 0 1002 1 1034 18 36 19 71 72 71 107 0 35 -35 88 -71 107
-32 17 -84 18 -1034 18 -950 0 -1002 -1 -1034 -18z"/>
<path d="M9071 2162 c-36 -19 -71 -72 -71 -107 0 -35 35 -88 71 -107 32 -17
84 -18 1034 -18 950 0 1002 1 1034 18 36 19 71 72 71 107 0 35 -35 88 -71 107
-32 17 -84 18 -1034 18 -950 0 -1002 -1 -1034 -18z"/>
</g>
</svg>
