<?xml version="1.0" standalone="no"?>
<!DOCTYPE svg PUBLIC "-//W3C//DTD SVG 20010904//EN"
 "http://www.w3.org/TR/2001/REC-SVG-20010904/DTD/svg10.dtd">
<svg version="1.0" xmlns="http://www.w3.org/2000/svg"
 width="207pt" height="1000pt" viewBox="0 0 207 1000"
 preserveAspectRatio="xMidYMid meet">
<metadata>
Created by potrace 1.9, written by Peter Selinger 2001-2010
</metadata>
<g transform="translate(0,1000) scale(0.100000,-0.100000)"
fill="#000000" stroke="none">
<path d="M1733 5123 c-33 -6 -79 -57 -86 -92 -26 -127 122 -210 212 -120 43
42 49 93 18 156 -20 42 -87 68 -144 56z"/>
<path d="M1225 4611 c-26 -12 -208 -188 -531 -512 -517 -520 -525 -528 -509
-599 8 -39 56 -87 95 -95 16 -4 45 -2 63 4 22 8 186 165 544 523 560 562 545
543 508 621 -32 67 -102 91 -170 58z"/>
</g>
</svg>
