<?xml version="1.0" standalone="no"?>
<!DOCTYPE svg PUBLIC "-//W3C//DTD SVG 20010904//EN"
 "http://www.w3.org/TR/2001/REC-SVG-20010904/DTD/svg10.dtd">
<svg version="1.0" xmlns="http://www.w3.org/2000/svg"
 width="648pt" height="1000pt" viewBox="0 0 648 1000"
 preserveAspectRatio="xMidYMid meet">
<metadata>
Created by potrace 1.9, written by Peter Selinger 2001-2010
</metadata>
<g transform="translate(0,1000) scale(0.100000,-0.100000)"
fill="#000000" stroke="none">
<path d="M2115 6094 c-684 -55 -1279 -418 -1631 -994 -199 -327 -298 -686
-298 -1080 0 -204 15 -323 64 -520 133 -529 475 -986 948 -1266 l82 -49 -507
-5 c-469 -5 -510 -6 -535 -23 -28 -19 -58 -73 -58 -104 0 -33 36 -86 71 -105
32 -17 115 -18 2014 -18 1899 0 1982 1 2014 18 35 19 71 72 71 105 0 31 -30
85 -58 104 -25 17 -66 18 -540 23 l-512 5 82 49 c473 280 815 737 948 1266 49
197 64 316 64 520 0 204 -15 323 -64 520 -165 656 -654 1197 -1290 1430 -108
39 -286 84 -416 104 -102 16 -357 27 -449 20z m418 -265 c215 -32 478 -126
660 -235 240 -145 495 -400 640 -641 111 -184 202 -440 238 -668 7 -44 13
-163 13 -265 0 -195 -10 -285 -49 -440 -84 -332 -244 -610 -494 -859 -240
-238 -514 -393 -841 -476 -155 -39 -245 -49 -440 -49 -195 0 -285 10 -440 49
-327 83 -601 238 -841 476 -207 206 -342 416 -439 679 -76 209 -104 374 -104
620 0 195 10 285 49 440 84 331 239 604 485 850 318 317 699 495 1150 534 73
6 334 -3 413 -15z"/>
<path d="M5151 4122 c-19 -10 -43 -34 -53 -53 -17 -31 -18 -69 -18 -542 0
-556 0 -554 58 -594 24 -16 59 -19 332 -23 l305 -5 57 -27 c74 -34 152 -112
186 -186 22 -48 27 -71 27 -142 0 -105 -29 -175 -103 -249 -102 -102 -180
-120 -522 -121 -209 0 -239 -2 -270 -18 -45 -25 -74 -81 -66 -127 8 -43 57
-92 99 -100 18 -3 149 -4 292 -2 299 4 361 14 493 78 148 72 263 214 308 379
11 40 17 101 17 160 0 59 -6 120 -17 160 -55 204 -217 367 -421 425 -46 13
-115 19 -292 22 l-233 5 0 364 0 364 438 0 c404 0 440 1 471 18 36 19 71 72
71 107 0 35 -35 88 -71 107 -31 17 -69 18 -544 18 -475 0 -513 -1 -544 -18z"/>
</g>
</svg>
