<?xml version="1.0" standalone="no"?>
<!DOCTYPE svg PUBLIC "-//W3C//DTD SVG 20010904//EN"
 "http://www.w3.org/TR/2001/REC-SVG-20010904/DTD/svg10.dtd">
<svg version="1.0" xmlns="http://www.w3.org/2000/svg"
 width="844pt" height="1000pt" viewBox="0 0 844 1000"
 preserveAspectRatio="xMidYMid meet">
<metadata>
Created by potrace 1.9, written by Peter Selinger 2001-2010
</metadata>
<g transform="translate(0,1000) scale(0.100000,-0.100000)"
fill="#000000" stroke="none">
<path d="M3203 8063 c-33 -6 -79 -57 -86 -92 -26 -127 122 -210 212 -120 43
42 49 93 18 156 -20 42 -87 68 -144 56z"/>
<path d="M1721 8042 c-47 -25 -74 -76 -66 -125 3 -21 118 -263 255 -537 272
-544 273 -545 355 -545 78 1 77 -2 357 559 278 556 274 547 233 609 -23 35
-79 60 -118 53 -66 -13 -82 -38 -282 -436 l-193 -385 -195 391 c-143 286 -202
395 -222 408 -41 27 -85 30 -124 8z"/>
<path d="M1110 6084 c-360 -65 -649 -275 -803 -585 -92 -185 -144 -413 -119
-522 7 -28 21 -99 31 -157 115 -640 328 -1157 690 -1675 220 -315 546 -651
859 -884 l102 -76 -802 -5 c-753 -5 -805 -6 -830 -23 -28 -19 -58 -73 -58
-104 0 -33 36 -86 71 -105 32 -17 115 -18 2014 -18 1899 0 1982 1 2014 18 36
19 71 72 71 107 0 35 -35 88 -71 107 -32 17 -78 18 -829 18 l-795 0 40 27
c226 152 565 469 755 703 479 592 761 1223 879 1965 20 125 19 131 -5 283 -77
488 -428 840 -920 926 -359 63 -766 -92 -1007 -382 -35 -42 -79 -105 -98 -139
-19 -35 -36 -63 -39 -63 -3 1 -24 33 -47 73 -209 364 -689 586 -1103 511z
m400 -269 c353 -114 585 -399 619 -764 5 -54 15 -107 22 -119 43 -69 175 -69
218 0 7 12 17 65 22 119 17 179 89 357 197 484 115 137 243 222 422 281 77 25
98 28 230 28 132 0 153 -3 230 -28 183 -61 317 -152 431 -292 66 -80 115 -175
155 -294 25 -76 28 -100 28 -220 0 -110 -5 -159 -27 -265 -86 -404 -225 -774
-424 -1130 -298 -531 -795 -1042 -1326 -1364 l-37 -23 -48 28 c-87 50 -266
176 -387 272 -163 130 -468 437 -599 602 -415 523 -672 1109 -781 1785 -28
175 -26 209 19 342 91 266 291 464 557 552 106 35 147 40 274 37 97 -3 136 -9
205 -31z"/>
<path d="M8091 6083 c-19 -9 -46 -36 -60 -59 -14 -23 -453 -897 -976 -1943
l-950 -1901 -460 0 c-427 0 -463 -1 -494 -18 -36 -19 -71 -72 -71 -107 0 -35
35 -88 71 -107 32 -17 84 -18 1034 -18 950 0 1002 1 1034 18 36 19 71 72 71
107 0 35 -35 88 -71 107 -31 17 -65 18 -431 18 -219 0 -398 2 -398 5 0 3 423
851 940 1885 517 1034 940 1890 940 1903 0 37 -34 89 -71 109 -41 22 -64 22
-108 1z"/>
</g>
</svg>
