<?xml version="1.0" standalone="no"?>
<!DOCTYPE svg PUBLIC "-//W3C//DTD SVG 20010904//EN"
 "http://www.w3.org/TR/2001/REC-SVG-20010904/DTD/svg10.dtd">
<svg version="1.0" xmlns="http://www.w3.org/2000/svg"
 width="403pt" height="1000pt" viewBox="0 0 403 1000"
 preserveAspectRatio="xMidYMid meet">
<metadata>
Created by potrace 1.9, written by Peter Selinger 2001-2010
</metadata>
<g transform="translate(0,1000) scale(0.100000,-0.100000)"
fill="#000000" stroke="none">
<path d="M1118 4125 c-159 -25 -271 -65 -405 -147 -180 -108 -291 -223 -394
-410 -108 -195 -160 -459 -129 -660 77 -505 427 -865 925 -952 291 -51 619 41
870 243 191 154 332 405 380 682 49 279 -41 608 -235 853 -158 199 -409 342
-685 390 -107 19 -208 19 -327 1z m392 -270 c83 -27 188 -75 242 -112 l27 -19
-252 -252 -252 -252 -250 250 -250 251 25 19 c39 31 179 96 245 115 149 44
329 43 465 0z m-664 -1064 c-285 -285 -251 -271 -319 -136 -142 283 -125 588
47 852 l21 33 250 -250 250 -250 -249 -249z m1131 732 c30 -39 93 -173 119
-258 26 -80 29 -104 29 -225 0 -121 -3 -145 -29 -225 -27 -86 -89 -219 -121
-260 -15 -19 -26 -9 -268 233 l-252 252 250 250 c137 137 252 250 254 250 2 0
10 -8 18 -17z m-225 -1186 c-53 -36 -158 -85 -242 -113 -77 -25 -98 -28 -230
-28 -132 0 -153 3 -230 28 -47 15 -119 46 -160 67 -134 70 -149 34 135 319
l250 250 252 -252 252 -252 -27 -19z"/>
<path d="M3675 4121 c-26 -12 -208 -188 -531 -512 -535 -538 -529 -530 -504
-613 10 -35 85 -115 503 -535 519 -520 542 -540 613 -527 41 8 90 56 99 96 4
16 2 45 -4 62 -8 23 -151 173 -466 488 l-455 455 459 460 c503 504 493 491
456 568 -32 67 -102 91 -170 58z"/>
</g>
</svg>
