<?xml version="1.0" standalone="no"?>
<!DOCTYPE svg PUBLIC "-//W3C//DTD SVG 20010904//EN"
 "http://www.w3.org/TR/2001/REC-SVG-20010904/DTD/svg10.dtd">
<svg version="1.0" xmlns="http://www.w3.org/2000/svg"
 width="1432pt" height="1000pt" viewBox="0 0 1432 1000"
 preserveAspectRatio="xMidYMid meet">
<metadata>
Created by potrace 1.9, written by Peter Selinger 2001-2010
</metadata>
<g transform="translate(0,1000) scale(0.100000,-0.100000)"
fill="#000000" stroke="none">
<path d="M12012 8044 c-18 -9 -41 -29 -51 -43 -41 -58 -1971 -3933 -1976
-3968 -8 -49 19 -100 66 -125 31 -17 65 -18 431 -18 l398 0 -445 -890 c-246
-492 -447 -906 -450 -927 -8 -49 19 -100 66 -125 32 -17 115 -18 2014 -18
1899 0 1982 1 2014 18 37 20 71 72 71 109 0 12 -202 428 -450 923 -247 495
-450 902 -450 905 0 3 179 5 398 5 366 0 400 1 431 18 37 20 71 72 71 109 0
13 -447 918 -994 2011 -764 1527 -1000 1993 -1021 2006 -39 25 -85 29 -123 10z
m932 -2151 l876 -1753 -350 0 -350 0 -479 958 c-377 753 -485 963 -508 978
-15 10 -46 19 -68 19 -85 0 -63 38 -583 -1001 l-477 -954 -347 0 c-192 0 -348
2 -348 5 0 10 1751 3507 1754 3504 2 -2 398 -793 880 -1756z m-877 -3711
c-963 -1 -1752 0 -1754 2 -2 2 390 793 873 1757 l877 1754 877 -1755 878
-1755 -1751 -3z"/>
<path d="M2115 6094 c-684 -55 -1279 -418 -1631 -994 -199 -327 -298 -686
-298 -1080 0 -204 15 -323 64 -520 133 -529 475 -986 948 -1266 l82 -49 -507
-5 c-469 -5 -510 -6 -535 -23 -28 -19 -58 -73 -58 -104 0 -33 36 -86 71 -105
32 -17 115 -18 2014 -18 1899 0 1982 1 2014 18 35 19 71 72 71 105 0 31 -30
85 -58 104 -25 17 -66 18 -540 23 l-512 5 82 49 c473 280 815 737 948 1266 49
197 64 316 64 520 0 204 -15 323 -64 520 -165 656 -654 1197 -1290 1430 -108
39 -286 84 -416 104 -102 16 -357 27 -449 20z m418 -265 c215 -32 478 -126
660 -235 240 -145 495 -400 640 -641 111 -184 202 -440 238 -668 7 -44 13
-163 13 -265 0 -195 -10 -285 -49 -440 -84 -332 -244 -610 -494 -859 -240
-238 -514 -393 -841 -476 -155 -39 -245 -49 -440 -49 -195 0 -285 10 -440 49
-327 83 -601 238 -841 476 -207 206 -342 416 -439 679 -76 209 -104 374 -104
620 0 195 10 285 49 440 84 331 239 604 485 850 318 317 699 495 1150 534 73
6 334 -3 413 -15z"/>
<path d="M7105 6081 c-57 -27 -1988 -1962 -2010 -2013 -13 -33 -15 -161 -15
-1035 0 -948 1 -1000 18 -1032 10 -19 34 -43 53 -53 32 -17 115 -18 2014 -18
1899 0 1982 1 2014 18 19 10 43 34 53 53 17 32 18 84 18 1032 0 833 -2 1003
-14 1030 -8 18 -210 228 -465 482 l-451 450 459 460 c398 398 461 465 466 497
12 64 -31 127 -98 143 -65 17 -82 2 -555 -469 l-452 -451 -453 452 c-248 249
-465 457 -480 463 -39 14 -56 13 -102 -9z m458 -689 l397 -397 -1315 -1315
-1315 -1315 0 800 0 800 912 912 c502 502 915 913 918 913 3 0 184 -179 403
-398z m1009 -1009 l428 -428 0 -887 0 -888 -1747 0 -1748 0 1315 1315 c723
723 1317 1315 1320 1315 3 0 197 -192 432 -427z"/>
</g>
</svg>
