<?xml version="1.0" standalone="no"?>
<!DOCTYPE svg PUBLIC "-//W3C//DTD SVG 20010904//EN"
 "http://www.w3.org/TR/2001/REC-SVG-20010904/DTD/svg10.dtd">
<svg version="1.0" xmlns="http://www.w3.org/2000/svg"
 width="893pt" height="1000pt" viewBox="0 0 893 1000"
 preserveAspectRatio="xMidYMid meet">
<metadata>
Created by potrace 1.9, written by Peter Selinger 2001-2010
</metadata>
<g transform="translate(0,1000) scale(0.100000,-0.100000)"
fill="#000000" stroke="none">
<path d="M8035 6075 c-30 -31 -35 -42 -35 -83 0 -41 6 -54 43 -99 144 -176
180 -225 220 -302 54 -102 100 -230 124 -343 24 -115 24 -370 -1 -488 -44
-210 -150 -425 -279 -566 -28 -31 -67 -78 -86 -104 -20 -27 -58 -77 -86 -112
-154 -193 -259 -436 -306 -708 -19 -108 -17 -364 4 -477 42 -227 99 -370 229
-580 l20 -33 -1486 0 -1486 0 83 83 c167 166 268 367 312 618 61 347 -93 758
-373 994 -189 159 -473 265 -712 265 -234 0 -519 -104 -701 -256 -290 -242
-446 -650 -384 -1003 50 -285 189 -528 395 -694 100 -79 275 -169 395 -202
209 -57 131 -55 2271 -55 1888 0 1971 1 2003 18 37 20 71 73 71 110 0 41 -26
86 -94 161 -148 164 -245 357 -293 583 -24 115 -24 370 1 488 44 210 150 425
279 566 28 31 67 78 86 104 20 27 59 77 86 112 76 96 169 258 214 371 76 196
105 354 105 567 -1 387 -131 723 -393 1015 -63 70 -88 85 -143 85 -41 0 -52
-5 -83 -35z m-3585 -2220 c176 -56 318 -152 431 -291 68 -83 117 -178 155
-299 26 -80 29 -104 29 -225 0 -121 -3 -145 -29 -225 -93 -295 -290 -493 -586
-591 -77 -25 -98 -28 -230 -28 -132 0 -153 3 -230 28 -179 59 -319 154 -431
292 -68 82 -117 177 -155 299 -26 82 -29 103 -28 230 0 126 3 149 28 225 95
288 291 488 567 579 106 35 147 40 274 37 97 -3 137 -9 205 -31z"/>
<path d="M1232 6090 c-39 -16 -274 -224 -368 -326 -258 -282 -467 -650 -572
-1009 -142 -486 -142 -984 0 -1470 105 -358 313 -726 572 -1009 98 -106 344
-322 385 -338 41 -15 88 0 129 41 20 20 78 72 128 114 260 220 516 573 662
915 154 358 228 787 203 1165 -48 709 -364 1345 -893 1798 -152 130 -181 144
-246 119z m-72 -2072 l-1 -1683 -90 95 c-187 197 -342 433 -448 679 -107 251
-163 484 -182 759 -43 638 175 1250 614 1725 55 59 101 107 103 107 2 0 4
-757 4 -1682z m507 1382 c165 -219 292 -472 368 -733 122 -419 122 -875 0
-1294 -101 -344 -292 -677 -539 -938 l-85 -90 0 1675 0 1675 85 -90 c47 -49
124 -142 171 -205z"/>
</g>
</svg>
