<?xml version="1.0" standalone="no"?>
<!DOCTYPE svg PUBLIC "-//W3C//DTD SVG 20010904//EN"
 "http://www.w3.org/TR/2001/REC-SVG-20010904/DTD/svg10.dtd">
<svg version="1.0" xmlns="http://www.w3.org/2000/svg"
 width="452pt" height="1000pt" viewBox="0 0 452 1000"
 preserveAspectRatio="xMidYMid meet">
<metadata>
Created by potrace 1.9, written by Peter Selinger 2001-2010
</metadata>
<g transform="translate(0,1000) scale(0.100000,-0.100000)"
fill="#000000" stroke="none">
<path d="M1231 6082 c-19 -10 -43 -34 -53 -53 -17 -32 -18 -105 -18 -1699 l0
-1666 -87 -13 c-232 -33 -412 -100 -610 -227 -150 -97 -271 -203 -305 -268
-49 -95 25 -201 128 -182 26 5 58 28 113 79 42 40 108 96 146 125 74 56 251
147 350 180 69 23 202 52 240 52 l25 0 0 -188 c0 -211 7 -240 71 -274 42 -23
66 -23 108 0 64 34 71 63 71 274 0 217 -12 199 118 172 199 -41 374 -125 542
-260 55 -44 67 -60 78 -99 14 -53 63 -104 187 -194 173 -126 333 -202 531
-252 414 -104 849 -30 1208 208 100 67 215 165 240 205 9 14 16 47 16 72 0 39
-5 51 -35 81 -30 30 -42 35 -81 35 -48 0 -104 -30 -154 -85 -106 -114 -365
-245 -575 -291 -98 -21 -377 -24 -475 -5 -104 20 -218 59 -325 111 -111 54
-265 161 -265 185 0 66 -131 195 -323 319 -196 126 -373 192 -604 227 l-83 12
0 614 0 613 855 0 855 0 0 -928 c0 -879 1 -929 18 -961 19 -36 72 -71 107 -71
35 0 88 35 107 71 17 32 18 84 18 1034 0 950 -1 1002 -18 1034 -10 19 -34 43
-53 53 -32 17 -82 18 -961 18 l-928 0 0 928 c0 879 -1 929 -18 961 -19 36 -72
71 -107 71 -11 0 -36 -8 -54 -18z"/>
</g>
</svg>
