<?xml version="1.0" standalone="no"?>
<!DOCTYPE svg PUBLIC "-//W3C//DTD SVG 20010904//EN"
 "http://www.w3.org/TR/2001/REC-SVG-20010904/DTD/svg10.dtd">
<svg version="1.0" xmlns="http://www.w3.org/2000/svg"
 width="1138pt" height="1000pt" viewBox="0 0 1138 1000"
 preserveAspectRatio="xMidYMid meet">
<metadata>
Created by potrace 1.9, written by Peter Selinger 2001-2010
</metadata>
<g transform="translate(0,1000) scale(0.100000,-0.100000)"
fill="#000000" stroke="none">
<path d="M5151 5102 c-19 -10 -43 -34 -53 -53 -17 -32 -18 -100 -18 -1524 0
-1424 1 -1492 18 -1524 10 -19 34 -43 53 -53 32 -17 146 -18 2994 -18 2848 0
2962 1 2994 18 19 10 43 34 53 53 17 32 18 100 18 1524 0 1424 -1 1492 -18
1524 -10 19 -34 43 -53 53 -32 17 -146 18 -2994 18 -2848 0 -2962 -1 -2994
-18z m5809 -1577 l0 -1345 -2815 0 -2815 0 0 1345 0 1345 2815 0 2815 0 0
-1345z"/>
<path d="M10051 4122 c-71 -38 -71 -35 -71 -524 l0 -438 -1908 0 c-1828 0
-1909 -1 -1941 -18 -36 -19 -71 -72 -71 -107 0 -35 35 -88 71 -107 32 -17 115
-18 2014 -18 1899 0 1982 1 2014 18 19 10 43 34 53 53 17 31 18 69 18 544 0
475 -1 513 -18 544 -19 36 -72 71 -107 71 -11 0 -36 -8 -54 -18z"/>
<path d="M1231 3142 c-35 -19 -71 -72 -71 -105 0 -55 41 -103 413 -474 l382
-383 -835 0 c-790 0 -837 -1 -869 -18 -36 -19 -71 -72 -71 -107 0 -35 35 -88
71 -107 32 -17 115 -18 2014 -18 1899 0 1982 1 2014 18 36 19 71 72 71 107 0
35 -35 88 -71 107 -32 17 -79 18 -874 18 l-840 0 397 398 c342 342 398 402
403 434 12 64 -31 127 -98 143 -65 17 -82 2 -555 -469 l-452 -451 -453 452
c-248 249 -465 457 -480 463 -39 14 -57 13 -96 -8z"/>
</g>
</svg>
