<?xml version="1.0" standalone="no"?>
<!DOCTYPE svg PUBLIC "-//W3C//DTD SVG 20010904//EN"
 "http://www.w3.org/TR/2001/REC-SVG-20010904/DTD/svg10.dtd">
<svg version="1.0" xmlns="http://www.w3.org/2000/svg"
 width="844pt" height="1000pt" viewBox="0 0 844 1000"
 preserveAspectRatio="xMidYMid meet">
<metadata>
Created by potrace 1.9, written by Peter Selinger 2001-2010
</metadata>
<g transform="translate(0,1000) scale(0.100000,-0.100000)"
fill="#000000" stroke="none">
<path d="M2205 4121 c-57 -27 -1988 -1962 -2010 -2013 -8 -21 -15 -45 -15 -55
0 -33 36 -86 71 -105 32 -17 84 -18 1034 -18 950 0 1002 1 1034 18 19 10 43
34 53 53 17 32 18 84 18 1034 0 950 -1 1002 -18 1034 -19 36 -73 71 -107 71
-11 0 -38 -9 -60 -19z m-65 -1176 l0 -765 -767 0 -768 0 765 765 c421 421 766
765 767 765 2 0 3 -344 3 -765z"/>
<path d="M3191 2162 c-36 -19 -71 -72 -71 -107 0 -35 35 -88 71 -107 32 -17
115 -18 2014 -18 1899 0 1982 1 2014 18 36 19 71 72 71 107 0 35 -35 88 -71
107 -32 17 -115 18 -2014 18 -1899 0 -1982 -1 -2014 -18z"/>
<path d="M7111 1182 c-71 -38 -71 -35 -71 -524 l0 -438 -1908 0 c-1828 0
-1909 -1 -1941 -18 -66 -36 -87 -114 -46 -176 l17 -26 2043 0 2043 0 18 27
c18 26 19 60 22 548 2 489 1 522 -16 554 -19 36 -72 71 -107 71 -11 0 -36 -8
-54 -18z"/>
</g>
</svg>
