<?xml version="1.0" standalone="no"?>
<!DOCTYPE svg PUBLIC "-//W3C//DTD SVG 20010904//EN"
 "http://www.w3.org/TR/2001/REC-SVG-20010904/DTD/svg10.dtd">
<svg version="1.0" xmlns="http://www.w3.org/2000/svg"
 width="550pt" height="1000pt" viewBox="0 0 550 1000"
 preserveAspectRatio="xMidYMid meet">
<metadata>
Created by potrace 1.9, written by Peter Selinger 2001-2010
</metadata>
<g transform="translate(0,1000) scale(0.100000,-0.100000)"
fill="#000000" stroke="none">
<path d="M4050 5104 c-194 -35 -394 -125 -531 -240 -290 -242 -446 -650 -384
-1003 49 -279 185 -523 384 -685 145 -119 339 -206 536 -240 114 -20 216 -20
330 0 489 85 833 432 920 925 61 347 -93 758 -373 994 -241 203 -592 302 -882
249z m400 -269 c176 -56 318 -152 431 -291 68 -83 117 -178 155 -299 26 -80
29 -104 29 -225 0 -121 -3 -145 -29 -225 -93 -295 -290 -493 -586 -591 -77
-25 -98 -28 -230 -28 -132 0 -153 3 -230 28 -179 59 -319 154 -431 292 -68 82
-117 177 -155 299 -26 82 -29 103 -28 230 0 126 3 149 28 225 95 288 291 488
567 579 106 35 147 40 274 37 97 -3 137 -9 205 -31z"/>
<path d="M4183 4143 c-33 -6 -79 -57 -86 -92 -26 -127 122 -210 212 -120 43
42 49 93 18 156 -20 42 -87 68 -144 56z"/>
<path d="M1118 4125 c-207 -33 -388 -114 -551 -248 -174 -144 -306 -364 -357
-599 -43 -197 -37 -352 22 -553 54 -184 198 -413 317 -505 l46 -35 -165 -5
c-137 -4 -169 -8 -192 -23 -28 -19 -58 -73 -58 -104 0 -33 36 -86 71 -105 32
-17 84 -18 1034 -18 950 0 1002 1 1034 18 35 19 71 72 71 105 0 31 -30 85 -58
104 -23 15 -55 19 -197 23 l-170 5 47 36 c26 20 79 76 117 124 195 246 286
574 236 854 -35 202 -115 383 -235 535 -158 199 -409 342 -685 390 -107 19
-208 19 -327 1z m392 -270 c83 -27 188 -75 242 -112 l27 -19 -252 -252 -252
-252 -250 250 -250 251 25 19 c39 31 179 96 245 115 149 44 329 43 465 0z
m-664 -1064 c-285 -285 -251 -271 -319 -136 -142 283 -125 588 47 852 l21 33
250 -250 250 -250 -249 -249z m1131 732 c30 -39 93 -173 119 -258 26 -80 29
-104 29 -225 0 -121 -3 -145 -29 -225 -27 -86 -89 -219 -121 -260 -15 -19 -26
-9 -268 233 l-252 252 250 250 c137 137 252 250 254 250 2 0 10 -8 18 -17z
m-225 -1186 c-53 -36 -158 -85 -242 -113 -77 -25 -98 -28 -230 -28 -132 0
-153 3 -230 28 -47 15 -119 46 -160 67 -134 70 -149 34 135 319 l250 250 252
-252 252 -252 -27 -19z"/>
</g>
</svg>
