<?xml version="1.0" standalone="no"?>
<!DOCTYPE svg PUBLIC "-//W3C//DTD SVG 20010904//EN"
 "http://www.w3.org/TR/2001/REC-SVG-20010904/DTD/svg10.dtd">
<svg version="1.0" xmlns="http://www.w3.org/2000/svg"
 width="256pt" height="1000pt" viewBox="0 0 256 1000"
 preserveAspectRatio="xMidYMid meet">
<metadata>
Created by potrace 1.9, written by Peter Selinger 2001-2010
</metadata>
<g transform="translate(0,1000) scale(0.100000,-0.100000)"
fill="#000000" stroke="none">
<path d="M1225 7061 c-56 -27 -1008 -982 -1030 -1033 -13 -33 -15 -260 -15
-2015 0 -1897 1 -1980 18 -2012 10 -19 34 -43 53 -53 32 -17 84 -18 1034 -18
950 0 1002 1 1034 18 19 10 43 34 53 53 17 32 18 115 18 2012 0 1674 -2 1983
-14 2010 -18 41 -1012 1033 -1049 1047 -39 14 -56 13 -102 -9z m487 -718 l428
-428 0 -1867 0 -1868 -855 0 -855 0 0 1872 0 1873 422 422 c233 233 425 423
428 423 3 0 197 -192 432 -427z"/>
</g>
</svg>
