<?xml version="1.0" standalone="no"?>
<!DOCTYPE svg PUBLIC "-//W3C//DTD SVG 20010904//EN"
 "http://www.w3.org/TR/2001/REC-SVG-20010904/DTD/svg10.dtd">
<svg version="1.0" xmlns="http://www.w3.org/2000/svg"
 width="1138pt" height="1000pt" viewBox="0 0 1138 1000"
 preserveAspectRatio="xMidYMid meet">
<metadata>
Created by potrace 1.9, written by Peter Selinger 2001-2010
</metadata>
<g transform="translate(0,1000) scale(0.100000,-0.100000)"
fill="#000000" stroke="none">
<path d="M2211 6082 c-71 -38 -71 -35 -71 -524 l0 -438 -438 0 c-489 0 -486 0
-524 -71 -17 -32 -18 -79 -18 -874 l0 -840 -398 397 c-342 342 -402 398 -434
403 -64 12 -127 -31 -143 -98 -18 -68 -31 -53 999 -1086 967 -969 1021 -1020
1081 -1021 34 0 88 35 107 71 17 31 18 67 18 471 l0 438 438 0 c489 0 486 0
524 71 17 32 18 84 18 1034 0 950 -1 1002 -18 1034 -38 71 -35 71 -524 71
l-438 0 0 438 c0 404 -1 440 -18 471 -19 36 -72 71 -107 71 -11 0 -36 -8 -54
-18z m-71 -2067 l0 -855 -365 0 -365 0 0 855 0 855 365 0 365 0 0 -855z m980
0 l0 -855 -365 0 -365 0 0 855 0 855 365 0 365 0 0 -855z m-980 -1380 c0 -151
-1 -275 -3 -275 -1 0 -126 124 -277 275 l-275 275 278 0 277 0 0 -275z"/>
<path d="M4171 4122 c-36 -19 -71 -73 -71 -107 1 -60 52 -114 1021 -1081 794
-792 991 -984 1022 -994 64 -20 123 6 152 67 38 80 87 24 -883 996 l-887 887
1820 0 c1744 0 1822 1 1854 18 36 19 71 72 71 107 0 35 -35 88 -71 107 -32 17
-115 18 -2014 18 -1899 0 -1982 -1 -2014 -18z"/>
<path d="M9930 4124 c-194 -35 -394 -125 -531 -240 -290 -242 -446 -650 -384
-1003 49 -279 185 -523 384 -685 145 -119 339 -206 536 -240 364 -64 780 97
1017 394 125 155 201 338 239 568 18 108 18 123 4 221 -57 391 -248 683 -560
856 -221 122 -481 170 -705 129z m400 -269 c292 -93 496 -299 584 -586 14 -47
26 -90 26 -97 0 -9 -194 -12 -840 -12 -727 0 -840 2 -840 14 0 8 12 52 26 98
89 281 290 486 565 577 106 35 147 40 274 37 97 -3 137 -9 205 -31z m610 -952
c0 -4 -12 -45 -26 -92 -87 -287 -289 -490 -584 -587 -77 -25 -98 -28 -230 -28
-132 0 -153 3 -230 28 -295 97 -497 300 -584 587 -14 47 -26 88 -26 92 0 4
378 7 840 7 462 0 840 -3 840 -7z"/>
</g>
</svg>
