<?xml version="1.0" standalone="no"?>
<!DOCTYPE svg PUBLIC "-//W3C//DTD SVG 20010904//EN"
 "http://www.w3.org/TR/2001/REC-SVG-20010904/DTD/svg10.dtd">
<svg version="1.0" xmlns="http://www.w3.org/2000/svg"
 width="648pt" height="1000pt" viewBox="0 0 648 1000"
 preserveAspectRatio="xMidYMid meet">
<metadata>
Created by potrace 1.9, written by Peter Selinger 2001-2010
</metadata>
<g transform="translate(0,1000) scale(0.100000,-0.100000)"
fill="#000000" stroke="none">
<path d="M2115 6094 c-684 -55 -1279 -418 -1631 -994 -199 -327 -298 -686
-298 -1080 0 -204 15 -323 64 -520 184 -731 759 -1306 1490 -1490 197 -49 316
-64 520 -64 204 0 323 15 520 64 528 133 989 478 1266 948 38 64 50 78 51 60
30 -284 112 -499 258 -679 159 -196 408 -336 680 -383 291 -51 619 41 870 243
191 154 332 405 380 682 50 281 -41 608 -237 855 -38 48 -88 102 -111 119
l-42 30 165 5 c185 6 204 12 235 77 37 77 47 64 -456 568 l-459 460 210 210
c217 217 238 245 225 305 -9 40 -58 88 -99 96 -71 13 -94 -7 -612 -527 -513
-516 -526 -530 -509 -596 16 -67 79 -110 143 -98 31 5 71 41 250 218 l212 212
338 -338 337 -337 -773 0 -772 0 0 41 c0 110 -63 401 -120 559 -101 276 -275
546 -489 759 -372 369 -872 581 -1407 595 -82 2 -171 2 -199 0z m418 -265
c215 -32 478 -126 660 -235 73 -44 242 -167 252 -184 5 -8 -205 -225 -591
-611 l-599 -599 -597 597 c-498 498 -595 599 -585 612 18 22 183 142 254 185
225 135 511 225 793 250 73 6 334 -3 413 -15z m1190 -717 c152 -202 250 -406
312 -652 39 -155 49 -245 49 -440 0 -102 -6 -221 -13 -265 -36 -228 -127 -484
-238 -668 -37 -63 -176 -251 -191 -261 -5 -3 -278 265 -608 595 l-599 599 599
599 c330 330 603 598 608 595 5 -3 41 -49 81 -102z m-2243 -497 l595 -595
-595 -595 c-327 -327 -598 -595 -602 -595 -10 0 -148 184 -191 257 -111 184
-202 440 -238 668 -7 44 -13 163 -13 265 0 102 6 221 13 265 50 316 178 613
373 864 27 34 51 61 56 61 4 0 275 -268 602 -595z m2982 -759 c-40 -33 -99
-97 -135 -146 l-18 -25 5 25 c3 14 9 60 12 103 l7 77 84 0 85 0 -40 -34z m968
-1 c83 -27 188 -75 242 -112 l27 -19 -252 -252 -252 -252 -250 250 -250 251
25 19 c39 31 179 96 245 115 149 44 329 43 465 0z m-1980 -1217 c0 -5 -27 -29
-61 -56 -251 -195 -548 -323 -864 -373 -44 -7 -163 -13 -265 -13 -246 0 -411
28 -620 104 -206 76 -431 205 -553 318 l-28 26 598 598 598 598 597 -597 c329
-329 598 -601 598 -605z m1316 153 c-285 -285 -251 -271 -319 -136 -142 283
-125 588 47 852 l21 33 250 -250 250 -250 -249 -249z m1131 732 c30 -39 93
-173 119 -258 26 -80 29 -104 29 -225 0 -121 -3 -145 -29 -225 -27 -86 -89
-219 -121 -260 -15 -19 -26 -9 -268 233 l-252 252 250 250 c137 137 252 250
254 250 2 0 10 -8 18 -17z m-225 -1186 c-53 -36 -158 -85 -242 -113 -77 -25
-98 -28 -230 -28 -132 0 -153 3 -230 28 -47 15 -119 46 -160 67 -134 70 -149
34 135 319 l250 250 252 -252 252 -252 -27 -19z"/>
</g>
</svg>
