<?xml version="1.0" standalone="no"?>
<!DOCTYPE svg PUBLIC "-//W3C//DTD SVG 20010904//EN"
 "http://www.w3.org/TR/2001/REC-SVG-20010904/DTD/svg10.dtd">
<svg version="1.0" xmlns="http://www.w3.org/2000/svg"
 width="746pt" height="1000pt" viewBox="0 0 746 1000"
 preserveAspectRatio="xMidYMid meet">
<metadata>
Created by potrace 1.9, written by Peter Selinger 2001-2010
</metadata>
<g transform="translate(0,1000) scale(0.100000,-0.100000)"
fill="#000000" stroke="none">
<path d="M251 4122 c-36 -19 -71 -73 -71 -107 1 -57 49 -111 479 -540 l441
-440 -449 -450 c-468 -470 -483 -487 -466 -552 16 -67 79 -110 143 -98 32 5
98 68 494 463 l458 457 452 -452 c473 -470 490 -485 555 -468 67 16 110 79 98
143 -5 32 -68 99 -466 497 l-459 460 455 455 c315 315 458 465 466 488 6 17 8
46 4 62 -8 39 -56 87 -95 95 -70 15 -82 6 -558 -469 l-452 -451 -453 452
c-248 249 -465 457 -480 463 -39 14 -57 13 -96 -8z"/>
<path d="M3191 4122 c-36 -19 -71 -72 -71 -107 0 -35 35 -88 71 -107 28 -15
57 -18 182 -18 l149 0 -39 -32 c-108 -91 -230 -271 -289 -428 -59 -155 -86
-376 -64 -522 77 -505 427 -865 925 -952 290 -51 619 41 870 242 84 68 187
191 238 283 18 32 34 59 37 59 3 0 20 -28 39 -63 145 -263 443 -463 776 -521
291 -51 619 41 870 243 191 154 332 405 380 682 50 281 -41 608 -237 855 -38
48 -88 102 -111 119 l-42 30 165 5 c137 4 170 8 192 23 28 19 58 73 58 104 0
33 -36 86 -71 105 -32 17 -115 18 -2014 18 -1899 0 -1982 -1 -2014 -18z m1259
-267 c83 -27 188 -75 242 -112 l27 -19 -252 -252 -252 -252 -250 250 -250 251
25 19 c39 31 179 96 245 115 149 44 329 43 465 0z m993 3 c-21 -18 -55 -51
-75 -73 -44 -49 -144 -195 -153 -224 -3 -11 -9 -21 -13 -21 -4 0 -21 27 -39
59 -43 78 -156 219 -204 254 -21 16 -39 31 -39 33 0 2 126 4 281 4 l281 0 -39
-32z m967 -3 c83 -27 188 -75 242 -112 l27 -19 -252 -252 -252 -252 -250 250
-250 251 25 19 c39 31 179 96 245 115 149 44 329 43 465 0z m-2624 -1064
c-285 -285 -251 -271 -319 -136 -142 283 -125 588 47 852 l21 33 250 -250 250
-250 -249 -249z m1131 732 c30 -39 93 -173 119 -258 26 -80 29 -104 29 -225 0
-121 -3 -145 -29 -225 -27 -86 -89 -219 -121 -260 -15 -19 -26 -9 -268 233
l-252 252 250 250 c137 137 252 250 254 250 2 0 10 -8 18 -17z m829 -732
c-285 -285 -251 -271 -319 -136 -142 283 -125 588 47 852 l21 33 250 -250 250
-250 -249 -249z m1131 732 c30 -39 93 -173 119 -258 26 -80 29 -104 29 -225 0
-121 -3 -145 -29 -225 -27 -86 -89 -219 -121 -260 -15 -19 -26 -9 -268 233
l-252 252 250 250 c137 137 252 250 254 250 2 0 10 -8 18 -17z m-2185 -1186
c-53 -36 -158 -85 -242 -113 -77 -25 -98 -28 -230 -28 -132 0 -153 3 -230 28
-47 15 -119 46 -160 67 -134 70 -149 34 135 319 l250 250 252 -252 252 -252
-27 -19z m1960 0 c-53 -36 -158 -85 -242 -113 -77 -25 -98 -28 -230 -28 -132
0 -153 3 -230 28 -47 15 -119 46 -160 67 -134 70 -149 34 135 319 l250 250
252 -252 252 -252 -27 -19z"/>
</g>
</svg>
