<?xml version="1.0" standalone="no"?>
<!DOCTYPE svg PUBLIC "-//W3C//DTD SVG 20010904//EN"
 "http://www.w3.org/TR/2001/REC-SVG-20010904/DTD/svg10.dtd">
<svg version="1.0" xmlns="http://www.w3.org/2000/svg"
 width="1236pt" height="1000pt" viewBox="0 0 1236 1000"
 preserveAspectRatio="xMidYMid meet">
<metadata>
Created by potrace 1.9, written by Peter Selinger 2001-2010
</metadata>
<g transform="translate(0,1000) scale(0.100000,-0.100000)"
fill="#000000" stroke="none">
<path d="M4172 8044 c-18 -9 -41 -29 -51 -43 -40 -56 -501 -992 -506 -1028
-11 -74 61 -150 132 -139 68 10 76 22 280 430 l195 391 193 -385 c200 -398
216 -423 282 -436 39 -7 95 18 118 53 41 62 45 53 -233 609 -194 389 -267 525
-287 538 -39 25 -85 29 -123 10z"/>
<path d="M10910 6084 c-270 -49 -508 -184 -674 -383 -113 -135 -208 -344 -237
-520 l-12 -68 -68 -12 c-176 -29 -385 -124 -520 -237 -290 -242 -446 -650
-384 -1003 49 -279 185 -523 384 -685 188 -154 467 -256 701 -256 239 0 523
106 712 265 280 236 434 647 373 994 -62 352 -254 632 -543 792 -125 69 -207
99 -374 134 -35 7 -35 21 -2 127 91 288 289 486 584 584 77 25 98 28 230 28
132 0 153 -3 230 -28 183 -61 317 -152 431 -292 66 -80 115 -175 155 -294 25
-76 28 -100 28 -220 0 -110 -5 -159 -27 -265 -113 -532 -328 -1027 -628 -1446
-306 -428 -714 -805 -1150 -1063 -128 -76 -144 -93 -144 -161 0 -62 25 -97 82
-116 47 -15 72 -7 198 68 656 392 1159 928 1515 1616 198 382 327 779 399
1232 20 125 19 131 -5 283 -57 358 -262 649 -572 810 -218 113 -466 155 -682
116z m-580 -1249 c176 -56 318 -152 431 -291 68 -83 117 -178 155 -299 26 -80
29 -104 29 -225 0 -121 -3 -145 -29 -225 -93 -295 -290 -493 -586 -591 -77
-25 -98 -28 -230 -28 -132 0 -153 3 -230 28 -179 59 -319 154 -431 292 -68 82
-117 177 -155 299 -26 82 -29 103 -28 230 0 126 3 149 28 225 95 288 291 488
567 579 106 35 147 40 274 37 97 -3 137 -9 205 -31z"/>
<path d="M4075 4134 c-172 -14 -419 -67 -575 -124 -565 -207 -1023 -665 -1230
-1230 -57 -158 -120 -449 -120 -559 l0 -41 -933 0 c-884 0 -934 -1 -966 -18
-36 -19 -71 -72 -71 -107 0 -35 35 -88 71 -107 32 -17 84 -18 1034 -18 950 0
1002 1 1034 18 53 29 67 66 75 199 12 204 44 361 106 533 97 264 227 466 430
670 246 246 519 401 850 485 155 39 245 49 440 49 195 0 285 -10 440 -49 331
-84 604 -239 850 -485 246 -246 402 -521 484 -850 32 -128 35 -147 50 -329 8
-94 19 -166 27 -179 8 -13 32 -31 55 -42 39 -20 65 -20 1040 -20 949 0 1001 1
1033 18 36 19 71 72 71 107 0 35 -35 88 -71 107 -32 17 -82 18 -971 18 l-938
0 0 41 c0 110 -63 401 -120 559 -207 565 -665 1023 -1230 1230 -108 39 -286
84 -416 104 -102 16 -357 27 -449 20z"/>
</g>
</svg>
