<?xml version="1.0" standalone="no"?>
<!DOCTYPE svg PUBLIC "-//W3C//DTD SVG 20010904//EN"
 "http://www.w3.org/TR/2001/REC-SVG-20010904/DTD/svg10.dtd">
<svg version="1.0" xmlns="http://www.w3.org/2000/svg"
 width="1334pt" height="1000pt" viewBox="0 0 1334 1000"
 preserveAspectRatio="xMidYMid meet">
<metadata>
Created by potrace 1.9, written by Peter Selinger 2001-2010
</metadata>
<g transform="translate(0,1000) scale(0.100000,-0.100000)"
fill="#000000" stroke="none">
<path d="M1232 8044 c-18 -9 -41 -29 -51 -43 -40 -56 -501 -992 -506 -1028
-11 -74 61 -150 132 -139 68 10 76 22 280 430 l195 391 193 -385 c200 -398
216 -423 282 -436 39 -7 95 18 118 53 41 62 45 53 -233 609 -194 389 -267 525
-287 538 -39 25 -85 29 -123 10z"/>
<path d="M5151 6082 c-19 -10 -43 -34 -53 -53 -17 -32 -18 -110 -18 -1854 l0
-1820 -397 397 c-343 342 -403 398 -435 403 -64 12 -127 -31 -143 -98 -16 -64
2 -87 383 -469 l365 -367 -94 24 c-167 43 -358 121 -492 201 -240 145 -495
400 -640 641 -82 135 -160 327 -201 493 -32 128 -35 147 -50 329 -8 88 -19
166 -26 178 -45 72 -172 69 -212 -5 -31 -60 -5 -354 52 -582 204 -811 885
-1420 1715 -1534 277 -38 312 -38 590 0 615 85 1155 440 1481 975 143 234 234
490 279 779 21 137 25 328 7 362 -40 74 -167 77 -212 5 -7 -12 -18 -90 -26
-178 -15 -182 -18 -201 -50 -329 -82 -330 -242 -610 -493 -859 -239 -238 -512
-392 -840 -476 l-94 -24 376 377 c323 325 377 382 382 414 12 64 -31 127 -98
143 -64 17 -86 -1 -489 -403 l-388 -387 0 1815 c0 1739 -1 1817 -18 1849 -19
36 -72 71 -107 71 -11 0 -36 -8 -54 -18z"/>
<path d="M10935 6094 c-684 -55 -1279 -418 -1631 -994 -143 -235 -234 -491
-279 -780 -21 -137 -25 -328 -7 -362 40 -74 167 -77 212 -5 7 12 18 90 26 178
15 182 18 201 50 329 82 329 238 604 484 850 246 246 519 401 850 485 155 39
245 49 440 49 195 0 285 -10 440 -49 331 -84 604 -239 850 -485 246 -246 402
-521 484 -850 32 -128 35 -147 50 -329 8 -88 19 -166 26 -178 45 -72 172 -69
212 5 18 34 14 225 -7 362 -71 458 -269 853 -585 1170 -378 377 -876 590
-1416 604 -82 2 -171 2 -199 0z"/>
<path d="M251 5102 c-19 -10 -43 -34 -53 -53 -17 -32 -18 -84 -18 -1034 0
-950 1 -1002 18 -1034 10 -19 34 -43 53 -53 32 -17 84 -18 1034 -18 950 0
1002 1 1034 18 19 10 43 34 53 53 17 32 18 84 18 1034 0 950 -1 1002 -18 1034
-10 19 -34 43 -53 53 -32 17 -84 18 -1034 18 -950 0 -1002 -1 -1034 -18z
m1889 -1087 l0 -855 -855 0 -855 0 0 855 0 855 855 0 855 0 0 -855z"/>
<path d="M8091 5102 c-19 -10 -43 -34 -53 -53 -17 -32 -18 -77 -18 -789 0
-712 1 -757 18 -789 19 -36 72 -71 107 -71 35 0 88 35 107 71 17 32 18 77 18
789 0 712 -1 757 -18 789 -19 36 -72 71 -107 71 -11 0 -36 -8 -54 -18z"/>
<path d="M11025 4121 c-57 -27 -1988 -1962 -2010 -2013 -8 -21 -15 -45 -15
-55 0 -33 36 -86 71 -105 32 -17 115 -18 2014 -18 1904 0 1982 1 2015 18 46
25 74 81 65 130 -6 33 -119 150 -1003 1036 -583 583 -1010 1004 -1029 1012
-42 18 -60 17 -108 -5z m885 -1116 l825 -825 -1655 0 -1655 0 825 825 c454
454 827 825 830 825 3 0 376 -371 830 -825z"/>
<path d="M8103 3173 c-33 -6 -79 -57 -86 -92 -26 -127 122 -210 212 -120 43
42 49 93 18 156 -20 42 -87 68 -144 56z"/>
</g>
</svg>
