<?xml version="1.0" standalone="no"?>
<!DOCTYPE svg PUBLIC "-//W3C//DTD SVG 20010904//EN"
 "http://www.w3.org/TR/2001/REC-SVG-20010904/DTD/svg10.dtd">
<svg version="1.0" xmlns="http://www.w3.org/2000/svg"
 width="648pt" height="1000pt" viewBox="0 0 648 1000"
 preserveAspectRatio="xMidYMid meet">
<metadata>
Created by potrace 1.9, written by Peter Selinger 2001-2010
</metadata>
<g transform="translate(0,1000) scale(0.100000,-0.100000)"
fill="#000000" stroke="none">
<path d="M251 3142 c-36 -19 -71 -72 -71 -107 0 -35 35 -88 71 -107 31 -17 67
-18 471 -18 l438 0 0 -438 c0 -489 0 -486 71 -524 32 -17 115 -18 2014 -18
1899 0 1982 1 2014 18 71 38 71 35 71 524 l0 438 438 0 c404 0 440 1 471 18
36 19 71 72 71 107 0 35 -35 88 -71 107 -31 17 -69 18 -544 18 -475 0 -513 -1
-544 -18 -71 -38 -71 -35 -71 -524 l0 -438 -1835 0 -1835 0 0 438 c0 489 0
486 -71 524 -31 17 -69 18 -544 18 -475 0 -513 -1 -544 -18z"/>
</g>
</svg>
