<?xml version="1.0" standalone="no"?>
<!DOCTYPE svg PUBLIC "-//W3C//DTD SVG 20010904//EN"
 "http://www.w3.org/TR/2001/REC-SVG-20010904/DTD/svg10.dtd">
<svg version="1.0" xmlns="http://www.w3.org/2000/svg"
 width="942pt" height="1000pt" viewBox="0 0 942 1000"
 preserveAspectRatio="xMidYMid meet">
<metadata>
Created by potrace 1.9, written by Peter Selinger 2001-2010
</metadata>
<g transform="translate(0,1000) scale(0.100000,-0.100000)"
fill="#000000" stroke="none">
<path d="M2212 6084 c-18 -9 -41 -29 -51 -43 -41 -58 -1971 -3933 -1976 -3968
-8 -49 19 -100 66 -125 32 -17 115 -18 2014 -18 1899 0 1982 1 2014 18 37 20
71 72 71 109 0 13 -447 918 -994 2011 -764 1527 -1000 1993 -1021 2006 -39 25
-85 29 -123 10z m55 -3902 c-963 -1 -1752 0 -1754 2 -2 2 390 793 873 1757
l877 1754 877 -1755 878 -1755 -1751 -3z"/>
<path d="M7111 6082 c-36 -19 -71 -73 -71 -107 1 -57 49 -111 479 -540 l441
-440 -1429 -1430 c-1160 -1161 -1431 -1437 -1441 -1468 -20 -64 6 -123 67
-152 81 -39 -28 -140 1545 1433 l1438 1437 452 -451 c358 -357 461 -454 491
-464 64 -20 123 6 152 67 38 80 98 14 -993 1107 -583 583 -1010 1004 -1029
1012 -43 18 -61 18 -102 -4z"/>
</g>
</svg>
