<?xml version="1.0" standalone="no"?>
<!DOCTYPE svg PUBLIC "-//W3C//DTD SVG 20010904//EN"
 "http://www.w3.org/TR/2001/REC-SVG-20010904/DTD/svg10.dtd">
<svg version="1.0" xmlns="http://www.w3.org/2000/svg"
 width="452pt" height="1000pt" viewBox="0 0 452 1000"
 preserveAspectRatio="xMidYMid meet">
<metadata>
Created by potrace 1.9, written by Peter Selinger 2001-2010
</metadata>
<g transform="translate(0,1000) scale(0.100000,-0.100000)"
fill="#000000" stroke="none">
<path d="M2098 4125 c-207 -33 -388 -114 -551 -248 -174 -144 -306 -364 -357
-599 -43 -197 -37 -352 22 -553 54 -184 198 -413 317 -505 l46 -35 -655 -5
c-611 -5 -657 -6 -682 -23 -28 -19 -58 -73 -58 -104 0 -33 36 -86 71 -105 32
-17 115 -18 2014 -18 1899 0 1982 1 2014 18 35 19 71 72 71 105 0 31 -30 85
-58 104 -25 17 -72 18 -687 23 l-660 5 47 36 c26 20 79 76 117 124 195 246
286 574 236 854 -35 202 -115 383 -235 535 -158 199 -409 342 -685 390 -107
19 -208 19 -327 1z m392 -270 c83 -27 188 -75 242 -112 l27 -19 -252 -252
-252 -252 -250 250 -250 251 25 19 c39 31 179 96 245 115 149 44 329 43 465 0z
m-664 -1064 c-285 -285 -251 -271 -319 -136 -142 283 -125 588 47 852 l21 33
250 -250 250 -250 -249 -249z m1131 732 c30 -39 93 -173 119 -258 26 -80 29
-104 29 -225 0 -121 -3 -145 -29 -225 -27 -86 -89 -219 -121 -260 -15 -19 -26
-9 -268 233 l-252 252 250 250 c137 137 252 250 254 250 2 0 10 -8 18 -17z
m-225 -1186 c-53 -36 -158 -85 -242 -113 -77 -25 -98 -28 -230 -28 -132 0
-153 3 -230 28 -47 15 -119 46 -160 67 -134 70 -149 34 135 319 l250 250 252
-252 252 -252 -27 -19z"/>
</g>
</svg>
