<?xml version="1.0" standalone="no"?>
<!DOCTYPE svg PUBLIC "-//W3C//DTD SVG 20010904//EN"
 "http://www.w3.org/TR/2001/REC-SVG-20010904/DTD/svg10.dtd">
<svg version="1.0" xmlns="http://www.w3.org/2000/svg"
 width="746pt" height="1000pt" viewBox="0 0 746 1000"
 preserveAspectRatio="xMidYMid meet">
<metadata>
Created by potrace 1.9, written by Peter Selinger 2001-2010
</metadata>
<g transform="translate(0,1000) scale(0.100000,-0.100000)"
fill="#000000" stroke="none">
<path d="M2115 6094 c-684 -55 -1279 -418 -1631 -994 -143 -235 -234 -491
-279 -780 -21 -137 -25 -328 -7 -362 40 -74 167 -77 212 -5 7 12 18 90 26 178
15 182 18 201 50 329 82 329 238 604 484 850 246 246 519 401 850 485 155 39
245 49 440 49 195 0 285 -10 440 -49 331 -84 604 -239 850 -485 246 -246 402
-521 484 -850 32 -128 35 -147 50 -329 8 -88 19 -166 26 -178 45 -72 172 -69
212 5 18 34 14 225 -7 362 -71 458 -269 853 -585 1170 -378 377 -876 590
-1416 604 -82 2 -171 2 -199 0z"/>
<path d="M7111 6082 c-19 -10 -43 -34 -53 -53 -17 -32 -18 -89 -18 -1169 l0
-1135 -45 51 c-184 211 -525 364 -815 364 -234 0 -519 -104 -701 -256 -290
-242 -446 -650 -384 -1003 49 -279 185 -523 384 -685 145 -119 339 -206 536
-240 364 -64 780 97 1017 394 125 155 201 338 239 569 18 110 19 192 19 1596
0 1415 -1 1482 -18 1514 -19 36 -72 71 -107 71 -11 0 -36 -8 -54 -18z m-701
-2227 c176 -56 318 -152 431 -291 68 -83 117 -178 155 -299 26 -80 29 -104 29
-225 0 -121 -3 -145 -29 -225 -93 -295 -290 -493 -586 -591 -77 -25 -98 -28
-230 -28 -132 0 -153 3 -230 28 -179 59 -319 154 -431 292 -68 82 -117 177
-155 299 -26 82 -29 103 -28 230 0 126 3 149 28 225 95 288 291 488 567 579
106 35 147 40 274 37 97 -3 137 -9 205 -31z"/>
<path d="M2205 4121 c-57 -27 -1988 -1962 -2010 -2013 -8 -21 -15 -45 -15 -55
0 -33 36 -86 71 -105 32 -17 115 -18 2014 -18 1904 0 1982 1 2015 18 46 25 74
81 65 130 -6 33 -119 150 -1003 1036 -583 583 -1010 1004 -1029 1012 -42 18
-60 17 -108 -5z m885 -1116 l825 -825 -1655 0 -1655 0 825 825 c454 454 827
825 830 825 3 0 376 -371 830 -825z"/>
</g>
</svg>
