<?xml version="1.0" standalone="no"?>
<!DOCTYPE svg PUBLIC "-//W3C//DTD SVG 20010904//EN"
 "http://www.w3.org/TR/2001/REC-SVG-20010904/DTD/svg10.dtd">
<svg version="1.0" xmlns="http://www.w3.org/2000/svg"
 width="1040pt" height="1000pt" viewBox="0 0 1040 1000"
 preserveAspectRatio="xMidYMid meet">
<metadata>
Created by potrace 1.9, written by Peter Selinger 2001-2010
</metadata>
<g transform="translate(0,1000) scale(0.100000,-0.100000)"
fill="#000000" stroke="none">
<path d="M1110 4124 c-194 -35 -394 -125 -531 -240 -290 -242 -446 -650 -384
-1003 50 -285 189 -528 395 -694 100 -79 275 -169 395 -202 209 -57 131 -55
2271 -55 1888 0 1971 1 2003 18 36 19 71 72 71 107 0 35 -35 88 -71 107 -32
17 -104 18 -1661 18 l-1628 0 83 83 c167 166 268 367 312 618 56 318 -65 687
-306 931 l-77 78 1621 0 c1552 0 1624 1 1656 18 36 19 71 72 71 107 0 35 -35
88 -71 107 -32 17 -115 18 -2054 17 -1656 -1 -2034 -4 -2095 -15z m400 -269
c176 -56 318 -152 431 -291 68 -83 117 -178 155 -299 26 -80 29 -104 29 -225
0 -121 -3 -145 -29 -225 -93 -295 -290 -493 -586 -591 -77 -25 -98 -28 -230
-28 -132 0 -153 3 -230 28 -179 59 -319 154 -431 292 -68 82 -117 177 -155
299 -26 82 -29 103 -28 230 0 126 3 149 28 225 95 288 291 488 567 579 106 35
147 40 274 37 97 -3 137 -9 205 -31z"/>
<path d="M6131 4122 c-36 -19 -71 -72 -71 -107 0 -35 35 -88 71 -107 32 -17
115 -18 2014 -18 1899 0 1982 1 2014 18 36 19 71 72 71 107 0 35 -35 88 -71
107 -32 17 -115 18 -2014 18 -1899 0 -1982 -1 -2014 -18z"/>
<path d="M8103 3163 c-33 -6 -79 -57 -86 -92 -26 -127 122 -210 212 -120 43
42 49 93 18 156 -20 42 -87 68 -144 56z"/>
</g>
</svg>
