<?xml version="1.0" standalone="no"?>
<!DOCTYPE svg PUBLIC "-//W3C//DTD SVG 20010904//EN"
 "http://www.w3.org/TR/2001/REC-SVG-20010904/DTD/svg10.dtd">
<svg version="1.0" xmlns="http://www.w3.org/2000/svg"
 width="452pt" height="1000pt" viewBox="0 0 452 1000"
 preserveAspectRatio="xMidYMid meet">
<metadata>
Created by potrace 1.9, written by Peter Selinger 2001-2010
</metadata>
<g transform="translate(0,1000) scale(0.100000,-0.100000)"
fill="#000000" stroke="none">
<path d="M2212 6090 c-12 -5 -79 -59 -150 -119 -529 -453 -845 -1089 -893
-1798 -25 -378 49 -807 203 -1165 106 -250 300 -548 484 -746 l77 -82 -824 0
c-779 0 -826 -1 -858 -18 -36 -19 -71 -72 -71 -107 0 -35 35 -88 71 -107 32
-17 73 -18 674 -18 l640 0 -42 -36 c-73 -61 -170 -187 -226 -295 -117 -222
-160 -461 -122 -678 50 -285 189 -528 395 -694 99 -79 274 -169 397 -203 88
-24 100 -25 315 -22 220 4 224 4 318 36 400 135 670 455 745 883 56 318 -65
687 -306 931 l-77 78 641 0 c603 0 644 1 676 18 36 19 71 72 71 107 0 35 -35
88 -71 107 -32 17 -79 18 -863 18 l-829 0 77 83 c184 197 378 495 484 745 154
358 228 787 203 1165 -48 709 -364 1345 -893 1798 -152 130 -181 144 -246 119z
m-72 -2072 l-1 -1683 -90 95 c-187 197 -342 433 -448 679 -107 251 -163 484
-182 759 -43 638 175 1250 614 1725 55 59 101 107 103 107 2 0 4 -757 4 -1682z
m507 1382 c165 -219 292 -472 368 -733 122 -419 122 -875 0 -1294 -101 -344
-292 -677 -539 -938 l-85 -90 0 1675 0 1675 85 -90 c47 -49 124 -142 171 -205z
m-157 -3505 c176 -56 318 -152 431 -291 68 -83 117 -178 155 -299 26 -80 29
-104 29 -225 0 -121 -3 -145 -29 -225 -93 -295 -290 -493 -586 -591 -77 -25
-98 -28 -230 -28 -132 0 -153 3 -230 28 -179 59 -319 154 -431 292 -68 82
-117 177 -155 299 -26 82 -29 103 -28 230 0 126 3 149 28 225 95 288 291 488
567 579 106 35 147 40 274 37 97 -3 137 -9 205 -31z"/>
</g>
</svg>
