<?xml version="1.0" standalone="no"?>
<!DOCTYPE svg PUBLIC "-//W3C//DTD SVG 20010904//EN"
 "http://www.w3.org/TR/2001/REC-SVG-20010904/DTD/svg10.dtd">
<svg version="1.0" xmlns="http://www.w3.org/2000/svg"
 width="256pt" height="1000pt" viewBox="0 0 256 1000"
 preserveAspectRatio="xMidYMid meet">
<metadata>
Created by potrace 1.9, written by Peter Selinger 2001-2010
</metadata>
<g transform="translate(0,1000) scale(0.100000,-0.100000)"
fill="#000000" stroke="none">
<path d="M1232 8044 c-18 -9 -41 -29 -51 -43 -40 -56 -501 -992 -506 -1028
-11 -74 61 -150 132 -139 68 10 76 22 280 430 l195 391 193 -385 c200 -398
216 -423 282 -436 39 -7 95 18 118 53 41 62 45 53 -233 609 -194 389 -267 525
-287 538 -39 25 -85 29 -123 10z"/>
<path d="M265 6092 c-99 -35 -118 -168 -32 -222 12 -7 90 -18 178 -26 182 -15
201 -18 329 -50 329 -82 604 -238 850 -484 246 -246 401 -519 485 -850 39
-155 49 -245 49 -440 0 -195 -10 -285 -49 -440 -84 -331 -239 -604 -485 -850
-246 -245 -516 -400 -849 -485 l-94 -24 376 377 c412 413 408 409 372 485 -31
66 -101 91 -168 60 -36 -17 -1016 -985 -1039 -1027 -16 -29 -12 -79 10 -122
12 -23 225 -243 514 -530 515 -513 529 -526 595 -509 67 16 110 79 98 143 -5
32 -63 93 -417 448 -324 325 -407 413 -392 417 11 3 39 9 64 12 77 11 271 63
360 95 503 184 925 569 1156 1055 133 280 198 574 198 895 0 562 -212 1078
-604 1470 -316 315 -715 515 -1165 584 -118 18 -312 28 -340 18z"/>
</g>
</svg>
