<?xml version="1.0" standalone="no"?>
<!DOCTYPE svg PUBLIC "-//W3C//DTD SVG 20010904//EN"
 "http://www.w3.org/TR/2001/REC-SVG-20010904/DTD/svg10.dtd">
<svg version="1.0" xmlns="http://www.w3.org/2000/svg"
 width="648pt" height="1000pt" viewBox="0 0 648 1000"
 preserveAspectRatio="xMidYMid meet">
<metadata>
Created by potrace 1.9, written by Peter Selinger 2001-2010
</metadata>
<g transform="translate(0,1000) scale(0.100000,-0.100000)"
fill="#000000" stroke="none">
<path d="M2115 6094 c-684 -55 -1279 -418 -1631 -994 -178 -294 -280 -628
-299 -990 -6 -102 -4 -119 13 -149 39 -71 40 -71 484 -71 l398 0 -445 -890
c-246 -492 -447 -906 -450 -927 -16 -104 101 -175 190 -117 20 13 134 232 467
898 l440 881 439 -877 c478 -955 459 -923 544 -923 22 0 53 9 68 19 23 15 124
209 469 900 l440 881 438 -874 c321 -643 445 -881 466 -898 78 -62 184 -20
201 81 4 27 -61 164 -446 934 -248 496 -451 904 -451 907 0 3 178 5 395 5 317
0 402 3 428 14 19 8 446 429 1029 1012 1091 1093 1031 1027 993 1107 -29 61
-88 87 -152 67 -31 -10 -211 -185 -929 -902 -702 -701 -893 -887 -897 -872 -3
11 -9 39 -12 64 -11 77 -63 271 -95 360 -207 565 -665 1023 -1230 1230 -108
39 -286 84 -416 104 -102 16 -357 27 -449 20z m418 -265 c215 -32 478 -126
660 -235 242 -146 495 -399 641 -641 131 -219 246 -579 246 -772 l0 -41 -1820
0 -1820 0 0 41 c0 148 74 422 170 627 168 359 503 694 862 862 210 98 418 154
648 174 73 6 334 -3 413 -15z m121 -2711 c-212 -425 -388 -775 -390 -777 -3
-3 -774 1534 -774 1544 0 3 349 5 775 5 l775 0 -386 -772z"/>
</g>
</svg>
