<?xml version="1.0" standalone="no"?>
<!DOCTYPE svg PUBLIC "-//W3C//DTD SVG 20010904//EN"
 "http://www.w3.org/TR/2001/REC-SVG-20010904/DTD/svg10.dtd">
<svg version="1.0" xmlns="http://www.w3.org/2000/svg"
 width="136pt" height="1000pt" viewBox="0 0 136 1000"
 preserveAspectRatio="xMidYMid meet">
<g transform="translate(0,1000) scale(0.100000,-0.100000)"
fill="#000000" stroke="none">
<path d="M185 2898 c4 -369 7 -466 20 -522 48 -205 160 -299 388 -327 240 -29 444 53 524 212 53 104 57 147 62 637 l5 452 -86 0 -85 0 -3 -457 c-4 -519 -5 -528 -80 -609 -53 -57 -134 -84 -253 -84 -180 0 -281 73 -314 228 -7 35 -11 204 -11 487 l0 435 -86 0 -86 0 5 -452z"/>
</g>
</svg>

