<?xml version="1.0" standalone="no"?>
<!DOCTYPE svg PUBLIC "-//W3C//DTD SVG 20010904//EN"
 "http://www.w3.org/TR/2001/REC-SVG-20010904/DTD/svg10.dtd">
<svg version="1.0" xmlns="http://www.w3.org/2000/svg"
 width="942pt" height="1000pt" viewBox="0 0 942 1000"
 preserveAspectRatio="xMidYMid meet">
<metadata>
Created by potrace 1.9, written by Peter Selinger 2001-2010
</metadata>
<g transform="translate(0,1000) scale(0.100000,-0.100000)"
fill="#000000" stroke="none">
<path d="M251 6082 c-19 -10 -43 -34 -53 -53 -17 -32 -18 -116 -18 -2039 0
-2180 -3 -2065 56 -2259 36 -119 123 -280 204 -376 167 -199 404 -332 675
-379 364 -64 780 97 1017 394 125 155 201 338 239 569 18 111 19 201 19 2086
0 1889 -1 1972 -18 2004 -19 36 -72 71 -107 71 -35 0 -88 -35 -107 -71 -17
-32 -18 -104 -18 -1659 l0 -1625 -45 51 c-107 123 -303 249 -470 303 -240 78
-440 79 -679 5 -169 -53 -381 -189 -480 -307 l-36 -42 0 1620 c0 1550 -1 1622
-18 1654 -19 36 -72 71 -107 71 -11 0 -36 -8 -54 -18z m1259 -3207 c176 -56
318 -152 431 -291 68 -83 117 -178 155 -299 26 -80 29 -104 29 -225 0 -121 -3
-145 -29 -225 -93 -295 -290 -493 -586 -591 -77 -25 -98 -28 -230 -28 -132 0
-153 3 -230 28 -179 59 -319 154 -431 292 -68 82 -117 177 -155 299 -26 82
-29 103 -28 230 0 126 3 149 28 225 95 288 291 488 567 579 106 35 147 40 274
37 97 -3 137 -9 205 -31z"/>
<path d="M4172 6085 c-51 -22 -257 -202 -363 -316 -262 -285 -471 -652 -577
-1014 -85 -290 -121 -608 -103 -888 48 -709 364 -1345 894 -1799 71 -61 141
-116 155 -124 23 -12 331 -14 2005 -14 1822 0 1982 1 2014 17 19 9 37 22 40
29 2 6 51 51 108 99 354 296 650 753 783 1210 142 486 142 984 0 1470 -106
362 -315 729 -577 1014 -96 103 -306 289 -358 316 -42 22 -3971 22 -4021 0z
m4015 -319 c331 -283 584 -677 708 -1099 122 -419 122 -875 0 -1294 -124 -425
-378 -818 -714 -1104 l-104 -89 -1897 0 -1897 0 -104 89 c-336 286 -590 679
-714 1104 -122 419 -122 875 0 1294 124 422 377 816 708 1099 l98 84 1909 0
1909 0 98 -84z"/>
<path d="M5030 5104 c-194 -35 -394 -125 -531 -240 -290 -242 -446 -650 -384
-1003 49 -279 185 -523 384 -685 188 -154 467 -256 701 -256 290 0 631 153
815 364 l45 51 0 -160 c0 -181 9 -214 71 -247 42 -23 66 -23 108 0 71 38 71
35 71 524 l0 438 855 0 855 0 0 -438 c0 -404 1 -440 18 -471 19 -36 72 -71
107 -71 35 0 88 35 107 71 17 32 18 84 18 1034 0 950 -1 1002 -18 1034 -19 36
-72 71 -107 71 -35 0 -88 -35 -107 -71 -17 -31 -18 -67 -18 -471 l0 -438 -855
0 -855 0 0 438 c0 489 0 486 -71 524 -42 23 -66 23 -108 0 -61 -33 -71 -66
-71 -242 l0 -155 -45 51 c-227 261 -647 410 -985 348z m400 -269 c176 -56 318
-152 431 -291 68 -83 117 -178 155 -299 26 -80 29 -104 29 -225 0 -121 -3
-145 -29 -225 -93 -295 -290 -493 -586 -591 -77 -25 -98 -28 -230 -28 -132 0
-153 3 -230 28 -179 59 -319 154 -431 292 -68 82 -117 177 -155 299 -26 82
-29 103 -28 230 0 126 3 149 28 225 95 288 291 488 567 579 106 35 147 40 274
37 97 -3 137 -9 205 -31z"/>
</g>
</svg>
