<?xml version="1.0" standalone="no"?>
<!DOCTYPE svg PUBLIC "-//W3C//DTD SVG 20010904//EN"
 "http://www.w3.org/TR/2001/REC-SVG-20010904/DTD/svg10.dtd">
<svg version="1.0" xmlns="http://www.w3.org/2000/svg"
 width="452pt" height="1000pt" viewBox="0 0 452 1000"
 preserveAspectRatio="xMidYMid meet">
<metadata>
Created by potrace 1.9, written by Peter Selinger 2001-2010
</metadata>
<g transform="translate(0,1000) scale(0.100000,-0.100000)"
fill="#000000" stroke="none">
<path d="M2205 6081 c-28 -13 -345 -325 -1021 -1002 -792 -794 -984 -991 -994
-1022 -20 -64 6 -123 67 -152 80 -38 24 -87 996 883 l887 887 0 -1355 c0
-1471 -2 -1419 56 -1609 36 -119 123 -280 204 -376 167 -199 404 -332 675
-379 114 -20 216 -20 330 0 356 62 644 267 803 572 106 203 164 512 109 582
-52 67 -164 65 -206 -2 -7 -11 -17 -63 -22 -116 -34 -367 -263 -651 -619 -768
-77 -25 -98 -28 -230 -28 -132 0 -153 3 -230 28 -293 97 -487 290 -586 586
l-29 85 -3 1385 -2 1385 877 -876 c921 -920 912 -911 980 -894 67 16 110 79
98 143 -5 33 -128 159 -1003 1036 -583 583 -1010 1004 -1029 1012 -42 18 -60
17 -108 -5z"/>
</g>
</svg>
