<?xml version="1.0" standalone="no"?>
<!DOCTYPE svg PUBLIC "-//W3C//DTD SVG 20010904//EN"
 "http://www.w3.org/TR/2001/REC-SVG-20010904/DTD/svg10.dtd">
<svg version="1.0" xmlns="http://www.w3.org/2000/svg"
 width="795pt" height="1000pt" viewBox="0 0 795 1000"
 preserveAspectRatio="xMidYMid meet">
<metadata>
Created by potrace 1.9, written by Peter Selinger 2001-2010
</metadata>
<g transform="translate(0,1000) scale(0.100000,-0.100000)"
fill="#000000" stroke="none">
<path d="M3192 8044 c-18 -9 -41 -29 -51 -43 -40 -56 -501 -992 -506 -1028
-11 -74 61 -150 132 -139 68 10 76 22 280 430 l195 391 193 -385 c200 -398
216 -423 282 -436 39 -7 95 18 118 53 41 62 45 53 -233 609 -194 389 -267 525
-287 538 -39 25 -85 29 -123 10z"/>
<path d="M6621 5102 c-19 -10 -43 -34 -53 -53 -17 -31 -18 -69 -18 -544 0
-475 1 -513 18 -544 19 -36 72 -71 107 -71 35 0 88 35 107 71 17 31 18 69 18
544 0 475 -1 513 -18 544 -19 36 -72 71 -107 71 -11 0 -36 -8 -54 -18z"/>
<path d="M3095 4134 c-172 -14 -419 -67 -575 -124 -565 -207 -1023 -665 -1230
-1230 -32 -89 -84 -283 -95 -360 -3 -25 -9 -53 -12 -64 -4 -15 -91 67 -412
387 -445 444 -437 439 -514 402 -61 -29 -87 -88 -67 -152 17 -53 973 -1015
1039 -1045 88 -40 61 -62 629 505 358 358 515 522 523 544 6 18 8 47 4 63 -8
39 -56 87 -95 95 -69 15 -86 1 -479 -389 -205 -204 -371 -362 -368 -351 4 11
15 56 26 100 80 316 240 593 481 835 246 246 519 401 850 485 155 39 245 49
440 49 195 0 285 -10 440 -49 331 -84 604 -239 850 -485 246 -246 402 -521
484 -850 32 -128 35 -147 50 -329 8 -88 19 -166 26 -178 45 -72 172 -69 212 5
18 34 14 225 -7 362 -71 458 -269 853 -585 1170 -378 377 -876 590 -1416 604
-82 2 -171 2 -199 0z"/>
<path d="M6595 3643 c-144 -22 -261 -80 -355 -173 -116 -117 -173 -259 -173
-430 0 -168 57 -311 168 -425 118 -120 259 -177 435 -177 176 0 317 57 435
177 111 114 168 257 168 425 0 59 -6 120 -17 160 -55 202 -217 367 -415 422
-68 19 -194 30 -246 21z m220 -277 c71 -32 149 -111 183 -184 22 -48 27 -71
27 -142 0 -106 -29 -175 -105 -250 -75 -76 -144 -105 -250 -105 -106 0 -175
29 -250 105 -76 75 -105 144 -105 250 0 71 5 94 27 142 45 98 146 183 245 208
61 15 167 4 228 -24z"/>
</g>
</svg>
