<?xml version="1.0" standalone="no"?>
<!DOCTYPE svg PUBLIC "-//W3C//DTD SVG 20010904//EN"
 "http://www.w3.org/TR/2001/REC-SVG-20010904/DTD/svg10.dtd">
<svg version="1.0" xmlns="http://www.w3.org/2000/svg"
 width="452pt" height="1000pt" viewBox="0 0 452 1000"
 preserveAspectRatio="xMidYMid meet">
<metadata>
Created by potrace 1.9, written by Peter Selinger 2001-2010
</metadata>
<g transform="translate(0,1000) scale(0.100000,-0.100000)"
fill="#000000" stroke="none">
<path d="M2212 8044 c-18 -9 -41 -29 -51 -43 -40 -56 -501 -992 -506 -1028
-11 -74 61 -150 132 -139 68 10 76 22 280 430 l195 391 193 -385 c200 -398
216 -423 282 -436 39 -7 95 18 118 53 41 62 45 53 -233 609 -194 389 -267 525
-287 538 -39 25 -85 29 -123 10z"/>
<path d="M250 6082 c-19 -11 -42 -34 -52 -54 -17 -33 -18 -126 -18 -2013 0
-1887 1 -1980 18 -2013 10 -20 33 -43 52 -54 33 -17 111 -18 2015 -18 1899 0
1982 1 2014 18 36 19 71 72 71 107 0 35 -35 88 -71 107 -32 17 -82 18 -971 18
l-938 0 0 41 c0 110 -63 401 -120 559 -207 565 -665 1023 -1230 1230 -93 34
-287 85 -365 96 -27 3 -54 9 -59 12 -4 2 174 187 397 411 350 350 407 411 412
443 12 64 -31 127 -98 143 -64 17 -86 -1 -489 -403 l-388 -387 0 835 c0 790
-1 837 -18 869 -19 36 -72 71 -107 71 -11 0 -36 -8 -55 -18z m505 -2251 c152
-39 348 -120 478 -197 242 -146 495 -399 641 -641 131 -219 246 -579 246 -772
l0 -41 -845 0 -845 0 0 762 0 763 388 -387 c403 -402 425 -420 489 -403 67 16
110 79 98 143 -5 32 -60 90 -388 421 -210 210 -373 381 -362 378 11 -4 56 -15
100 -26z"/>
</g>
</svg>
