<?xml version="1.0" standalone="no"?>
<!DOCTYPE svg PUBLIC "-//W3C//DTD SVG 20010904//EN"
 "http://www.w3.org/TR/2001/REC-SVG-20010904/DTD/svg10.dtd">
<svg version="1.0" xmlns="http://www.w3.org/2000/svg"
 width="1138pt" height="1000pt" viewBox="0 0 1138 1000"
 preserveAspectRatio="xMidYMid meet">
<metadata>
Created by potrace 1.9, written by Peter Selinger 2001-2010
</metadata>
<g transform="translate(0,1000) scale(0.100000,-0.100000)"
fill="#000000" stroke="none">
<path d="M3185 7061 c-27 -13 -201 -180 -531 -512 -513 -516 -526 -530 -509
-596 16 -67 79 -110 143 -98 32 5 92 61 435 403 l397 397 0 -768 0 -767 -438
0 c-404 0 -440 -1 -471 -18 -71 -38 -71 -35 -71 -524 l0 -438 -767 0 -768 0
397 398 c435 435 430 429 393 505 -29 61 -88 87 -152 67 -56 -18 -1026 -986
-1050 -1048 -33 -88 -45 -73 505 -625 521 -521 542 -539 608 -523 68 17 111
80 99 144 -5 32 -61 92 -403 435 l-397 397 768 0 767 0 0 -438 c0 -489 0 -486
71 -524 31 -17 67 -18 471 -18 l438 0 0 -767 0 -768 -397 397 c-436 435 -430
430 -506 393 -61 -29 -87 -88 -67 -152 17 -53 973 -1015 1039 -1045 88 -40 61
-62 629 505 358 358 515 522 523 544 6 18 8 47 4 63 -8 39 -56 87 -95 95 -70
15 -85 2 -492 -403 l-388 -387 0 763 0 762 438 0 c404 0 440 1 471 18 71 38
71 35 71 524 l0 438 762 0 763 0 -387 -387 c-402 -404 -420 -426 -403 -490 16
-67 79 -110 143 -98 32 5 105 74 550 518 358 358 515 522 523 544 24 73 30 65
-514 611 -358 358 -522 515 -544 523 -18 6 -47 8 -63 4 -39 -8 -87 -56 -95
-95 -15 -70 -2 -85 403 -492 l387 -388 -763 0 -762 0 0 438 c0 489 0 486 -71
524 -31 17 -67 18 -471 18 l-438 0 0 762 0 763 388 -387 c403 -402 425 -420
489 -403 67 16 110 79 98 143 -5 32 -74 104 -513 546 -290 290 -521 514 -539
522 -42 18 -60 17 -108 -5z m915 -3046 l0 -855 -855 0 -855 0 0 855 0 855 855
0 855 0 0 -855z"/>
<path d="M7970 5104 c-194 -35 -394 -125 -531 -240 -290 -242 -446 -650 -384
-1003 50 -285 189 -528 395 -694 100 -79 275 -169 395 -202 50 -13 138 -31
196 -40 99 -14 112 -14 227 5 160 26 285 68 407 135 296 164 488 441 550 796
61 347 -93 758 -373 994 -241 203 -592 302 -882 249z m50 -1084 c0 -727 -2
-840 -14 -840 -33 0 -186 54 -257 91 -144 75 -291 222 -362 364 -19 39 -48
111 -63 160 -26 82 -29 103 -28 230 0 126 3 149 28 225 16 47 44 117 63 155
70 140 221 293 358 363 71 36 225 91 258 92 16 0 17 -47 17 -840z m352 814
c173 -54 316 -151 429 -290 68 -83 117 -178 155 -299 26 -80 29 -104 29 -225
0 -121 -3 -145 -29 -225 -93 -295 -295 -498 -584 -589 -46 -14 -87 -26 -93
-26 -5 0 -9 317 -9 840 0 523 4 840 9 840 6 0 47 -12 93 -26z"/>
<path d="M10515 5113 c-256 -40 -449 -208 -510 -443 -21 -81 -24 -188 -7 -222
29 -54 115 -75 172 -41 38 22 48 43 64 139 17 99 43 152 107 216 74 74 144
103 249 103 106 0 175 -29 250 -105 76 -75 105 -144 105 -250 0 -105 -29 -175
-103 -249 -64 -64 -117 -90 -216 -107 -96 -17 -117 -26 -140 -65 -15 -26 -17
-61 -16 -306 0 -228 3 -282 16 -309 44 -92 167 -94 216 -3 16 29 18 59 18 240
l0 207 48 12 c134 34 286 156 354 286 51 97 71 181 71 294 0 59 -6 120 -17
160 -55 202 -217 367 -415 422 -68 19 -194 30 -246 21z"/>
<path d="M10553 3173 c-33 -6 -79 -57 -86 -92 -26 -127 122 -210 212 -120 43
42 49 93 18 156 -20 42 -87 68 -144 56z"/>
</g>
</svg>
