<?xml version="1.0" standalone="no"?>
<!DOCTYPE svg PUBLIC "-//W3C//DTD SVG 20010904//EN"
 "http://www.w3.org/TR/2001/REC-SVG-20010904/DTD/svg10.dtd">
<svg version="1.0" xmlns="http://www.w3.org/2000/svg"
 width="452pt" height="1000pt" viewBox="0 0 452 1000"
 preserveAspectRatio="xMidYMid meet">
<metadata>
Created by potrace 1.9, written by Peter Selinger 2001-2010
</metadata>
<g transform="translate(0,1000) scale(0.100000,-0.100000)"
fill="#000000" stroke="none">
<path d="M2211 5102 c-71 -38 -71 -35 -71 -524 l0 -438 -928 0 c-879 0 -929
-1 -961 -18 -36 -19 -71 -72 -71 -107 0 -35 35 -88 71 -107 32 -17 82 -18 961
-18 l928 0 0 -438 c0 -404 1 -440 18 -471 19 -36 72 -71 107 -71 35 0 88 35
107 71 17 32 18 84 18 1034 0 950 -1 1002 -18 1034 -19 36 -72 71 -107 71 -11
0 -36 -8 -54 -18z"/>
<path d="M4165 5101 c-26 -12 -208 -188 -531 -512 -535 -538 -529 -530 -504
-613 10 -35 85 -115 503 -535 519 -520 542 -540 613 -527 41 8 90 56 99 96 4
16 2 45 -4 62 -8 23 -151 173 -466 488 l-455 455 459 460 c503 504 493 491
456 568 -32 67 -102 91 -170 58z"/>
<path d="M4183 4143 c-33 -6 -79 -57 -86 -92 -26 -127 122 -210 212 -120 43
42 49 93 18 156 -20 42 -87 68 -144 56z"/>
</g>
</svg>
