<?xml version="1.0" standalone="no"?>
<!DOCTYPE svg PUBLIC "-//W3C//DTD SVG 20010904//EN"
 "http://www.w3.org/TR/2001/REC-SVG-20010904/DTD/svg10.dtd">
<svg version="1.0" xmlns="http://www.w3.org/2000/svg"
 width="1432pt" height="1000pt" viewBox="0 0 1432 1000"
 preserveAspectRatio="xMidYMid meet">
<metadata>
Created by potrace 1.9, written by Peter Selinger 2001-2010
</metadata>
<g transform="translate(0,1000) scale(0.100000,-0.100000)"
fill="#000000" stroke="none">
<path d="M3095 6094 c-172 -14 -419 -67 -575 -124 -565 -207 -1023 -665 -1230
-1230 -57 -158 -120 -449 -120 -559 l0 -41 -443 0 c-494 0 -491 1 -529 -71
-23 -42 -23 -66 0 -108 38 -72 35 -71 529 -71 l443 0 0 -36 c0 -59 29 -230 60
-354 184 -730 759 -1306 1490 -1490 197 -49 316 -64 520 -64 204 0 323 15 520
64 656 165 1197 654 1430 1290 56 155 120 448 120 554 l0 36 448 0 c500 0 496
-1 534 71 23 42 23 66 0 108 -38 72 -34 71 -534 71 l-448 0 0 41 c0 110 -63
401 -120 559 -101 276 -275 546 -489 759 -372 369 -872 581 -1407 595 -82 2
-171 2 -199 0z m418 -265 c215 -32 478 -126 660 -235 297 -179 575 -484 717
-786 96 -205 170 -479 170 -627 l0 -41 -1820 0 -1820 0 0 41 c0 148 74 422
170 627 168 359 503 694 862 862 210 98 418 154 648 174 73 6 334 -3 413 -15z
m1547 -1975 c0 -143 -76 -420 -170 -622 -142 -302 -420 -607 -717 -786 -184
-110 -440 -201 -668 -237 -103 -16 -427 -16 -530 0 -228 36 -484 127 -668 237
-297 179 -575 484 -717 786 -94 202 -170 479 -170 622 l0 36 1820 0 1820 0 0
-36z"/>
<path d="M8085 6081 c-27 -13 -201 -180 -531 -512 -513 -516 -526 -530 -509
-596 16 -67 79 -110 143 -98 32 5 92 61 435 403 l397 397 0 -282 0 -281 -66
-11 c-176 -31 -381 -125 -515 -237 -290 -242 -446 -650 -384 -1003 49 -279
185 -523 384 -685 138 -113 340 -206 514 -236 l67 -12 0 -447 c0 -499 -1 -495
71 -533 42 -23 66 -23 108 0 72 38 71 34 71 534 l0 447 38 6 c20 4 78 18 127
31 417 115 712 448 790 895 61 345 -93 757 -368 990 -150 127 -357 222 -549
254 l-38 6 0 277 0 277 388 -387 c403 -402 425 -420 489 -403 67 16 110 79 98
143 -5 32 -74 104 -513 546 -290 290 -521 514 -539 522 -42 18 -60 17 -108 -5z
m-65 -2061 c0 -727 -2 -840 -14 -840 -33 0 -186 54 -257 91 -144 75 -291 222
-362 364 -19 39 -48 111 -63 160 -26 82 -29 103 -28 230 0 126 3 149 28 225
16 47 44 117 63 155 70 140 221 293 358 363 71 36 225 91 258 92 16 0 17 -47
17 -840z m352 814 c173 -54 316 -151 429 -290 68 -83 117 -178 155 -299 26
-80 29 -104 29 -225 0 -121 -3 -145 -29 -225 -93 -295 -295 -498 -584 -589
-46 -14 -87 -26 -93 -26 -5 0 -9 317 -9 840 0 523 4 840 9 840 6 0 47 -12 93
-26z"/>
<path d="M11031 5102 c-64 -34 -71 -62 -71 -283 l0 -196 -59 -6 c-313 -33
-631 -182 -859 -402 -70 -67 -95 -99 -101 -125 -21 -96 61 -174 154 -149 22 6
66 39 118 87 104 99 173 150 267 201 132 71 356 141 450 141 l30 0 0 -678 c0
-637 1 -679 18 -711 10 -19 34 -43 53 -53 32 -17 84 -18 1034 -18 950 0 1002
1 1034 18 67 36 71 57 71 333 l0 246 83 12 c299 45 591 183 798 376 68 63 79
83 79 137 0 41 -5 52 -35 83 -30 30 -42 35 -81 35 -48 0 -104 -30 -154 -85
-39 -42 -148 -120 -230 -163 -130 -69 -355 -142 -440 -142 -20 0 -20 2 -20
628 0 588 -1 629 -18 661 -10 19 -34 43 -53 53 -32 17 -84 18 -1034 18 -950 0
-1002 -1 -1034 -18z m1889 -787 l0 -555 -32 0 c-143 1 -425 111 -583 228 -67
49 -83 66 -93 99 -9 31 -35 63 -105 130 -222 212 -501 347 -814 394 l-83 12 0
124 0 123 855 0 855 0 0 -555z m-1593 39 c168 -35 358 -120 488 -219 91 -69
120 -101 135 -149 29 -90 294 -283 514 -372 106 -43 285 -90 384 -99 l72 -8 0
-173 0 -174 -855 0 -855 0 0 605 c0 602 0 605 20 605 12 0 55 -7 97 -16z"/>
</g>
</svg>
