<?xml version="1.0" standalone="no"?>
<!DOCTYPE svg PUBLIC "-//W3C//DTD SVG 20010904//EN"
 "http://www.w3.org/TR/2001/REC-SVG-20010904/DTD/svg10.dtd">
<svg version="1.0" xmlns="http://www.w3.org/2000/svg"
 width="1138pt" height="1000pt" viewBox="0 0 1138 1000"
 preserveAspectRatio="xMidYMid meet">
<metadata>
Created by potrace 1.9, written by Peter Selinger 2001-2010
</metadata>
<g transform="translate(0,1000) scale(0.100000,-0.100000)"
fill="#000000" stroke="none">
<path d="M751 6112 c-84 -13 -128 -114 -82 -187 10 -16 46 -61 81 -100 110
-124 182 -247 239 -407 52 -149 66 -235 65 -413 -1 -225 -30 -354 -124 -550
-55 -115 -118 -203 -304 -423 -117 -139 -229 -337 -285 -507 -150 -454 -84
-927 184 -1330 66 -100 176 -224 218 -247 30 -17 121 -18 1522 -18 1418 0
1492 1 1524 18 18 10 43 34 55 53 11 20 44 64 71 98 156 194 263 433 311 694
24 126 24 380 1 504 -64 340 -173 541 -508 938 -220 260 -316 667 -243 1024
41 201 175 465 289 571 55 50 85 106 85 154 0 39 -5 51 -35 81 -30 30 -42 35
-81 35 -59 0 -85 -17 -159 -100 -295 -336 -428 -810 -350 -1253 34 -192 92
-350 189 -510 66 -110 121 -184 328 -438 109 -135 194 -319 235 -511 24 -115
24 -370 -1 -488 -44 -209 -150 -425 -278 -565 l-50 -55 -1393 0 -1393 0 -50
55 c-131 143 -233 351 -279 567 -24 115 -24 370 1 488 44 210 150 425 279 566
28 31 67 77 86 104 20 27 63 84 96 127 441 575 412 1377 -69 1922 -36 41 -73
79 -81 84 -27 15 -68 23 -94 19z"/>
<path d="M10485 6075 c-30 -31 -35 -42 -35 -83 0 -41 6 -54 43 -99 144 -176
180 -225 220 -302 54 -102 100 -230 124 -343 24 -115 24 -370 -1 -488 -44
-210 -150 -425 -279 -566 -28 -31 -67 -78 -86 -104 -20 -27 -58 -77 -86 -112
-115 -144 -226 -365 -270 -538 -114 -441 -41 -868 211 -1246 73 -111 169 -215
217 -237 71 -33 146 -1 168 72 17 56 0 95 -82 186 -152 171 -247 360 -296 587
-24 115 -24 370 1 488 44 210 150 425 279 566 28 31 67 78 86 104 20 27 59 77
86 112 76 96 169 258 214 371 76 196 105 354 105 567 -1 387 -131 723 -393
1015 -63 70 -88 85 -143 85 -41 0 -52 -5 -83 -35z"/>
<path d="M9065 6081 c-26 -12 -203 -183 -510 -490 l-470 -471 -960 0 c-911 0
-962 -1 -994 -18 -19 -10 -43 -34 -53 -53 -17 -32 -18 -83 -18 -994 l0 -960
-471 -470 c-497 -496 -518 -520 -505 -591 8 -41 56 -90 96 -99 16 -4 45 -2 62
4 23 8 180 158 513 491 l480 480 965 0 c916 0 967 1 999 18 19 10 43 34 53 53
17 32 18 83 18 999 l0 965 484 485 c531 531 518 516 481 593 -32 67 -102 91
-170 58z m-1235 -1214 c0 -1 -342 -344 -760 -762 l-760 -760 0 763 0 762 760
0 c418 0 760 -1 760 -3z m190 -942 l0 -765 -767 0 -768 0 765 765 c421 421
766 765 767 765 2 0 3 -344 3 -765z"/>
</g>
</svg>
