<?xml version="1.0" standalone="no"?>
<!DOCTYPE svg PUBLIC "-//W3C//DTD SVG 20010904//EN"
 "http://www.w3.org/TR/2001/REC-SVG-20010904/DTD/svg10.dtd">
<svg version="1.0" xmlns="http://www.w3.org/2000/svg"
 width="648pt" height="1000pt" viewBox="0 0 648 1000"
 preserveAspectRatio="xMidYMid meet">
<metadata>
Created by potrace 1.9, written by Peter Selinger 2001-2010
</metadata>
<g transform="translate(0,1000) scale(0.100000,-0.100000)"
fill="#000000" stroke="none">
<path d="M1232 6085 c-51 -22 -257 -202 -363 -316 -546 -592 -784 -1407 -644
-2199 105 -588 405 -1114 858 -1502 71 -61 141 -116 155 -124 22 -11 120 -14
537 -14 475 0 513 1 544 18 36 19 71 72 71 107 0 35 -35 88 -71 107 -31 17
-68 18 -505 18 l-471 0 -104 89 c-336 286 -590 679 -714 1104 -122 419 -122
875 0 1294 124 422 377 816 708 1099 l98 84 1909 0 1909 0 98 -84 c331 -283
584 -677 708 -1099 122 -419 122 -875 0 -1294 -124 -425 -378 -818 -714 -1104
l-104 -89 -466 0 c-433 0 -469 -1 -500 -18 -36 -19 -71 -72 -71 -107 0 -35 35
-88 71 -107 31 -17 69 -18 542 -18 453 0 513 2 544 17 19 9 37 22 40 29 2 6
51 51 108 99 354 296 650 753 783 1210 142 486 142 984 0 1470 -106 362 -315
729 -577 1014 -96 103 -306 289 -358 316 -42 22 -3971 22 -4021 0z"/>
<path d="M3192 5104 c-18 -9 -41 -29 -51 -43 -41 -57 -991 -1973 -996 -2008
-8 -49 19 -100 66 -125 32 -17 84 -18 1034 -18 950 0 1002 1 1034 18 37 20 71
72 71 109 0 13 -227 476 -504 1031 -383 767 -511 1013 -531 1026 -39 25 -85
29 -123 10z m55 -1942 c-424 -1 -772 0 -774 2 -2 2 170 352 383 777 l387 774
387 -775 388 -775 -771 -3z"/>
<path d="M3185 2161 c-27 -13 -201 -180 -531 -512 -513 -516 -526 -530 -509
-596 16 -67 79 -110 143 -98 32 5 98 68 494 463 l458 457 452 -452 c473 -470
490 -485 555 -468 67 16 110 79 98 143 -5 32 -74 104 -513 546 -290 290 -521
514 -539 522 -42 18 -60 17 -108 -5z"/>
</g>
</svg>
