<?xml version="1.0" standalone="no"?>
<!DOCTYPE svg PUBLIC "-//W3C//DTD SVG 20010904//EN"
 "http://www.w3.org/TR/2001/REC-SVG-20010904/DTD/svg10.dtd">
<svg version="1.0" xmlns="http://www.w3.org/2000/svg"
 width="1236pt" height="1000pt" viewBox="0 0 1236 1000"
 preserveAspectRatio="xMidYMid meet">
<metadata>
Created by potrace 1.9, written by Peter Selinger 2001-2010
</metadata>
<g transform="translate(0,1000) scale(0.100000,-0.100000)"
fill="#000000" stroke="none">
<path d="M251 6082 c-19 -10 -43 -34 -53 -53 -17 -32 -18 -115 -18 -2014 0
-1899 1 -1982 18 -2014 10 -19 34 -43 53 -53 33 -17 239 -18 5934 -18 5695 0
5901 1 5934 18 19 10 43 34 53 53 17 32 18 115 18 2014 0 1899 -1 1982 -18
2014 -19 36 -73 71 -107 71 -11 0 -38 -9 -60 -19 -28 -13 -629 -609 -1980
-1960 l-1940 -1941 -800 0 -800 0 397 398 c342 342 398 402 403 434 12 64 -31
127 -98 143 -65 17 -82 2 -555 -468 l-452 -452 -458 457 c-396 395 -462 458
-494 463 -64 12 -127 -31 -143 -98 -17 -64 1 -86 403 -489 l387 -388 -800 0
-800 0 -1945 1946 c-1149 1150 -1958 1952 -1977 1960 -43 18 -61 18 -102 -4z
m11689 -2157 l0 -1745 -1747 0 -1748 0 1745 1745 c960 960 1746 1745 1747
1745 2 0 3 -785 3 -1745z m-9765 -5 l1740 -1740 -1743 0 -1742 0 0 1740 c0
957 1 1740 3 1740 1 0 785 -783 1742 -1740z"/>
</g>
</svg>
