<?xml version="1.0" standalone="no"?>
<!DOCTYPE svg PUBLIC "-//W3C//DTD SVG 20010904//EN"
 "http://www.w3.org/TR/2001/REC-SVG-20010904/DTD/svg10.dtd">
<svg version="1.0" xmlns="http://www.w3.org/2000/svg"
 width="1628pt" height="1000pt" viewBox="0 0 1628 1000"
 preserveAspectRatio="xMidYMid meet">
<metadata>
Created by potrace 1.9, written by Peter Selinger 2001-2010
</metadata>
<g transform="translate(0,1000) scale(0.100000,-0.100000)"
fill="#000000" stroke="none">
<path d="M4170 6085 c-22 -10 -550 -531 -1462 -1443 l-1428 -1427 -457 457
c-397 395 -463 458 -495 463 -64 12 -127 -31 -144 -99 -16 -65 5 -90 471 -556
l445 -445 -449 -450 c-468 -470 -483 -487 -466 -552 16 -67 79 -110 143 -98
32 5 98 68 494 463 l458 457 452 -452 c476 -474 488 -483 558 -468 39 8 87 56
95 95 4 16 2 45 -4 62 -8 23 -151 173 -466 488 l-455 455 1439 1440 c1576
1576 1475 1467 1436 1548 -30 64 -100 90 -165 62z"/>
<path d="M5620 6083 c-39 -25 -138 -142 -203 -239 -250 -378 -318 -830 -191
-1272 51 -178 153 -371 280 -527 l64 -80 -1 -975 -2 -975 36 -37 c65 -67 153
-57 201 23 11 20 44 64 71 98 72 89 168 250 210 350 84 200 118 372 119 596 0
217 -36 400 -116 593 -39 93 -139 260 -212 351 l-56 70 0 966 c0 1064 3 1010
-60 1055 -34 24 -105 26 -140 3z m-50 -1080 l-1 -608 -28 55 c-39 76 -87 213
-108 312 -13 60 -18 127 -17 243 0 177 15 272 63 405 31 83 82 200 87 200 2 0
4 -273 4 -607z m319 -1545 c52 -149 66 -235 65 -413 0 -184 -15 -276 -71 -425
-66 -178 -62 -206 -62 425 0 560 0 569 18 535 10 -19 33 -74 50 -122z"/>
<path d="M7111 6082 c-19 -10 -43 -34 -53 -53 -17 -32 -18 -116 -18 -2039 0
-2180 -3 -2065 56 -2259 36 -119 123 -280 204 -376 167 -199 404 -332 675
-379 364 -64 780 97 1017 394 125 155 201 338 239 569 18 111 19 201 19 2086
0 1889 -1 1972 -18 2004 -19 36 -72 71 -107 71 -35 0 -88 -35 -107 -71 -17
-32 -18 -104 -18 -1659 l0 -1625 -45 51 c-107 123 -303 249 -470 303 -240 78
-440 79 -679 5 -169 -53 -381 -189 -480 -307 l-36 -42 0 1620 c0 1550 -1 1622
-18 1654 -19 36 -72 71 -107 71 -11 0 -36 -8 -54 -18z m1259 -3207 c176 -56
318 -152 431 -291 68 -83 117 -178 155 -299 26 -80 29 -104 29 -225 0 -121 -3
-145 -29 -225 -93 -295 -290 -493 -586 -591 -77 -25 -98 -28 -230 -28 -132 0
-153 3 -230 28 -179 59 -319 154 -431 292 -68 82 -117 177 -155 299 -26 82
-29 103 -28 230 0 126 3 149 28 225 95 288 291 488 567 579 106 35 147 40 274
37 97 -3 137 -9 205 -31z"/>
<path d="M12877 4619 c-341 -39 -646 -181 -880 -409 -76 -74 -97 -101 -97
-122 0 -22 -13 -38 -57 -73 -179 -142 -413 -235 -649 -257 -347 -33 -685 77
-942 305 -37 33 -82 66 -101 74 -97 41 -194 -51 -161 -152 30 -90 296 -282
514 -371 461 -188 991 -134 1410 143 100 67 215 165 240 205 9 14 16 35 16 46
0 35 143 152 270 221 92 49 240 104 346 127 110 24 388 24 498 0 106 -23 252
-77 347 -128 77 -41 230 -152 228 -166 -6 -40 7 -62 79 -130 261 -248 574
-390 931 -423 261 -25 543 28 786 146 113 54 251 146 337 222 37 32 78 66 93
76 39 27 59 77 51 123 -6 32 -25 56 -104 134 -150 147 -346 268 -542 334 -334
111 -659 111 -990 -1 -153 -52 -303 -133 -434 -235 -26 -21 -53 -35 -60 -31
-6 4 -29 21 -51 38 -119 94 -276 178 -425 228 -219 74 -444 101 -653 76z
m2367 -264 c176 -36 368 -123 501 -228 87 -67 88 -61 -14 -136 -129 -95 -319
-180 -486 -217 -98 -21 -377 -24 -475 -5 -104 20 -218 59 -325 111 -108 52
-265 161 -265 184 0 19 129 116 220 165 131 70 295 123 432 141 100 12 317 4
412 -15z"/>
</g>
</svg>
