<?xml version="1.0" standalone="no"?>
<!DOCTYPE svg PUBLIC "-//W3C//DTD SVG 20010904//EN"
 "http://www.w3.org/TR/2001/REC-SVG-20010904/DTD/svg10.dtd">
<svg version="1.0" xmlns="http://www.w3.org/2000/svg"
 width="795pt" height="1000pt" viewBox="0 0 795 1000"
 preserveAspectRatio="xMidYMid meet">
<metadata>
Created by potrace 1.9, written by Peter Selinger 2001-2010
</metadata>
<g transform="translate(0,1000) scale(0.100000,-0.100000)"
fill="#000000" stroke="none">
<path d="M6565 6075 c-30 -31 -35 -42 -35 -83 0 -41 6 -54 43 -99 144 -176
180 -225 220 -302 54 -102 100 -230 124 -343 24 -115 24 -370 -1 -488 -44
-211 -175 -473 -291 -580 -55 -50 -85 -106 -85 -154 0 -39 5 -51 35 -81 30
-30 42 -35 81 -35 59 0 85 17 159 100 295 336 428 810 350 1253 -52 290 -173
538 -374 762 -63 70 -88 85 -143 85 -41 0 -52 -5 -83 -35z"/>
<path d="M1231 6082 c-71 -38 -71 -35 -71 -524 l0 -438 -438 0 c-489 0 -486 0
-524 -71 -23 -42 -23 -66 0 -108 37 -70 46 -71 432 -71 l345 0 -387 -387
c-402 -404 -420 -426 -403 -490 16 -67 79 -110 143 -98 32 5 92 61 435 403
l397 397 0 -768 0 -767 -438 0 c-489 0 -486 0 -524 -71 -23 -42 -23 -66 0
-108 38 -71 35 -71 524 -71 l438 0 0 -438 c0 -489 0 -486 71 -524 42 -23 66
-23 108 0 71 38 71 35 71 524 l0 438 855 0 855 0 0 -438 c0 -489 0 -486 71
-524 42 -23 66 -23 108 0 71 38 71 35 71 524 l0 438 438 0 c489 0 486 0 524
71 23 42 23 66 0 108 -38 71 -35 71 -524 71 l-438 0 0 762 0 763 388 -387
c403 -402 425 -420 489 -403 67 16 110 79 98 143 -5 32 -61 92 -403 435 l-397
397 350 0 c392 0 400 1 437 71 23 42 23 66 0 108 -38 71 -35 71 -524 71 l-438
0 0 438 c0 404 -1 440 -18 471 -19 36 -72 71 -107 71 -35 0 -88 -35 -107 -71
-16 -31 -18 -64 -18 -384 l0 -350 -397 397 c-314 312 -405 397 -430 403 -73
15 -86 4 -495 -403 l-388 -387 0 345 c0 315 -2 348 -18 379 -19 36 -72 71
-107 71 -11 0 -36 -8 -54 -18z m1369 -627 l335 -335 -675 0 -675 0 335 335
c184 184 337 335 340 335 3 0 156 -151 340 -335z m520 -1440 l0 -855 -855 0
-855 0 0 855 0 855 855 0 855 0 0 -855z"/>
<path d="M5620 6083 c-39 -25 -138 -142 -203 -239 -343 -518 -339 -1167 9
-1690 73 -111 169 -215 217 -237 71 -33 146 -1 168 72 17 56 0 95 -82 186
-152 171 -247 360 -296 587 -24 115 -24 370 1 488 44 211 175 473 291 580 55
50 85 106 85 154 0 39 -5 51 -35 81 -31 30 -42 35 -83 35 -26 0 -58 -8 -72
-17z"/>
</g>
</svg>
