<?xml version="1.0" standalone="no"?>
<!DOCTYPE svg PUBLIC "-//W3C//DTD SVG 20010904//EN"
 "http://www.w3.org/TR/2001/REC-SVG-20010904/DTD/svg10.dtd">
<svg version="1.0" xmlns="http://www.w3.org/2000/svg"
 width="1040pt" height="1000pt" viewBox="0 0 1040 1000"
 preserveAspectRatio="xMidYMid meet">
<metadata>
Created by potrace 1.9, written by Peter Selinger 2001-2010
</metadata>
<g transform="translate(0,1000) scale(0.100000,-0.100000)"
fill="#000000" stroke="none">
<path d="M1231 6082 c-19 -10 -43 -34 -53 -53 -17 -32 -18 -83 -18 -1006 l0
-973 -485 -970 c-269 -538 -487 -986 -490 -1007 -16 -104 101 -175 190 -117
20 13 134 232 467 898 l440 881 438 -874 c321 -643 445 -881 466 -898 78 -62
184 -20 201 81 4 27 -67 175 -486 1014 l-491 982 0 978 c0 927 -1 979 -18
1011 -19 36 -72 71 -107 71 -11 0 -36 -8 -54 -18z"/>
<path d="M3180 6083 c-14 -9 -30 -24 -37 -33 -56 -71 4 -381 114 -590 158
-300 445 -502 798 -564 114 -20 216 -20 330 0 356 62 644 267 803 572 106 203
164 512 109 582 -52 67 -164 65 -206 -2 -7 -11 -17 -63 -22 -116 -34 -367
-263 -651 -619 -768 -77 -25 -98 -28 -230 -28 -132 0 -153 3 -230 28 -179 59
-319 154 -431 292 -103 126 -171 299 -188 476 -5 53 -15 105 -22 116 -31 50
-121 68 -169 35z"/>
<path d="M10050 6085 c-22 -10 -550 -531 -1462 -1443 l-1428 -1427 -457 457
c-397 395 -463 458 -495 463 -64 12 -127 -31 -144 -99 -16 -65 5 -90 471 -556
l445 -445 -449 -450 c-468 -470 -483 -487 -466 -552 16 -67 79 -110 143 -98
32 5 98 68 494 463 l458 457 452 -452 c476 -474 488 -483 558 -468 39 8 87 56
95 95 4 16 2 45 -4 62 -8 23 -151 173 -466 488 l-455 455 1439 1440 c1576
1576 1475 1467 1436 1548 -30 64 -100 90 -165 62z"/>
</g>
</svg>
