<?xml version="1.0" standalone="no"?>
<!DOCTYPE svg PUBLIC "-//W3C//DTD SVG 20010904//EN"
 "http://www.w3.org/TR/2001/REC-SVG-20010904/DTD/svg10.dtd">
<svg version="1.0" xmlns="http://www.w3.org/2000/svg"
 width="942pt" height="1000pt" viewBox="0 0 942 1000"
 preserveAspectRatio="xMidYMid meet">
<metadata>
Created by potrace 1.9, written by Peter Selinger 2001-2010
</metadata>
<g transform="translate(0,1000) scale(0.100000,-0.100000)"
fill="#000000" stroke="none">
<path d="M1231 6082 c-19 -10 -43 -34 -53 -53 -17 -32 -18 -113 -18 -1941 l0
-1908 -438 0 c-404 0 -440 -1 -471 -18 -36 -19 -71 -72 -71 -107 0 -35 35 -88
71 -107 32 -17 84 -18 1034 -18 950 0 1002 1 1034 18 36 19 71 72 71 107 0 35
-35 88 -71 107 -31 17 -67 18 -471 18 l-438 0 0 1908 c0 1828 -1 1909 -18
1941 -19 36 -72 71 -107 71 -11 0 -36 -8 -54 -18z"/>
<path d="M7105 6081 c-27 -13 -340 -320 -1000 -980 l-960 -961 -960 0 c-911 0
-962 -1 -994 -18 -36 -19 -71 -72 -71 -107 0 -35 35 -88 71 -107 32 -17 82
-18 961 -18 l928 0 0 -928 c0 -879 1 -929 18 -961 10 -19 34 -43 53 -53 32
-17 115 -18 2014 -18 1899 0 1982 1 2014 18 19 10 43 34 53 53 17 32 18 84 18
1032 0 834 -2 1003 -14 1030 -18 42 -1991 2013 -2029 2027 -39 14 -56 13 -102
-9z m977 -1208 l918 -918 0 -887 0 -888 -1835 0 -1835 0 0 855 0 855 762 0
763 0 -387 -387 c-405 -408 -418 -423 -403 -493 8 -39 56 -87 95 -95 16 -4 45
-2 63 4 22 8 186 165 544 523 544 546 538 538 514 610 -8 23 -151 173 -466
488 l-455 455 397 397 c219 219 400 398 403 398 3 0 418 -413 922 -917z
m-1562 -398 l335 -335 -675 0 -675 0 335 335 c184 184 337 335 340 335 3 0
156 -151 340 -335z"/>
</g>
</svg>
