<?xml version="1.0" standalone="no"?>
<!DOCTYPE svg PUBLIC "-//W3C//DTD SVG 20010904//EN"
 "http://www.w3.org/TR/2001/REC-SVG-20010904/DTD/svg10.dtd">
<svg version="1.0" xmlns="http://www.w3.org/2000/svg"
 width="1334pt" height="1000pt" viewBox="0 0 1334 1000"
 preserveAspectRatio="xMidYMid meet">
<metadata>
Created by potrace 1.9, written by Peter Selinger 2001-2010
</metadata>
<g transform="translate(0,1000) scale(0.100000,-0.100000)"
fill="#000000" stroke="none">
<path d="M3682 8044 c-18 -9 -41 -29 -51 -43 -40 -56 -501 -992 -506 -1028
-11 -74 61 -150 132 -139 68 10 76 22 280 430 l195 391 193 -385 c200 -398
216 -423 282 -436 39 -7 95 18 118 53 41 62 45 53 -233 609 -194 389 -267 525
-287 538 -39 25 -85 29 -123 10z"/>
<path d="M6125 6081 c-27 -13 -340 -320 -1000 -980 l-960 -961 -1940 0 c-1860
0 -1942 -1 -1974 -18 -36 -19 -71 -72 -71 -107 0 -35 35 -88 71 -107 31 -17
65 -18 431 -18 l398 0 -445 -890 c-246 -492 -447 -906 -450 -927 -16 -104 101
-175 190 -117 20 13 134 232 467 898 l440 881 439 -877 c478 -955 459 -923
544 -923 22 0 53 9 68 19 23 15 124 209 469 900 l440 881 438 -874 c321 -643
445 -881 466 -898 78 -62 184 -20 201 81 4 27 -61 164 -446 934 -248 496 -451
904 -451 907 0 3 177 5 394 5 250 0 405 4 423 10 16 6 439 422 970 953 l943
942 452 -451 c473 -471 490 -486 555 -469 67 16 110 79 98 143 -5 32 -74 104
-513 546 -290 290 -521 514 -539 522 -42 18 -60 17 -108 -5z m-3471 -2963
c-212 -425 -388 -775 -390 -777 -3 -3 -774 1534 -774 1544 0 3 349 5 775 5
l775 0 -386 -772z"/>
<path d="M11045 6092 c-99 -35 -118 -168 -32 -222 12 -7 90 -18 178 -26 182
-15 201 -18 329 -50 329 -82 604 -238 850 -484 246 -246 401 -519 485 -850 39
-155 49 -245 49 -440 0 -102 -6 -221 -13 -265 -36 -228 -127 -484 -238 -668
-145 -241 -400 -496 -640 -641 -184 -110 -440 -201 -668 -237 -103 -16 -427
-16 -530 0 -228 36 -484 127 -668 237 -240 145 -495 400 -640 641 -81 133
-159 325 -202 492 l-24 94 372 -370 c391 -389 408 -403 477 -388 40 9 88 58
95 99 4 18 1 46 -7 64 -11 28 -978 1008 -1033 1048 -34 24 -97 18 -141 -15
-21 -16 -256 -246 -520 -512 -503 -505 -516 -520 -499 -586 16 -67 79 -110
143 -98 32 5 93 62 443 412 224 223 409 401 411 397 3 -5 9 -31 12 -59 4 -27
20 -102 36 -165 184 -731 759 -1306 1490 -1490 197 -49 316 -64 520 -64 557 0
1074 211 1461 595 398 396 613 914 613 1479 0 562 -212 1078 -604 1470 -316
315 -715 515 -1165 584 -118 18 -312 28 -340 18z"/>
</g>
</svg>
