<?xml version="1.0" standalone="no"?>
<!DOCTYPE svg PUBLIC "-//W3C//DTD SVG 20010904//EN"
 "http://www.w3.org/TR/2001/REC-SVG-20010904/DTD/svg10.dtd">
<svg version="1.0" xmlns="http://www.w3.org/2000/svg"
 width="746pt" height="1000pt" viewBox="0 0 746 1000"
 preserveAspectRatio="xMidYMid meet">
<metadata>
Created by potrace 1.9, written by Peter Selinger 2001-2010
</metadata>
<g transform="translate(0,1000) scale(0.100000,-0.100000)"
fill="#000000" stroke="none">
<path d="M6010 6084 c-270 -49 -508 -184 -674 -383 -152 -182 -256 -467 -256
-701 0 -291 155 -637 367 -819 l48 -40 -155 -1 c-176 0 -209 -10 -242 -71 -23
-42 -23 -66 0 -108 38 -71 35 -71 524 -71 l438 0 0 -855 0 -855 -438 0 c-404
0 -440 -1 -471 -18 -36 -19 -71 -72 -71 -107 0 -35 35 -88 71 -107 32 -17 84
-18 1034 -18 950 0 1002 1 1034 18 36 19 71 72 71 107 0 35 -35 88 -71 107
-31 17 -67 18 -471 18 l-438 0 0 855 0 855 438 0 c489 0 486 0 524 71 23 42
23 66 0 108 -33 62 -66 71 -244 71 l-158 0 83 83 c167 166 268 367 312 618 61
347 -93 758 -373 994 -241 203 -592 302 -882 249z m400 -269 c176 -56 318
-152 431 -291 68 -83 117 -178 155 -299 26 -80 29 -104 29 -225 0 -121 -3
-145 -29 -225 -93 -295 -290 -493 -586 -591 -77 -25 -98 -28 -230 -28 -132 0
-153 3 -230 28 -179 59 -319 154 -431 292 -68 82 -117 177 -155 299 -26 82
-29 103 -28 230 0 126 3 149 28 225 95 288 291 488 567 579 106 35 147 40 274
37 97 -3 137 -9 205 -31z"/>
<path d="M1160 4624 c-14 -2 -59 -9 -100 -15 -220 -31 -402 -100 -597 -225
-150 -97 -271 -203 -305 -268 -23 -45 -20 -106 6 -135 14 -16 16 -116 16 -982
0 -915 1 -966 18 -998 10 -19 34 -43 53 -53 32 -17 115 -18 2014 -18 1899 0
1982 1 2014 18 19 10 43 34 53 53 17 32 18 84 18 1032 0 1107 4 1040 -65 1093
-62 47 -146 24 -225 -61 -106 -114 -365 -245 -575 -291 -98 -21 -377 -24 -475
-5 -104 20 -218 59 -325 111 -111 54 -265 161 -265 185 0 66 -131 195 -323
319 -189 121 -341 180 -572 222 -80 15 -318 27 -365 18z m365 -269 c203 -42
376 -125 545 -261 55 -44 67 -60 78 -99 14 -53 63 -104 187 -194 383 -279 834
-365 1295 -246 138 35 279 99 438 197 l32 20 0 -796 0 -796 -1835 0 -1835 0 0
933 0 933 63 50 c190 152 395 242 623 273 96 14 313 6 409 -14z"/>
</g>
</svg>
