<?xml version="1.0" standalone="no"?>
<!DOCTYPE svg PUBLIC "-//W3C//DTD SVG 20010904//EN"
 "http://www.w3.org/TR/2001/REC-SVG-20010904/DTD/svg10.dtd">
<svg version="1.0" xmlns="http://www.w3.org/2000/svg"
 width="746pt" height="1000pt" viewBox="0 0 746 1000"
 preserveAspectRatio="xMidYMid meet">
<metadata>
Created by potrace 1.9, written by Peter Selinger 2001-2010
</metadata>
<g transform="translate(0,1000) scale(0.100000,-0.100000)"
fill="#000000" stroke="none">
<path d="M3191 6082 c-19 -10 -43 -34 -53 -53 -17 -32 -18 -115 -18 -2014 0
-1899 1 -1982 18 -2014 10 -19 34 -43 53 -53 32 -17 115 -18 2014 -18 1899 0
1982 1 2014 18 19 10 43 34 53 53 17 32 18 115 18 2014 0 1899 -1 1982 -18
2014 -10 19 -34 43 -53 53 -32 17 -115 18 -2014 18 -1899 0 -1982 -1 -2014
-18z m909 -597 l0 -365 -365 0 -365 0 0 365 0 365 365 0 365 0 0 -365z m980 0
l0 -365 -365 0 -365 0 0 365 0 365 365 0 365 0 0 -365z m980 0 l0 -365 -365 0
-365 0 0 365 0 365 365 0 365 0 0 -365z m980 0 l0 -365 -365 0 -365 0 0 365 0
365 365 0 365 0 0 -365z m-2940 -980 l0 -365 -365 0 -365 0 0 365 0 365 365 0
365 0 0 -365z m980 0 l0 -365 -365 0 -365 0 0 365 0 365 365 0 365 0 0 -365z
m980 0 l0 -365 -365 0 -365 0 0 365 0 365 365 0 365 0 0 -365z m980 0 l0 -365
-365 0 -365 0 0 365 0 365 365 0 365 0 0 -365z m-2940 -980 l0 -365 -365 0
-365 0 0 365 0 365 365 0 365 0 0 -365z m980 0 l0 -365 -365 0 -365 0 0 365 0
365 365 0 365 0 0 -365z m980 0 l0 -365 -365 0 -365 0 0 365 0 365 365 0 365
0 0 -365z m980 0 l0 -365 -365 0 -365 0 0 365 0 365 365 0 365 0 0 -365z
m-2940 -980 l0 -365 -365 0 -365 0 0 365 0 365 365 0 365 0 0 -365z m980 0 l0
-365 -365 0 -365 0 0 365 0 365 365 0 365 0 0 -365z m980 0 l0 -365 -365 0
-365 0 0 365 0 365 365 0 365 0 0 -365z m980 0 l0 -365 -365 0 -365 0 0 365 0
365 365 0 365 0 0 -365z"/>
<path d="M1110 5104 c-194 -35 -394 -125 -531 -240 -290 -242 -446 -650 -384
-1003 49 -279 185 -523 384 -685 145 -119 339 -206 536 -240 114 -20 216 -20
330 0 489 85 833 432 920 925 61 347 -93 758 -373 994 -241 203 -592 302 -882
249z m400 -269 c176 -56 318 -152 431 -291 68 -83 117 -178 155 -299 26 -80
29 -104 29 -225 0 -121 -3 -145 -29 -225 -93 -295 -290 -493 -586 -591 -77
-25 -98 -28 -230 -28 -132 0 -153 3 -230 28 -179 59 -319 154 -431 292 -68 82
-117 177 -155 299 -26 82 -29 103 -28 230 0 126 3 149 28 225 95 288 291 488
567 579 106 35 147 40 274 37 97 -3 137 -9 205 -31z"/>
<path d="M251 2162 c-36 -19 -71 -72 -71 -107 0 -35 35 -88 71 -107 32 -17 84
-18 1034 -18 950 0 1002 1 1034 18 36 19 71 72 71 107 0 35 -35 88 -71 107
-32 17 -84 18 -1034 18 -950 0 -1002 -1 -1034 -18z"/>
</g>
</svg>
