<?xml version="1.0" standalone="no"?>
<!DOCTYPE svg PUBLIC "-//W3C//DTD SVG 20010904//EN"
 "http://www.w3.org/TR/2001/REC-SVG-20010904/DTD/svg10.dtd">
<svg version="1.0" xmlns="http://www.w3.org/2000/svg"
 width="452pt" height="1000pt" viewBox="0 0 452 1000"
 preserveAspectRatio="xMidYMid meet">
<metadata>
Created by potrace 1.9, written by Peter Selinger 2001-2010
</metadata>
<g transform="translate(0,1000) scale(0.100000,-0.100000)"
fill="#000000" stroke="none">
<path d="M2212 8044 c-18 -9 -41 -29 -51 -43 -40 -56 -501 -992 -506 -1028
-11 -74 61 -150 132 -139 68 10 76 22 280 430 l195 391 193 -385 c200 -398
216 -423 282 -436 39 -7 95 18 118 53 41 62 45 53 -233 609 -194 389 -267 525
-287 538 -39 25 -85 29 -123 10z"/>
<path d="M1160 4624 c-14 -2 -59 -9 -100 -15 -220 -31 -402 -100 -597 -225
-150 -97 -271 -203 -305 -268 -23 -45 -20 -106 6 -135 12 -13 20 -52 26 -127
45 -510 254 -960 609 -1313 387 -384 904 -595 1461 -595 557 0 1074 211 1461
595 367 365 575 829 614 1371 9 120 1 162 -41 204 -29 29 -42 34 -80 34 -48 0
-104 -30 -154 -85 -106 -114 -365 -245 -575 -291 -98 -21 -377 -24 -475 -5
-104 20 -218 59 -325 111 -111 54 -265 161 -265 185 0 66 -131 195 -323 319
-189 121 -341 180 -572 222 -80 15 -318 27 -365 18z m365 -269 c203 -42 376
-125 545 -261 55 -44 67 -60 78 -99 14 -53 63 -104 187 -194 237 -173 482
-265 774 -292 306 -29 637 48 909 212 l53 31 -6 -38 c-35 -201 -130 -458 -232
-627 -145 -241 -400 -496 -640 -641 -184 -110 -440 -201 -668 -237 -103 -16
-427 -16 -530 0 -228 36 -484 127 -668 237 -297 179 -575 484 -717 786 -108
232 -160 440 -176 698 l-6 115 63 51 c193 153 396 242 625 273 96 14 313 6
409 -14z"/>
</g>
</svg>
