<?xml version="1.0" standalone="no"?>
<!DOCTYPE svg PUBLIC "-//W3C//DTD SVG 20010904//EN"
 "http://www.w3.org/TR/2001/REC-SVG-20010904/DTD/svg10.dtd">
<svg version="1.0" xmlns="http://www.w3.org/2000/svg"
 width="1040pt" height="1000pt" viewBox="0 0 1040 1000"
 preserveAspectRatio="xMidYMid meet">
<metadata>
Created by potrace 1.9, written by Peter Selinger 2001-2010
</metadata>
<g transform="translate(0,1000) scale(0.100000,-0.100000)"
fill="#000000" stroke="none">
<path d="M2212 8044 c-18 -9 -41 -29 -51 -43 -40 -56 -501 -992 -506 -1028
-11 -74 61 -150 132 -139 68 10 76 22 280 430 l195 391 193 -385 c200 -398
216 -423 282 -436 39 -7 95 18 118 53 41 62 45 53 -233 609 -194 389 -267 525
-287 538 -39 25 -85 29 -123 10z"/>
<path d="M6010 6084 c-194 -35 -394 -125 -531 -240 -290 -242 -446 -650 -384
-1003 49 -279 185 -523 384 -685 145 -119 339 -206 536 -240 114 -20 216 -20
330 0 489 85 833 432 920 925 61 347 -93 758 -373 994 -241 203 -592 302 -882
249z m400 -269 c176 -56 318 -152 431 -291 68 -83 117 -178 155 -299 26 -80
29 -104 29 -225 0 -121 -3 -145 -29 -225 -93 -295 -290 -493 -586 -591 -77
-25 -98 -28 -230 -28 -132 0 -153 3 -230 28 -179 59 -319 154 -431 292 -68 82
-117 177 -155 299 -26 82 -29 103 -28 230 0 126 3 149 28 225 95 288 291 488
567 579 106 35 147 40 274 37 97 -3 137 -9 205 -31z"/>
<path d="M8091 6082 c-19 -10 -43 -34 -53 -53 -17 -32 -18 -115 -18 -2014 0
-1899 1 -1982 18 -2014 10 -19 34 -43 53 -53 32 -17 84 -18 1034 -18 950 0
1002 1 1034 18 19 10 43 34 53 53 17 32 18 115 18 2014 0 1899 -1 1982 -18
2014 -19 36 -72 71 -107 71 -35 0 -88 -35 -107 -71 -17 -32 -18 -113 -18
-1941 l0 -1908 -855 0 -855 0 0 1908 c0 1828 -1 1909 -18 1941 -19 36 -72 71
-107 71 -11 0 -36 -8 -54 -18z"/>
<path d="M1160 4624 c-14 -2 -59 -9 -100 -15 -220 -31 -402 -100 -597 -225
-150 -97 -271 -203 -305 -268 -23 -45 -20 -106 6 -135 12 -13 20 -52 26 -127
45 -510 254 -960 609 -1313 387 -384 904 -595 1461 -595 557 0 1074 211 1461
595 367 365 575 829 614 1371 9 120 1 162 -41 204 -29 29 -42 34 -80 34 -48 0
-104 -30 -154 -85 -106 -114 -365 -245 -575 -291 -98 -21 -377 -24 -475 -5
-104 20 -218 59 -325 111 -111 54 -265 161 -265 185 0 66 -131 195 -323 319
-189 121 -341 180 -572 222 -80 15 -318 27 -365 18z m365 -269 c203 -42 376
-125 545 -261 55 -44 67 -60 78 -99 14 -53 63 -104 187 -194 237 -173 482
-265 774 -292 306 -29 637 48 909 212 l53 31 -6 -38 c-35 -201 -130 -458 -232
-627 -145 -241 -400 -496 -640 -641 -184 -110 -440 -201 -668 -237 -103 -16
-427 -16 -530 0 -228 36 -484 127 -668 237 -297 179 -575 484 -717 786 -108
232 -160 440 -176 698 l-6 115 63 51 c193 153 396 242 625 273 96 14 313 6
409 -14z"/>
<path d="M5151 4122 c-36 -19 -71 -73 -71 -107 1 -57 49 -111 479 -540 l441
-440 -449 -450 c-468 -470 -483 -487 -466 -552 16 -67 79 -110 143 -98 32 5
98 68 494 463 l458 457 452 -452 c473 -470 490 -485 555 -468 67 16 110 79 98
143 -5 32 -68 99 -466 497 l-459 460 455 455 c315 315 458 465 466 488 6 17 8
46 4 62 -8 39 -56 87 -95 95 -70 15 -82 6 -558 -469 l-452 -451 -453 452
c-248 249 -465 457 -480 463 -39 14 -57 13 -96 -8z"/>
</g>
</svg>
