<?xml version="1.0" standalone="no"?>
<!DOCTYPE svg PUBLIC "-//W3C//DTD SVG 20010904//EN"
 "http://www.w3.org/TR/2001/REC-SVG-20010904/DTD/svg10.dtd">
<svg version="1.0" xmlns="http://www.w3.org/2000/svg"
 width="452pt" height="1000pt" viewBox="0 0 452 1000"
 preserveAspectRatio="xMidYMid meet">
<metadata>
Created by potrace 1.9, written by Peter Selinger 2001-2010
</metadata>
<g transform="translate(0,1000) scale(0.100000,-0.100000)"
fill="#000000" stroke="none">
<path d="M4165 6081 c-26 -12 -203 -183 -510 -490 l-470 -471 -960 0 c-911 0
-962 -1 -994 -18 -19 -10 -43 -34 -53 -53 -17 -32 -18 -83 -18 -994 l0 -960
-471 -470 c-497 -496 -518 -520 -505 -591 8 -41 56 -90 96 -99 16 -4 45 -2 62
4 23 8 180 158 513 491 l480 480 965 0 c916 0 967 1 999 18 19 10 43 34 53 53
17 32 18 83 18 999 l0 965 484 485 c531 531 518 516 481 593 -32 67 -102 91
-170 58z m-1235 -1214 c0 -1 -342 -344 -760 -762 l-760 -760 0 763 0 762 760
0 c418 0 760 -1 760 -3z m190 -942 l0 -765 -767 0 -768 0 765 765 c421 421
766 765 767 765 2 0 3 -344 3 -765z"/>
</g>
</svg>
