<?xml version="1.0" standalone="no"?>
<!DOCTYPE svg PUBLIC "-//W3C//DTD SVG 20010904//EN"
 "http://www.w3.org/TR/2001/REC-SVG-20010904/DTD/svg10.dtd">
<svg version="1.0" xmlns="http://www.w3.org/2000/svg"
 width="452pt" height="1000pt" viewBox="0 0 452 1000"
 preserveAspectRatio="xMidYMid meet">
<metadata>
Created by potrace 1.9, written by Peter Selinger 2001-2010
</metadata>
<g transform="translate(0,1000) scale(0.100000,-0.100000)"
fill="#000000" stroke="none">
<path d="M2090 6084 c-351 -63 -637 -267 -793 -565 -143 -271 -172 -549 -88
-826 l19 -61 -52 -7 c-310 -37 -490 -98 -713 -241 -150 -97 -271 -203 -305
-268 -49 -95 25 -201 128 -182 26 5 58 28 113 79 118 111 206 173 326 232 184
89 309 122 505 132 l115 6 71 -84 c165 -196 407 -336 657 -379 l67 -12 0 -937
c0 -888 1 -938 18 -970 19 -36 72 -71 107 -71 35 0 88 35 107 71 17 32 18 80
18 896 l0 863 76 -47 c546 -331 1281 -263 1764 162 83 74 100 100 100 159 0
39 -5 51 -35 81 -30 30 -42 35 -81 35 -48 0 -104 -30 -154 -85 -74 -80 -243
-180 -400 -238 -153 -57 -233 -70 -420 -70 -234 -1 -359 28 -569 130 l-114 56
74 26 c376 133 641 456 714 872 61 347 -93 758 -373 994 -241 203 -592 302
-882 249z m400 -269 c176 -56 318 -152 431 -291 68 -83 117 -178 155 -299 26
-80 29 -104 29 -225 0 -121 -3 -145 -29 -225 -93 -295 -295 -498 -584 -589
-103 -32 -113 -32 -143 0 -42 46 -161 139 -252 198 -183 117 -330 175 -564
222 -28 5 -52 50 -89 169 -26 82 -29 103 -28 230 0 126 3 149 28 225 95 288
291 488 567 579 106 35 147 40 274 37 97 -3 137 -9 205 -31z"/>
</g>
</svg>
