<?xml version="1.0" standalone="no"?>
<!DOCTYPE svg PUBLIC "-//W3C//DTD SVG 20010904//EN"
 "http://www.w3.org/TR/2001/REC-SVG-20010904/DTD/svg10.dtd">
<svg version="1.0" xmlns="http://www.w3.org/2000/svg"
 width="942pt" height="1000pt" viewBox="0 0 942 1000"
 preserveAspectRatio="xMidYMid meet">
<metadata>
Created by potrace 1.9, written by Peter Selinger 2001-2010
</metadata>
<g transform="translate(0,1000) scale(0.100000,-0.100000)"
fill="#000000" stroke="none">
<path d="M2090 5104 c-270 -49 -508 -184 -674 -383 -112 -134 -206 -339 -237
-515 l-11 -66 -442 0 c-408 0 -444 -1 -475 -18 -47 -25 -74 -76 -66 -125 3
-21 224 -474 500 -1027 416 -832 499 -992 527 -1012 l33 -23 1010 -3 c958 -2
1012 -1 1045 16 33 17 68 85 537 1017 276 550 505 1015 509 1032 8 44 -22 101
-66 125 -32 17 -67 18 -481 18 l-447 0 -11 66 c-25 139 -86 294 -166 419 -222
347 -685 552 -1085 479z m400 -269 c292 -94 493 -294 584 -583 14 -46 26 -90
26 -98 0 -12 -113 -14 -840 -14 -727 0 -840 2 -840 14 0 8 12 52 26 98 89 281
290 486 565 577 106 35 147 40 274 37 97 -3 136 -9 205 -31z m1103 -1800
l-428 -855 -902 0 -903 0 -425 850 c-234 467 -425 852 -425 855 0 3 790 5
1755 5 l1755 0 -427 -855z"/>
<path d="M6017 4619 c-338 -39 -643 -180 -875 -404 -70 -67 -95 -99 -101 -125
-21 -96 61 -174 154 -149 22 6 66 39 118 87 150 142 262 212 438 276 158 57
233 69 424 69 191 0 266 -12 424 -69 120 -44 226 -100 316 -169 91 -69 120
-101 135 -149 29 -90 294 -283 514 -372 461 -188 991 -134 1410 143 100 67
215 165 240 205 9 14 16 47 16 72 0 39 -5 51 -35 81 -30 30 -42 35 -81 35 -48
0 -104 -30 -154 -85 -106 -114 -365 -245 -575 -291 -98 -21 -377 -24 -475 -5
-173 34 -372 120 -505 219 -67 49 -83 66 -93 99 -25 83 -249 269 -457 379
-234 124 -567 185 -838 153z"/>
</g>
</svg>
