<?xml version="1.0" standalone="no"?>
<!DOCTYPE svg PUBLIC "-//W3C//DTD SVG 20010904//EN"
 "http://www.w3.org/TR/2001/REC-SVG-20010904/DTD/svg10.dtd">
<svg version="1.0" xmlns="http://www.w3.org/2000/svg"
 width="1334pt" height="1000pt" viewBox="0 0 1334 1000"
 preserveAspectRatio="xMidYMid meet">
<metadata>
Created by potrace 1.9, written by Peter Selinger 2001-2010
</metadata>
<g transform="translate(0,1000) scale(0.100000,-0.100000)"
fill="#000000" stroke="none">
<path d="M4075 6094 c-684 -55 -1279 -418 -1631 -994 -108 -179 -182 -356
-234 -560 -23 -92 -60 -292 -60 -324 0 -3 -410 199 -910 449 -501 250 -920
455 -933 455 -65 0 -133 -75 -123 -138 11 -76 -10 -64 999 -569 524 -261 955
-481 959 -487 4 -6 8 -33 8 -60 0 -70 27 -233 60 -366 184 -730 759 -1306
1490 -1490 197 -49 316 -64 520 -64 557 0 1074 211 1461 595 314 312 523 721
589 1149 6 41 13 87 16 102 l5 27 899 -449 c498 -249 916 -452 937 -455 104
-16 175 101 117 190 -13 20 -250 143 -978 507 -529 264 -963 482 -965 484 -2
2 -7 45 -12 96 -56 668 -420 1256 -989 1604 -234 142 -489 233 -776 278 -102
16 -357 27 -449 20z m418 -265 c215 -32 478 -126 660 -235 240 -145 495 -400
640 -641 78 -128 158 -323 198 -478 21 -81 50 -237 44 -243 -1 -2 -404 197
-894 442 -490 246 -902 446 -914 446 -37 0 -89 -34 -109 -71 -17 -32 -18 -81
-18 -921 0 -489 -2 -888 -5 -888 -3 0 -387 191 -854 425 l-850 424 5 58 c20
244 73 444 174 661 168 359 503 694 862 862 210 98 418 154 648 174 73 6 334
-3 413 -15z m1550 -1941 c-17 -230 -73 -441 -173 -656 -142 -302 -420 -607
-717 -786 -184 -110 -440 -201 -668 -237 -103 -16 -427 -16 -530 0 -228 36
-484 127 -668 237 -240 145 -495 400 -640 641 -78 128 -158 323 -198 478 -22
82 -49 235 -43 235 2 0 400 -198 884 -440 486 -243 896 -442 917 -445 49 -8
100 19 125 66 17 32 18 81 18 921 l0 888 849 -424 848 -425 -4 -53z"/>
<path d="M9071 4122 c-36 -19 -71 -73 -71 -107 1 -57 49 -111 531 -591 522
-520 527 -524 602 -509 25 6 137 112 545 518 358 358 515 522 523 544 6 18 8
47 4 63 -8 39 -56 87 -95 95 -70 15 -82 6 -558 -469 l-452 -451 -453 452
c-248 249 -465 457 -480 463 -39 14 -57 13 -96 -8z"/>
<path d="M9937 2659 c-338 -39 -643 -180 -875 -404 -70 -67 -95 -99 -101 -125
-21 -96 61 -174 154 -149 22 6 66 39 118 87 150 142 262 212 438 276 158 57
233 69 424 69 191 0 266 -12 424 -69 120 -44 226 -100 316 -169 91 -69 120
-101 135 -149 29 -90 294 -283 514 -372 461 -188 991 -134 1410 143 100 67
215 165 240 205 9 14 16 47 16 72 0 39 -5 51 -35 81 -30 30 -42 35 -81 35 -48
0 -104 -30 -154 -85 -106 -114 -365 -245 -575 -291 -98 -21 -377 -24 -475 -5
-173 34 -372 120 -505 219 -67 49 -83 66 -93 99 -25 83 -249 269 -457 379
-234 124 -567 185 -838 153z"/>
</g>
</svg>
