<?xml version="1.0" standalone="no"?>
<!DOCTYPE svg PUBLIC "-//W3C//DTD SVG 20010904//EN"
 "http://www.w3.org/TR/2001/REC-SVG-20010904/DTD/svg10.dtd">
<svg version="1.0" xmlns="http://www.w3.org/2000/svg"
 width="452pt" height="1000pt" viewBox="0 0 452 1000"
 preserveAspectRatio="xMidYMid meet">
<metadata>
Created by potrace 1.9, written by Peter Selinger 2001-2010
</metadata>
<g transform="translate(0,1000) scale(0.100000,-0.100000)"
fill="#000000" stroke="none">
<path d="M741 8042 c-36 -19 -71 -73 -71 -107 1 -51 46 -108 234 -295 l196
-195 -204 -205 c-211 -212 -236 -248 -221 -307 16 -67 79 -110 143 -98 31 5
71 41 249 218 l213 211 207 -206 c218 -215 248 -237 313 -223 39 8 87 56 95
95 13 60 -8 88 -225 305 l-210 210 214 215 c180 180 216 221 221 252 12 64
-31 127 -98 143 -60 15 -94 -10 -310 -224 l-207 -206 -208 207 c-237 237 -257
250 -331 210z"/>
<path d="M1231 6082 c-19 -10 -43 -34 -53 -53 -17 -32 -18 -83 -18 -1006 l0
-973 -485 -970 c-269 -538 -487 -986 -490 -1007 -16 -104 101 -175 190 -117
20 13 134 232 467 898 l440 881 438 -874 c321 -643 445 -881 466 -898 78 -62
184 -20 201 81 4 27 -67 175 -486 1014 l-491 982 0 978 c0 927 -1 979 -18
1011 -19 36 -72 71 -107 71 -11 0 -36 -8 -54 -18z"/>
<path d="M3675 4121 c-61 -29 -529 -504 -545 -554 -20 -64 6 -123 67 -152 68
-33 91 -20 261 148 l152 151 0 -767 0 -767 -193 0 c-167 0 -197 -2 -226 -18
-36 -19 -71 -72 -71 -107 0 -35 35 -88 71 -107 31 -17 69 -18 544 -18 475 0
513 1 544 18 36 19 71 72 71 107 0 35 -35 88 -71 107 -29 16 -59 18 -226 18
l-193 0 0 928 c0 879 -1 929 -18 961 -19 36 -73 71 -107 71 -11 0 -38 -9 -60
-19z"/>
</g>
</svg>
