<?xml version="1.0" standalone="no"?>
<!DOCTYPE svg PUBLIC "-//W3C//DTD SVG 20010904//EN"
 "http://www.w3.org/TR/2001/REC-SVG-20010904/DTD/svg10.dtd">
<svg version="1.0" xmlns="http://www.w3.org/2000/svg"
 width="452pt" height="1000pt" viewBox="0 0 452 1000"
 preserveAspectRatio="xMidYMid meet">
<metadata>
Created by potrace 1.9, written by Peter Selinger 2001-2010
</metadata>
<g transform="translate(0,1000) scale(0.100000,-0.100000)"
fill="#000000" stroke="none">
<path d="M2115 6094 c-684 -55 -1279 -418 -1631 -994 -148 -244 -240 -508
-280 -800 -12 -88 -24 -139 -42 -174 -27 -54 -26 -113 2 -145 12 -13 20 -52
26 -127 30 -337 127 -639 294 -913 326 -535 865 -890 1481 -975 277 -38 312
-38 590 0 615 85 1155 440 1481 975 199 326 298 686 298 1079 0 204 -15 323
-64 520 -165 656 -654 1197 -1290 1430 -108 39 -286 84 -416 104 -102 16 -357
27 -449 20z m25 -994 l0 -741 -22 12 c-13 7 -41 24 -63 39 -131 89 -333 162
-555 201 -97 17 -343 17 -440 0 -220 -38 -419 -110 -557 -202 -18 -11 -33 -18
-33 -14 0 48 81 285 140 413 168 359 503 694 862 862 206 96 460 166 616 169
l52 1 0 -740z m393 729 c215 -32 478 -126 660 -235 297 -179 575 -484 717
-786 101 -216 154 -417 174 -659 4 -55 3 -58 -32 -91 -132 -125 -357 -238
-567 -284 -98 -21 -377 -24 -475 -5 -246 48 -562 215 -600 317 -12 33 -15 173
-17 897 l-3 857 35 0 c20 0 69 -5 108 -11z m-1008 -1474 c204 -43 376 -125
548 -263 l67 -54 0 -841 0 -842 -397 397 c-343 342 -403 398 -435 403 -64 12
-127 -31 -143 -98 -16 -64 2 -87 383 -469 l365 -367 -94 24 c-167 43 -358 121
-492 201 -297 179 -575 484 -717 786 -108 232 -160 440 -176 698 l-6 115 63
51 c193 153 396 242 625 273 96 14 313 6 409 -14z m1104 -726 c444 -195 969
-161 1389 92 l53 31 -6 -38 c-35 -201 -130 -458 -232 -627 -145 -241 -400
-496 -640 -641 -134 -80 -325 -158 -492 -201 l-94 -24 376 377 c323 325 377
382 382 414 12 64 -31 127 -98 143 -64 17 -86 -1 -489 -403 l-388 -387 0 697
0 698 76 -47 c42 -25 115 -63 163 -84z"/>
</g>
</svg>
