<?xml version="1.0" standalone="no"?>
<!DOCTYPE svg PUBLIC "-//W3C//DTD SVG 20010904//EN"
 "http://www.w3.org/TR/2001/REC-SVG-20010904/DTD/svg10.dtd">
<svg version="1.0" xmlns="http://www.w3.org/2000/svg"
 width="1138pt" height="1000pt" viewBox="0 0 1138 1000"
 preserveAspectRatio="xMidYMid meet">
<metadata>
Created by potrace 1.9, written by Peter Selinger 2001-2010
</metadata>
<g transform="translate(0,1000) scale(0.100000,-0.100000)"
fill="#000000" stroke="none">
<path d="M2115 6094 c-684 -55 -1279 -418 -1631 -994 -199 -327 -298 -686
-298 -1080 0 -204 15 -323 64 -520 133 -529 475 -986 948 -1266 l82 -49 -507
-5 c-469 -5 -510 -6 -535 -23 -28 -19 -58 -73 -58 -104 0 -33 36 -86 71 -105
32 -17 115 -18 2014 -18 1899 0 1982 1 2014 18 35 19 71 72 71 105 0 31 -30
85 -58 104 -25 17 -66 18 -540 23 l-512 5 82 49 c473 280 815 737 948 1266 49
197 64 316 64 520 0 204 -15 323 -64 520 -165 656 -654 1197 -1290 1430 -108
39 -286 84 -416 104 -102 16 -357 27 -449 20z m418 -265 c215 -32 478 -126
660 -235 240 -145 495 -400 640 -641 111 -184 202 -440 238 -668 7 -44 13
-163 13 -265 0 -195 -10 -285 -49 -440 -84 -332 -244 -610 -494 -859 -240
-238 -514 -393 -841 -476 -155 -39 -245 -49 -440 -49 -195 0 -285 10 -440 49
-327 83 -601 238 -841 476 -207 206 -342 416 -439 679 -76 209 -104 374 -104
620 0 195 10 285 49 440 84 331 239 604 485 850 318 317 699 495 1150 534 73
6 334 -3 413 -15z"/>
<path d="M5615 4133 c-256 -40 -444 -203 -512 -443 -17 -60 -18 -113 -18 -650
0 -537 1 -590 18 -650 58 -204 215 -364 416 -423 91 -27 251 -27 342 0 202 59
360 221 415 423 23 86 23 234 0 320 -55 202 -214 364 -415 423 -88 26 -242 27
-330 3 -36 -10 -92 -32 -125 -49 -34 -18 -65 -33 -69 -35 -5 -2 -7 123 -5 279
l3 284 27 57 c34 74 112 152 186 186 48 22 71 27 142 27 105 0 175 -29 249
-103 64 -64 90 -117 107 -216 8 -45 19 -90 25 -102 26 -50 114 -70 169 -37 42
24 55 58 54 132 -6 256 -192 491 -441 555 -66 17 -189 27 -238 19z m220 -1257
c71 -32 149 -111 183 -184 22 -48 27 -71 27 -142 0 -106 -29 -175 -105 -250
-75 -76 -144 -105 -250 -105 -106 0 -175 29 -250 105 -76 75 -105 144 -105
250 0 71 5 94 27 142 45 98 146 183 245 208 61 15 167 4 228 -24z"/>
<path d="M8091 4122 c-71 -38 -71 -35 -71 -524 l0 -438 -438 0 c-404 0 -440
-1 -471 -18 -36 -19 -71 -72 -71 -107 0 -35 35 -88 71 -107 31 -17 67 -18 471
-18 l438 0 0 -438 c0 -489 0 -486 71 -524 42 -23 66 -23 108 0 71 38 71 35 71
524 l0 438 438 0 c489 0 486 0 524 71 23 42 23 66 0 108 -38 71 -35 71 -524
71 l-438 0 0 438 c0 404 -1 440 -18 471 -19 36 -72 71 -107 71 -11 0 -36 -8
-54 -18z"/>
<path d="M10051 4122 c-36 -19 -71 -72 -71 -107 0 -35 35 -88 71 -107 31 -17
66 -18 451 -18 269 0 418 -4 418 -10 0 -5 -102 -416 -226 -912 -163 -654 -224
-912 -219 -935 8 -42 57 -91 99 -99 39 -7 98 17 120 48 8 11 128 475 267 1032
l253 1012 -20 39 c-40 77 -24 75 -599 75 -475 0 -513 -1 -544 -18z"/>
</g>
</svg>
