<?xml version="1.0" standalone="no"?>
<!DOCTYPE svg PUBLIC "-//W3C//DTD SVG 20010904//EN"
 "http://www.w3.org/TR/2001/REC-SVG-20010904/DTD/svg10.dtd">
<svg version="1.0" xmlns="http://www.w3.org/2000/svg"
 width="746pt" height="1000pt" viewBox="0 0 746 1000"
 preserveAspectRatio="xMidYMid meet">
<metadata>
Created by potrace 1.9, written by Peter Selinger 2001-2010
</metadata>
<g transform="translate(0,1000) scale(0.100000,-0.100000)"
fill="#000000" stroke="none">
<path d="M4661 8042 c-19 -10 -43 -34 -53 -53 -17 -31 -18 -69 -18 -544 0
-475 1 -513 18 -544 10 -19 34 -43 53 -53 31 -17 69 -18 544 -18 475 0 513 1
544 18 19 10 43 34 53 53 17 31 18 69 18 544 0 475 -1 513 -18 544 -10 19 -34
43 -53 53 -31 17 -69 18 -544 18 -475 0 -513 -1 -544 -18z m909 -597 l0 -365
-365 0 -365 0 0 365 0 365 365 0 365 0 0 -365z"/>
<path d="M251 6082 c-19 -10 -43 -34 -53 -53 -17 -32 -18 -84 -18 -1034 0
-950 1 -1002 18 -1034 38 -71 40 -71 484 -71 l398 0 -445 -890 c-246 -492
-447 -906 -450 -927 -16 -104 101 -175 190 -117 20 13 134 232 467 898 l440
881 438 -874 c321 -643 445 -881 466 -898 63 -50 148 -33 186 37 17 33 18 111
18 2015 0 1899 -1 1982 -18 2014 -19 36 -72 71 -107 71 -35 0 -88 -35 -107
-71 -17 -32 -18 -82 -18 -961 l0 -928 -855 0 -855 0 0 928 c0 879 -1 929 -18
961 -19 36 -72 71 -107 71 -11 0 -36 -8 -54 -18z m1888 -2844 l0 -653 -324
645 c-178 355 -324 648 -324 653 -1 4 145 7 324 7 l325 0 -1 -652z"/>
<path d="M3191 4122 c-36 -19 -71 -72 -71 -107 0 -35 35 -88 71 -107 32 -17
81 -18 921 -18 l888 0 -445 -890 c-246 -492 -447 -906 -450 -927 -8 -49 19
-100 66 -125 32 -17 84 -18 1034 -18 950 0 1002 1 1034 18 37 20 71 72 71 109
0 12 -202 428 -450 923 -247 495 -450 902 -450 905 0 3 399 5 888 5 840 0 889
1 921 18 36 19 71 72 71 107 0 35 -35 88 -71 107 -32 17 -115 18 -2014 18
-1899 0 -1982 -1 -2014 -18z m2016 -1940 c-424 -1 -772 0 -774 2 -2 2 170 352
383 777 l387 774 387 -775 388 -775 -771 -3z"/>
</g>
</svg>
