<?xml version="1.0" standalone="no"?>
<!DOCTYPE svg PUBLIC "-//W3C//DTD SVG 20010904//EN"
 "http://www.w3.org/TR/2001/REC-SVG-20010904/DTD/svg10.dtd">
<svg version="1.0" xmlns="http://www.w3.org/2000/svg"
 width="1138pt" height="1000pt" viewBox="0 0 1138 1000"
 preserveAspectRatio="xMidYMid meet">
<metadata>
Created by potrace 1.9, written by Peter Selinger 2001-2010
</metadata>
<g transform="translate(0,1000) scale(0.100000,-0.100000)"
fill="#000000" stroke="none">
<path d="M1110 6084 c-360 -65 -649 -275 -803 -585 -92 -185 -144 -413 -119
-522 7 -28 21 -99 31 -157 131 -727 392 -1308 845 -1880 123 -156 432 -465
591 -592 121 -96 316 -232 433 -303 35 -20 66 -43 69 -50 9 -25 73 -48 113
-41 58 9 373 207 555 350 483 378 854 835 1139 1405 173 344 298 743 365 1166
20 125 19 131 -5 283 -77 488 -428 840 -920 926 -359 63 -766 -92 -1007 -382
-35 -42 -79 -105 -98 -139 -19 -35 -36 -63 -39 -63 -3 1 -24 33 -47 73 -209
364 -689 586 -1103 511z m400 -269 c353 -114 585 -399 619 -764 5 -54 15 -107
22 -119 43 -69 175 -69 218 0 7 12 17 65 22 119 17 179 89 357 197 484 115
137 243 222 422 281 77 25 98 28 230 28 132 0 153 -3 230 -28 183 -61 317
-152 431 -292 66 -80 115 -175 155 -294 25 -76 28 -100 28 -220 0 -110 -5
-159 -27 -265 -86 -404 -225 -774 -424 -1130 -298 -531 -795 -1042 -1326
-1364 l-37 -23 -48 28 c-87 50 -266 176 -387 272 -163 130 -468 437 -599 602
-415 523 -672 1109 -781 1785 -28 175 -26 209 19 342 91 266 291 464 557 552
106 35 147 40 274 37 97 -3 136 -9 205 -31z"/>
<path d="M9065 6081 c-27 -13 -340 -320 -1000 -980 l-960 -961 -960 0 c-911 0
-962 -1 -994 -18 -36 -19 -71 -72 -71 -107 0 -35 35 -88 71 -107 32 -17 82
-18 961 -18 l928 0 0 -928 c0 -879 1 -929 18 -961 10 -19 34 -43 53 -53 32
-17 115 -18 2014 -18 1899 0 1982 1 2014 18 19 10 43 34 53 53 17 32 18 84 18
1032 0 834 -2 1003 -14 1030 -18 42 -1991 2013 -2029 2027 -39 14 -56 13 -102
-9z m977 -1208 l918 -918 0 -887 0 -888 -1835 0 -1835 0 0 855 0 855 762 0
763 0 -387 -387 c-405 -408 -418 -423 -403 -493 8 -39 56 -87 95 -95 16 -4 45
-2 63 4 22 8 186 165 544 523 544 546 538 538 514 610 -8 23 -151 173 -466
488 l-455 455 397 397 c219 219 400 398 403 398 3 0 418 -413 922 -917z
m-1562 -398 l335 -335 -675 0 -675 0 335 335 c184 184 337 335 340 335 3 0
156 -151 340 -335z"/>
</g>
</svg>
