<?xml version="1.0" standalone="no"?>
<!DOCTYPE svg PUBLIC "-//W3C//DTD SVG 20010904//EN"
 "http://www.w3.org/TR/2001/REC-SVG-20010904/DTD/svg10.dtd">
<svg version="1.0" xmlns="http://www.w3.org/2000/svg"
 width="452pt" height="1000pt" viewBox="0 0 452 1000"
 preserveAspectRatio="xMidYMid meet">
<metadata>
Created by potrace 1.9, written by Peter Selinger 2001-2010
</metadata>
<g transform="translate(0,1000) scale(0.100000,-0.100000)"
fill="#000000" stroke="none">
<path d="M2211 5102 c-19 -10 -43 -34 -53 -53 -17 -32 -18 -84 -18 -1034 0
-950 1 -1002 18 -1034 10 -19 34 -43 53 -53 32 -17 84 -18 1034 -18 950 0
1002 1 1034 18 19 10 43 34 53 53 17 32 18 84 18 1034 0 950 -1 1002 -18 1034
-10 19 -34 43 -53 53 -32 17 -84 18 -1034 18 -950 0 -1002 -1 -1034 -18z
m1889 -1087 l0 -855 -855 0 -855 0 0 855 0 855 855 0 855 0 0 -855z"/>
<path d="M154 4231 c-53 -13 -103 -50 -129 -95 -20 -35 -25 -56 -25 -112 0
-60 4 -77 28 -115 16 -24 40 -50 54 -58 24 -12 25 -16 21 -75 -5 -62 -5 -64
31 -99 32 -32 43 -37 82 -37 65 0 96 26 138 116 40 84 71 240 60 302 -21 120
-144 202 -260 173z"/>
<path d="M1125 4231 c-54 -14 -105 -52 -132 -99 -55 -93 -25 -230 62 -281 31
-18 35 -25 28 -44 -4 -12 -8 -38 -8 -58 2 -98 119 -151 197 -89 35 27 96 161
115 249 28 138 -4 245 -90 295 -46 27 -125 39 -172 27z"/>
</g>
</svg>
