<?xml version="1.0" standalone="no"?>
<!DOCTYPE svg PUBLIC "-//W3C//DTD SVG 20010904//EN"
 "http://www.w3.org/TR/2001/REC-SVG-20010904/DTD/svg10.dtd">
<svg version="1.0" xmlns="http://www.w3.org/2000/svg"
 width="256pt" height="1000pt" viewBox="0 0 256 1000"
 preserveAspectRatio="xMidYMid meet">
<metadata>
Created by potrace 1.9, written by Peter Selinger 2001-2010
</metadata>
<g transform="translate(0,1000) scale(0.100000,-0.100000)"
fill="#000000" stroke="none">
<path d="M251 6082 c-19 -10 -43 -34 -53 -53 -17 -32 -18 -115 -18 -2014 0
-1899 1 -1982 18 -2014 19 -35 72 -71 105 -71 31 0 85 30 104 58 15 22 19 55
23 192 l5 165 30 -41 c75 -102 305 -250 470 -303 244 -79 446 -79 690 0 168
54 390 198 474 308 l36 46 5 -170 c4 -142 8 -174 23 -197 19 -28 73 -58 104
-58 33 0 86 36 105 71 17 32 18 84 18 1034 0 950 -1 1002 -18 1034 -10 19 -34
43 -53 53 -32 17 -82 18 -961 18 l-928 0 0 928 c0 879 -1 929 -18 961 -19 36
-72 71 -107 71 -11 0 -36 -8 -54 -18z m292 -2224 c-21 -18 -55 -51 -75 -73
l-37 -40 -1 73 0 72 76 0 76 0 -39 -32z m967 -3 c83 -27 188 -75 242 -112 l27
-19 -252 -252 -252 -252 -250 250 -250 251 25 19 c39 31 179 96 245 115 149
44 329 43 465 0z m630 -47 l-1 -83 -25 30 c-59 69 -71 81 -104 107 l-35 27 83
1 82 0 0 -82z m-1294 -1017 c-285 -285 -251 -271 -319 -136 -142 283 -125 588
47 852 l21 33 250 -250 250 -250 -249 -249z m1131 732 c30 -39 93 -173 119
-258 26 -80 29 -104 29 -225 0 -121 -3 -145 -29 -225 -27 -86 -89 -219 -121
-260 -15 -19 -26 -9 -268 233 l-252 252 250 250 c137 137 252 250 254 250 2 0
10 -8 18 -17z m-225 -1186 c-53 -36 -158 -85 -242 -113 -77 -25 -98 -28 -230
-28 -132 0 -153 3 -230 28 -47 15 -119 46 -160 67 -134 70 -149 34 135 319
l250 250 252 -252 252 -252 -27 -19z"/>
</g>
</svg>
