<?xml version="1.0" standalone="no"?>
<!DOCTYPE svg PUBLIC "-//W3C//DTD SVG 20010904//EN"
 "http://www.w3.org/TR/2001/REC-SVG-20010904/DTD/svg10.dtd">
<svg version="1.0" xmlns="http://www.w3.org/2000/svg"
 width="452pt" height="1000pt" viewBox="0 0 452 1000"
 preserveAspectRatio="xMidYMid meet">
<metadata>
Created by potrace 1.9, written by Peter Selinger 2001-2010
</metadata>
<g transform="translate(0,1000) scale(0.100000,-0.100000)"
fill="#000000" stroke="none">
<path d="M1615 4231 c-54 -14 -105 -52 -132 -99 -55 -93 -25 -230 62 -281 31
-18 35 -25 28 -44 -4 -12 -8 -38 -8 -58 2 -98 119 -151 197 -89 35 27 96 161
115 249 28 138 -4 245 -90 295 -46 27 -125 39 -172 27z"/>
<path d="M2595 4231 c-54 -14 -105 -52 -132 -99 -55 -93 -25 -230 62 -281 31
-18 35 -25 28 -44 -4 -12 -8 -38 -8 -58 2 -98 119 -151 197 -89 35 27 96 161
115 249 28 138 -4 245 -90 295 -46 27 -125 39 -172 27z"/>
<path d="M251 2162 c-36 -19 -71 -72 -71 -107 0 -35 35 -88 71 -107 32 -17
115 -18 2014 -18 1899 0 1982 1 2014 18 36 19 71 72 71 107 0 35 -35 88 -71
107 -32 17 -115 18 -2014 18 -1899 0 -1982 -1 -2014 -18z"/>
</g>
</svg>
