<?xml version="1.0" standalone="no"?>
<!DOCTYPE svg PUBLIC "-//W3C//DTD SVG 20010904//EN"
 "http://www.w3.org/TR/2001/REC-SVG-20010904/DTD/svg10.dtd">
<svg version="1.0" xmlns="http://www.w3.org/2000/svg"
 width="452pt" height="1000pt" viewBox="0 0 452 1000"
 preserveAspectRatio="xMidYMid meet">
<metadata>
Created by potrace 1.9, written by Peter Selinger 2001-2010
</metadata>
<g transform="translate(0,1000) scale(0.100000,-0.100000)"
fill="#000000" stroke="none">
<path d="M3203 5123 c-33 -6 -79 -57 -86 -92 -26 -127 122 -210 212 -120 43
42 49 93 18 156 -20 42 -87 68 -144 56z"/>
<path d="M154 4231 c-53 -13 -103 -50 -129 -95 -20 -35 -25 -56 -25 -112 0
-60 4 -77 28 -115 16 -24 40 -50 54 -58 24 -12 25 -16 21 -75 -5 -62 -5 -64
31 -99 32 -32 43 -37 82 -37 65 0 96 26 138 116 40 84 71 240 60 302 -21 120
-144 202 -260 173z"/>
<path d="M1125 4231 c-54 -14 -105 -52 -132 -99 -55 -93 -25 -230 62 -281 31
-18 35 -25 28 -44 -4 -12 -8 -38 -8 -58 2 -98 119 -151 197 -89 35 27 96 161
115 249 28 138 -4 245 -90 295 -46 27 -125 39 -172 27z"/>
<path d="M2211 4122 c-36 -19 -71 -72 -71 -107 0 -35 35 -88 71 -107 32 -17
84 -18 1034 -18 950 0 1002 1 1034 18 36 19 71 72 71 107 0 35 -35 88 -71 107
-32 17 -84 18 -1034 18 -950 0 -1002 -1 -1034 -18z"/>
<path d="M3203 3163 c-33 -6 -79 -57 -86 -92 -26 -127 122 -210 212 -120 43
42 49 93 18 156 -20 42 -87 68 -144 56z"/>
</g>
</svg>
