<?xml version="1.0" standalone="no"?>
<!DOCTYPE svg PUBLIC "-//W3C//DTD SVG 20010904//EN"
 "http://www.w3.org/TR/2001/REC-SVG-20010904/DTD/svg10.dtd">
<svg version="1.0" xmlns="http://www.w3.org/2000/svg"
 width="1040pt" height="1000pt" viewBox="0 0 1040 1000"
 preserveAspectRatio="xMidYMid meet">
<metadata>
Created by potrace 1.9, written by Peter Selinger 2001-2010
</metadata>
<g transform="translate(0,1000) scale(0.100000,-0.100000)"
fill="#000000" stroke="none">
<path d="M4661 8042 c-19 -10 -43 -34 -53 -53 -17 -31 -18 -69 -18 -544 0
-475 1 -513 18 -544 10 -19 34 -43 53 -53 31 -17 69 -18 544 -18 475 0 513 1
544 18 19 10 43 34 53 53 17 31 18 69 18 544 0 475 -1 513 -18 544 -10 19 -34
43 -53 53 -31 17 -69 18 -544 18 -475 0 -513 -1 -544 -18z m909 -597 l0 -365
-365 0 -365 0 0 365 0 365 365 0 365 0 0 -365z"/>
<path d="M1107 6084 c-487 -92 -826 -436 -912 -925 -62 -352 98 -769 384
-1003 140 -115 345 -208 520 -237 l69 -12 7 -51 c24 -171 128 -403 245 -541
162 -194 411 -335 659 -376 l69 -12 7 -51 c14 -96 66 -251 122 -356 158 -300
445 -502 798 -564 114 -20 216 -20 330 0 356 62 644 267 803 572 106 203 164
512 109 582 -52 67 -164 65 -206 -2 -7 -11 -17 -63 -22 -116 -34 -367 -263
-651 -619 -768 -77 -25 -98 -28 -230 -28 -132 0 -153 3 -230 28 -295 97 -497
300 -584 587 -33 107 -33 117 2 124 167 35 249 65 374 134 289 160 481 440
543 792 45 256 -9 309 -270 263 -197 -34 -391 -121 -536 -240 -195 -159 -326
-391 -384 -676 -7 -35 -21 -35 -127 -2 -287 90 -495 298 -582 585 -33 107 -33
117 2 124 167 35 249 65 374 134 289 160 481 440 543 792 45 256 -9 309 -270
263 -197 -34 -391 -121 -536 -240 -195 -159 -326 -391 -384 -676 -7 -35 -21
-35 -127 -2 -173 54 -316 151 -429 290 -68 83 -117 178 -155 299 -26 80 -29
104 -29 225 0 121 3 145 29 225 38 121 87 216 155 299 152 188 367 302 610
325 54 5 107 15 119 22 69 43 68 165 -2 209 -30 19 -149 21 -239 4z m1009
-1241 c-3 -10 -15 -49 -27 -88 -83 -271 -296 -481 -578 -569 -46 -15 -85 -25
-87 -23 -2 2 8 41 22 88 87 283 289 487 574 580 102 34 103 34 96 12z m980
-980 c-3 -10 -15 -49 -27 -88 -83 -271 -296 -481 -578 -569 -46 -15 -85 -25
-87 -23 -2 2 8 41 22 88 87 283 289 487 574 580 102 34 103 34 96 12z"/>
<path d="M5151 6082 c-19 -10 -43 -34 -53 -53 -17 -32 -18 -115 -18 -2014 0
-1899 1 -1982 18 -2014 19 -36 72 -71 107 -71 35 0 88 35 107 71 17 32 18 115
18 2014 0 1899 -1 1982 -18 2014 -19 36 -72 71 -107 71 -11 0 -36 -8 -54 -18z"/>
<path d="M6131 6082 c-19 -10 -43 -34 -53 -53 -17 -32 -18 -115 -18 -2014 0
-1899 1 -1982 18 -2014 19 -36 72 -71 107 -71 35 0 88 35 107 71 17 32 18 115
18 2014 0 1899 -1 1982 -18 2014 -19 36 -72 71 -107 71 -11 0 -36 -8 -54 -18z"/>
<path d="M10051 6082 c-19 -10 -43 -34 -53 -53 -17 -32 -18 -115 -18 -2014 0
-1899 1 -1982 18 -2014 19 -36 72 -71 107 -71 35 0 88 35 107 71 17 32 18 115
18 2014 0 1899 -1 1982 -18 2014 -19 36 -72 71 -107 71 -11 0 -36 -8 -54 -18z"/>
<path d="M8091 5102 c-71 -38 -71 -35 -71 -524 l0 -438 -438 0 c-404 0 -440
-1 -471 -18 -36 -19 -71 -72 -71 -107 0 -35 35 -88 71 -107 31 -17 67 -18 471
-18 l438 0 0 -438 c0 -489 0 -486 71 -524 42 -23 66 -23 108 0 71 38 71 35 71
524 l0 438 438 0 c489 0 486 0 524 71 23 42 23 66 0 108 -38 71 -35 71 -524
71 l-438 0 0 438 c0 404 -1 440 -18 471 -19 36 -72 71 -107 71 -11 0 -36 -8
-54 -18z"/>
</g>
</svg>
