<?xml version="1.0" standalone="no"?>
<!DOCTYPE svg PUBLIC "-//W3C//DTD SVG 20010904//EN"
 "http://www.w3.org/TR/2001/REC-SVG-20010904/DTD/svg10.dtd">
<svg version="1.0" xmlns="http://www.w3.org/2000/svg"
 width="1040pt" height="1000pt" viewBox="0 0 1040 1000"
 preserveAspectRatio="xMidYMid meet">
<metadata>
Created by potrace 1.9, written by Peter Selinger 2001-2010
</metadata>
<g transform="translate(0,1000) scale(0.100000,-0.100000)"
fill="#000000" stroke="none">
<path d="M1232 8044 c-18 -9 -41 -29 -51 -43 -40 -56 -501 -992 -506 -1028
-11 -74 61 -150 132 -139 68 10 76 22 280 430 l195 391 193 -385 c200 -398
216 -423 282 -436 39 -7 95 18 118 53 41 62 45 53 -233 609 -194 389 -267 525
-287 538 -39 25 -85 29 -123 10z"/>
<path d="M5151 6082 c-19 -10 -43 -34 -53 -53 -17 -32 -18 -89 -18 -1169 l0
-1135 -45 51 c-184 211 -525 364 -815 364 -234 0 -519 -104 -701 -256 -290
-242 -446 -650 -384 -1003 49 -279 185 -523 384 -685 145 -119 339 -206 536
-240 364 -64 780 97 1017 394 125 155 201 338 239 569 18 110 19 192 19 1596
0 1415 -1 1482 -18 1514 -19 36 -72 71 -107 71 -11 0 -36 -8 -54 -18z m-701
-2227 c176 -56 318 -152 431 -291 68 -83 117 -178 155 -299 26 -80 29 -104 29
-225 0 -121 -3 -145 -29 -225 -93 -295 -290 -493 -586 -591 -77 -25 -98 -28
-230 -28 -132 0 -153 3 -230 28 -179 59 -319 154 -431 292 -68 82 -117 177
-155 299 -26 82 -29 103 -28 230 0 126 3 149 28 225 95 288 291 488 567 579
106 35 147 40 274 37 97 -3 137 -9 205 -31z"/>
<path d="M1110 5104 c-194 -35 -394 -125 -531 -240 -290 -242 -446 -650 -384
-1003 49 -279 185 -523 384 -685 145 -119 339 -206 536 -240 114 -20 216 -20
330 0 489 85 833 432 920 925 61 347 -93 758 -373 994 -241 203 -592 302 -882
249z m400 -269 c176 -56 318 -152 431 -291 68 -83 117 -178 155 -299 26 -80
29 -104 29 -225 0 -121 -3 -145 -29 -225 -93 -295 -290 -493 -586 -591 -77
-25 -98 -28 -230 -28 -132 0 -153 3 -230 28 -179 59 -319 154 -431 292 -68 82
-117 177 -155 299 -26 82 -29 103 -28 230 0 126 3 149 28 225 95 288 291 488
567 579 106 35 147 40 274 37 97 -3 137 -9 205 -31z"/>
<path d="M6131 4122 c-47 -25 -74 -76 -66 -125 3 -21 224 -474 500 -1027 538
-1076 515 -1035 600 -1035 22 0 53 9 68 19 23 15 124 209 469 900 l440 881
439 -877 c478 -955 459 -923 544 -923 22 0 53 9 68 20 23 14 136 232 533 1027
277 555 504 1018 504 1031 0 37 -34 89 -71 109 -32 17 -115 18 -2014 18 -1899
0 -1982 -1 -2014 -18z m1423 -1004 c-212 -425 -388 -775 -390 -777 -3 -3 -774
1534 -774 1544 0 3 349 5 775 5 l775 0 -386 -772z m1960 0 c-212 -425 -388
-775 -390 -777 -3 -3 -774 1534 -774 1544 0 3 349 5 775 5 l775 0 -386 -772z"/>
</g>
</svg>
