<?xml version="1.0" standalone="no"?>
<!DOCTYPE svg PUBLIC "-//W3C//DTD SVG 20010904//EN"
 "http://www.w3.org/TR/2001/REC-SVG-20010904/DTD/svg10.dtd">
<svg version="1.0" xmlns="http://www.w3.org/2000/svg"
 width="452pt" height="1000pt" viewBox="0 0 452 1000"
 preserveAspectRatio="xMidYMid meet">
<metadata>
Created by potrace 1.9, written by Peter Selinger 2001-2010
</metadata>
<g transform="translate(0,1000) scale(0.100000,-0.100000)"
fill="#000000" stroke="none">
<path d="M154 4231 c-53 -13 -103 -50 -129 -95 -20 -35 -25 -56 -25 -112 0
-60 4 -77 28 -115 16 -24 40 -50 54 -58 24 -12 25 -16 21 -75 -5 -62 -5 -64
31 -99 32 -32 43 -37 82 -37 65 0 96 26 138 116 40 84 71 240 60 302 -21 120
-144 202 -260 173z"/>
<path d="M1125 4231 c-54 -14 -105 -52 -132 -99 -55 -93 -25 -230 62 -281 31
-18 35 -25 28 -44 -4 -12 -8 -38 -8 -58 2 -98 119 -151 197 -89 35 27 96 161
115 249 28 138 -4 245 -90 295 -46 27 -125 39 -172 27z"/>
<path d="M3191 3142 c-71 -38 -71 -35 -71 -524 l0 -438 -438 0 c-404 0 -440
-1 -471 -18 -36 -19 -71 -72 -71 -107 0 -35 35 -88 71 -107 31 -17 67 -18 471
-18 l438 0 0 -438 c0 -489 0 -486 71 -524 42 -23 66 -23 108 0 71 38 71 35 71
524 l0 438 438 0 c489 0 486 0 524 71 23 42 23 66 0 108 -38 71 -35 71 -524
71 l-438 0 0 438 c0 404 -1 440 -18 471 -19 36 -72 71 -107 71 -11 0 -36 -8
-54 -18z"/>
</g>
</svg>
