<?xml version="1.0" standalone="no"?>
<!DOCTYPE svg PUBLIC "-//W3C//DTD SVG 20010904//EN"
 "http://www.w3.org/TR/2001/REC-SVG-20010904/DTD/svg10.dtd">
<svg version="1.0" xmlns="http://www.w3.org/2000/svg"
 width="648pt" height="1000pt" viewBox="0 0 648 1000"
 preserveAspectRatio="xMidYMid meet">
<metadata>
Created by potrace 1.9, written by Peter Selinger 2001-2010
</metadata>
<g transform="translate(0,1000) scale(0.100000,-0.100000)"
fill="#000000" stroke="none">
<path d="M3192 8044 c-18 -9 -41 -29 -51 -43 -40 -56 -501 -992 -506 -1028
-11 -74 61 -150 132 -139 68 10 76 22 280 430 l195 391 193 -385 c200 -398
216 -423 282 -436 39 -7 95 18 118 53 41 62 45 53 -233 609 -194 389 -267 525
-287 538 -39 25 -85 29 -123 10z"/>
<path d="M251 2162 c-36 -19 -71 -72 -71 -107 0 -35 35 -88 71 -107 28 -15 58
-18 184 -18 l150 0 -42 -36 c-119 -99 -254 -311 -307 -481 -53 -171 -69 -347
-35 -401 43 -68 165 -68 208 0 7 12 17 65 22 119 17 179 89 357 197 484 115
137 243 222 422 281 77 25 98 28 230 28 132 0 153 -3 230 -28 120 -40 214 -89
294 -155 193 -157 302 -366 326 -623 6 -62 17 -150 25 -196 49 -284 188 -529
395 -695 99 -79 274 -169 397 -203 88 -24 100 -25 315 -22 220 4 224 4 318 36
400 135 671 457 745 884 8 46 19 134 25 196 35 378 258 658 620 778 77 25 98
28 230 28 132 0 153 -3 230 -28 179 -59 307 -144 422 -281 108 -127 180 -305
197 -484 5 -54 15 -107 22 -119 43 -68 165 -68 208 0 22 35 24 120 7 222 -43
249 -143 452 -307 618 l-77 78 151 0 c128 0 158 3 186 18 36 19 71 72 71 107
0 35 -35 88 -71 107 -32 17 -146 18 -2994 18 -2848 0 -2962 -1 -2994 -18z
m4212 -268 c-73 -61 -170 -187 -226 -295 -86 -162 -123 -304 -147 -553 -35
-381 -259 -663 -620 -782 -77 -25 -98 -28 -230 -28 -132 0 -153 3 -230 28
-179 59 -319 154 -431 292 -106 130 -172 299 -189 490 -35 372 -129 601 -331
806 l-77 78 1261 0 1262 0 -42 -36z"/>
</g>
</svg>
