<?xml version="1.0" standalone="no"?>
<!DOCTYPE svg PUBLIC "-//W3C//DTD SVG 20010904//EN"
 "http://www.w3.org/TR/2001/REC-SVG-20010904/DTD/svg10.dtd">
<svg version="1.0" xmlns="http://www.w3.org/2000/svg"
 width="1138pt" height="1000pt" viewBox="0 0 1138 1000"
 preserveAspectRatio="xMidYMid meet">
<metadata>
Created by potrace 1.9, written by Peter Selinger 2001-2010
</metadata>
<g transform="translate(0,1000) scale(0.100000,-0.100000)"
fill="#000000" stroke="none">
<path d="M251 6082 c-19 -10 -43 -34 -53 -53 -17 -32 -18 -84 -18 -1034 0
-950 1 -1002 18 -1034 38 -71 40 -71 484 -71 l398 0 -445 -890 c-246 -492
-447 -906 -450 -927 -16 -104 101 -175 190 -117 20 13 134 232 467 898 l440
881 438 -874 c321 -643 445 -881 466 -898 63 -50 148 -33 186 37 17 33 18 111
18 2015 0 1899 -1 1982 -18 2014 -19 36 -72 71 -107 71 -35 0 -88 -35 -107
-71 -17 -32 -18 -82 -18 -961 l0 -928 -855 0 -855 0 0 928 c0 879 -1 929 -18
961 -19 36 -72 71 -107 71 -11 0 -36 -8 -54 -18z m1888 -2844 l0 -653 -324
645 c-178 355 -324 648 -324 653 -1 4 145 7 324 7 l325 0 -1 -652z"/>
<path d="M11025 6081 c-57 -27 -1988 -1962 -2010 -2013 -8 -21 -15 -45 -15
-55 0 -33 36 -86 71 -105 32 -17 82 -18 961 -18 l928 0 0 -928 c0 -879 1 -929
18 -961 19 -36 72 -71 107 -71 35 0 88 35 107 71 17 32 18 115 18 2014 0 1899
-1 1982 -18 2014 -19 36 -73 71 -107 71 -11 0 -38 -9 -60 -19z m-65 -1176 l0
-765 -767 0 -768 0 765 765 c421 421 766 765 767 765 2 0 3 -344 3 -765z"/>
<path d="M3635 3149 c-242 -41 -429 -208 -491 -439 -11 -40 -17 -101 -17 -160
0 -59 6 -120 17 -160 42 -155 149 -292 287 -368 67 -38 107 -50 259 -82 40 -8
580 -10 2030 -8 2218 4 2040 -2 2208 79 148 72 263 214 308 379 23 86 23 234
0 320 -55 204 -213 363 -421 426 -57 18 -161 19 -2095 20 -1119 1 -2057 -2
-2085 -7z m4157 -271 c74 -34 152 -112 186 -186 22 -48 27 -71 27 -142 0 -105
-29 -175 -103 -249 -63 -63 -117 -90 -211 -107 -112 -20 -3890 -20 -4002 0
-94 17 -148 44 -211 107 -74 74 -103 144 -103 249 0 71 5 94 27 142 46 98 147
184 245 207 22 5 903 8 2063 8 l2025 -2 57 -27z"/>
</g>
</svg>
