<?xml version="1.0" standalone="no"?>
<!DOCTYPE svg PUBLIC "-//W3C//DTD SVG 20010904//EN"
 "http://www.w3.org/TR/2001/REC-SVG-20010904/DTD/svg10.dtd">
<svg version="1.0" xmlns="http://www.w3.org/2000/svg"
 width="1530pt" height="1000pt" viewBox="0 0 1530 1000"
 preserveAspectRatio="xMidYMid meet">
<metadata>
Created by potrace 1.9, written by Peter Selinger 2001-2010
</metadata>
<g transform="translate(0,1000) scale(0.100000,-0.100000)"
fill="#000000" stroke="none">
<path d="M4075 6094 c-684 -55 -1279 -418 -1631 -994 -108 -179 -182 -356
-234 -560 -23 -92 -60 -292 -60 -324 0 -3 -410 199 -910 449 -501 250 -920
455 -933 455 -65 0 -133 -75 -123 -138 11 -76 -10 -64 999 -569 524 -261 955
-481 959 -487 4 -6 8 -33 8 -60 0 -70 27 -233 60 -366 184 -730 759 -1306
1490 -1490 197 -49 316 -64 520 -64 557 0 1074 211 1461 595 314 312 523 721
589 1149 6 41 13 87 16 102 l5 27 899 -449 c498 -249 916 -452 937 -455 104
-16 175 101 117 190 -13 20 -250 143 -978 507 -529 264 -963 482 -965 484 -2
2 -7 45 -12 96 -56 668 -420 1256 -989 1604 -234 142 -489 233 -776 278 -102
16 -357 27 -449 20z m418 -265 c215 -32 478 -126 660 -235 240 -145 495 -400
640 -641 78 -128 158 -323 198 -478 21 -81 50 -237 44 -243 -1 -2 -404 197
-894 442 -490 246 -902 446 -914 446 -37 0 -89 -34 -109 -71 -17 -32 -18 -81
-18 -921 0 -489 -2 -888 -5 -888 -3 0 -387 191 -854 425 l-850 424 5 58 c20
244 73 444 174 661 168 359 503 694 862 862 210 98 418 154 648 174 73 6 334
-3 413 -15z m1550 -1941 c-17 -230 -73 -441 -173 -656 -142 -302 -420 -607
-717 -786 -184 -110 -440 -201 -668 -237 -103 -16 -427 -16 -530 0 -228 36
-484 127 -668 237 -240 145 -495 400 -640 641 -78 128 -158 323 -198 478 -22
82 -49 235 -43 235 2 0 400 -198 884 -440 486 -243 896 -442 917 -445 49 -8
100 19 125 66 17 32 18 81 18 921 l0 888 849 -424 848 -425 -4 -53z"/>
<path d="M9071 6082 c-36 -19 -71 -72 -71 -107 0 -35 35 -88 71 -107 32 -17
112 -18 1901 -18 l1868 0 -427 -855 -428 -855 -460 0 c-515 0 -508 1 -547 -71
-23 -42 -23 -66 0 -108 38 -71 40 -71 484 -71 l398 0 -445 -890 c-246 -492
-447 -906 -450 -927 -8 -49 19 -100 66 -125 32 -17 84 -18 1034 -18 950 0
1002 1 1034 18 36 19 71 72 71 107 0 35 -35 88 -71 107 -32 17 -81 18 -921 18
-489 0 -888 2 -888 5 0 3 191 388 425 855 l425 850 1277 0 1278 0 -387 -387
c-405 -408 -418 -423 -403 -493 8 -39 56 -87 95 -95 16 -4 45 -2 63 4 22 8
186 165 544 523 544 546 538 538 514 611 -8 22 -165 186 -523 544 -445 444
-518 513 -550 518 -64 12 -127 -31 -143 -98 -17 -64 1 -86 403 -489 l387 -388
-1213 0 c-666 0 -1212 2 -1212 5 0 3 203 410 450 905 248 495 450 911 450 923
0 37 -34 89 -71 109 -32 17 -115 18 -2014 18 -1899 0 -1982 -1 -2014 -18z"/>
</g>
</svg>
