<?xml version="1.0" standalone="no"?>
<!DOCTYPE svg PUBLIC "-//W3C//DTD SVG 20010904//EN"
 "http://www.w3.org/TR/2001/REC-SVG-20010904/DTD/svg10.dtd">
<svg version="1.0" xmlns="http://www.w3.org/2000/svg"
 width="942pt" height="1000pt" viewBox="0 0 942 1000"
 preserveAspectRatio="xMidYMid meet">
<metadata>
Created by potrace 1.9, written by Peter Selinger 2001-2010
</metadata>
<g transform="translate(0,1000) scale(0.100000,-0.100000)"
fill="#000000" stroke="none">
<path d="M251 6082 c-36 -19 -71 -73 -71 -107 1 -60 52 -114 999 -1060 l961
-960 0 -887 0 -888 -928 0 c-879 0 -929 -1 -961 -18 -36 -19 -71 -72 -71 -107
0 -35 35 -88 71 -107 32 -17 115 -18 2014 -18 1899 0 1982 1 2014 18 36 19 71
72 71 107 0 35 -35 88 -71 107 -32 17 -82 18 -961 18 l-928 0 0 893 0 892 970
970 c687 686 973 980 981 1003 6 17 8 46 4 62 -8 39 -56 87 -95 95 -73 16 -53
35 -1048 -959 l-942 -941 -943 942 c-531 531 -954 947 -970 953 -39 14 -57 13
-96 -8z"/>
<path d="M8975 6094 c-876 -68 -1599 -651 -1851 -1492 -2 -8 -19 9 -39 39
-163 242 -430 409 -740 463 -224 39 -459 -2 -684 -121 -301 -158 -503 -444
-565 -799 -63 -357 95 -772 383 -1008 188 -154 467 -256 701 -256 87 0 221 22
316 51 37 11 74 23 83 25 9 3 3 -2 -14 -12 -16 -9 -65 -46 -107 -81 -289 -240
-445 -649 -383 -1002 49 -279 185 -523 384 -685 188 -154 467 -256 701 -256
239 0 523 106 712 265 280 236 434 647 373 994 -56 318 -218 578 -466 747 -30
21 -47 35 -38 31 205 -72 386 -92 564 -61 489 85 833 432 920 925 61 347 -93
758 -373 994 -189 159 -473 265 -712 265 -159 0 -355 -50 -508 -130 l-93 -49
22 37 c133 219 395 477 626 616 135 81 328 159 493 200 128 32 147 35 329 50
88 8 166 19 178 26 70 44 69 166 -1 210 -22 14 -124 20 -211 14z m-2565 -1259
c176 -56 318 -152 431 -291 68 -83 117 -178 155 -299 26 -80 29 -104 29 -225
0 -121 -3 -145 -29 -225 -93 -295 -290 -493 -586 -591 -77 -25 -98 -28 -230
-28 -132 0 -153 3 -230 28 -179 59 -319 154 -431 292 -68 82 -117 177 -155
299 -26 82 -29 103 -28 230 0 126 3 149 28 225 95 288 291 488 567 579 106 35
147 40 274 37 97 -3 137 -9 205 -31z m1960 0 c176 -56 318 -152 431 -291 68
-83 117 -178 155 -299 26 -80 29 -104 29 -225 0 -121 -3 -145 -29 -225 -93
-295 -290 -493 -586 -591 -77 -25 -98 -28 -230 -28 -132 0 -153 3 -230 28
-179 59 -319 154 -431 292 -68 82 -117 177 -155 299 -26 82 -29 103 -28 230 0
126 3 149 28 225 95 288 291 488 567 579 106 35 147 40 274 37 97 -3 137 -9
205 -31z m-1171 -1378 c65 -119 192 -254 323 -344 29 -20 46 -34 37 -30 -132
47 -289 77 -399 77 -110 0 -267 -30 -399 -77 -9 -4 8 10 38 31 131 89 256 223
323 346 18 33 35 60 38 60 3 0 20 -28 39 -63z m191 -582 c176 -56 318 -152
431 -291 68 -83 117 -178 155 -299 26 -80 29 -104 29 -225 0 -121 -3 -145 -29
-225 -93 -295 -290 -493 -586 -591 -77 -25 -98 -28 -230 -28 -132 0 -153 3
-230 28 -179 59 -319 154 -431 292 -68 82 -117 177 -155 299 -26 82 -29 103
-28 230 0 126 3 149 28 225 95 288 291 488 567 579 106 35 147 40 274 37 97
-3 137 -9 205 -31z"/>
</g>
</svg>
