<?xml version="1.0" standalone="no"?>
<!DOCTYPE svg PUBLIC "-//W3C//DTD SVG 20010904//EN"
 "http://www.w3.org/TR/2001/REC-SVG-20010904/DTD/svg10.dtd">
<svg version="1.0" xmlns="http://www.w3.org/2000/svg"
 width="1040pt" height="1000pt" viewBox="0 0 1040 1000"
 preserveAspectRatio="xMidYMid meet">
<metadata>
Created by potrace 1.9, written by Peter Selinger 2001-2010
</metadata>
<g transform="translate(0,1000) scale(0.100000,-0.100000)"
fill="#000000" stroke="none">
<path d="M1107 6084 c-487 -92 -826 -436 -912 -925 -63 -358 100 -776 395
-1012 100 -79 275 -169 395 -202 173 -47 271 -55 689 -55 l386 0 -445 -890
c-246 -492 -447 -906 -450 -927 -16 -104 101 -175 190 -117 20 13 134 232 467
898 l440 881 439 -877 c478 -955 459 -923 544 -923 22 0 53 9 68 19 23 15 124
209 469 900 l440 881 438 -874 c321 -643 445 -881 466 -898 78 -62 184 -20
201 81 4 27 -61 164 -446 934 -248 496 -451 904 -451 907 0 3 179 5 398 5 366
0 400 1 431 18 36 19 71 72 71 107 0 35 -35 88 -71 107 -32 17 -114 18 -1974
18 -1243 0 -1979 4 -2048 10 -252 24 -463 136 -618 326 -68 83 -117 178 -155
299 -26 80 -29 104 -29 225 0 121 3 145 29 225 38 121 87 216 155 299 152 188
367 302 610 325 54 5 107 15 119 22 69 43 68 165 -2 209 -30 19 -149 21 -239
4z m2527 -2966 c-212 -425 -388 -775 -390 -777 -3 -3 -774 1534 -774 1544 0 3
349 5 775 5 l775 0 -386 -772z"/>
<path d="M6131 6082 c-19 -10 -43 -34 -53 -53 -17 -32 -18 -115 -18 -2014 0
-1899 1 -1982 18 -2014 10 -19 34 -43 53 -53 32 -17 115 -18 2014 -18 1899 0
1982 1 2014 18 19 10 43 34 53 53 17 32 18 115 18 2014 0 1899 -1 1982 -18
2014 -19 36 -72 71 -107 71 -35 0 -88 -35 -107 -71 -17 -32 -18 -113 -18
-1941 l0 -1908 -1835 0 -1835 0 0 1908 c0 1828 -1 1909 -18 1941 -19 36 -72
71 -107 71 -11 0 -36 -8 -54 -18z"/>
</g>
</svg>
