<?xml version="1.0" standalone="no"?>
<!DOCTYPE svg PUBLIC "-//W3C//DTD SVG 20010904//EN"
 "http://www.w3.org/TR/2001/REC-SVG-20010904/DTD/svg10.dtd">
<svg version="1.0" xmlns="http://www.w3.org/2000/svg"
 width="746pt" height="1000pt" viewBox="0 0 746 1000"
 preserveAspectRatio="xMidYMid meet">
<metadata>
Created by potrace 1.9, written by Peter Selinger 2001-2010
</metadata>
<g transform="translate(0,1000) scale(0.100000,-0.100000)"
fill="#000000" stroke="none">
<path d="M5129 6083 c-44 -27 -51 -51 -65 -214 -15 -182 -18 -201 -50 -329
-82 -329 -238 -604 -484 -850 -246 -246 -521 -402 -850 -484 -128 -32 -147
-35 -329 -50 -88 -8 -166 -19 -178 -26 -73 -46 -70 -172 5 -212 60 -31 354 -5
582 52 530 134 985 474 1266 948 l49 82 5 -1492 c5 -1419 6 -1494 23 -1520 19
-27 72 -58 102 -58 30 0 83 31 102 58 17 26 18 101 23 1512 l5 1485 44 -75
c269 -460 737 -808 1261 -940 228 -57 522 -83 582 -52 74 40 77 167 5 212 -12
7 -90 18 -178 26 -182 15 -201 18 -329 50 -165 41 -358 119 -493 200 -240 145
-495 400 -640 641 -82 135 -160 327 -201 493 -32 128 -35 147 -50 329 -8 88
-19 166 -26 178 -32 51 -127 70 -181 36z"/>
<path d="M251 5102 c-19 -10 -43 -34 -53 -53 -17 -32 -18 -84 -18 -1034 0
-950 1 -1002 18 -1034 10 -19 34 -43 53 -53 32 -17 84 -18 1034 -18 950 0
1002 1 1034 18 19 10 43 34 53 53 17 32 18 84 18 1034 0 950 -1 1002 -18 1034
-10 19 -34 43 -53 53 -32 17 -84 18 -1034 18 -950 0 -1002 -1 -1034 -18z
m1889 -1087 l0 -855 -855 0 -855 0 0 855 0 855 855 0 855 0 0 -855z"/>
<path d="M251 2162 c-36 -19 -71 -72 -71 -107 0 -35 35 -88 71 -107 32 -17 84
-18 1034 -18 950 0 1002 1 1034 18 36 19 71 72 71 107 0 35 -35 88 -71 107
-32 17 -84 18 -1034 18 -950 0 -1002 -1 -1034 -18z"/>
</g>
</svg>
