<?xml version="1.0" standalone="no"?>
<!DOCTYPE svg PUBLIC "-//W3C//DTD SVG 20010904//EN"
 "http://www.w3.org/TR/2001/REC-SVG-20010904/DTD/svg10.dtd">
<svg version="1.0" xmlns="http://www.w3.org/2000/svg"
 width="648pt" height="1000pt" viewBox="0 0 648 1000"
 preserveAspectRatio="xMidYMid meet">
<metadata>
Created by potrace 1.9, written by Peter Selinger 2001-2010
</metadata>
<g transform="translate(0,1000) scale(0.100000,-0.100000)"
fill="#000000" stroke="none">
<path d="M5030 6084 c-270 -49 -508 -184 -674 -383 -113 -135 -208 -344 -237
-520 l-12 -68 -68 -12 c-176 -29 -385 -124 -520 -237 -290 -242 -446 -650
-384 -1003 49 -279 185 -523 384 -685 188 -154 467 -256 701 -256 239 0 523
106 712 265 280 236 434 647 373 994 -62 352 -254 632 -543 792 -125 69 -207
99 -374 134 -35 7 -35 21 -2 127 91 288 289 486 584 584 77 25 98 28 230 28
132 0 153 -3 230 -28 183 -61 317 -152 431 -292 66 -80 115 -175 155 -294 25
-76 28 -100 28 -220 0 -110 -5 -159 -27 -265 -116 -544 -340 -1056 -641 -1465
-324 -441 -698 -782 -1159 -1059 -93 -56 -127 -94 -127 -144 0 -76 66 -135
138 -123 39 6 169 80 347 200 768 512 1362 1337 1608 2232 66 241 129 576 120
644 -31 253 -83 411 -188 575 -222 347 -685 552 -1085 479z m-580 -1249 c176
-56 318 -152 431 -291 68 -83 117 -178 155 -299 26 -80 29 -104 29 -225 0
-121 -3 -145 -29 -225 -93 -295 -290 -493 -586 -591 -77 -25 -98 -28 -230 -28
-132 0 -153 3 -230 28 -179 59 -319 154 -431 292 -68 82 -117 177 -155 299
-26 82 -29 103 -28 230 0 126 3 149 28 225 95 288 291 488 567 579 106 35 147
40 274 37 97 -3 137 -9 205 -31z"/>
<path d="M1243 5123 c-33 -6 -79 -57 -86 -92 -26 -127 122 -210 212 -120 43
42 49 93 18 156 -20 42 -87 68 -144 56z"/>
<path d="M251 4122 c-36 -19 -71 -72 -71 -107 0 -35 35 -88 71 -107 32 -17 84
-18 1034 -18 950 0 1002 1 1034 18 36 19 71 72 71 107 0 35 -35 88 -71 107
-32 17 -84 18 -1034 18 -950 0 -1002 -1 -1034 -18z"/>
<path d="M1243 3163 c-33 -6 -79 -57 -86 -92 -26 -127 122 -210 212 -120 43
42 49 93 18 156 -20 42 -87 68 -144 56z"/>
</g>
</svg>
