<?xml version="1.0" standalone="no"?>
<!DOCTYPE svg PUBLIC "-//W3C//DTD SVG 20010904//EN"
 "http://www.w3.org/TR/2001/REC-SVG-20010904/DTD/svg10.dtd">
<svg version="1.0" xmlns="http://www.w3.org/2000/svg"
 width="1236pt" height="1000pt" viewBox="0 0 1236 1000"
 preserveAspectRatio="xMidYMid meet">
<metadata>
Created by potrace 1.9, written by Peter Selinger 2001-2010
</metadata>
<g transform="translate(0,1000) scale(0.100000,-0.100000)"
fill="#000000" stroke="none">
<path d="M2115 6094 c-684 -55 -1279 -418 -1631 -994 -199 -327 -298 -686
-298 -1080 0 -204 15 -323 64 -520 184 -731 759 -1306 1490 -1490 197 -49 316
-64 520 -64 557 0 1074 211 1461 595 354 352 565 806 609 1312 l8 100 491 491
c425 426 491 496 496 528 12 64 -31 127 -98 143 -65 17 -85 0 -503 -417 -318
-316 -403 -397 -407 -382 -3 11 -9 39 -12 64 -11 77 -63 271 -95 360 -101 276
-275 546 -489 759 -372 369 -872 581 -1407 595 -82 2 -171 2 -199 0z m418
-265 c215 -32 478 -126 660 -235 240 -145 495 -400 640 -641 78 -129 159 -326
198 -478 11 -44 22 -89 26 -100 3 -11 -165 150 -373 357 -326 324 -384 378
-416 383 -64 12 -127 -31 -143 -98 -17 -66 -4 -81 491 -577 l474 -475 -10
-110 c-19 -222 -71 -411 -170 -623 -142 -302 -420 -607 -717 -786 -184 -110
-440 -201 -668 -237 -44 -7 -163 -13 -265 -13 -195 0 -285 10 -440 49 -327 83
-601 238 -841 476 -207 206 -342 416 -439 679 -76 209 -104 374 -104 620 0
195 10 285 49 440 84 331 239 604 485 850 318 317 699 495 1150 534 73 6 334
-3 413 -15z"/>
<path d="M9955 6094 c-684 -55 -1279 -418 -1631 -994 -199 -327 -298 -686
-298 -1080 0 -477 143 -896 436 -1279 l80 -104 -250 -251 c-259 -261 -283
-292 -267 -353 16 -67 79 -110 143 -98 31 5 77 46 298 266 231 230 262 258
274 244 21 -26 206 -157 302 -214 280 -167 549 -247 968 -289 97 -10 166 -6
385 24 615 85 1155 440 1481 975 199 326 298 686 298 1079 0 475 -143 896
-434 1276 l-78 102 254 253 c262 262 282 288 269 349 -8 39 -56 87 -95 95 -66
15 -93 -5 -357 -268 l-253 -251 -27 26 c-46 42 -174 133 -274 194 -233 142
-488 233 -775 278 -102 16 -357 27 -449 20z m25 -1137 l0 -882 -628 -628 -628
-628 -20 23 c-39 43 -140 183 -178 245 -110 184 -201 440 -237 668 -7 44 -13
163 -13 265 0 102 6 221 13 265 36 228 127 484 237 668 146 242 399 495 641
641 218 130 561 241 761 245 l52 1 0 -883z m393 872 c215 -32 478 -126 660
-235 71 -43 236 -163 254 -185 10 -13 -77 -104 -522 -549 l-535 -535 0 758 0
757 36 0 c19 0 68 -5 107 -11z m1190 -716 c152 -203 250 -407 312 -653 39
-155 49 -245 49 -440 0 -195 -10 -285 -49 -440 -84 -332 -244 -610 -494 -859
-197 -196 -401 -325 -661 -421 -145 -53 -359 -100 -454 -100 l-36 0 0 882 0
883 622 622 c343 343 626 623 630 623 4 0 40 -44 81 -97z m-1583 -2158 l0
-755 -41 0 c-193 0 -553 115 -772 246 -73 44 -242 167 -252 184 -5 8 182 202
526 546 294 294 535 534 536 534 2 0 3 -340 3 -755z"/>
<path d="M6143 4143 c-33 -6 -79 -57 -86 -92 -26 -127 122 -210 212 -120 43
42 49 93 18 156 -20 42 -87 68 -144 56z"/>
<path d="M7123 4143 c-33 -6 -79 -57 -86 -92 -26 -127 122 -210 212 -120 43
42 49 93 18 156 -20 42 -87 68 -144 56z"/>
</g>
</svg>
