<?xml version="1.0" standalone="no"?>
<!DOCTYPE svg PUBLIC "-//W3C//DTD SVG 20010904//EN"
 "http://www.w3.org/TR/2001/REC-SVG-20010904/DTD/svg10.dtd">
<svg version="1.0" xmlns="http://www.w3.org/2000/svg"
 width="256pt" height="1000pt" viewBox="0 0 256 1000"
 preserveAspectRatio="xMidYMid meet">
<metadata>
Created by potrace 1.9, written by Peter Selinger 2001-2010
</metadata>
<g transform="translate(0,1000) scale(0.100000,-0.100000)"
fill="#000000" stroke="none">
<path d="M251 6082 c-47 -25 -74 -76 -66 -125 3 -21 204 -435 450 -927 l445
-890 -398 0 c-444 0 -446 0 -484 -71 -23 -42 -23 -66 0 -108 38 -71 35 -71
524 -71 l438 0 0 -365 0 -365 -438 0 c-489 0 -486 0 -524 -71 -23 -42 -23 -66
0 -108 38 -71 35 -71 524 -71 l438 0 0 -438 c0 -489 0 -486 71 -524 42 -23 66
-23 108 0 71 38 71 35 71 524 l0 438 438 0 c489 0 486 0 524 71 23 42 23 66 0
108 -38 71 -35 71 -524 71 l-438 0 0 365 0 365 438 0 c489 0 486 0 524 71 23
42 23 66 0 108 -38 71 -40 71 -484 71 -219 0 -398 2 -398 5 0 3 203 411 451
907 385 770 450 907 446 934 -17 101 -123 143 -201 81 -21 -17 -145 -255 -466
-898 l-438 -874 -440 881 c-333 666 -447 885 -467 898 -41 27 -85 30 -124 8z"/>
</g>
</svg>
