<?xml version="1.0" standalone="no"?>
<!DOCTYPE svg PUBLIC "-//W3C//DTD SVG 20010904//EN"
 "http://www.w3.org/TR/2001/REC-SVG-20010904/DTD/svg10.dtd">
<svg version="1.0" xmlns="http://www.w3.org/2000/svg"
 width="1236pt" height="1000pt" viewBox="0 0 1236 1000"
 preserveAspectRatio="xMidYMid meet">
<metadata>
Created by potrace 1.9, written by Peter Selinger 2001-2010
</metadata>
<g transform="translate(0,1000) scale(0.100000,-0.100000)"
fill="#000000" stroke="none">
<path d="M1110 6084 c-194 -35 -394 -125 -531 -240 -290 -242 -446 -650 -384
-1003 49 -279 185 -523 384 -685 138 -113 340 -206 514 -236 l67 -12 0 -937
c0 -888 1 -938 18 -970 10 -19 34 -43 53 -53 32 -17 115 -18 2012 -18 2174 0
2021 -4 2064 58 17 26 18 101 23 1512 l5 1485 44 -75 c269 -460 737 -808 1261
-940 228 -57 522 -83 582 -52 74 40 77 167 5 212 -12 7 -90 18 -178 26 -182
15 -201 18 -329 50 -165 41 -358 119 -493 200 -240 145 -495 400 -640 641 -82
135 -160 327 -201 493 -32 128 -35 147 -50 329 -8 88 -19 166 -26 178 -44 70
-176 70 -220 0 -7 -12 -18 -90 -26 -178 -15 -182 -18 -201 -50 -329 -82 -329
-238 -604 -484 -850 -246 -246 -521 -402 -850 -484 -128 -32 -147 -35 -329
-50 -88 -8 -166 -19 -178 -26 -73 -46 -70 -172 5 -212 34 -18 225 -14 362 7
629 97 1154 444 1475 975 32 52 59 97 61 99 2 2 4 -631 4 -1407 l0 -1412
-1835 0 -1835 0 0 865 0 864 38 6 c20 4 78 18 127 31 417 115 712 448 790 895
61 347 -93 758 -373 994 -241 203 -592 302 -882 249z m400 -269 c176 -56 318
-152 431 -291 68 -83 117 -178 155 -299 26 -80 29 -104 29 -225 0 -121 -3
-145 -29 -225 -93 -295 -290 -493 -586 -591 -77 -25 -98 -28 -230 -28 -132 0
-153 3 -230 28 -179 59 -319 154 -431 292 -68 82 -117 177 -155 299 -26 82
-29 103 -28 230 0 126 3 149 28 225 95 288 291 488 567 579 106 35 147 40 274
37 97 -3 137 -9 205 -31z"/>
<path d="M8091 4122 c-36 -19 -71 -72 -71 -107 0 -35 35 -88 71 -107 31 -17
65 -18 431 -18 l398 0 -445 -890 c-246 -492 -447 -906 -450 -927 -16 -104 101
-175 190 -117 20 13 134 232 467 898 l440 881 439 -877 c478 -955 459 -923
544 -923 22 0 53 9 68 19 23 15 124 209 469 900 l440 881 438 -874 c321 -643
445 -881 466 -898 78 -62 184 -20 201 81 4 27 -61 164 -446 934 -248 496 -451
904 -451 907 0 3 179 5 398 5 366 0 400 1 431 18 36 19 71 72 71 107 0 35 -35
88 -71 107 -32 17 -115 18 -2014 18 -1899 0 -1982 -1 -2014 -18z m2403 -1004
c-212 -425 -388 -775 -390 -777 -3 -3 -774 1534 -774 1544 0 3 349 5 775 5
l775 0 -386 -772z"/>
</g>
</svg>
